solid B
facet normal 0.000000 1.000000 0.000000
outer loop
vertex -154.236389 -3.403627 291.392944
vertex -153.718750 -3.403627 291.461090
vertex -153.201111 -3.403627 291.392944
endloop
endfacet
facet normal 0.000000 1.000000 0.000001
outer loop
vertex -154.236389 -3.403627 291.392944
vertex -153.201111 -3.403627 291.392944
vertex -152.718750 -3.403627 291.193146
endloop
endfacet
facet normal 0.000000 1.000000 0.000000
outer loop
vertex -154.718750 -3.403627 291.193146
vertex -154.236389 -3.403627 291.392944
vertex -152.718750 -3.403627 291.193146
endloop
endfacet
facet normal 0.000000 1.000000 0.000001
outer loop
vertex -154.718750 -3.403627 291.193146
vertex -152.718750 -3.403627 291.193146
vertex -152.304535 -3.403627 290.875305
endloop
endfacet
facet normal 0.000000 1.000000 0.000000
outer loop
vertex -155.132965 -3.403627 290.875305
vertex -154.718750 -3.403627 291.193146
vertex -152.304535 -3.403627 290.875305
endloop
endfacet
facet normal 0.000000 1.000000 -0.000002
outer loop
vertex -151.986710 -3.403627 290.461090
vertex -155.132965 -3.403627 290.875305
vertex -152.304535 -3.403627 290.875305
endloop
endfacet
facet normal 0.000000 1.000000 0.000001
outer loop
vertex -155.132965 -3.403627 290.875305
vertex -151.986710 -3.403627 290.461090
vertex -151.786896 -3.403627 289.978729
endloop
endfacet
facet normal -0.000000 1.000000 0.000001
outer loop
vertex -155.132965 -3.403627 290.875305
vertex -151.786896 -3.403627 289.978729
vertex -151.718750 -3.403627 289.461090
endloop
endfacet
facet normal -0.000000 1.000000 -0.000001
outer loop
vertex -151.786896 -3.403627 288.943451
vertex -155.132965 -3.403627 290.875305
vertex -151.718750 -3.403627 289.461090
endloop
endfacet
facet normal 0.000000 1.000000 0.000000
outer loop
vertex -154.218750 -3.403627 280.289520
vertex -162.890320 -3.403627 288.961090
vertex -154.218750 -3.403627 286.132660
endloop
endfacet
facet normal 0.000000 1.000000 0.000000
outer loop
vertex -165.701111 -3.403626 275.029236
vertex -166.218750 -3.403626 274.961090
vertex -166.736389 -3.403626 275.029236
endloop
endfacet
facet normal 0.000000 1.000000 0.000000
outer loop
vertex -165.701111 -3.403626 275.029236
vertex -166.736389 -3.403626 275.029236
vertex -167.218750 -3.403626 275.229034
endloop
endfacet
facet normal 0.000000 1.000000 0.000000
outer loop
vertex -165.218750 -3.403626 275.229034
vertex -165.701111 -3.403626 275.029236
vertex -167.218750 -3.403626 275.229034
endloop
endfacet
facet normal 0.000000 1.000000 -0.000002
outer loop
vertex -165.218750 -3.403626 275.229034
vertex -167.218750 -3.403626 275.229034
vertex -167.632965 -3.403626 275.546875
endloop
endfacet
facet normal 0.000000 1.000000 0.000002
outer loop
vertex -164.804535 -3.403626 275.546875
vertex -165.218750 -3.403626 275.229034
vertex -167.632965 -3.403626 275.546875
endloop
endfacet
facet normal 0.000000 1.000000 0.000000
outer loop
vertex -167.950806 -3.403626 275.961090
vertex -164.804535 -3.403626 275.546875
vertex -167.632965 -3.403626 275.546875
endloop
endfacet
facet normal 0.000000 1.000000 -0.000000
outer loop
vertex -164.804535 -3.403626 275.546875
vertex -167.950806 -3.403626 275.961090
vertex -168.150604 -3.403626 276.443451
endloop
endfacet
facet normal 0.000000 1.000000 -0.000001
outer loop
vertex -164.804535 -3.403626 275.546875
vertex -168.150604 -3.403626 276.443451
vertex -168.218750 -3.403626 276.961090
endloop
endfacet
facet normal 0.000000 1.000000 0.000001
outer loop
vertex -168.150604 -3.403626 277.478729
vertex -164.804535 -3.403626 275.546875
vertex -168.218750 -3.403626 276.961090
endloop
endfacet
facet normal 0.000000 1.000000 0.000000
outer loop
vertex -164.804535 -3.403626 275.546875
vertex -168.150604 -3.403626 277.478729
vertex -167.950806 -3.403626 277.961090
endloop
endfacet
facet normal 0.000000 1.000000 -0.000000
outer loop
vertex -164.804535 -3.403626 275.546875
vertex -167.950806 -3.403626 277.961090
vertex -167.632965 -3.403626 278.375305
endloop
endfacet
facet normal 0.000000 1.000000 0.000000
outer loop
vertex -162.890320 -3.403626 277.461090
vertex -164.804535 -3.403626 275.546875
vertex -167.632965 -3.403626 278.375305
endloop
endfacet
facet normal 0.000000 1.000000 0.000000
outer loop
vertex -162.890320 -3.403626 277.461090
vertex -167.632965 -3.403626 278.375305
vertex -165.718750 -3.403627 280.289520
endloop
endfacet
facet normal 0.000000 1.000000 -0.000000
outer loop
vertex -157.047180 -3.403626 277.461090
vertex -162.890320 -3.403626 277.461090
vertex -165.718750 -3.403627 280.289520
endloop
endfacet
facet normal -0.000000 1.000000 0.000000
outer loop
vertex -165.718750 -3.403627 286.132660
vertex -157.047180 -3.403626 277.461090
vertex -165.718750 -3.403627 280.289520
endloop
endfacet
facet normal 0.000000 1.000000 0.000000
outer loop
vertex -164.804535 -3.403627 290.875305
vertex -167.632965 -3.403627 288.046875
vertex -167.950806 -3.403627 288.461090
endloop
endfacet
facet normal 0.000000 1.000000 0.000001
outer loop
vertex -168.150604 -3.403627 288.943451
vertex -164.804535 -3.403627 290.875305
vertex -167.950806 -3.403627 288.461090
endloop
endfacet
facet normal 0.000000 1.000000 -0.000001
outer loop
vertex -164.804535 -3.403627 290.875305
vertex -168.150604 -3.403627 288.943451
vertex -168.218750 -3.403627 289.461090
endloop
endfacet
facet normal 0.000000 1.000000 0.000001
outer loop
vertex -164.804535 -3.403627 290.875305
vertex -168.218750 -3.403627 289.461090
vertex -168.150604 -3.403627 289.978729
endloop
endfacet
facet normal -0.000000 1.000000 0.000000
outer loop
vertex -167.950806 -3.403627 290.461090
vertex -164.804535 -3.403627 290.875305
vertex -168.150604 -3.403627 289.978729
endloop
endfacet
facet normal 0.000000 1.000000 0.000000
outer loop
vertex -166.736389 -3.403627 291.392944
vertex -166.218750 -3.403627 291.461090
vertex -165.701111 -3.403627 291.392944
endloop
endfacet
facet normal 0.000000 1.000000 0.000001
outer loop
vertex -166.736389 -3.403627 291.392944
vertex -165.701111 -3.403627 291.392944
vertex -165.218750 -3.403627 291.193146
endloop
endfacet
facet normal 0.000000 1.000000 0.000000
outer loop
vertex -167.218750 -3.403627 291.193146
vertex -166.736389 -3.403627 291.392944
vertex -165.218750 -3.403627 291.193146
endloop
endfacet
facet normal 0.000000 1.000000 -0.000000
outer loop
vertex -164.804535 -3.403627 290.875305
vertex -167.950806 -3.403627 290.461090
vertex -167.632965 -3.403627 290.875305
endloop
endfacet
facet normal 0.000000 1.000000 -0.000001
outer loop
vertex -164.804535 -3.403627 290.875305
vertex -167.632965 -3.403627 290.875305
vertex -167.218750 -3.403627 291.193146
endloop
endfacet
facet normal 0.000000 1.000000 0.000000
outer loop
vertex -165.218750 -3.403627 291.193146
vertex -164.804535 -3.403627 290.875305
vertex -167.218750 -3.403627 291.193146
endloop
endfacet
facet normal 0.000000 1.000000 0.000000
outer loop
vertex -153.201111 -3.403626 275.029236
vertex -153.718750 -3.403626 274.961090
vertex -154.236389 -3.403626 275.029236
endloop
endfacet
facet normal 0.000000 1.000000 0.000000
outer loop
vertex -153.201111 -3.403626 275.029236
vertex -154.236389 -3.403626 275.029236
vertex -154.718750 -3.403626 275.229034
endloop
endfacet
facet normal 0.000000 1.000000 0.000000
outer loop
vertex -152.718750 -3.403626 275.229034
vertex -153.201111 -3.403626 275.029236
vertex -154.718750 -3.403626 275.229034
endloop
endfacet
facet normal 0.000000 1.000000 -0.000002
outer loop
vertex -152.718750 -3.403626 275.229034
vertex -154.718750 -3.403626 275.229034
vertex -155.132965 -3.403626 275.546875
endloop
endfacet
facet normal 0.000000 1.000000 0.000002
outer loop
vertex -152.304535 -3.403626 275.546875
vertex -152.718750 -3.403626 275.229034
vertex -155.132965 -3.403626 275.546875
endloop
endfacet
facet normal 0.000000 1.000000 0.000000
outer loop
vertex -151.986710 -3.403626 275.961090
vertex -152.304535 -3.403626 275.546875
vertex -155.132965 -3.403626 275.546875
endloop
endfacet
facet normal 0.000000 1.000000 0.000000
outer loop
vertex -151.786896 -3.403626 276.443451
vertex -151.986710 -3.403626 275.961090
vertex -155.132965 -3.403626 275.546875
endloop
endfacet
facet normal 0.000000 1.000000 -0.000001
outer loop
vertex -151.718750 -3.403626 276.961090
vertex -151.786896 -3.403626 276.443451
vertex -155.132965 -3.403626 275.546875
endloop
endfacet
facet normal 0.000000 1.000000 0.000001
outer loop
vertex -151.786896 -3.403626 277.478729
vertex -151.718750 -3.403626 276.961090
vertex -155.132965 -3.403626 275.546875
endloop
endfacet
facet normal 0.000000 1.000000 0.000000
outer loop
vertex -151.986710 -3.403626 277.961090
vertex -151.786896 -3.403626 277.478729
vertex -155.132965 -3.403626 275.546875
endloop
endfacet
facet normal 0.000000 1.000000 0.000000
outer loop
vertex -152.304535 -3.403626 278.375305
vertex -151.986710 -3.403626 277.961090
vertex -155.132965 -3.403626 275.546875
endloop
endfacet
facet normal 0.000000 1.000000 0.000000
outer loop
vertex -152.304535 -3.403626 278.375305
vertex -155.132965 -3.403626 275.546875
vertex -157.047180 -3.403626 277.461090
endloop
endfacet
facet normal -0.000000 1.000000 0.000000
outer loop
vertex -154.218750 -3.403627 280.289520
vertex -152.304535 -3.403626 278.375305
vertex -157.047180 -3.403626 277.461090
endloop
endfacet
facet normal 0.000000 1.000000 0.000000
outer loop
vertex -154.218750 -3.403627 280.289520
vertex -157.047180 -3.403626 277.461090
vertex -165.718750 -3.403627 286.132660
endloop
endfacet
facet normal -0.000000 1.000000 0.000000
outer loop
vertex -162.890320 -3.403627 288.961090
vertex -154.218750 -3.403627 280.289520
vertex -165.718750 -3.403627 286.132660
endloop
endfacet
facet normal 0.000000 1.000000 0.000000
outer loop
vertex -162.890320 -3.403627 288.961090
vertex -165.718750 -3.403627 286.132660
vertex -167.632965 -3.403627 288.046875
endloop
endfacet
facet normal -0.000000 1.000000 0.000000
outer loop
vertex -164.804535 -3.403627 290.875305
vertex -162.890320 -3.403627 288.961090
vertex -167.632965 -3.403627 288.046875
endloop
endfacet
facet normal -0.000000 1.000000 0.000000
outer loop
vertex -155.132965 -3.403627 290.875305
vertex -151.786896 -3.403627 288.943451
vertex -151.986710 -3.403627 288.461090
endloop
endfacet
facet normal -0.000000 1.000000 0.000001
outer loop
vertex -155.132965 -3.403627 290.875305
vertex -151.986710 -3.403627 288.461090
vertex -152.304535 -3.403627 288.046875
endloop
endfacet
facet normal 0.000000 1.000000 0.000000
outer loop
vertex -157.047180 -3.403627 288.961090
vertex -155.132965 -3.403627 290.875305
vertex -152.304535 -3.403627 288.046875
endloop
endfacet
facet normal 0.000000 1.000000 0.000000
outer loop
vertex -157.047180 -3.403627 288.961090
vertex -152.304535 -3.403627 288.046875
vertex -154.218750 -3.403627 286.132660
endloop
endfacet
facet normal 0.000000 1.000000 0.000000
outer loop
vertex -162.890320 -3.403627 288.961090
vertex -157.047180 -3.403627 288.961090
vertex -154.218750 -3.403627 286.132660
endloop
endfacet
facet normal -0.707105 0.000000 -0.707108
outer loop
vertex -159.968750 -1.670357 280.375946
vertex -155.132965 -1.670357 275.540161
vertex -159.968750 -2.970357 280.375946
endloop
endfacet
facet normal -0.707109 0.000000 -0.707105
outer loop
vertex -159.968750 -2.970357 280.375946
vertex -155.132965 -1.670357 275.540161
vertex -155.132965 -2.970357 275.540161
endloop
endfacet
facet normal -0.608835 0.000000 -0.793297
outer loop
vertex -155.132965 -2.970357 275.540161
vertex -155.132965 -1.670357 275.540161
vertex -154.718750 -2.970357 275.222321
endloop
endfacet
facet normal -0.608721 0.000000 -0.793384
outer loop
vertex -154.718750 -2.970357 275.222321
vertex -155.132965 -1.670357 275.540161
vertex -154.718750 -1.670357 275.222321
endloop
endfacet
facet normal -0.382638 0.000000 -0.923898
outer loop
vertex -154.718750 -2.970357 275.222321
vertex -154.718750 -1.670357 275.222321
vertex -154.236389 -2.970357 275.022522
endloop
endfacet
facet normal -0.382721 0.000000 -0.923864
outer loop
vertex -154.236389 -2.970357 275.022522
vertex -154.718750 -1.670357 275.222321
vertex -154.236389 -1.670356 275.022522
endloop
endfacet
facet normal -0.130481 0.000000 -0.991451
outer loop
vertex -154.236389 -2.970357 275.022522
vertex -154.236389 -1.670356 275.022522
vertex -153.718750 -2.970357 274.954376
endloop
endfacet
facet normal -0.130570 0.000000 -0.991439
outer loop
vertex -153.718750 -2.970357 274.954376
vertex -154.236389 -1.670356 275.022522
vertex -153.718750 -1.670356 274.954376
endloop
endfacet
facet normal 0.130570 0.000000 -0.991439
outer loop
vertex -153.718750 -2.970357 274.954376
vertex -153.718750 -1.670356 274.954376
vertex -153.201111 -2.970357 275.022522
endloop
endfacet
facet normal 0.130481 0.000000 -0.991451
outer loop
vertex -153.201111 -2.970357 275.022522
vertex -153.718750 -1.670356 274.954376
vertex -153.201111 -1.670356 275.022522
endloop
endfacet
facet normal 0.382715 0.000000 -0.923866
outer loop
vertex -153.201111 -2.970357 275.022522
vertex -153.201111 -1.670356 275.022522
vertex -152.718750 -2.970357 275.222321
endloop
endfacet
facet normal 0.382644 0.000000 -0.923896
outer loop
vertex -152.718750 -2.970357 275.222321
vertex -153.201111 -1.670356 275.022522
vertex -152.718750 -1.670357 275.222321
endloop
endfacet
facet normal 0.608722 0.000000 -0.793384
outer loop
vertex -152.718750 -2.970357 275.222321
vertex -152.718750 -1.670357 275.222321
vertex -152.304535 -2.970357 275.540161
endloop
endfacet
facet normal 0.608835 0.000000 -0.793297
outer loop
vertex -152.304535 -2.970357 275.540161
vertex -152.718750 -1.670357 275.222321
vertex -152.304535 -1.670357 275.540161
endloop
endfacet
facet normal 0.793350 0.000000 -0.608765
outer loop
vertex -152.304535 -2.970357 275.540161
vertex -152.304535 -1.670357 275.540161
vertex -151.986710 -2.970357 275.954376
endloop
endfacet
facet normal 0.793384 0.000000 -0.608722
outer loop
vertex -151.986710 -2.970357 275.954376
vertex -152.304535 -1.670357 275.540161
vertex -151.986710 -1.670357 275.954376
endloop
endfacet
facet normal 0.923872 0.000000 -0.382702
outer loop
vertex -151.986710 -2.970357 275.954376
vertex -151.986710 -1.670357 275.954376
vertex -151.786896 -2.970357 276.436737
endloop
endfacet
facet normal 0.923859 0.000000 -0.382734
outer loop
vertex -151.786896 -2.970357 276.436737
vertex -151.986710 -1.670357 275.954376
vertex -151.786896 -1.670357 276.436737
endloop
endfacet
facet normal 0.991447 0.000000 -0.130513
outer loop
vertex -151.786896 -2.970357 276.436737
vertex -151.786896 -1.670357 276.436737
vertex -151.718750 -2.970357 276.954376
endloop
endfacet
facet normal 0.991445 0.000000 -0.130525
outer loop
vertex -151.718750 -2.970357 276.954376
vertex -151.786896 -1.670357 276.436737
vertex -151.718750 -1.670357 276.954376
endloop
endfacet
facet normal 0.991445 0.000000 0.130525
outer loop
vertex -151.718750 -2.970357 276.954376
vertex -151.718750 -1.670357 276.954376
vertex -151.786896 -2.970357 277.472015
endloop
endfacet
facet normal 0.991447 0.000000 0.130513
outer loop
vertex -151.786896 -2.970357 277.472015
vertex -151.718750 -1.670357 276.954376
vertex -151.786896 -1.670357 277.472015
endloop
endfacet
facet normal 0.923872 0.000000 0.382702
outer loop
vertex -151.786896 -2.970357 277.472015
vertex -151.786896 -1.670357 277.472015
vertex -151.986710 -2.970357 277.954376
endloop
endfacet
facet normal 0.923860 0.000000 0.382731
outer loop
vertex -151.986710 -2.970357 277.954376
vertex -151.786896 -1.670357 277.472015
vertex -151.986710 -1.670357 277.954376
endloop
endfacet
facet normal 0.793350 0.000000 0.608765
outer loop
vertex -151.986710 -2.970357 277.954376
vertex -151.986710 -1.670357 277.954376
vertex -152.304535 -2.970357 278.368561
endloop
endfacet
facet normal 0.793350 0.000000 0.608765
outer loop
vertex -152.304535 -2.970357 278.368561
vertex -151.986710 -1.670357 277.954376
vertex -152.304535 -1.670357 278.368561
endloop
endfacet
facet normal 0.707109 0.000000 0.707105
outer loop
vertex -152.304535 -1.670357 278.368561
vertex -157.140320 -1.670357 283.204376
vertex -152.304535 -2.970357 278.368561
endloop
endfacet
facet normal 0.707109 0.000000 0.707105
outer loop
vertex -152.304535 -2.970357 278.368561
vertex -157.140320 -1.670357 283.204376
vertex -157.140320 -2.970357 283.204376
endloop
endfacet
facet normal 0.707106 0.000000 -0.707108
outer loop
vertex -157.140320 -1.670357 283.204376
vertex -152.304535 -1.670357 288.040161
vertex -157.140320 -2.970357 283.204376
endloop
endfacet
facet normal 0.707109 0.000000 -0.707105
outer loop
vertex -157.140320 -2.970357 283.204376
vertex -152.304535 -1.670357 288.040161
vertex -152.304535 -2.970357 288.040161
endloop
endfacet
facet normal 0.793350 0.000000 -0.608765
outer loop
vertex -152.304535 -2.970357 288.040161
vertex -152.304535 -1.670357 288.040161
vertex -151.986710 -2.970357 288.454376
endloop
endfacet
facet normal 0.793384 0.000000 -0.608722
outer loop
vertex -151.986710 -2.970357 288.454376
vertex -152.304535 -1.670357 288.040161
vertex -151.986710 -1.670357 288.454376
endloop
endfacet
facet normal 0.923872 0.000000 -0.382702
outer loop
vertex -151.986710 -2.970357 288.454376
vertex -151.986710 -1.670357 288.454376
vertex -151.786896 -2.970357 288.936737
endloop
endfacet
facet normal 0.923860 0.000000 -0.382730
outer loop
vertex -151.786896 -2.970357 288.936737
vertex -151.986710 -1.670357 288.454376
vertex -151.786896 -1.670357 288.936737
endloop
endfacet
facet normal 0.991447 0.000000 -0.130513
outer loop
vertex -151.786896 -2.970357 288.936737
vertex -151.786896 -1.670357 288.936737
vertex -151.718750 -2.970357 289.454376
endloop
endfacet
facet normal 0.991445 0.000000 -0.130525
outer loop
vertex -151.718750 -2.970357 289.454376
vertex -151.786896 -1.670357 288.936737
vertex -151.718750 -1.670357 289.454376
endloop
endfacet
facet normal 0.991447 0.000000 0.130513
outer loop
vertex -151.718750 -2.970357 289.454376
vertex -151.718750 -1.670357 289.454376
vertex -151.786896 -2.970357 289.972015
endloop
endfacet
facet normal 0.991445 0.000000 0.130525
outer loop
vertex -151.786896 -2.970357 289.972015
vertex -151.718750 -1.670357 289.454376
vertex -151.786896 -1.670357 289.972015
endloop
endfacet
facet normal 0.923872 0.000000 0.382702
outer loop
vertex -151.786896 -2.970357 289.972015
vertex -151.786896 -1.670357 289.972015
vertex -151.986710 -2.970357 290.454376
endloop
endfacet
facet normal 0.923872 0.000000 0.382702
outer loop
vertex -151.986710 -2.970357 290.454376
vertex -151.786896 -1.670357 289.972015
vertex -151.986710 -1.670357 290.454376
endloop
endfacet
facet normal 0.793317 0.000000 0.608809
outer loop
vertex -151.986710 -2.970357 290.454376
vertex -151.986710 -1.670357 290.454376
vertex -152.304535 -2.970357 290.868561
endloop
endfacet
facet normal 0.793350 0.000000 0.608765
outer loop
vertex -152.304535 -2.970357 290.868561
vertex -151.986710 -1.670357 290.454376
vertex -152.304535 -1.670357 290.868561
endloop
endfacet
facet normal 0.608835 0.000000 0.793297
outer loop
vertex -152.304535 -2.970357 290.868561
vertex -152.304535 -1.670357 290.868561
vertex -152.718750 -2.970357 291.186432
endloop
endfacet
facet normal 0.608778 0.000000 0.793341
outer loop
vertex -152.718750 -2.970357 291.186432
vertex -152.304535 -1.670357 290.868561
vertex -152.718750 -1.670357 291.186432
endloop
endfacet
facet normal 0.382638 0.000000 0.923898
outer loop
vertex -152.718750 -2.970357 291.186432
vertex -152.718750 -1.670357 291.186432
vertex -153.201111 -2.970357 291.386200
endloop
endfacet
facet normal 0.382638 0.000000 0.923898
outer loop
vertex -153.201111 -2.970357 291.386200
vertex -152.718750 -1.670357 291.186432
vertex -153.201111 -1.670357 291.386200
endloop
endfacet
facet normal 0.130570 0.000000 0.991439
outer loop
vertex -153.201111 -2.970357 291.386200
vertex -153.201111 -1.670357 291.386200
vertex -153.718750 -2.970357 291.454376
endloop
endfacet
facet normal 0.130582 0.000000 0.991438
outer loop
vertex -153.718750 -2.970357 291.454376
vertex -153.201111 -1.670357 291.386200
vertex -153.718750 -1.670357 291.454376
endloop
endfacet
facet normal -0.130570 0.000000 0.991439
outer loop
vertex -153.718750 -2.970357 291.454376
vertex -153.718750 -1.670357 291.454376
vertex -154.236389 -2.970357 291.386200
endloop
endfacet
facet normal -0.130582 0.000000 0.991438
outer loop
vertex -154.236389 -2.970357 291.386200
vertex -153.718750 -1.670357 291.454376
vertex -154.236389 -1.670357 291.386200
endloop
endfacet
facet normal -0.382638 0.000000 0.923898
outer loop
vertex -154.236389 -2.970357 291.386200
vertex -154.236389 -1.670357 291.386200
vertex -154.718750 -2.970357 291.186432
endloop
endfacet
facet normal -0.382638 0.000000 0.923898
outer loop
vertex -154.718750 -2.970357 291.186432
vertex -154.236389 -1.670357 291.386200
vertex -154.718750 -1.670357 291.186432
endloop
endfacet
facet normal -0.608778 0.000000 0.793341
outer loop
vertex -154.718750 -2.970357 291.186432
vertex -154.718750 -1.670357 291.186432
vertex -155.132965 -2.970357 290.868561
endloop
endfacet
facet normal -0.608835 0.000000 0.793297
outer loop
vertex -155.132965 -2.970357 290.868561
vertex -154.718750 -1.670357 291.186432
vertex -155.132965 -1.670357 290.868561
endloop
endfacet
facet normal -0.707102 0.000000 0.707112
outer loop
vertex -155.132965 -1.670357 290.868561
vertex -159.968750 -1.670357 286.032806
vertex -155.132965 -2.970357 290.868561
endloop
endfacet
facet normal -0.707105 0.000000 0.707108
outer loop
vertex -155.132965 -2.970357 290.868561
vertex -159.968750 -1.670357 286.032806
vertex -159.968750 -2.970357 286.032806
endloop
endfacet
facet normal 0.707102 0.000000 0.707112
outer loop
vertex -159.968750 -1.670357 286.032806
vertex -164.804535 -1.670357 290.868561
vertex -159.968750 -2.970357 286.032806
endloop
endfacet
facet normal 0.707105 0.000000 0.707108
outer loop
vertex -159.968750 -2.970357 286.032806
vertex -164.804535 -1.670357 290.868561
vertex -164.804535 -2.970357 290.868561
endloop
endfacet
facet normal 0.608835 0.000000 0.793297
outer loop
vertex -164.804535 -2.970357 290.868561
vertex -164.804535 -1.670357 290.868561
vertex -165.218750 -2.970357 291.186432
endloop
endfacet
facet normal 0.608778 0.000000 0.793341
outer loop
vertex -165.218750 -2.970357 291.186432
vertex -164.804535 -1.670357 290.868561
vertex -165.218750 -1.670357 291.186432
endloop
endfacet
facet normal 0.382638 0.000000 0.923898
outer loop
vertex -165.218750 -2.970357 291.186432
vertex -165.218750 -1.670357 291.186432
vertex -165.701111 -2.970357 291.386200
endloop
endfacet
facet normal 0.382638 0.000000 0.923898
outer loop
vertex -165.701111 -2.970357 291.386200
vertex -165.218750 -1.670357 291.186432
vertex -165.701111 -1.670357 291.386200
endloop
endfacet
facet normal 0.130570 0.000000 0.991439
outer loop
vertex -165.701111 -2.970357 291.386200
vertex -165.701111 -1.670357 291.386200
vertex -166.218750 -2.970357 291.454376
endloop
endfacet
facet normal 0.130582 0.000000 0.991438
outer loop
vertex -166.218750 -2.970357 291.454376
vertex -165.701111 -1.670357 291.386200
vertex -166.218750 -1.670357 291.454376
endloop
endfacet
facet normal -0.130570 0.000000 0.991439
outer loop
vertex -166.218750 -2.970357 291.454376
vertex -166.218750 -1.670357 291.454376
vertex -166.736389 -2.970357 291.386200
endloop
endfacet
facet normal -0.130582 0.000000 0.991438
outer loop
vertex -166.736389 -2.970357 291.386200
vertex -166.218750 -1.670357 291.454376
vertex -166.736389 -1.670357 291.386200
endloop
endfacet
facet normal -0.382638 0.000000 0.923898
outer loop
vertex -166.736389 -2.970357 291.386200
vertex -166.736389 -1.670357 291.386200
vertex -167.218750 -2.970357 291.186432
endloop
endfacet
facet normal -0.382638 0.000000 0.923898
outer loop
vertex -167.218750 -2.970357 291.186432
vertex -166.736389 -1.670357 291.386200
vertex -167.218750 -1.670357 291.186432
endloop
endfacet
facet normal -0.608778 0.000000 0.793341
outer loop
vertex -167.218750 -2.970357 291.186432
vertex -167.218750 -1.670357 291.186432
vertex -167.632965 -2.970357 290.868561
endloop
endfacet
facet normal -0.608835 0.000000 0.793297
outer loop
vertex -167.632965 -2.970357 290.868561
vertex -167.218750 -1.670357 291.186432
vertex -167.632965 -1.670357 290.868561
endloop
endfacet
facet normal -0.793336 0.000000 0.608784
outer loop
vertex -167.632965 -2.970357 290.868561
vertex -167.632965 -1.670357 290.868561
vertex -167.950806 -2.970357 290.454376
endloop
endfacet
facet normal -0.793303 0.000000 0.608827
outer loop
vertex -167.950806 -2.970357 290.454376
vertex -167.632965 -1.670357 290.868561
vertex -167.950806 -1.670357 290.454376
endloop
endfacet
facet normal -0.923882 0.000000 0.382677
outer loop
vertex -167.950806 -2.970357 290.454376
vertex -167.950806 -1.670357 290.454376
vertex -168.150604 -2.970357 289.972015
endloop
endfacet
facet normal -0.923882 0.000000 0.382677
outer loop
vertex -168.150604 -2.970357 289.972015
vertex -167.950806 -1.670357 290.454376
vertex -168.150604 -1.670357 289.972015
endloop
endfacet
facet normal -0.991447 0.000000 0.130513
outer loop
vertex -168.150604 -2.970357 289.972015
vertex -168.150604 -1.670357 289.972015
vertex -168.218750 -2.970357 289.454376
endloop
endfacet
facet normal -0.991445 0.000000 0.130525
outer loop
vertex -168.218750 -2.970357 289.454376
vertex -168.150604 -1.670357 289.972015
vertex -168.218750 -1.670357 289.454376
endloop
endfacet
facet normal -0.991445 0.000000 -0.130525
outer loop
vertex -168.218750 -2.970357 289.454376
vertex -168.218750 -1.670357 289.454376
vertex -168.150604 -2.970357 288.936737
endloop
endfacet
facet normal -0.991447 0.000000 -0.130513
outer loop
vertex -168.150604 -2.970357 288.936737
vertex -168.218750 -1.670357 289.454376
vertex -168.150604 -1.670357 288.936737
endloop
endfacet
facet normal -0.923882 0.000000 -0.382677
outer loop
vertex -168.150604 -2.970357 288.936737
vertex -168.150604 -1.670357 288.936737
vertex -167.950806 -2.970357 288.454376
endloop
endfacet
facet normal -0.923871 0.000000 -0.382705
outer loop
vertex -167.950806 -2.970357 288.454376
vertex -168.150604 -1.670357 288.936737
vertex -167.950806 -1.670357 288.454376
endloop
endfacet
facet normal -0.793370 0.000000 -0.608740
outer loop
vertex -167.950806 -2.970357 288.454376
vertex -167.950806 -1.670357 288.454376
vertex -167.632965 -2.970357 288.040161
endloop
endfacet
facet normal -0.793336 0.000000 -0.608784
outer loop
vertex -167.632965 -2.970357 288.040161
vertex -167.950806 -1.670357 288.454376
vertex -167.632965 -1.670357 288.040161
endloop
endfacet
facet normal -0.707109 0.000000 -0.707105
outer loop
vertex -167.632965 -1.670357 288.040161
vertex -162.797180 -1.670357 283.204376
vertex -167.632965 -2.970357 288.040161
endloop
endfacet
facet normal -0.707106 0.000000 -0.707108
outer loop
vertex -167.632965 -2.970357 288.040161
vertex -162.797180 -1.670357 283.204376
vertex -162.797180 -2.970357 283.204376
endloop
endfacet
facet normal -0.707109 0.000000 0.707105
outer loop
vertex -162.797180 -1.670357 283.204376
vertex -167.632965 -1.670357 278.368561
vertex -162.797180 -2.970357 283.204376
endloop
endfacet
facet normal -0.707109 0.000000 0.707105
outer loop
vertex -162.797180 -2.970357 283.204376
vertex -167.632965 -1.670357 278.368561
vertex -167.632965 -2.970357 278.368561
endloop
endfacet
facet normal -0.793336 0.000000 0.608784
outer loop
vertex -167.632965 -2.970357 278.368561
vertex -167.632965 -1.670357 278.368561
vertex -167.950806 -2.970357 277.954376
endloop
endfacet
facet normal -0.793336 0.000000 0.608784
outer loop
vertex -167.950806 -2.970357 277.954376
vertex -167.632965 -1.670357 278.368561
vertex -167.950806 -1.670357 277.954376
endloop
endfacet
facet normal -0.923882 0.000000 0.382677
outer loop
vertex -167.950806 -2.970357 277.954376
vertex -167.950806 -1.670357 277.954376
vertex -168.150604 -2.970357 277.472015
endloop
endfacet
facet normal -0.923870 0.000000 0.382706
outer loop
vertex -168.150604 -2.970357 277.472015
vertex -167.950806 -1.670357 277.954376
vertex -168.150604 -1.670357 277.472015
endloop
endfacet
facet normal -0.991447 0.000000 0.130513
outer loop
vertex -168.150604 -2.970357 277.472015
vertex -168.150604 -1.670357 277.472015
vertex -168.218750 -2.970357 276.954376
endloop
endfacet
facet normal -0.991445 0.000000 0.130525
outer loop
vertex -168.218750 -2.970357 276.954376
vertex -168.150604 -1.670357 277.472015
vertex -168.218750 -1.670357 276.954376
endloop
endfacet
facet normal -0.991445 0.000000 -0.130525
outer loop
vertex -168.218750 -2.970357 276.954376
vertex -168.218750 -1.670357 276.954376
vertex -168.150604 -2.970357 276.436737
endloop
endfacet
facet normal -0.991447 0.000000 -0.130513
outer loop
vertex -168.150604 -2.970357 276.436737
vertex -168.218750 -1.670357 276.954376
vertex -168.150604 -1.670357 276.436737
endloop
endfacet
facet normal -0.923869 0.000000 -0.382709
outer loop
vertex -168.150604 -2.970357 276.436737
vertex -168.150604 -1.670357 276.436737
vertex -167.950806 -2.970357 275.954376
endloop
endfacet
facet normal -0.923882 0.000000 -0.382677
outer loop
vertex -167.950806 -2.970357 275.954376
vertex -168.150604 -1.670357 276.436737
vertex -167.950806 -1.670357 275.954376
endloop
endfacet
facet normal -0.793370 0.000000 -0.608740
outer loop
vertex -167.950806 -2.970357 275.954376
vertex -167.950806 -1.670357 275.954376
vertex -167.632965 -2.970357 275.540161
endloop
endfacet
facet normal -0.793336 0.000000 -0.608784
outer loop
vertex -167.632965 -2.970357 275.540161
vertex -167.950806 -1.670357 275.954376
vertex -167.632965 -1.670357 275.540161
endloop
endfacet
facet normal -0.608835 0.000000 -0.793297
outer loop
vertex -167.632965 -2.970357 275.540161
vertex -167.632965 -1.670357 275.540161
vertex -167.218750 -2.970357 275.222321
endloop
endfacet
facet normal -0.608721 0.000000 -0.793384
outer loop
vertex -167.218750 -2.970357 275.222321
vertex -167.632965 -1.670357 275.540161
vertex -167.218750 -1.670357 275.222321
endloop
endfacet
facet normal -0.382638 0.000000 -0.923898
outer loop
vertex -167.218750 -2.970357 275.222321
vertex -167.218750 -1.670357 275.222321
vertex -166.736389 -2.970357 275.022522
endloop
endfacet
facet normal -0.382721 0.000000 -0.923864
outer loop
vertex -166.736389 -2.970357 275.022522
vertex -167.218750 -1.670357 275.222321
vertex -166.736389 -1.670356 275.022522
endloop
endfacet
facet normal -0.130481 0.000000 -0.991451
outer loop
vertex -166.736389 -2.970357 275.022522
vertex -166.736389 -1.670356 275.022522
vertex -166.218750 -2.970357 274.954376
endloop
endfacet
facet normal -0.130570 0.000000 -0.991439
outer loop
vertex -166.218750 -2.970357 274.954376
vertex -166.736389 -1.670356 275.022522
vertex -166.218750 -1.670356 274.954376
endloop
endfacet
facet normal 0.130570 0.000000 -0.991439
outer loop
vertex -166.218750 -2.970357 274.954376
vertex -166.218750 -1.670356 274.954376
vertex -165.701111 -2.970357 275.022522
endloop
endfacet
facet normal 0.130481 0.000000 -0.991451
outer loop
vertex -165.701111 -2.970357 275.022522
vertex -166.218750 -1.670356 274.954376
vertex -165.701111 -1.670356 275.022522
endloop
endfacet
facet normal 0.382715 0.000000 -0.923866
outer loop
vertex -165.701111 -2.970357 275.022522
vertex -165.701111 -1.670356 275.022522
vertex -165.218750 -2.970357 275.222321
endloop
endfacet
facet normal 0.382644 0.000000 -0.923896
outer loop
vertex -165.218750 -2.970357 275.222321
vertex -165.701111 -1.670356 275.022522
vertex -165.218750 -1.670357 275.222321
endloop
endfacet
facet normal 0.608722 0.000000 -0.793384
outer loop
vertex -165.218750 -2.970357 275.222321
vertex -165.218750 -1.670357 275.222321
vertex -164.804535 -2.970357 275.540161
endloop
endfacet
facet normal 0.608835 0.000000 -0.793297
outer loop
vertex -164.804535 -2.970357 275.540161
vertex -165.218750 -1.670357 275.222321
vertex -164.804535 -1.670357 275.540161
endloop
endfacet
facet normal 0.707109 0.000000 -0.707105
outer loop
vertex -164.804535 -1.670357 275.540161
vertex -159.968750 -1.670357 280.375946
vertex -164.804535 -2.970357 275.540161
endloop
endfacet
facet normal 0.707105 0.000000 -0.707108
outer loop
vertex -164.804535 -2.970357 275.540161
vertex -159.968750 -1.670357 280.375946
vertex -159.968750 -2.970357 280.375946
endloop
endfacet
facet normal -0.000000 -1.000000 -0.000000
outer loop
vertex -159.968750 -2.970357 280.375946
vertex -167.632965 -2.970357 278.368561
vertex -164.804535 -2.970357 275.540161
endloop
endfacet
facet normal 0.000000 -1.000000 0.000000
outer loop
vertex -164.804535 -2.970357 275.540161
vertex -167.632965 -2.970357 278.368561
vertex -167.950806 -2.970357 277.954376
endloop
endfacet
facet normal 0.000000 -1.000000 -0.000001
outer loop
vertex -164.804535 -2.970357 275.540161
vertex -167.950806 -2.970357 277.954376
vertex -168.150604 -2.970357 277.472015
endloop
endfacet
facet normal 0.000000 -1.000000 -0.000000
outer loop
vertex -155.132965 -2.970357 275.540161
vertex -152.304535 -2.970357 278.368561
vertex -159.968750 -2.970357 280.375946
endloop
endfacet
facet normal 0.000000 -1.000000 0.000000
outer loop
vertex -159.968750 -2.970357 280.375946
vertex -152.304535 -2.970357 278.368561
vertex -157.140320 -2.970357 283.204376
endloop
endfacet
facet normal 0.000000 -1.000000 0.000000
outer loop
vertex -159.968750 -2.970357 280.375946
vertex -157.140320 -2.970357 283.204376
vertex -162.797180 -2.970357 283.204376
endloop
endfacet
facet normal 0.000000 -1.000000 0.000000
outer loop
vertex -162.797180 -2.970357 283.204376
vertex -157.140320 -2.970357 283.204376
vertex -159.968750 -2.970357 286.032806
endloop
endfacet
facet normal -0.000000 -1.000000 -0.000000
outer loop
vertex -162.797180 -2.970357 283.204376
vertex -159.968750 -2.970357 286.032806
vertex -167.632965 -2.970357 288.040161
endloop
endfacet
facet normal -0.000000 -1.000000 -0.000000
outer loop
vertex -167.632965 -2.970357 288.040161
vertex -159.968750 -2.970357 286.032806
vertex -164.804535 -2.970357 290.868561
endloop
endfacet
facet normal -0.000000 -1.000000 0.000000
outer loop
vertex -167.632965 -2.970357 288.040161
vertex -164.804535 -2.970357 290.868561
vertex -167.950806 -2.970357 288.454376
endloop
endfacet
facet normal -0.000000 -1.000000 0.000000
outer loop
vertex -167.950806 -2.970357 288.454376
vertex -164.804535 -2.970357 290.868561
vertex -168.150604 -2.970357 288.936737
endloop
endfacet
facet normal -0.000000 -1.000000 0.000000
outer loop
vertex -168.150604 -2.970357 288.936737
vertex -164.804535 -2.970357 290.868561
vertex -168.218750 -2.970357 289.454376
endloop
endfacet
facet normal 0.000000 -1.000000 0.000000
outer loop
vertex -168.218750 -2.970357 289.454376
vertex -164.804535 -2.970357 290.868561
vertex -168.150604 -2.970357 289.972015
endloop
endfacet
facet normal 0.000000 -1.000000 0.000000
outer loop
vertex -168.150604 -2.970357 289.972015
vertex -164.804535 -2.970357 290.868561
vertex -167.950806 -2.970357 290.454376
endloop
endfacet
facet normal 0.000000 -1.000000 0.000000
outer loop
vertex -167.950806 -2.970357 290.454376
vertex -164.804535 -2.970357 290.868561
vertex -167.632965 -2.970357 290.868561
endloop
endfacet
facet normal 0.000000 -1.000000 0.000000
outer loop
vertex -167.632965 -2.970357 290.868561
vertex -164.804535 -2.970357 290.868561
vertex -167.218750 -2.970357 291.186432
endloop
endfacet
facet normal 0.000000 -1.000000 -0.000000
outer loop
vertex -167.218750 -2.970357 291.186432
vertex -164.804535 -2.970357 290.868561
vertex -165.218750 -2.970357 291.186432
endloop
endfacet
facet normal 0.000000 -1.000000 0.000000
outer loop
vertex -167.218750 -2.970357 291.186432
vertex -165.218750 -2.970357 291.186432
vertex -166.736389 -2.970357 291.386200
endloop
endfacet
facet normal 0.000000 -1.000000 0.000000
outer loop
vertex -166.736389 -2.970357 291.386200
vertex -165.218750 -2.970357 291.186432
vertex -165.701111 -2.970357 291.386200
endloop
endfacet
facet normal 0.000000 -1.000000 0.000000
outer loop
vertex -166.736389 -2.970357 291.386200
vertex -165.701111 -2.970357 291.386200
vertex -166.218750 -2.970357 291.454376
endloop
endfacet
facet normal 0.000000 -1.000000 0.000000
outer loop
vertex -154.718750 -2.970357 275.222321
vertex -152.718750 -2.970357 275.222321
vertex -155.132965 -2.970357 275.540161
endloop
endfacet
facet normal 0.000000 -1.000000 0.000001
outer loop
vertex -155.132965 -2.970357 275.540161
vertex -152.718750 -2.970357 275.222321
vertex -152.304535 -2.970357 275.540161
endloop
endfacet
facet normal 0.000000 -1.000000 -0.000000
outer loop
vertex -155.132965 -2.970357 275.540161
vertex -152.304535 -2.970357 275.540161
vertex -151.986710 -2.970357 275.954376
endloop
endfacet
facet normal 0.000000 -1.000000 0.000000
outer loop
vertex -152.718750 -2.970357 275.222321
vertex -154.718750 -2.970357 275.222321
vertex -153.201111 -2.970357 275.022522
endloop
endfacet
facet normal 0.000000 -1.000000 -0.000001
outer loop
vertex -153.201111 -2.970357 275.022522
vertex -154.718750 -2.970357 275.222321
vertex -154.236389 -2.970357 275.022522
endloop
endfacet
facet normal 0.000000 -1.000000 0.000000
outer loop
vertex -153.201111 -2.970357 275.022522
vertex -154.236389 -2.970357 275.022522
vertex -153.718750 -2.970357 274.954376
endloop
endfacet
facet normal 0.000000 -1.000000 0.000000
outer loop
vertex -151.986710 -2.970357 275.954376
vertex -151.786896 -2.970357 276.436737
vertex -155.132965 -2.970357 275.540161
endloop
endfacet
facet normal 0.000000 -1.000000 -0.000000
outer loop
vertex -155.132965 -2.970357 275.540161
vertex -151.786896 -2.970357 276.436737
vertex -151.718750 -2.970357 276.954376
endloop
endfacet
facet normal 0.000000 -1.000000 0.000000
outer loop
vertex -155.132965 -2.970357 275.540161
vertex -151.718750 -2.970357 276.954376
vertex -151.786896 -2.970357 277.472015
endloop
endfacet
facet normal 0.000000 -1.000000 0.000000
outer loop
vertex -151.786896 -2.970357 277.472015
vertex -151.986710 -2.970357 277.954376
vertex -155.132965 -2.970357 275.540161
endloop
endfacet
facet normal 0.000000 -1.000000 0.000000
outer loop
vertex -155.132965 -2.970357 275.540161
vertex -151.986710 -2.970357 277.954376
vertex -152.304535 -2.970357 278.368561
endloop
endfacet
facet normal 0.000000 -1.000000 -0.000000
outer loop
vertex -157.140320 -2.970357 283.204376
vertex -152.304535 -2.970357 288.040161
vertex -159.968750 -2.970357 286.032806
endloop
endfacet
facet normal 0.000000 -1.000000 -0.000000
outer loop
vertex -159.968750 -2.970357 286.032806
vertex -152.304535 -2.970357 288.040161
vertex -155.132965 -2.970357 290.868561
endloop
endfacet
facet normal 0.000000 -1.000000 -0.000001
outer loop
vertex -155.132965 -2.970357 290.868561
vertex -152.304535 -2.970357 288.040161
vertex -151.986710 -2.970357 288.454376
endloop
endfacet
facet normal 0.000000 -1.000000 0.000000
outer loop
vertex -155.132965 -2.970357 290.868561
vertex -151.986710 -2.970357 288.454376
vertex -151.786896 -2.970357 288.936737
endloop
endfacet
facet normal 0.000000 -1.000000 0.000000
outer loop
vertex -151.786896 -2.970357 288.936737
vertex -151.718750 -2.970357 289.454376
vertex -155.132965 -2.970357 290.868561
endloop
endfacet
facet normal -0.000000 -1.000000 0.000000
outer loop
vertex -155.132965 -2.970357 290.868561
vertex -151.718750 -2.970357 289.454376
vertex -151.786896 -2.970357 289.972015
endloop
endfacet
facet normal 0.000000 -1.000000 -0.000000
outer loop
vertex -155.132965 -2.970357 290.868561
vertex -151.786896 -2.970357 289.972015
vertex -151.986710 -2.970357 290.454376
endloop
endfacet
facet normal 0.000000 -1.000000 0.000002
outer loop
vertex -151.986710 -2.970357 290.454376
vertex -152.304535 -2.970357 290.868561
vertex -155.132965 -2.970357 290.868561
endloop
endfacet
facet normal 0.000000 -1.000000 0.000000
outer loop
vertex -155.132965 -2.970357 290.868561
vertex -152.304535 -2.970357 290.868561
vertex -154.718750 -2.970357 291.186432
endloop
endfacet
facet normal 0.000000 -1.000000 -0.000000
outer loop
vertex -154.718750 -2.970357 291.186432
vertex -152.304535 -2.970357 290.868561
vertex -152.718750 -2.970357 291.186432
endloop
endfacet
facet normal 0.000000 -1.000000 0.000000
outer loop
vertex -154.718750 -2.970357 291.186432
vertex -152.718750 -2.970357 291.186432
vertex -154.236389 -2.970357 291.386200
endloop
endfacet
facet normal 0.000000 -1.000000 0.000000
outer loop
vertex -154.236389 -2.970357 291.386200
vertex -152.718750 -2.970357 291.186432
vertex -153.201111 -2.970357 291.386200
endloop
endfacet
facet normal 0.000000 -1.000000 0.000000
outer loop
vertex -154.236389 -2.970357 291.386200
vertex -153.201111 -2.970357 291.386200
vertex -153.718750 -2.970357 291.454376
endloop
endfacet
facet normal -0.000000 -1.000000 0.000000
outer loop
vertex -162.797180 -2.970357 283.204376
vertex -167.632965 -2.970357 278.368561
vertex -159.968750 -2.970357 280.375946
endloop
endfacet
facet normal 0.000000 -1.000000 0.000000
outer loop
vertex -168.150604 -2.970357 277.472015
vertex -168.218750 -2.970357 276.954376
vertex -164.804535 -2.970357 275.540161
endloop
endfacet
facet normal 0.000000 -1.000000 -0.000000
outer loop
vertex -164.804535 -2.970357 275.540161
vertex -168.218750 -2.970357 276.954376
vertex -168.150604 -2.970357 276.436737
endloop
endfacet
facet normal 0.000000 -1.000000 0.000001
outer loop
vertex -164.804535 -2.970357 275.540161
vertex -168.150604 -2.970357 276.436737
vertex -167.950806 -2.970357 275.954376
endloop
endfacet
facet normal 0.000000 -1.000000 -0.000002
outer loop
vertex -167.950806 -2.970357 275.954376
vertex -167.632965 -2.970357 275.540161
vertex -164.804535 -2.970357 275.540161
endloop
endfacet
facet normal 0.000000 -1.000000 0.000001
outer loop
vertex -164.804535 -2.970357 275.540161
vertex -167.632965 -2.970357 275.540161
vertex -165.218750 -2.970357 275.222321
endloop
endfacet
facet normal 0.000000 -1.000000 -0.000000
outer loop
vertex -165.218750 -2.970357 275.222321
vertex -167.632965 -2.970357 275.540161
vertex -167.218750 -2.970357 275.222321
endloop
endfacet
facet normal 0.000000 -1.000000 0.000000
outer loop
vertex -165.218750 -2.970357 275.222321
vertex -167.218750 -2.970357 275.222321
vertex -165.701111 -2.970357 275.022522
endloop
endfacet
facet normal 0.000000 -1.000000 -0.000001
outer loop
vertex -165.701111 -2.970357 275.022522
vertex -167.218750 -2.970357 275.222321
vertex -166.736389 -2.970357 275.022522
endloop
endfacet
facet normal 0.000000 -1.000000 0.000000
outer loop
vertex -165.701111 -2.970357 275.022522
vertex -166.736389 -2.970357 275.022522
vertex -166.218750 -2.970357 274.954376
endloop
endfacet
facet normal -0.196116 0.000000 -0.980581
outer loop
vertex -159.968750 -1.670357 296.537689
vertex -149.968750 -1.670357 294.537689
vertex -159.968750 -4.670357 296.537689
endloop
endfacet
facet normal -0.196116 0.000000 -0.980581
outer loop
vertex -159.968750 -4.670357 296.537689
vertex -149.968750 -1.670357 294.537689
vertex -149.968750 -4.670357 294.537689
endloop
endfacet
facet normal -0.995229 0.000000 -0.097571
outer loop
vertex -149.968750 -1.670357 294.537689
vertex -147.468750 -1.670356 269.037689
vertex -149.968750 -4.670357 294.537689
endloop
endfacet
facet normal -0.995229 0.000000 -0.097571
outer loop
vertex -149.968750 -4.670357 294.537689
vertex -147.468750 -1.670356 269.037689
vertex -147.468750 -4.670356 269.037689
endloop
endfacet
facet normal 0.000000 0.000000 1.000000
outer loop
vertex -147.468750 -1.670356 269.037689
vertex -172.468750 -1.670356 269.037689
vertex -147.468750 -4.670356 269.037689
endloop
endfacet
facet normal 0.000000 0.000000 1.000000
outer loop
vertex -147.468750 -4.670356 269.037689
vertex -172.468750 -1.670356 269.037689
vertex -172.468750 -4.670356 269.037689
endloop
endfacet
facet normal 0.995229 0.000000 -0.097571
outer loop
vertex -172.468750 -1.670356 269.037689
vertex -169.968750 -1.670357 294.537689
vertex -172.468750 -4.670356 269.037689
endloop
endfacet
facet normal 0.995229 0.000000 -0.097571
outer loop
vertex -172.468750 -4.670356 269.037689
vertex -169.968750 -1.670357 294.537689
vertex -169.968750 -4.670357 294.537689
endloop
endfacet
facet normal 0.196116 0.000000 -0.980581
outer loop
vertex -169.968750 -1.670357 294.537689
vertex -159.968750 -1.670357 296.537689
vertex -169.968750 -4.670357 294.537689
endloop
endfacet
facet normal 0.196116 0.000000 -0.980581
outer loop
vertex -169.968750 -4.670357 294.537689
vertex -159.968750 -1.670357 296.537689
vertex -159.968750 -4.670357 296.537689
endloop
endfacet
facet normal 0.000000 -1.000000 0.000000
outer loop
vertex -159.968750 -1.670357 280.375946
vertex -164.804535 -1.670357 275.540161
vertex -155.132965 -1.670357 275.540161
endloop
endfacet
facet normal 0.000000 -1.000000 0.000000
outer loop
vertex -155.132965 -1.670357 275.540161
vertex -164.804535 -1.670357 275.540161
vertex -154.718750 -1.670357 275.222321
endloop
endfacet
facet normal 0.000000 -1.000000 0.000000
outer loop
vertex -154.718750 -1.670357 275.222321
vertex -164.804535 -1.670357 275.540161
vertex -165.218750 -1.670357 275.222321
endloop
endfacet
facet normal 0.000000 -1.000000 -0.000000
outer loop
vertex -154.718750 -1.670357 275.222321
vertex -165.218750 -1.670357 275.222321
vertex -147.468750 -1.670356 269.037689
endloop
endfacet
facet normal 0.000000 -1.000000 -0.000000
outer loop
vertex -147.468750 -1.670356 269.037689
vertex -165.218750 -1.670357 275.222321
vertex -172.468750 -1.670356 269.037689
endloop
endfacet
facet normal -0.000000 -1.000000 -0.000001
outer loop
vertex -172.468750 -1.670356 269.037689
vertex -165.218750 -1.670357 275.222321
vertex -165.701111 -1.670356 275.022522
endloop
endfacet
facet normal 0.000000 -1.000000 0.000000
outer loop
vertex -172.468750 -1.670356 269.037689
vertex -165.701111 -1.670356 275.022522
vertex -166.218750 -1.670356 274.954376
endloop
endfacet
facet normal -0.000000 -1.000000 0.000000
outer loop
vertex -166.218750 -1.670356 274.954376
vertex -166.736389 -1.670356 275.022522
vertex -172.468750 -1.670356 269.037689
endloop
endfacet
facet normal 0.000000 -1.000000 0.000000
outer loop
vertex -172.468750 -1.670356 269.037689
vertex -166.736389 -1.670356 275.022522
vertex -167.218750 -1.670357 275.222321
endloop
endfacet
facet normal -0.000000 -1.000000 -0.000000
outer loop
vertex -172.468750 -1.670356 269.037689
vertex -167.218750 -1.670357 275.222321
vertex -167.632965 -1.670357 275.540161
endloop
endfacet
facet normal -0.000000 -1.000000 0.000000
outer loop
vertex -167.632965 -1.670357 275.540161
vertex -167.950806 -1.670357 275.954376
vertex -172.468750 -1.670356 269.037689
endloop
endfacet
facet normal -0.000000 -1.000000 -0.000000
outer loop
vertex -172.468750 -1.670356 269.037689
vertex -167.950806 -1.670357 275.954376
vertex -168.150604 -1.670357 276.436737
endloop
endfacet
facet normal -0.000000 -1.000000 0.000000
outer loop
vertex -172.468750 -1.670356 269.037689
vertex -168.150604 -1.670357 276.436737
vertex -168.218750 -1.670357 276.954376
endloop
endfacet
facet normal -0.000000 -1.000000 0.000000
outer loop
vertex -168.218750 -1.670357 276.954376
vertex -168.150604 -1.670357 277.472015
vertex -172.468750 -1.670356 269.037689
endloop
endfacet
facet normal 0.000000 -1.000000 -0.000000
outer loop
vertex -172.468750 -1.670356 269.037689
vertex -168.150604 -1.670357 277.472015
vertex -168.150604 -1.670357 288.936737
endloop
endfacet
facet normal -0.000000 -1.000000 -0.000000
outer loop
vertex -172.468750 -1.670356 269.037689
vertex -168.150604 -1.670357 288.936737
vertex -169.968750 -1.670357 294.537689
endloop
endfacet
facet normal 0.000000 -1.000000 -0.000000
outer loop
vertex -169.968750 -1.670357 294.537689
vertex -168.150604 -1.670357 288.936737
vertex -168.218750 -1.670357 289.454376
endloop
endfacet
facet normal 0.000000 -1.000000 0.000000
outer loop
vertex -169.968750 -1.670357 294.537689
vertex -168.218750 -1.670357 289.454376
vertex -168.150604 -1.670357 289.972015
endloop
endfacet
facet normal -0.000000 -1.000000 -0.000000
outer loop
vertex -168.150604 -1.670357 277.472015
vertex -167.950806 -1.670357 277.954376
vertex -168.150604 -1.670357 288.936737
endloop
endfacet
facet normal 0.000001 -1.000000 -0.000000
outer loop
vertex -168.150604 -1.670357 288.936737
vertex -167.950806 -1.670357 277.954376
vertex -167.950806 -1.670357 288.454376
endloop
endfacet
facet normal -0.000000 -1.000000 -0.000000
outer loop
vertex -167.950806 -1.670357 288.454376
vertex -167.950806 -1.670357 277.954376
vertex -167.632965 -1.670357 288.040161
endloop
endfacet
facet normal 0.000000 -1.000000 -0.000000
outer loop
vertex -167.632965 -1.670357 288.040161
vertex -167.950806 -1.670357 277.954376
vertex -167.632965 -1.670357 278.368561
endloop
endfacet
facet normal 0.000000 -1.000000 -0.000000
outer loop
vertex -167.632965 -1.670357 288.040161
vertex -167.632965 -1.670357 278.368561
vertex -162.797180 -1.670357 283.204376
endloop
endfacet
facet normal 0.000000 -1.000000 0.000000
outer loop
vertex -168.150604 -1.670357 289.972015
vertex -167.950806 -1.670357 290.454376
vertex -169.968750 -1.670357 294.537689
endloop
endfacet
facet normal 0.000000 -1.000000 0.000000
outer loop
vertex -169.968750 -1.670357 294.537689
vertex -167.950806 -1.670357 290.454376
vertex -167.632965 -1.670357 290.868561
endloop
endfacet
facet normal 0.000000 -1.000000 -0.000000
outer loop
vertex -169.968750 -1.670357 294.537689
vertex -167.632965 -1.670357 290.868561
vertex -167.218750 -1.670357 291.186432
endloop
endfacet
facet normal 0.000000 -1.000000 0.000000
outer loop
vertex -167.218750 -1.670357 291.186432
vertex -166.736389 -1.670357 291.386200
vertex -169.968750 -1.670357 294.537689
endloop
endfacet
facet normal -0.000000 -1.000000 -0.000000
outer loop
vertex -169.968750 -1.670357 294.537689
vertex -166.736389 -1.670357 291.386200
vertex -166.218750 -1.670357 291.454376
endloop
endfacet
facet normal 0.000000 -1.000000 0.000000
outer loop
vertex -169.968750 -1.670357 294.537689
vertex -166.218750 -1.670357 291.454376
vertex -165.701111 -1.670357 291.386200
endloop
endfacet
facet normal 0.000000 -1.000000 -0.000000
outer loop
vertex -169.968750 -1.670357 294.537689
vertex -165.701111 -1.670357 291.386200
vertex -159.968750 -1.670357 296.537689
endloop
endfacet
facet normal -0.000000 -1.000000 0.000000
outer loop
vertex -159.968750 -1.670357 296.537689
vertex -165.701111 -1.670357 291.386200
vertex -165.218750 -1.670357 291.186432
endloop
endfacet
facet normal -0.000000 -1.000000 -0.000000
outer loop
vertex -159.968750 -1.670357 296.537689
vertex -165.218750 -1.670357 291.186432
vertex -164.804535 -1.670357 290.868561
endloop
endfacet
facet normal -0.000000 -1.000000 -0.000000
outer loop
vertex -164.804535 -1.670357 290.868561
vertex -159.968750 -1.670357 286.032806
vertex -159.968750 -1.670357 296.537689
endloop
endfacet
facet normal 0.000000 -1.000000 -0.000000
outer loop
vertex -159.968750 -1.670357 296.537689
vertex -159.968750 -1.670357 286.032806
vertex -155.132965 -1.670357 290.868561
endloop
endfacet
facet normal 0.000000 -1.000000 -0.000000
outer loop
vertex -159.968750 -1.670357 296.537689
vertex -155.132965 -1.670357 290.868561
vertex -154.718750 -1.670357 291.186432
endloop
endfacet
facet normal 0.000000 -1.000000 0.000000
outer loop
vertex -154.718750 -1.670357 291.186432
vertex -154.236389 -1.670357 291.386200
vertex -159.968750 -1.670357 296.537689
endloop
endfacet
facet normal -0.000000 -1.000000 -0.000000
outer loop
vertex -159.968750 -1.670357 296.537689
vertex -154.236389 -1.670357 291.386200
vertex -149.968750 -1.670357 294.537689
endloop
endfacet
facet normal -0.000000 -1.000000 0.000000
outer loop
vertex -149.968750 -1.670357 294.537689
vertex -154.236389 -1.670357 291.386200
vertex -153.718750 -1.670357 291.454376
endloop
endfacet
facet normal 0.000000 -1.000000 -0.000000
outer loop
vertex -149.968750 -1.670357 294.537689
vertex -153.718750 -1.670357 291.454376
vertex -153.201111 -1.670357 291.386200
endloop
endfacet
facet normal -0.000000 -1.000000 0.000000
outer loop
vertex -153.201111 -1.670357 291.386200
vertex -152.718750 -1.670357 291.186432
vertex -149.968750 -1.670357 294.537689
endloop
endfacet
facet normal -0.000000 -1.000000 -0.000000
outer loop
vertex -149.968750 -1.670357 294.537689
vertex -152.718750 -1.670357 291.186432
vertex -152.304535 -1.670357 290.868561
endloop
endfacet
facet normal -0.000000 -1.000000 0.000000
outer loop
vertex -149.968750 -1.670357 294.537689
vertex -152.304535 -1.670357 290.868561
vertex -151.986710 -1.670357 290.454376
endloop
endfacet
facet normal -0.000000 -1.000000 0.000000
outer loop
vertex -151.986710 -1.670357 290.454376
vertex -151.786896 -1.670357 289.972015
vertex -149.968750 -1.670357 294.537689
endloop
endfacet
facet normal -0.000000 -1.000000 0.000000
outer loop
vertex -149.968750 -1.670357 294.537689
vertex -151.786896 -1.670357 289.972015
vertex -151.718750 -1.670357 289.454376
endloop
endfacet
facet normal -0.000000 -1.000000 -0.000000
outer loop
vertex -149.968750 -1.670357 294.537689
vertex -151.718750 -1.670357 289.454376
vertex -151.786896 -1.670357 288.936737
endloop
endfacet
facet normal -0.000001 -1.000000 -0.000000
outer loop
vertex -151.986710 -1.670357 288.454376
vertex -151.986710 -1.670357 277.954376
vertex -151.786896 -1.670357 288.936737
endloop
endfacet
facet normal 0.000000 -1.000000 -0.000000
outer loop
vertex -151.786896 -1.670357 288.936737
vertex -151.986710 -1.670357 277.954376
vertex -151.786896 -1.670357 277.472015
endloop
endfacet
facet normal -0.000000 -1.000000 -0.000000
outer loop
vertex -151.786896 -1.670357 288.936737
vertex -151.786896 -1.670357 277.472015
vertex -147.468750 -1.670356 269.037689
endloop
endfacet
facet normal 0.000000 -1.000000 -0.000000
outer loop
vertex -147.468750 -1.670356 269.037689
vertex -151.786896 -1.670357 277.472015
vertex -151.718750 -1.670357 276.954376
endloop
endfacet
facet normal 0.000000 -1.000000 0.000000
outer loop
vertex -147.468750 -1.670356 269.037689
vertex -151.718750 -1.670357 276.954376
vertex -151.786896 -1.670357 276.436737
endloop
endfacet
facet normal 0.000000 -1.000000 -0.000000
outer loop
vertex -151.986710 -1.670357 288.454376
vertex -152.304535 -1.670357 288.040161
vertex -151.986710 -1.670357 277.954376
endloop
endfacet
facet normal -0.000000 -1.000000 0.000000
outer loop
vertex -151.986710 -1.670357 277.954376
vertex -152.304535 -1.670357 288.040161
vertex -152.304535 -1.670357 278.368561
endloop
endfacet
facet normal -0.000000 -1.000000 -0.000000
outer loop
vertex -152.304535 -1.670357 278.368561
vertex -152.304535 -1.670357 288.040161
vertex -157.140320 -1.670357 283.204376
endloop
endfacet
facet normal 0.000000 -1.000000 0.000000
outer loop
vertex -151.786896 -1.670357 276.436737
vertex -151.986710 -1.670357 275.954376
vertex -147.468750 -1.670356 269.037689
endloop
endfacet
facet normal 0.000000 -1.000000 0.000000
outer loop
vertex -147.468750 -1.670356 269.037689
vertex -151.986710 -1.670357 275.954376
vertex -152.304535 -1.670357 275.540161
endloop
endfacet
facet normal 0.000000 -1.000000 -0.000000
outer loop
vertex -147.468750 -1.670356 269.037689
vertex -152.304535 -1.670357 275.540161
vertex -152.718750 -1.670357 275.222321
endloop
endfacet
facet normal -0.000000 -1.000000 0.000000
outer loop
vertex -152.718750 -1.670357 275.222321
vertex -153.201111 -1.670356 275.022522
vertex -147.468750 -1.670356 269.037689
endloop
endfacet
facet normal 0.000000 -1.000000 0.000000
outer loop
vertex -147.468750 -1.670356 269.037689
vertex -153.201111 -1.670356 275.022522
vertex -153.718750 -1.670356 274.954376
endloop
endfacet
facet normal -0.000000 -1.000000 0.000000
outer loop
vertex -147.468750 -1.670356 269.037689
vertex -153.718750 -1.670356 274.954376
vertex -154.236389 -1.670356 275.022522
endloop
endfacet
facet normal 0.000000 -1.000000 -0.000001
outer loop
vertex -154.236389 -1.670356 275.022522
vertex -154.718750 -1.670357 275.222321
vertex -147.468750 -1.670356 269.037689
endloop
endfacet
facet normal 0.000000 -1.000000 -0.000000
outer loop
vertex -147.468750 -1.670356 269.037689
vertex -149.968750 -1.670357 294.537689
vertex -151.786896 -1.670357 288.936737
endloop
endfacet
facet normal 0.000000 1.000000 0.000000
outer loop
vertex -159.968750 -4.670357 296.537689
vertex -163.249420 -4.670357 289.320190
vertex -164.804535 -4.670357 290.875305
endloop
endfacet
facet normal 0.000000 1.000000 -0.000000
outer loop
vertex -159.968750 -4.670357 296.537689
vertex -164.804535 -4.670357 290.875305
vertex -165.218750 -4.670357 291.193146
endloop
endfacet
facet normal 0.000000 1.000000 0.000000
outer loop
vertex -165.718750 -4.670357 286.132660
vertex -165.718750 -4.670357 283.887695
vertex -172.468750 -4.670356 269.037689
endloop
endfacet
facet normal 0.000000 1.000000 0.000000
outer loop
vertex -167.632965 -4.670357 288.046875
vertex -165.718750 -4.670357 286.132660
vertex -172.468750 -4.670356 269.037689
endloop
endfacet
facet normal 0.000000 1.000000 0.000000
outer loop
vertex -169.968750 -4.670357 294.537689
vertex -159.968750 -4.670357 296.537689
vertex -165.218750 -4.670357 291.193146
endloop
endfacet
facet normal 0.000000 1.000000 -0.000004
outer loop
vertex -169.968750 -4.670357 294.537689
vertex -165.218750 -4.670357 291.193146
vertex -165.701111 -4.670357 291.392944
endloop
endfacet
facet normal 0.000000 1.000000 0.000000
outer loop
vertex -167.950806 -4.670357 288.461090
vertex -167.632965 -4.670357 288.046875
vertex -172.468750 -4.670356 269.037689
endloop
endfacet
facet normal -0.000001 1.000000 0.000000
outer loop
vertex -168.150604 -4.670357 288.943451
vertex -167.950806 -4.670357 288.461090
vertex -172.468750 -4.670356 269.037689
endloop
endfacet
facet normal 0.000000 1.000000 0.000001
outer loop
vertex -169.968750 -4.670357 294.537689
vertex -165.701111 -4.670357 291.392944
vertex -166.218750 -4.670357 291.461090
endloop
endfacet
facet normal 0.000000 1.000000 -0.000000
outer loop
vertex -169.968750 -4.670357 294.537689
vertex -166.218750 -4.670357 291.461090
vertex -166.736389 -4.670357 291.392944
endloop
endfacet
facet normal 0.000000 1.000000 0.000000
outer loop
vertex -168.150604 -4.670357 288.943451
vertex -172.468750 -4.670356 269.037689
vertex -169.968750 -4.670357 294.537689
endloop
endfacet
facet normal 0.000000 1.000000 0.000000
outer loop
vertex -168.218750 -4.670357 289.461090
vertex -168.150604 -4.670357 288.943451
vertex -169.968750 -4.670357 294.537689
endloop
endfacet
facet normal 0.000000 1.000000 0.000001
outer loop
vertex -169.968750 -4.670357 294.537689
vertex -166.736389 -4.670357 291.392944
vertex -167.218750 -4.670357 291.193146
endloop
endfacet
facet normal 0.000000 1.000000 -0.000000
outer loop
vertex -169.968750 -4.670357 294.537689
vertex -167.218750 -4.670357 291.193146
vertex -167.632965 -4.670357 290.875305
endloop
endfacet
facet normal 0.000000 1.000000 0.000000
outer loop
vertex -168.150604 -4.670357 289.978729
vertex -168.218750 -4.670357 289.461090
vertex -169.968750 -4.670357 294.537689
endloop
endfacet
facet normal 0.000000 1.000000 0.000000
outer loop
vertex -169.968750 -4.670357 294.537689
vertex -167.632965 -4.670357 290.875305
vertex -167.950806 -4.670357 290.461090
endloop
endfacet
facet normal 0.000000 1.000000 -0.000001
outer loop
vertex -169.968750 -4.670357 294.537689
vertex -167.950806 -4.670357 290.461090
vertex -168.150604 -4.670357 289.978729
endloop
endfacet
facet normal 0.000000 1.000000 0.000000
outer loop
vertex -165.718750 -4.670357 283.887695
vertex -165.718750 -4.670357 280.289520
vertex -167.632965 -4.670357 278.375305
endloop
endfacet
facet normal 0.000000 1.000000 0.000001
outer loop
vertex -165.718750 -4.670357 283.887695
vertex -167.632965 -4.670357 278.375305
vertex -167.950806 -4.670357 277.961090
endloop
endfacet
facet normal 0.000000 1.000000 0.000000
outer loop
vertex -152.304535 -4.670357 278.375305
vertex -154.218750 -4.670357 280.289520
vertex -154.218750 -4.670357 283.887695
endloop
endfacet
facet normal 0.000000 1.000000 0.000000
outer loop
vertex -151.986710 -4.670357 277.961090
vertex -152.304535 -4.670357 278.375305
vertex -154.218750 -4.670357 283.887695
endloop
endfacet
facet normal 0.000000 1.000000 -0.000000
outer loop
vertex -172.468750 -4.670356 269.037689
vertex -165.718750 -4.670357 283.887695
vertex -167.950806 -4.670357 277.961090
endloop
endfacet
facet normal 0.000001 1.000000 -0.000002
outer loop
vertex -172.468750 -4.670356 269.037689
vertex -167.950806 -4.670357 277.961090
vertex -168.150604 -4.670357 277.478729
endloop
endfacet
facet normal -0.000000 1.000000 0.000000
outer loop
vertex -151.986710 -4.670357 277.961090
vertex -154.218750 -4.670357 283.887695
vertex -147.468750 -4.670356 269.037689
endloop
endfacet
facet normal -0.000001 1.000000 -0.000010
outer loop
vertex -151.786896 -4.670357 277.478729
vertex -151.986710 -4.670357 277.961090
vertex -147.468750 -4.670356 269.037689
endloop
endfacet
facet normal 0.000000 1.000000 0.000001
outer loop
vertex -172.468750 -4.670356 269.037689
vertex -168.150604 -4.670357 277.478729
vertex -168.218750 -4.670357 276.961090
endloop
endfacet
facet normal 0.000000 1.000000 -0.000001
outer loop
vertex -172.468750 -4.670356 269.037689
vertex -168.218750 -4.670357 276.961090
vertex -168.150604 -4.670357 276.443451
endloop
endfacet
facet normal -0.000000 1.000000 0.000000
outer loop
vertex -151.718750 -4.670357 276.961090
vertex -151.786896 -4.670357 277.478729
vertex -147.468750 -4.670356 269.037689
endloop
endfacet
facet normal -0.000000 1.000000 -0.000001
outer loop
vertex -151.786896 -4.670357 276.443451
vertex -151.718750 -4.670357 276.961090
vertex -147.468750 -4.670356 269.037689
endloop
endfacet
facet normal 0.000000 1.000000 0.000000
outer loop
vertex -172.468750 -4.670356 269.037689
vertex -168.150604 -4.670357 276.443451
vertex -167.950806 -4.670357 275.961090
endloop
endfacet
facet normal 0.000000 1.000000 0.000000
outer loop
vertex -172.468750 -4.670356 269.037689
vertex -167.950806 -4.670357 275.961090
vertex -167.632965 -4.670357 275.546875
endloop
endfacet
facet normal -0.000000 1.000000 0.000001
outer loop
vertex -151.986710 -4.670357 275.961090
vertex -151.786896 -4.670357 276.443451
vertex -147.468750 -4.670356 269.037689
endloop
endfacet
facet normal -0.000000 1.000000 0.000000
outer loop
vertex -152.304535 -4.670357 275.546875
vertex -151.986710 -4.670357 275.961090
vertex -147.468750 -4.670356 269.037689
endloop
endfacet
facet normal 0.000000 1.000000 0.000000
outer loop
vertex -172.468750 -4.670356 269.037689
vertex -167.632965 -4.670357 275.546875
vertex -167.218750 -4.670357 275.229034
endloop
endfacet
facet normal -0.000001 1.000000 0.000001
outer loop
vertex -172.468750 -4.670356 269.037689
vertex -167.218750 -4.670357 275.229034
vertex -166.736389 -4.670356 275.029236
endloop
endfacet
facet normal -0.000000 1.000000 0.000000
outer loop
vertex -152.718750 -4.670357 275.229034
vertex -152.304535 -4.670357 275.546875
vertex -147.468750 -4.670356 269.037689
endloop
endfacet
facet normal 0.000001 1.000000 0.000001
outer loop
vertex -153.201111 -4.670356 275.029236
vertex -152.718750 -4.670357 275.229034
vertex -147.468750 -4.670356 269.037689
endloop
endfacet
facet normal 0.000000 1.000000 0.000000
outer loop
vertex -147.468750 -4.670356 269.037689
vertex -172.468750 -4.670356 269.037689
vertex -166.736389 -4.670356 275.029236
endloop
endfacet
facet normal 0.000000 1.000000 0.000003
outer loop
vertex -147.468750 -4.670356 269.037689
vertex -166.736389 -4.670356 275.029236
vertex -166.218750 -4.670356 274.961090
endloop
endfacet
facet normal 0.000000 1.000000 0.000000
outer loop
vertex -153.718750 -4.670356 274.961090
vertex -153.201111 -4.670356 275.029236
vertex -147.468750 -4.670356 269.037689
endloop
endfacet
facet normal 0.000000 1.000000 -0.000001
outer loop
vertex -154.236389 -4.670356 275.029236
vertex -153.718750 -4.670356 274.961090
vertex -147.468750 -4.670356 269.037689
endloop
endfacet
facet normal 0.000000 1.000000 -0.000002
outer loop
vertex -147.468750 -4.670356 269.037689
vertex -166.218750 -4.670356 274.961090
vertex -165.701111 -4.670356 275.029236
endloop
endfacet
facet normal 0.000000 1.000000 0.000004
outer loop
vertex -147.468750 -4.670356 269.037689
vertex -165.701111 -4.670356 275.029236
vertex -165.218750 -4.670357 275.229034
endloop
endfacet
facet normal -0.000002 1.000000 -0.000002
outer loop
vertex -154.718750 -4.670357 275.229034
vertex -154.236389 -4.670356 275.029236
vertex -147.468750 -4.670356 269.037689
endloop
endfacet
facet normal 0.000000 1.000000 0.000000
outer loop
vertex -162.890320 -4.670357 277.461090
vertex -157.047180 -4.670357 277.461090
vertex -155.132965 -4.670357 275.546875
endloop
endfacet
facet normal 0.000001 1.000000 -0.000029
outer loop
vertex -155.132965 -4.670357 275.546875
vertex -154.718750 -4.670357 275.229034
vertex -147.468750 -4.670356 269.037689
endloop
endfacet
facet normal -0.000000 1.000000 0.000000
outer loop
vertex -147.468750 -4.670356 269.037689
vertex -165.218750 -4.670357 275.229034
vertex -164.804535 -4.670357 275.546875
endloop
endfacet
facet normal 0.000000 1.000000 0.000000
outer loop
vertex -164.804535 -4.670357 275.546875
vertex -162.890320 -4.670357 277.461090
vertex -155.132965 -4.670357 275.546875
endloop
endfacet
facet normal 0.000000 1.000000 0.000000
outer loop
vertex -164.804535 -4.670357 275.546875
vertex -155.132965 -4.670357 275.546875
vertex -147.468750 -4.670356 269.037689
endloop
endfacet
facet normal -0.000000 1.000000 0.000000
outer loop
vertex -147.468750 -4.670356 269.037689
vertex -154.218750 -4.670357 283.887695
vertex -154.218750 -4.670357 286.132660
endloop
endfacet
facet normal -0.000000 1.000000 0.000000
outer loop
vertex -147.468750 -4.670356 269.037689
vertex -154.218750 -4.670357 286.132660
vertex -152.304535 -4.670357 288.046875
endloop
endfacet
facet normal 0.000000 1.000000 0.000000
outer loop
vertex -155.132965 -4.670357 290.875305
vertex -156.688080 -4.670357 289.320190
vertex -159.968750 -4.670357 296.537689
endloop
endfacet
facet normal 0.000000 1.000000 0.000000
outer loop
vertex -154.718750 -4.670357 291.193146
vertex -155.132965 -4.670357 290.875305
vertex -159.968750 -4.670357 296.537689
endloop
endfacet
facet normal -0.000000 1.000000 -0.000000
outer loop
vertex -147.468750 -4.670356 269.037689
vertex -152.304535 -4.670357 288.046875
vertex -151.986710 -4.670357 288.461090
endloop
endfacet
facet normal 0.000001 1.000000 0.000000
outer loop
vertex -147.468750 -4.670356 269.037689
vertex -151.986710 -4.670357 288.461090
vertex -151.786896 -4.670357 288.943451
endloop
endfacet
facet normal 0.000000 1.000000 0.000000
outer loop
vertex -154.718750 -4.670357 291.193146
vertex -159.968750 -4.670357 296.537689
vertex -149.968750 -4.670357 294.537689
endloop
endfacet
facet normal 0.000000 1.000000 -0.000006
outer loop
vertex -154.236389 -4.670357 291.392944
vertex -154.718750 -4.670357 291.193146
vertex -149.968750 -4.670357 294.537689
endloop
endfacet
facet normal -0.000000 1.000000 0.000000
outer loop
vertex -149.968750 -4.670357 294.537689
vertex -147.468750 -4.670356 269.037689
vertex -151.786896 -4.670357 288.943451
endloop
endfacet
facet normal 0.000000 1.000000 0.000000
outer loop
vertex -149.968750 -4.670357 294.537689
vertex -151.786896 -4.670357 288.943451
vertex -151.718750 -4.670357 289.461090
endloop
endfacet
facet normal 0.000000 1.000000 0.000000
outer loop
vertex -153.718750 -4.670357 291.461090
vertex -154.236389 -4.670357 291.392944
vertex -149.968750 -4.670357 294.537689
endloop
endfacet
facet normal 0.000000 1.000000 0.000000
outer loop
vertex -153.201111 -4.670357 291.392944
vertex -153.718750 -4.670357 291.461090
vertex -149.968750 -4.670357 294.537689
endloop
endfacet
facet normal 0.000000 1.000000 -0.000000
outer loop
vertex -149.968750 -4.670357 294.537689
vertex -151.718750 -4.670357 289.461090
vertex -151.786896 -4.670357 289.978729
endloop
endfacet
facet normal 0.000000 1.000000 -0.000000
outer loop
vertex -149.968750 -4.670357 294.537689
vertex -151.786896 -4.670357 289.978729
vertex -151.986710 -4.670357 290.461090
endloop
endfacet
facet normal 0.000000 1.000000 0.000001
outer loop
vertex -152.718750 -4.670357 291.193146
vertex -153.201111 -4.670357 291.392944
vertex -149.968750 -4.670357 294.537689
endloop
endfacet
facet normal 0.000000 1.000000 0.000000
outer loop
vertex -149.968750 -4.670357 294.537689
vertex -151.986710 -4.670357 290.461090
vertex -152.304535 -4.670357 290.875305
endloop
endfacet
facet normal 0.000000 1.000000 0.000000
outer loop
vertex -152.304535 -4.670357 290.875305
vertex -152.718750 -4.670357 291.193146
vertex -149.968750 -4.670357 294.537689
endloop
endfacet
facet normal 0.130584 0.000000 -0.991437
outer loop
vertex -166.218750 -4.670356 274.961090
vertex -166.218750 -3.403626 274.961090
vertex -165.701111 -3.403626 275.029236
endloop
endfacet
facet normal 0.130403 0.000000 -0.991461
outer loop
vertex -166.218750 -4.670356 274.961090
vertex -165.701111 -3.403626 275.029236
vertex -165.701111 -4.670356 275.029236
endloop
endfacet
facet normal 0.991445 0.000000 -0.130523
outer loop
vertex -151.786896 -4.670357 276.443451
vertex -151.786896 -3.403626 276.443451
vertex -151.718750 -3.403626 276.961090
endloop
endfacet
facet normal 0.991447 0.000000 -0.130511
outer loop
vertex -151.786896 -4.670357 276.443451
vertex -151.718750 -3.403626 276.961090
vertex -151.718750 -4.670357 276.961090
endloop
endfacet
facet normal 0.608735 0.000000 -0.793374
outer loop
vertex -165.218750 -4.670357 275.229034
vertex -165.218750 -3.403626 275.229034
vertex -164.804535 -3.403626 275.546875
endloop
endfacet
facet normal 0.608793 0.000000 -0.793329
outer loop
vertex -165.218750 -4.670357 275.229034
vertex -164.804535 -3.403626 275.546875
vertex -164.804535 -4.670357 275.546875
endloop
endfacet
facet normal -0.382630 0.000000 -0.923902
outer loop
vertex -167.218750 -4.670357 275.229034
vertex -167.218750 -3.403626 275.229034
vertex -166.736389 -3.403626 275.029236
endloop
endfacet
facet normal -0.382787 0.000000 -0.923836
outer loop
vertex -167.218750 -4.670357 275.229034
vertex -166.736389 -3.403626 275.029236
vertex -166.736389 -4.670356 275.029236
endloop
endfacet
facet normal 0.382788 0.000000 -0.923836
outer loop
vertex -165.701111 -4.670356 275.029236
vertex -165.701111 -3.403626 275.029236
vertex -165.218750 -3.403626 275.229034
endloop
endfacet
facet normal 0.382630 0.000000 -0.923902
outer loop
vertex -165.701111 -4.670356 275.029236
vertex -165.218750 -3.403626 275.229034
vertex -165.218750 -4.670357 275.229034
endloop
endfacet
facet normal -0.793363 0.000000 -0.608749
outer loop
vertex -167.950806 -4.670357 275.961090
vertex -167.950806 -3.403626 275.961090
vertex -167.632965 -3.403626 275.546875
endloop
endfacet
facet normal -0.793328 0.000000 -0.608794
outer loop
vertex -167.950806 -4.670357 275.961090
vertex -167.632965 -3.403626 275.546875
vertex -167.632965 -4.670357 275.546875
endloop
endfacet
facet normal 0.707068 0.000000 0.707145
outer loop
vertex -163.249420 -4.670357 289.320190
vertex -162.890320 -4.670357 288.961090
vertex -162.890320 -3.403627 288.961090
endloop
endfacet
facet normal 0.707099 0.000000 0.707114
outer loop
vertex -162.890320 -3.403627 288.961090
vertex -164.804535 -3.403627 290.875305
vertex -164.804535 -4.670357 290.875305
endloop
endfacet
facet normal 0.707129 0.000011 0.707085
outer loop
vertex -162.890320 -3.403627 288.961090
vertex -164.804535 -4.670357 290.875305
vertex -163.249420 -4.670357 289.320190
endloop
endfacet
facet normal -0.793329 0.000000 0.608794
outer loop
vertex -167.632965 -4.670357 278.375305
vertex -167.632965 -3.403626 278.375305
vertex -167.950806 -3.403626 277.961090
endloop
endfacet
facet normal -0.793363 0.000000 0.608749
outer loop
vertex -167.632965 -4.670357 278.375305
vertex -167.950806 -3.403626 277.961090
vertex -167.950806 -4.670357 277.961090
endloop
endfacet
facet normal -0.707117 0.000000 -0.707096
outer loop
vertex -157.047180 -4.670357 277.461090
vertex -157.047180 -3.403626 277.461090
vertex -155.132965 -3.403626 275.546875
endloop
endfacet
facet normal -0.707099 0.000000 -0.707114
outer loop
vertex -157.047180 -4.670357 277.461090
vertex -155.132965 -3.403626 275.546875
vertex -155.132965 -4.670357 275.546875
endloop
endfacet
facet normal 0.130403 0.000000 0.991461
outer loop
vertex -153.201111 -4.670357 291.392944
vertex -153.201111 -3.403627 291.392944
vertex -153.718750 -3.403627 291.461090
endloop
endfacet
facet normal 0.130584 0.000000 0.991437
outer loop
vertex -153.201111 -4.670357 291.392944
vertex -153.718750 -3.403627 291.461090
vertex -153.718750 -4.670357 291.461090
endloop
endfacet
facet normal -0.382709 0.000000 0.923869
outer loop
vertex -166.736389 -4.670357 291.392944
vertex -166.736389 -3.403627 291.392944
vertex -167.218750 -3.403627 291.193146
endloop
endfacet
facet normal -0.382630 0.000000 0.923902
outer loop
vertex -166.736389 -4.670357 291.392944
vertex -167.218750 -3.403627 291.193146
vertex -167.218750 -4.670357 291.193146
endloop
endfacet
facet normal 0.923871 0.000000 -0.382704
outer loop
vertex -151.986710 -4.670357 275.961090
vertex -151.986710 -3.403626 275.961090
vertex -151.786896 -3.403626 276.443451
endloop
endfacet
facet normal 0.923871 0.000000 -0.382704
outer loop
vertex -151.986710 -4.670357 275.961090
vertex -151.786896 -3.403626 276.443451
vertex -151.786896 -4.670357 276.443451
endloop
endfacet
facet normal 0.382630 0.000000 0.923902
outer loop
vertex -152.718750 -4.670357 291.193146
vertex -152.718750 -3.403627 291.193146
vertex -153.201111 -3.403627 291.392944
endloop
endfacet
facet normal 0.382709 0.000000 0.923869
outer loop
vertex -152.718750 -4.670357 291.193146
vertex -153.201111 -3.403627 291.392944
vertex -153.201111 -4.670357 291.392944
endloop
endfacet
facet normal -0.707119 0.000000 0.707095
outer loop
vertex -165.718750 -4.670357 280.289520
vertex -165.718750 -3.403627 280.289520
vertex -167.632965 -3.403626 278.375305
endloop
endfacet
facet normal -0.707099 0.000000 0.707114
outer loop
vertex -165.718750 -4.670357 280.289520
vertex -167.632965 -3.403626 278.375305
vertex -167.632965 -4.670357 278.375305
endloop
endfacet
facet normal -0.608793 0.000000 -0.793329
outer loop
vertex -155.132965 -4.670357 275.546875
vertex -155.132965 -3.403626 275.546875
vertex -154.718750 -3.403626 275.229034
endloop
endfacet
facet normal -0.608735 0.000000 -0.793374
outer loop
vertex -155.132965 -4.670357 275.546875
vertex -154.718750 -3.403626 275.229034
vertex -154.718750 -4.670357 275.229034
endloop
endfacet
facet normal 0.793377 0.000000 0.608731
outer loop
vertex -151.986710 -4.670357 277.961090
vertex -151.986710 -3.403626 277.961090
vertex -152.304535 -3.403626 278.375305
endloop
endfacet
facet normal 0.793343 0.000000 0.608775
outer loop
vertex -151.986710 -4.670357 277.961090
vertex -152.304535 -3.403626 278.375305
vertex -152.304535 -4.670357 278.375305
endloop
endfacet
facet normal -0.991447 0.000000 -0.130511
outer loop
vertex -168.218750 -4.670357 276.961090
vertex -168.218750 -3.403626 276.961090
vertex -168.150604 -3.403626 276.443451
endloop
endfacet
facet normal -0.991445 0.000000 -0.130523
outer loop
vertex -168.218750 -4.670357 276.961090
vertex -168.150604 -3.403626 276.443451
vertex -168.150604 -4.670357 276.443451
endloop
endfacet
facet normal 0.991445 0.000000 0.130523
outer loop
vertex -151.718750 -4.670357 276.961090
vertex -151.718750 -3.403626 276.961090
vertex -151.786896 -3.403626 277.478729
endloop
endfacet
facet normal 0.991445 0.000000 0.130523
outer loop
vertex -151.718750 -4.670357 276.961090
vertex -151.786896 -3.403626 277.478729
vertex -151.786896 -4.670357 277.478729
endloop
endfacet
facet normal -0.793397 0.000000 -0.608705
outer loop
vertex -167.950806 -4.670357 288.461090
vertex -167.950806 -3.403627 288.461090
vertex -167.632965 -3.403627 288.046875
endloop
endfacet
facet normal -0.793329 0.000000 -0.608793
outer loop
vertex -167.950806 -4.670357 288.461090
vertex -167.632965 -3.403627 288.046875
vertex -167.632965 -4.670357 288.046875
endloop
endfacet
facet normal -0.991445 0.000000 0.130523
outer loop
vertex -168.150604 -4.670357 277.478729
vertex -168.150604 -3.403626 277.478729
vertex -168.218750 -3.403626 276.961090
endloop
endfacet
facet normal -0.991445 0.000000 0.130523
outer loop
vertex -168.150604 -4.670357 277.478729
vertex -168.218750 -3.403626 276.961090
vertex -168.218750 -4.670357 276.961090
endloop
endfacet
facet normal 0.923857 0.000000 -0.382737
outer loop
vertex -151.986710 -4.670357 288.461090
vertex -151.986710 -3.403627 288.461090
vertex -151.786896 -3.403627 288.943451
endloop
endfacet
facet normal 0.923871 0.000000 -0.382704
outer loop
vertex -151.986710 -4.670357 288.461090
vertex -151.786896 -3.403627 288.943451
vertex -151.786896 -4.670357 288.943451
endloop
endfacet
facet normal 0.130403 0.000000 0.991461
outer loop
vertex -165.701111 -4.670357 291.392944
vertex -165.701111 -3.403627 291.392944
vertex -166.218750 -3.403627 291.461090
endloop
endfacet
facet normal 0.130584 0.000000 0.991437
outer loop
vertex -165.701111 -4.670357 291.392944
vertex -166.218750 -3.403627 291.461090
vertex -166.218750 -4.670357 291.461090
endloop
endfacet
facet normal 0.382788 0.000000 -0.923836
outer loop
vertex -153.201111 -4.670356 275.029236
vertex -153.201111 -3.403626 275.029236
vertex -152.718750 -3.403626 275.229034
endloop
endfacet
facet normal 0.382630 0.000000 -0.923902
outer loop
vertex -153.201111 -4.670356 275.029236
vertex -152.718750 -3.403626 275.229034
vertex -152.718750 -4.670357 275.229034
endloop
endfacet
facet normal 0.130584 0.000000 -0.991437
outer loop
vertex -153.718750 -4.670356 274.961090
vertex -153.718750 -3.403626 274.961090
vertex -153.201111 -3.403626 275.029236
endloop
endfacet
facet normal 0.130403 0.000000 -0.991461
outer loop
vertex -153.718750 -4.670356 274.961090
vertex -153.201111 -3.403626 275.029236
vertex -153.201111 -4.670356 275.029236
endloop
endfacet
facet normal -0.130584 0.000000 0.991437
outer loop
vertex -166.218750 -4.670357 291.461090
vertex -166.218750 -3.403627 291.461090
vertex -166.736389 -3.403627 291.392944
endloop
endfacet
facet normal -0.130403 0.000000 0.991461
outer loop
vertex -166.218750 -4.670357 291.461090
vertex -166.736389 -3.403627 291.392944
vertex -166.736389 -4.670357 291.392944
endloop
endfacet
facet normal -0.923885 0.000000 0.382671
outer loop
vertex -167.950806 -4.670357 290.461090
vertex -167.950806 -3.403627 290.461090
vertex -168.150604 -3.403627 289.978729
endloop
endfacet
facet normal -0.923868 0.000000 0.382712
outer loop
vertex -167.950806 -4.670357 290.461090
vertex -168.150604 -3.403627 289.978729
vertex -168.150604 -4.670357 289.978729
endloop
endfacet
facet normal 0.793343 0.000000 -0.608775
outer loop
vertex -152.304535 -4.670357 288.046875
vertex -152.304535 -3.403627 288.046875
vertex -151.986710 -3.403627 288.461090
endloop
endfacet
facet normal 0.793411 0.000000 -0.608686
outer loop
vertex -152.304535 -4.670357 288.046875
vertex -151.986710 -3.403627 288.461090
vertex -151.986710 -4.670357 288.461090
endloop
endfacet
facet normal -0.608793 0.000000 -0.793329
outer loop
vertex -167.632965 -4.670357 275.546875
vertex -167.632965 -3.403626 275.546875
vertex -167.218750 -3.403626 275.229034
endloop
endfacet
facet normal -0.608735 0.000000 -0.793374
outer loop
vertex -167.632965 -4.670357 275.546875
vertex -167.218750 -3.403626 275.229034
vertex -167.218750 -4.670357 275.229034
endloop
endfacet
facet normal 0.707101 0.000000 0.707113
outer loop
vertex -152.304535 -4.670357 278.375305
vertex -152.304535 -3.403626 278.375305
vertex -154.218750 -3.403627 280.289520
endloop
endfacet
facet normal 0.707117 0.000000 0.707096
outer loop
vertex -152.304535 -4.670357 278.375305
vertex -154.218750 -3.403627 280.289520
vertex -154.218750 -4.670357 280.289520
endloop
endfacet
facet normal -0.382630 0.000000 -0.923902
outer loop
vertex -154.718750 -4.670357 275.229034
vertex -154.718750 -3.403626 275.229034
vertex -154.236389 -3.403626 275.029236
endloop
endfacet
facet normal -0.382787 0.000000 -0.923836
outer loop
vertex -154.718750 -4.670357 275.229034
vertex -154.236389 -3.403626 275.029236
vertex -154.236389 -4.670356 275.029236
endloop
endfacet
facet normal 0.923871 0.000000 0.382704
outer loop
vertex -151.786896 -4.670357 277.478729
vertex -151.786896 -3.403626 277.478729
vertex -151.986710 -3.403626 277.961090
endloop
endfacet
facet normal 0.923871 0.000000 0.382704
outer loop
vertex -151.786896 -4.670357 277.478729
vertex -151.986710 -3.403626 277.961090
vertex -151.986710 -4.670357 277.961090
endloop
endfacet
facet normal -0.130584 0.000000 0.991437
outer loop
vertex -153.718750 -4.670357 291.461090
vertex -153.718750 -3.403627 291.461090
vertex -154.236389 -3.403627 291.392944
endloop
endfacet
facet normal -0.130403 0.000000 0.991461
outer loop
vertex -153.718750 -4.670357 291.461090
vertex -154.236389 -3.403627 291.392944
vertex -154.236389 -4.670357 291.392944
endloop
endfacet
facet normal -0.991447 0.000000 0.130511
outer loop
vertex -168.150604 -4.670357 289.978729
vertex -168.150604 -3.403627 289.978729
vertex -168.218750 -3.403627 289.461090
endloop
endfacet
facet normal -0.991445 0.000000 0.130523
outer loop
vertex -168.150604 -4.670357 289.978729
vertex -168.218750 -3.403627 289.461090
vertex -168.218750 -4.670357 289.461090
endloop
endfacet
facet normal -0.130403 0.000000 -0.991461
outer loop
vertex -154.236389 -4.670356 275.029236
vertex -154.236389 -3.403626 275.029236
vertex -153.718750 -3.403626 274.961090
endloop
endfacet
facet normal -0.130584 0.000000 -0.991437
outer loop
vertex -154.236389 -4.670356 275.029236
vertex -153.718750 -3.403626 274.961090
vertex -153.718750 -4.670356 274.961090
endloop
endfacet
facet normal 0.000000 1.000000 0.000000
outer loop
vertex -159.968750 -4.670357 296.537689
vertex -156.688080 -4.670357 289.320190
vertex -157.047180 -4.670357 288.961090
endloop
endfacet
facet normal 0.000000 1.000000 0.000001
outer loop
vertex -157.047180 -4.670357 288.961090
vertex -162.890320 -4.670357 288.961090
vertex -163.249420 -4.670357 289.320190
endloop
endfacet
facet normal 0.000000 1.000000 -0.000000
outer loop
vertex -157.047180 -4.670357 288.961090
vertex -163.249420 -4.670357 289.320190
vertex -159.968750 -4.670357 296.537689
endloop
endfacet
facet normal 0.707108 0.000000 -0.707105
outer loop
vertex -154.218750 -4.670357 286.132660
vertex -154.218750 -3.403627 286.132660
vertex -152.304535 -3.403627 288.046875
endloop
endfacet
facet normal 0.707100 0.000000 -0.707114
outer loop
vertex -154.218750 -4.670357 286.132660
vertex -152.304535 -3.403627 288.046875
vertex -152.304535 -4.670357 288.046875
endloop
endfacet
facet normal 0.608793 0.000000 0.793329
outer loop
vertex -164.804535 -4.670357 290.875305
vertex -164.804535 -3.403627 290.875305
vertex -165.218750 -3.403627 291.193146
endloop
endfacet
facet normal 0.608735 0.000000 0.793374
outer loop
vertex -164.804535 -4.670357 290.875305
vertex -165.218750 -3.403627 291.193146
vertex -165.218750 -4.670357 291.193146
endloop
endfacet
facet normal 0.000000 0.000000 -1.000000
outer loop
vertex -162.890320 -4.670357 277.461090
vertex -162.890320 -3.403626 277.461090
vertex -157.047180 -3.403626 277.461090
endloop
endfacet
facet normal 0.000000 0.000000 -1.000000
outer loop
vertex -162.890320 -4.670357 277.461090
vertex -157.047180 -3.403626 277.461090
vertex -157.047180 -4.670357 277.461090
endloop
endfacet
facet normal -0.608735 0.000000 0.793374
outer loop
vertex -154.718750 -4.670357 291.193146
vertex -154.718750 -3.403627 291.193146
vertex -155.132965 -3.403627 290.875305
endloop
endfacet
facet normal -0.608793 0.000000 0.793329
outer loop
vertex -154.718750 -4.670357 291.193146
vertex -155.132965 -3.403627 290.875305
vertex -155.132965 -4.670357 290.875305
endloop
endfacet
facet normal -0.923881 0.000000 -0.382679
outer loop
vertex -168.150604 -4.670357 276.443451
vertex -168.150604 -3.403626 276.443451
vertex -167.950806 -3.403626 275.961090
endloop
endfacet
facet normal -0.923881 0.000000 -0.382680
outer loop
vertex -168.150604 -4.670357 276.443451
vertex -167.950806 -3.403626 275.961090
vertex -167.950806 -4.670357 275.961090
endloop
endfacet
facet normal -0.991445 0.000000 -0.130523
outer loop
vertex -168.218750 -4.670357 289.461090
vertex -168.218750 -3.403627 289.461090
vertex -168.150604 -3.403627 288.943451
endloop
endfacet
facet normal -0.991445 0.000000 -0.130523
outer loop
vertex -168.218750 -4.670357 289.461090
vertex -168.150604 -3.403627 288.943451
vertex -168.150604 -4.670357 288.943451
endloop
endfacet
facet normal 0.382630 0.000000 0.923902
outer loop
vertex -165.218750 -4.670357 291.193146
vertex -165.218750 -3.403627 291.193146
vertex -165.701111 -3.403627 291.392944
endloop
endfacet
facet normal 0.382709 0.000000 0.923869
outer loop
vertex -165.218750 -4.670357 291.193146
vertex -165.701111 -3.403627 291.392944
vertex -165.701111 -4.670357 291.392944
endloop
endfacet
facet normal -0.923881 0.000000 -0.382680
outer loop
vertex -168.150604 -4.670357 288.943451
vertex -168.150604 -3.403627 288.943451
vertex -167.950806 -3.403627 288.461090
endloop
endfacet
facet normal -0.923868 0.000000 -0.382712
outer loop
vertex -168.150604 -4.670357 288.943451
vertex -167.950806 -3.403627 288.461090
vertex -167.950806 -4.670357 288.461090
endloop
endfacet
facet normal 0.608735 0.000000 -0.793374
outer loop
vertex -152.718750 -4.670357 275.229034
vertex -152.718750 -3.403626 275.229034
vertex -152.304535 -3.403626 275.546875
endloop
endfacet
facet normal 0.608793 0.000000 -0.793329
outer loop
vertex -152.718750 -4.670357 275.229034
vertex -152.304535 -3.403626 275.546875
vertex -152.304535 -4.670357 275.546875
endloop
endfacet
facet normal -0.608735 0.000000 0.793374
outer loop
vertex -167.218750 -4.670357 291.193146
vertex -167.218750 -3.403627 291.193146
vertex -167.632965 -3.403627 290.875305
endloop
endfacet
facet normal -0.608793 0.000000 0.793329
outer loop
vertex -167.218750 -4.670357 291.193146
vertex -167.632965 -3.403627 290.875305
vertex -167.632965 -4.670357 290.875305
endloop
endfacet
facet normal 0.793343 0.000000 -0.608775
outer loop
vertex -152.304535 -4.670357 275.546875
vertex -152.304535 -3.403626 275.546875
vertex -151.986710 -3.403626 275.961090
endloop
endfacet
facet normal 0.793377 0.000000 -0.608731
outer loop
vertex -152.304535 -4.670357 275.546875
vertex -151.986710 -3.403626 275.961090
vertex -151.986710 -4.670357 275.961090
endloop
endfacet
facet normal 0.923861 0.000000 0.382728
outer loop
vertex -151.786896 -4.670357 289.978729
vertex -151.786896 -3.403627 289.978729
vertex -151.986710 -3.403627 290.461090
endloop
endfacet
facet normal 0.923871 0.000000 0.382704
outer loop
vertex -151.786896 -4.670357 289.978729
vertex -151.986710 -3.403627 290.461090
vertex -151.986710 -4.670357 290.461090
endloop
endfacet
facet normal 0.991445 0.000000 0.130523
outer loop
vertex -151.718750 -4.670357 289.461090
vertex -151.718750 -3.403627 289.461090
vertex -151.786896 -3.403627 289.978729
endloop
endfacet
facet normal 0.991447 0.000000 0.130511
outer loop
vertex -151.718750 -4.670357 289.461090
vertex -151.786896 -3.403627 289.978729
vertex -151.786896 -4.670357 289.978729
endloop
endfacet
facet normal -0.382709 0.000000 0.923869
outer loop
vertex -154.236389 -4.670357 291.392944
vertex -154.236389 -3.403627 291.392944
vertex -154.718750 -3.403627 291.193146
endloop
endfacet
facet normal -0.382630 0.000000 0.923902
outer loop
vertex -154.236389 -4.670357 291.392944
vertex -154.718750 -3.403627 291.193146
vertex -154.718750 -4.670357 291.193146
endloop
endfacet
facet normal -0.130403 0.000000 -0.991461
outer loop
vertex -166.736389 -4.670356 275.029236
vertex -166.736389 -3.403626 275.029236
vertex -166.218750 -3.403626 274.961090
endloop
endfacet
facet normal -0.130584 0.000000 -0.991437
outer loop
vertex -166.736389 -4.670356 275.029236
vertex -166.218750 -3.403626 274.961090
vertex -166.218750 -4.670356 274.961090
endloop
endfacet
facet normal 0.707099 0.000000 -0.707114
outer loop
vertex -164.804535 -4.670357 275.546875
vertex -164.804535 -3.403626 275.546875
vertex -162.890320 -3.403626 277.461090
endloop
endfacet
facet normal 0.707117 0.000000 -0.707096
outer loop
vertex -164.804535 -4.670357 275.546875
vertex -162.890320 -3.403626 277.461090
vertex -162.890320 -4.670357 277.461090
endloop
endfacet
facet normal -0.793363 0.000000 0.608749
outer loop
vertex -167.632965 -4.670357 290.875305
vertex -167.632965 -3.403627 290.875305
vertex -167.950806 -3.403627 290.461090
endloop
endfacet
facet normal -0.793363 0.000000 0.608749
outer loop
vertex -167.632965 -4.670357 290.875305
vertex -167.950806 -3.403627 290.461090
vertex -167.950806 -4.670357 290.461090
endloop
endfacet
facet normal 0.793377 0.000000 0.608731
outer loop
vertex -151.986710 -4.670357 290.461090
vertex -151.986710 -3.403627 290.461090
vertex -152.304535 -3.403627 290.875305
endloop
endfacet
facet normal 0.793377 0.000000 0.608731
outer loop
vertex -151.986710 -4.670357 290.461090
vertex -152.304535 -3.403627 290.875305
vertex -152.304535 -4.670357 290.875305
endloop
endfacet
facet normal 0.000000 0.000000 1.000000
outer loop
vertex -157.047180 -4.670357 288.961090
vertex -157.047180 -3.403627 288.961090
vertex -162.890320 -3.403627 288.961090
endloop
endfacet
facet normal 0.000000 0.000000 1.000000
outer loop
vertex -157.047180 -4.670357 288.961090
vertex -162.890320 -3.403627 288.961090
vertex -162.890320 -4.670357 288.961090
endloop
endfacet
facet normal -0.923881 0.000000 0.382679
outer loop
vertex -167.950806 -4.670357 277.961090
vertex -167.950806 -3.403626 277.961090
vertex -168.150604 -3.403626 277.478729
endloop
endfacet
facet normal -0.923881 0.000000 0.382680
outer loop
vertex -167.950806 -4.670357 277.961090
vertex -168.150604 -3.403626 277.478729
vertex -168.150604 -4.670357 277.478729
endloop
endfacet
facet normal -0.707107 0.000000 0.707107
outer loop
vertex -156.688080 -4.670357 289.320190
vertex -155.132965 -4.670357 290.875305
vertex -155.132965 -3.403627 290.875305
endloop
endfacet
facet normal -0.707108 0.000000 0.707105
outer loop
vertex -155.132965 -3.403627 290.875305
vertex -157.047180 -3.403627 288.961090
vertex -157.047180 -4.670357 288.961090
endloop
endfacet
facet normal -0.707116 -0.000012 0.707098
outer loop
vertex -155.132965 -3.403627 290.875305
vertex -157.047180 -4.670357 288.961090
vertex -156.688080 -4.670357 289.320190
endloop
endfacet
facet normal 0.608793 0.000000 0.793329
outer loop
vertex -152.304535 -4.670357 290.875305
vertex -152.304535 -3.403627 290.875305
vertex -152.718750 -3.403627 291.193146
endloop
endfacet
facet normal 0.608735 0.000000 0.793374
outer loop
vertex -152.304535 -4.670357 290.875305
vertex -152.718750 -3.403627 291.193146
vertex -152.718750 -4.670357 291.193146
endloop
endfacet
facet normal -0.707099 0.000000 -0.707114
outer loop
vertex -167.632965 -4.670357 288.046875
vertex -167.632965 -3.403627 288.046875
vertex -165.718750 -3.403627 286.132660
endloop
endfacet
facet normal -0.707109 0.000000 -0.707105
outer loop
vertex -167.632965 -4.670357 288.046875
vertex -165.718750 -3.403627 286.132660
vertex -165.718750 -4.670357 286.132660
endloop
endfacet
facet normal 1.000000 0.000000 0.000000
outer loop
vertex -154.218750 -4.670357 283.887695
vertex -154.218750 -4.670357 280.289520
vertex -154.218750 -3.403627 280.289520
endloop
endfacet
facet normal 1.000000 0.000000 0.000000
outer loop
vertex -154.218750 -3.403627 280.289520
vertex -154.218750 -3.403627 286.132660
vertex -154.218750 -4.670357 286.132660
endloop
endfacet
facet normal 1.000000 0.000000 0.000000
outer loop
vertex -154.218750 -3.403627 280.289520
vertex -154.218750 -4.670357 286.132660
vertex -154.218750 -4.670357 283.887695
endloop
endfacet
facet normal -1.000000 0.000000 0.000000
outer loop
vertex -165.718750 -4.670357 283.887695
vertex -165.718750 -4.670357 286.132660
vertex -165.718750 -3.403627 286.132660
endloop
endfacet
facet normal -1.000000 0.000000 0.000000
outer loop
vertex -165.718750 -3.403627 286.132660
vertex -165.718750 -3.403627 280.289520
vertex -165.718750 -4.670357 280.289520
endloop
endfacet
facet normal -1.000000 0.000000 0.000000
outer loop
vertex -165.718750 -3.403627 286.132660
vertex -165.718750 -4.670357 280.289520
vertex -165.718750 -4.670357 283.887695
endloop
endfacet
facet normal 0.991445 0.000000 -0.130523
outer loop
vertex -151.786896 -4.670357 288.943451
vertex -151.786896 -3.403627 288.943451
vertex -151.718750 -3.403627 289.461090
endloop
endfacet
facet normal 0.991445 0.000000 -0.130523
outer loop
vertex -151.786896 -4.670357 288.943451
vertex -151.718750 -3.403627 289.461090
vertex -151.718750 -4.670357 289.461090
endloop
endfacet
endsolid B
