solid L
facet normal 0.000000 1.000000 0.000000
outer loop
vertex -231.786896 -3.403627 282.693451
vertex -231.986710 -3.403627 282.211090
vertex -235.650604 -3.403627 282.693451
endloop
endfacet
facet normal 0.000000 1.000000 0.000000
outer loop
vertex -235.718750 -3.403627 283.211090
vertex -231.718750 -3.403627 284.961090
vertex -231.718750 -3.403627 283.211090
endloop
endfacet
facet normal 0.000000 1.000000 0.000000
outer loop
vertex -235.718750 -3.403627 283.211090
vertex -231.718750 -3.403627 283.211090
vertex -231.786896 -3.403627 282.693451
endloop
endfacet
facet normal 0.000000 1.000000 -0.000001
outer loop
vertex -235.650604 -3.403627 282.693451
vertex -235.718750 -3.403627 283.211090
vertex -231.786896 -3.403627 282.693451
endloop
endfacet
facet normal 0.000000 1.000000 0.000000
outer loop
vertex -233.718750 -3.403627 288.961090
vertex -235.718750 -3.403627 286.961090
vertex -235.650604 -3.403627 287.478729
endloop
endfacet
facet normal 0.000000 1.000000 0.000000
outer loop
vertex -235.450806 -3.403627 287.961090
vertex -233.718750 -3.403627 288.961090
vertex -235.650604 -3.403627 287.478729
endloop
endfacet
facet normal 0.000000 1.000000 -0.000001
outer loop
vertex -233.718750 -3.403627 288.961090
vertex -235.450806 -3.403627 287.961090
vertex -235.132965 -3.403627 288.375305
endloop
endfacet
facet normal 0.000000 1.000000 0.000002
outer loop
vertex -233.718750 -3.403627 288.961090
vertex -235.132965 -3.403627 288.375305
vertex -234.718750 -3.403627 288.693146
endloop
endfacet
facet normal 0.000000 1.000000 0.000000
outer loop
vertex -234.236389 -3.403627 288.892944
vertex -233.718750 -3.403627 288.961090
vertex -234.718750 -3.403627 288.693146
endloop
endfacet
facet normal 0.000000 1.000000 0.000000
outer loop
vertex -231.718750 -3.403627 284.961090
vertex -235.718750 -3.403627 283.211090
vertex -235.718750 -3.403627 286.961090
endloop
endfacet
facet normal 0.000000 1.000000 0.000000
outer loop
vertex -231.718750 -3.403627 284.961090
vertex -235.718750 -3.403627 286.961090
vertex -233.718750 -3.403627 288.961090
endloop
endfacet
facet normal 0.000000 1.000000 0.000000
outer loop
vertex -228.218750 -3.403627 284.961090
vertex -231.718750 -3.403627 284.961090
vertex -233.718750 -3.403627 288.961090
endloop
endfacet
facet normal 0.000000 1.000000 0.000000
outer loop
vertex -226.218750 -3.403627 288.961090
vertex -228.218750 -3.403627 284.961090
vertex -233.718750 -3.403627 288.961090
endloop
endfacet
facet normal 0.000000 1.000000 0.000000
outer loop
vertex -225.218750 -3.403627 288.693146
vertex -226.218750 -3.403627 288.961090
vertex -225.701111 -3.403627 288.892944
endloop
endfacet
facet normal 0.000000 1.000000 0.000002
outer loop
vertex -226.218750 -3.403627 288.961090
vertex -225.218750 -3.403627 288.693146
vertex -224.804535 -3.403627 288.375305
endloop
endfacet
facet normal 0.000000 1.000000 -0.000001
outer loop
vertex -226.218750 -3.403627 288.961090
vertex -224.804535 -3.403627 288.375305
vertex -224.486710 -3.403627 287.961090
endloop
endfacet
facet normal 0.000000 1.000000 0.000000
outer loop
vertex -224.286896 -3.403627 287.478729
vertex -226.218750 -3.403627 288.961090
vertex -224.486710 -3.403627 287.961090
endloop
endfacet
facet normal 0.000000 1.000000 0.000000
outer loop
vertex -225.701111 -3.403627 281.279236
vertex -226.218750 -3.403627 281.211090
vertex -226.736389 -3.403627 281.279236
endloop
endfacet
facet normal 0.000000 1.000000 0.000001
outer loop
vertex -225.701111 -3.403627 281.279236
vertex -226.736389 -3.403627 281.279236
vertex -227.218750 -3.403627 281.479034
endloop
endfacet
facet normal 0.000000 1.000000 0.000000
outer loop
vertex -225.218750 -3.403627 281.479034
vertex -225.701111 -3.403627 281.279236
vertex -227.218750 -3.403627 281.479034
endloop
endfacet
facet normal 0.000000 1.000000 -0.000000
outer loop
vertex -225.218750 -3.403627 281.479034
vertex -227.218750 -3.403627 281.479034
vertex -227.632965 -3.403627 281.796875
endloop
endfacet
facet normal 0.000000 1.000000 0.000000
outer loop
vertex -224.804535 -3.403627 281.796875
vertex -225.218750 -3.403627 281.479034
vertex -227.632965 -3.403627 281.796875
endloop
endfacet
facet normal 0.000000 1.000000 -0.000001
outer loop
vertex -224.804535 -3.403627 281.796875
vertex -227.632965 -3.403627 281.796875
vertex -227.950806 -3.403627 282.211090
endloop
endfacet
facet normal 0.000000 1.000000 0.000001
outer loop
vertex -224.486710 -3.403627 282.211090
vertex -224.804535 -3.403627 281.796875
vertex -227.950806 -3.403627 282.211090
endloop
endfacet
facet normal 0.000000 1.000000 -0.000000
outer loop
vertex -224.486710 -3.403627 282.211090
vertex -227.950806 -3.403627 282.211090
vertex -228.150604 -3.403627 282.693451
endloop
endfacet
facet normal 0.000000 1.000000 0.000000
outer loop
vertex -224.286896 -3.403627 282.693451
vertex -224.486710 -3.403627 282.211090
vertex -228.150604 -3.403627 282.693451
endloop
endfacet
facet normal 0.000000 1.000000 -0.000001
outer loop
vertex -224.286896 -3.403627 282.693451
vertex -228.150604 -3.403627 282.693451
vertex -228.218750 -3.403627 283.211090
endloop
endfacet
facet normal 0.000000 1.000000 0.000000
outer loop
vertex -224.218750 -3.403627 283.211090
vertex -224.286896 -3.403627 282.693451
vertex -228.218750 -3.403627 283.211090
endloop
endfacet
facet normal 0.000000 1.000000 0.000000
outer loop
vertex -224.218750 -3.403627 283.211090
vertex -228.218750 -3.403627 283.211090
vertex -228.218750 -3.403627 284.961090
endloop
endfacet
facet normal -0.000000 1.000000 0.000000
outer loop
vertex -224.218750 -3.403627 286.961090
vertex -224.218750 -3.403627 283.211090
vertex -228.218750 -3.403627 284.961090
endloop
endfacet
facet normal 0.000000 1.000000 0.000000
outer loop
vertex -224.218750 -3.403627 286.961090
vertex -228.218750 -3.403627 284.961090
vertex -226.218750 -3.403627 288.961090
endloop
endfacet
facet normal 0.000000 1.000000 0.000000
outer loop
vertex -224.286896 -3.403627 287.478729
vertex -224.218750 -3.403627 286.961090
vertex -226.218750 -3.403627 288.961090
endloop
endfacet
facet normal 0.000000 1.000000 0.000000
outer loop
vertex -229.451111 -3.403626 277.529236
vertex -229.968750 -3.403626 277.461090
vertex -230.486389 -3.403626 277.529236
endloop
endfacet
facet normal 0.000000 1.000000 0.000000
outer loop
vertex -229.451111 -3.403626 277.529236
vertex -230.486389 -3.403626 277.529236
vertex -230.968750 -3.403626 277.729034
endloop
endfacet
facet normal 0.000000 1.000000 0.000000
outer loop
vertex -228.968750 -3.403626 277.729034
vertex -229.451111 -3.403626 277.529236
vertex -230.968750 -3.403626 277.729034
endloop
endfacet
facet normal 0.000000 1.000000 -0.000002
outer loop
vertex -228.968750 -3.403626 277.729034
vertex -230.968750 -3.403626 277.729034
vertex -231.382965 -3.403626 278.046875
endloop
endfacet
facet normal 0.000000 1.000000 0.000002
outer loop
vertex -228.554535 -3.403626 278.046875
vertex -228.968750 -3.403626 277.729034
vertex -231.382965 -3.403626 278.046875
endloop
endfacet
facet normal 0.000000 1.000000 0.000001
outer loop
vertex -228.554535 -3.403626 278.046875
vertex -231.382965 -3.403626 278.046875
vertex -231.700806 -3.403626 278.461090
endloop
endfacet
facet normal 0.000000 1.000000 0.000000
outer loop
vertex -228.236710 -3.403626 278.461090
vertex -228.554535 -3.403626 278.046875
vertex -231.700806 -3.403626 278.461090
endloop
endfacet
facet normal 0.000000 1.000000 -0.000000
outer loop
vertex -228.236710 -3.403626 278.461090
vertex -231.700806 -3.403626 278.461090
vertex -231.900604 -3.403626 278.943451
endloop
endfacet
facet normal 0.000000 1.000000 0.000000
outer loop
vertex -228.036896 -3.403626 278.943451
vertex -228.236710 -3.403626 278.461090
vertex -231.900604 -3.403626 278.943451
endloop
endfacet
facet normal 0.000000 1.000000 0.000000
outer loop
vertex -230.486389 -3.403627 281.392944
vertex -229.968750 -3.403627 281.461090
vertex -229.451111 -3.403627 281.392944
endloop
endfacet
facet normal 0.000000 1.000000 -0.000001
outer loop
vertex -230.486389 -3.403627 281.392944
vertex -229.451111 -3.403627 281.392944
vertex -228.968750 -3.403627 281.193146
endloop
endfacet
facet normal 0.000000 1.000000 0.000000
outer loop
vertex -230.968750 -3.403627 281.193146
vertex -230.486389 -3.403627 281.392944
vertex -228.968750 -3.403627 281.193146
endloop
endfacet
facet normal 0.000000 1.000000 0.000000
outer loop
vertex -230.968750 -3.403627 281.193146
vertex -228.968750 -3.403627 281.193146
vertex -228.554535 -3.403627 280.875305
endloop
endfacet
facet normal 0.000000 1.000000 0.000000
outer loop
vertex -231.382965 -3.403627 280.875305
vertex -230.968750 -3.403627 281.193146
vertex -228.554535 -3.403627 280.875305
endloop
endfacet
facet normal 0.000000 1.000000 0.000000
outer loop
vertex -231.382965 -3.403627 280.875305
vertex -228.554535 -3.403627 280.875305
vertex -228.236710 -3.403627 280.461090
endloop
endfacet
facet normal 0.000000 1.000000 0.000000
outer loop
vertex -231.700806 -3.403627 280.461090
vertex -231.382965 -3.403627 280.875305
vertex -228.236710 -3.403627 280.461090
endloop
endfacet
facet normal 0.000000 1.000000 0.000001
outer loop
vertex -231.700806 -3.403627 280.461090
vertex -228.236710 -3.403627 280.461090
vertex -228.036896 -3.403627 279.978729
endloop
endfacet
facet normal 0.000000 1.000000 -0.000001
outer loop
vertex -231.900604 -3.403627 279.978729
vertex -231.700806 -3.403627 280.461090
vertex -228.036896 -3.403627 279.978729
endloop
endfacet
facet normal 0.000000 1.000000 0.000001
outer loop
vertex -231.900604 -3.403627 279.978729
vertex -228.036896 -3.403627 279.978729
vertex -227.968750 -3.403627 279.461090
endloop
endfacet
facet normal 0.000000 1.000000 0.000000
outer loop
vertex -231.968750 -3.403627 279.461090
vertex -231.900604 -3.403627 279.978729
vertex -227.968750 -3.403627 279.461090
endloop
endfacet
facet normal 0.000000 1.000000 0.000001
outer loop
vertex -231.968750 -3.403627 279.461090
vertex -227.968750 -3.403627 279.461090
vertex -228.036896 -3.403626 278.943451
endloop
endfacet
facet normal 0.000000 1.000000 -0.000001
outer loop
vertex -231.900604 -3.403626 278.943451
vertex -231.968750 -3.403627 279.461090
vertex -228.036896 -3.403626 278.943451
endloop
endfacet
facet normal 0.000000 1.000000 -0.000000
outer loop
vertex -231.986710 -3.403627 282.211090
vertex -235.450806 -3.403627 282.211090
vertex -235.650604 -3.403627 282.693451
endloop
endfacet
facet normal 0.000000 1.000000 0.000000
outer loop
vertex -233.201111 -3.403627 281.279236
vertex -233.718750 -3.403627 281.211090
vertex -234.236389 -3.403627 281.279236
endloop
endfacet
facet normal 0.000000 1.000000 0.000001
outer loop
vertex -233.201111 -3.403627 281.279236
vertex -234.236389 -3.403627 281.279236
vertex -234.718750 -3.403627 281.479034
endloop
endfacet
facet normal 0.000000 1.000000 0.000000
outer loop
vertex -232.718750 -3.403627 281.479034
vertex -233.201111 -3.403627 281.279236
vertex -234.718750 -3.403627 281.479034
endloop
endfacet
facet normal 0.000000 1.000000 -0.000000
outer loop
vertex -232.718750 -3.403627 281.479034
vertex -234.718750 -3.403627 281.479034
vertex -235.132965 -3.403627 281.796875
endloop
endfacet
facet normal 0.000000 1.000000 0.000000
outer loop
vertex -232.304535 -3.403627 281.796875
vertex -232.718750 -3.403627 281.479034
vertex -235.132965 -3.403627 281.796875
endloop
endfacet
facet normal 0.000000 1.000000 -0.000001
outer loop
vertex -232.304535 -3.403627 281.796875
vertex -235.132965 -3.403627 281.796875
vertex -235.450806 -3.403627 282.211090
endloop
endfacet
facet normal 0.000000 1.000000 0.000001
outer loop
vertex -231.986710 -3.403627 282.211090
vertex -232.304535 -3.403627 281.796875
vertex -235.450806 -3.403627 282.211090
endloop
endfacet
facet normal 1.000000 0.000000 0.000000
outer loop
vertex -227.968750 -1.670357 283.204376
vertex -227.968750 -1.670357 289.454376
vertex -227.968750 -2.970357 283.204376
endloop
endfacet
facet normal 1.000000 0.000000 0.000000
outer loop
vertex -227.968750 -2.970357 283.204376
vertex -227.968750 -1.670357 289.454376
vertex -227.968750 -2.970357 289.454376
endloop
endfacet
facet normal 0.991447 0.000000 0.130513
outer loop
vertex -227.968750 -2.970357 289.454376
vertex -227.968750 -1.670357 289.454376
vertex -228.036896 -2.970357 289.972015
endloop
endfacet
facet normal 0.991445 0.000000 0.130525
outer loop
vertex -228.036896 -2.970357 289.972015
vertex -227.968750 -1.670357 289.454376
vertex -228.036896 -1.670357 289.972015
endloop
endfacet
facet normal 0.923872 0.000000 0.382702
outer loop
vertex -228.036896 -2.970357 289.972015
vertex -228.036896 -1.670357 289.972015
vertex -228.236710 -2.970357 290.454376
endloop
endfacet
facet normal 0.923872 0.000000 0.382702
outer loop
vertex -228.236710 -2.970357 290.454376
vertex -228.036896 -1.670357 289.972015
vertex -228.236710 -1.670357 290.454376
endloop
endfacet
facet normal 0.793317 0.000000 0.608809
outer loop
vertex -228.236710 -2.970357 290.454376
vertex -228.236710 -1.670357 290.454376
vertex -228.554535 -2.970357 290.868561
endloop
endfacet
facet normal 0.793350 0.000000 0.608765
outer loop
vertex -228.554535 -2.970357 290.868561
vertex -228.236710 -1.670357 290.454376
vertex -228.554535 -1.670357 290.868561
endloop
endfacet
facet normal 0.608835 0.000000 0.793297
outer loop
vertex -228.554535 -2.970357 290.868561
vertex -228.554535 -1.670357 290.868561
vertex -228.968750 -2.970357 291.186432
endloop
endfacet
facet normal 0.608778 0.000000 0.793341
outer loop
vertex -228.968750 -2.970357 291.186432
vertex -228.554535 -1.670357 290.868561
vertex -228.968750 -1.670357 291.186432
endloop
endfacet
facet normal 0.382638 0.000000 0.923898
outer loop
vertex -228.968750 -2.970357 291.186432
vertex -228.968750 -1.670357 291.186432
vertex -229.451111 -2.970357 291.386200
endloop
endfacet
facet normal 0.382638 0.000000 0.923898
outer loop
vertex -229.451111 -2.970357 291.386200
vertex -228.968750 -1.670357 291.186432
vertex -229.451111 -1.670357 291.386200
endloop
endfacet
facet normal 0.130570 0.000000 0.991439
outer loop
vertex -229.451111 -2.970357 291.386200
vertex -229.451111 -1.670357 291.386200
vertex -229.968750 -2.970357 291.454376
endloop
endfacet
facet normal 0.130582 0.000000 0.991438
outer loop
vertex -229.968750 -2.970357 291.454376
vertex -229.451111 -1.670357 291.386200
vertex -229.968750 -1.670357 291.454376
endloop
endfacet
facet normal -0.130570 0.000000 0.991439
outer loop
vertex -229.968750 -2.970357 291.454376
vertex -229.968750 -1.670357 291.454376
vertex -230.486389 -2.970357 291.386200
endloop
endfacet
facet normal -0.130582 0.000000 0.991438
outer loop
vertex -230.486389 -2.970357 291.386200
vertex -229.968750 -1.670357 291.454376
vertex -230.486389 -1.670357 291.386200
endloop
endfacet
facet normal -0.382638 0.000000 0.923898
outer loop
vertex -230.486389 -2.970357 291.386200
vertex -230.486389 -1.670357 291.386200
vertex -230.968750 -2.970357 291.186432
endloop
endfacet
facet normal -0.382638 0.000000 0.923898
outer loop
vertex -230.968750 -2.970357 291.186432
vertex -230.486389 -1.670357 291.386200
vertex -230.968750 -1.670357 291.186432
endloop
endfacet
facet normal -0.608778 0.000000 0.793341
outer loop
vertex -230.968750 -2.970357 291.186432
vertex -230.968750 -1.670357 291.186432
vertex -231.382965 -2.970357 290.868561
endloop
endfacet
facet normal -0.608835 0.000000 0.793297
outer loop
vertex -231.382965 -2.970357 290.868561
vertex -230.968750 -1.670357 291.186432
vertex -231.382965 -1.670357 290.868561
endloop
endfacet
facet normal -0.793336 0.000000 0.608784
outer loop
vertex -231.382965 -2.970357 290.868561
vertex -231.382965 -1.670357 290.868561
vertex -231.700806 -2.970357 290.454376
endloop
endfacet
facet normal -0.793303 0.000000 0.608827
outer loop
vertex -231.700806 -2.970357 290.454376
vertex -231.382965 -1.670357 290.868561
vertex -231.700806 -1.670357 290.454376
endloop
endfacet
facet normal -0.923882 0.000000 0.382677
outer loop
vertex -231.700806 -2.970357 290.454376
vertex -231.700806 -1.670357 290.454376
vertex -231.900604 -2.970357 289.972015
endloop
endfacet
facet normal -0.923882 0.000000 0.382677
outer loop
vertex -231.900604 -2.970357 289.972015
vertex -231.700806 -1.670357 290.454376
vertex -231.900604 -1.670357 289.972015
endloop
endfacet
facet normal -0.991447 0.000000 0.130513
outer loop
vertex -231.900604 -2.970357 289.972015
vertex -231.900604 -1.670357 289.972015
vertex -231.968750 -2.970357 289.454376
endloop
endfacet
facet normal -0.991445 0.000000 0.130525
outer loop
vertex -231.968750 -2.970357 289.454376
vertex -231.900604 -1.670357 289.972015
vertex -231.968750 -1.670357 289.454376
endloop
endfacet
facet normal -1.000000 0.000000 0.000000
outer loop
vertex -231.968750 -1.670357 289.454376
vertex -231.968750 -1.670357 283.204376
vertex -231.968750 -2.970357 289.454376
endloop
endfacet
facet normal -1.000000 0.000000 0.000000
outer loop
vertex -231.968750 -2.970357 289.454376
vertex -231.968750 -1.670357 283.204376
vertex -231.968750 -2.970357 283.204376
endloop
endfacet
facet normal -0.991445 0.000000 -0.130525
outer loop
vertex -231.968750 -2.970357 283.204376
vertex -231.968750 -1.670357 283.204376
vertex -231.900604 -2.970357 282.686737
endloop
endfacet
facet normal -0.991447 0.000000 -0.130513
outer loop
vertex -231.900604 -2.970357 282.686737
vertex -231.968750 -1.670357 283.204376
vertex -231.900604 -1.670357 282.686737
endloop
endfacet
facet normal -0.923869 0.000000 -0.382709
outer loop
vertex -231.900604 -2.970357 282.686737
vertex -231.900604 -1.670357 282.686737
vertex -231.700806 -2.970357 282.204376
endloop
endfacet
facet normal -0.923882 0.000000 -0.382677
outer loop
vertex -231.700806 -2.970357 282.204376
vertex -231.900604 -1.670357 282.686737
vertex -231.700806 -1.670357 282.204376
endloop
endfacet
facet normal -0.793370 0.000000 -0.608740
outer loop
vertex -231.700806 -2.970357 282.204376
vertex -231.700806 -1.670357 282.204376
vertex -231.382965 -2.970357 281.790161
endloop
endfacet
facet normal -0.793336 0.000000 -0.608784
outer loop
vertex -231.382965 -2.970357 281.790161
vertex -231.700806 -1.670357 282.204376
vertex -231.382965 -1.670357 281.790161
endloop
endfacet
facet normal -0.608835 0.000000 -0.793297
outer loop
vertex -231.382965 -2.970357 281.790161
vertex -231.382965 -1.670357 281.790161
vertex -230.968750 -2.970357 281.472321
endloop
endfacet
facet normal -0.608722 0.000000 -0.793384
outer loop
vertex -230.968750 -2.970357 281.472321
vertex -231.382965 -1.670357 281.790161
vertex -230.968750 -1.670357 281.472321
endloop
endfacet
facet normal -0.382638 0.000000 -0.923898
outer loop
vertex -230.968750 -2.970357 281.472321
vertex -230.968750 -1.670357 281.472321
vertex -230.486389 -2.970357 281.272522
endloop
endfacet
facet normal -0.382715 0.000000 -0.923866
outer loop
vertex -230.486389 -2.970357 281.272522
vertex -230.968750 -1.670357 281.472321
vertex -230.486389 -1.670357 281.272522
endloop
endfacet
facet normal -0.130481 0.000000 -0.991451
outer loop
vertex -230.486389 -2.970357 281.272522
vertex -230.486389 -1.670357 281.272522
vertex -229.968750 -2.970357 281.204376
endloop
endfacet
facet normal -0.130570 0.000000 -0.991439
outer loop
vertex -229.968750 -2.970357 281.204376
vertex -230.486389 -1.670357 281.272522
vertex -229.968750 -1.670357 281.204376
endloop
endfacet
facet normal 0.130570 0.000000 -0.991439
outer loop
vertex -229.968750 -2.970357 281.204376
vertex -229.968750 -1.670357 281.204376
vertex -229.451111 -2.970357 281.272522
endloop
endfacet
facet normal 0.130481 0.000000 -0.991451
outer loop
vertex -229.451111 -2.970357 281.272522
vertex -229.968750 -1.670357 281.204376
vertex -229.451111 -1.670357 281.272522
endloop
endfacet
facet normal 0.382715 0.000000 -0.923866
outer loop
vertex -229.451111 -2.970357 281.272522
vertex -229.451111 -1.670357 281.272522
vertex -228.968750 -2.970357 281.472321
endloop
endfacet
facet normal 0.382638 0.000000 -0.923898
outer loop
vertex -228.968750 -2.970357 281.472321
vertex -229.451111 -1.670357 281.272522
vertex -228.968750 -1.670357 281.472321
endloop
endfacet
facet normal 0.608721 0.000000 -0.793384
outer loop
vertex -228.968750 -2.970357 281.472321
vertex -228.968750 -1.670357 281.472321
vertex -228.554535 -2.970357 281.790161
endloop
endfacet
facet normal 0.608835 0.000000 -0.793297
outer loop
vertex -228.554535 -2.970357 281.790161
vertex -228.968750 -1.670357 281.472321
vertex -228.554535 -1.670357 281.790161
endloop
endfacet
facet normal 0.793350 0.000000 -0.608765
outer loop
vertex -228.554535 -2.970357 281.790161
vertex -228.554535 -1.670357 281.790161
vertex -228.236710 -2.970357 282.204376
endloop
endfacet
facet normal 0.793384 0.000000 -0.608722
outer loop
vertex -228.236710 -2.970357 282.204376
vertex -228.554535 -1.670357 281.790161
vertex -228.236710 -1.670357 282.204376
endloop
endfacet
facet normal 0.923872 0.000000 -0.382702
outer loop
vertex -228.236710 -2.970357 282.204376
vertex -228.236710 -1.670357 282.204376
vertex -228.036896 -2.970357 282.686737
endloop
endfacet
facet normal 0.923859 0.000000 -0.382734
outer loop
vertex -228.036896 -2.970357 282.686737
vertex -228.236710 -1.670357 282.204376
vertex -228.036896 -1.670357 282.686737
endloop
endfacet
facet normal 0.991447 0.000000 -0.130513
outer loop
vertex -228.036896 -2.970357 282.686737
vertex -228.036896 -1.670357 282.686737
vertex -227.968750 -2.970357 283.204376
endloop
endfacet
facet normal 0.991445 0.000000 -0.130525
outer loop
vertex -227.968750 -2.970357 283.204376
vertex -228.036896 -1.670357 282.686737
vertex -227.968750 -1.670357 283.204376
endloop
endfacet
facet normal 0.000000 -1.000000 0.000000
outer loop
vertex -231.900604 -2.970357 282.686737
vertex -231.700806 -2.970357 282.204376
vertex -231.968750 -2.970357 283.204376
endloop
endfacet
facet normal 0.000000 -1.000000 0.000001
outer loop
vertex -231.968750 -2.970357 283.204376
vertex -231.700806 -2.970357 282.204376
vertex -231.382965 -2.970357 281.790161
endloop
endfacet
facet normal 0.000000 -1.000000 0.000000
outer loop
vertex -231.968750 -2.970357 283.204376
vertex -231.382965 -2.970357 281.790161
vertex -230.968750 -2.970357 281.472321
endloop
endfacet
facet normal -0.000000 -1.000000 -0.000000
outer loop
vertex -230.486389 -2.970357 281.272522
vertex -230.486389 -2.970357 291.386200
vertex -230.968750 -2.970357 281.472321
endloop
endfacet
facet normal 0.000000 -1.000000 -0.000000
outer loop
vertex -230.968750 -2.970357 281.472321
vertex -230.486389 -2.970357 291.386200
vertex -230.968750 -2.970357 291.186432
endloop
endfacet
facet normal -0.000000 -1.000000 -0.000000
outer loop
vertex -230.968750 -2.970357 281.472321
vertex -230.968750 -2.970357 291.186432
vertex -231.968750 -2.970357 283.204376
endloop
endfacet
facet normal -0.000000 -1.000000 -0.000000
outer loop
vertex -231.968750 -2.970357 283.204376
vertex -230.968750 -2.970357 291.186432
vertex -231.968750 -2.970357 289.454376
endloop
endfacet
facet normal 0.000000 -1.000000 0.000000
outer loop
vertex -231.968750 -2.970357 289.454376
vertex -230.968750 -2.970357 291.186432
vertex -231.382965 -2.970357 290.868561
endloop
endfacet
facet normal 0.000000 -1.000000 0.000000
outer loop
vertex -231.968750 -2.970357 289.454376
vertex -231.382965 -2.970357 290.868561
vertex -231.700806 -2.970357 290.454376
endloop
endfacet
facet normal 0.000000 -1.000000 -0.000000
outer loop
vertex -230.486389 -2.970357 291.386200
vertex -230.486389 -2.970357 281.272522
vertex -229.968750 -2.970357 291.454376
endloop
endfacet
facet normal -0.000000 -1.000000 -0.000000
outer loop
vertex -229.968750 -2.970357 291.454376
vertex -230.486389 -2.970357 281.272522
vertex -229.968750 -2.970357 281.204376
endloop
endfacet
facet normal 0.000000 -1.000000 -0.000000
outer loop
vertex -229.968750 -2.970357 291.454376
vertex -229.968750 -2.970357 281.204376
vertex -229.451111 -2.970357 281.272522
endloop
endfacet
facet normal -0.000000 -1.000000 -0.000000
outer loop
vertex -229.968750 -2.970357 291.454376
vertex -229.451111 -2.970357 281.272522
vertex -229.451111 -2.970357 291.386200
endloop
endfacet
facet normal 0.000000 -1.000000 -0.000000
outer loop
vertex -229.451111 -2.970357 291.386200
vertex -229.451111 -2.970357 281.272522
vertex -228.968750 -2.970357 281.472321
endloop
endfacet
facet normal -0.000000 -1.000000 -0.000000
outer loop
vertex -229.451111 -2.970357 291.386200
vertex -228.968750 -2.970357 281.472321
vertex -228.968750 -2.970357 291.186432
endloop
endfacet
facet normal 0.000000 -1.000000 -0.000000
outer loop
vertex -228.968750 -2.970357 291.186432
vertex -228.968750 -2.970357 281.472321
vertex -227.968750 -2.970357 283.204376
endloop
endfacet
facet normal 0.000000 -1.000000 -0.000000
outer loop
vertex -228.968750 -2.970357 291.186432
vertex -227.968750 -2.970357 283.204376
vertex -227.968750 -2.970357 289.454376
endloop
endfacet
facet normal 0.000000 -1.000000 0.000000
outer loop
vertex -228.968750 -2.970357 281.472321
vertex -228.554535 -2.970357 281.790161
vertex -227.968750 -2.970357 283.204376
endloop
endfacet
facet normal 0.000000 -1.000000 0.000001
outer loop
vertex -227.968750 -2.970357 283.204376
vertex -228.554535 -2.970357 281.790161
vertex -228.236710 -2.970357 282.204376
endloop
endfacet
facet normal 0.000000 -1.000000 0.000000
outer loop
vertex -227.968750 -2.970357 283.204376
vertex -228.236710 -2.970357 282.204376
vertex -228.036896 -2.970357 282.686737
endloop
endfacet
facet normal -0.000002 -1.000000 -0.000002
outer loop
vertex -228.036896 -2.970357 289.972015
vertex -228.236710 -2.970357 290.454376
vertex -227.968750 -2.970357 289.454376
endloop
endfacet
facet normal -0.000000 -1.000000 0.000001
outer loop
vertex -227.968750 -2.970357 289.454376
vertex -228.236710 -2.970357 290.454376
vertex -228.554535 -2.970357 290.868561
endloop
endfacet
facet normal -0.000000 -1.000000 0.000000
outer loop
vertex -227.968750 -2.970357 289.454376
vertex -228.554535 -2.970357 290.868561
vertex -228.968750 -2.970357 291.186432
endloop
endfacet
facet normal 0.000002 -1.000000 0.000000
outer loop
vertex -231.700806 -2.970357 290.454376
vertex -231.900604 -2.970357 289.972015
vertex -231.968750 -2.970357 289.454376
endloop
endfacet
facet normal -0.196116 0.000000 -0.980581
outer loop
vertex -229.968750 -1.670357 296.537689
vertex -219.968750 -1.670357 294.537689
vertex -229.968750 -4.670357 296.537689
endloop
endfacet
facet normal -0.196116 0.000000 -0.980581
outer loop
vertex -229.968750 -4.670357 296.537689
vertex -219.968750 -1.670357 294.537689
vertex -219.968750 -4.670357 294.537689
endloop
endfacet
facet normal -0.995229 0.000000 -0.097571
outer loop
vertex -219.968750 -1.670357 294.537689
vertex -217.468750 -1.670356 269.037689
vertex -219.968750 -4.670357 294.537689
endloop
endfacet
facet normal -0.995229 0.000000 -0.097571
outer loop
vertex -219.968750 -4.670357 294.537689
vertex -217.468750 -1.670356 269.037689
vertex -217.468750 -4.670356 269.037689
endloop
endfacet
facet normal 0.000000 0.000000 1.000000
outer loop
vertex -217.468750 -1.670356 269.037689
vertex -242.468750 -1.670356 269.037689
vertex -217.468750 -4.670356 269.037689
endloop
endfacet
facet normal 0.000000 0.000000 1.000000
outer loop
vertex -217.468750 -4.670356 269.037689
vertex -242.468750 -1.670356 269.037689
vertex -242.468750 -4.670356 269.037689
endloop
endfacet
facet normal 0.995229 0.000000 -0.097571
outer loop
vertex -242.468750 -1.670356 269.037689
vertex -239.968750 -1.670357 294.537689
vertex -242.468750 -4.670356 269.037689
endloop
endfacet
facet normal 0.995229 0.000000 -0.097571
outer loop
vertex -242.468750 -4.670356 269.037689
vertex -239.968750 -1.670357 294.537689
vertex -239.968750 -4.670357 294.537689
endloop
endfacet
facet normal 0.196116 0.000000 -0.980581
outer loop
vertex -239.968750 -1.670357 294.537689
vertex -229.968750 -1.670357 296.537689
vertex -239.968750 -4.670357 294.537689
endloop
endfacet
facet normal 0.196116 0.000000 -0.980581
outer loop
vertex -239.968750 -4.670357 294.537689
vertex -229.968750 -1.670357 296.537689
vertex -229.968750 -4.670357 296.537689
endloop
endfacet
facet normal -0.000000 -1.000000 0.000000
outer loop
vertex -228.036896 -1.670357 289.972015
vertex -227.968750 -1.670357 289.454376
vertex -219.968750 -1.670357 294.537689
endloop
endfacet
facet normal 0.000000 -1.000000 -0.000000
outer loop
vertex -219.968750 -1.670357 294.537689
vertex -227.968750 -1.670357 289.454376
vertex -227.968750 -1.670357 283.204376
endloop
endfacet
facet normal -0.000000 -1.000000 -0.000000
outer loop
vertex -219.968750 -1.670357 294.537689
vertex -227.968750 -1.670357 283.204376
vertex -217.468750 -1.670356 269.037689
endloop
endfacet
facet normal 0.000000 -1.000000 -0.000000
outer loop
vertex -217.468750 -1.670356 269.037689
vertex -227.968750 -1.670357 283.204376
vertex -228.036896 -1.670357 282.686737
endloop
endfacet
facet normal 0.000000 -1.000000 0.000000
outer loop
vertex -217.468750 -1.670356 269.037689
vertex -228.036896 -1.670357 282.686737
vertex -228.236710 -1.670357 282.204376
endloop
endfacet
facet normal 0.000000 -1.000000 0.000000
outer loop
vertex -228.236710 -1.670357 282.204376
vertex -228.554535 -1.670357 281.790161
vertex -217.468750 -1.670356 269.037689
endloop
endfacet
facet normal 0.000000 -1.000000 -0.000000
outer loop
vertex -217.468750 -1.670356 269.037689
vertex -228.554535 -1.670357 281.790161
vertex -228.968750 -1.670357 281.472321
endloop
endfacet
facet normal 0.000000 -1.000000 -0.000000
outer loop
vertex -217.468750 -1.670356 269.037689
vertex -228.968750 -1.670357 281.472321
vertex -229.451111 -1.670357 281.272522
endloop
endfacet
facet normal 0.000000 -1.000000 0.000000
outer loop
vertex -229.451111 -1.670357 281.272522
vertex -229.968750 -1.670357 281.204376
vertex -217.468750 -1.670356 269.037689
endloop
endfacet
facet normal 0.000000 -1.000000 -0.000000
outer loop
vertex -217.468750 -1.670356 269.037689
vertex -229.968750 -1.670357 281.204376
vertex -242.468750 -1.670356 269.037689
endloop
endfacet
facet normal -0.000000 -1.000000 -0.000000
outer loop
vertex -242.468750 -1.670356 269.037689
vertex -229.968750 -1.670357 281.204376
vertex -230.486389 -1.670357 281.272522
endloop
endfacet
facet normal -0.000000 -1.000000 -0.000000
outer loop
vertex -242.468750 -1.670356 269.037689
vertex -230.486389 -1.670357 281.272522
vertex -230.968750 -1.670357 281.472321
endloop
endfacet
facet normal -0.000000 -1.000000 0.000000
outer loop
vertex -230.968750 -1.670357 281.472321
vertex -231.382965 -1.670357 281.790161
vertex -242.468750 -1.670356 269.037689
endloop
endfacet
facet normal -0.000000 -1.000000 0.000000
outer loop
vertex -242.468750 -1.670356 269.037689
vertex -231.382965 -1.670357 281.790161
vertex -231.700806 -1.670357 282.204376
endloop
endfacet
facet normal -0.000000 -1.000000 -0.000000
outer loop
vertex -242.468750 -1.670356 269.037689
vertex -231.700806 -1.670357 282.204376
vertex -231.900604 -1.670357 282.686737
endloop
endfacet
facet normal -0.000000 -1.000000 -0.000001
outer loop
vertex -231.900604 -1.670357 282.686737
vertex -231.968750 -1.670357 283.204376
vertex -242.468750 -1.670356 269.037689
endloop
endfacet
facet normal 0.000000 -1.000000 -0.000000
outer loop
vertex -242.468750 -1.670356 269.037689
vertex -231.968750 -1.670357 283.204376
vertex -239.968750 -1.670357 294.537689
endloop
endfacet
facet normal -0.000000 -1.000000 -0.000000
outer loop
vertex -239.968750 -1.670357 294.537689
vertex -231.968750 -1.670357 283.204376
vertex -231.968750 -1.670357 289.454376
endloop
endfacet
facet normal 0.000000 -1.000000 0.000000
outer loop
vertex -239.968750 -1.670357 294.537689
vertex -231.968750 -1.670357 289.454376
vertex -231.900604 -1.670357 289.972015
endloop
endfacet
facet normal 0.000000 -1.000000 0.000000
outer loop
vertex -231.900604 -1.670357 289.972015
vertex -231.700806 -1.670357 290.454376
vertex -239.968750 -1.670357 294.537689
endloop
endfacet
facet normal 0.000000 -1.000000 0.000000
outer loop
vertex -239.968750 -1.670357 294.537689
vertex -231.700806 -1.670357 290.454376
vertex -231.382965 -1.670357 290.868561
endloop
endfacet
facet normal 0.000000 -1.000000 -0.000000
outer loop
vertex -239.968750 -1.670357 294.537689
vertex -231.382965 -1.670357 290.868561
vertex -229.968750 -1.670357 296.537689
endloop
endfacet
facet normal 0.000000 -1.000000 0.000000
outer loop
vertex -229.968750 -1.670357 296.537689
vertex -231.382965 -1.670357 290.868561
vertex -230.968750 -1.670357 291.186432
endloop
endfacet
facet normal 0.000000 -1.000000 -0.000000
outer loop
vertex -229.968750 -1.670357 296.537689
vertex -230.968750 -1.670357 291.186432
vertex -230.486389 -1.670357 291.386200
endloop
endfacet
facet normal -0.000000 -1.000000 0.000000
outer loop
vertex -230.486389 -1.670357 291.386200
vertex -229.968750 -1.670357 291.454376
vertex -229.968750 -1.670357 296.537689
endloop
endfacet
facet normal 0.000000 -1.000000 0.000000
outer loop
vertex -229.968750 -1.670357 296.537689
vertex -229.968750 -1.670357 291.454376
vertex -229.451111 -1.670357 291.386200
endloop
endfacet
facet normal -0.000000 -1.000000 -0.000000
outer loop
vertex -229.968750 -1.670357 296.537689
vertex -229.451111 -1.670357 291.386200
vertex -228.968750 -1.670357 291.186432
endloop
endfacet
facet normal -0.000000 -1.000000 0.000000
outer loop
vertex -228.968750 -1.670357 291.186432
vertex -228.554535 -1.670357 290.868561
vertex -229.968750 -1.670357 296.537689
endloop
endfacet
facet normal -0.000000 -1.000000 -0.000000
outer loop
vertex -229.968750 -1.670357 296.537689
vertex -228.554535 -1.670357 290.868561
vertex -219.968750 -1.670357 294.537689
endloop
endfacet
facet normal -0.000000 -1.000000 -0.000000
outer loop
vertex -219.968750 -1.670357 294.537689
vertex -228.554535 -1.670357 290.868561
vertex -228.236710 -1.670357 290.454376
endloop
endfacet
facet normal -0.000000 -1.000000 0.000000
outer loop
vertex -219.968750 -1.670357 294.537689
vertex -228.236710 -1.670357 290.454376
vertex -228.036896 -1.670357 289.972015
endloop
endfacet
facet normal 0.000000 1.000000 0.000000
outer loop
vertex -239.968750 -4.670357 294.537689
vertex -229.968750 -4.670357 296.537689
vertex -233.412659 -4.670357 288.961090
endloop
endfacet
facet normal 0.000000 1.000000 -0.000002
outer loop
vertex -239.968750 -4.670357 294.537689
vertex -233.412659 -4.670357 288.961090
vertex -233.718750 -4.670357 288.961090
endloop
endfacet
facet normal -0.000000 1.000000 0.000000
outer loop
vertex -235.718750 -4.670357 283.887695
vertex -242.468750 -4.670356 269.037689
vertex -239.968750 -4.670357 294.537689
endloop
endfacet
facet normal -0.000000 1.000000 0.000000
outer loop
vertex -235.718750 -4.670357 286.961090
vertex -235.718750 -4.670357 283.887695
vertex -239.968750 -4.670357 294.537689
endloop
endfacet
facet normal 0.000000 1.000000 0.000000
outer loop
vertex -239.968750 -4.670357 294.537689
vertex -233.718750 -4.670357 288.961090
vertex -234.236389 -4.670357 288.892944
endloop
endfacet
facet normal 0.000001 1.000000 0.000001
outer loop
vertex -239.968750 -4.670357 294.537689
vertex -234.236389 -4.670357 288.892944
vertex -234.718750 -4.670357 288.693146
endloop
endfacet
facet normal -0.000000 1.000000 0.000001
outer loop
vertex -235.650604 -4.670357 287.478729
vertex -235.718750 -4.670357 286.961090
vertex -239.968750 -4.670357 294.537689
endloop
endfacet
facet normal -0.000000 1.000000 0.000000
outer loop
vertex -235.450806 -4.670357 287.961090
vertex -235.650604 -4.670357 287.478729
vertex -239.968750 -4.670357 294.537689
endloop
endfacet
facet normal -0.000000 1.000000 -0.000000
outer loop
vertex -239.968750 -4.670357 294.537689
vertex -234.718750 -4.670357 288.693146
vertex -235.132965 -4.670357 288.375305
endloop
endfacet
facet normal -0.000000 1.000000 -0.000000
outer loop
vertex -239.968750 -4.670357 294.537689
vertex -235.132965 -4.670357 288.375305
vertex -235.450806 -4.670357 287.961090
endloop
endfacet
facet normal 0.000000 1.000000 0.000000
outer loop
vertex -242.468750 -4.670356 269.037689
vertex -235.718750 -4.670357 283.887695
vertex -235.718750 -4.670357 283.211090
endloop
endfacet
facet normal 0.000000 1.000000 -0.000000
outer loop
vertex -242.468750 -4.670356 269.037689
vertex -235.718750 -4.670357 283.211090
vertex -235.650604 -4.670357 282.693451
endloop
endfacet
facet normal -0.000000 1.000000 0.000000
outer loop
vertex -224.218735 -4.670357 283.211090
vertex -224.218750 -4.670357 283.887695
vertex -217.468750 -4.670356 269.037689
endloop
endfacet
facet normal -0.000000 1.000000 0.000000
outer loop
vertex -224.286896 -4.670357 282.693451
vertex -224.218735 -4.670357 283.211090
vertex -217.468750 -4.670356 269.037689
endloop
endfacet
facet normal 0.000000 1.000000 0.000001
outer loop
vertex -242.468750 -4.670356 269.037689
vertex -235.650604 -4.670357 282.693451
vertex -235.450806 -4.670357 282.211090
endloop
endfacet
facet normal 0.000000 1.000000 0.000000
outer loop
vertex -242.468750 -4.670356 269.037689
vertex -235.450806 -4.670357 282.211090
vertex -235.132965 -4.670357 281.796875
endloop
endfacet
facet normal -0.000000 1.000000 0.000001
outer loop
vertex -224.486710 -4.670357 282.211090
vertex -224.286896 -4.670357 282.693451
vertex -217.468750 -4.670356 269.037689
endloop
endfacet
facet normal -0.000000 1.000000 0.000000
outer loop
vertex -224.804535 -4.670357 281.796875
vertex -224.486710 -4.670357 282.211090
vertex -217.468750 -4.670356 269.037689
endloop
endfacet
facet normal 0.000000 1.000000 -0.000001
outer loop
vertex -242.468750 -4.670356 269.037689
vertex -235.132965 -4.670357 281.796875
vertex -234.718750 -4.670357 281.479034
endloop
endfacet
facet normal 0.000000 1.000000 0.000000
outer loop
vertex -242.468750 -4.670356 269.037689
vertex -234.718750 -4.670357 281.479034
vertex -234.236389 -4.670357 281.279236
endloop
endfacet
facet normal -0.000000 1.000000 -0.000001
outer loop
vertex -225.218735 -4.670357 281.479034
vertex -224.804535 -4.670357 281.796875
vertex -217.468750 -4.670356 269.037689
endloop
endfacet
facet normal -0.000000 1.000000 0.000000
outer loop
vertex -225.701111 -4.670357 281.279236
vertex -225.218735 -4.670357 281.479034
vertex -217.468750 -4.670356 269.037689
endloop
endfacet
facet normal 0.000000 1.000000 -0.000000
outer loop
vertex -242.468750 -4.670356 269.037689
vertex -234.236389 -4.670357 281.279236
vertex -233.718750 -4.670357 281.211090
endloop
endfacet
facet normal 0.000000 1.000000 0.000001
outer loop
vertex -233.718750 -4.670357 281.211090
vertex -233.201096 -4.670357 281.279236
vertex -231.968750 -4.670357 279.461090
endloop
endfacet
facet normal 0.000000 1.000000 0.000000
outer loop
vertex -233.718750 -4.670357 281.211090
vertex -231.968750 -4.670357 279.461090
vertex -231.900604 -4.670357 278.943451
endloop
endfacet
facet normal -0.000000 1.000000 0.000000
outer loop
vertex -226.218750 -4.670357 281.211090
vertex -225.701111 -4.670357 281.279236
vertex -217.468750 -4.670356 269.037689
endloop
endfacet
facet normal 0.000000 1.000000 0.000001
outer loop
vertex -227.968750 -4.670357 279.461090
vertex -226.515884 -4.670357 281.250183
vertex -226.218750 -4.670357 281.211090
endloop
endfacet
facet normal 0.000000 1.000000 0.000000
outer loop
vertex -228.036896 -4.670357 278.943451
vertex -227.968750 -4.670357 279.461090
vertex -226.218750 -4.670357 281.211090
endloop
endfacet
facet normal 0.000000 1.000000 0.000000
outer loop
vertex -242.468750 -4.670356 269.037689
vertex -233.718750 -4.670357 281.211090
vertex -231.900604 -4.670357 278.943451
endloop
endfacet
facet normal 0.000000 1.000000 -0.000000
outer loop
vertex -242.468750 -4.670356 269.037689
vertex -231.900604 -4.670357 278.943451
vertex -231.700806 -4.670357 278.461090
endloop
endfacet
facet normal -0.000000 1.000000 0.000000
outer loop
vertex -228.036896 -4.670357 278.943451
vertex -226.218750 -4.670357 281.211090
vertex -217.468750 -4.670356 269.037689
endloop
endfacet
facet normal -0.000000 1.000000 0.000000
outer loop
vertex -228.236694 -4.670357 278.461090
vertex -228.036896 -4.670357 278.943451
vertex -217.468750 -4.670356 269.037689
endloop
endfacet
facet normal 0.000000 1.000000 0.000000
outer loop
vertex -242.468750 -4.670356 269.037689
vertex -231.700806 -4.670357 278.461090
vertex -231.382965 -4.670357 278.046875
endloop
endfacet
facet normal 0.000000 1.000000 0.000000
outer loop
vertex -242.468750 -4.670356 269.037689
vertex -231.382965 -4.670357 278.046875
vertex -230.968750 -4.670357 277.729034
endloop
endfacet
facet normal -0.000000 1.000000 0.000000
outer loop
vertex -228.554535 -4.670357 278.046875
vertex -228.236694 -4.670357 278.461090
vertex -217.468750 -4.670356 269.037689
endloop
endfacet
facet normal -0.000000 1.000000 0.000000
outer loop
vertex -228.968750 -4.670357 277.729034
vertex -228.554535 -4.670357 278.046875
vertex -217.468750 -4.670356 269.037689
endloop
endfacet
facet normal 0.000000 1.000000 0.000000
outer loop
vertex -217.468750 -4.670356 269.037689
vertex -242.468750 -4.670356 269.037689
vertex -230.968750 -4.670357 277.729034
endloop
endfacet
facet normal 0.000000 1.000000 0.000001
outer loop
vertex -217.468750 -4.670356 269.037689
vertex -230.968750 -4.670357 277.729034
vertex -230.486389 -4.670357 277.529236
endloop
endfacet
facet normal -0.000000 1.000000 0.000000
outer loop
vertex -229.451111 -4.670357 277.529236
vertex -228.968750 -4.670357 277.729034
vertex -217.468750 -4.670356 269.037689
endloop
endfacet
facet normal 0.000000 1.000000 -0.000001
outer loop
vertex -217.468750 -4.670356 269.037689
vertex -230.486389 -4.670357 277.529236
vertex -229.968750 -4.670357 277.461090
endloop
endfacet
facet normal -0.000000 1.000000 0.000000
outer loop
vertex -229.968750 -4.670357 277.461090
vertex -229.451111 -4.670357 277.529236
vertex -217.468750 -4.670356 269.037689
endloop
endfacet
facet normal 0.000000 1.000000 0.000000
outer loop
vertex -219.968750 -4.670357 294.537689
vertex -217.468750 -4.670356 269.037689
vertex -224.218750 -4.670357 283.887695
endloop
endfacet
facet normal 0.000000 1.000000 0.000000
outer loop
vertex -219.968750 -4.670357 294.537689
vertex -224.218750 -4.670357 283.887695
vertex -224.218750 -4.670357 286.961090
endloop
endfacet
facet normal 0.000000 1.000000 0.000000
outer loop
vertex -226.524841 -4.670357 288.961090
vertex -229.968750 -4.670357 296.537689
vertex -219.968750 -4.670357 294.537689
endloop
endfacet
facet normal 0.000000 1.000000 -0.000002
outer loop
vertex -226.218750 -4.670357 288.961090
vertex -226.524841 -4.670357 288.961090
vertex -219.968750 -4.670357 294.537689
endloop
endfacet
facet normal 0.000000 1.000000 0.000001
outer loop
vertex -219.968750 -4.670357 294.537689
vertex -224.218750 -4.670357 286.961090
vertex -224.286896 -4.670357 287.478729
endloop
endfacet
facet normal 0.000000 1.000000 -0.000001
outer loop
vertex -219.968750 -4.670357 294.537689
vertex -224.286896 -4.670357 287.478729
vertex -224.486710 -4.670357 287.961090
endloop
endfacet
facet normal 0.000000 1.000000 0.000000
outer loop
vertex -225.701111 -4.670357 288.892944
vertex -226.218750 -4.670357 288.961090
vertex -219.968750 -4.670357 294.537689
endloop
endfacet
facet normal -0.000001 1.000000 0.000001
outer loop
vertex -225.218750 -4.670357 288.693146
vertex -225.701111 -4.670357 288.892944
vertex -219.968750 -4.670357 294.537689
endloop
endfacet
facet normal 0.000000 1.000000 0.000000
outer loop
vertex -219.968750 -4.670357 294.537689
vertex -224.486710 -4.670357 287.961090
vertex -224.804535 -4.670357 288.375305
endloop
endfacet
facet normal 0.000000 1.000000 0.000000
outer loop
vertex -224.804535 -4.670357 288.375305
vertex -225.218750 -4.670357 288.693146
vertex -219.968750 -4.670357 294.537689
endloop
endfacet
facet normal 0.608735 0.000000 -0.793373
outer loop
vertex -232.718750 -4.670357 281.479034
vertex -232.718750 -3.403627 281.479034
vertex -232.304535 -3.403627 281.796875
endloop
endfacet
facet normal 0.608793 0.000000 -0.793329
outer loop
vertex -232.718750 -4.670357 281.479034
vertex -232.304535 -3.403627 281.796875
vertex -232.304535 -4.670357 281.796875
endloop
endfacet
facet normal 0.923871 0.000000 0.382704
outer loop
vertex -228.036896 -4.670357 279.978729
vertex -228.036896 -3.403627 279.978729
vertex -228.236710 -3.403627 280.461090
endloop
endfacet
facet normal 0.923881 0.000023 0.382679
outer loop
vertex -228.036896 -4.670357 279.978729
vertex -228.236710 -3.403627 280.461090
vertex -228.236694 -4.670357 280.461090
endloop
endfacet
facet normal -0.991445 0.000000 0.130523
outer loop
vertex -235.650604 -4.670357 287.478729
vertex -235.650604 -3.403627 287.478729
vertex -235.718750 -3.403627 286.961090
endloop
endfacet
facet normal -0.991445 0.000000 0.130523
outer loop
vertex -235.650604 -4.670357 287.478729
vertex -235.718750 -3.403627 286.961090
vertex -235.718750 -4.670357 286.961090
endloop
endfacet
facet normal 0.923871 0.000000 -0.382704
outer loop
vertex -224.486710 -4.670357 282.211090
vertex -224.486710 -3.403627 282.211090
vertex -224.286896 -3.403627 282.693451
endloop
endfacet
facet normal 0.923871 0.000000 -0.382704
outer loop
vertex -224.486710 -4.670357 282.211090
vertex -224.286896 -3.403627 282.693451
vertex -224.286896 -4.670357 282.693451
endloop
endfacet
facet normal -0.793363 0.000000 -0.608749
outer loop
vertex -231.700806 -4.670357 278.461090
vertex -231.700806 -3.403626 278.461090
vertex -231.382965 -3.403626 278.046875
endloop
endfacet
facet normal -0.793328 0.000000 -0.608794
outer loop
vertex -231.700806 -4.670357 278.461090
vertex -231.382965 -3.403626 278.046875
vertex -231.382965 -4.670357 278.046875
endloop
endfacet
facet normal 1.000000 0.000000 0.000000
outer loop
vertex -231.718750 -4.670357 283.211090
vertex -231.718750 -3.403627 283.211090
vertex -231.718750 -3.403627 284.961090
endloop
endfacet
facet normal 1.000000 0.000000 0.000000
outer loop
vertex -231.718750 -4.670357 283.211090
vertex -231.718750 -3.403627 284.961090
vertex -231.718750 -4.670357 284.961090
endloop
endfacet
facet normal -1.000000 0.000000 0.000000
outer loop
vertex -228.218750 -4.670357 284.961090
vertex -228.218750 -3.403627 284.961090
vertex -228.218750 -3.403627 283.211090
endloop
endfacet
facet normal -1.000000 0.000000 0.000000
outer loop
vertex -228.218750 -4.670357 284.961090
vertex -228.218750 -3.403627 283.211090
vertex -228.218750 -4.670357 283.211090
endloop
endfacet
facet normal 0.991445 0.000000 0.130523
outer loop
vertex -224.218750 -4.670357 286.961090
vertex -224.218750 -3.403627 286.961090
vertex -224.286896 -3.403627 287.478729
endloop
endfacet
facet normal 0.991445 0.000000 0.130523
outer loop
vertex -224.218750 -4.670357 286.961090
vertex -224.286896 -3.403627 287.478729
vertex -224.286896 -4.670357 287.478729
endloop
endfacet
facet normal -0.608677 0.000000 0.793418
outer loop
vertex -230.968750 -4.670357 281.193146
vertex -230.968750 -3.403627 281.193146
vertex -231.382965 -3.403627 280.875305
endloop
endfacet
facet normal -0.608851 0.000000 0.793285
outer loop
vertex -230.968750 -4.670357 281.193146
vertex -231.382965 -3.403627 280.875305
vertex -231.382965 -4.670357 280.875305
endloop
endfacet
facet normal 0.793343 0.000000 -0.608775
outer loop
vertex -228.554535 -4.670357 278.046875
vertex -228.554535 -3.403626 278.046875
vertex -228.236710 -3.403626 278.461090
endloop
endfacet
facet normal 0.793363 0.000023 -0.608749
outer loop
vertex -228.554535 -4.670357 278.046875
vertex -228.236710 -3.403626 278.461090
vertex -228.236694 -4.670357 278.461090
endloop
endfacet
facet normal 0.793343 0.000000 -0.608775
outer loop
vertex -224.804535 -4.670357 281.796875
vertex -224.804535 -3.403627 281.796875
vertex -224.486710 -3.403627 282.211090
endloop
endfacet
facet normal 0.793377 0.000000 -0.608731
outer loop
vertex -224.804535 -4.670357 281.796875
vertex -224.486710 -3.403627 282.211090
vertex -224.486710 -4.670357 282.211090
endloop
endfacet
facet normal 0.382709 0.000000 -0.923869
outer loop
vertex -233.201096 -4.670357 281.279236
vertex -233.201111 -3.403627 281.279236
vertex -232.718750 -3.403627 281.479034
endloop
endfacet
facet normal 0.382640 0.000000 -0.923897
outer loop
vertex -233.201096 -4.670357 281.279236
vertex -232.718750 -3.403627 281.479034
vertex -232.718750 -4.670357 281.479034
endloop
endfacet
facet normal -0.608793 0.000000 -0.793329
outer loop
vertex -235.132965 -4.670357 281.796875
vertex -235.132965 -3.403627 281.796875
vertex -234.718750 -3.403627 281.479034
endloop
endfacet
facet normal -0.608735 0.000000 -0.793374
outer loop
vertex -235.132965 -4.670357 281.796875
vertex -234.718750 -3.403627 281.479034
vertex -234.718750 -4.670357 281.479034
endloop
endfacet
facet normal 0.608793 0.000000 0.793329
outer loop
vertex -224.804535 -4.670357 288.375305
vertex -224.804535 -3.403627 288.375305
vertex -225.218750 -3.403627 288.693146
endloop
endfacet
facet normal 0.608735 0.000000 0.793373
outer loop
vertex -224.804535 -4.670357 288.375305
vertex -225.218750 -3.403627 288.693146
vertex -225.218750 -4.670357 288.693146
endloop
endfacet
facet normal -0.382788 0.000000 0.923836
outer loop
vertex -230.486374 -4.670357 281.392944
vertex -230.486389 -3.403627 281.392944
vertex -230.968750 -3.403627 281.193146
endloop
endfacet
facet normal -0.382620 0.000000 0.923906
outer loop
vertex -230.486374 -4.670357 281.392944
vertex -230.968750 -3.403627 281.193146
vertex -230.968750 -4.670357 281.193146
endloop
endfacet
facet normal 0.793343 0.000000 -0.608775
outer loop
vertex -232.304535 -4.670357 281.796875
vertex -232.304535 -3.403627 281.796875
vertex -231.986710 -3.403627 282.211090
endloop
endfacet
facet normal 0.793363 0.000023 -0.608749
outer loop
vertex -232.304535 -4.670357 281.796875
vertex -231.986710 -3.403627 282.211090
vertex -231.986694 -4.670357 282.211090
endloop
endfacet
facet normal 0.608677 0.000000 -0.793418
outer loop
vertex -228.968750 -4.670357 277.729034
vertex -228.968750 -3.403626 277.729034
vertex -228.554535 -3.403626 278.046875
endloop
endfacet
facet normal 0.608851 0.000000 -0.793285
outer loop
vertex -228.968750 -4.670357 277.729034
vertex -228.554535 -3.403626 278.046875
vertex -228.554535 -4.670357 278.046875
endloop
endfacet
facet normal -0.793363 0.000000 -0.608749
outer loop
vertex -227.950806 -4.670357 282.211090
vertex -227.950806 -3.403627 282.211090
vertex -227.632965 -3.403627 281.796875
endloop
endfacet
facet normal -0.793328 0.000000 -0.608794
outer loop
vertex -227.950806 -4.670357 282.211090
vertex -227.632965 -3.403627 281.796875
vertex -227.632965 -4.670357 281.796875
endloop
endfacet
facet normal -0.130403 0.000000 -0.991461
outer loop
vertex -230.486389 -4.670357 277.529236
vertex -230.486389 -3.403626 277.529236
vertex -229.968750 -3.403626 277.461090
endloop
endfacet
facet normal -0.130584 0.000000 -0.991437
outer loop
vertex -230.486389 -4.670357 277.529236
vertex -229.968750 -3.403626 277.461090
vertex -229.968750 -4.670357 277.461090
endloop
endfacet
facet normal -0.991445 0.000000 -0.130523
outer loop
vertex -228.218750 -4.670357 283.211090
vertex -228.218750 -3.403627 283.211090
vertex -228.150604 -3.403627 282.693451
endloop
endfacet
facet normal -0.991447 0.000000 -0.130511
outer loop
vertex -228.218750 -4.670357 283.211090
vertex -228.150604 -3.403627 282.693451
vertex -228.150604 -4.670357 282.693451
endloop
endfacet
facet normal 0.130584 0.000000 -0.991437
outer loop
vertex -233.718750 -4.670357 281.211090
vertex -233.718750 -3.403627 281.211090
vertex -233.201111 -3.403627 281.279236
endloop
endfacet
facet normal 0.130490 0.000000 -0.991450
outer loop
vertex -233.718750 -4.670357 281.211090
vertex -233.201111 -3.403627 281.279236
vertex -233.201096 -4.670357 281.279236
endloop
endfacet
facet normal -0.793328 0.000000 0.608794
outer loop
vertex -235.132965 -4.670357 288.375305
vertex -235.132965 -3.403627 288.375305
vertex -235.450806 -3.403627 287.961090
endloop
endfacet
facet normal -0.793397 0.000000 0.608704
outer loop
vertex -235.132965 -4.670357 288.375305
vertex -235.450806 -3.403627 287.961090
vertex -235.450806 -4.670357 287.961090
endloop
endfacet
facet normal -0.991445 0.000000 -0.130523
outer loop
vertex -235.718750 -4.670357 283.211090
vertex -235.718750 -3.403627 283.211090
vertex -235.650604 -3.403627 282.693451
endloop
endfacet
facet normal -0.991447 0.000000 -0.130511
outer loop
vertex -235.718750 -4.670357 283.211090
vertex -235.650604 -3.403627 282.693451
vertex -235.650604 -4.670357 282.693451
endloop
endfacet
facet normal 0.382630 0.000000 0.923902
outer loop
vertex -225.218750 -4.670357 288.693146
vertex -225.218750 -3.403627 288.693146
vertex -225.701111 -3.403627 288.892944
endloop
endfacet
facet normal 0.382709 0.000000 0.923869
outer loop
vertex -225.218750 -4.670357 288.693146
vertex -225.701111 -3.403627 288.892944
vertex -225.701111 -4.670357 288.892944
endloop
endfacet
facet normal 0.991446 0.000000 -0.130521
outer loop
vertex -228.036896 -4.670357 278.943451
vertex -228.036896 -3.403626 278.943451
vertex -227.968750 -3.403627 279.461090
endloop
endfacet
facet normal 0.991445 0.000000 -0.130523
outer loop
vertex -228.036896 -4.670357 278.943451
vertex -227.968750 -3.403627 279.461090
vertex -227.968750 -4.670357 279.461090
endloop
endfacet
facet normal 0.130584 0.000000 -0.991437
outer loop
vertex -229.968750 -4.670357 277.461090
vertex -229.968750 -3.403626 277.461090
vertex -229.451111 -3.403626 277.529236
endloop
endfacet
facet normal 0.130403 0.000000 -0.991461
outer loop
vertex -229.968750 -4.670357 277.461090
vertex -229.451111 -3.403626 277.529236
vertex -229.451111 -4.670357 277.529236
endloop
endfacet
facet normal 0.130584 0.000000 -0.991437
outer loop
vertex -226.218750 -4.670357 281.211090
vertex -226.218750 -3.403627 281.211090
vertex -225.701111 -3.403627 281.279236
endloop
endfacet
facet normal 0.130493 0.000000 -0.991449
outer loop
vertex -226.218750 -4.670357 281.211090
vertex -225.701111 -3.403627 281.279236
vertex -225.701111 -4.670357 281.279236
endloop
endfacet
facet normal 0.923871 0.000023 -0.382704
outer loop
vertex -231.986694 -4.670357 282.211090
vertex -231.986710 -3.403627 282.211090
vertex -231.786896 -3.403627 282.693451
endloop
endfacet
facet normal 0.923868 0.000020 -0.382712
outer loop
vertex -231.986694 -4.670357 282.211090
vertex -231.786896 -3.403627 282.693451
vertex -231.786896 -4.670357 282.693420
endloop
endfacet
facet normal 0.130403 0.000000 0.991461
outer loop
vertex -229.451111 -4.670357 281.392944
vertex -229.451111 -3.403627 281.392944
vertex -229.968750 -3.403627 281.461090
endloop
endfacet
facet normal 0.130584 0.000000 0.991437
outer loop
vertex -229.451111 -4.670357 281.392944
vertex -229.968750 -3.403627 281.461090
vertex -229.968750 -4.670357 281.461090
endloop
endfacet
facet normal -1.000000 0.000000 0.000000
outer loop
vertex -235.718750 -4.670357 283.887695
vertex -235.718750 -4.670357 286.961090
vertex -235.718750 -3.403627 286.961090
endloop
endfacet
facet normal -1.000000 0.000000 0.000000
outer loop
vertex -235.718750 -3.403627 286.961090
vertex -235.718750 -3.403627 283.211090
vertex -235.718750 -4.670357 283.211090
endloop
endfacet
facet normal -1.000000 0.000036 0.000000
outer loop
vertex -235.718750 -3.403627 286.961090
vertex -235.718750 -4.670357 283.211090
vertex -235.718750 -4.670357 283.887695
endloop
endfacet
facet normal 0.793377 0.000023 0.608730
outer loop
vertex -228.236694 -4.670357 280.461090
vertex -228.236710 -3.403627 280.461090
vertex -228.554535 -3.403627 280.875305
endloop
endfacet
facet normal 0.793328 0.000000 0.608794
outer loop
vertex -228.236694 -4.670357 280.461090
vertex -228.554535 -3.403627 280.875305
vertex -228.554535 -4.670357 280.875305
endloop
endfacet
facet normal -0.608793 0.000000 -0.793329
outer loop
vertex -227.632965 -4.670357 281.796875
vertex -227.632965 -3.403627 281.796875
vertex -227.218750 -3.403627 281.479034
endloop
endfacet
facet normal -0.608735 0.000000 -0.793374
outer loop
vertex -227.632965 -4.670357 281.796875
vertex -227.218750 -3.403627 281.479034
vertex -227.218750 -4.670357 281.479034
endloop
endfacet
facet normal -0.923881 0.000000 0.382679
outer loop
vertex -231.700806 -4.670357 280.461090
vertex -231.700806 -3.403627 280.461090
vertex -231.900604 -3.403627 279.978729
endloop
endfacet
facet normal -0.923881 0.000000 0.382680
outer loop
vertex -231.700806 -4.670357 280.461090
vertex -231.900604 -3.403627 279.978729
vertex -231.900604 -4.670357 279.978729
endloop
endfacet
facet normal -0.130584 0.000000 0.991437
outer loop
vertex -229.968750 -4.670357 281.461090
vertex -229.968750 -3.403627 281.461090
vertex -230.486389 -3.403627 281.392944
endloop
endfacet
facet normal -0.130406 0.000000 0.991461
outer loop
vertex -229.968750 -4.670357 281.461090
vertex -230.486389 -3.403627 281.392944
vertex -230.486374 -4.670357 281.392944
endloop
endfacet
facet normal -0.793363 0.000000 -0.608749
outer loop
vertex -235.450806 -4.670357 282.211090
vertex -235.450806 -3.403627 282.211090
vertex -235.132965 -3.403627 281.796875
endloop
endfacet
facet normal -0.793328 0.000000 -0.608794
outer loop
vertex -235.450806 -4.670357 282.211090
vertex -235.132965 -3.403627 281.796875
vertex -235.132965 -4.670357 281.796875
endloop
endfacet
facet normal 0.923871 0.000000 0.382704
outer loop
vertex -224.286896 -4.670357 287.478729
vertex -224.286896 -3.403627 287.478729
vertex -224.486710 -3.403627 287.961090
endloop
endfacet
facet normal 0.923871 0.000000 0.382704
outer loop
vertex -224.286896 -4.670357 287.478729
vertex -224.486710 -3.403627 287.961090
vertex -224.486710 -4.670357 287.961090
endloop
endfacet
facet normal 0.608851 0.000000 0.793284
outer loop
vertex -228.554535 -4.670357 280.875305
vertex -228.554535 -3.403627 280.875305
vertex -228.968750 -3.403627 281.193146
endloop
endfacet
facet normal 0.608677 0.000000 0.793418
outer loop
vertex -228.554535 -4.670357 280.875305
vertex -228.968750 -3.403627 281.193146
vertex -228.968750 -4.670357 281.193146
endloop
endfacet
facet normal 0.991448 0.000000 -0.130499
outer loop
vertex -231.786896 -4.670357 282.693420
vertex -231.786896 -3.403627 282.693451
vertex -231.718750 -3.403627 283.211090
endloop
endfacet
facet normal 0.991445 0.000000 -0.130523
outer loop
vertex -231.786896 -4.670357 282.693420
vertex -231.718750 -3.403627 283.211090
vertex -231.718750 -4.670357 283.211090
endloop
endfacet
facet normal 0.923871 0.000023 -0.382704
outer loop
vertex -228.236694 -4.670357 278.461090
vertex -228.236710 -3.403626 278.461090
vertex -228.036896 -3.403626 278.943451
endloop
endfacet
facet normal 0.923881 0.000000 -0.382680
outer loop
vertex -228.236694 -4.670357 278.461090
vertex -228.036896 -3.403626 278.943451
vertex -228.036896 -4.670357 278.943451
endloop
endfacet
facet normal 1.000000 0.000000 0.000023
outer loop
vertex -224.218750 -4.670357 283.887695
vertex -224.218735 -4.670357 283.211090
vertex -224.218750 -3.403627 283.211090
endloop
endfacet
facet normal 1.000000 0.000000 0.000000
outer loop
vertex -224.218750 -3.403627 283.211090
vertex -224.218750 -3.403627 286.961090
vertex -224.218750 -4.670357 286.961090
endloop
endfacet
facet normal 1.000000 0.000000 0.000000
outer loop
vertex -224.218750 -3.403627 283.211090
vertex -224.218750 -4.670357 286.961090
vertex -224.218750 -4.670357 283.887695
endloop
endfacet
facet normal -0.923881 0.000000 -0.382679
outer loop
vertex -228.150604 -4.670357 282.693451
vertex -228.150604 -3.403627 282.693451
vertex -227.950806 -3.403627 282.211090
endloop
endfacet
facet normal -0.923881 0.000000 -0.382680
outer loop
vertex -228.150604 -4.670357 282.693451
vertex -227.950806 -3.403627 282.211090
vertex -227.950806 -4.670357 282.211090
endloop
endfacet
facet normal 0.608735 0.000023 -0.793374
outer loop
vertex -225.218735 -4.670357 281.479034
vertex -225.218750 -3.403627 281.479034
vertex -224.804535 -3.403627 281.796875
endloop
endfacet
facet normal 0.608807 0.000000 -0.793318
outer loop
vertex -225.218735 -4.670357 281.479034
vertex -224.804535 -3.403627 281.796875
vertex -224.804535 -4.670357 281.796875
endloop
endfacet
facet normal 0.382630 0.000000 0.923902
outer loop
vertex -228.968750 -4.670357 281.193146
vertex -228.968750 -3.403627 281.193146
vertex -229.451111 -3.403627 281.392944
endloop
endfacet
facet normal 0.382787 0.000000 0.923836
outer loop
vertex -228.968750 -4.670357 281.193146
vertex -229.451111 -3.403627 281.392944
vertex -229.451111 -4.670357 281.392944
endloop
endfacet
facet normal -0.382630 0.000000 -0.923902
outer loop
vertex -234.718750 -4.670357 281.479034
vertex -234.718750 -3.403627 281.479034
vertex -234.236389 -3.403627 281.279236
endloop
endfacet
facet normal -0.382709 0.000000 -0.923869
outer loop
vertex -234.718750 -4.670357 281.479034
vertex -234.236389 -3.403627 281.279236
vertex -234.236389 -4.670357 281.279236
endloop
endfacet
facet normal -0.608735 0.000000 0.793374
outer loop
vertex -234.718750 -4.670357 288.693146
vertex -234.718750 -3.403627 288.693146
vertex -235.132965 -3.403627 288.375305
endloop
endfacet
facet normal -0.608793 0.000000 0.793329
outer loop
vertex -234.718750 -4.670357 288.693146
vertex -235.132965 -3.403627 288.375305
vertex -235.132965 -4.670357 288.375305
endloop
endfacet
facet normal 0.382709 0.000000 -0.923869
outer loop
vertex -225.701111 -4.670357 281.279236
vertex -225.701111 -3.403627 281.279236
vertex -225.218750 -3.403627 281.479034
endloop
endfacet
facet normal 0.382620 0.000000 -0.923906
outer loop
vertex -225.701111 -4.670357 281.279236
vertex -225.218750 -3.403627 281.479034
vertex -225.218735 -4.670357 281.479034
endloop
endfacet
facet normal 0.130403 0.000000 0.991461
outer loop
vertex -225.701111 -4.670357 288.892944
vertex -225.701111 -3.403627 288.892944
vertex -226.218750 -3.403627 288.961090
endloop
endfacet
facet normal 0.130584 0.000000 0.991437
outer loop
vertex -225.701111 -4.670357 288.892944
vertex -226.218750 -3.403627 288.961090
vertex -226.218750 -4.670357 288.961090
endloop
endfacet
facet normal -0.382630 0.000000 -0.923902
outer loop
vertex -227.218750 -4.670357 281.479034
vertex -227.218750 -3.403627 281.479034
vertex -226.736389 -3.403627 281.279236
endloop
endfacet
facet normal -0.382709 0.000000 -0.923869
outer loop
vertex -227.218750 -4.670357 281.479034
vertex -226.736389 -3.403627 281.279236
vertex -226.736389 -4.670357 281.279236
endloop
endfacet
facet normal -0.382630 0.000000 -0.923902
outer loop
vertex -230.968750 -4.670357 277.729034
vertex -230.968750 -3.403626 277.729034
vertex -230.486389 -3.403626 277.529236
endloop
endfacet
facet normal -0.382787 0.000000 -0.923836
outer loop
vertex -230.968750 -4.670357 277.729034
vertex -230.486389 -3.403626 277.529236
vertex -230.486389 -4.670357 277.529236
endloop
endfacet
facet normal -0.793329 0.000000 0.608793
outer loop
vertex -231.382965 -4.670357 280.875305
vertex -231.382965 -3.403627 280.875305
vertex -231.700806 -3.403627 280.461090
endloop
endfacet
facet normal -0.793363 0.000000 0.608749
outer loop
vertex -231.382965 -4.670357 280.875305
vertex -231.700806 -3.403627 280.461090
vertex -231.700806 -4.670357 280.461090
endloop
endfacet
facet normal 0.793411 0.000000 0.608686
outer loop
vertex -224.486710 -4.670357 287.961090
vertex -224.486710 -3.403627 287.961090
vertex -224.804535 -3.403627 288.375305
endloop
endfacet
facet normal 0.793343 0.000000 0.608775
outer loop
vertex -224.486710 -4.670357 287.961090
vertex -224.804535 -3.403627 288.375305
vertex -224.804535 -4.670357 288.375305
endloop
endfacet
facet normal 0.382787 0.000000 -0.923836
outer loop
vertex -229.451111 -4.670357 277.529236
vertex -229.451111 -3.403626 277.529236
vertex -228.968750 -3.403626 277.729034
endloop
endfacet
facet normal 0.382630 0.000000 -0.923902
outer loop
vertex -229.451111 -4.670357 277.529236
vertex -228.968750 -3.403626 277.729034
vertex -228.968750 -4.670357 277.729034
endloop
endfacet
facet normal 0.000000 1.000000 0.000000
outer loop
vertex -226.524841 -4.670357 288.961090
vertex -233.412659 -4.670357 288.961090
vertex -229.968750 -4.670357 296.537689
endloop
endfacet
facet normal 0.000000 1.000000 -0.000000
outer loop
vertex -231.968750 -4.670357 279.461090
vertex -233.201096 -4.670357 281.279236
vertex -232.718750 -4.670357 281.479034
endloop
endfacet
facet normal 0.000000 1.000000 0.000000
outer loop
vertex -231.968750 -4.670357 279.461090
vertex -232.718750 -4.670357 281.479034
vertex -232.304535 -4.670357 281.796875
endloop
endfacet
facet normal 0.000000 1.000000 0.000001
outer loop
vertex -231.900604 -4.670357 279.978729
vertex -231.968750 -4.670357 279.461090
vertex -232.304535 -4.670357 281.796875
endloop
endfacet
facet normal 0.000000 1.000000 0.000000
outer loop
vertex -231.900604 -4.670357 279.978729
vertex -232.304535 -4.670357 281.796875
vertex -231.986694 -4.670357 282.211090
endloop
endfacet
facet normal 0.000000 1.000000 0.000000
outer loop
vertex -231.700806 -4.670357 280.461090
vertex -231.900604 -4.670357 279.978729
vertex -231.986694 -4.670357 282.211090
endloop
endfacet
facet normal 0.000000 1.000000 0.000000
outer loop
vertex -231.700806 -4.670357 280.461090
vertex -231.986694 -4.670357 282.211090
vertex -231.786896 -4.670357 282.693420
endloop
endfacet
facet normal 0.000000 1.000000 0.000000
outer loop
vertex -231.382965 -4.670357 280.875305
vertex -231.700806 -4.670357 280.461090
vertex -231.786896 -4.670357 282.693420
endloop
endfacet
facet normal 0.000000 1.000000 0.000000
outer loop
vertex -231.718750 -4.670357 283.211090
vertex -231.718750 -4.670357 284.961090
vertex -228.218750 -4.670357 284.961090
endloop
endfacet
facet normal 0.000000 1.000000 -0.000001
outer loop
vertex -231.382965 -4.670357 280.875305
vertex -231.786896 -4.670357 282.693420
vertex -231.718750 -4.670357 283.211090
endloop
endfacet
facet normal 0.000000 1.000000 0.000000
outer loop
vertex -230.968750 -4.670357 281.193146
vertex -231.382965 -4.670357 280.875305
vertex -231.718750 -4.670357 283.211090
endloop
endfacet
facet normal 0.000000 1.000000 0.000000
outer loop
vertex -231.718750 -4.670357 283.211090
vertex -228.218750 -4.670357 284.961090
vertex -228.218750 -4.670357 283.211090
endloop
endfacet
facet normal 0.000000 1.000000 -0.000001
outer loop
vertex -231.718750 -4.670357 283.211090
vertex -228.218750 -4.670357 283.211090
vertex -228.150604 -4.670357 282.693451
endloop
endfacet
facet normal 0.000000 1.000000 0.000000
outer loop
vertex -230.486374 -4.670357 281.392944
vertex -230.968750 -4.670357 281.193146
vertex -231.718750 -4.670357 283.211090
endloop
endfacet
facet normal 0.000000 1.000000 0.000000
outer loop
vertex -229.968750 -4.670357 281.461090
vertex -230.486374 -4.670357 281.392944
vertex -231.718750 -4.670357 283.211090
endloop
endfacet
facet normal 0.000000 1.000000 0.000001
outer loop
vertex -231.718750 -4.670357 283.211090
vertex -228.150604 -4.670357 282.693451
vertex -227.950806 -4.670357 282.211090
endloop
endfacet
facet normal 0.000000 1.000000 0.000001
outer loop
vertex -231.718750 -4.670357 283.211090
vertex -227.950806 -4.670357 282.211090
vertex -227.632965 -4.670357 281.796875
endloop
endfacet
facet normal 0.000000 1.000000 0.000000
outer loop
vertex -229.451111 -4.670357 281.392944
vertex -229.968750 -4.670357 281.461090
vertex -231.718750 -4.670357 283.211090
endloop
endfacet
facet normal 0.000000 1.000000 0.000000
outer loop
vertex -228.968750 -4.670357 281.193146
vertex -229.451111 -4.670357 281.392944
vertex -231.718750 -4.670357 283.211090
endloop
endfacet
facet normal 0.000000 1.000000 0.000000
outer loop
vertex -231.718750 -4.670357 283.211090
vertex -227.632965 -4.670357 281.796875
vertex -227.218750 -4.670357 281.479034
endloop
endfacet
facet normal 0.000000 1.000000 -0.000002
outer loop
vertex -226.736389 -4.670357 281.279236
vertex -226.515884 -4.670357 281.250183
vertex -227.968750 -4.670357 279.461090
endloop
endfacet
facet normal 0.000000 1.000000 -0.000030
outer loop
vertex -231.718750 -4.670357 283.211090
vertex -227.218750 -4.670357 281.479034
vertex -226.736389 -4.670357 281.279236
endloop
endfacet
facet normal 0.000000 1.000000 0.000001
outer loop
vertex -228.968750 -4.670357 281.193146
vertex -231.718750 -4.670357 283.211090
vertex -226.736389 -4.670357 281.279236
endloop
endfacet
facet normal 0.000000 1.000000 0.000000
outer loop
vertex -226.736389 -4.670357 281.279236
vertex -227.968750 -4.670357 279.461090
vertex -228.036896 -4.670357 279.978729
endloop
endfacet
facet normal 0.000000 1.000000 0.000000
outer loop
vertex -226.736389 -4.670357 281.279236
vertex -228.036896 -4.670357 279.978729
vertex -228.236694 -4.670357 280.461090
endloop
endfacet
facet normal 0.000000 1.000000 0.000000
outer loop
vertex -228.554535 -4.670357 280.875305
vertex -228.968750 -4.670357 281.193146
vertex -226.736389 -4.670357 281.279236
endloop
endfacet
facet normal 0.000000 1.000000 0.000000
outer loop
vertex -226.736389 -4.670357 281.279236
vertex -228.236694 -4.670357 280.461090
vertex -228.554535 -4.670357 280.875305
endloop
endfacet
facet normal 0.000000 0.000000 -1.000000
outer loop
vertex -231.718750 -4.670357 284.961090
vertex -231.718750 -3.403627 284.961090
vertex -228.218750 -3.403627 284.961090
endloop
endfacet
facet normal 0.000000 0.000000 -1.000000
outer loop
vertex -231.718750 -4.670357 284.961090
vertex -228.218750 -3.403627 284.961090
vertex -228.218750 -4.670357 284.961090
endloop
endfacet
facet normal 0.991447 0.000000 -0.130511
outer loop
vertex -224.286896 -4.670357 282.693451
vertex -224.286896 -3.403627 282.693451
vertex -224.218750 -3.403627 283.211090
endloop
endfacet
facet normal 0.991442 0.000046 -0.130551
outer loop
vertex -224.286896 -4.670357 282.693451
vertex -224.218750 -3.403627 283.211090
vertex -224.218735 -4.670357 283.211090
endloop
endfacet
facet normal -0.991445 0.000000 0.130523
outer loop
vertex -231.900604 -4.670357 279.978729
vertex -231.900604 -3.403627 279.978729
vertex -231.968750 -3.403627 279.461090
endloop
endfacet
facet normal -0.991445 0.000000 0.130523
outer loop
vertex -231.900604 -4.670357 279.978729
vertex -231.968750 -3.403627 279.461090
vertex -231.968750 -4.670357 279.461090
endloop
endfacet
facet normal -0.382787 0.000000 0.923836
outer loop
vertex -234.236389 -4.670357 288.892944
vertex -234.236389 -3.403627 288.892944
vertex -234.718750 -3.403627 288.693146
endloop
endfacet
facet normal -0.382551 0.000000 0.923934
outer loop
vertex -234.236389 -4.670357 288.892944
vertex -234.718750 -3.403627 288.693146
vertex -234.718750 -4.670357 288.693146
endloop
endfacet
facet normal -0.608851 0.000000 -0.793284
outer loop
vertex -231.382965 -4.670357 278.046875
vertex -231.382965 -3.403626 278.046875
vertex -230.968750 -3.403626 277.729034
endloop
endfacet
facet normal -0.608677 0.000000 -0.793418
outer loop
vertex -231.382965 -4.670357 278.046875
vertex -230.968750 -3.403626 277.729034
vertex -230.968750 -4.670357 277.729034
endloop
endfacet
facet normal 0.000000 0.000000 1.000000
outer loop
vertex -226.524841 -4.670357 288.961090
vertex -226.218750 -4.670357 288.961090
vertex -226.218750 -3.403627 288.961090
endloop
endfacet
facet normal 0.000000 0.000000 1.000000
outer loop
vertex -226.218750 -3.403627 288.961090
vertex -233.718750 -3.403627 288.961090
vertex -233.718750 -4.670357 288.961090
endloop
endfacet
facet normal 0.000000 0.000000 1.000000
outer loop
vertex -233.412659 -4.670357 288.961090
vertex -226.524841 -4.670357 288.961090
vertex -226.218750 -3.403627 288.961090
endloop
endfacet
facet normal 0.000000 0.000000 1.000000
outer loop
vertex -226.218750 -3.403627 288.961090
vertex -233.718750 -4.670357 288.961090
vertex -233.412659 -4.670357 288.961090
endloop
endfacet
facet normal -0.991446 0.000000 -0.130521
outer loop
vertex -231.968750 -4.670357 279.461090
vertex -231.968750 -3.403627 279.461090
vertex -231.900604 -3.403626 278.943451
endloop
endfacet
facet normal -0.991445 0.000000 -0.130523
outer loop
vertex -231.968750 -4.670357 279.461090
vertex -231.900604 -3.403626 278.943451
vertex -231.900604 -4.670357 278.943451
endloop
endfacet
facet normal -0.130634 0.000000 -0.991431
outer loop
vertex -226.515884 -4.670357 281.250183
vertex -226.736389 -4.670357 281.279236
vertex -226.736389 -3.403627 281.279236
endloop
endfacet
facet normal -0.130584 0.000000 -0.991437
outer loop
vertex -226.736389 -3.403627 281.279236
vertex -226.218750 -3.403627 281.211090
vertex -226.218750 -4.670357 281.211090
endloop
endfacet
facet normal -0.130389 0.000035 -0.991463
outer loop
vertex -226.736389 -3.403627 281.279236
vertex -226.218750 -4.670357 281.211090
vertex -226.515884 -4.670357 281.250183
endloop
endfacet
facet normal -0.923881 0.000000 -0.382679
outer loop
vertex -231.900604 -4.670357 278.943451
vertex -231.900604 -3.403626 278.943451
vertex -231.700806 -3.403626 278.461090
endloop
endfacet
facet normal -0.923881 0.000000 -0.382680
outer loop
vertex -231.900604 -4.670357 278.943451
vertex -231.700806 -3.403626 278.461090
vertex -231.700806 -4.670357 278.461090
endloop
endfacet
facet normal -0.130493 0.000000 -0.991449
outer loop
vertex -234.236389 -4.670357 281.279236
vertex -234.236389 -3.403627 281.279236
vertex -233.718750 -3.403627 281.211090
endloop
endfacet
facet normal -0.130584 0.000000 -0.991437
outer loop
vertex -234.236389 -4.670357 281.279236
vertex -233.718750 -3.403627 281.211090
vertex -233.718750 -4.670357 281.211090
endloop
endfacet
facet normal 0.991445 0.000000 0.130523
outer loop
vertex -227.968750 -4.670357 279.461090
vertex -227.968750 -3.403627 279.461090
vertex -228.036896 -3.403627 279.978729
endloop
endfacet
facet normal 0.991445 0.000000 0.130523
outer loop
vertex -227.968750 -4.670357 279.461090
vertex -228.036896 -3.403627 279.978729
vertex -228.036896 -4.670357 279.978729
endloop
endfacet
facet normal -0.130584 0.000000 0.991437
outer loop
vertex -233.718750 -4.670357 288.961090
vertex -233.718750 -3.403627 288.961090
vertex -234.236389 -3.403627 288.892944
endloop
endfacet
facet normal -0.130403 0.000000 0.991461
outer loop
vertex -233.718750 -4.670357 288.961090
vertex -234.236389 -3.403627 288.892944
vertex -234.236389 -4.670357 288.892944
endloop
endfacet
facet normal -0.923881 0.000000 0.382680
outer loop
vertex -235.450806 -4.670357 287.961090
vertex -235.450806 -3.403627 287.961090
vertex -235.650604 -3.403627 287.478729
endloop
endfacet
facet normal -0.923881 0.000000 0.382679
outer loop
vertex -235.450806 -4.670357 287.961090
vertex -235.650604 -3.403627 287.478729
vertex -235.650604 -4.670357 287.478729
endloop
endfacet
facet normal -0.923881 0.000000 -0.382679
outer loop
vertex -235.650604 -4.670357 282.693451
vertex -235.650604 -3.403627 282.693451
vertex -235.450806 -3.403627 282.211090
endloop
endfacet
facet normal -0.923881 0.000000 -0.382680
outer loop
vertex -235.650604 -4.670357 282.693451
vertex -235.450806 -3.403627 282.211090
vertex -235.450806 -4.670357 282.211090
endloop
endfacet
endsolid L
