solid K
facet normal 0.000000 1.000000 0.000000
outer loop
vertex -25.542080 -3.403627 281.806458
vertex -20.042080 -3.403626 277.806458
vertex -27.542080 -3.403626 277.806458
endloop
endfacet
facet normal 0.000000 1.000000 0.000000
outer loop
vertex -28.059719 -3.403626 277.874603
vertex -25.542080 -3.403627 281.806458
vertex -27.542080 -3.403626 277.806458
endloop
endfacet
facet normal 0.000000 1.000000 0.000000
outer loop
vertex -25.542080 -3.403627 281.806458
vertex -28.059719 -3.403626 277.874603
vertex -28.542080 -3.403626 278.074402
endloop
endfacet
facet normal 0.000000 1.000000 -0.000000
outer loop
vertex -25.542080 -3.403627 281.806458
vertex -28.542080 -3.403626 278.074402
vertex -28.956295 -3.403626 278.392242
endloop
endfacet
facet normal 0.000000 1.000000 0.000000
outer loop
vertex -29.274136 -3.403626 278.806458
vertex -25.542080 -3.403627 281.806458
vertex -28.956295 -3.403626 278.392242
endloop
endfacet
facet normal 0.000000 1.000000 0.000000
outer loop
vertex -27.542080 -3.403627 289.306458
vertex -29.542080 -3.403627 287.306458
vertex -29.473934 -3.403627 287.824097
endloop
endfacet
facet normal 0.000000 1.000000 0.000000
outer loop
vertex -29.274136 -3.403627 288.306458
vertex -27.542080 -3.403627 289.306458
vertex -29.473934 -3.403627 287.824097
endloop
endfacet
facet normal 0.000000 1.000000 -0.000001
outer loop
vertex -27.542080 -3.403627 289.306458
vertex -29.274136 -3.403627 288.306458
vertex -28.956295 -3.403627 288.720642
endloop
endfacet
facet normal 0.000000 1.000000 0.000002
outer loop
vertex -27.542080 -3.403627 289.306458
vertex -28.956295 -3.403627 288.720642
vertex -28.542080 -3.403627 289.038513
endloop
endfacet
facet normal 0.000000 1.000000 0.000000
outer loop
vertex -28.059719 -3.403627 289.238281
vertex -27.542080 -3.403627 289.306458
vertex -28.542080 -3.403627 289.038513
endloop
endfacet
facet normal 0.000000 1.000000 0.000000
outer loop
vertex -20.042080 -3.403627 289.306458
vertex -22.042080 -3.403627 285.306458
vertex -27.542080 -3.403627 289.306458
endloop
endfacet
facet normal 0.000000 1.000000 0.000000
outer loop
vertex -20.042080 -3.403627 289.306458
vertex -19.524441 -3.403627 289.238281
vertex -19.042080 -3.403627 289.038513
endloop
endfacet
facet normal 0.000000 1.000000 0.000002
outer loop
vertex -20.042080 -3.403627 289.306458
vertex -19.042080 -3.403627 289.038513
vertex -18.627865 -3.403627 288.720642
endloop
endfacet
facet normal 0.000000 1.000000 0.000000
outer loop
vertex -18.310040 -3.403627 288.306458
vertex -20.042080 -3.403627 289.306458
vertex -18.627865 -3.403627 288.720642
endloop
endfacet
facet normal 0.000000 1.000000 0.000001
outer loop
vertex -18.110226 -3.403626 279.288818
vertex -22.042080 -3.403627 281.806458
vertex -18.042080 -3.403627 279.806458
endloop
endfacet
facet normal -0.000000 1.000000 -0.000001
outer loop
vertex -22.042080 -3.403627 281.806458
vertex -18.110226 -3.403626 279.288818
vertex -18.310040 -3.403626 278.806458
endloop
endfacet
facet normal -0.000000 1.000000 0.000001
outer loop
vertex -22.042080 -3.403627 281.806458
vertex -18.310040 -3.403626 278.806458
vertex -18.627865 -3.403626 278.392242
endloop
endfacet
facet normal -0.000000 1.000000 0.000000
outer loop
vertex -19.042080 -3.403626 278.074402
vertex -22.042080 -3.403627 281.806458
vertex -18.627865 -3.403626 278.392242
endloop
endfacet
facet normal 0.000000 1.000000 -0.000000
outer loop
vertex -25.542080 -3.403627 281.806458
vertex -29.274136 -3.403626 278.806458
vertex -29.473934 -3.403626 279.288818
endloop
endfacet
facet normal -0.000000 1.000000 0.000001
outer loop
vertex -25.542080 -3.403627 281.806458
vertex -29.473934 -3.403626 279.288818
vertex -29.542080 -3.403627 279.806458
endloop
endfacet
facet normal -0.000000 1.000000 0.000000
outer loop
vertex -25.542080 -3.403627 285.306458
vertex -25.542080 -3.403627 281.806458
vertex -29.542080 -3.403627 279.806458
endloop
endfacet
facet normal -0.000000 1.000000 0.000000
outer loop
vertex -22.042080 -3.403627 281.806458
vertex -19.042080 -3.403626 278.074402
vertex -19.524441 -3.403626 277.874603
endloop
endfacet
facet normal -0.000000 1.000000 0.000000
outer loop
vertex -22.042080 -3.403627 281.806458
vertex -19.524441 -3.403626 277.874603
vertex -20.042080 -3.403626 277.806458
endloop
endfacet
facet normal 0.000000 1.000000 0.000000
outer loop
vertex -25.542080 -3.403627 281.806458
vertex -22.042080 -3.403627 281.806458
vertex -20.042080 -3.403626 277.806458
endloop
endfacet
facet normal 0.000000 1.000000 -0.000000
outer loop
vertex -20.042080 -3.403627 289.306458
vertex -18.310040 -3.403627 288.306458
vertex -18.110226 -3.403627 287.824097
endloop
endfacet
facet normal 0.000000 1.000000 0.000000
outer loop
vertex -20.042080 -3.403627 289.306458
vertex -18.110226 -3.403627 287.824097
vertex -18.042080 -3.403627 287.306458
endloop
endfacet
facet normal 0.000000 1.000000 0.000000
outer loop
vertex -22.042080 -3.403627 285.306458
vertex -20.042080 -3.403627 289.306458
vertex -18.042080 -3.403627 287.306458
endloop
endfacet
facet normal -0.000000 1.000000 0.000000
outer loop
vertex -22.042080 -3.403627 285.306458
vertex -18.042080 -3.403627 287.306458
vertex -18.042080 -3.403627 279.806458
endloop
endfacet
facet normal 0.000000 1.000000 0.000000
outer loop
vertex -22.042080 -3.403627 281.806458
vertex -22.042080 -3.403627 285.306458
vertex -18.042080 -3.403627 279.806458
endloop
endfacet
facet normal 0.000000 1.000000 0.000000
outer loop
vertex -25.542080 -3.403627 285.306458
vertex -29.542080 -3.403627 279.806458
vertex -29.542080 -3.403627 287.306458
endloop
endfacet
facet normal 0.000000 1.000000 0.000000
outer loop
vertex -25.542080 -3.403627 285.306458
vertex -29.542080 -3.403627 287.306458
vertex -27.542080 -3.403627 289.306458
endloop
endfacet
facet normal 0.000000 1.000000 0.000000
outer loop
vertex -22.042080 -3.403627 285.306458
vertex -25.542080 -3.403627 285.306458
vertex -27.542080 -3.403627 289.306458
endloop
endfacet
facet normal -1.000000 0.000000 0.000000
outer loop
vertex -22.042080 -1.670357 285.299744
vertex -22.042080 -1.670357 281.799744
vertex -22.042080 -2.970357 285.299744
endloop
endfacet
facet normal -1.000000 0.000000 0.000000
outer loop
vertex -22.042080 -2.970357 285.299744
vertex -22.042080 -1.670357 281.799744
vertex -22.042080 -2.970357 281.799744
endloop
endfacet
facet normal 0.000000 0.000000 1.000000
outer loop
vertex -22.042080 -1.670357 281.799744
vertex -25.542080 -1.670357 281.799744
vertex -22.042080 -2.970357 281.799744
endloop
endfacet
facet normal 0.000000 0.000000 1.000000
outer loop
vertex -22.042080 -2.970357 281.799744
vertex -25.542080 -1.670357 281.799744
vertex -25.542080 -2.970357 281.799744
endloop
endfacet
facet normal 1.000000 0.000000 0.000000
outer loop
vertex -25.542080 -1.670357 281.799744
vertex -25.542080 -1.670357 285.299744
vertex -25.542080 -2.970357 281.799744
endloop
endfacet
facet normal 1.000000 0.000000 0.000000
outer loop
vertex -25.542080 -2.970357 281.799744
vertex -25.542080 -1.670357 285.299744
vertex -25.542080 -2.970357 285.299744
endloop
endfacet
facet normal 0.000000 0.000000 -1.000000
outer loop
vertex -25.542080 -1.670357 285.299744
vertex -22.042080 -1.670357 285.299744
vertex -25.542080 -2.970357 285.299744
endloop
endfacet
facet normal 0.000000 0.000000 -1.000000
outer loop
vertex -25.542080 -2.970357 285.299744
vertex -22.042080 -1.670357 285.299744
vertex -22.042080 -2.970357 285.299744
endloop
endfacet
facet normal 1.000000 0.000000 0.000000
outer loop
vertex -18.042080 -1.670357 279.799744
vertex -18.042080 -1.670357 287.299744
vertex -18.042080 -2.970357 279.799744
endloop
endfacet
facet normal 1.000000 0.000000 0.000000
outer loop
vertex -18.042080 -2.970357 279.799744
vertex -18.042080 -1.670357 287.299744
vertex -18.042080 -2.970357 287.299744
endloop
endfacet
facet normal 0.991444 0.000000 0.130536
outer loop
vertex -18.042080 -2.970357 287.299744
vertex -18.042080 -1.670357 287.299744
vertex -18.110226 -2.970357 287.817352
endloop
endfacet
facet normal 0.991445 0.000000 0.130525
outer loop
vertex -18.110226 -2.970357 287.817352
vertex -18.042080 -1.670357 287.299744
vertex -18.110226 -1.670357 287.817352
endloop
endfacet
facet normal 0.923872 0.000000 0.382702
outer loop
vertex -18.110226 -2.970357 287.817352
vertex -18.110226 -1.670357 287.817352
vertex -18.310040 -2.970357 288.299744
endloop
endfacet
facet normal 0.923898 0.000000 0.382639
outer loop
vertex -18.310040 -2.970357 288.299744
vertex -18.110226 -1.670357 287.817352
vertex -18.310040 -1.670357 288.299744
endloop
endfacet
facet normal 0.793317 0.000000 0.608809
outer loop
vertex -18.310040 -2.970357 288.299744
vertex -18.310040 -1.670357 288.299744
vertex -18.627865 -2.970357 288.713928
endloop
endfacet
facet normal 0.793350 0.000000 0.608765
outer loop
vertex -18.627865 -2.970357 288.713928
vertex -18.310040 -1.670357 288.299744
vertex -18.627865 -1.670357 288.713928
endloop
endfacet
facet normal 0.608835 0.000000 0.793297
outer loop
vertex -18.627865 -2.970357 288.713928
vertex -18.627865 -1.670357 288.713928
vertex -19.042080 -2.970357 289.031769
endloop
endfacet
facet normal 0.608729 0.000000 0.793378
outer loop
vertex -19.042080 -2.970357 289.031769
vertex -18.627865 -1.670357 288.713928
vertex -19.042080 -1.670357 289.031769
endloop
endfacet
facet normal 0.382561 0.000000 0.923930
outer loop
vertex -19.042080 -2.970357 289.031769
vertex -19.042080 -1.670357 289.031769
vertex -19.524441 -2.970357 289.231567
endloop
endfacet
facet normal 0.382792 0.000000 0.923835
outer loop
vertex -19.524441 -2.970357 289.231567
vertex -19.042080 -1.670357 289.031769
vertex -19.524441 -1.670357 289.231567
endloop
endfacet
facet normal 0.130570 0.000000 0.991439
outer loop
vertex -19.524441 -2.970357 289.231567
vertex -19.524441 -1.670357 289.231567
vertex -20.042080 -2.970357 289.299744
endloop
endfacet
facet normal 0.130570 0.000000 0.991439
outer loop
vertex -20.042080 -2.970357 289.299744
vertex -19.524441 -1.670357 289.231567
vertex -20.042080 -1.670357 289.299744
endloop
endfacet
facet normal 0.000000 0.000000 1.000000
outer loop
vertex -20.042080 -1.670357 289.299744
vertex -27.542080 -1.670357 289.299744
vertex -20.042080 -2.970357 289.299744
endloop
endfacet
facet normal 0.000000 0.000000 1.000000
outer loop
vertex -20.042080 -2.970357 289.299744
vertex -27.542080 -1.670357 289.299744
vertex -27.542080 -2.970357 289.299744
endloop
endfacet
facet normal -0.130570 0.000000 0.991439
outer loop
vertex -27.542080 -2.970357 289.299744
vertex -27.542080 -1.670357 289.299744
vertex -28.059719 -2.970357 289.231567
endloop
endfacet
facet normal -0.130570 0.000000 0.991439
outer loop
vertex -28.059719 -2.970357 289.231567
vertex -27.542080 -1.670357 289.299744
vertex -28.059719 -1.670357 289.231567
endloop
endfacet
facet normal -0.382792 0.000000 0.923835
outer loop
vertex -28.059719 -2.970357 289.231567
vertex -28.059719 -1.670357 289.231567
vertex -28.542080 -2.970357 289.031769
endloop
endfacet
facet normal -0.382562 0.000000 0.923930
outer loop
vertex -28.542080 -2.970357 289.031769
vertex -28.059719 -1.670357 289.231567
vertex -28.542080 -1.670357 289.031769
endloop
endfacet
facet normal -0.608778 0.000000 0.793340
outer loop
vertex -28.542080 -2.970357 289.031769
vertex -28.542080 -1.670357 289.031769
vertex -28.956295 -2.970357 288.713928
endloop
endfacet
facet normal -0.608785 0.000000 0.793335
outer loop
vertex -28.956295 -2.970357 288.713928
vertex -28.542080 -1.670357 289.031769
vertex -28.956295 -1.670357 288.713928
endloop
endfacet
facet normal -0.793336 0.000000 0.608784
outer loop
vertex -28.956295 -2.970357 288.713928
vertex -28.956295 -1.670357 288.713928
vertex -29.274136 -2.970357 288.299744
endloop
endfacet
facet normal -0.793303 0.000000 0.608827
outer loop
vertex -29.274136 -2.970357 288.299744
vertex -28.956295 -1.670357 288.713928
vertex -29.274136 -1.670357 288.299744
endloop
endfacet
facet normal -0.923908 0.000000 0.382614
outer loop
vertex -29.274136 -2.970357 288.299744
vertex -29.274136 -1.670357 288.299744
vertex -29.473934 -2.970357 287.817352
endloop
endfacet
facet normal -0.923882 0.000000 0.382677
outer loop
vertex -29.473934 -2.970357 287.817352
vertex -29.274136 -1.670357 288.299744
vertex -29.473934 -1.670357 287.817352
endloop
endfacet
facet normal -0.991445 0.000000 0.130525
outer loop
vertex -29.473934 -2.970357 287.817352
vertex -29.473934 -1.670357 287.817352
vertex -29.542080 -2.970357 287.299744
endloop
endfacet
facet normal -0.991444 0.000000 0.130536
outer loop
vertex -29.542080 -2.970357 287.299744
vertex -29.473934 -1.670357 287.817352
vertex -29.542080 -1.670357 287.299744
endloop
endfacet
facet normal -1.000000 0.000000 0.000000
outer loop
vertex -29.542080 -1.670357 287.299744
vertex -29.542080 -1.670357 279.799744
vertex -29.542080 -2.970357 287.299744
endloop
endfacet
facet normal -1.000000 0.000000 0.000000
outer loop
vertex -29.542080 -2.970357 287.299744
vertex -29.542080 -1.670357 279.799744
vertex -29.542080 -2.970357 279.799744
endloop
endfacet
facet normal -0.991445 0.000000 -0.130525
outer loop
vertex -29.542080 -2.970357 279.799744
vertex -29.542080 -1.670357 279.799744
vertex -29.473934 -2.970357 279.282104
endloop
endfacet
facet normal -0.991447 0.000000 -0.130513
outer loop
vertex -29.473934 -2.970357 279.282104
vertex -29.542080 -1.670357 279.799744
vertex -29.473934 -1.670357 279.282104
endloop
endfacet
facet normal -0.923869 0.000000 -0.382709
outer loop
vertex -29.473934 -2.970357 279.282104
vertex -29.473934 -1.670357 279.282104
vertex -29.274136 -2.970357 278.799744
endloop
endfacet
facet normal -0.923882 0.000000 -0.382677
outer loop
vertex -29.274136 -2.970357 278.799744
vertex -29.473934 -1.670357 279.282104
vertex -29.274136 -1.670357 278.799744
endloop
endfacet
facet normal -0.793370 0.000000 -0.608740
outer loop
vertex -29.274136 -2.970357 278.799744
vertex -29.274136 -1.670357 278.799744
vertex -28.956295 -2.970357 278.385498
endloop
endfacet
facet normal -0.793403 0.000000 -0.608697
outer loop
vertex -28.956295 -2.970357 278.385498
vertex -29.274136 -1.670357 278.799744
vertex -28.956295 -1.670357 278.385498
endloop
endfacet
facet normal -0.608722 0.000000 -0.793384
outer loop
vertex -28.956295 -2.970357 278.385498
vertex -28.956295 -1.670357 278.385498
vertex -28.542080 -2.970357 278.067688
endloop
endfacet
facet normal -0.608726 0.000000 -0.793380
outer loop
vertex -28.542080 -2.970357 278.067688
vertex -28.956295 -1.670357 278.385498
vertex -28.542080 -1.670357 278.067688
endloop
endfacet
facet normal -0.382715 0.000000 -0.923866
outer loop
vertex -28.542080 -2.970357 278.067688
vertex -28.542080 -1.670357 278.067688
vertex -28.059719 -2.970357 277.867859
endloop
endfacet
facet normal -0.382715 0.000000 -0.923866
outer loop
vertex -28.059719 -2.970357 277.867859
vertex -28.542080 -1.670357 278.067688
vertex -28.059719 -1.670357 277.867859
endloop
endfacet
facet normal -0.130481 0.000000 -0.991451
outer loop
vertex -28.059719 -2.970357 277.867859
vertex -28.059719 -1.670357 277.867859
vertex -27.542080 -2.970357 277.799744
endloop
endfacet
facet normal -0.130481 0.000000 -0.991451
outer loop
vertex -27.542080 -2.970357 277.799744
vertex -28.059719 -1.670357 277.867859
vertex -27.542080 -1.670357 277.799744
endloop
endfacet
facet normal 0.000000 0.000000 -1.000000
outer loop
vertex -27.542080 -1.670357 277.799744
vertex -20.042080 -1.670357 277.799744
vertex -27.542080 -2.970357 277.799744
endloop
endfacet
facet normal 0.000000 0.000000 -1.000000
outer loop
vertex -27.542080 -2.970357 277.799744
vertex -20.042080 -1.670357 277.799744
vertex -20.042080 -2.970357 277.799744
endloop
endfacet
facet normal 0.130481 0.000000 -0.991451
outer loop
vertex -20.042080 -2.970357 277.799744
vertex -20.042080 -1.670357 277.799744
vertex -19.524441 -2.970357 277.867859
endloop
endfacet
facet normal 0.130481 0.000000 -0.991451
outer loop
vertex -19.524441 -2.970357 277.867859
vertex -20.042080 -1.670357 277.799744
vertex -19.524441 -1.670357 277.867859
endloop
endfacet
facet normal 0.382715 0.000000 -0.923866
outer loop
vertex -19.524441 -2.970357 277.867859
vertex -19.524441 -1.670357 277.867859
vertex -19.042080 -2.970357 278.067688
endloop
endfacet
facet normal 0.382715 0.000000 -0.923866
outer loop
vertex -19.042080 -2.970357 278.067688
vertex -19.524441 -1.670357 277.867859
vertex -19.042080 -1.670357 278.067688
endloop
endfacet
facet normal 0.608722 0.000000 -0.793384
outer loop
vertex -19.042080 -2.970357 278.067688
vertex -19.042080 -1.670357 278.067688
vertex -18.627865 -2.970357 278.385498
endloop
endfacet
facet normal 0.608726 0.000000 -0.793380
outer loop
vertex -18.627865 -2.970357 278.385498
vertex -19.042080 -1.670357 278.067688
vertex -18.627865 -1.670357 278.385498
endloop
endfacet
facet normal 0.793417 0.000000 -0.608678
outer loop
vertex -18.627865 -2.970357 278.385498
vertex -18.627865 -1.670357 278.385498
vertex -18.310040 -2.970357 278.799744
endloop
endfacet
facet normal 0.793384 0.000000 -0.608722
outer loop
vertex -18.310040 -2.970357 278.799744
vertex -18.627865 -1.670357 278.385498
vertex -18.310040 -1.670357 278.799744
endloop
endfacet
facet normal 0.923872 0.000000 -0.382702
outer loop
vertex -18.310040 -2.970357 278.799744
vertex -18.310040 -1.670357 278.799744
vertex -18.110226 -2.970357 279.282104
endloop
endfacet
facet normal 0.923859 0.000000 -0.382734
outer loop
vertex -18.110226 -2.970357 279.282104
vertex -18.310040 -1.670357 278.799744
vertex -18.110226 -1.670357 279.282104
endloop
endfacet
facet normal 0.991447 0.000000 -0.130513
outer loop
vertex -18.110226 -2.970357 279.282104
vertex -18.110226 -1.670357 279.282104
vertex -18.042080 -2.970357 279.799744
endloop
endfacet
facet normal 0.991445 0.000000 -0.130525
outer loop
vertex -18.042080 -2.970357 279.799744
vertex -18.110226 -1.670357 279.282104
vertex -18.042080 -1.670357 279.799744
endloop
endfacet
facet normal 0.000000 -1.000000 0.000000
outer loop
vertex -22.042080 -2.970357 285.299744
vertex -27.542080 -2.970357 289.299744
vertex -25.542080 -2.970357 285.299744
endloop
endfacet
facet normal 0.000000 -1.000000 0.000000
outer loop
vertex -25.542080 -2.970357 285.299744
vertex -27.542080 -2.970357 289.299744
vertex -29.542080 -2.970357 287.299744
endloop
endfacet
facet normal -0.000000 -1.000000 -0.000000
outer loop
vertex -25.542080 -2.970357 285.299744
vertex -29.542080 -2.970357 287.299744
vertex -29.542080 -2.970357 279.799744
endloop
endfacet
facet normal -0.000000 -1.000000 0.000000
outer loop
vertex -22.042080 -2.970357 281.799744
vertex -18.042080 -2.970357 279.799744
vertex -22.042080 -2.970357 285.299744
endloop
endfacet
facet normal 0.000000 -1.000000 -0.000000
outer loop
vertex -22.042080 -2.970357 285.299744
vertex -18.042080 -2.970357 279.799744
vertex -18.042080 -2.970357 287.299744
endloop
endfacet
facet normal 0.000000 -1.000000 0.000000
outer loop
vertex -22.042080 -2.970357 285.299744
vertex -18.042080 -2.970357 287.299744
vertex -20.042080 -2.970357 289.299744
endloop
endfacet
facet normal 0.000000 -1.000000 0.000000
outer loop
vertex -20.042080 -2.970357 289.299744
vertex -18.042080 -2.970357 287.299744
vertex -18.110226 -2.970357 287.817352
endloop
endfacet
facet normal 0.000000 -1.000000 -0.000001
outer loop
vertex -20.042080 -2.970357 289.299744
vertex -18.110226 -2.970357 287.817352
vertex -18.310040 -2.970357 288.299744
endloop
endfacet
facet normal 0.000000 -1.000000 0.000000
outer loop
vertex -25.542080 -2.970357 281.799744
vertex -20.042080 -2.970357 277.799744
vertex -22.042080 -2.970357 281.799744
endloop
endfacet
facet normal 0.000000 -1.000000 0.000000
outer loop
vertex -22.042080 -2.970357 281.799744
vertex -20.042080 -2.970357 277.799744
vertex -19.524441 -2.970357 277.867859
endloop
endfacet
facet normal 0.000000 -1.000000 -0.000000
outer loop
vertex -22.042080 -2.970357 281.799744
vertex -19.524441 -2.970357 277.867859
vertex -19.042080 -2.970357 278.067688
endloop
endfacet
facet normal 0.000000 -1.000000 0.000000
outer loop
vertex -25.542080 -2.970357 285.299744
vertex -29.542080 -2.970357 279.799744
vertex -25.542080 -2.970357 281.799744
endloop
endfacet
facet normal 0.000000 -1.000000 -0.000000
outer loop
vertex -25.542080 -2.970357 281.799744
vertex -29.542080 -2.970357 279.799744
vertex -29.473934 -2.970357 279.282104
endloop
endfacet
facet normal -0.000000 -1.000000 0.000000
outer loop
vertex -25.542080 -2.970357 281.799744
vertex -29.473934 -2.970357 279.282104
vertex -29.274136 -2.970357 278.799744
endloop
endfacet
facet normal 0.000000 -1.000000 0.000000
outer loop
vertex -19.042080 -2.970357 278.067688
vertex -18.627865 -2.970357 278.385498
vertex -22.042080 -2.970357 281.799744
endloop
endfacet
facet normal 0.000000 -1.000000 -0.000000
outer loop
vertex -22.042080 -2.970357 281.799744
vertex -18.627865 -2.970357 278.385498
vertex -18.310040 -2.970357 278.799744
endloop
endfacet
facet normal 0.000000 -1.000000 0.000000
outer loop
vertex -22.042080 -2.970357 281.799744
vertex -18.310040 -2.970357 278.799744
vertex -18.110226 -2.970357 279.282104
endloop
endfacet
facet normal -0.000000 -1.000000 0.000000
outer loop
vertex -18.110226 -2.970357 279.282104
vertex -18.042080 -2.970357 279.799744
vertex -22.042080 -2.970357 281.799744
endloop
endfacet
facet normal 0.000000 -1.000000 0.000000
outer loop
vertex -18.310040 -2.970357 288.299744
vertex -18.627865 -2.970357 288.713928
vertex -20.042080 -2.970357 289.299744
endloop
endfacet
facet normal 0.000000 -1.000000 0.000002
outer loop
vertex -20.042080 -2.970357 289.299744
vertex -18.627865 -2.970357 288.713928
vertex -19.042080 -2.970357 289.031769
endloop
endfacet
facet normal 0.000000 -1.000000 0.000000
outer loop
vertex -20.042080 -2.970357 289.299744
vertex -19.042080 -2.970357 289.031769
vertex -19.524441 -2.970357 289.231567
endloop
endfacet
facet normal 0.000000 -1.000000 -0.000000
outer loop
vertex -20.042080 -2.970357 289.299744
vertex -27.542080 -2.970357 289.299744
vertex -22.042080 -2.970357 285.299744
endloop
endfacet
facet normal 0.000000 -1.000000 0.000000
outer loop
vertex -28.059719 -2.970357 289.231567
vertex -28.542080 -2.970357 289.031769
vertex -27.542080 -2.970357 289.299744
endloop
endfacet
facet normal 0.000000 -1.000000 0.000002
outer loop
vertex -27.542080 -2.970357 289.299744
vertex -28.542080 -2.970357 289.031769
vertex -28.956295 -2.970357 288.713928
endloop
endfacet
facet normal 0.000000 -1.000000 -0.000001
outer loop
vertex -27.542080 -2.970357 289.299744
vertex -28.956295 -2.970357 288.713928
vertex -29.274136 -2.970357 288.299744
endloop
endfacet
facet normal 0.000000 -1.000000 0.000000
outer loop
vertex -29.274136 -2.970357 288.299744
vertex -29.473934 -2.970357 287.817352
vertex -27.542080 -2.970357 289.299744
endloop
endfacet
facet normal 0.000000 -1.000000 0.000000
outer loop
vertex -27.542080 -2.970357 289.299744
vertex -29.473934 -2.970357 287.817352
vertex -29.542080 -2.970357 287.299744
endloop
endfacet
facet normal -0.000000 -1.000000 0.000000
outer loop
vertex -29.274136 -2.970357 278.799744
vertex -28.956295 -2.970357 278.385498
vertex -25.542080 -2.970357 281.799744
endloop
endfacet
facet normal -0.000000 -1.000000 -0.000000
outer loop
vertex -25.542080 -2.970357 281.799744
vertex -28.956295 -2.970357 278.385498
vertex -28.542080 -2.970357 278.067688
endloop
endfacet
facet normal -0.000000 -1.000000 -0.000000
outer loop
vertex -25.542080 -2.970357 281.799744
vertex -28.542080 -2.970357 278.067688
vertex -28.059719 -2.970357 277.867859
endloop
endfacet
facet normal -0.000000 -1.000000 0.000000
outer loop
vertex -28.059719 -2.970357 277.867859
vertex -27.542080 -2.970357 277.799744
vertex -25.542080 -2.970357 281.799744
endloop
endfacet
facet normal 0.000000 -1.000000 -0.000000
outer loop
vertex -25.542080 -2.970357 281.799744
vertex -27.542080 -2.970357 277.799744
vertex -20.042080 -2.970357 277.799744
endloop
endfacet
facet normal 0.000000 -1.000000 -0.000000
outer loop
vertex -11.292080 -1.670356 269.383057
vertex -27.542080 -1.670357 277.799744
vertex -36.292080 -1.670356 269.383057
endloop
endfacet
facet normal -0.000000 -1.000000 0.000000
outer loop
vertex -36.292080 -1.670356 269.383057
vertex -27.542080 -1.670357 277.799744
vertex -28.059719 -1.670357 277.867859
endloop
endfacet
facet normal -0.000000 -1.000000 0.000000
outer loop
vertex -36.292080 -1.670356 269.383057
vertex -28.059719 -1.670357 277.867859
vertex -28.542080 -1.670357 278.067688
endloop
endfacet
facet normal -0.000000 -1.000000 -0.000000
outer loop
vertex -13.792080 -1.670357 294.883057
vertex -18.042080 -1.670357 287.299744
vertex -11.292080 -1.670356 269.383057
endloop
endfacet
facet normal -0.000000 -1.000000 -0.000000
outer loop
vertex -11.292080 -1.670356 269.383057
vertex -18.042080 -1.670357 287.299744
vertex -18.042080 -1.670357 279.799744
endloop
endfacet
facet normal 0.000000 -1.000000 0.000000
outer loop
vertex -11.292080 -1.670356 269.383057
vertex -18.042080 -1.670357 279.799744
vertex -18.110226 -1.670357 279.282104
endloop
endfacet
facet normal -0.000000 -1.000000 -0.000000
outer loop
vertex -23.792080 -1.670357 296.883057
vertex -19.524441 -1.670357 289.231567
vertex -13.792080 -1.670357 294.883057
endloop
endfacet
facet normal -0.000000 -1.000000 0.000000
outer loop
vertex -13.792080 -1.670357 294.883057
vertex -19.524441 -1.670357 289.231567
vertex -19.042080 -1.670357 289.031769
endloop
endfacet
facet normal 0.000000 -1.000000 -0.000000
outer loop
vertex -13.792080 -1.670357 294.883057
vertex -19.042080 -1.670357 289.031769
vertex -18.627865 -1.670357 288.713928
endloop
endfacet
facet normal 0.000000 -1.000000 -0.000000
outer loop
vertex -33.792080 -1.670357 294.883057
vertex -28.059719 -1.670357 289.231567
vertex -23.792080 -1.670357 296.883057
endloop
endfacet
facet normal 0.000000 -1.000000 0.000000
outer loop
vertex -23.792080 -1.670357 296.883057
vertex -28.059719 -1.670357 289.231567
vertex -27.542080 -1.670357 289.299744
endloop
endfacet
facet normal 0.000000 -1.000000 -0.000000
outer loop
vertex -23.792080 -1.670357 296.883057
vertex -27.542080 -1.670357 289.299744
vertex -20.042080 -1.670357 289.299744
endloop
endfacet
facet normal 0.000000 -1.000000 -0.000000
outer loop
vertex -36.292080 -1.670356 269.383057
vertex -29.542080 -1.670357 287.299744
vertex -33.792080 -1.670357 294.883057
endloop
endfacet
facet normal 0.000000 -1.000000 0.000000
outer loop
vertex -33.792080 -1.670357 294.883057
vertex -29.542080 -1.670357 287.299744
vertex -29.473934 -1.670357 287.817352
endloop
endfacet
facet normal 0.000000 -1.000000 -0.000000
outer loop
vertex -33.792080 -1.670357 294.883057
vertex -29.473934 -1.670357 287.817352
vertex -29.274136 -1.670357 288.299744
endloop
endfacet
facet normal 0.000000 -1.000000 0.000000
outer loop
vertex -18.110226 -1.670357 279.282104
vertex -18.310040 -1.670357 278.799744
vertex -11.292080 -1.670356 269.383057
endloop
endfacet
facet normal 0.000000 -1.000000 -0.000000
outer loop
vertex -11.292080 -1.670356 269.383057
vertex -18.310040 -1.670357 278.799744
vertex -18.627865 -1.670357 278.385498
endloop
endfacet
facet normal -0.000000 -1.000000 -0.000000
outer loop
vertex -11.292080 -1.670356 269.383057
vertex -18.627865 -1.670357 278.385498
vertex -19.042080 -1.670357 278.067688
endloop
endfacet
facet normal 0.000000 -1.000000 0.000000
outer loop
vertex -19.042080 -1.670357 278.067688
vertex -19.524441 -1.670357 277.867859
vertex -11.292080 -1.670356 269.383057
endloop
endfacet
facet normal 0.000000 -1.000000 0.000000
outer loop
vertex -11.292080 -1.670356 269.383057
vertex -19.524441 -1.670357 277.867859
vertex -20.042080 -1.670357 277.799744
endloop
endfacet
facet normal 0.000000 -1.000000 -0.000000
outer loop
vertex -11.292080 -1.670356 269.383057
vertex -20.042080 -1.670357 277.799744
vertex -27.542080 -1.670357 277.799744
endloop
endfacet
facet normal 0.000000 -1.000000 -0.000000
outer loop
vertex -28.542080 -1.670357 278.067688
vertex -28.956295 -1.670357 278.385498
vertex -36.292080 -1.670356 269.383057
endloop
endfacet
facet normal -0.000000 -1.000000 -0.000000
outer loop
vertex -36.292080 -1.670356 269.383057
vertex -28.956295 -1.670357 278.385498
vertex -29.274136 -1.670357 278.799744
endloop
endfacet
facet normal -0.000000 -1.000000 0.000000
outer loop
vertex -36.292080 -1.670356 269.383057
vertex -29.274136 -1.670357 278.799744
vertex -29.473934 -1.670357 279.282104
endloop
endfacet
facet normal -0.000000 -1.000000 0.000000
outer loop
vertex -29.473934 -1.670357 279.282104
vertex -29.542080 -1.670357 279.799744
vertex -36.292080 -1.670356 269.383057
endloop
endfacet
facet normal 0.000000 -1.000000 -0.000000
outer loop
vertex -36.292080 -1.670356 269.383057
vertex -29.542080 -1.670357 279.799744
vertex -29.542080 -1.670357 287.299744
endloop
endfacet
facet normal 0.000000 -1.000000 0.000000
outer loop
vertex -29.274136 -1.670357 288.299744
vertex -28.956295 -1.670357 288.713928
vertex -33.792080 -1.670357 294.883057
endloop
endfacet
facet normal -0.000000 -1.000000 -0.000000
outer loop
vertex -33.792080 -1.670357 294.883057
vertex -28.956295 -1.670357 288.713928
vertex -28.542080 -1.670357 289.031769
endloop
endfacet
facet normal 0.000000 -1.000000 0.000000
outer loop
vertex -33.792080 -1.670357 294.883057
vertex -28.542080 -1.670357 289.031769
vertex -28.059719 -1.670357 289.231567
endloop
endfacet
facet normal -0.000000 -1.000000 0.000000
outer loop
vertex -20.042080 -1.670357 289.299744
vertex -19.524441 -1.670357 289.231567
vertex -23.792080 -1.670357 296.883057
endloop
endfacet
facet normal -0.000000 -1.000000 0.000000
outer loop
vertex -18.627865 -1.670357 288.713928
vertex -18.310040 -1.670357 288.299744
vertex -13.792080 -1.670357 294.883057
endloop
endfacet
facet normal -0.000000 -1.000000 -0.000000
outer loop
vertex -13.792080 -1.670357 294.883057
vertex -18.310040 -1.670357 288.299744
vertex -18.110226 -1.670357 287.817352
endloop
endfacet
facet normal -0.000000 -1.000000 0.000000
outer loop
vertex -13.792080 -1.670357 294.883057
vertex -18.110226 -1.670357 287.817352
vertex -18.042080 -1.670357 287.299744
endloop
endfacet
facet normal -0.196116 0.000000 -0.980581
outer loop
vertex -23.792080 -1.670357 296.883057
vertex -13.792080 -1.670357 294.883057
vertex -23.792080 -4.670357 296.883057
endloop
endfacet
facet normal -0.196116 0.000000 -0.980581
outer loop
vertex -23.792080 -4.670357 296.883057
vertex -13.792080 -1.670357 294.883057
vertex -13.792080 -4.670357 294.883057
endloop
endfacet
facet normal -0.995229 0.000000 -0.097571
outer loop
vertex -13.792080 -1.670357 294.883057
vertex -11.292080 -1.670356 269.383057
vertex -13.792080 -4.670357 294.883057
endloop
endfacet
facet normal -0.995229 0.000000 -0.097571
outer loop
vertex -13.792080 -4.670357 294.883057
vertex -11.292080 -1.670356 269.383057
vertex -11.292080 -4.670356 269.383057
endloop
endfacet
facet normal 0.000000 0.000000 1.000000
outer loop
vertex -11.292080 -1.670356 269.383057
vertex -36.292080 -1.670356 269.383057
vertex -11.292080 -4.670356 269.383057
endloop
endfacet
facet normal 0.000000 0.000000 1.000000
outer loop
vertex -11.292080 -4.670356 269.383057
vertex -36.292080 -1.670356 269.383057
vertex -36.292080 -4.670356 269.383057
endloop
endfacet
facet normal 0.995229 0.000000 -0.097571
outer loop
vertex -36.292080 -1.670356 269.383057
vertex -33.792080 -1.670357 294.883057
vertex -36.292080 -4.670356 269.383057
endloop
endfacet
facet normal 0.995229 0.000000 -0.097571
outer loop
vertex -36.292080 -4.670356 269.383057
vertex -33.792080 -1.670357 294.883057
vertex -33.792080 -4.670357 294.883057
endloop
endfacet
facet normal 0.196116 0.000000 -0.980581
outer loop
vertex -33.792080 -1.670357 294.883057
vertex -23.792080 -1.670357 296.883057
vertex -33.792080 -4.670357 294.883057
endloop
endfacet
facet normal 0.196116 0.000000 -0.980581
outer loop
vertex -33.792080 -4.670357 294.883057
vertex -23.792080 -1.670357 296.883057
vertex -23.792080 -4.670357 296.883057
endloop
endfacet
facet normal 0.000000 -1.000000 -0.000000
outer loop
vertex -22.042080 -1.670357 285.299744
vertex -25.542080 -1.670357 285.299744
vertex -22.042080 -1.670357 281.799744
endloop
endfacet
facet normal 0.000000 -1.000000 0.000000
outer loop
vertex -22.042080 -1.670357 281.799744
vertex -25.542080 -1.670357 285.299744
vertex -25.542080 -1.670357 281.799744
endloop
endfacet
facet normal 0.000000 1.000000 0.000000
outer loop
vertex -33.792080 -4.670357 294.883057
vertex -23.792080 -4.670357 296.883057
vertex -27.235989 -4.670357 289.306458
endloop
endfacet
facet normal 0.000000 1.000000 -0.000002
outer loop
vertex -33.792080 -4.670357 294.883057
vertex -27.235989 -4.670357 289.306458
vertex -27.542080 -4.670357 289.306458
endloop
endfacet
facet normal -0.000000 1.000000 0.000000
outer loop
vertex -29.542080 -4.670357 284.233032
vertex -36.292080 -4.670356 269.383057
vertex -33.792080 -4.670357 294.883057
endloop
endfacet
facet normal -0.000000 1.000000 0.000000
outer loop
vertex -29.542080 -4.670357 287.306458
vertex -29.542080 -4.670357 284.233032
vertex -33.792080 -4.670357 294.883057
endloop
endfacet
facet normal 0.000000 1.000000 0.000000
outer loop
vertex -33.792080 -4.670357 294.883057
vertex -27.542080 -4.670357 289.306458
vertex -28.059719 -4.670357 289.238281
endloop
endfacet
facet normal 0.000000 1.000000 0.000000
outer loop
vertex -33.792080 -4.670357 294.883057
vertex -28.059719 -4.670357 289.238281
vertex -28.542080 -4.670357 289.038513
endloop
endfacet
facet normal -0.000000 1.000000 0.000001
outer loop
vertex -29.473934 -4.670357 287.824097
vertex -29.542080 -4.670357 287.306458
vertex -33.792080 -4.670357 294.883057
endloop
endfacet
facet normal -0.000000 1.000000 0.000000
outer loop
vertex -29.274136 -4.670357 288.306458
vertex -29.473934 -4.670357 287.824097
vertex -33.792080 -4.670357 294.883057
endloop
endfacet
facet normal 0.000001 1.000000 0.000001
outer loop
vertex -33.792080 -4.670357 294.883057
vertex -28.542080 -4.670357 289.038513
vertex -28.956295 -4.670357 288.720642
endloop
endfacet
facet normal -0.000000 1.000000 -0.000000
outer loop
vertex -33.792080 -4.670357 294.883057
vertex -28.956295 -4.670357 288.720642
vertex -29.274136 -4.670357 288.306458
endloop
endfacet
facet normal 0.000000 1.000000 0.000000
outer loop
vertex -36.292080 -4.670356 269.383057
vertex -29.542080 -4.670357 284.233032
vertex -29.542080 -4.670357 279.806458
endloop
endfacet
facet normal 0.000000 1.000000 -0.000000
outer loop
vertex -36.292080 -4.670356 269.383057
vertex -29.542080 -4.670357 279.806458
vertex -29.473934 -4.670357 279.288818
endloop
endfacet
facet normal -0.000000 1.000000 0.000000
outer loop
vertex -18.042080 -4.670357 283.001160
vertex -18.042080 -4.670357 284.233093
vertex -11.292080 -4.670356 269.383057
endloop
endfacet
facet normal -0.000000 1.000000 0.000000
outer loop
vertex -18.042080 -4.670357 279.806458
vertex -18.042080 -4.670357 283.001160
vertex -11.292080 -4.670356 269.383057
endloop
endfacet
facet normal 0.000000 1.000000 0.000001
outer loop
vertex -36.292080 -4.670356 269.383057
vertex -29.473934 -4.670357 279.288818
vertex -29.274136 -4.670357 278.806458
endloop
endfacet
facet normal 0.000000 1.000000 0.000000
outer loop
vertex -36.292080 -4.670356 269.383057
vertex -29.274136 -4.670357 278.806458
vertex -28.956295 -4.670357 278.392212
endloop
endfacet
facet normal -0.000000 1.000000 -0.000001
outer loop
vertex -18.110226 -4.670357 279.288818
vertex -18.042080 -4.670357 279.806458
vertex -11.292080 -4.670356 269.383057
endloop
endfacet
facet normal -0.000000 1.000000 0.000001
outer loop
vertex -18.310024 -4.670357 278.806458
vertex -18.110226 -4.670357 279.288818
vertex -11.292080 -4.670356 269.383057
endloop
endfacet
facet normal 0.000000 1.000000 -0.000001
outer loop
vertex -36.292080 -4.670356 269.383057
vertex -28.956295 -4.670357 278.392212
vertex -28.542080 -4.670357 278.074402
endloop
endfacet
facet normal 0.000000 1.000000 0.000000
outer loop
vertex -36.292080 -4.670356 269.383057
vertex -28.542080 -4.670357 278.074402
vertex -28.059719 -4.670357 277.874573
endloop
endfacet
facet normal -0.000000 1.000000 0.000000
outer loop
vertex -18.627865 -4.670357 278.392212
vertex -18.310024 -4.670357 278.806458
vertex -11.292080 -4.670356 269.383057
endloop
endfacet
facet normal -0.000000 1.000000 -0.000001
outer loop
vertex -19.042080 -4.670357 278.074402
vertex -18.627865 -4.670357 278.392212
vertex -11.292080 -4.670356 269.383057
endloop
endfacet
facet normal 0.000000 1.000000 0.000000
outer loop
vertex -11.292080 -4.670356 269.383057
vertex -36.292080 -4.670356 269.383057
vertex -28.059719 -4.670357 277.874573
endloop
endfacet
facet normal 0.000000 1.000000 -0.000003
outer loop
vertex -11.292080 -4.670356 269.383057
vertex -28.059719 -4.670357 277.874573
vertex -27.542080 -4.670357 277.806458
endloop
endfacet
facet normal -0.000000 1.000000 0.000000
outer loop
vertex -19.524441 -4.670357 277.874573
vertex -19.042080 -4.670357 278.074402
vertex -11.292080 -4.670356 269.383057
endloop
endfacet
facet normal 0.000000 1.000000 0.000000
outer loop
vertex -11.292080 -4.670356 269.383057
vertex -27.542080 -4.670357 277.806458
vertex -20.042080 -4.670357 277.806458
endloop
endfacet
facet normal -0.000000 1.000000 0.000000
outer loop
vertex -20.042080 -4.670357 277.806458
vertex -19.524441 -4.670357 277.874573
vertex -11.292080 -4.670356 269.383057
endloop
endfacet
facet normal 0.000000 1.000000 0.000000
outer loop
vertex -13.792080 -4.670357 294.883057
vertex -11.292080 -4.670356 269.383057
vertex -18.042080 -4.670357 284.233093
endloop
endfacet
facet normal 0.000000 1.000000 0.000000
outer loop
vertex -13.792080 -4.670357 294.883057
vertex -18.042080 -4.670357 284.233093
vertex -18.042080 -4.670357 287.306458
endloop
endfacet
facet normal 0.000000 1.000000 0.000000
outer loop
vertex -20.348171 -4.670357 289.306458
vertex -23.792080 -4.670357 296.883057
vertex -13.792080 -4.670357 294.883057
endloop
endfacet
facet normal 0.000000 1.000000 -0.000002
outer loop
vertex -20.042080 -4.670357 289.306458
vertex -20.348171 -4.670357 289.306458
vertex -13.792080 -4.670357 294.883057
endloop
endfacet
facet normal 0.000000 1.000000 0.000001
outer loop
vertex -13.792080 -4.670357 294.883057
vertex -18.042080 -4.670357 287.306458
vertex -18.110226 -4.670357 287.824097
endloop
endfacet
facet normal 0.000000 1.000000 -0.000001
outer loop
vertex -13.792080 -4.670357 294.883057
vertex -18.110226 -4.670357 287.824097
vertex -18.310040 -4.670357 288.306458
endloop
endfacet
facet normal 0.000000 1.000000 0.000000
outer loop
vertex -19.524441 -4.670357 289.238281
vertex -20.042080 -4.670357 289.306458
vertex -13.792080 -4.670357 294.883057
endloop
endfacet
facet normal 0.000000 1.000000 0.000000
outer loop
vertex -19.042080 -4.670357 289.038513
vertex -19.524441 -4.670357 289.238281
vertex -13.792080 -4.670357 294.883057
endloop
endfacet
facet normal 0.000000 1.000000 0.000000
outer loop
vertex -13.792080 -4.670357 294.883057
vertex -18.310040 -4.670357 288.306458
vertex -18.627865 -4.670357 288.720642
endloop
endfacet
facet normal -0.000001 1.000000 0.000001
outer loop
vertex -18.627865 -4.670357 288.720642
vertex -19.042080 -4.670357 289.038513
vertex -13.792080 -4.670357 294.883057
endloop
endfacet
facet normal -0.991445 0.000000 0.130523
outer loop
vertex -29.473934 -4.670357 287.824097
vertex -29.473934 -3.403627 287.824097
vertex -29.542080 -3.403627 287.306458
endloop
endfacet
facet normal -0.991445 0.000000 0.130523
outer loop
vertex -29.473934 -4.670357 287.824097
vertex -29.542080 -3.403627 287.306458
vertex -29.542080 -4.670357 287.306458
endloop
endfacet
facet normal 0.000000 0.000000 -1.000000
outer loop
vertex -25.542080 -4.670357 285.306458
vertex -25.542080 -3.403627 285.306458
vertex -22.042080 -3.403627 285.306458
endloop
endfacet
facet normal 0.000000 0.000000 -1.000000
outer loop
vertex -25.542080 -4.670357 285.306458
vertex -22.042080 -3.403627 285.306458
vertex -22.042080 -4.670357 285.306458
endloop
endfacet
facet normal 0.793377 0.000014 -0.608731
outer loop
vertex -18.627865 -4.670357 278.392212
vertex -18.627865 -3.403626 278.392242
vertex -18.310040 -3.403626 278.806458
endloop
endfacet
facet normal 0.793363 0.000010 -0.608749
outer loop
vertex -18.627865 -4.670357 278.392212
vertex -18.310040 -3.403626 278.806458
vertex -18.310024 -4.670357 278.806458
endloop
endfacet
facet normal -0.382630 0.000000 0.923902
outer loop
vertex -28.059719 -4.670357 289.238281
vertex -28.059719 -3.403627 289.238281
vertex -28.542080 -3.403627 289.038513
endloop
endfacet
facet normal -0.382630 0.000000 0.923902
outer loop
vertex -28.059719 -4.670357 289.238281
vertex -28.542080 -3.403627 289.038513
vertex -28.542080 -4.670357 289.038513
endloop
endfacet
facet normal -1.000000 0.000000 0.000000
outer loop
vertex -22.042080 -4.670357 285.306458
vertex -22.042080 -3.403627 285.306458
vertex -22.042080 -3.403627 281.806458
endloop
endfacet
facet normal -1.000000 0.000000 0.000000
outer loop
vertex -22.042080 -4.670357 285.306458
vertex -22.042080 -3.403627 281.806458
vertex -22.042080 -4.670357 281.806458
endloop
endfacet
facet normal 0.000000 0.000000 1.000000
outer loop
vertex -20.348171 -4.670357 289.306458
vertex -20.042080 -4.670357 289.306458
vertex -20.042080 -3.403627 289.306458
endloop
endfacet
facet normal 0.000000 0.000000 1.000000
outer loop
vertex -20.042080 -3.403627 289.306458
vertex -27.542080 -3.403627 289.306458
vertex -27.542080 -4.670357 289.306458
endloop
endfacet
facet normal 0.000000 0.000000 1.000000
outer loop
vertex -27.235989 -4.670357 289.306458
vertex -20.348171 -4.670357 289.306458
vertex -20.042080 -3.403627 289.306458
endloop
endfacet
facet normal 0.000000 0.000000 1.000000
outer loop
vertex -20.042080 -3.403627 289.306458
vertex -27.542080 -4.670357 289.306458
vertex -27.235989 -4.670357 289.306458
endloop
endfacet
facet normal -0.608735 0.000020 -0.793374
outer loop
vertex -28.956295 -4.670357 278.392212
vertex -28.956295 -3.403626 278.392242
vertex -28.542080 -3.403626 278.074402
endloop
endfacet
facet normal -0.608735 0.000000 -0.793374
outer loop
vertex -28.956295 -4.670357 278.392212
vertex -28.542080 -3.403626 278.074402
vertex -28.542080 -4.670357 278.074402
endloop
endfacet
facet normal -0.923881 0.000000 -0.382679
outer loop
vertex -29.473934 -4.670357 279.288818
vertex -29.473934 -3.403626 279.288818
vertex -29.274136 -3.403626 278.806458
endloop
endfacet
facet normal -0.923881 0.000000 -0.382680
outer loop
vertex -29.473934 -4.670357 279.288818
vertex -29.274136 -3.403626 278.806458
vertex -29.274136 -4.670357 278.806458
endloop
endfacet
facet normal -0.991444 0.000000 -0.130532
outer loop
vertex -29.542080 -4.670357 279.806458
vertex -29.542080 -3.403627 279.806458
vertex -29.473934 -3.403626 279.288818
endloop
endfacet
facet normal -0.991447 0.000000 -0.130511
outer loop
vertex -29.542080 -4.670357 279.806458
vertex -29.473934 -3.403626 279.288818
vertex -29.473934 -4.670357 279.288818
endloop
endfacet
facet normal 0.923871 0.000000 0.382704
outer loop
vertex -18.110226 -4.670357 287.824097
vertex -18.110226 -3.403627 287.824097
vertex -18.310040 -3.403627 288.306458
endloop
endfacet
facet normal 0.923871 0.000000 0.382704
outer loop
vertex -18.110226 -4.670357 287.824097
vertex -18.310040 -3.403627 288.306458
vertex -18.310040 -4.670357 288.306458
endloop
endfacet
facet normal 1.000000 0.000000 0.000000
outer loop
vertex -18.042080 -4.670357 283.001160
vertex -18.042080 -4.670357 279.806458
vertex -18.042080 -3.403627 279.806458
endloop
endfacet
facet normal 1.000000 0.000000 0.000000
outer loop
vertex -18.042080 -3.403627 279.806458
vertex -18.042080 -3.403627 287.306458
vertex -18.042080 -4.670357 287.306458
endloop
endfacet
facet normal 1.000000 -0.000005 0.000000
outer loop
vertex -18.042080 -4.670357 284.233093
vertex -18.042080 -4.670357 283.001160
vertex -18.042080 -3.403627 279.806458
endloop
endfacet
facet normal 1.000000 0.000000 0.000000
outer loop
vertex -18.042080 -3.403627 279.806458
vertex -18.042080 -4.670357 287.306458
vertex -18.042080 -4.670357 284.233093
endloop
endfacet
facet normal -0.130584 0.000000 0.991437
outer loop
vertex -27.542080 -4.670357 289.306458
vertex -27.542080 -3.403627 289.306458
vertex -28.059719 -3.403627 289.238281
endloop
endfacet
facet normal -0.130584 0.000000 0.991437
outer loop
vertex -27.542080 -4.670357 289.306458
vertex -28.059719 -3.403627 289.238281
vertex -28.059719 -4.670357 289.238281
endloop
endfacet
facet normal -0.130493 0.000024 -0.991449
outer loop
vertex -28.059719 -4.670357 277.874573
vertex -28.059719 -3.403626 277.874603
vertex -27.542080 -3.403626 277.806458
endloop
endfacet
facet normal -0.130493 0.000000 -0.991449
outer loop
vertex -28.059719 -4.670357 277.874573
vertex -27.542080 -3.403626 277.806458
vertex -27.542080 -4.670357 277.806458
endloop
endfacet
facet normal 0.382630 0.000000 0.923902
outer loop
vertex -19.042080 -4.670357 289.038513
vertex -19.042080 -3.403627 289.038513
vertex -19.524441 -3.403627 289.238281
endloop
endfacet
facet normal 0.382630 0.000000 0.923902
outer loop
vertex -19.042080 -4.670357 289.038513
vertex -19.524441 -3.403627 289.238281
vertex -19.524441 -4.670357 289.238281
endloop
endfacet
facet normal 0.382709 0.000022 -0.923869
outer loop
vertex -19.524441 -4.670357 277.874573
vertex -19.524441 -3.403626 277.874603
vertex -19.042080 -3.403626 278.074402
endloop
endfacet
facet normal 0.382709 0.000000 -0.923869
outer loop
vertex -19.524441 -4.670357 277.874573
vertex -19.042080 -3.403626 278.074402
vertex -19.042080 -4.670357 278.074402
endloop
endfacet
facet normal -0.793329 0.000000 -0.608794
outer loop
vertex -29.274136 -4.670357 278.806458
vertex -29.274136 -3.403626 278.806458
vertex -28.956295 -3.403626 278.392242
endloop
endfacet
facet normal -0.793397 0.000016 -0.608705
outer loop
vertex -29.274136 -4.670357 278.806458
vertex -28.956295 -3.403626 278.392242
vertex -28.956295 -4.670357 278.392212
endloop
endfacet
facet normal -0.608793 0.000000 0.793329
outer loop
vertex -28.542080 -4.670357 289.038513
vertex -28.542080 -3.403627 289.038513
vertex -28.956295 -3.403627 288.720642
endloop
endfacet
facet normal -0.608793 0.000000 0.793329
outer loop
vertex -28.542080 -4.670357 289.038513
vertex -28.956295 -3.403627 288.720642
vertex -28.956295 -4.670357 288.720642
endloop
endfacet
facet normal 0.991445 0.000000 0.130523
outer loop
vertex -18.042080 -4.670357 287.306458
vertex -18.042080 -3.403627 287.306458
vertex -18.110226 -3.403627 287.824097
endloop
endfacet
facet normal 0.991445 0.000000 0.130523
outer loop
vertex -18.042080 -4.670357 287.306458
vertex -18.110226 -3.403627 287.824097
vertex -18.110226 -4.670357 287.824097
endloop
endfacet
facet normal -1.000000 0.000000 0.000000
outer loop
vertex -29.542080 -4.670357 284.233032
vertex -29.542080 -4.670357 287.306458
vertex -29.542080 -3.403627 287.306458
endloop
endfacet
facet normal -1.000000 0.000000 0.000000
outer loop
vertex -29.542080 -3.403627 287.306458
vertex -29.542080 -3.403627 279.806458
vertex -29.542080 -4.670357 279.806458
endloop
endfacet
facet normal -1.000000 -0.000005 0.000000
outer loop
vertex -29.542080 -3.403627 287.306458
vertex -29.542080 -4.670357 279.806458
vertex -29.542080 -4.670357 284.233032
endloop
endfacet
facet normal 0.608793 0.000000 0.793329
outer loop
vertex -18.627865 -4.670357 288.720642
vertex -18.627865 -3.403627 288.720642
vertex -19.042080 -3.403627 289.038513
endloop
endfacet
facet normal 0.608793 0.000000 0.793329
outer loop
vertex -18.627865 -4.670357 288.720642
vertex -19.042080 -3.403627 289.038513
vertex -19.042080 -4.670357 289.038513
endloop
endfacet
facet normal 0.000000 0.000000 -1.000000
outer loop
vertex -27.542080 -4.670357 277.806458
vertex -27.542080 -3.403626 277.806458
vertex -20.042080 -3.403626 277.806458
endloop
endfacet
facet normal 0.000000 0.000000 -1.000000
outer loop
vertex -27.542080 -4.670357 277.806458
vertex -20.042080 -3.403626 277.806458
vertex -20.042080 -4.670357 277.806458
endloop
endfacet
facet normal 1.000000 0.000000 0.000000
outer loop
vertex -25.542080 -4.670357 281.806458
vertex -25.542080 -3.403627 281.806458
vertex -25.542080 -3.403627 285.306458
endloop
endfacet
facet normal 1.000000 0.000000 0.000000
outer loop
vertex -25.542080 -4.670357 281.806458
vertex -25.542080 -3.403627 285.306458
vertex -25.542080 -4.670357 285.306458
endloop
endfacet
facet normal 0.608793 0.000000 -0.793329
outer loop
vertex -19.042080 -4.670357 278.074402
vertex -19.042080 -3.403626 278.074402
vertex -18.627865 -3.403626 278.392242
endloop
endfacet
facet normal 0.608677 0.000018 -0.793418
outer loop
vertex -19.042080 -4.670357 278.074402
vertex -18.627865 -3.403626 278.392242
vertex -18.627865 -4.670357 278.392212
endloop
endfacet
facet normal 0.991446 0.000000 -0.130521
outer loop
vertex -18.110226 -4.670357 279.288818
vertex -18.110226 -3.403626 279.288818
vertex -18.042080 -3.403627 279.806458
endloop
endfacet
facet normal 0.991445 0.000000 -0.130523
outer loop
vertex -18.110226 -4.670357 279.288818
vertex -18.042080 -3.403627 279.806458
vertex -18.042080 -4.670357 279.806458
endloop
endfacet
facet normal 0.000000 1.000000 0.000000
outer loop
vertex -20.348171 -4.670357 289.306458
vertex -27.235989 -4.670357 289.306458
vertex -23.792080 -4.670357 296.883057
endloop
endfacet
facet normal 0.000000 1.000000 0.000000
outer loop
vertex -25.542080 -4.670357 285.306458
vertex -22.042080 -4.670357 285.306458
vertex -22.042080 -4.670357 281.806458
endloop
endfacet
facet normal 0.000000 1.000000 0.000000
outer loop
vertex -25.542080 -4.670357 285.306458
vertex -22.042080 -4.670357 281.806458
vertex -25.542080 -4.670357 281.806458
endloop
endfacet
facet normal -0.793328 0.000000 0.608794
outer loop
vertex -28.956295 -4.670357 288.720642
vertex -28.956295 -3.403627 288.720642
vertex -29.274136 -3.403627 288.306458
endloop
endfacet
facet normal -0.793329 0.000000 0.608793
outer loop
vertex -28.956295 -4.670357 288.720642
vertex -29.274136 -3.403627 288.306458
vertex -29.274136 -4.670357 288.306458
endloop
endfacet
facet normal 0.000000 0.000000 1.000000
outer loop
vertex -22.042080 -4.670357 281.806458
vertex -22.042080 -3.403627 281.806458
vertex -25.542080 -3.403627 281.806458
endloop
endfacet
facet normal 0.000000 0.000000 1.000000
outer loop
vertex -22.042080 -4.670357 281.806458
vertex -25.542080 -3.403627 281.806458
vertex -25.542080 -4.670357 281.806458
endloop
endfacet
facet normal -0.923881 0.000000 0.382680
outer loop
vertex -29.274136 -4.670357 288.306458
vertex -29.274136 -3.403627 288.306458
vertex -29.473934 -3.403627 287.824097
endloop
endfacet
facet normal -0.923881 0.000000 0.382679
outer loop
vertex -29.274136 -4.670357 288.306458
vertex -29.473934 -3.403627 287.824097
vertex -29.473934 -4.670357 287.824097
endloop
endfacet
facet normal 0.130493 0.000000 -0.991449
outer loop
vertex -20.042080 -4.670357 277.806458
vertex -20.042080 -3.403626 277.806458
vertex -19.524441 -3.403626 277.874603
endloop
endfacet
facet normal 0.130493 0.000024 -0.991449
outer loop
vertex -20.042080 -4.670357 277.806458
vertex -19.524441 -3.403626 277.874603
vertex -19.524441 -4.670357 277.874573
endloop
endfacet
facet normal 0.130584 0.000000 0.991437
outer loop
vertex -19.524441 -4.670357 289.238281
vertex -19.524441 -3.403627 289.238281
vertex -20.042080 -3.403627 289.306458
endloop
endfacet
facet normal 0.130584 0.000000 0.991437
outer loop
vertex -19.524441 -4.670357 289.238281
vertex -20.042080 -3.403627 289.306458
vertex -20.042080 -4.670357 289.306458
endloop
endfacet
facet normal 0.793343 0.000000 0.608775
outer loop
vertex -18.310040 -4.670357 288.306458
vertex -18.310040 -3.403627 288.306458
vertex -18.627865 -3.403627 288.720642
endloop
endfacet
facet normal 0.793343 0.000000 0.608775
outer loop
vertex -18.310040 -4.670357 288.306458
vertex -18.627865 -3.403627 288.720642
vertex -18.627865 -4.670357 288.720642
endloop
endfacet
facet normal -0.382709 0.000000 -0.923869
outer loop
vertex -28.542080 -4.670357 278.074402
vertex -28.542080 -3.403626 278.074402
vertex -28.059719 -3.403626 277.874603
endloop
endfacet
facet normal -0.382709 0.000023 -0.923869
outer loop
vertex -28.542080 -4.670357 278.074402
vertex -28.059719 -3.403626 277.874603
vertex -28.059719 -4.670357 277.874573
endloop
endfacet
facet normal 0.923871 0.000009 -0.382704
outer loop
vertex -18.310024 -4.670357 278.806458
vertex -18.310040 -3.403626 278.806458
vertex -18.110226 -3.403626 279.288818
endloop
endfacet
facet normal 0.923881 0.000000 -0.382680
outer loop
vertex -18.310024 -4.670357 278.806458
vertex -18.110226 -3.403626 279.288818
vertex -18.110226 -4.670357 279.288818
endloop
endfacet
endsolid K
