solid P
facet normal 0.000000 1.000000 0.000000
outer loop
vertex -97.024445 -3.403627 281.514862
vertex -97.542068 -3.403627 281.446716
vertex -98.059708 -3.403627 281.514862
endloop
endfacet
facet normal 0.000000 1.000000 0.000001
outer loop
vertex -97.024445 -3.403627 281.514862
vertex -98.059708 -3.403627 281.514862
vertex -98.542068 -3.403627 281.714661
endloop
endfacet
facet normal 0.000000 1.000000 0.000000
outer loop
vertex -96.542084 -3.403627 281.714661
vertex -97.024445 -3.403627 281.514862
vertex -98.542068 -3.403627 281.714661
endloop
endfacet
facet normal 0.000000 1.000000 0.000001
outer loop
vertex -96.542084 -3.403627 281.714661
vertex -98.542068 -3.403627 281.714661
vertex -98.956284 -3.403627 282.032501
endloop
endfacet
facet normal 0.000000 1.000000 -0.000002
outer loop
vertex -96.127869 -3.403627 282.032501
vertex -96.542084 -3.403627 281.714661
vertex -98.956284 -3.403627 282.032501
endloop
endfacet
facet normal 0.000000 1.000000 0.000000
outer loop
vertex -96.127869 -3.403627 282.032501
vertex -98.956284 -3.403627 282.032501
vertex -99.274124 -3.403627 282.446716
endloop
endfacet
facet normal 0.000000 1.000000 0.000000
outer loop
vertex -95.810043 -3.403627 282.446716
vertex -96.127869 -3.403627 282.032501
vertex -99.274124 -3.403627 282.446716
endloop
endfacet
facet normal 0.000000 1.000000 0.000001
outer loop
vertex -95.810043 -3.403627 282.446716
vertex -99.274124 -3.403627 282.446716
vertex -99.473923 -3.403627 282.929077
endloop
endfacet
facet normal 0.000000 1.000000 -0.000001
outer loop
vertex -95.610229 -3.403627 282.929077
vertex -95.810043 -3.403627 282.446716
vertex -99.473923 -3.403627 282.929077
endloop
endfacet
facet normal 0.000000 1.000000 0.000000
outer loop
vertex -99.542068 -3.403627 283.446716
vertex -95.542084 -3.403627 285.196716
vertex -95.542084 -3.403627 283.446716
endloop
endfacet
facet normal 0.000000 1.000000 0.000000
outer loop
vertex -99.542068 -3.403627 283.446716
vertex -95.542084 -3.403627 283.446716
vertex -95.610229 -3.403627 282.929077
endloop
endfacet
facet normal 0.000000 1.000000 0.000000
outer loop
vertex -99.473923 -3.403627 282.929077
vertex -99.542068 -3.403627 283.446716
vertex -95.610229 -3.403627 282.929077
endloop
endfacet
facet normal 0.000000 1.000000 0.000000
outer loop
vertex -97.542068 -3.403627 289.196716
vertex -99.542068 -3.403627 287.196716
vertex -99.473923 -3.403627 287.714355
endloop
endfacet
facet normal 0.000000 1.000000 0.000000
outer loop
vertex -99.274124 -3.403627 288.196716
vertex -97.542068 -3.403627 289.196716
vertex -99.473923 -3.403627 287.714355
endloop
endfacet
facet normal 0.000000 1.000000 -0.000001
outer loop
vertex -97.542068 -3.403627 289.196716
vertex -99.274124 -3.403627 288.196716
vertex -98.956284 -3.403627 288.610931
endloop
endfacet
facet normal 0.000000 1.000000 0.000002
outer loop
vertex -97.542068 -3.403627 289.196716
vertex -98.956284 -3.403627 288.610931
vertex -98.542068 -3.403627 288.928772
endloop
endfacet
facet normal 0.000000 1.000000 0.000000
outer loop
vertex -98.059708 -3.403627 289.128571
vertex -97.542068 -3.403627 289.196716
vertex -98.542068 -3.403627 288.928772
endloop
endfacet
facet normal 0.000000 1.000000 0.000000
outer loop
vertex -95.542084 -3.403627 285.196716
vertex -99.542068 -3.403627 283.446716
vertex -99.542068 -3.403627 287.196716
endloop
endfacet
facet normal 0.000000 1.000000 -0.000000
outer loop
vertex -95.542084 -3.403627 285.196716
vertex -99.542068 -3.403627 287.196716
vertex -97.542068 -3.403627 289.196716
endloop
endfacet
facet normal 0.000000 1.000000 0.000000
outer loop
vertex -92.042084 -3.403627 285.196716
vertex -95.542084 -3.403627 285.196716
vertex -97.542068 -3.403627 289.196716
endloop
endfacet
facet normal 0.000000 1.000000 -0.000000
outer loop
vertex -90.042084 -3.403627 289.196716
vertex -92.042084 -3.403627 285.196716
vertex -97.542068 -3.403627 289.196716
endloop
endfacet
facet normal 0.000000 1.000000 0.000000
outer loop
vertex -89.042084 -3.403627 288.928772
vertex -90.042084 -3.403627 289.196716
vertex -89.524445 -3.403627 289.128571
endloop
endfacet
facet normal 0.000000 1.000000 0.000002
outer loop
vertex -90.042084 -3.403627 289.196716
vertex -89.042084 -3.403627 288.928772
vertex -88.627869 -3.403627 288.610931
endloop
endfacet
facet normal 0.000000 1.000000 -0.000001
outer loop
vertex -90.042084 -3.403627 289.196716
vertex -88.627869 -3.403627 288.610931
vertex -88.310043 -3.403627 288.196716
endloop
endfacet
facet normal 0.000000 1.000000 0.000000
outer loop
vertex -88.110229 -3.403627 287.714355
vertex -90.042084 -3.403627 289.196716
vertex -88.310043 -3.403627 288.196716
endloop
endfacet
facet normal 0.000000 1.000000 0.000000
outer loop
vertex -89.524445 -3.403627 281.514862
vertex -90.042084 -3.403627 281.446716
vertex -90.559723 -3.403627 281.514862
endloop
endfacet
facet normal 0.000000 1.000000 0.000001
outer loop
vertex -89.524445 -3.403627 281.514862
vertex -90.559723 -3.403627 281.514862
vertex -91.042084 -3.403627 281.714661
endloop
endfacet
facet normal 0.000000 1.000000 0.000000
outer loop
vertex -89.042084 -3.403627 281.714661
vertex -89.524445 -3.403627 281.514862
vertex -91.042084 -3.403627 281.714661
endloop
endfacet
facet normal 0.000000 1.000000 -0.000000
outer loop
vertex -89.042084 -3.403627 281.714661
vertex -91.042084 -3.403627 281.714661
vertex -91.456299 -3.403627 282.032501
endloop
endfacet
facet normal 0.000000 1.000000 0.000000
outer loop
vertex -88.627869 -3.403627 282.032501
vertex -89.042084 -3.403627 281.714661
vertex -91.456299 -3.403627 282.032501
endloop
endfacet
facet normal 0.000000 1.000000 -0.000001
outer loop
vertex -88.627869 -3.403627 282.032501
vertex -91.456299 -3.403627 282.032501
vertex -91.774139 -3.403627 282.446716
endloop
endfacet
facet normal 0.000000 1.000000 0.000001
outer loop
vertex -88.310043 -3.403627 282.446716
vertex -88.627869 -3.403627 282.032501
vertex -91.774139 -3.403627 282.446716
endloop
endfacet
facet normal 0.000000 1.000000 -0.000000
outer loop
vertex -88.310043 -3.403627 282.446716
vertex -91.774139 -3.403627 282.446716
vertex -91.973938 -3.403627 282.929077
endloop
endfacet
facet normal 0.000000 1.000000 0.000000
outer loop
vertex -88.110229 -3.403627 282.929077
vertex -88.310043 -3.403627 282.446716
vertex -91.973938 -3.403627 282.929077
endloop
endfacet
facet normal 0.000000 1.000000 -0.000001
outer loop
vertex -88.110229 -3.403627 282.929077
vertex -91.973938 -3.403627 282.929077
vertex -92.042084 -3.403627 283.446716
endloop
endfacet
facet normal 0.000000 1.000000 0.000000
outer loop
vertex -88.042084 -3.403627 283.446716
vertex -88.110229 -3.403627 282.929077
vertex -92.042084 -3.403627 283.446716
endloop
endfacet
facet normal 0.000000 1.000000 0.000000
outer loop
vertex -88.042084 -3.403627 283.446716
vertex -92.042084 -3.403627 283.446716
vertex -92.042084 -3.403627 285.196716
endloop
endfacet
facet normal -0.000000 1.000000 0.000000
outer loop
vertex -88.042084 -3.403627 287.196716
vertex -88.042084 -3.403627 283.446716
vertex -92.042084 -3.403627 285.196716
endloop
endfacet
facet normal 0.000000 1.000000 0.000000
outer loop
vertex -88.042084 -3.403627 287.196716
vertex -92.042084 -3.403627 285.196716
vertex -90.042084 -3.403627 289.196716
endloop
endfacet
facet normal 0.000000 1.000000 0.000000
outer loop
vertex -88.110229 -3.403627 287.714355
vertex -88.042084 -3.403627 287.196716
vertex -90.042084 -3.403627 289.196716
endloop
endfacet
facet normal 0.000000 1.000000 0.000000
outer loop
vertex -93.274445 -3.403626 277.764862
vertex -93.792084 -3.403626 277.696716
vertex -94.309723 -3.403626 277.764862
endloop
endfacet
facet normal 0.000000 1.000000 0.000000
outer loop
vertex -93.274445 -3.403626 277.764862
vertex -94.309723 -3.403626 277.764862
vertex -94.792084 -3.403626 277.964661
endloop
endfacet
facet normal 0.000000 1.000000 0.000000
outer loop
vertex -92.792084 -3.403626 277.964661
vertex -93.274445 -3.403626 277.764862
vertex -94.792084 -3.403626 277.964661
endloop
endfacet
facet normal 0.000000 1.000000 -0.000002
outer loop
vertex -92.792084 -3.403626 277.964661
vertex -94.792084 -3.403626 277.964661
vertex -95.206299 -3.403626 278.282501
endloop
endfacet
facet normal 0.000000 1.000000 0.000002
outer loop
vertex -92.377869 -3.403626 278.282501
vertex -92.792084 -3.403626 277.964661
vertex -95.206299 -3.403626 278.282501
endloop
endfacet
facet normal 0.000000 1.000000 0.000001
outer loop
vertex -92.377869 -3.403626 278.282501
vertex -95.206299 -3.403626 278.282501
vertex -95.524139 -3.403626 278.696716
endloop
endfacet
facet normal 0.000000 1.000000 0.000000
outer loop
vertex -92.060043 -3.403626 278.696716
vertex -92.377869 -3.403626 278.282501
vertex -95.524139 -3.403626 278.696716
endloop
endfacet
facet normal 0.000000 1.000000 -0.000000
outer loop
vertex -92.060043 -3.403626 278.696716
vertex -95.524139 -3.403626 278.696716
vertex -95.723938 -3.403626 279.179077
endloop
endfacet
facet normal 0.000000 1.000000 0.000000
outer loop
vertex -91.860229 -3.403626 279.179077
vertex -92.060043 -3.403626 278.696716
vertex -95.723938 -3.403626 279.179077
endloop
endfacet
facet normal 0.000000 1.000000 0.000000
outer loop
vertex -94.309723 -3.403627 281.628571
vertex -93.792084 -3.403627 281.696716
vertex -93.274445 -3.403627 281.628571
endloop
endfacet
facet normal 0.000000 1.000000 -0.000001
outer loop
vertex -94.309723 -3.403627 281.628571
vertex -93.274445 -3.403627 281.628571
vertex -92.792084 -3.403627 281.428772
endloop
endfacet
facet normal 0.000000 1.000000 0.000000
outer loop
vertex -94.792084 -3.403627 281.428772
vertex -94.309723 -3.403627 281.628571
vertex -92.792084 -3.403627 281.428772
endloop
endfacet
facet normal 0.000000 1.000000 0.000000
outer loop
vertex -94.792084 -3.403627 281.428772
vertex -92.792084 -3.403627 281.428772
vertex -92.377869 -3.403627 281.110931
endloop
endfacet
facet normal 0.000000 1.000000 0.000000
outer loop
vertex -95.206299 -3.403627 281.110931
vertex -94.792084 -3.403627 281.428772
vertex -92.377869 -3.403627 281.110931
endloop
endfacet
facet normal 0.000000 1.000000 0.000000
outer loop
vertex -95.206299 -3.403627 281.110931
vertex -92.377869 -3.403627 281.110931
vertex -92.060043 -3.403627 280.696716
endloop
endfacet
facet normal 0.000000 1.000000 0.000000
outer loop
vertex -95.524139 -3.403627 280.696716
vertex -95.206299 -3.403627 281.110931
vertex -92.060043 -3.403627 280.696716
endloop
endfacet
facet normal 0.000000 1.000000 0.000001
outer loop
vertex -95.524139 -3.403627 280.696716
vertex -92.060043 -3.403627 280.696716
vertex -91.860229 -3.403627 280.214355
endloop
endfacet
facet normal 0.000000 1.000000 -0.000001
outer loop
vertex -95.723938 -3.403627 280.214355
vertex -95.524139 -3.403627 280.696716
vertex -91.860229 -3.403627 280.214355
endloop
endfacet
facet normal 0.000000 1.000000 0.000001
outer loop
vertex -95.723938 -3.403627 280.214355
vertex -91.860229 -3.403627 280.214355
vertex -91.792084 -3.403626 279.696716
endloop
endfacet
facet normal 0.000000 1.000000 0.000000
outer loop
vertex -95.792084 -3.403626 279.696716
vertex -95.723938 -3.403627 280.214355
vertex -91.792084 -3.403626 279.696716
endloop
endfacet
facet normal 0.000000 1.000000 0.000000
outer loop
vertex -95.792084 -3.403626 279.696716
vertex -91.792084 -3.403626 279.696716
vertex -91.860229 -3.403626 279.179077
endloop
endfacet
facet normal 0.000000 1.000000 -0.000001
outer loop
vertex -95.723938 -3.403626 279.179077
vertex -95.792084 -3.403626 279.696716
vertex -91.860229 -3.403626 279.179077
endloop
endfacet
facet normal -0.993239 0.000000 0.116086
outer loop
vertex -96.711227 -2.970357 287.991577
vertex -96.711227 -1.670357 287.991577
vertex -96.792084 -2.970357 287.299744
endloop
endfacet
facet normal -0.993240 0.000000 0.116079
outer loop
vertex -96.792084 -2.970357 287.299744
vertex -96.711227 -1.670357 287.991577
vertex -96.792084 -1.670357 287.299744
endloop
endfacet
facet normal -0.993241 0.000000 -0.116071
outer loop
vertex -96.792084 -2.970357 287.299744
vertex -96.792084 -1.670357 287.299744
vertex -96.711227 -2.970357 286.607880
endloop
endfacet
facet normal -0.993239 0.000000 -0.116086
outer loop
vertex -96.711227 -2.970357 286.607880
vertex -96.792084 -1.670357 287.299744
vertex -96.711227 -1.670357 286.607880
endloop
endfacet
facet normal -0.939699 0.000000 -0.342003
outer loop
vertex -96.711227 -2.970357 286.607880
vertex -96.711227 -1.670357 286.607880
vertex -96.472992 -1.670357 285.953308
endloop
endfacet
facet normal -0.939690 0.000000 0.342027
outer loop
vertex -96.711227 -2.970357 287.991577
vertex -96.472992 -2.970357 288.646118
vertex -96.711227 -1.670357 287.991577
endloop
endfacet
facet normal -0.939698 0.000000 0.342005
outer loop
vertex -96.711227 -1.670357 287.991577
vertex -96.472992 -2.970357 288.646118
vertex -96.472992 -1.670357 288.646118
endloop
endfacet
facet normal -0.835478 0.000000 0.549523
outer loop
vertex -96.472992 -1.670357 288.646118
vertex -96.472992 -2.970357 288.646118
vertex -96.090225 -2.970357 289.228088
endloop
endfacet
facet normal -0.835478 0.000000 0.549523
outer loop
vertex -96.472992 -1.670357 288.646118
vertex -96.090225 -2.970357 289.228088
vertex -96.090225 -1.670357 289.228088
endloop
endfacet
facet normal -0.686264 0.000000 0.727353
outer loop
vertex -96.090225 -1.670357 289.228088
vertex -96.090225 -2.970357 289.228088
vertex -95.583557 -2.970357 289.706085
endloop
endfacet
facet normal -0.686193 0.000000 0.727420
outer loop
vertex -96.090225 -1.670357 289.228088
vertex -95.583557 -2.970357 289.706085
vertex -95.583557 -1.670357 289.706085
endloop
endfacet
facet normal -0.500054 0.000000 0.865994
outer loop
vertex -95.583557 -1.670357 289.706085
vertex -95.583557 -2.970357 289.706085
vertex -94.980331 -2.970357 290.054382
endloop
endfacet
facet normal -0.500004 0.000000 0.866023
outer loop
vertex -95.583557 -1.670357 289.706085
vertex -94.980331 -2.970357 290.054382
vertex -94.980331 -1.670357 290.054382
endloop
endfacet
facet normal -0.286783 0.000000 0.957996
outer loop
vertex -94.980331 -1.670357 290.054382
vertex -94.980331 -2.970357 290.054382
vertex -94.313034 -2.970357 290.254150
endloop
endfacet
facet normal -0.286799 0.000000 0.957991
outer loop
vertex -94.980331 -1.670357 290.054382
vertex -94.313034 -2.970357 290.254150
vertex -94.313034 -1.670357 290.254150
endloop
endfacet
facet normal -0.058236 0.000000 0.998303
outer loop
vertex -94.313034 -1.670357 290.254150
vertex -94.313034 -2.970357 290.254150
vertex -93.617661 -2.970357 290.294647
endloop
endfacet
facet normal -0.058035 0.000000 0.998314
outer loop
vertex -94.313034 -1.670357 290.254150
vertex -93.617661 -2.970357 290.294647
vertex -93.617661 -1.670357 290.294647
endloop
endfacet
facet normal 0.173544 0.000000 0.984826
outer loop
vertex -93.617661 -1.670357 290.294647
vertex -93.617661 -2.970357 290.294647
vertex -92.931671 -2.970357 290.173706
endloop
endfacet
facet normal 0.173693 0.000000 0.984800
outer loop
vertex -93.617661 -1.670357 290.294647
vertex -92.931671 -2.970357 290.173706
vertex -92.931671 -1.670357 290.173706
endloop
endfacet
facet normal 0.396065 0.000000 0.918222
outer loop
vertex -92.931671 -1.670357 290.173706
vertex -92.931671 -2.970357 290.173706
vertex -92.292084 -2.970357 289.897797
endloop
endfacet
facet normal 0.396122 0.000000 0.918198
outer loop
vertex -92.931671 -1.670357 290.173706
vertex -92.292084 -2.970357 289.897797
vertex -92.292084 -1.670357 289.897797
endloop
endfacet
facet normal 0.597186 0.000000 0.802103
outer loop
vertex -92.292084 -1.670357 289.897797
vertex -92.292084 -2.970357 289.897797
vertex -91.733368 -2.970357 289.481842
endloop
endfacet
facet normal 0.597143 0.000000 0.802135
outer loop
vertex -92.292084 -1.670357 289.897797
vertex -91.733368 -2.970357 289.481842
vertex -91.733368 -1.670357 289.481842
endloop
endfacet
facet normal 0.766069 0.000000 0.642759
outer loop
vertex -91.733368 -1.670357 289.481842
vertex -91.733368 -2.970357 289.481842
vertex -91.285629 -2.970357 288.948242
endloop
endfacet
facet normal 0.766013 0.000000 0.642825
outer loop
vertex -91.733368 -1.670357 289.481842
vertex -91.285629 -2.970357 288.948242
vertex -91.285629 -1.670357 288.948242
endloop
endfacet
facet normal 0.893628 0.000000 0.448809
outer loop
vertex -91.285629 -1.670357 288.948242
vertex -91.285629 -2.970357 288.948242
vertex -90.973007 -2.970357 288.325775
endloop
endfacet
facet normal 0.893628 0.000000 0.448809
outer loop
vertex -91.285629 -1.670357 288.948242
vertex -90.973007 -2.970357 288.325775
vertex -90.973007 -1.670357 288.325775
endloop
endfacet
facet normal 0.973050 0.000000 0.230593
outer loop
vertex -90.973007 -1.670357 288.325775
vertex -90.973007 -2.970357 288.325775
vertex -90.812378 -2.970357 287.648010
endloop
endfacet
facet normal 0.973043 0.000000 0.230623
outer loop
vertex -90.973007 -1.670357 288.325775
vertex -90.812378 -2.970357 287.648010
vertex -90.812378 -1.670357 287.648010
endloop
endfacet
facet normal 1.000000 0.000000 0.000000
outer loop
vertex -90.812378 -1.670357 287.648010
vertex -90.812378 -2.970357 287.648010
vertex -90.812378 -2.970357 286.951447
endloop
endfacet
facet normal 1.000000 0.000000 0.000000
outer loop
vertex -90.812378 -1.670357 287.648010
vertex -90.812378 -2.970357 286.951447
vertex -90.812378 -1.670357 286.951447
endloop
endfacet
facet normal 0.973047 0.000000 -0.230608
outer loop
vertex -90.812378 -1.670357 286.951447
vertex -90.812378 -2.970357 286.951447
vertex -90.973007 -2.970357 286.273682
endloop
endfacet
facet normal 0.973043 0.000000 -0.230623
outer loop
vertex -90.812378 -1.670357 286.951447
vertex -90.973007 -2.970357 286.273682
vertex -90.973007 -1.670357 286.273682
endloop
endfacet
facet normal 0.893641 0.000000 -0.448782
outer loop
vertex -90.973007 -1.670357 286.273682
vertex -90.973007 -2.970357 286.273682
vertex -91.285629 -2.970357 285.651184
endloop
endfacet
facet normal 0.893641 0.000000 -0.448782
outer loop
vertex -90.973007 -1.670357 286.273682
vertex -91.285629 -2.970357 285.651184
vertex -91.285629 -1.670357 285.651184
endloop
endfacet
facet normal 0.766034 0.000000 -0.642800
outer loop
vertex -91.285629 -1.670357 285.651184
vertex -91.285629 -2.970357 285.651184
vertex -91.733368 -2.970357 285.117615
endloop
endfacet
facet normal 0.766013 0.000000 -0.642825
outer loop
vertex -91.285629 -1.670357 285.651184
vertex -91.733368 -2.970357 285.117615
vertex -91.733368 -1.670357 285.117615
endloop
endfacet
facet normal 0.597186 0.000000 -0.802103
outer loop
vertex -91.733368 -1.670357 285.117615
vertex -91.733368 -2.970357 285.117615
vertex -92.292084 -2.970357 284.701660
endloop
endfacet
facet normal 0.597143 0.000000 -0.802135
outer loop
vertex -91.733368 -1.670357 285.117615
vertex -92.292084 -2.970357 284.701660
vertex -92.292084 -1.670357 284.701660
endloop
endfacet
facet normal 0.396065 0.000000 -0.918222
outer loop
vertex -92.292084 -1.670357 284.701660
vertex -92.292084 -2.970357 284.701660
vertex -92.931671 -2.970357 284.425751
endloop
endfacet
facet normal 0.396122 0.000000 -0.918198
outer loop
vertex -92.292084 -1.670357 284.701660
vertex -92.931671 -2.970357 284.425751
vertex -92.931671 -1.670357 284.425751
endloop
endfacet
facet normal 0.173627 0.000000 -0.984811
outer loop
vertex -92.931671 -1.670357 284.425751
vertex -92.931671 -2.970357 284.425751
vertex -93.617661 -2.970357 284.304810
endloop
endfacet
facet normal 0.173627 0.000000 -0.984811
outer loop
vertex -92.931671 -1.670357 284.425751
vertex -93.617661 -2.970357 284.304810
vertex -93.617661 -1.670357 284.304810
endloop
endfacet
facet normal -0.058102 0.000000 -0.998311
outer loop
vertex -93.617661 -1.670357 284.304810
vertex -93.617661 -2.970357 284.304810
vertex -94.313034 -2.970357 284.345276
endloop
endfacet
facet normal -0.058035 0.000000 -0.998314
outer loop
vertex -93.617661 -1.670357 284.304810
vertex -94.313034 -2.970357 284.345276
vertex -94.313034 -1.670357 284.345276
endloop
endfacet
facet normal -0.286923 0.000000 -0.957954
outer loop
vertex -94.313034 -1.670357 284.345276
vertex -94.313034 -2.970357 284.345276
vertex -94.980331 -2.970357 284.545074
endloop
endfacet
facet normal -0.286799 0.000000 -0.957991
outer loop
vertex -94.313034 -1.670357 284.345276
vertex -94.980331 -2.970357 284.545074
vertex -94.980331 -1.670357 284.545074
endloop
endfacet
facet normal -0.500054 0.000000 -0.865994
outer loop
vertex -94.980331 -1.670357 284.545074
vertex -94.980331 -2.970357 284.545074
vertex -95.583557 -2.970357 284.893372
endloop
endfacet
facet normal -0.499953 0.000000 -0.866052
outer loop
vertex -94.980331 -1.670357 284.545074
vertex -95.583557 -2.970357 284.893372
vertex -95.583557 -1.670357 284.893372
endloop
endfacet
facet normal -0.686220 0.000000 -0.727394
outer loop
vertex -95.583557 -1.670357 284.893372
vertex -95.583557 -2.970357 284.893372
vertex -96.090225 -2.970357 285.371338
endloop
endfacet
facet normal -0.686193 0.000000 -0.727420
outer loop
vertex -95.583557 -1.670357 284.893372
vertex -96.090225 -2.970357 285.371338
vertex -96.090225 -1.670357 285.371338
endloop
endfacet
facet normal -0.835499 0.000000 -0.549492
outer loop
vertex -96.090225 -1.670357 285.371338
vertex -96.090225 -2.970357 285.371338
vertex -96.472992 -2.970357 285.953308
endloop
endfacet
facet normal -0.835478 0.000000 -0.549523
outer loop
vertex -96.090225 -1.670357 285.371338
vertex -96.472992 -2.970357 285.953308
vertex -96.472992 -1.670357 285.953308
endloop
endfacet
facet normal -0.939698 0.000000 -0.342005
outer loop
vertex -96.472992 -1.670357 285.953308
vertex -96.472992 -2.970357 285.953308
vertex -96.711227 -2.970357 286.607880
endloop
endfacet
facet normal 0.000000 -1.000000 0.000000
outer loop
vertex -96.792084 -2.970357 287.299744
vertex -96.711227 -2.970357 286.607880
vertex -96.711227 -2.970357 287.991577
endloop
endfacet
facet normal 0.000000 -1.000000 0.000000
outer loop
vertex -96.711227 -2.970357 287.991577
vertex -96.711227 -2.970357 286.607880
vertex -96.472992 -2.970357 288.646118
endloop
endfacet
facet normal 0.000000 -1.000000 0.000000
outer loop
vertex -96.472992 -2.970357 288.646118
vertex -96.711227 -2.970357 286.607880
vertex -96.472992 -2.970357 285.953308
endloop
endfacet
facet normal 0.000000 -1.000000 0.000000
outer loop
vertex -96.472992 -2.970357 288.646118
vertex -96.472992 -2.970357 285.953308
vertex -96.090225 -2.970357 289.228088
endloop
endfacet
facet normal 0.000000 -1.000000 0.000000
outer loop
vertex -96.090225 -2.970357 289.228088
vertex -96.472992 -2.970357 285.953308
vertex -96.090225 -2.970357 285.371338
endloop
endfacet
facet normal 0.000000 -1.000000 0.000000
outer loop
vertex -96.090225 -2.970357 289.228088
vertex -96.090225 -2.970357 285.371338
vertex -95.583557 -2.970357 289.706085
endloop
endfacet
facet normal 0.000000 -1.000000 -0.000000
outer loop
vertex -95.583557 -2.970357 289.706085
vertex -96.090225 -2.970357 285.371338
vertex -95.583557 -2.970357 284.893372
endloop
endfacet
facet normal 0.000000 -1.000000 -0.000000
outer loop
vertex -95.583557 -2.970357 289.706085
vertex -95.583557 -2.970357 284.893372
vertex -94.980331 -2.970357 290.054382
endloop
endfacet
facet normal -0.000000 -1.000000 0.000000
outer loop
vertex -94.980331 -2.970357 290.054382
vertex -95.583557 -2.970357 284.893372
vertex -94.313034 -2.970357 290.254150
endloop
endfacet
facet normal 0.000000 -1.000000 -0.000000
outer loop
vertex -94.313034 -2.970357 290.254150
vertex -95.583557 -2.970357 284.893372
vertex -93.617661 -2.970357 290.294647
endloop
endfacet
facet normal 0.000000 -1.000000 -0.000000
outer loop
vertex -93.617661 -2.970357 290.294647
vertex -95.583557 -2.970357 284.893372
vertex -92.931671 -2.970357 290.173706
endloop
endfacet
facet normal -0.000000 -1.000000 0.000000
outer loop
vertex -92.931671 -2.970357 290.173706
vertex -95.583557 -2.970357 284.893372
vertex -92.292084 -2.970357 289.897797
endloop
endfacet
facet normal -0.000000 -1.000000 0.000000
outer loop
vertex -92.292084 -2.970357 289.897797
vertex -95.583557 -2.970357 284.893372
vertex -91.733368 -2.970357 289.481842
endloop
endfacet
facet normal -0.000000 -1.000000 0.000000
outer loop
vertex -91.733368 -2.970357 289.481842
vertex -95.583557 -2.970357 284.893372
vertex -91.285629 -2.970357 288.948242
endloop
endfacet
facet normal -0.000000 -1.000000 -0.000000
outer loop
vertex -91.285629 -2.970357 288.948242
vertex -95.583557 -2.970357 284.893372
vertex -90.973007 -2.970357 288.325775
endloop
endfacet
facet normal -0.000000 -1.000000 0.000000
outer loop
vertex -90.973007 -2.970357 288.325775
vertex -95.583557 -2.970357 284.893372
vertex -90.812378 -2.970357 287.648010
endloop
endfacet
facet normal -0.000000 -1.000000 0.000000
outer loop
vertex -90.812378 -2.970357 287.648010
vertex -95.583557 -2.970357 284.893372
vertex -90.812378 -2.970357 286.951447
endloop
endfacet
facet normal -0.000000 -1.000000 0.000000
outer loop
vertex -90.812378 -2.970357 286.951447
vertex -95.583557 -2.970357 284.893372
vertex -90.973007 -2.970357 286.273682
endloop
endfacet
facet normal -0.000000 -1.000000 0.000001
outer loop
vertex -90.973007 -2.970357 286.273682
vertex -95.583557 -2.970357 284.893372
vertex -91.285629 -2.970357 285.651184
endloop
endfacet
facet normal 0.000000 -1.000000 0.000000
outer loop
vertex -91.285629 -2.970357 285.651184
vertex -95.583557 -2.970357 284.893372
vertex -91.733368 -2.970357 285.117615
endloop
endfacet
facet normal 0.000000 -1.000000 -0.000000
outer loop
vertex -91.733368 -2.970357 285.117615
vertex -95.583557 -2.970357 284.893372
vertex -94.980331 -2.970357 284.545074
endloop
endfacet
facet normal 0.000000 -1.000000 -0.000001
outer loop
vertex -91.733368 -2.970357 285.117615
vertex -94.980331 -2.970357 284.545074
vertex -92.292084 -2.970357 284.701660
endloop
endfacet
facet normal 0.000000 -1.000000 0.000001
outer loop
vertex -92.292084 -2.970357 284.701660
vertex -94.980331 -2.970357 284.545074
vertex -92.931671 -2.970357 284.425751
endloop
endfacet
facet normal 0.000000 -1.000000 -0.000001
outer loop
vertex -92.931671 -2.970357 284.425751
vertex -94.980331 -2.970357 284.545074
vertex -94.313034 -2.970357 284.345276
endloop
endfacet
facet normal 0.000000 -1.000000 0.000004
outer loop
vertex -92.931671 -2.970357 284.425751
vertex -94.313034 -2.970357 284.345276
vertex -93.617661 -2.970357 284.304810
endloop
endfacet
facet normal -0.196116 0.000000 -0.980581
outer loop
vertex -93.792084 -1.670357 296.883057
vertex -83.792084 -1.670357 294.883057
vertex -93.792084 -4.670357 296.883057
endloop
endfacet
facet normal -0.196116 0.000000 -0.980581
outer loop
vertex -93.792084 -4.670357 296.883057
vertex -83.792084 -1.670357 294.883057
vertex -83.792084 -4.670357 294.883057
endloop
endfacet
facet normal -0.995229 0.000000 -0.097571
outer loop
vertex -83.792084 -1.670357 294.883057
vertex -81.292084 -1.670356 269.383057
vertex -83.792084 -4.670357 294.883057
endloop
endfacet
facet normal -0.995229 0.000000 -0.097571
outer loop
vertex -83.792084 -4.670357 294.883057
vertex -81.292084 -1.670356 269.383057
vertex -81.292084 -4.670356 269.383057
endloop
endfacet
facet normal 0.000000 0.000000 1.000000
outer loop
vertex -81.292084 -1.670356 269.383057
vertex -106.292068 -1.670356 269.383057
vertex -81.292084 -4.670356 269.383057
endloop
endfacet
facet normal 0.000000 0.000000 1.000000
outer loop
vertex -81.292084 -4.670356 269.383057
vertex -106.292068 -1.670356 269.383057
vertex -106.292068 -4.670356 269.383057
endloop
endfacet
facet normal 0.995229 0.000000 -0.097571
outer loop
vertex -106.292068 -1.670356 269.383057
vertex -103.792068 -1.670357 294.883057
vertex -106.292068 -4.670356 269.383057
endloop
endfacet
facet normal 0.995229 0.000000 -0.097571
outer loop
vertex -106.292068 -4.670356 269.383057
vertex -103.792068 -1.670357 294.883057
vertex -103.792068 -4.670357 294.883057
endloop
endfacet
facet normal 0.196116 0.000000 -0.980581
outer loop
vertex -103.792068 -1.670357 294.883057
vertex -93.792084 -1.670357 296.883057
vertex -103.792068 -4.670357 294.883057
endloop
endfacet
facet normal 0.196116 0.000000 -0.980581
outer loop
vertex -103.792068 -4.670357 294.883057
vertex -93.792084 -1.670357 296.883057
vertex -93.792084 -4.670357 296.883057
endloop
endfacet
facet normal 0.000000 -1.000000 -0.000000
outer loop
vertex -96.711227 -1.670357 286.607880
vertex -96.792084 -1.670357 287.299744
vertex -103.792068 -1.670357 294.883057
endloop
endfacet
facet normal 0.000000 -1.000000 0.000000
outer loop
vertex -103.792068 -1.670357 294.883057
vertex -96.792084 -1.670357 287.299744
vertex -96.711227 -1.670357 287.991577
endloop
endfacet
facet normal 0.000000 -1.000000 -0.000000
outer loop
vertex -103.792068 -1.670357 294.883057
vertex -96.711227 -1.670357 287.991577
vertex -96.472992 -1.670357 288.646118
endloop
endfacet
facet normal -0.000000 -1.000000 0.000000
outer loop
vertex -96.472992 -1.670357 288.646118
vertex -96.090225 -1.670357 289.228088
vertex -103.792068 -1.670357 294.883057
endloop
endfacet
facet normal 0.000000 -1.000000 0.000000
outer loop
vertex -103.792068 -1.670357 294.883057
vertex -96.090225 -1.670357 289.228088
vertex -95.583557 -1.670357 289.706085
endloop
endfacet
facet normal 0.000000 -1.000000 -0.000000
outer loop
vertex -103.792068 -1.670357 294.883057
vertex -95.583557 -1.670357 289.706085
vertex -93.792084 -1.670357 296.883057
endloop
endfacet
facet normal 0.000000 -1.000000 0.000000
outer loop
vertex -93.792084 -1.670357 296.883057
vertex -95.583557 -1.670357 289.706085
vertex -94.980331 -1.670357 290.054382
endloop
endfacet
facet normal 0.000000 -1.000000 -0.000000
outer loop
vertex -93.792084 -1.670357 296.883057
vertex -94.980331 -1.670357 290.054382
vertex -94.313034 -1.670357 290.254150
endloop
endfacet
facet normal 0.000000 -1.000000 -0.000000
outer loop
vertex -94.313034 -1.670357 290.254150
vertex -93.617661 -1.670357 290.294647
vertex -93.792084 -1.670357 296.883057
endloop
endfacet
facet normal -0.000000 -1.000000 -0.000000
outer loop
vertex -93.792084 -1.670357 296.883057
vertex -93.617661 -1.670357 290.294647
vertex -92.931671 -1.670357 290.173706
endloop
endfacet
facet normal -0.000000 -1.000000 -0.000000
outer loop
vertex -93.792084 -1.670357 296.883057
vertex -92.931671 -1.670357 290.173706
vertex -92.292084 -1.670357 289.897797
endloop
endfacet
facet normal -0.000000 -1.000000 0.000000
outer loop
vertex -92.292084 -1.670357 289.897797
vertex -91.733368 -1.670357 289.481842
vertex -93.792084 -1.670357 296.883057
endloop
endfacet
facet normal -0.000000 -1.000000 -0.000000
outer loop
vertex -93.792084 -1.670357 296.883057
vertex -91.733368 -1.670357 289.481842
vertex -83.792084 -1.670357 294.883057
endloop
endfacet
facet normal 0.000000 -1.000000 0.000000
outer loop
vertex -83.792084 -1.670357 294.883057
vertex -91.733368 -1.670357 289.481842
vertex -91.285629 -1.670357 288.948242
endloop
endfacet
facet normal -0.000000 -1.000000 -0.000000
outer loop
vertex -83.792084 -1.670357 294.883057
vertex -91.285629 -1.670357 288.948242
vertex -90.973007 -1.670357 288.325775
endloop
endfacet
facet normal -0.000000 -1.000000 0.000000
outer loop
vertex -90.973007 -1.670357 288.325775
vertex -90.812378 -1.670357 287.648010
vertex -83.792084 -1.670357 294.883057
endloop
endfacet
facet normal -0.000000 -1.000000 0.000000
outer loop
vertex -83.792084 -1.670357 294.883057
vertex -90.812378 -1.670357 287.648010
vertex -90.812378 -1.670357 286.951447
endloop
endfacet
facet normal 0.000000 -1.000000 -0.000001
outer loop
vertex -83.792084 -1.670357 294.883057
vertex -90.812378 -1.670357 286.951447
vertex -90.973007 -1.670357 286.273682
endloop
endfacet
facet normal -0.000000 -1.000000 -0.000000
outer loop
vertex -83.792084 -1.670357 294.883057
vertex -90.973007 -1.670357 286.273682
vertex -81.292084 -1.670356 269.383057
endloop
endfacet
facet normal 0.000000 -1.000000 -0.000000
outer loop
vertex -81.292084 -1.670356 269.383057
vertex -90.973007 -1.670357 286.273682
vertex -91.285629 -1.670357 285.651184
endloop
endfacet
facet normal 0.000000 -1.000000 -0.000000
outer loop
vertex -81.292084 -1.670356 269.383057
vertex -91.285629 -1.670357 285.651184
vertex -91.733368 -1.670357 285.117615
endloop
endfacet
facet normal 0.000000 -1.000000 0.000000
outer loop
vertex -91.733368 -1.670357 285.117615
vertex -92.292084 -1.670357 284.701660
vertex -81.292084 -1.670356 269.383057
endloop
endfacet
facet normal 0.000000 -1.000000 -0.000000
outer loop
vertex -81.292084 -1.670356 269.383057
vertex -92.292084 -1.670357 284.701660
vertex -92.931671 -1.670357 284.425751
endloop
endfacet
facet normal 0.000000 -1.000000 0.000000
outer loop
vertex -81.292084 -1.670356 269.383057
vertex -92.931671 -1.670357 284.425751
vertex -93.617661 -1.670357 284.304810
endloop
endfacet
facet normal 0.000000 -1.000000 -0.000000
outer loop
vertex -81.292084 -1.670356 269.383057
vertex -93.617661 -1.670357 284.304810
vertex -106.292068 -1.670356 269.383057
endloop
endfacet
facet normal -0.000000 -1.000000 0.000000
outer loop
vertex -106.292068 -1.670356 269.383057
vertex -93.617661 -1.670357 284.304810
vertex -94.313034 -1.670357 284.345276
endloop
endfacet
facet normal -0.000000 -1.000000 -0.000000
outer loop
vertex -106.292068 -1.670356 269.383057
vertex -94.313034 -1.670357 284.345276
vertex -94.980331 -1.670357 284.545074
endloop
endfacet
facet normal -0.000000 -1.000000 0.000000
outer loop
vertex -94.980331 -1.670357 284.545074
vertex -95.583557 -1.670357 284.893372
vertex -106.292068 -1.670356 269.383057
endloop
endfacet
facet normal -0.000000 -1.000000 -0.000000
outer loop
vertex -106.292068 -1.670356 269.383057
vertex -95.583557 -1.670357 284.893372
vertex -96.090225 -1.670357 285.371338
endloop
endfacet
facet normal -0.000000 -1.000000 0.000000
outer loop
vertex -106.292068 -1.670356 269.383057
vertex -96.090225 -1.670357 285.371338
vertex -96.472992 -1.670357 285.953308
endloop
endfacet
facet normal 0.000000 -1.000000 0.000000
outer loop
vertex -96.472992 -1.670357 285.953308
vertex -96.711227 -1.670357 286.607880
vertex -106.292068 -1.670356 269.383057
endloop
endfacet
facet normal -0.000000 -1.000000 -0.000000
outer loop
vertex -106.292068 -1.670356 269.383057
vertex -96.711227 -1.670357 286.607880
vertex -103.792068 -1.670357 294.883057
endloop
endfacet
facet normal 0.000000 1.000000 0.000000
outer loop
vertex -103.792068 -4.670357 294.883057
vertex -93.792084 -4.670357 296.883057
vertex -97.285873 -4.670357 289.196716
endloop
endfacet
facet normal 0.000000 1.000000 -0.000001
outer loop
vertex -103.792068 -4.670357 294.883057
vertex -97.285873 -4.670357 289.196716
vertex -97.542068 -4.670357 289.196716
endloop
endfacet
facet normal -0.000000 1.000000 0.000000
outer loop
vertex -99.542068 -4.670357 284.233093
vertex -106.292068 -4.670356 269.383057
vertex -103.792068 -4.670357 294.883057
endloop
endfacet
facet normal -0.000000 1.000000 0.000000
outer loop
vertex -99.542068 -4.670357 287.196716
vertex -99.542068 -4.670357 284.233093
vertex -103.792068 -4.670357 294.883057
endloop
endfacet
facet normal 0.000000 1.000000 0.000000
outer loop
vertex -103.792068 -4.670357 294.883057
vertex -97.542068 -4.670357 289.196716
vertex -98.059708 -4.670357 289.128571
endloop
endfacet
facet normal 0.000001 1.000000 0.000001
outer loop
vertex -103.792068 -4.670357 294.883057
vertex -98.059708 -4.670357 289.128571
vertex -98.542068 -4.670357 288.928772
endloop
endfacet
facet normal -0.000000 1.000000 0.000001
outer loop
vertex -99.473923 -4.670357 287.714355
vertex -99.542068 -4.670357 287.196716
vertex -103.792068 -4.670357 294.883057
endloop
endfacet
facet normal -0.000000 1.000000 0.000000
outer loop
vertex -99.274124 -4.670357 288.196716
vertex -99.473923 -4.670357 287.714355
vertex -103.792068 -4.670357 294.883057
endloop
endfacet
facet normal -0.000000 1.000000 -0.000000
outer loop
vertex -103.792068 -4.670357 294.883057
vertex -98.542068 -4.670357 288.928772
vertex -98.956284 -4.670357 288.610962
endloop
endfacet
facet normal -0.000000 1.000000 -0.000000
outer loop
vertex -103.792068 -4.670357 294.883057
vertex -98.956284 -4.670357 288.610962
vertex -99.274124 -4.670357 288.196716
endloop
endfacet
facet normal 0.000000 1.000000 0.000000
outer loop
vertex -106.292068 -4.670356 269.383057
vertex -99.542068 -4.670357 284.233093
vertex -99.542068 -4.670357 283.446716
endloop
endfacet
facet normal 0.000000 1.000000 -0.000000
outer loop
vertex -106.292068 -4.670356 269.383057
vertex -99.542068 -4.670357 283.446716
vertex -99.473923 -4.670357 282.929077
endloop
endfacet
facet normal -0.000000 1.000000 0.000000
outer loop
vertex -88.042084 -4.670357 283.446716
vertex -88.042084 -4.670357 284.233032
vertex -81.292084 -4.670356 269.383057
endloop
endfacet
facet normal -0.000000 1.000000 -0.000001
outer loop
vertex -88.110229 -4.670357 282.929077
vertex -88.042084 -4.670357 283.446716
vertex -81.292084 -4.670356 269.383057
endloop
endfacet
facet normal 0.000000 1.000000 0.000001
outer loop
vertex -106.292068 -4.670356 269.383057
vertex -99.473923 -4.670357 282.929077
vertex -99.274124 -4.670357 282.446716
endloop
endfacet
facet normal 0.000000 1.000000 0.000000
outer loop
vertex -106.292068 -4.670356 269.383057
vertex -99.274124 -4.670357 282.446716
vertex -98.956284 -4.670357 282.032532
endloop
endfacet
facet normal -0.000000 1.000000 0.000001
outer loop
vertex -88.310043 -4.670357 282.446716
vertex -88.110229 -4.670357 282.929077
vertex -81.292084 -4.670356 269.383057
endloop
endfacet
facet normal -0.000000 1.000000 0.000000
outer loop
vertex -88.627869 -4.670357 282.032532
vertex -88.310043 -4.670357 282.446716
vertex -81.292084 -4.670356 269.383057
endloop
endfacet
facet normal 0.000000 1.000000 -0.000001
outer loop
vertex -106.292068 -4.670356 269.383057
vertex -98.956284 -4.670357 282.032532
vertex -98.542068 -4.670357 281.714661
endloop
endfacet
facet normal 0.000000 1.000000 0.000000
outer loop
vertex -106.292068 -4.670356 269.383057
vertex -98.542068 -4.670357 281.714661
vertex -98.059708 -4.670357 281.514862
endloop
endfacet
facet normal -0.000000 1.000000 -0.000001
outer loop
vertex -89.042084 -4.670357 281.714661
vertex -88.627869 -4.670357 282.032532
vertex -81.292084 -4.670356 269.383057
endloop
endfacet
facet normal -0.000000 1.000000 0.000000
outer loop
vertex -89.524445 -4.670357 281.514862
vertex -89.042084 -4.670357 281.714661
vertex -81.292084 -4.670356 269.383057
endloop
endfacet
facet normal 0.000000 1.000000 -0.000000
outer loop
vertex -106.292068 -4.670356 269.383057
vertex -98.059708 -4.670357 281.514862
vertex -97.542068 -4.670357 281.446716
endloop
endfacet
facet normal 0.000000 1.000000 0.000000
outer loop
vertex -97.542068 -4.670357 281.446716
vertex -97.024445 -4.670357 281.514862
vertex -95.792084 -4.670357 279.696716
endloop
endfacet
facet normal 0.000000 1.000000 0.000000
outer loop
vertex -97.542068 -4.670357 281.446716
vertex -95.792084 -4.670357 279.696716
vertex -95.723938 -4.670357 279.179077
endloop
endfacet
facet normal -0.000000 1.000000 0.000000
outer loop
vertex -90.042084 -4.670357 281.446716
vertex -89.524445 -4.670357 281.514862
vertex -81.292084 -4.670356 269.383057
endloop
endfacet
facet normal 0.000000 1.000000 0.000000
outer loop
vertex -91.792084 -4.670357 279.696716
vertex -90.339233 -4.670357 281.485840
vertex -90.042084 -4.670357 281.446716
endloop
endfacet
facet normal 0.000000 1.000000 0.000000
outer loop
vertex -91.860229 -4.670357 279.179077
vertex -91.792084 -4.670357 279.696716
vertex -90.042084 -4.670357 281.446716
endloop
endfacet
facet normal 0.000000 1.000000 0.000000
outer loop
vertex -106.292068 -4.670356 269.383057
vertex -97.542068 -4.670357 281.446716
vertex -95.723938 -4.670357 279.179077
endloop
endfacet
facet normal 0.000000 1.000000 0.000001
outer loop
vertex -106.292068 -4.670356 269.383057
vertex -95.723938 -4.670357 279.179077
vertex -95.524139 -4.670357 278.696716
endloop
endfacet
facet normal -0.000000 1.000000 0.000000
outer loop
vertex -91.860229 -4.670357 279.179077
vertex -90.042084 -4.670357 281.446716
vertex -81.292084 -4.670356 269.383057
endloop
endfacet
facet normal -0.000000 1.000000 -0.000001
outer loop
vertex -92.060043 -4.670357 278.696716
vertex -91.860229 -4.670357 279.179077
vertex -81.292084 -4.670356 269.383057
endloop
endfacet
facet normal 0.000000 1.000000 0.000000
outer loop
vertex -106.292068 -4.670356 269.383057
vertex -95.524139 -4.670357 278.696716
vertex -95.206299 -4.670357 278.282471
endloop
endfacet
facet normal 0.000000 1.000000 0.000000
outer loop
vertex -106.292068 -4.670356 269.383057
vertex -95.206299 -4.670357 278.282471
vertex -94.792084 -4.670357 277.964661
endloop
endfacet
facet normal -0.000000 1.000000 0.000000
outer loop
vertex -92.377869 -4.670357 278.282471
vertex -92.060043 -4.670357 278.696716
vertex -81.292084 -4.670356 269.383057
endloop
endfacet
facet normal -0.000000 1.000000 0.000000
outer loop
vertex -92.792084 -4.670357 277.964661
vertex -92.377869 -4.670357 278.282471
vertex -81.292084 -4.670356 269.383057
endloop
endfacet
facet normal 0.000000 1.000000 0.000000
outer loop
vertex -81.292084 -4.670356 269.383057
vertex -106.292068 -4.670356 269.383057
vertex -94.792084 -4.670357 277.964661
endloop
endfacet
facet normal 0.000000 1.000000 0.000001
outer loop
vertex -81.292084 -4.670356 269.383057
vertex -94.792084 -4.670357 277.964661
vertex -94.309723 -4.670357 277.764893
endloop
endfacet
facet normal -0.000000 1.000000 0.000000
outer loop
vertex -93.274445 -4.670357 277.764893
vertex -92.792084 -4.670357 277.964661
vertex -81.292084 -4.670356 269.383057
endloop
endfacet
facet normal 0.000000 1.000000 -0.000001
outer loop
vertex -81.292084 -4.670356 269.383057
vertex -94.309723 -4.670357 277.764893
vertex -93.792084 -4.670357 277.696716
endloop
endfacet
facet normal -0.000000 1.000000 0.000000
outer loop
vertex -93.792084 -4.670357 277.696716
vertex -93.274445 -4.670357 277.764893
vertex -81.292084 -4.670356 269.383057
endloop
endfacet
facet normal 0.000000 1.000000 0.000000
outer loop
vertex -83.792084 -4.670357 294.883057
vertex -81.292084 -4.670356 269.383057
vertex -88.042084 -4.670357 284.233032
endloop
endfacet
facet normal 0.000000 1.000000 0.000000
outer loop
vertex -83.792084 -4.670357 294.883057
vertex -88.042084 -4.670357 284.233032
vertex -88.042084 -4.670357 287.196716
endloop
endfacet
facet normal 0.000000 1.000000 0.000000
outer loop
vertex -90.298294 -4.670357 289.196716
vertex -93.792084 -4.670357 296.883057
vertex -83.792084 -4.670357 294.883057
endloop
endfacet
facet normal 0.000000 1.000000 -0.000003
outer loop
vertex -90.042084 -4.670357 289.196716
vertex -90.298294 -4.670357 289.196716
vertex -83.792084 -4.670357 294.883057
endloop
endfacet
facet normal 0.000000 1.000000 0.000001
outer loop
vertex -83.792084 -4.670357 294.883057
vertex -88.042084 -4.670357 287.196716
vertex -88.110229 -4.670357 287.714355
endloop
endfacet
facet normal 0.000000 1.000000 -0.000001
outer loop
vertex -83.792084 -4.670357 294.883057
vertex -88.110229 -4.670357 287.714355
vertex -88.310043 -4.670357 288.196716
endloop
endfacet
facet normal 0.000000 1.000000 0.000000
outer loop
vertex -89.524445 -4.670357 289.128571
vertex -90.042084 -4.670357 289.196716
vertex -83.792084 -4.670357 294.883057
endloop
endfacet
facet normal -0.000001 1.000000 0.000001
outer loop
vertex -89.042084 -4.670357 288.928772
vertex -89.524445 -4.670357 289.128571
vertex -83.792084 -4.670357 294.883057
endloop
endfacet
facet normal 0.000000 1.000000 0.000000
outer loop
vertex -83.792084 -4.670357 294.883057
vertex -88.310043 -4.670357 288.196716
vertex -88.627869 -4.670357 288.610962
endloop
endfacet
facet normal 0.000000 1.000000 0.000000
outer loop
vertex -88.627869 -4.670357 288.610962
vertex -89.042084 -4.670357 288.928772
vertex -83.792084 -4.670357 294.883057
endloop
endfacet
facet normal -0.382709 0.000023 0.923869
outer loop
vertex -94.309723 -4.670357 281.628601
vertex -94.309723 -3.403627 281.628571
vertex -94.792084 -3.403627 281.428772
endloop
endfacet
facet normal -0.382709 0.000000 0.923869
outer loop
vertex -94.309723 -4.670357 281.628601
vertex -94.792084 -3.403627 281.428772
vertex -94.792084 -4.670357 281.428772
endloop
endfacet
facet normal 0.991445 0.000000 0.130523
outer loop
vertex -88.042084 -4.670357 287.196716
vertex -88.042084 -3.403627 287.196716
vertex -88.110229 -3.403627 287.714355
endloop
endfacet
facet normal 0.991445 0.000000 0.130523
outer loop
vertex -88.042084 -4.670357 287.196716
vertex -88.110229 -3.403627 287.714355
vertex -88.110229 -4.670357 287.714355
endloop
endfacet
facet normal 1.000000 0.000000 0.000000
outer loop
vertex -95.542084 -4.670357 283.446716
vertex -95.542084 -3.403627 283.446716
vertex -95.542084 -3.403627 285.196716
endloop
endfacet
facet normal 1.000000 0.000000 0.000000
outer loop
vertex -95.542084 -4.670357 283.446716
vertex -95.542084 -3.403627 285.196716
vertex -95.542084 -4.670357 285.196716
endloop
endfacet
facet normal -0.130493 0.000000 0.991449
outer loop
vertex -97.542068 -4.670357 289.196716
vertex -97.542068 -3.403627 289.196716
vertex -98.059708 -3.403627 289.128571
endloop
endfacet
facet normal -0.130584 0.000000 0.991437
outer loop
vertex -97.542068 -4.670357 289.196716
vertex -98.059708 -3.403627 289.128571
vertex -98.059708 -4.670357 289.128571
endloop
endfacet
facet normal 0.382630 0.000000 -0.923902
outer loop
vertex -89.524445 -4.670357 281.514862
vertex -89.524445 -3.403627 281.514862
vertex -89.042084 -3.403627 281.714661
endloop
endfacet
facet normal 0.382787 0.000000 -0.923836
outer loop
vertex -89.524445 -4.670357 281.514862
vertex -89.042084 -3.403627 281.714661
vertex -89.042084 -4.670357 281.714661
endloop
endfacet
facet normal 0.923871 0.000012 -0.382704
outer loop
vertex -95.810028 -4.670357 282.446716
vertex -95.810043 -3.403627 282.446716
vertex -95.610229 -3.403627 282.929077
endloop
endfacet
facet normal 0.923881 0.000000 -0.382680
outer loop
vertex -95.810028 -4.670357 282.446716
vertex -95.610229 -3.403627 282.929077
vertex -95.610229 -4.670357 282.929077
endloop
endfacet
facet normal 0.923871 0.000000 0.382704
outer loop
vertex -88.110229 -4.670357 287.714355
vertex -88.110229 -3.403627 287.714355
vertex -88.310043 -3.403627 288.196716
endloop
endfacet
facet normal 0.923871 0.000000 0.382704
outer loop
vertex -88.110229 -4.670357 287.714355
vertex -88.310043 -3.403627 288.196716
vertex -88.310043 -4.670357 288.196716
endloop
endfacet
facet normal -0.382630 0.000000 0.923902
outer loop
vertex -98.059708 -4.670357 289.128571
vertex -98.059708 -3.403627 289.128571
vertex -98.542068 -3.403627 288.928772
endloop
endfacet
facet normal -0.382709 0.000000 0.923869
outer loop
vertex -98.059708 -4.670357 289.128571
vertex -98.542068 -3.403627 288.928772
vertex -98.542068 -4.670357 288.928772
endloop
endfacet
facet normal 0.130407 0.000000 -0.991461
outer loop
vertex -97.542068 -4.670357 281.446716
vertex -97.542068 -3.403627 281.446716
vertex -97.024445 -3.403627 281.514862
endloop
endfacet
facet normal 0.130588 0.000000 -0.991437
outer loop
vertex -97.542068 -4.670357 281.446716
vertex -97.024445 -3.403627 281.514862
vertex -97.024445 -4.670357 281.514862
endloop
endfacet
facet normal 0.608793 0.000000 -0.793329
outer loop
vertex -92.792084 -4.670357 277.964661
vertex -92.792084 -3.403626 277.964661
vertex -92.377869 -3.403626 278.282501
endloop
endfacet
facet normal 0.608677 0.000017 -0.793418
outer loop
vertex -92.792084 -4.670357 277.964661
vertex -92.377869 -3.403626 278.282501
vertex -92.377869 -4.670357 278.282471
endloop
endfacet
facet normal 0.923871 0.000000 -0.382704
outer loop
vertex -92.060043 -4.670357 278.696716
vertex -92.060043 -3.403626 278.696716
vertex -91.860229 -3.403626 279.179077
endloop
endfacet
facet normal 0.923871 0.000000 -0.382704
outer loop
vertex -92.060043 -4.670357 278.696716
vertex -91.860229 -3.403626 279.179077
vertex -91.860229 -4.670357 279.179077
endloop
endfacet
facet normal -0.382788 0.000000 -0.923836
outer loop
vertex -91.042084 -4.670357 281.714661
vertex -91.042084 -3.403627 281.714661
vertex -90.559723 -3.403627 281.514862
endloop
endfacet
facet normal -0.382630 0.000000 -0.923902
outer loop
vertex -91.042084 -4.670357 281.714661
vertex -90.559723 -3.403627 281.514862
vertex -90.559723 -4.670357 281.514862
endloop
endfacet
facet normal -0.793329 0.000000 -0.608794
outer loop
vertex -95.524139 -4.670357 278.696716
vertex -95.524139 -3.403626 278.696716
vertex -95.206299 -3.403626 278.282501
endloop
endfacet
facet normal -0.793397 0.000016 -0.608705
outer loop
vertex -95.524139 -4.670357 278.696716
vertex -95.206299 -3.403626 278.282501
vertex -95.206299 -4.670357 278.282471
endloop
endfacet
facet normal -0.608793 0.000000 0.793329
outer loop
vertex -98.542068 -4.670357 288.928772
vertex -98.542068 -3.403627 288.928772
vertex -98.956284 -3.403627 288.610931
endloop
endfacet
facet normal -0.608677 0.000019 0.793418
outer loop
vertex -98.542068 -4.670357 288.928772
vertex -98.956284 -3.403627 288.610931
vertex -98.956284 -4.670357 288.610962
endloop
endfacet
facet normal -0.991445 0.000000 -0.130523
outer loop
vertex -92.042084 -4.670357 283.446716
vertex -92.042084 -3.403627 283.446716
vertex -91.973938 -3.403627 282.929077
endloop
endfacet
facet normal -0.991445 0.000000 -0.130523
outer loop
vertex -92.042084 -4.670357 283.446716
vertex -91.973938 -3.403627 282.929077
vertex -91.973938 -4.670357 282.929077
endloop
endfacet
facet normal 0.382630 -0.000023 -0.923902
outer loop
vertex -93.274445 -4.670357 277.764893
vertex -93.274445 -3.403626 277.764862
vertex -92.792084 -3.403626 277.964661
endloop
endfacet
facet normal 0.382630 0.000000 -0.923902
outer loop
vertex -93.274445 -4.670357 277.764893
vertex -92.792084 -3.403626 277.964661
vertex -92.792084 -4.670357 277.964661
endloop
endfacet
facet normal -0.923881 0.000000 0.382679
outer loop
vertex -95.524139 -4.670357 280.696716
vertex -95.524139 -3.403627 280.696716
vertex -95.723938 -3.403627 280.214355
endloop
endfacet
facet normal -0.923881 0.000000 0.382680
outer loop
vertex -95.524139 -4.670357 280.696716
vertex -95.723938 -3.403627 280.214355
vertex -95.723938 -4.670357 280.214355
endloop
endfacet
facet normal 0.793343 -0.000012 -0.608775
outer loop
vertex -96.127869 -4.670357 282.032532
vertex -96.127869 -3.403627 282.032501
vertex -95.810043 -3.403627 282.446716
endloop
endfacet
facet normal 0.793329 0.000000 -0.608794
outer loop
vertex -96.127869 -4.670357 282.032532
vertex -95.810043 -3.403627 282.446716
vertex -95.810028 -4.670357 282.446716
endloop
endfacet
facet normal 0.793343 -0.000012 -0.608775
outer loop
vertex -88.627869 -4.670357 282.032532
vertex -88.627869 -3.403627 282.032501
vertex -88.310043 -3.403627 282.446716
endloop
endfacet
facet normal 0.793343 0.000000 -0.608775
outer loop
vertex -88.627869 -4.670357 282.032532
vertex -88.310043 -3.403627 282.446716
vertex -88.310043 -4.670357 282.446716
endloop
endfacet
facet normal 0.793377 0.000012 -0.608731
outer loop
vertex -92.377869 -4.670357 278.282471
vertex -92.377869 -3.403626 278.282501
vertex -92.060043 -3.403626 278.696716
endloop
endfacet
facet normal 0.793377 0.000000 -0.608731
outer loop
vertex -92.377869 -4.670357 278.282471
vertex -92.060043 -3.403626 278.696716
vertex -92.060043 -4.670357 278.696716
endloop
endfacet
facet normal 0.608735 0.000017 0.793374
outer loop
vertex -88.627869 -4.670357 288.610962
vertex -88.627869 -3.403627 288.610931
vertex -89.042084 -3.403627 288.928772
endloop
endfacet
facet normal 0.608735 0.000000 0.793373
outer loop
vertex -88.627869 -4.670357 288.610962
vertex -89.042084 -3.403627 288.928772
vertex -89.042084 -4.670357 288.928772
endloop
endfacet
facet normal 0.000000 0.000000 1.000000
outer loop
vertex -90.298294 -4.670357 289.196716
vertex -90.042084 -4.670357 289.196716
vertex -90.042084 -3.403627 289.196716
endloop
endfacet
facet normal 0.000000 0.000000 1.000000
outer loop
vertex -90.042084 -3.403627 289.196716
vertex -97.542068 -3.403627 289.196716
vertex -97.542068 -4.670357 289.196716
endloop
endfacet
facet normal 0.000000 0.000000 1.000000
outer loop
vertex -97.285873 -4.670357 289.196716
vertex -90.298294 -4.670357 289.196716
vertex -90.042084 -3.403627 289.196716
endloop
endfacet
facet normal 0.000000 0.000000 1.000000
outer loop
vertex -90.042084 -3.403627 289.196716
vertex -97.542068 -4.670357 289.196716
vertex -97.285873 -4.670357 289.196716
endloop
endfacet
facet normal 0.991445 0.000000 -0.130523
outer loop
vertex -95.610229 -4.670357 282.929077
vertex -95.610229 -3.403627 282.929077
vertex -95.542084 -3.403627 283.446716
endloop
endfacet
facet normal 0.991445 0.000000 -0.130523
outer loop
vertex -95.610229 -4.670357 282.929077
vertex -95.542084 -3.403627 283.446716
vertex -95.542084 -4.670357 283.446716
endloop
endfacet
facet normal 0.130403 0.000000 -0.991461
outer loop
vertex -90.042084 -4.670357 281.446716
vertex -90.042084 -3.403627 281.446716
vertex -89.524445 -3.403627 281.514862
endloop
endfacet
facet normal 0.130584 0.000000 -0.991437
outer loop
vertex -90.042084 -4.670357 281.446716
vertex -89.524445 -3.403627 281.514862
vertex -89.524445 -4.670357 281.514862
endloop
endfacet
facet normal 0.793343 0.000000 0.608775
outer loop
vertex -92.060043 -4.670357 280.696716
vertex -92.060043 -3.403627 280.696716
vertex -92.377869 -3.403627 281.110931
endloop
endfacet
facet normal 0.793377 0.000000 0.608731
outer loop
vertex -92.060043 -4.670357 280.696716
vertex -92.377869 -3.403627 281.110931
vertex -92.377869 -4.670357 281.110931
endloop
endfacet
facet normal -0.130584 0.000000 -0.991437
outer loop
vertex -98.059708 -4.670357 281.514862
vertex -98.059708 -3.403627 281.514862
vertex -97.542068 -3.403627 281.446716
endloop
endfacet
facet normal -0.130403 0.000000 -0.991461
outer loop
vertex -98.059708 -4.670357 281.514862
vertex -97.542068 -3.403627 281.446716
vertex -97.542068 -4.670357 281.446716
endloop
endfacet
facet normal -0.991445 0.000000 -0.130523
outer loop
vertex -99.542068 -4.670357 283.446716
vertex -99.542068 -3.403627 283.446716
vertex -99.473923 -3.403627 282.929077
endloop
endfacet
facet normal -0.991445 0.000000 -0.130523
outer loop
vertex -99.542068 -4.670357 283.446716
vertex -99.473923 -3.403627 282.929077
vertex -99.473923 -4.670357 282.929077
endloop
endfacet
facet normal 0.382709 0.000000 0.923869
outer loop
vertex -92.792084 -4.670357 281.428772
vertex -92.792084 -3.403627 281.428772
vertex -93.274445 -3.403627 281.628571
endloop
endfacet
facet normal 0.382709 0.000020 0.923869
outer loop
vertex -92.792084 -4.670357 281.428772
vertex -93.274445 -3.403627 281.628571
vertex -93.274445 -4.670357 281.628601
endloop
endfacet
facet normal -0.793329 0.000000 -0.608793
outer loop
vertex -91.774139 -4.670357 282.446716
vertex -91.774139 -3.403627 282.446716
vertex -91.456299 -3.403627 282.032501
endloop
endfacet
facet normal -0.793328 -0.000016 -0.608794
outer loop
vertex -91.774139 -4.670357 282.446716
vertex -91.456299 -3.403627 282.032501
vertex -91.456299 -4.670357 282.032532
endloop
endfacet
facet normal 0.923871 0.000000 -0.382704
outer loop
vertex -88.310043 -4.670357 282.446716
vertex -88.310043 -3.403627 282.446716
vertex -88.110229 -3.403627 282.929077
endloop
endfacet
facet normal 0.923871 0.000000 -0.382704
outer loop
vertex -88.310043 -4.670357 282.446716
vertex -88.110229 -3.403627 282.929077
vertex -88.110229 -4.670357 282.929077
endloop
endfacet
facet normal 0.000000 0.000000 -1.000000
outer loop
vertex -95.542084 -4.670357 285.196716
vertex -95.542084 -3.403627 285.196716
vertex -92.042084 -3.403627 285.196716
endloop
endfacet
facet normal 0.000000 0.000000 -1.000000
outer loop
vertex -95.542084 -4.670357 285.196716
vertex -92.042084 -3.403627 285.196716
vertex -92.042084 -4.670357 285.196716
endloop
endfacet
facet normal -0.793329 0.000000 -0.608793
outer loop
vertex -99.274124 -4.670357 282.446716
vertex -99.274124 -3.403627 282.446716
vertex -98.956284 -3.403627 282.032501
endloop
endfacet
facet normal -0.793328 -0.000016 -0.608794
outer loop
vertex -99.274124 -4.670357 282.446716
vertex -98.956284 -3.403627 282.032501
vertex -98.956284 -4.670357 282.032532
endloop
endfacet
facet normal 0.608793 0.000000 -0.793329
outer loop
vertex -96.542084 -4.670357 281.714661
vertex -96.542084 -3.403627 281.714661
vertex -96.127869 -3.403627 282.032501
endloop
endfacet
facet normal 0.608793 -0.000023 -0.793329
outer loop
vertex -96.542084 -4.670357 281.714661
vertex -96.127869 -3.403627 282.032501
vertex -96.127869 -4.670357 282.032532
endloop
endfacet
facet normal -0.608793 -0.000017 -0.793329
outer loop
vertex -98.956284 -4.670357 282.032532
vertex -98.956284 -3.403627 282.032501
vertex -98.542068 -3.403627 281.714661
endloop
endfacet
facet normal -0.608793 0.000000 -0.793329
outer loop
vertex -98.956284 -4.670357 282.032532
vertex -98.542068 -3.403627 281.714661
vertex -98.542068 -4.670357 281.714661
endloop
endfacet
facet normal -0.793363 0.000000 0.608749
outer loop
vertex -95.206299 -4.670357 281.110931
vertex -95.206299 -3.403627 281.110931
vertex -95.524139 -3.403627 280.696716
endloop
endfacet
facet normal -0.793328 0.000000 0.608794
outer loop
vertex -95.206299 -4.670357 281.110931
vertex -95.524139 -3.403627 280.696716
vertex -95.524139 -4.670357 280.696716
endloop
endfacet
facet normal -0.608793 0.000000 0.793329
outer loop
vertex -94.792084 -4.670357 281.428772
vertex -94.792084 -3.403627 281.428772
vertex -95.206299 -3.403627 281.110931
endloop
endfacet
facet normal -0.608735 0.000000 0.793374
outer loop
vertex -94.792084 -4.670357 281.428772
vertex -95.206299 -3.403627 281.110931
vertex -95.206299 -4.670357 281.110931
endloop
endfacet
facet normal 0.608793 0.000000 -0.793329
outer loop
vertex -89.042084 -4.670357 281.714661
vertex -89.042084 -3.403627 281.714661
vertex -88.627869 -3.403627 282.032501
endloop
endfacet
facet normal 0.608793 -0.000023 -0.793329
outer loop
vertex -89.042084 -4.670357 281.714661
vertex -88.627869 -3.403627 282.032501
vertex -88.627869 -4.670357 282.032532
endloop
endfacet
facet normal -0.130584 -0.000025 -0.991437
outer loop
vertex -94.309723 -4.670357 277.764893
vertex -94.309723 -3.403626 277.764862
vertex -93.792084 -3.403626 277.696716
endloop
endfacet
facet normal -0.130584 0.000000 -0.991437
outer loop
vertex -94.309723 -4.670357 277.764893
vertex -93.792084 -3.403626 277.696716
vertex -93.792084 -4.670357 277.696716
endloop
endfacet
facet normal 0.923871 0.000000 0.382704
outer loop
vertex -91.860229 -4.670357 280.214355
vertex -91.860229 -3.403627 280.214355
vertex -92.060043 -3.403627 280.696716
endloop
endfacet
facet normal 0.923871 0.000000 0.382704
outer loop
vertex -91.860229 -4.670357 280.214355
vertex -92.060043 -3.403627 280.696716
vertex -92.060043 -4.670357 280.696716
endloop
endfacet
facet normal -0.608735 0.000017 -0.793374
outer loop
vertex -95.206299 -4.670357 278.282471
vertex -95.206299 -3.403626 278.282501
vertex -94.792084 -3.403626 277.964661
endloop
endfacet
facet normal -0.608735 0.000000 -0.793374
outer loop
vertex -95.206299 -4.670357 278.282471
vertex -94.792084 -3.403626 277.964661
vertex -94.792084 -4.670357 277.964661
endloop
endfacet
facet normal -0.382709 0.000000 -0.923869
outer loop
vertex -94.792084 -4.670357 277.964661
vertex -94.792084 -3.403626 277.964661
vertex -94.309723 -3.403626 277.764862
endloop
endfacet
facet normal -0.382551 -0.000023 -0.923934
outer loop
vertex -94.792084 -4.670357 277.964661
vertex -94.309723 -3.403626 277.764862
vertex -94.309723 -4.670357 277.764893
endloop
endfacet
facet normal -0.608793 -0.000017 -0.793329
outer loop
vertex -91.456299 -4.670357 282.032532
vertex -91.456299 -3.403627 282.032501
vertex -91.042084 -3.403627 281.714661
endloop
endfacet
facet normal -0.608793 0.000000 -0.793329
outer loop
vertex -91.456299 -4.670357 282.032532
vertex -91.042084 -3.403627 281.714661
vertex -91.042084 -4.670357 281.714661
endloop
endfacet
facet normal 0.608735 0.000000 0.793373
outer loop
vertex -92.377869 -4.670357 281.110931
vertex -92.377869 -3.403627 281.110931
vertex -92.792084 -3.403627 281.428772
endloop
endfacet
facet normal 0.608793 0.000000 0.793329
outer loop
vertex -92.377869 -4.670357 281.110931
vertex -92.792084 -3.403627 281.428772
vertex -92.792084 -4.670357 281.428772
endloop
endfacet
facet normal 1.000000 0.000000 0.000000
outer loop
vertex -88.042084 -4.670357 284.233032
vertex -88.042084 -4.670357 283.446716
vertex -88.042084 -3.403627 283.446716
endloop
endfacet
facet normal 1.000000 0.000000 0.000000
outer loop
vertex -88.042084 -3.403627 283.446716
vertex -88.042084 -3.403627 287.196716
vertex -88.042084 -4.670357 287.196716
endloop
endfacet
facet normal 1.000000 0.000000 0.000000
outer loop
vertex -88.042084 -3.403627 283.446716
vertex -88.042084 -4.670357 287.196716
vertex -88.042084 -4.670357 284.233032
endloop
endfacet
facet normal 0.793343 0.000000 0.608775
outer loop
vertex -88.310043 -4.670357 288.196716
vertex -88.310043 -3.403627 288.196716
vertex -88.627869 -3.403627 288.610931
endloop
endfacet
facet normal 0.793411 0.000012 0.608686
outer loop
vertex -88.310043 -4.670357 288.196716
vertex -88.627869 -3.403627 288.610931
vertex -88.627869 -4.670357 288.610962
endloop
endfacet
facet normal -1.000000 0.000000 0.000000
outer loop
vertex -99.542068 -4.670357 284.233093
vertex -99.542068 -4.670357 287.196716
vertex -99.542068 -3.403627 287.196716
endloop
endfacet
facet normal -1.000000 0.000000 0.000000
outer loop
vertex -99.542068 -3.403627 287.196716
vertex -99.542068 -3.403627 283.446716
vertex -99.542068 -4.670357 283.446716
endloop
endfacet
facet normal -1.000000 0.000000 0.000000
outer loop
vertex -99.542068 -3.403627 287.196716
vertex -99.542068 -4.670357 283.446716
vertex -99.542068 -4.670357 284.233093
endloop
endfacet
facet normal -0.923881 0.000000 -0.382679
outer loop
vertex -91.973938 -4.670357 282.929077
vertex -91.973938 -3.403627 282.929077
vertex -91.774139 -3.403627 282.446716
endloop
endfacet
facet normal -0.923881 0.000000 -0.382680
outer loop
vertex -91.973938 -4.670357 282.929077
vertex -91.774139 -3.403627 282.446716
vertex -91.774139 -4.670357 282.446716
endloop
endfacet
facet normal 0.130493 0.000000 -0.991449
outer loop
vertex -93.792084 -4.670357 277.696716
vertex -93.792084 -3.403626 277.696716
vertex -93.274445 -3.403626 277.764862
endloop
endfacet
facet normal 0.130675 -0.000024 -0.991425
outer loop
vertex -93.792084 -4.670357 277.696716
vertex -93.274445 -3.403626 277.764862
vertex -93.274445 -4.670357 277.764893
endloop
endfacet
facet normal -0.923881 0.000000 0.382680
outer loop
vertex -99.274124 -4.670357 288.196716
vertex -99.274124 -3.403627 288.196716
vertex -99.473923 -3.403627 287.714355
endloop
endfacet
facet normal -0.923881 0.000000 0.382679
outer loop
vertex -99.274124 -4.670357 288.196716
vertex -99.473923 -3.403627 287.714355
vertex -99.473923 -4.670357 287.714355
endloop
endfacet
facet normal -0.991446 0.000000 0.130520
outer loop
vertex -95.723938 -4.670357 280.214355
vertex -95.723938 -3.403627 280.214355
vertex -95.792084 -3.403626 279.696716
endloop
endfacet
facet normal -0.991447 0.000000 0.130511
outer loop
vertex -95.723938 -4.670357 280.214355
vertex -95.792084 -3.403626 279.696716
vertex -95.792084 -4.670357 279.696716
endloop
endfacet
facet normal 0.991446 0.000000 0.130520
outer loop
vertex -91.792084 -4.670357 279.696716
vertex -91.792084 -3.403626 279.696716
vertex -91.860229 -3.403627 280.214355
endloop
endfacet
facet normal 0.991447 0.000000 0.130511
outer loop
vertex -91.792084 -4.670357 279.696716
vertex -91.860229 -3.403627 280.214355
vertex -91.860229 -4.670357 280.214355
endloop
endfacet
facet normal 0.382630 0.000000 -0.923902
outer loop
vertex -97.024445 -4.670357 281.514862
vertex -97.024445 -3.403627 281.514862
vertex -96.542084 -3.403627 281.714661
endloop
endfacet
facet normal 0.382787 0.000000 -0.923836
outer loop
vertex -97.024445 -4.670357 281.514862
vertex -96.542084 -3.403627 281.714661
vertex -96.542084 -4.670357 281.714661
endloop
endfacet
facet normal -0.991445 0.000000 0.130523
outer loop
vertex -99.473923 -4.670357 287.714355
vertex -99.473923 -3.403627 287.714355
vertex -99.542068 -3.403627 287.196716
endloop
endfacet
facet normal -0.991445 0.000000 0.130523
outer loop
vertex -99.473923 -4.670357 287.714355
vertex -99.542068 -3.403627 287.196716
vertex -99.542068 -4.670357 287.196716
endloop
endfacet
facet normal -0.923881 0.000000 -0.382679
outer loop
vertex -99.473923 -4.670357 282.929077
vertex -99.473923 -3.403627 282.929077
vertex -99.274124 -3.403627 282.446716
endloop
endfacet
facet normal -0.923881 0.000000 -0.382680
outer loop
vertex -99.473923 -4.670357 282.929077
vertex -99.274124 -3.403627 282.446716
vertex -99.274124 -4.670357 282.446716
endloop
endfacet
facet normal -0.130217 0.000000 -0.991485
outer loop
vertex -90.339233 -4.670357 281.485840
vertex -90.559723 -4.670357 281.514862
vertex -90.559723 -3.403627 281.514862
endloop
endfacet
facet normal -0.130403 0.000000 -0.991461
outer loop
vertex -90.559723 -3.403627 281.514862
vertex -90.042084 -3.403627 281.446716
vertex -90.042084 -4.670357 281.446716
endloop
endfacet
facet normal -0.130856 -0.000008 -0.991401
outer loop
vertex -90.559723 -3.403627 281.514862
vertex -90.042084 -4.670357 281.446716
vertex -90.339233 -4.670357 281.485840
endloop
endfacet
facet normal 0.991445 0.000000 -0.130523
outer loop
vertex -91.860229 -4.670357 279.179077
vertex -91.860229 -3.403626 279.179077
vertex -91.792084 -3.403626 279.696716
endloop
endfacet
facet normal 0.991445 0.000000 -0.130523
outer loop
vertex -91.860229 -4.670357 279.179077
vertex -91.792084 -3.403626 279.696716
vertex -91.792084 -4.670357 279.696716
endloop
endfacet
facet normal -0.991445 0.000000 -0.130523
outer loop
vertex -95.792084 -4.670357 279.696716
vertex -95.792084 -3.403626 279.696716
vertex -95.723938 -3.403626 279.179077
endloop
endfacet
facet normal -0.991445 0.000000 -0.130523
outer loop
vertex -95.792084 -4.670357 279.696716
vertex -95.723938 -3.403626 279.179077
vertex -95.723938 -4.670357 279.179077
endloop
endfacet
facet normal 0.130493 0.000023 0.991449
outer loop
vertex -93.274445 -4.670357 281.628601
vertex -93.274445 -3.403627 281.628571
vertex -93.792084 -3.403627 281.696716
endloop
endfacet
facet normal 0.130493 0.000000 0.991449
outer loop
vertex -93.274445 -4.670357 281.628601
vertex -93.792084 -3.403627 281.696716
vertex -93.792084 -4.670357 281.696716
endloop
endfacet
facet normal 0.382709 0.000000 0.923869
outer loop
vertex -89.042084 -4.670357 288.928772
vertex -89.042084 -3.403627 288.928772
vertex -89.524445 -3.403627 289.128571
endloop
endfacet
facet normal 0.382630 0.000000 0.923902
outer loop
vertex -89.042084 -4.670357 288.928772
vertex -89.524445 -3.403627 289.128571
vertex -89.524445 -4.670357 289.128571
endloop
endfacet
facet normal 0.130584 0.000000 0.991437
outer loop
vertex -89.524445 -4.670357 289.128571
vertex -89.524445 -3.403627 289.128571
vertex -90.042084 -3.403627 289.196716
endloop
endfacet
facet normal 0.130493 0.000000 0.991449
outer loop
vertex -89.524445 -4.670357 289.128571
vertex -90.042084 -3.403627 289.196716
vertex -90.042084 -4.670357 289.196716
endloop
endfacet
facet normal -0.793363 0.000012 0.608749
outer loop
vertex -98.956284 -4.670357 288.610962
vertex -98.956284 -3.403627 288.610931
vertex -99.274124 -3.403627 288.196716
endloop
endfacet
facet normal -0.793363 0.000000 0.608749
outer loop
vertex -98.956284 -4.670357 288.610962
vertex -99.274124 -3.403627 288.196716
vertex -99.274124 -4.670357 288.196716
endloop
endfacet
facet normal -0.382788 0.000000 -0.923836
outer loop
vertex -98.542068 -4.670357 281.714661
vertex -98.542068 -3.403627 281.714661
vertex -98.059708 -3.403627 281.514862
endloop
endfacet
facet normal -0.382630 0.000000 -0.923902
outer loop
vertex -98.542068 -4.670357 281.714661
vertex -98.059708 -3.403627 281.514862
vertex -98.059708 -4.670357 281.514862
endloop
endfacet
facet normal 0.991445 0.000000 -0.130523
outer loop
vertex -88.110229 -4.670357 282.929077
vertex -88.110229 -3.403627 282.929077
vertex -88.042084 -3.403627 283.446716
endloop
endfacet
facet normal 0.991445 0.000000 -0.130523
outer loop
vertex -88.110229 -4.670357 282.929077
vertex -88.042084 -3.403627 283.446716
vertex -88.042084 -4.670357 283.446716
endloop
endfacet
facet normal -1.000000 0.000000 0.000000
outer loop
vertex -92.042084 -4.670357 285.196716
vertex -92.042084 -3.403627 285.196716
vertex -92.042084 -3.403627 283.446716
endloop
endfacet
facet normal -1.000000 0.000000 0.000000
outer loop
vertex -92.042084 -4.670357 285.196716
vertex -92.042084 -3.403627 283.446716
vertex -92.042084 -4.670357 283.446716
endloop
endfacet
facet normal -0.923881 0.000000 -0.382679
outer loop
vertex -95.723938 -4.670357 279.179077
vertex -95.723938 -3.403626 279.179077
vertex -95.524139 -3.403626 278.696716
endloop
endfacet
facet normal -0.923881 0.000000 -0.382680
outer loop
vertex -95.723938 -4.670357 279.179077
vertex -95.524139 -3.403626 278.696716
vertex -95.524139 -4.670357 278.696716
endloop
endfacet
facet normal -0.130493 0.000000 0.991449
outer loop
vertex -93.792084 -4.670357 281.696716
vertex -93.792084 -3.403627 281.696716
vertex -94.309723 -3.403627 281.628571
endloop
endfacet
facet normal -0.130493 0.000023 0.991449
outer loop
vertex -93.792084 -4.670357 281.696716
vertex -94.309723 -3.403627 281.628571
vertex -94.309723 -4.670357 281.628601
endloop
endfacet
facet normal 0.000000 1.000000 0.000000
outer loop
vertex -90.298294 -4.670357 289.196716
vertex -97.285873 -4.670357 289.196716
vertex -93.792084 -4.670357 296.883057
endloop
endfacet
facet normal 0.000000 1.000000 0.000000
outer loop
vertex -95.792084 -4.670357 279.696716
vertex -97.024445 -4.670357 281.514862
vertex -96.542084 -4.670357 281.714661
endloop
endfacet
facet normal 0.000000 1.000000 0.000000
outer loop
vertex -95.792084 -4.670357 279.696716
vertex -96.542084 -4.670357 281.714661
vertex -96.127869 -4.670357 282.032532
endloop
endfacet
facet normal 0.000000 1.000000 0.000001
outer loop
vertex -95.723938 -4.670357 280.214355
vertex -95.792084 -4.670357 279.696716
vertex -96.127869 -4.670357 282.032532
endloop
endfacet
facet normal 0.000000 1.000000 0.000000
outer loop
vertex -95.723938 -4.670357 280.214355
vertex -96.127869 -4.670357 282.032532
vertex -95.810028 -4.670357 282.446716
endloop
endfacet
facet normal 0.000000 1.000000 0.000000
outer loop
vertex -95.524139 -4.670357 280.696716
vertex -95.723938 -4.670357 280.214355
vertex -95.810028 -4.670357 282.446716
endloop
endfacet
facet normal 0.000000 1.000000 0.000000
outer loop
vertex -95.524139 -4.670357 280.696716
vertex -95.810028 -4.670357 282.446716
vertex -95.610229 -4.670357 282.929077
endloop
endfacet
facet normal 0.000000 1.000000 0.000000
outer loop
vertex -95.206299 -4.670357 281.110931
vertex -95.524139 -4.670357 280.696716
vertex -95.610229 -4.670357 282.929077
endloop
endfacet
facet normal 0.000000 1.000000 0.000000
outer loop
vertex -95.542084 -4.670357 283.446716
vertex -95.542084 -4.670357 285.196716
vertex -92.042084 -4.670357 285.196716
endloop
endfacet
facet normal 0.000000 1.000000 -0.000001
outer loop
vertex -95.206299 -4.670357 281.110931
vertex -95.610229 -4.670357 282.929077
vertex -95.542084 -4.670357 283.446716
endloop
endfacet
facet normal 0.000000 1.000000 0.000000
outer loop
vertex -94.792084 -4.670357 281.428772
vertex -95.206299 -4.670357 281.110931
vertex -95.542084 -4.670357 283.446716
endloop
endfacet
facet normal 0.000000 1.000000 0.000000
outer loop
vertex -95.542084 -4.670357 283.446716
vertex -92.042084 -4.670357 285.196716
vertex -92.042084 -4.670357 283.446716
endloop
endfacet
facet normal 0.000000 1.000000 -0.000001
outer loop
vertex -95.542084 -4.670357 283.446716
vertex -92.042084 -4.670357 283.446716
vertex -91.973938 -4.670357 282.929077
endloop
endfacet
facet normal 0.000000 1.000000 0.000000
outer loop
vertex -94.309723 -4.670357 281.628601
vertex -94.792084 -4.670357 281.428772
vertex -95.542084 -4.670357 283.446716
endloop
endfacet
facet normal 0.000000 1.000000 0.000000
outer loop
vertex -93.792084 -4.670357 281.696716
vertex -94.309723 -4.670357 281.628601
vertex -95.542084 -4.670357 283.446716
endloop
endfacet
facet normal 0.000000 1.000000 0.000001
outer loop
vertex -95.542084 -4.670357 283.446716
vertex -91.973938 -4.670357 282.929077
vertex -91.774139 -4.670357 282.446716
endloop
endfacet
facet normal 0.000000 1.000000 0.000001
outer loop
vertex -95.542084 -4.670357 283.446716
vertex -91.774139 -4.670357 282.446716
vertex -91.456299 -4.670357 282.032532
endloop
endfacet
facet normal 0.000000 1.000000 0.000000
outer loop
vertex -93.274445 -4.670357 281.628601
vertex -93.792084 -4.670357 281.696716
vertex -95.542084 -4.670357 283.446716
endloop
endfacet
facet normal 0.000000 1.000000 0.000000
outer loop
vertex -92.792084 -4.670357 281.428772
vertex -93.274445 -4.670357 281.628601
vertex -95.542084 -4.670357 283.446716
endloop
endfacet
facet normal 0.000000 1.000000 0.000000
outer loop
vertex -95.542084 -4.670357 283.446716
vertex -91.456299 -4.670357 282.032532
vertex -91.042084 -4.670357 281.714661
endloop
endfacet
facet normal 0.000000 1.000000 0.000000
outer loop
vertex -90.559723 -4.670357 281.514862
vertex -90.339233 -4.670357 281.485840
vertex -91.792084 -4.670357 279.696716
endloop
endfacet
facet normal 0.000000 1.000000 -0.000030
outer loop
vertex -95.542084 -4.670357 283.446716
vertex -91.042084 -4.670357 281.714661
vertex -90.559723 -4.670357 281.514862
endloop
endfacet
facet normal 0.000000 1.000000 0.000001
outer loop
vertex -92.792084 -4.670357 281.428772
vertex -95.542084 -4.670357 283.446716
vertex -90.559723 -4.670357 281.514862
endloop
endfacet
facet normal 0.000000 1.000000 0.000000
outer loop
vertex -90.559723 -4.670357 281.514862
vertex -91.792084 -4.670357 279.696716
vertex -91.860229 -4.670357 280.214355
endloop
endfacet
facet normal 0.000000 1.000000 -0.000000
outer loop
vertex -90.559723 -4.670357 281.514862
vertex -91.860229 -4.670357 280.214355
vertex -92.060043 -4.670357 280.696716
endloop
endfacet
facet normal 0.000000 1.000000 0.000000
outer loop
vertex -92.377869 -4.670357 281.110931
vertex -92.792084 -4.670357 281.428772
vertex -90.559723 -4.670357 281.514862
endloop
endfacet
facet normal 0.000000 1.000000 0.000001
outer loop
vertex -90.559723 -4.670357 281.514862
vertex -92.060043 -4.670357 280.696716
vertex -92.377869 -4.670357 281.110931
endloop
endfacet
endsolid P
