solid ShogiChessCncAndPLA v2.015
facet normal -0.991457 0.000000 0.130431
outer loop
vertex -51.231853 -125.488991 -8.628607
vertex -51.231853 -123.993988 -8.628607
vertex -51.284634 -125.488991 -9.029806
endloop
endfacet
facet normal -0.991457 0.000000 0.130431
outer loop
vertex -51.284634 -125.488991 -9.029806
vertex -51.231853 -123.993988 -8.628607
vertex -51.284634 -123.993988 -9.029806
endloop
endfacet
facet normal -0.923908 0.000000 0.382614
outer loop
vertex -51.284634 -125.488991 -9.029806
vertex -51.284634 -123.993988 -9.029806
vertex -51.439457 -125.488991 -9.403662
endloop
endfacet
facet normal -0.923909 0.000000 0.382613
outer loop
vertex -51.439457 -125.488991 -9.403662
vertex -51.284634 -123.993988 -9.029806
vertex -51.439457 -123.993988 -9.403662
endloop
endfacet
facet normal -0.793389 0.000000 0.608715
outer loop
vertex -51.439457 -125.488991 -9.403662
vertex -51.439457 -123.993988 -9.403662
vertex -51.685772 -125.488991 -9.724707
endloop
endfacet
facet normal -0.793395 0.000000 0.608707
outer loop
vertex -51.685772 -125.488991 -9.724707
vertex -51.439457 -123.993988 -9.403662
vertex -51.685772 -123.993988 -9.724707
endloop
endfacet
facet normal -0.608800 0.000000 0.793324
outer loop
vertex -51.685772 -125.488991 -9.724707
vertex -51.685772 -123.993988 -9.724707
vertex -52.006790 -125.488991 -9.971060
endloop
endfacet
facet normal -0.608808 0.000000 0.793318
outer loop
vertex -52.006790 -125.488991 -9.971060
vertex -51.685772 -123.993988 -9.724707
vertex -52.006790 -123.993988 -9.971060
endloop
endfacet
facet normal -0.382740 0.000000 0.923856
outer loop
vertex -52.006790 -125.488991 -9.971060
vertex -52.006790 -123.993988 -9.971060
vertex -52.380630 -125.488991 -10.125937
endloop
endfacet
facet normal -0.382740 0.000000 0.923856
outer loop
vertex -52.380630 -125.488991 -10.125937
vertex -52.006790 -123.993988 -9.971060
vertex -52.380630 -123.993988 -10.125937
endloop
endfacet
facet normal -0.130550 0.000000 0.991442
outer loop
vertex -52.380630 -125.488991 -10.125937
vertex -52.380630 -123.993988 -10.125937
vertex -52.781815 -125.488991 -10.178762
endloop
endfacet
facet normal -0.130547 0.000000 0.991442
outer loop
vertex -52.781815 -125.488991 -10.178762
vertex -52.380630 -123.993988 -10.125937
vertex -52.781815 -123.993988 -10.178762
endloop
endfacet
facet normal 0.130506 0.000000 0.991448
outer loop
vertex -52.781815 -125.488991 -10.178762
vertex -52.781815 -123.993988 -10.178762
vertex -53.183002 -125.488991 -10.125952
endloop
endfacet
facet normal 0.130513 0.000000 0.991447
outer loop
vertex -53.183002 -125.488991 -10.125952
vertex -52.781815 -123.993988 -10.178762
vertex -53.183002 -123.993988 -10.125952
endloop
endfacet
facet normal 0.382699 0.000000 0.923873
outer loop
vertex -53.183002 -125.488991 -10.125952
vertex -53.183002 -123.993988 -10.125952
vertex -53.556850 -125.488991 -9.971090
endloop
endfacet
facet normal 0.382706 0.000000 0.923870
outer loop
vertex -53.556850 -125.488991 -9.971090
vertex -53.183002 -123.993988 -10.125952
vertex -53.556850 -123.993988 -9.971090
endloop
endfacet
facet normal 0.608734 0.000000 0.793375
outer loop
vertex -53.556850 -125.488991 -9.971090
vertex -53.556850 -123.993988 -9.971090
vertex -53.877880 -125.488991 -9.724768
endloop
endfacet
facet normal 0.608748 0.000000 0.793364
outer loop
vertex -53.877880 -125.488991 -9.724768
vertex -53.556850 -123.993988 -9.971090
vertex -53.877880 -123.993988 -9.724768
endloop
endfacet
facet normal 0.793371 0.000000 0.608739
outer loop
vertex -53.877880 -125.488991 -9.724768
vertex -53.877880 -123.993988 -9.724768
vertex -54.124210 -125.488991 -9.403723
endloop
endfacet
facet normal 0.793377 0.000000 0.608731
outer loop
vertex -54.124210 -125.488991 -9.403723
vertex -53.877880 -123.993988 -9.724768
vertex -54.124210 -123.993988 -9.403723
endloop
endfacet
facet normal 0.923889 0.000000 0.382660
outer loop
vertex -54.124210 -125.488991 -9.403723
vertex -54.124210 -123.993988 -9.403723
vertex -54.279049 -125.488991 -9.029882
endloop
endfacet
facet normal 0.923890 0.000000 0.382658
outer loop
vertex -54.279049 -125.488991 -9.029882
vertex -54.124210 -123.993988 -9.403723
vertex -54.279049 -123.993988 -9.029882
endloop
endfacet
facet normal 0.991450 0.000000 0.130489
outer loop
vertex -54.279049 -125.488991 -9.029882
vertex -54.279049 -123.993988 -9.029882
vertex -54.331852 -125.488991 -8.628683
endloop
endfacet
facet normal 0.991450 0.000000 0.130487
outer loop
vertex -54.331852 -125.488991 -8.628683
vertex -54.279049 -123.993988 -9.029882
vertex -54.331852 -123.993988 -8.628683
endloop
endfacet
facet normal -1.000000 0.000000 0.000000
outer loop
vertex -51.231853 -123.993988 -1.628759
vertex -51.231853 -123.993988 -8.628607
vertex -51.231853 -125.488991 -1.628759
endloop
endfacet
facet normal -1.000000 0.000000 0.000000
outer loop
vertex -51.231853 -125.488991 -1.628759
vertex -51.231853 -123.993988 -8.628607
vertex -51.231853 -125.488991 -8.628607
endloop
endfacet
facet normal 0.991445 0.000000 -0.130526
outer loop
vertex -54.331852 -125.488991 -1.628759
vertex -54.331852 -123.993988 -1.628759
vertex -54.279037 -125.488991 -1.227591
endloop
endfacet
facet normal 0.991445 0.000000 -0.130525
outer loop
vertex -54.279037 -125.488991 -1.227591
vertex -54.331852 -123.993988 -1.628759
vertex -54.279037 -123.993988 -1.227591
endloop
endfacet
facet normal 0.923877 0.000000 -0.382689
outer loop
vertex -54.279037 -125.488991 -1.227591
vertex -54.279037 -123.993988 -1.227591
vertex -54.124191 -125.488991 -0.853765
endloop
endfacet
facet normal 0.923878 0.000000 -0.382688
outer loop
vertex -54.124191 -125.488991 -0.853765
vertex -54.279037 -123.993988 -1.227591
vertex -54.124191 -123.993988 -0.853765
endloop
endfacet
facet normal 0.793366 0.000000 -0.608745
outer loop
vertex -54.124191 -125.488991 -0.853765
vertex -54.124191 -123.993988 -0.853765
vertex -53.877869 -125.488991 -0.532736
endloop
endfacet
facet normal 0.793372 0.000000 -0.608737
outer loop
vertex -53.877869 -125.488991 -0.532736
vertex -54.124191 -123.993988 -0.853765
vertex -53.877869 -123.993988 -0.532736
endloop
endfacet
facet normal 0.608753 0.000000 -0.793360
outer loop
vertex -53.877869 -125.488991 -0.532736
vertex -53.877869 -123.993988 -0.532736
vertex -53.556850 -125.488991 -0.286413
endloop
endfacet
facet normal 0.608759 0.000000 -0.793355
outer loop
vertex -53.556850 -125.488991 -0.286413
vertex -53.877869 -123.993988 -0.532736
vertex -53.556850 -123.993988 -0.286413
endloop
endfacet
facet normal 0.382681 0.000000 -0.923881
outer loop
vertex -53.556850 -125.488991 -0.286413
vertex -53.556850 -123.993988 -0.286413
vertex -53.183022 -125.488991 -0.131567
endloop
endfacet
facet normal 0.382690 0.000000 -0.923877
outer loop
vertex -53.183022 -125.488991 -0.131567
vertex -53.556850 -123.993988 -0.286413
vertex -53.183022 -123.993988 -0.131567
endloop
endfacet
facet normal 0.130516 0.000000 -0.991446
outer loop
vertex -53.183022 -125.488991 -0.131567
vertex -53.183022 -123.993988 -0.131567
vertex -52.781853 -125.488991 -0.078756
endloop
endfacet
facet normal 0.130516 0.000000 -0.991446
outer loop
vertex -52.781853 -125.488991 -0.078756
vertex -53.183022 -123.993988 -0.131567
vertex -52.781853 -123.993988 -0.078756
endloop
endfacet
facet normal -0.130516 0.000000 -0.991446
outer loop
vertex -52.781853 -125.488991 -0.078756
vertex -52.781853 -123.993988 -0.078756
vertex -52.380684 -125.488991 -0.131567
endloop
endfacet
facet normal -0.130516 0.000000 -0.991446
outer loop
vertex -52.380684 -125.488991 -0.131567
vertex -52.781853 -123.993988 -0.078756
vertex -52.380684 -123.993988 -0.131567
endloop
endfacet
facet normal -0.382681 0.000000 -0.923880
outer loop
vertex -52.380684 -125.488991 -0.131567
vertex -52.380684 -123.993988 -0.131567
vertex -52.006851 -125.488991 -0.286413
endloop
endfacet
facet normal -0.382685 0.000000 -0.923879
outer loop
vertex -52.006851 -125.488991 -0.286413
vertex -52.380684 -123.993988 -0.131567
vertex -52.006851 -123.993988 -0.286413
endloop
endfacet
facet normal -0.608753 0.000000 -0.793360
outer loop
vertex -52.006851 -125.488991 -0.286413
vertex -52.006851 -123.993988 -0.286413
vertex -51.685837 -125.488991 -0.532736
endloop
endfacet
facet normal -0.608765 0.000000 -0.793350
outer loop
vertex -51.685837 -125.488991 -0.532736
vertex -52.006851 -123.993988 -0.286413
vertex -51.685837 -123.993988 -0.532736
endloop
endfacet
facet normal -0.793366 0.000000 -0.608745
outer loop
vertex -51.685837 -125.488991 -0.532736
vertex -51.685837 -123.993988 -0.532736
vertex -51.439514 -125.488991 -0.853765
endloop
endfacet
facet normal -0.793372 0.000000 -0.608737
outer loop
vertex -51.439514 -125.488991 -0.853765
vertex -51.685837 -123.993988 -0.532736
vertex -51.439514 -123.993988 -0.853765
endloop
endfacet
facet normal -0.923878 0.000000 -0.382688
outer loop
vertex -51.439514 -125.488991 -0.853765
vertex -51.439514 -123.993988 -0.853765
vertex -51.284668 -125.488991 -1.227591
endloop
endfacet
facet normal -0.923877 0.000000 -0.382689
outer loop
vertex -51.284668 -125.488991 -1.227591
vertex -51.439514 -123.993988 -0.853765
vertex -51.284668 -123.993988 -1.227591
endloop
endfacet
facet normal -0.991445 0.000000 -0.130526
outer loop
vertex -51.284668 -125.488991 -1.227591
vertex -51.284668 -123.993988 -1.227591
vertex -51.231853 -125.488991 -1.628759
endloop
endfacet
facet normal -0.991445 0.000000 -0.130525
outer loop
vertex -51.231853 -125.488991 -1.628759
vertex -51.284668 -123.993988 -1.227591
vertex -51.231853 -123.993988 -1.628759
endloop
endfacet
facet normal 1.000000 0.000000 0.000000
outer loop
vertex -54.331852 -123.993988 -8.628683
vertex -54.331852 -123.993988 -1.628759
vertex -54.331852 -125.488991 -8.628683
endloop
endfacet
facet normal 1.000000 0.000000 0.000000
outer loop
vertex -54.331852 -125.488991 -8.628683
vertex -54.331852 -123.993988 -1.628759
vertex -54.331852 -125.488991 -1.628759
endloop
endfacet
facet normal 0.000000 1.000000 0.000000
outer loop
vertex -54.331852 -125.488991 -1.628759
vertex -53.556850 -125.488991 -0.286413
vertex -54.331852 -125.488991 -8.628683
endloop
endfacet
facet normal 0.000000 1.000000 0.000000
outer loop
vertex -54.331852 -125.488991 -8.628683
vertex -53.556850 -125.488991 -0.286413
vertex -53.556850 -125.488991 -9.971090
endloop
endfacet
facet normal 0.000000 1.000000 -0.000032
outer loop
vertex -54.331852 -125.488991 -8.628683
vertex -53.556850 -125.488991 -9.971090
vertex -53.877880 -125.488991 -9.724768
endloop
endfacet
facet normal 0.000000 1.000000 0.000000
outer loop
vertex -54.279037 -125.488991 -1.227591
vertex -54.124191 -125.488991 -0.853765
vertex -54.331852 -125.488991 -1.628759
endloop
endfacet
facet normal 0.000000 1.000000 0.000000
outer loop
vertex -54.331852 -125.488991 -1.628759
vertex -54.124191 -125.488991 -0.853765
vertex -53.877869 -125.488991 -0.532736
endloop
endfacet
facet normal 0.000000 1.000000 0.000000
outer loop
vertex -54.331852 -125.488991 -1.628759
vertex -53.877869 -125.488991 -0.532736
vertex -53.556850 -125.488991 -0.286413
endloop
endfacet
facet normal 0.000000 1.000000 0.000000
outer loop
vertex -53.556850 -125.488991 -9.971090
vertex -53.556850 -125.488991 -0.286413
vertex -53.183002 -125.488991 -10.125952
endloop
endfacet
facet normal 0.000000 1.000000 0.000000
outer loop
vertex -53.183002 -125.488991 -10.125952
vertex -53.556850 -125.488991 -0.286413
vertex -53.183022 -125.488991 -0.131567
endloop
endfacet
facet normal 0.000000 1.000000 0.000000
outer loop
vertex -53.183002 -125.488991 -10.125952
vertex -53.183022 -125.488991 -0.131567
vertex -52.781815 -125.488991 -10.178762
endloop
endfacet
facet normal 0.000000 1.000000 0.000000
outer loop
vertex -52.781815 -125.488991 -10.178762
vertex -53.183022 -125.488991 -0.131567
vertex -52.781853 -125.488991 -0.078756
endloop
endfacet
facet normal 0.000000 1.000000 0.000000
outer loop
vertex -52.781815 -125.488991 -10.178762
vertex -52.781853 -125.488991 -0.078756
vertex -52.380684 -125.488991 -0.131567
endloop
endfacet
facet normal 0.000000 1.000000 -0.000000
outer loop
vertex -52.781815 -125.488991 -10.178762
vertex -52.380684 -125.488991 -0.131567
vertex -52.380630 -125.488991 -10.125937
endloop
endfacet
facet normal 0.000000 1.000000 0.000000
outer loop
vertex -52.380630 -125.488991 -10.125937
vertex -52.380684 -125.488991 -0.131567
vertex -52.006851 -125.488991 -0.286413
endloop
endfacet
facet normal 0.000000 1.000000 -0.000000
outer loop
vertex -52.380630 -125.488991 -10.125937
vertex -52.006851 -125.488991 -0.286413
vertex -52.006790 -125.488991 -9.971060
endloop
endfacet
facet normal 0.000000 1.000000 -0.000002
outer loop
vertex -52.006790 -125.488991 -9.971060
vertex -52.006851 -125.488991 -0.286413
vertex -51.231853 -125.488991 -8.628607
endloop
endfacet
facet normal 0.000000 1.000000 0.000032
outer loop
vertex -52.006790 -125.488991 -9.971060
vertex -51.231853 -125.488991 -8.628607
vertex -51.685772 -125.488991 -9.724707
endloop
endfacet
facet normal 0.000000 1.000000 0.000000
outer loop
vertex -51.685772 -125.488991 -9.724707
vertex -51.231853 -125.488991 -8.628607
vertex -51.439457 -125.488991 -9.403662
endloop
endfacet
facet normal 0.000000 1.000000 0.000068
outer loop
vertex -51.439457 -125.488991 -9.403662
vertex -51.231853 -125.488991 -8.628607
vertex -51.284634 -125.488991 -9.029806
endloop
endfacet
facet normal 0.000000 1.000000 0.000000
outer loop
vertex -51.231853 -125.488991 -8.628607
vertex -52.006851 -125.488991 -0.286413
vertex -51.231853 -125.488991 -1.628759
endloop
endfacet
facet normal 0.000000 1.000000 0.000032
outer loop
vertex -51.231853 -125.488991 -1.628759
vertex -52.006851 -125.488991 -0.286413
vertex -51.685837 -125.488991 -0.532736
endloop
endfacet
facet normal 0.000000 1.000000 0.000000
outer loop
vertex -51.231853 -125.488991 -1.628759
vertex -51.685837 -125.488991 -0.532736
vertex -51.439514 -125.488991 -0.853765
endloop
endfacet
facet normal 0.000000 1.000000 0.000023
outer loop
vertex -51.439514 -125.488991 -0.853765
vertex -51.284668 -125.488991 -1.227591
vertex -51.231853 -125.488991 -1.628759
endloop
endfacet
facet normal 0.000000 1.000000 0.000031
outer loop
vertex -53.877880 -125.488991 -9.724768
vertex -54.124210 -125.488991 -9.403723
vertex -54.331852 -125.488991 -8.628683
endloop
endfacet
facet normal 0.000000 1.000000 0.000000
outer loop
vertex -54.331852 -125.488991 -8.628683
vertex -54.124210 -125.488991 -9.403723
vertex -54.279049 -125.488991 -9.029882
endloop
endfacet
facet normal 0.991445 0.000000 0.130525
outer loop
vertex -54.279037 -127.983986 -12.529928
vertex -54.279037 -126.488991 -12.529928
vertex -54.331852 -127.983986 -12.128759
endloop
endfacet
facet normal 0.991445 0.000000 0.130525
outer loop
vertex -54.331852 -127.983986 -12.128759
vertex -54.279037 -126.488991 -12.529928
vertex -54.331852 -126.488991 -12.128759
endloop
endfacet
facet normal 0.991445 0.000000 -0.130525
outer loop
vertex -54.331852 -127.983986 -12.128759
vertex -54.331852 -126.488991 -12.128759
vertex -54.279037 -127.983986 -11.727591
endloop
endfacet
facet normal 0.991445 0.000000 -0.130524
outer loop
vertex -54.279037 -127.983986 -11.727591
vertex -54.331852 -126.488991 -12.128759
vertex -54.279037 -126.488991 -11.727591
endloop
endfacet
facet normal 0.923876 0.000000 -0.382691
outer loop
vertex -54.279037 -127.983986 -11.727591
vertex -54.279037 -126.488991 -11.727591
vertex -54.124191 -127.983986 -11.353765
endloop
endfacet
facet normal 0.923877 0.000000 -0.382689
outer loop
vertex -54.124191 -127.983986 -11.353765
vertex -54.279037 -126.488991 -11.727591
vertex -54.124191 -126.488991 -11.353765
endloop
endfacet
facet normal 0.793368 0.000000 -0.608743
outer loop
vertex -54.124191 -127.983986 -11.353765
vertex -54.124191 -126.488991 -11.353765
vertex -53.877869 -127.983986 -11.032736
endloop
endfacet
facet normal 0.793365 0.000000 -0.608746
outer loop
vertex -53.877869 -127.983986 -11.032736
vertex -54.124191 -126.488991 -11.353765
vertex -53.877869 -126.488991 -11.032736
endloop
endfacet
facet normal 0.608758 0.000000 -0.793356
outer loop
vertex -53.877869 -127.983986 -11.032736
vertex -53.877869 -126.488991 -11.032736
vertex -53.556850 -127.983986 -10.786413
endloop
endfacet
facet normal 0.608758 0.000000 -0.793356
outer loop
vertex -53.556850 -127.983986 -10.786413
vertex -53.877869 -126.488991 -11.032736
vertex -53.556850 -126.488991 -10.786413
endloop
endfacet
facet normal 0.382685 0.000000 -0.923879
outer loop
vertex -53.556850 -127.983986 -10.786413
vertex -53.556850 -126.488991 -10.786413
vertex -53.183022 -127.983986 -10.631567
endloop
endfacet
facet normal 0.382686 0.000000 -0.923878
outer loop
vertex -53.183022 -127.983986 -10.631567
vertex -53.556850 -126.488991 -10.786413
vertex -53.183022 -126.488991 -10.631567
endloop
endfacet
facet normal 0.130517 0.000000 -0.991446
outer loop
vertex -53.183022 -127.983986 -10.631567
vertex -53.183022 -126.488991 -10.631567
vertex -52.781853 -127.983986 -10.578756
endloop
endfacet
facet normal 0.130514 0.000000 -0.991446
outer loop
vertex -52.781853 -127.983986 -10.578756
vertex -53.183022 -126.488991 -10.631567
vertex -52.781853 -126.488991 -10.578756
endloop
endfacet
facet normal -0.130514 0.000000 -0.991446
outer loop
vertex -52.781853 -127.983986 -10.578756
vertex -52.781853 -126.488991 -10.578756
vertex -52.380684 -127.983986 -10.631567
endloop
endfacet
facet normal -0.130517 0.000000 -0.991446
outer loop
vertex -52.380684 -127.983986 -10.631567
vertex -52.781853 -126.488991 -10.578756
vertex -52.380684 -126.488991 -10.631567
endloop
endfacet
facet normal -0.382677 0.000000 -0.923882
outer loop
vertex -52.380684 -127.983986 -10.631567
vertex -52.380684 -126.488991 -10.631567
vertex -52.006851 -127.983986 -10.786413
endloop
endfacet
facet normal -0.382685 0.000000 -0.923879
outer loop
vertex -52.006851 -127.983986 -10.786413
vertex -52.380684 -126.488991 -10.631567
vertex -52.006851 -126.488991 -10.786413
endloop
endfacet
facet normal -0.608764 0.000000 -0.793351
outer loop
vertex -52.006851 -127.983986 -10.786413
vertex -52.006851 -126.488991 -10.786413
vertex -51.685837 -127.983986 -11.032736
endloop
endfacet
facet normal -0.608764 0.000000 -0.793351
outer loop
vertex -51.685837 -127.983986 -11.032736
vertex -52.006851 -126.488991 -10.786413
vertex -51.685837 -126.488991 -11.032736
endloop
endfacet
facet normal -0.793365 0.000000 -0.608746
outer loop
vertex -51.685837 -127.983986 -11.032736
vertex -51.685837 -126.488991 -11.032736
vertex -51.439514 -127.983986 -11.353765
endloop
endfacet
facet normal -0.793368 0.000000 -0.608743
outer loop
vertex -51.439514 -127.983986 -11.353765
vertex -51.685837 -126.488991 -11.032736
vertex -51.439514 -126.488991 -11.353765
endloop
endfacet
facet normal -0.923877 0.000000 -0.382689
outer loop
vertex -51.439514 -127.983986 -11.353765
vertex -51.439514 -126.488991 -11.353765
vertex -51.284668 -127.983986 -11.727591
endloop
endfacet
facet normal -0.923876 0.000000 -0.382691
outer loop
vertex -51.284668 -127.983986 -11.727591
vertex -51.439514 -126.488991 -11.353765
vertex -51.284668 -126.488991 -11.727591
endloop
endfacet
facet normal -0.991445 0.000000 -0.130525
outer loop
vertex -51.284668 -127.983986 -11.727591
vertex -51.284668 -126.488991 -11.727591
vertex -51.231853 -127.983986 -12.128759
endloop
endfacet
facet normal -0.991445 0.000000 -0.130524
outer loop
vertex -51.231853 -127.983986 -12.128759
vertex -51.284668 -126.488991 -11.727591
vertex -51.231853 -126.488991 -12.128759
endloop
endfacet
facet normal -0.991445 0.000000 0.130526
outer loop
vertex -51.231853 -127.983986 -12.128759
vertex -51.231853 -126.488991 -12.128759
vertex -51.284668 -127.983986 -12.529928
endloop
endfacet
facet normal -0.991445 0.000000 0.130524
outer loop
vertex -51.284668 -127.983986 -12.529928
vertex -51.231853 -126.488991 -12.128759
vertex -51.284668 -126.488991 -12.529928
endloop
endfacet
facet normal -0.923877 0.000000 0.382689
outer loop
vertex -51.284668 -127.983986 -12.529928
vertex -51.284668 -126.488991 -12.529928
vertex -51.439514 -127.983986 -12.903753
endloop
endfacet
facet normal -0.923876 0.000000 0.382691
outer loop
vertex -51.439514 -127.983986 -12.903753
vertex -51.284668 -126.488991 -12.529928
vertex -51.439514 -126.488991 -12.903753
endloop
endfacet
facet normal -0.793354 0.000000 0.608761
outer loop
vertex -51.439514 -127.983986 -12.903753
vertex -51.439514 -126.488991 -12.903753
vertex -51.685837 -127.983986 -13.224768
endloop
endfacet
facet normal -0.793354 0.000000 0.608761
outer loop
vertex -51.685837 -127.983986 -13.224768
vertex -51.439514 -126.488991 -12.903753
vertex -51.685837 -126.488991 -13.224768
endloop
endfacet
facet normal -0.608764 0.000000 0.793351
outer loop
vertex -51.685837 -127.983986 -13.224768
vertex -51.685837 -126.488991 -13.224768
vertex -52.006851 -127.983986 -13.471090
endloop
endfacet
facet normal -0.608760 0.000000 0.793354
outer loop
vertex -52.006851 -127.983986 -13.471090
vertex -51.685837 -126.488991 -13.224768
vertex -52.006851 -126.488991 -13.471090
endloop
endfacet
facet normal -0.382680 0.000000 0.923881
outer loop
vertex -52.006851 -127.983986 -13.471090
vertex -52.006851 -126.488991 -13.471090
vertex -52.380684 -127.983986 -13.625937
endloop
endfacet
facet normal -0.382685 0.000000 0.923879
outer loop
vertex -52.380684 -127.983986 -13.625937
vertex -52.006851 -126.488991 -13.471090
vertex -52.380684 -126.488991 -13.625937
endloop
endfacet
facet normal -0.130555 0.000000 0.991441
outer loop
vertex -52.380684 -127.983986 -13.625937
vertex -52.380684 -126.488991 -13.625937
vertex -52.781853 -127.983986 -13.678762
endloop
endfacet
facet normal -0.130548 0.000000 0.991442
outer loop
vertex -52.781853 -127.983986 -13.678762
vertex -52.380684 -126.488991 -13.625937
vertex -52.781853 -126.488991 -13.678762
endloop
endfacet
facet normal 0.130548 0.000000 0.991442
outer loop
vertex -52.781853 -127.983986 -13.678762
vertex -52.781853 -126.488991 -13.678762
vertex -53.183022 -127.983986 -13.625937
endloop
endfacet
facet normal 0.130555 0.000000 0.991441
outer loop
vertex -53.183022 -127.983986 -13.625937
vertex -52.781853 -126.488991 -13.678762
vertex -53.183022 -126.488991 -13.625937
endloop
endfacet
facet normal 0.382685 0.000000 0.923879
outer loop
vertex -53.183022 -127.983986 -13.625937
vertex -53.183022 -126.488991 -13.625937
vertex -53.556850 -127.983986 -13.471090
endloop
endfacet
facet normal 0.382689 0.000000 0.923877
outer loop
vertex -53.556850 -127.983986 -13.471090
vertex -53.183022 -126.488991 -13.625937
vertex -53.556850 -126.488991 -13.471090
endloop
endfacet
facet normal 0.608754 0.000000 0.793359
outer loop
vertex -53.556850 -127.983986 -13.471090
vertex -53.556850 -126.488991 -13.471090
vertex -53.877869 -127.983986 -13.224768
endloop
endfacet
facet normal 0.608758 0.000000 0.793356
outer loop
vertex -53.877869 -127.983986 -13.224768
vertex -53.556850 -126.488991 -13.471090
vertex -53.877869 -126.488991 -13.224768
endloop
endfacet
facet normal 0.793354 0.000000 0.608761
outer loop
vertex -53.877869 -127.983986 -13.224768
vertex -53.877869 -126.488991 -13.224768
vertex -54.124191 -127.983986 -12.903753
endloop
endfacet
facet normal 0.793354 0.000000 0.608761
outer loop
vertex -54.124191 -127.983986 -12.903753
vertex -53.877869 -126.488991 -13.224768
vertex -54.124191 -126.488991 -12.903753
endloop
endfacet
facet normal 0.923876 0.000000 0.382691
outer loop
vertex -54.124191 -127.983986 -12.903753
vertex -54.124191 -126.488991 -12.903753
vertex -54.279037 -127.983986 -12.529928
endloop
endfacet
facet normal 0.923877 0.000000 0.382689
outer loop
vertex -54.279037 -127.983986 -12.529928
vertex -54.124191 -126.488991 -12.903753
vertex -54.279037 -126.488991 -12.529928
endloop
endfacet
facet normal 0.000000 -1.000000 0.000000
outer loop
vertex -54.279037 -126.488991 -12.529928
vertex -51.284668 -126.488991 -12.529928
vertex -54.331852 -126.488991 -12.128759
endloop
endfacet
facet normal 0.000000 -1.000000 0.000001
outer loop
vertex -54.331852 -126.488991 -12.128759
vertex -51.284668 -126.488991 -12.529928
vertex -51.231853 -126.488991 -12.128759
endloop
endfacet
facet normal 0.000000 -1.000000 0.000000
outer loop
vertex -54.331852 -126.488991 -12.128759
vertex -51.231853 -126.488991 -12.128759
vertex -54.279037 -126.488991 -11.727591
endloop
endfacet
facet normal 0.000000 -1.000000 -0.000001
outer loop
vertex -54.279037 -126.488991 -11.727591
vertex -51.231853 -126.488991 -12.128759
vertex -51.284668 -126.488991 -11.727591
endloop
endfacet
facet normal 0.000000 -1.000000 0.000055
outer loop
vertex -54.279037 -126.488991 -11.727591
vertex -51.284668 -126.488991 -11.727591
vertex -54.124191 -126.488991 -11.353765
endloop
endfacet
facet normal 0.000000 -1.000000 -0.000008
outer loop
vertex -54.124191 -126.488991 -11.353765
vertex -51.284668 -126.488991 -11.727591
vertex -51.439514 -126.488991 -11.353765
endloop
endfacet
facet normal 0.000000 -1.000000 0.000000
outer loop
vertex -54.124191 -126.488991 -11.353765
vertex -51.439514 -126.488991 -11.353765
vertex -53.877869 -126.488991 -11.032736
endloop
endfacet
facet normal 0.000000 -1.000000 0.000011
outer loop
vertex -53.877869 -126.488991 -11.032736
vertex -51.439514 -126.488991 -11.353765
vertex -51.685837 -126.488991 -11.032736
endloop
endfacet
facet normal 0.000000 -1.000000 -0.000057
outer loop
vertex -53.877869 -126.488991 -11.032736
vertex -51.685837 -126.488991 -11.032736
vertex -53.556850 -126.488991 -10.786413
endloop
endfacet
facet normal 0.000000 -1.000000 -0.000040
outer loop
vertex -53.556850 -126.488991 -10.786413
vertex -51.685837 -126.488991 -11.032736
vertex -52.006851 -126.488991 -10.786413
endloop
endfacet
facet normal 0.000000 -1.000000 0.000127
outer loop
vertex -53.556850 -126.488991 -10.786413
vertex -52.006851 -126.488991 -10.786413
vertex -53.183022 -126.488991 -10.631567
endloop
endfacet
facet normal 0.000000 -1.000000 0.000000
outer loop
vertex -53.183022 -126.488991 -10.631567
vertex -52.006851 -126.488991 -10.786413
vertex -52.380684 -126.488991 -10.631567
endloop
endfacet
facet normal 0.000000 -1.000000 0.000000
outer loop
vertex -53.183022 -126.488991 -10.631567
vertex -52.380684 -126.488991 -10.631567
vertex -52.781853 -126.488991 -10.578756
endloop
endfacet
facet normal 0.000000 -1.000000 -0.000055
outer loop
vertex -51.284668 -126.488991 -12.529928
vertex -54.279037 -126.488991 -12.529928
vertex -51.439514 -126.488991 -12.903753
endloop
endfacet
facet normal 0.000000 -1.000000 0.000008
outer loop
vertex -51.439514 -126.488991 -12.903753
vertex -54.279037 -126.488991 -12.529928
vertex -54.124191 -126.488991 -12.903753
endloop
endfacet
facet normal 0.000000 -1.000000 0.000000
outer loop
vertex -51.439514 -126.488991 -12.903753
vertex -54.124191 -126.488991 -12.903753
vertex -51.685837 -126.488991 -13.224768
endloop
endfacet
facet normal 0.000000 -1.000000 -0.000011
outer loop
vertex -51.685837 -126.488991 -13.224768
vertex -54.124191 -126.488991 -12.903753
vertex -53.877869 -126.488991 -13.224768
endloop
endfacet
facet normal 0.000000 -1.000000 0.000113
outer loop
vertex -51.685837 -126.488991 -13.224768
vertex -53.877869 -126.488991 -13.224768
vertex -52.006851 -126.488991 -13.471090
endloop
endfacet
facet normal 0.000000 -1.000000 0.000000
outer loop
vertex -52.006851 -126.488991 -13.471090
vertex -53.877869 -126.488991 -13.224768
vertex -53.556850 -126.488991 -13.471090
endloop
endfacet
facet normal 0.000000 -1.000000 0.000000
outer loop
vertex -52.006851 -126.488991 -13.471090
vertex -53.556850 -126.488991 -13.471090
vertex -52.380684 -126.488991 -13.625937
endloop
endfacet
facet normal 0.000000 -1.000000 -0.000123
outer loop
vertex -52.380684 -126.488991 -13.625937
vertex -53.556850 -126.488991 -13.471090
vertex -53.183022 -126.488991 -13.625937
endloop
endfacet
facet normal 0.000000 -1.000000 0.000000
outer loop
vertex -52.380684 -126.488991 -13.625937
vertex -53.183022 -126.488991 -13.625937
vertex -52.781853 -126.488991 -13.678762
endloop
endfacet
facet normal 0.991445 0.000000 0.130524
outer loop
vertex -57.831852 -126.488991 -8.628759
vertex -57.831852 -127.983986 -8.628759
vertex -57.779037 -126.488991 -9.029928
endloop
endfacet
facet normal 0.991445 0.000000 0.130526
outer loop
vertex -57.779037 -126.488991 -9.029928
vertex -57.831852 -127.983986 -8.628759
vertex -57.779037 -127.983986 -9.029928
endloop
endfacet
facet normal 0.923877 0.000000 0.382690
outer loop
vertex -57.779037 -126.488991 -9.029928
vertex -57.779037 -127.983986 -9.029928
vertex -57.624191 -126.488991 -9.403753
endloop
endfacet
facet normal 0.923877 0.000000 0.382690
outer loop
vertex -57.624191 -126.488991 -9.403753
vertex -57.779037 -127.983986 -9.029928
vertex -57.624191 -127.983986 -9.403753
endloop
endfacet
facet normal 0.793354 0.000000 0.608761
outer loop
vertex -57.624191 -126.488991 -9.403753
vertex -57.624191 -127.983986 -9.403753
vertex -57.377869 -126.488991 -9.724768
endloop
endfacet
facet normal 0.793352 0.000000 0.608763
outer loop
vertex -57.377869 -126.488991 -9.724768
vertex -57.624191 -127.983986 -9.403753
vertex -57.377869 -127.983986 -9.724768
endloop
endfacet
facet normal 0.608758 0.000000 0.793356
outer loop
vertex -57.377869 -126.488991 -9.724768
vertex -57.377869 -127.983986 -9.724768
vertex -57.056850 -126.488991 -9.971090
endloop
endfacet
facet normal 0.608758 0.000000 0.793356
outer loop
vertex -57.056850 -126.488991 -9.971090
vertex -57.377869 -127.983986 -9.724768
vertex -57.056850 -127.983986 -9.971090
endloop
endfacet
facet normal 0.382686 0.000000 0.923878
outer loop
vertex -57.056850 -126.488991 -9.971090
vertex -57.056850 -127.983986 -9.971090
vertex -56.683022 -126.488991 -10.125937
endloop
endfacet
facet normal 0.382685 0.000000 0.923879
outer loop
vertex -56.683022 -126.488991 -10.125937
vertex -57.056850 -127.983986 -9.971090
vertex -56.683022 -127.983986 -10.125937
endloop
endfacet
facet normal 0.130552 0.000000 0.991441
outer loop
vertex -56.683022 -126.488991 -10.125937
vertex -56.683022 -127.983986 -10.125937
vertex -56.281853 -126.488991 -10.178762
endloop
endfacet
facet normal 0.130555 0.000000 0.991441
outer loop
vertex -56.281853 -126.488991 -10.178762
vertex -56.683022 -127.983986 -10.125937
vertex -56.281853 -127.983986 -10.178762
endloop
endfacet
facet normal -0.130555 0.000000 0.991441
outer loop
vertex -56.281853 -126.488991 -10.178762
vertex -56.281853 -127.983986 -10.178762
vertex -55.880684 -126.488991 -10.125937
endloop
endfacet
facet normal -0.130552 0.000000 0.991441
outer loop
vertex -55.880684 -126.488991 -10.125937
vertex -56.281853 -127.983986 -10.178762
vertex -55.880684 -127.983986 -10.125937
endloop
endfacet
facet normal -0.382685 0.000000 0.923879
outer loop
vertex -55.880684 -126.488991 -10.125937
vertex -55.880684 -127.983986 -10.125937
vertex -55.506851 -126.488991 -9.971090
endloop
endfacet
facet normal -0.382677 0.000000 0.923882
outer loop
vertex -55.506851 -126.488991 -9.971090
vertex -55.880684 -127.983986 -10.125937
vertex -55.506851 -127.983986 -9.971090
endloop
endfacet
facet normal -0.608764 0.000000 0.793351
outer loop
vertex -55.506851 -126.488991 -9.971090
vertex -55.506851 -127.983986 -9.971090
vertex -55.185837 -126.488991 -9.724768
endloop
endfacet
facet normal -0.608764 0.000000 0.793351
outer loop
vertex -55.185837 -126.488991 -9.724768
vertex -55.506851 -127.983986 -9.971090
vertex -55.185837 -127.983986 -9.724768
endloop
endfacet
facet normal -0.793352 0.000000 0.608763
outer loop
vertex -55.185837 -126.488991 -9.724768
vertex -55.185837 -127.983986 -9.724768
vertex -54.939514 -126.488991 -9.403753
endloop
endfacet
facet normal -0.793354 0.000000 0.608761
outer loop
vertex -54.939514 -126.488991 -9.403753
vertex -55.185837 -127.983986 -9.724768
vertex -54.939514 -127.983986 -9.403753
endloop
endfacet
facet normal -0.923877 0.000000 0.382690
outer loop
vertex -54.939514 -126.488991 -9.403753
vertex -54.939514 -127.983986 -9.403753
vertex -54.784668 -126.488991 -9.029928
endloop
endfacet
facet normal -0.923877 0.000000 0.382690
outer loop
vertex -54.784668 -126.488991 -9.029928
vertex -54.939514 -127.983986 -9.403753
vertex -54.784668 -127.983986 -9.029928
endloop
endfacet
facet normal -0.991445 0.000000 0.130524
outer loop
vertex -54.784668 -126.488991 -9.029928
vertex -54.784668 -127.983986 -9.029928
vertex -54.731853 -126.488991 -8.628759
endloop
endfacet
facet normal -0.991445 0.000000 0.130525
outer loop
vertex -54.731853 -126.488991 -8.628759
vertex -54.784668 -127.983986 -9.029928
vertex -54.731853 -127.983986 -8.628759
endloop
endfacet
facet normal 1.000000 0.000000 0.000000
outer loop
vertex -57.831852 -127.983986 -5.129126
vertex -57.831852 -127.983986 -8.628759
vertex -57.831852 -126.488991 -5.129126
endloop
endfacet
facet normal 1.000000 0.000000 0.000000
outer loop
vertex -57.831852 -126.488991 -5.129126
vertex -57.831852 -127.983986 -8.628759
vertex -57.831852 -126.488991 -8.628759
endloop
endfacet
facet normal 0.130514 0.000000 -0.991446
outer loop
vertex -56.281853 -126.488991 -3.579123
vertex -56.281853 -127.983986 -3.579123
vertex -56.683022 -126.488991 -3.631933
endloop
endfacet
facet normal 0.130516 0.000000 -0.991446
outer loop
vertex -56.683022 -126.488991 -3.631933
vertex -56.281853 -127.983986 -3.579123
vertex -56.683022 -127.983986 -3.631933
endloop
endfacet
facet normal 0.382689 0.000000 -0.923877
outer loop
vertex -56.683022 -126.488991 -3.631933
vertex -56.683022 -127.983986 -3.631933
vertex -57.056850 -126.488991 -3.786779
endloop
endfacet
facet normal 0.382683 0.000000 -0.923880
outer loop
vertex -57.056850 -126.488991 -3.786779
vertex -56.683022 -127.983986 -3.631933
vertex -57.056850 -127.983986 -3.786779
endloop
endfacet
facet normal 0.608757 0.000000 -0.793357
outer loop
vertex -57.056850 -126.488991 -3.786779
vertex -57.056850 -127.983986 -3.786779
vertex -57.377869 -126.488991 -4.033102
endloop
endfacet
facet normal 0.608758 0.000000 -0.793356
outer loop
vertex -57.377869 -126.488991 -4.033102
vertex -57.056850 -127.983986 -3.786779
vertex -57.377869 -127.983986 -4.033102
endloop
endfacet
facet normal 0.793353 0.000000 -0.608762
outer loop
vertex -57.377869 -126.488991 -4.033102
vertex -57.377869 -127.983986 -4.033102
vertex -57.624191 -126.488991 -4.354116
endloop
endfacet
facet normal 0.793353 0.000000 -0.608762
outer loop
vertex -57.624191 -126.488991 -4.354116
vertex -57.377869 -127.983986 -4.033102
vertex -57.624191 -127.983986 -4.354116
endloop
endfacet
facet normal 0.923882 0.000000 -0.382677
outer loop
vertex -57.624191 -126.488991 -4.354116
vertex -57.624191 -127.983986 -4.354116
vertex -57.779037 -126.488991 -4.727957
endloop
endfacet
facet normal 0.923882 0.000000 -0.382677
outer loop
vertex -57.779037 -126.488991 -4.727957
vertex -57.624191 -127.983986 -4.354116
vertex -57.779037 -127.983986 -4.727957
endloop
endfacet
facet normal 0.991445 0.000000 -0.130524
outer loop
vertex -57.779037 -126.488991 -4.727957
vertex -57.779037 -127.983986 -4.727957
vertex -57.831852 -126.488991 -5.129126
endloop
endfacet
facet normal 0.991445 0.000000 -0.130525
outer loop
vertex -57.831852 -126.488991 -5.129126
vertex -57.779037 -127.983986 -4.727957
vertex -57.831852 -127.983986 -5.129126
endloop
endfacet
facet normal 1.000000 0.000000 0.000000
outer loop
vertex -56.281853 -127.983986 -3.578756
vertex -56.281853 -127.983986 -3.579123
vertex -56.281853 -126.488991 -3.578756
endloop
endfacet
facet normal 1.000000 0.000000 0.000000
outer loop
vertex -56.281853 -126.488991 -3.578756
vertex -56.281853 -127.983986 -3.579123
vertex -56.281853 -126.488991 -3.579123
endloop
endfacet
facet normal 0.000000 0.000000 -1.000000
outer loop
vertex -49.281830 -127.983986 -3.578756
vertex -56.281853 -127.983986 -3.578756
vertex -49.281830 -126.488991 -3.578756
endloop
endfacet
facet normal 0.000000 0.000000 -1.000000
outer loop
vertex -49.281830 -126.488991 -3.578756
vertex -56.281853 -127.983986 -3.578756
vertex -56.281853 -126.488991 -3.578756
endloop
endfacet
facet normal -0.991446 0.000000 -0.130516
outer loop
vertex -47.731853 -126.488991 -5.128759
vertex -47.731853 -127.983986 -5.128759
vertex -47.784664 -126.488991 -4.727591
endloop
endfacet
facet normal -0.991446 0.000000 -0.130515
outer loop
vertex -47.784664 -126.488991 -4.727591
vertex -47.731853 -127.983986 -5.128759
vertex -47.784664 -127.983986 -4.727591
endloop
endfacet
facet normal -0.923877 0.000000 -0.382690
outer loop
vertex -47.784664 -126.488991 -4.727591
vertex -47.784664 -127.983986 -4.727591
vertex -47.939510 -126.488991 -4.353765
endloop
endfacet
facet normal -0.923877 0.000000 -0.382690
outer loop
vertex -47.939510 -126.488991 -4.353765
vertex -47.784664 -127.983986 -4.727591
vertex -47.939510 -127.983986 -4.353765
endloop
endfacet
facet normal -0.793356 0.000000 -0.608758
outer loop
vertex -47.939510 -126.488991 -4.353765
vertex -47.939510 -127.983986 -4.353765
vertex -48.185829 -126.488991 -4.032751
endloop
endfacet
facet normal -0.793360 0.000000 -0.608753
outer loop
vertex -48.185829 -126.488991 -4.032751
vertex -47.939510 -127.983986 -4.353765
vertex -48.185829 -127.983986 -4.032751
endloop
endfacet
facet normal -0.608763 0.000000 -0.793352
outer loop
vertex -48.185829 -126.488991 -4.032751
vertex -48.185829 -127.983986 -4.032751
vertex -48.506840 -126.488991 -3.786428
endloop
endfacet
facet normal -0.608769 0.000000 -0.793347
outer loop
vertex -48.506840 -126.488991 -3.786428
vertex -48.185829 -127.983986 -4.032751
vertex -48.506840 -127.983986 -3.786428
endloop
endfacet
facet normal -0.382689 0.000000 -0.923877
outer loop
vertex -48.506840 -126.488991 -3.786428
vertex -48.506840 -127.983986 -3.786428
vertex -48.880665 -126.488991 -3.631582
endloop
endfacet
facet normal -0.382688 0.000000 -0.923878
outer loop
vertex -48.880665 -126.488991 -3.631582
vertex -48.506840 -127.983986 -3.786428
vertex -48.880665 -127.983986 -3.631582
endloop
endfacet
facet normal -0.130555 0.000000 -0.991441
outer loop
vertex -48.880665 -126.488991 -3.631582
vertex -48.880665 -127.983986 -3.631582
vertex -49.281830 -126.488991 -3.578756
endloop
endfacet
facet normal -0.130555 0.000000 -0.991441
outer loop
vertex -49.281830 -126.488991 -3.578756
vertex -48.880665 -127.983986 -3.631582
vertex -49.281830 -127.983986 -3.578756
endloop
endfacet
facet normal -1.000000 0.000000 -0.000004
outer loop
vertex -47.731838 -127.983986 -8.628759
vertex -47.731853 -127.983986 -5.128759
vertex -47.731838 -126.488991 -8.628759
endloop
endfacet
facet normal -1.000000 0.000000 -0.000004
outer loop
vertex -47.731838 -126.488991 -8.628759
vertex -47.731853 -127.983986 -5.128759
vertex -47.731853 -126.488991 -5.128759
endloop
endfacet
facet normal 0.991444 0.000000 0.130533
outer loop
vertex -50.831841 -126.488991 -8.628759
vertex -50.831841 -127.983986 -8.628759
vertex -50.779022 -126.488991 -9.029928
endloop
endfacet
facet normal 0.991444 0.000000 0.130535
outer loop
vertex -50.779022 -126.488991 -9.029928
vertex -50.831841 -127.983986 -8.628759
vertex -50.779022 -127.983986 -9.029928
endloop
endfacet
facet normal 0.923882 0.000000 0.382677
outer loop
vertex -50.779022 -126.488991 -9.029928
vertex -50.779022 -127.983986 -9.029928
vertex -50.624176 -126.488991 -9.403769
endloop
endfacet
facet normal 0.923882 0.000000 0.382677
outer loop
vertex -50.624176 -126.488991 -9.403769
vertex -50.779022 -127.983986 -9.029928
vertex -50.624176 -127.983986 -9.403769
endloop
endfacet
facet normal 0.793354 0.000000 0.608761
outer loop
vertex -50.624176 -126.488991 -9.403769
vertex -50.624176 -127.983986 -9.403769
vertex -50.377853 -126.488991 -9.724783
endloop
endfacet
facet normal 0.793352 0.000000 0.608763
outer loop
vertex -50.377853 -126.488991 -9.724783
vertex -50.624176 -127.983986 -9.403769
vertex -50.377853 -127.983986 -9.724783
endloop
endfacet
facet normal 0.608758 0.000000 0.793356
outer loop
vertex -50.377853 -126.488991 -9.724783
vertex -50.377853 -127.983986 -9.724783
vertex -50.056835 -126.488991 -9.971106
endloop
endfacet
facet normal 0.608758 0.000000 0.793356
outer loop
vertex -50.056835 -126.488991 -9.971106
vertex -50.377853 -127.983986 -9.724783
vertex -50.056835 -127.983986 -9.971106
endloop
endfacet
facet normal 0.382686 0.000000 0.923878
outer loop
vertex -50.056835 -126.488991 -9.971106
vertex -50.056835 -127.983986 -9.971106
vertex -49.683006 -126.488991 -10.125952
endloop
endfacet
facet normal 0.382685 0.000000 0.923879
outer loop
vertex -49.683006 -126.488991 -10.125952
vertex -50.056835 -127.983986 -9.971106
vertex -49.683006 -127.983986 -10.125952
endloop
endfacet
facet normal 0.130514 0.000000 0.991446
outer loop
vertex -49.683006 -126.488991 -10.125952
vertex -49.683006 -127.983986 -10.125952
vertex -49.281834 -126.488991 -10.178762
endloop
endfacet
facet normal 0.130516 0.000000 0.991446
outer loop
vertex -49.281834 -126.488991 -10.178762
vertex -49.683006 -127.983986 -10.125952
vertex -49.281834 -127.983986 -10.178762
endloop
endfacet
facet normal -0.130555 0.000000 0.991441
outer loop
vertex -49.281834 -126.488991 -10.178762
vertex -49.281834 -127.983986 -10.178762
vertex -48.880665 -126.488991 -10.125937
endloop
endfacet
facet normal -0.130552 0.000000 0.991441
outer loop
vertex -48.880665 -126.488991 -10.125937
vertex -49.281834 -127.983986 -10.178762
vertex -48.880665 -127.983986 -10.125937
endloop
endfacet
facet normal -0.382689 0.000000 0.923877
outer loop
vertex -48.880665 -126.488991 -10.125937
vertex -48.880665 -127.983986 -10.125937
vertex -48.506836 -126.488991 -9.971090
endloop
endfacet
facet normal -0.382682 0.000000 0.923880
outer loop
vertex -48.506836 -126.488991 -9.971090
vertex -48.880665 -127.983986 -10.125937
vertex -48.506836 -127.983986 -9.971090
endloop
endfacet
facet normal -0.608764 0.000000 0.793351
outer loop
vertex -48.506836 -126.488991 -9.971090
vertex -48.506836 -127.983986 -9.971090
vertex -48.185822 -126.488991 -9.724768
endloop
endfacet
facet normal -0.608764 0.000000 0.793351
outer loop
vertex -48.185822 -126.488991 -9.724768
vertex -48.506836 -127.983986 -9.971090
vertex -48.185822 -127.983986 -9.724768
endloop
endfacet
facet normal -0.793352 0.000000 0.608763
outer loop
vertex -48.185822 -126.488991 -9.724768
vertex -48.185822 -127.983986 -9.724768
vertex -47.939499 -126.488991 -9.403753
endloop
endfacet
facet normal -0.793354 0.000000 0.608761
outer loop
vertex -47.939499 -126.488991 -9.403753
vertex -48.185822 -127.983986 -9.724768
vertex -47.939499 -127.983986 -9.403753
endloop
endfacet
facet normal -0.923877 0.000000 0.382690
outer loop
vertex -47.939499 -126.488991 -9.403753
vertex -47.939499 -127.983986 -9.403753
vertex -47.784653 -126.488991 -9.029928
endloop
endfacet
facet normal -0.923877 0.000000 0.382690
outer loop
vertex -47.784653 -126.488991 -9.029928
vertex -47.939499 -127.983986 -9.403753
vertex -47.784653 -127.983986 -9.029928
endloop
endfacet
facet normal -0.991445 0.000000 0.130524
outer loop
vertex -47.784653 -126.488991 -9.029928
vertex -47.784653 -127.983986 -9.029928
vertex -47.731838 -126.488991 -8.628759
endloop
endfacet
facet normal -0.991445 0.000000 0.130525
outer loop
vertex -47.731838 -126.488991 -8.628759
vertex -47.784653 -127.983986 -9.029928
vertex -47.731838 -127.983986 -8.628759
endloop
endfacet
facet normal 1.000000 0.000000 0.000004
outer loop
vertex -50.831848 -127.983986 -6.678839
vertex -50.831841 -127.983986 -8.628759
vertex -50.831848 -126.488991 -6.678839
endloop
endfacet
facet normal 1.000000 0.000000 0.000004
outer loop
vertex -50.831848 -126.488991 -6.678839
vertex -50.831841 -127.983986 -8.628759
vertex -50.831841 -126.488991 -8.628759
endloop
endfacet
facet normal -0.000051 0.000000 1.000000
outer loop
vertex -54.731853 -127.983986 -6.679037
vertex -50.831848 -127.983986 -6.678839
vertex -54.731853 -126.488991 -6.679037
endloop
endfacet
facet normal -0.000051 0.000000 1.000000
outer loop
vertex -54.731853 -126.488991 -6.679037
vertex -50.831848 -127.983986 -6.678839
vertex -50.831848 -126.488991 -6.678839
endloop
endfacet
facet normal -1.000000 0.000000 0.000000
outer loop
vertex -54.731853 -127.983986 -8.628759
vertex -54.731853 -127.983986 -6.679037
vertex -54.731853 -126.488991 -8.628759
endloop
endfacet
facet normal -1.000000 0.000000 0.000000
outer loop
vertex -54.731853 -126.488991 -8.628759
vertex -54.731853 -127.983986 -6.679037
vertex -54.731853 -126.488991 -6.679037
endloop
endfacet
facet normal 0.000000 -1.000000 0.000000
outer loop
vertex -56.281853 -126.488991 -3.578756
vertex -56.281853 -126.488991 -3.579123
vertex -49.281830 -126.488991 -3.578756
endloop
endfacet
facet normal 0.000000 -1.000000 0.000000
outer loop
vertex -49.281830 -126.488991 -3.578756
vertex -56.281853 -126.488991 -3.579123
vertex -50.831848 -126.488991 -6.678839
endloop
endfacet
facet normal 0.000000 -1.000000 0.000000
outer loop
vertex -49.281830 -126.488991 -3.578756
vertex -50.831848 -126.488991 -6.678839
vertex -47.731853 -126.488991 -5.128759
endloop
endfacet
facet normal 0.000000 -1.000000 0.000000
outer loop
vertex -47.731853 -126.488991 -5.128759
vertex -50.831848 -126.488991 -6.678839
vertex -47.731838 -126.488991 -8.628759
endloop
endfacet
facet normal 0.000000 -1.000000 -0.000004
outer loop
vertex -47.731838 -126.488991 -8.628759
vertex -50.831848 -126.488991 -6.678839
vertex -50.831841 -126.488991 -8.628759
endloop
endfacet
facet normal 0.000000 -1.000000 0.000000
outer loop
vertex -47.731838 -126.488991 -8.628759
vertex -50.831841 -126.488991 -8.628759
vertex -47.784653 -126.488991 -9.029928
endloop
endfacet
facet normal 0.000000 -1.000000 0.000042
outer loop
vertex -47.784653 -126.488991 -9.029928
vertex -50.831841 -126.488991 -8.628759
vertex -50.779022 -126.488991 -9.029928
endloop
endfacet
facet normal 0.000000 -1.000000 -0.000055
outer loop
vertex -47.784653 -126.488991 -9.029928
vertex -50.779022 -126.488991 -9.029928
vertex -47.939499 -126.488991 -9.403753
endloop
endfacet
facet normal 0.000000 -1.000000 0.000008
outer loop
vertex -47.939499 -126.488991 -9.403753
vertex -50.779022 -126.488991 -9.029928
vertex -50.624176 -126.488991 -9.403769
endloop
endfacet
facet normal 0.000000 -1.000000 0.000000
outer loop
vertex -47.939499 -126.488991 -9.403753
vertex -50.624176 -126.488991 -9.403769
vertex -48.185822 -126.488991 -9.724768
endloop
endfacet
facet normal 0.000000 -1.000000 -0.000011
outer loop
vertex -48.185822 -126.488991 -9.724768
vertex -50.624176 -126.488991 -9.403769
vertex -50.377853 -126.488991 -9.724783
endloop
endfacet
facet normal 0.000000 -1.000000 0.000113
outer loop
vertex -48.185822 -126.488991 -9.724768
vertex -50.377853 -126.488991 -9.724783
vertex -48.506836 -126.488991 -9.971090
endloop
endfacet
facet normal 0.000000 -1.000000 0.000000
outer loop
vertex -48.506836 -126.488991 -9.971090
vertex -50.377853 -126.488991 -9.724783
vertex -50.056835 -126.488991 -9.971106
endloop
endfacet
facet normal 0.000000 -1.000000 -0.000127
outer loop
vertex -48.506836 -126.488991 -9.971090
vertex -50.056835 -126.488991 -9.971106
vertex -48.880665 -126.488991 -10.125937
endloop
endfacet
facet normal 0.000000 -1.000000 0.000000
outer loop
vertex -48.880665 -126.488991 -10.125937
vertex -50.056835 -126.488991 -9.971106
vertex -49.683006 -126.488991 -10.125952
endloop
endfacet
facet normal 0.000000 -1.000000 0.000180
outer loop
vertex -48.880665 -126.488991 -10.125937
vertex -49.683006 -126.488991 -10.125952
vertex -49.281834 -126.488991 -10.178762
endloop
endfacet
facet normal 0.000000 -1.000000 0.000000
outer loop
vertex -56.683022 -126.488991 -3.631933
vertex -57.056850 -126.488991 -3.786779
vertex -56.281853 -126.488991 -3.579123
endloop
endfacet
facet normal 0.000000 -1.000000 -0.000123
outer loop
vertex -56.281853 -126.488991 -3.579123
vertex -57.056850 -126.488991 -3.786779
vertex -57.377869 -126.488991 -4.033102
endloop
endfacet
facet normal 0.000000 -1.000000 0.000032
outer loop
vertex -56.281853 -126.488991 -3.579123
vertex -57.377869 -126.488991 -4.033102
vertex -57.624191 -126.488991 -4.354116
endloop
endfacet
facet normal 0.000000 -1.000000 0.000080
outer loop
vertex -57.624191 -126.488991 -4.354116
vertex -57.779037 -126.488991 -4.727957
vertex -56.281853 -126.488991 -3.579123
endloop
endfacet
facet normal 0.000000 -1.000000 -0.000002
outer loop
vertex -56.281853 -126.488991 -3.579123
vertex -57.779037 -126.488991 -4.727957
vertex -57.831852 -126.488991 -5.129126
endloop
endfacet
facet normal 0.000000 -1.000000 0.000000
outer loop
vertex -56.281853 -126.488991 -3.579123
vertex -57.831852 -126.488991 -5.129126
vertex -54.731853 -126.488991 -6.679037
endloop
endfacet
facet normal 0.000000 -1.000000 0.000000
outer loop
vertex -54.731853 -126.488991 -6.679037
vertex -57.831852 -126.488991 -5.129126
vertex -57.831852 -126.488991 -8.628759
endloop
endfacet
facet normal 0.000000 -1.000000 0.000000
outer loop
vertex -54.731853 -126.488991 -6.679037
vertex -57.831852 -126.488991 -8.628759
vertex -54.731853 -126.488991 -8.628759
endloop
endfacet
facet normal 0.000000 -1.000000 0.000000
outer loop
vertex -54.731853 -126.488991 -8.628759
vertex -57.831852 -126.488991 -8.628759
vertex -54.784668 -126.488991 -9.029928
endloop
endfacet
facet normal 0.000000 -1.000000 0.000001
outer loop
vertex -54.784668 -126.488991 -9.029928
vertex -57.831852 -126.488991 -8.628759
vertex -57.779037 -126.488991 -9.029928
endloop
endfacet
facet normal 0.000000 -1.000000 -0.000055
outer loop
vertex -54.784668 -126.488991 -9.029928
vertex -57.779037 -126.488991 -9.029928
vertex -54.939514 -126.488991 -9.403753
endloop
endfacet
facet normal 0.000000 -1.000000 0.000008
outer loop
vertex -54.939514 -126.488991 -9.403753
vertex -57.779037 -126.488991 -9.029928
vertex -57.624191 -126.488991 -9.403753
endloop
endfacet
facet normal 0.000000 -1.000000 0.000000
outer loop
vertex -54.939514 -126.488991 -9.403753
vertex -57.624191 -126.488991 -9.403753
vertex -55.185837 -126.488991 -9.724768
endloop
endfacet
facet normal 0.000000 -1.000000 -0.000011
outer loop
vertex -55.185837 -126.488991 -9.724768
vertex -57.624191 -126.488991 -9.403753
vertex -57.377869 -126.488991 -9.724768
endloop
endfacet
facet normal 0.000000 -1.000000 0.000113
outer loop
vertex -55.185837 -126.488991 -9.724768
vertex -57.377869 -126.488991 -9.724768
vertex -55.506851 -126.488991 -9.971090
endloop
endfacet
facet normal 0.000000 -1.000000 0.000000
outer loop
vertex -55.506851 -126.488991 -9.971090
vertex -57.377869 -126.488991 -9.724768
vertex -57.056850 -126.488991 -9.971090
endloop
endfacet
facet normal 0.000000 -1.000000 0.000000
outer loop
vertex -55.506851 -126.488991 -9.971090
vertex -57.056850 -126.488991 -9.971090
vertex -55.880684 -126.488991 -10.125937
endloop
endfacet
facet normal 0.000000 -1.000000 -0.000123
outer loop
vertex -55.880684 -126.488991 -10.125937
vertex -57.056850 -126.488991 -9.971090
vertex -56.683022 -126.488991 -10.125937
endloop
endfacet
facet normal 0.000000 -1.000000 0.000000
outer loop
vertex -55.880684 -126.488991 -10.125937
vertex -56.683022 -126.488991 -10.125937
vertex -56.281853 -126.488991 -10.178762
endloop
endfacet
facet normal 0.000000 -1.000000 0.000000
outer loop
vertex -54.731853 -126.488991 -6.679037
vertex -50.831848 -126.488991 -6.678839
vertex -56.281853 -126.488991 -3.579123
endloop
endfacet
facet normal 0.000000 -1.000000 0.000057
outer loop
vertex -47.731853 -126.488991 -5.128759
vertex -47.784664 -126.488991 -4.727591
vertex -49.281830 -126.488991 -3.578756
endloop
endfacet
facet normal 0.000000 -1.000000 -0.000020
outer loop
vertex -49.281830 -126.488991 -3.578756
vertex -47.784664 -126.488991 -4.727591
vertex -47.939510 -126.488991 -4.353765
endloop
endfacet
facet normal 0.000000 -1.000000 -0.000016
outer loop
vertex -49.281830 -126.488991 -3.578756
vertex -47.939510 -126.488991 -4.353765
vertex -48.185829 -126.488991 -4.032751
endloop
endfacet
facet normal 0.000000 -1.000000 0.000000
outer loop
vertex -48.185829 -126.488991 -4.032751
vertex -48.506840 -126.488991 -3.786428
vertex -49.281830 -126.488991 -3.578756
endloop
endfacet
facet normal 0.000000 -1.000000 -0.000180
outer loop
vertex -49.281830 -126.488991 -3.578756
vertex -48.506840 -126.488991 -3.786428
vertex -48.880665 -126.488991 -3.631582
endloop
endfacet
facet normal -0.997413 0.000000 0.071886
outer loop
vertex -61.867817 -123.993988 0.457209
vertex -63.210960 -123.993988 -18.178762
vertex -61.867817 -127.983986 0.457209
endloop
endfacet
facet normal -0.997413 0.000000 0.071886
outer loop
vertex -61.867817 -127.983986 0.457209
vertex -63.210960 -123.993988 -18.178762
vertex -63.210960 -127.983986 -18.178762
endloop
endfacet
facet normal -0.232865 0.000000 0.972509
outer loop
vertex -52.777790 -123.993988 2.633799
vertex -61.867817 -123.993988 0.457209
vertex -52.777790 -127.983994 2.633799
endloop
endfacet
facet normal -0.232865 0.000000 0.972509
outer loop
vertex -52.777790 -127.983994 2.633799
vertex -61.867817 -123.993988 0.457209
vertex -61.867817 -127.983986 0.457209
endloop
endfacet
facet normal 0.233064 0.000000 0.972461
outer loop
vertex -43.695889 -123.993988 0.457209
vertex -52.777790 -123.993988 2.633799
vertex -43.695889 -127.983986 0.457209
endloop
endfacet
facet normal 0.233061 0.000000 0.972462
outer loop
vertex -43.695889 -127.983986 0.457209
vertex -52.777790 -123.993988 2.633799
vertex -52.777790 -127.983994 2.633799
endloop
endfacet
facet normal 0.997413 0.000000 0.071886
outer loop
vertex -42.352741 -123.993988 -18.178762
vertex -43.695889 -123.993988 0.457209
vertex -42.352741 -127.983986 -18.178762
endloop
endfacet
facet normal 0.997413 0.000000 0.071886
outer loop
vertex -42.352741 -127.983986 -18.178762
vertex -43.695889 -123.993988 0.457209
vertex -43.695889 -127.983986 0.457209
endloop
endfacet
facet normal 0.000000 0.000000 -1.000000
outer loop
vertex -63.210960 -123.993988 -18.178762
vertex -42.352741 -123.993988 -18.178762
vertex -63.210960 -127.983986 -18.178762
endloop
endfacet
facet normal 0.000000 0.000000 -1.000000
outer loop
vertex -63.210960 -127.983986 -18.178762
vertex -42.352741 -123.993988 -18.178762
vertex -42.352741 -127.983986 -18.178762
endloop
endfacet
facet normal 0.000000 -1.000000 0.000000
outer loop
vertex -54.279037 -127.983986 -11.727591
vertex -56.281853 -127.983986 -10.178762
vertex -54.331852 -127.983986 -12.128759
endloop
endfacet
facet normal 0.000000 -1.000000 0.000000
outer loop
vertex -54.331852 -127.983986 -12.128759
vertex -56.281853 -127.983986 -10.178762
vertex -56.683022 -127.983986 -10.125937
endloop
endfacet
facet normal 0.000000 -1.000000 0.000073
outer loop
vertex -54.331852 -127.983986 -12.128759
vertex -56.683022 -127.983986 -10.125937
vertex -54.279037 -127.983986 -12.529928
endloop
endfacet
facet normal 0.000000 -1.000000 -0.000101
outer loop
vertex -54.279037 -127.983986 -12.529928
vertex -56.683022 -127.983986 -10.125937
vertex -57.056850 -127.983986 -9.971090
endloop
endfacet
facet normal 0.000000 -1.000000 0.000000
outer loop
vertex -54.279037 -127.983986 -12.529928
vertex -57.056850 -127.983986 -9.971090
vertex -54.124191 -127.983986 -12.903753
endloop
endfacet
facet normal 0.000000 -1.000000 0.000003
outer loop
vertex -54.124191 -127.983986 -12.903753
vertex -57.056850 -127.983986 -9.971090
vertex -63.210960 -127.983986 -18.178762
endloop
endfacet
facet normal 0.000000 -1.000000 0.000000
outer loop
vertex -54.124191 -127.983986 -12.903753
vertex -63.210960 -127.983986 -18.178762
vertex -53.877869 -127.983986 -13.224768
endloop
endfacet
facet normal 0.000000 -1.000000 0.000000
outer loop
vertex -53.877869 -127.983986 -13.224768
vertex -63.210960 -127.983986 -18.178762
vertex -53.556850 -127.983986 -13.471090
endloop
endfacet
facet normal 0.000000 -1.000000 -0.000075
outer loop
vertex -53.556850 -127.983986 -13.471090
vertex -63.210960 -127.983986 -18.178762
vertex -53.183022 -127.983986 -13.625937
endloop
endfacet
facet normal 0.000000 -1.000000 0.000104
outer loop
vertex -53.183022 -127.983986 -13.625937
vertex -63.210960 -127.983986 -18.178762
vertex -52.781853 -127.983986 -13.678762
endloop
endfacet
facet normal 0.000000 -1.000000 0.000000
outer loop
vertex -52.781853 -127.983986 -13.678762
vertex -63.210960 -127.983986 -18.178762
vertex -42.352741 -127.983986 -18.178762
endloop
endfacet
facet normal 0.000000 -1.000000 0.000104
outer loop
vertex -52.781853 -127.983986 -13.678762
vertex -42.352741 -127.983986 -18.178762
vertex -52.380684 -127.983986 -13.625937
endloop
endfacet
facet normal 0.000000 -1.000000 -0.000075
outer loop
vertex -52.380684 -127.983986 -13.625937
vertex -42.352741 -127.983986 -18.178762
vertex -52.006851 -127.983986 -13.471090
endloop
endfacet
facet normal 0.000000 -1.000000 0.000000
outer loop
vertex -52.006851 -127.983986 -13.471090
vertex -42.352741 -127.983986 -18.178762
vertex -51.685837 -127.983986 -13.224768
endloop
endfacet
facet normal 0.000000 -1.000000 0.000000
outer loop
vertex -51.685837 -127.983986 -13.224768
vertex -42.352741 -127.983986 -18.178762
vertex -51.439514 -127.983986 -12.903753
endloop
endfacet
facet normal 0.000000 -1.000000 0.000003
outer loop
vertex -51.439514 -127.983986 -12.903753
vertex -42.352741 -127.983986 -18.178762
vertex -48.506836 -127.983986 -9.971090
endloop
endfacet
facet normal 0.000000 -1.000000 0.000000
outer loop
vertex -51.439514 -127.983986 -12.903753
vertex -48.506836 -127.983986 -9.971090
vertex -51.284668 -127.983986 -12.529928
endloop
endfacet
facet normal 0.000000 -1.000000 0.000014
outer loop
vertex -51.284668 -127.983986 -12.529928
vertex -48.506836 -127.983986 -9.971090
vertex -48.880665 -127.983986 -10.125937
endloop
endfacet
facet normal 0.000000 -1.000000 0.000000
outer loop
vertex -51.284668 -127.983986 -12.529928
vertex -48.880665 -127.983986 -10.125937
vertex -51.231853 -127.983986 -12.128759
endloop
endfacet
facet normal 0.000000 -1.000000 0.000000
outer loop
vertex -51.231853 -127.983986 -12.128759
vertex -48.880665 -127.983986 -10.125937
vertex -49.281834 -127.983986 -10.178762
endloop
endfacet
facet normal 0.000000 -1.000000 0.000000
outer loop
vertex -51.231853 -127.983986 -12.128759
vertex -49.281834 -127.983986 -10.178762
vertex -51.284668 -127.983986 -11.727591
endloop
endfacet
facet normal 0.000000 -1.000000 0.000000
outer loop
vertex -51.284668 -127.983986 -11.727591
vertex -49.281834 -127.983986 -10.178762
vertex -49.683006 -127.983986 -10.125952
endloop
endfacet
facet normal 0.000000 -1.000000 -0.000036
outer loop
vertex -51.284668 -127.983986 -11.727591
vertex -49.683006 -127.983986 -10.125952
vertex -51.439514 -127.983986 -11.353765
endloop
endfacet
facet normal 0.000000 -1.000000 0.000010
outer loop
vertex -51.439514 -127.983986 -11.353765
vertex -49.683006 -127.983986 -10.125952
vertex -50.056835 -127.983986 -9.971106
endloop
endfacet
facet normal 0.000000 -1.000000 0.000000
outer loop
vertex -51.439514 -127.983986 -11.353765
vertex -50.056835 -127.983986 -9.971106
vertex -51.685837 -127.983986 -11.032736
endloop
endfacet
facet normal 0.000000 -1.000000 0.000000
outer loop
vertex -51.685837 -127.983986 -11.032736
vertex -50.056835 -127.983986 -9.971106
vertex -50.377853 -127.983986 -9.724783
endloop
endfacet
facet normal 0.000000 -1.000000 0.000000
outer loop
vertex -51.685837 -127.983986 -11.032736
vertex -50.377853 -127.983986 -9.724783
vertex -52.006851 -127.983986 -10.786413
endloop
endfacet
facet normal 0.000000 -1.000000 -0.000019
outer loop
vertex -52.006851 -127.983986 -10.786413
vertex -50.377853 -127.983986 -9.724783
vertex -50.624176 -127.983986 -9.403769
endloop
endfacet
facet normal 0.000000 -1.000000 0.000000
outer loop
vertex -52.006851 -127.983986 -10.786413
vertex -50.624176 -127.983986 -9.403769
vertex -52.380684 -127.983986 -10.631567
endloop
endfacet
facet normal 0.000000 -1.000000 0.000018
outer loop
vertex -52.380684 -127.983986 -10.631567
vertex -50.624176 -127.983986 -9.403769
vertex -50.779022 -127.983986 -9.029928
endloop
endfacet
facet normal 0.000000 -1.000000 0.000000
outer loop
vertex -52.380684 -127.983986 -10.631567
vertex -50.779022 -127.983986 -9.029928
vertex -52.781853 -127.983986 -10.578756
endloop
endfacet
facet normal 0.000000 -1.000000 0.000015
outer loop
vertex -52.781853 -127.983986 -10.578756
vertex -50.779022 -127.983986 -9.029928
vertex -50.831841 -127.983986 -8.628759
endloop
endfacet
facet normal 0.000000 -1.000000 0.000000
outer loop
vertex -52.781853 -127.983986 -10.578756
vertex -50.831841 -127.983986 -8.628759
vertex -54.731853 -127.983986 -8.628759
endloop
endfacet
facet normal 0.000000 -1.000000 0.000000
outer loop
vertex -54.731853 -127.983986 -8.628759
vertex -50.831841 -127.983986 -8.628759
vertex -54.731853 -127.983986 -6.679037
endloop
endfacet
facet normal 0.000000 -1.000000 0.000000
outer loop
vertex -54.731853 -127.983986 -6.679037
vertex -50.831841 -127.983986 -8.628759
vertex -50.831848 -127.983986 -6.678839
endloop
endfacet
facet normal 0.000000 -1.000000 0.000000
outer loop
vertex -56.281853 -127.983986 -10.178762
vertex -54.279037 -127.983986 -11.727591
vertex -55.880684 -127.983986 -10.125937
endloop
endfacet
facet normal 0.000000 -1.000000 -0.000018
outer loop
vertex -55.880684 -127.983986 -10.125937
vertex -54.279037 -127.983986 -11.727591
vertex -54.124191 -127.983986 -11.353765
endloop
endfacet
facet normal 0.000000 -1.000000 0.000000
outer loop
vertex -55.880684 -127.983986 -10.125937
vertex -54.124191 -127.983986 -11.353765
vertex -55.506851 -127.983986 -9.971090
endloop
endfacet
facet normal 0.000000 -1.000000 0.000019
outer loop
vertex -55.506851 -127.983986 -9.971090
vertex -54.124191 -127.983986 -11.353765
vertex -53.877869 -127.983986 -11.032736
endloop
endfacet
facet normal 0.000000 -1.000000 0.000000
outer loop
vertex -55.506851 -127.983986 -9.971090
vertex -53.877869 -127.983986 -11.032736
vertex -55.185837 -127.983986 -9.724768
endloop
endfacet
facet normal 0.000000 -1.000000 0.000000
outer loop
vertex -55.185837 -127.983986 -9.724768
vertex -53.877869 -127.983986 -11.032736
vertex -53.556850 -127.983986 -10.786413
endloop
endfacet
facet normal 0.000000 -1.000000 -0.000039
outer loop
vertex -55.185837 -127.983986 -9.724768
vertex -53.556850 -127.983986 -10.786413
vertex -54.939514 -127.983986 -9.403753
endloop
endfacet
facet normal 0.000000 -1.000000 -0.000010
outer loop
vertex -54.939514 -127.983986 -9.403753
vertex -53.556850 -127.983986 -10.786413
vertex -53.183022 -127.983986 -10.631567
endloop
endfacet
facet normal 0.000000 -1.000000 0.000036
outer loop
vertex -54.939514 -127.983986 -9.403753
vertex -53.183022 -127.983986 -10.631567
vertex -54.784668 -127.983986 -9.029928
endloop
endfacet
facet normal 0.000000 -1.000000 0.000000
outer loop
vertex -54.784668 -127.983986 -9.029928
vertex -53.183022 -127.983986 -10.631567
vertex -52.781853 -127.983986 -10.578756
endloop
endfacet
facet normal 0.000000 -1.000000 0.000000
outer loop
vertex -54.784668 -127.983986 -9.029928
vertex -52.781853 -127.983986 -10.578756
vertex -54.731853 -127.983986 -8.628759
endloop
endfacet
facet normal 0.000000 -1.000000 -0.000003
outer loop
vertex -56.281853 -127.983986 -3.578756
vertex -49.281830 -127.983986 -3.578756
vertex -52.777790 -127.983994 2.633799
endloop
endfacet
facet normal -0.000000 -1.000000 -0.000013
outer loop
vertex -52.777790 -127.983994 2.633799
vertex -49.281830 -127.983986 -3.578756
vertex -48.880665 -127.983986 -3.631582
endloop
endfacet
facet normal 0.000001 -1.000000 0.000000
outer loop
vertex -52.777790 -127.983994 2.633799
vertex -48.880665 -127.983986 -3.631582
vertex -43.695889 -127.983986 0.457209
endloop
endfacet
facet normal 0.000000 -1.000000 -0.000003
outer loop
vertex -43.695889 -127.983986 0.457209
vertex -48.880665 -127.983986 -3.631582
vertex -48.506840 -127.983986 -3.786428
endloop
endfacet
facet normal 0.000000 -1.000000 -0.000012
outer loop
vertex -43.695889 -127.983986 0.457209
vertex -48.506840 -127.983986 -3.786428
vertex -48.185829 -127.983986 -4.032751
endloop
endfacet
facet normal 0.000000 -1.000000 0.000000
outer loop
vertex -48.185829 -127.983986 -4.032751
vertex -47.939510 -127.983986 -4.353765
vertex -43.695889 -127.983986 0.457209
endloop
endfacet
facet normal 0.000000 -1.000000 -0.000033
outer loop
vertex -43.695889 -127.983986 0.457209
vertex -47.939510 -127.983986 -4.353765
vertex -47.784664 -127.983986 -4.727591
endloop
endfacet
facet normal 0.000000 -1.000000 0.000009
outer loop
vertex -43.695889 -127.983986 0.457209
vertex -47.784664 -127.983986 -4.727591
vertex -47.731853 -127.983986 -5.128759
endloop
endfacet
facet normal 0.000000 -1.000000 0.000000
outer loop
vertex -47.731853 -127.983986 -5.128759
vertex -47.731838 -127.983986 -8.628759
vertex -43.695889 -127.983986 0.457209
endloop
endfacet
facet normal 0.000000 -1.000000 0.000001
outer loop
vertex -43.695889 -127.983986 0.457209
vertex -47.731838 -127.983986 -8.628759
vertex -42.352741 -127.983986 -18.178762
endloop
endfacet
facet normal 0.000000 -1.000000 -0.000006
outer loop
vertex -42.352741 -127.983986 -18.178762
vertex -47.731838 -127.983986 -8.628759
vertex -47.784653 -127.983986 -9.029928
endloop
endfacet
facet normal 0.000000 -1.000000 -0.000013
outer loop
vertex -42.352741 -127.983986 -18.178762
vertex -47.784653 -127.983986 -9.029928
vertex -47.939499 -127.983986 -9.403753
endloop
endfacet
facet normal 0.000000 -1.000000 0.000031
outer loop
vertex -47.939499 -127.983986 -9.403753
vertex -48.185822 -127.983986 -9.724768
vertex -42.352741 -127.983986 -18.178762
endloop
endfacet
facet normal 0.000000 -1.000000 -0.000022
outer loop
vertex -42.352741 -127.983986 -18.178762
vertex -48.185822 -127.983986 -9.724768
vertex -48.506836 -127.983986 -9.971090
endloop
endfacet
facet normal 0.000000 -1.000000 -0.000029
outer loop
vertex -57.056850 -127.983986 -9.971090
vertex -57.377869 -127.983986 -9.724768
vertex -63.210960 -127.983986 -18.178762
endloop
endfacet
facet normal 0.000000 -1.000000 0.000019
outer loop
vertex -63.210960 -127.983986 -18.178762
vertex -57.377869 -127.983986 -9.724768
vertex -57.624191 -127.983986 -9.403753
endloop
endfacet
facet normal 0.000000 -1.000000 -0.000013
outer loop
vertex -63.210960 -127.983986 -18.178762
vertex -57.624191 -127.983986 -9.403753
vertex -57.779037 -127.983986 -9.029928
endloop
endfacet
facet normal 0.000000 -1.000000 0.000000
outer loop
vertex -57.779037 -127.983986 -9.029928
vertex -57.831852 -127.983986 -8.628759
vertex -63.210960 -127.983986 -18.178762
endloop
endfacet
facet normal 0.000000 -1.000000 0.000001
outer loop
vertex -63.210960 -127.983986 -18.178762
vertex -57.831852 -127.983986 -8.628759
vertex -61.867817 -127.983986 0.457209
endloop
endfacet
facet normal 0.000000 -1.000000 0.000000
outer loop
vertex -61.867817 -127.983986 0.457209
vertex -57.831852 -127.983986 -8.628759
vertex -57.831852 -127.983986 -5.129126
endloop
endfacet
facet normal 0.000000 -1.000000 0.000009
outer loop
vertex -61.867817 -127.983986 0.457209
vertex -57.831852 -127.983986 -5.129126
vertex -57.779037 -127.983986 -4.727957
endloop
endfacet
facet normal 0.000000 -1.000000 -0.000052
outer loop
vertex -57.779037 -127.983986 -4.727957
vertex -57.624191 -127.983986 -4.354116
vertex -61.867817 -127.983986 0.457209
endloop
endfacet
facet normal 0.000000 -1.000000 0.000018
outer loop
vertex -61.867817 -127.983986 0.457209
vertex -57.624191 -127.983986 -4.354116
vertex -57.377869 -127.983986 -4.033102
endloop
endfacet
facet normal 0.000000 -1.000000 -0.000012
outer loop
vertex -61.867817 -127.983986 0.457209
vertex -57.377869 -127.983986 -4.033102
vertex -57.056850 -127.983986 -3.786779
endloop
endfacet
facet normal 0.000000 -1.000000 0.000000
outer loop
vertex -57.056850 -127.983986 -3.786779
vertex -56.683022 -127.983986 -3.631933
vertex -61.867817 -127.983986 0.457209
endloop
endfacet
facet normal -0.000001 -1.000000 0.000000
outer loop
vertex -61.867817 -127.983986 0.457209
vertex -56.683022 -127.983986 -3.631933
vertex -52.777790 -127.983994 2.633799
endloop
endfacet
facet normal 0.000000 -1.000000 -0.000013
outer loop
vertex -52.777790 -127.983994 2.633799
vertex -56.683022 -127.983986 -3.631933
vertex -56.281853 -127.983986 -3.578756
endloop
endfacet
facet normal 0.000000 -1.000000 0.000000
outer loop
vertex -56.683022 -127.983986 -3.631933
vertex -56.281853 -127.983986 -3.579123
vertex -56.281853 -127.983986 -3.578756
endloop
endfacet
facet normal 0.000000 1.000000 0.000000
outer loop
vertex -51.231853 -123.993988 -8.628607
vertex -51.231853 -123.993988 -1.628759
vertex -43.695889 -123.993988 0.457209
endloop
endfacet
facet normal 0.000000 1.000000 -0.000021
outer loop
vertex -43.695889 -123.993988 0.457209
vertex -51.231853 -123.993988 -1.628759
vertex -51.284668 -123.993988 -1.227591
endloop
endfacet
facet normal 0.000000 1.000000 0.000010
outer loop
vertex -43.695889 -123.993988 0.457209
vertex -51.284668 -123.993988 -1.227591
vertex -51.439514 -123.993988 -0.853765
endloop
endfacet
facet normal 0.000000 1.000000 0.000000
outer loop
vertex -51.439514 -123.993988 -0.853765
vertex -51.685837 -123.993988 -0.532736
vertex -43.695889 -123.993988 0.457209
endloop
endfacet
facet normal 0.000000 1.000000 -0.000001
outer loop
vertex -43.695889 -123.993988 0.457209
vertex -51.685837 -123.993988 -0.532736
vertex -52.777790 -123.993988 2.633799
endloop
endfacet
facet normal 0.000000 1.000000 0.000000
outer loop
vertex -52.777790 -123.993988 2.633799
vertex -51.685837 -123.993988 -0.532736
vertex -52.006851 -123.993988 -0.286413
endloop
endfacet
facet normal 0.000000 1.000000 0.000008
outer loop
vertex -52.777790 -123.993988 2.633799
vertex -52.006851 -123.993988 -0.286413
vertex -52.380684 -123.993988 -0.131567
endloop
endfacet
facet normal 0.000000 1.000000 -0.000003
outer loop
vertex -52.380684 -123.993988 -0.131567
vertex -52.781853 -123.993988 -0.078756
vertex -52.777790 -123.993988 2.633799
endloop
endfacet
facet normal 0.000000 1.000000 -0.000007
outer loop
vertex -52.777790 -123.993988 2.633799
vertex -52.781853 -123.993988 -0.078756
vertex -53.183022 -123.993988 -0.131567
endloop
endfacet
facet normal 0.000000 1.000000 0.000000
outer loop
vertex -52.777790 -123.993988 2.633799
vertex -53.183022 -123.993988 -0.131567
vertex -53.556850 -123.993988 -0.286413
endloop
endfacet
facet normal 0.000000 1.000000 0.000000
outer loop
vertex -53.556850 -123.993988 -0.286413
vertex -53.877869 -123.993988 -0.532736
vertex -52.777790 -123.993988 2.633799
endloop
endfacet
facet normal 0.000000 1.000000 -0.000005
outer loop
vertex -52.777790 -123.993988 2.633799
vertex -53.877869 -123.993988 -0.532736
vertex -61.867817 -123.993988 0.457209
endloop
endfacet
facet normal 0.000000 1.000000 0.000011
outer loop
vertex -61.867817 -123.993988 0.457209
vertex -53.877869 -123.993988 -0.532736
vertex -54.124191 -123.993988 -0.853765
endloop
endfacet
facet normal 0.000000 1.000000 0.000010
outer loop
vertex -61.867817 -123.993988 0.457209
vertex -54.124191 -123.993988 -0.853765
vertex -54.279037 -123.993988 -1.227591
endloop
endfacet
facet normal 0.000000 1.000000 -0.000039
outer loop
vertex -54.279037 -123.993988 -1.227591
vertex -54.331852 -123.993988 -1.628759
vertex -61.867817 -123.993988 0.457209
endloop
endfacet
facet normal 0.000000 1.000000 0.000000
outer loop
vertex -61.867817 -123.993988 0.457209
vertex -54.331852 -123.993988 -1.628759
vertex -54.331852 -123.993988 -8.628683
endloop
endfacet
facet normal 0.000000 1.000000 0.000000
outer loop
vertex -61.867817 -123.993988 0.457209
vertex -54.331852 -123.993988 -8.628683
vertex -63.210960 -123.993988 -18.178762
endloop
endfacet
facet normal 0.000000 1.000000 0.000009
outer loop
vertex -63.210960 -123.993988 -18.178762
vertex -54.331852 -123.993988 -8.628683
vertex -54.279049 -123.993988 -9.029882
endloop
endfacet
facet normal 0.000000 1.000000 -0.000019
outer loop
vertex -63.210960 -123.993988 -18.178762
vertex -54.279049 -123.993988 -9.029882
vertex -54.124210 -123.993988 -9.403723
endloop
endfacet
facet normal 0.000000 1.000000 0.000000
outer loop
vertex -54.124210 -123.993988 -9.403723
vertex -53.877880 -123.993988 -9.724768
vertex -63.210960 -123.993988 -18.178762
endloop
endfacet
facet normal 0.000000 1.000000 -0.000015
outer loop
vertex -63.210960 -123.993988 -18.178762
vertex -53.877880 -123.993988 -9.724768
vertex -53.556850 -123.993988 -9.971090
endloop
endfacet
facet normal 0.000000 1.000000 0.000018
outer loop
vertex -63.210960 -123.993988 -18.178762
vertex -53.556850 -123.993988 -9.971090
vertex -53.183002 -123.993988 -10.125952
endloop
endfacet
facet normal 0.000000 1.000000 0.000000
outer loop
vertex -53.183002 -123.993988 -10.125952
vertex -52.781815 -123.993988 -10.178762
vertex -63.210960 -123.993988 -18.178762
endloop
endfacet
facet normal 0.000000 1.000000 0.000000
outer loop
vertex -63.210960 -123.993988 -18.178762
vertex -52.781815 -123.993988 -10.178762
vertex -42.352741 -123.993988 -18.178762
endloop
endfacet
facet normal 0.000000 1.000000 0.000016
outer loop
vertex -42.352741 -123.993988 -18.178762
vertex -52.781815 -123.993988 -10.178762
vertex -52.380630 -123.993988 -10.125937
endloop
endfacet
facet normal 0.000000 1.000000 0.000032
outer loop
vertex -42.352741 -123.993988 -18.178762
vertex -52.380630 -123.993988 -10.125937
vertex -52.006790 -123.993988 -9.971060
endloop
endfacet
facet normal 0.000000 1.000000 0.000000
outer loop
vertex -52.006790 -123.993988 -9.971060
vertex -51.685772 -123.993988 -9.724707
vertex -42.352741 -123.993988 -18.178762
endloop
endfacet
facet normal 0.000000 1.000000 -0.000018
outer loop
vertex -42.352741 -123.993988 -18.178762
vertex -51.685772 -123.993988 -9.724707
vertex -51.439457 -123.993988 -9.403662
endloop
endfacet
facet normal 0.000000 1.000000 0.000006
outer loop
vertex -42.352741 -123.993988 -18.178762
vertex -51.439457 -123.993988 -9.403662
vertex -51.284634 -123.993988 -9.029806
endloop
endfacet
facet normal 0.000000 1.000000 0.000000
outer loop
vertex -51.284634 -123.993988 -9.029806
vertex -51.231853 -123.993988 -8.628607
vertex -42.352741 -123.993988 -18.178762
endloop
endfacet
facet normal 0.000000 1.000000 0.000000
outer loop
vertex -42.352741 -123.993988 -18.178762
vertex -51.231853 -123.993988 -8.628607
vertex -43.695889 -123.993988 0.457209
endloop
endfacet
endsolid ShogiChessCncAndPLA v2.015
