solid ShogiChessCncAndPLA v2.014
facet normal -1.000000 0.000000 0.000000
outer loop
vertex -30.120737 -123.993988 -5.128759
vertex -30.120737 -123.993988 -8.628759
vertex -30.120737 -125.488983 -5.128759
endloop
endfacet
facet normal -1.000000 0.000000 0.000000
outer loop
vertex -30.120737 -125.488983 -5.128759
vertex -30.120737 -123.993988 -8.628759
vertex -30.120737 -125.488983 -8.628759
endloop
endfacet
facet normal 0.991445 0.000000 -0.130525
outer loop
vertex -33.220737 -125.488983 -5.128759
vertex -33.220737 -123.993988 -5.128759
vertex -33.167923 -125.488983 -4.727591
endloop
endfacet
facet normal 0.991445 0.000000 -0.130525
outer loop
vertex -33.167923 -125.488983 -4.727591
vertex -33.220737 -123.993988 -5.128759
vertex -33.167923 -123.993988 -4.727591
endloop
endfacet
facet normal 0.923877 0.000000 -0.382690
outer loop
vertex -33.167923 -125.488983 -4.727591
vertex -33.167923 -123.993988 -4.727591
vertex -33.013077 -125.488983 -4.353765
endloop
endfacet
facet normal 0.923877 0.000000 -0.382690
outer loop
vertex -33.013077 -125.488983 -4.353765
vertex -33.167923 -123.993988 -4.727591
vertex -33.013077 -123.993988 -4.353765
endloop
endfacet
facet normal 0.793367 0.000000 -0.608743
outer loop
vertex -33.013077 -125.488983 -4.353765
vertex -33.013077 -123.993988 -4.353765
vertex -32.766754 -125.488983 -4.032736
endloop
endfacet
facet normal 0.793371 0.000000 -0.608739
outer loop
vertex -32.766754 -125.488983 -4.032736
vertex -33.013077 -123.993988 -4.353765
vertex -32.766754 -123.993988 -4.032736
endloop
endfacet
facet normal 0.608757 0.000000 -0.793357
outer loop
vertex -32.766754 -125.488983 -4.032736
vertex -32.766754 -123.993988 -4.032736
vertex -32.445736 -125.488983 -3.786413
endloop
endfacet
facet normal 0.608757 0.000000 -0.793357
outer loop
vertex -32.445736 -125.488983 -3.786413
vertex -32.766754 -123.993988 -4.032736
vertex -32.445736 -123.993988 -3.786413
endloop
endfacet
facet normal 0.382685 0.000000 -0.923879
outer loop
vertex -32.445736 -125.488983 -3.786413
vertex -32.445736 -123.993988 -3.786413
vertex -32.071907 -125.488983 -3.631567
endloop
endfacet
facet normal 0.382688 0.000000 -0.923878
outer loop
vertex -32.071907 -125.488983 -3.631567
vertex -32.445736 -123.993988 -3.786413
vertex -32.071907 -123.993988 -3.631567
endloop
endfacet
facet normal 0.130516 0.000000 -0.991446
outer loop
vertex -32.071907 -125.488983 -3.631567
vertex -32.071907 -123.993988 -3.631567
vertex -31.670736 -125.488983 -3.578756
endloop
endfacet
facet normal 0.130516 0.000000 -0.991446
outer loop
vertex -31.670736 -125.488983 -3.578756
vertex -32.071907 -123.993988 -3.631567
vertex -31.670736 -123.993988 -3.578756
endloop
endfacet
facet normal -0.130518 0.000000 -0.991446
outer loop
vertex -31.670736 -125.488983 -3.578756
vertex -31.670736 -123.993988 -3.578756
vertex -31.269567 -125.488983 -3.631567
endloop
endfacet
facet normal -0.130516 0.000000 -0.991446
outer loop
vertex -31.269567 -125.488983 -3.631567
vertex -31.670736 -123.993988 -3.578756
vertex -31.269567 -123.993988 -3.631567
endloop
endfacet
facet normal -0.382683 0.000000 -0.923880
outer loop
vertex -31.269567 -125.488983 -3.631567
vertex -31.269567 -123.993988 -3.631567
vertex -30.895737 -125.488983 -3.786413
endloop
endfacet
facet normal -0.382685 0.000000 -0.923879
outer loop
vertex -30.895737 -125.488983 -3.786413
vertex -31.269567 -123.993988 -3.631567
vertex -30.895737 -123.993988 -3.786413
endloop
endfacet
facet normal -0.608757 0.000000 -0.793357
outer loop
vertex -30.895737 -125.488983 -3.786413
vertex -30.895737 -123.993988 -3.786413
vertex -30.574720 -125.488983 -4.032736
endloop
endfacet
facet normal -0.608757 0.000000 -0.793357
outer loop
vertex -30.574720 -125.488983 -4.032736
vertex -30.895737 -123.993988 -3.786413
vertex -30.574720 -123.993988 -4.032736
endloop
endfacet
facet normal -0.793368 0.000000 -0.608743
outer loop
vertex -30.574720 -125.488983 -4.032736
vertex -30.574720 -123.993988 -4.032736
vertex -30.328398 -125.488983 -4.353765
endloop
endfacet
facet normal -0.793370 0.000000 -0.608739
outer loop
vertex -30.328398 -125.488983 -4.353765
vertex -30.574720 -123.993988 -4.032736
vertex -30.328398 -123.993988 -4.353765
endloop
endfacet
facet normal -0.923877 0.000000 -0.382690
outer loop
vertex -30.328398 -125.488983 -4.353765
vertex -30.328398 -123.993988 -4.353765
vertex -30.173552 -125.488983 -4.727591
endloop
endfacet
facet normal -0.923877 0.000000 -0.382690
outer loop
vertex -30.173552 -125.488983 -4.727591
vertex -30.328398 -123.993988 -4.353765
vertex -30.173552 -123.993988 -4.727591
endloop
endfacet
facet normal -0.991445 0.000000 -0.130525
outer loop
vertex -30.173552 -125.488983 -4.727591
vertex -30.173552 -123.993988 -4.727591
vertex -30.120737 -125.488983 -5.128759
endloop
endfacet
facet normal -0.991445 0.000000 -0.130525
outer loop
vertex -30.120737 -125.488983 -5.128759
vertex -30.173552 -123.993988 -4.727591
vertex -30.120737 -123.993988 -5.128759
endloop
endfacet
facet normal 1.000000 0.000000 0.000000
outer loop
vertex -33.220737 -123.993988 -8.628759
vertex -33.220737 -123.993988 -5.128759
vertex -33.220737 -125.488983 -8.628759
endloop
endfacet
facet normal 1.000000 0.000000 0.000000
outer loop
vertex -33.220737 -125.488983 -8.628759
vertex -33.220737 -123.993988 -5.128759
vertex -33.220737 -125.488983 -5.128759
endloop
endfacet
facet normal -0.991445 0.000000 0.130525
outer loop
vertex -30.120737 -125.488983 -8.628759
vertex -30.120737 -123.993988 -8.628759
vertex -30.173552 -125.488983 -9.029928
endloop
endfacet
facet normal -0.991445 0.000000 0.130526
outer loop
vertex -30.173552 -125.488983 -9.029928
vertex -30.120737 -123.993988 -8.628759
vertex -30.173552 -123.993988 -9.029928
endloop
endfacet
facet normal -0.923877 0.000000 0.382690
outer loop
vertex -30.173552 -125.488983 -9.029928
vertex -30.173552 -123.993988 -9.029928
vertex -30.328398 -125.488983 -9.403753
endloop
endfacet
facet normal -0.923877 0.000000 0.382690
outer loop
vertex -30.328398 -125.488983 -9.403753
vertex -30.173552 -123.993988 -9.029928
vertex -30.328398 -123.993988 -9.403753
endloop
endfacet
facet normal -0.793354 0.000000 0.608761
outer loop
vertex -30.328398 -125.488983 -9.403753
vertex -30.328398 -123.993988 -9.403753
vertex -30.574720 -125.488983 -9.724768
endloop
endfacet
facet normal -0.793355 0.000000 0.608759
outer loop
vertex -30.574720 -125.488983 -9.724768
vertex -30.328398 -123.993988 -9.403753
vertex -30.574720 -123.993988 -9.724768
endloop
endfacet
facet normal -0.608758 0.000000 0.793356
outer loop
vertex -30.574720 -125.488983 -9.724768
vertex -30.574720 -123.993988 -9.724768
vertex -30.895737 -125.488983 -9.971090
endloop
endfacet
facet normal -0.608758 0.000000 0.793356
outer loop
vertex -30.895737 -125.488983 -9.971090
vertex -30.574720 -123.993988 -9.724768
vertex -30.895737 -123.993988 -9.971090
endloop
endfacet
facet normal -0.382682 0.000000 0.923880
outer loop
vertex -30.895737 -125.488983 -9.971090
vertex -30.895737 -123.993988 -9.971090
vertex -31.269567 -125.488983 -10.125937
endloop
endfacet
facet normal -0.382685 0.000000 0.923879
outer loop
vertex -31.269567 -125.488983 -10.125937
vertex -30.895737 -123.993988 -9.971090
vertex -31.269567 -123.993988 -10.125937
endloop
endfacet
facet normal -0.130553 0.000000 0.991441
outer loop
vertex -31.269567 -125.488983 -10.125937
vertex -31.269567 -123.993988 -10.125937
vertex -31.670736 -125.488983 -10.178762
endloop
endfacet
facet normal -0.130555 0.000000 0.991441
outer loop
vertex -31.670736 -125.488983 -10.178762
vertex -31.269567 -123.993988 -10.125937
vertex -31.670736 -123.993988 -10.178762
endloop
endfacet
facet normal 0.130555 0.000000 0.991441
outer loop
vertex -31.670736 -125.488983 -10.178762
vertex -31.670736 -123.993988 -10.178762
vertex -32.071907 -125.488983 -10.125937
endloop
endfacet
facet normal 0.130552 0.000000 0.991441
outer loop
vertex -32.071907 -125.488983 -10.125937
vertex -31.670736 -123.993988 -10.178762
vertex -32.071907 -123.993988 -10.125937
endloop
endfacet
facet normal 0.382685 0.000000 0.923879
outer loop
vertex -32.071907 -125.488983 -10.125937
vertex -32.071907 -123.993988 -10.125937
vertex -32.445736 -125.488983 -9.971090
endloop
endfacet
facet normal 0.382686 0.000000 0.923878
outer loop
vertex -32.445736 -125.488983 -9.971090
vertex -32.071907 -123.993988 -10.125937
vertex -32.445736 -123.993988 -9.971090
endloop
endfacet
facet normal 0.608758 0.000000 0.793356
outer loop
vertex -32.445736 -125.488983 -9.971090
vertex -32.445736 -123.993988 -9.971090
vertex -32.766754 -125.488983 -9.724768
endloop
endfacet
facet normal 0.608758 0.000000 0.793356
outer loop
vertex -32.766754 -125.488983 -9.724768
vertex -32.445736 -123.993988 -9.971090
vertex -32.766754 -123.993988 -9.724768
endloop
endfacet
facet normal 0.793352 0.000000 0.608763
outer loop
vertex -32.766754 -125.488983 -9.724768
vertex -32.766754 -123.993988 -9.724768
vertex -33.013077 -125.488983 -9.403753
endloop
endfacet
facet normal 0.793357 0.000000 0.608757
outer loop
vertex -33.013077 -125.488983 -9.403753
vertex -32.766754 -123.993988 -9.724768
vertex -33.013077 -123.993988 -9.403753
endloop
endfacet
facet normal 0.923877 0.000000 0.382690
outer loop
vertex -33.013077 -125.488983 -9.403753
vertex -33.013077 -123.993988 -9.403753
vertex -33.167923 -125.488983 -9.029928
endloop
endfacet
facet normal 0.923877 0.000000 0.382690
outer loop
vertex -33.167923 -125.488983 -9.029928
vertex -33.013077 -123.993988 -9.403753
vertex -33.167923 -123.993988 -9.029928
endloop
endfacet
facet normal 0.991445 0.000000 0.130526
outer loop
vertex -33.167923 -125.488983 -9.029928
vertex -33.167923 -123.993988 -9.029928
vertex -33.220737 -125.488983 -8.628759
endloop
endfacet
facet normal 0.991445 0.000000 0.130525
outer loop
vertex -33.220737 -125.488983 -8.628759
vertex -33.167923 -123.993988 -9.029928
vertex -33.220737 -123.993988 -8.628759
endloop
endfacet
facet normal 0.000000 1.000000 0.000000
outer loop
vertex -30.173552 -125.488983 -9.029928
vertex -30.328398 -125.488983 -9.403753
vertex -30.120737 -125.488983 -8.628759
endloop
endfacet
facet normal 0.000000 1.000000 -0.000031
outer loop
vertex -30.120737 -125.488983 -8.628759
vertex -30.328398 -125.488983 -9.403753
vertex -30.574720 -125.488983 -9.724768
endloop
endfacet
facet normal 0.000000 1.000000 0.000000
outer loop
vertex -30.120737 -125.488983 -8.628759
vertex -30.574720 -125.488983 -9.724768
vertex -30.895737 -125.488983 -9.971090
endloop
endfacet
facet normal 0.000000 1.000000 -0.000001
outer loop
vertex -30.120737 -125.488983 -8.628759
vertex -30.895737 -125.488983 -9.971090
vertex -31.269567 -125.488983 -3.631567
endloop
endfacet
facet normal 0.000000 1.000000 0.000000
outer loop
vertex -31.269567 -125.488983 -3.631567
vertex -30.895737 -125.488983 -9.971090
vertex -31.269567 -125.488983 -10.125937
endloop
endfacet
facet normal 0.000000 1.000000 0.000000
outer loop
vertex -31.269567 -125.488983 -3.631567
vertex -31.269567 -125.488983 -10.125937
vertex -31.670736 -125.488983 -3.578756
endloop
endfacet
facet normal 0.000000 1.000000 0.000000
outer loop
vertex -31.670736 -125.488983 -3.578756
vertex -31.269567 -125.488983 -10.125937
vertex -31.670736 -125.488983 -10.178762
endloop
endfacet
facet normal 0.000000 1.000000 0.000000
outer loop
vertex -31.670736 -125.488983 -3.578756
vertex -31.670736 -125.488983 -10.178762
vertex -32.071907 -125.488983 -10.125937
endloop
endfacet
facet normal 0.000000 1.000000 0.000000
outer loop
vertex -31.670736 -125.488983 -3.578756
vertex -32.071907 -125.488983 -10.125937
vertex -32.071907 -125.488983 -3.631567
endloop
endfacet
facet normal 0.000000 1.000000 0.000000
outer loop
vertex -32.071907 -125.488983 -3.631567
vertex -32.071907 -125.488983 -10.125937
vertex -32.445736 -125.488983 -9.971090
endloop
endfacet
facet normal 0.000000 1.000000 0.000000
outer loop
vertex -32.071907 -125.488983 -3.631567
vertex -32.445736 -125.488983 -9.971090
vertex -33.220737 -125.488983 -8.628759
endloop
endfacet
facet normal 0.000000 1.000000 0.000000
outer loop
vertex -33.220737 -125.488983 -8.628759
vertex -32.445736 -125.488983 -9.971090
vertex -32.766754 -125.488983 -9.724768
endloop
endfacet
facet normal 0.000000 1.000000 -0.000031
outer loop
vertex -33.220737 -125.488983 -8.628759
vertex -32.766754 -125.488983 -9.724768
vertex -33.013077 -125.488983 -9.403753
endloop
endfacet
facet normal 0.000000 1.000000 0.000000
outer loop
vertex -33.013077 -125.488983 -9.403753
vertex -33.167923 -125.488983 -9.029928
vertex -33.220737 -125.488983 -8.628759
endloop
endfacet
facet normal 0.000000 1.000000 0.000000
outer loop
vertex -32.071907 -125.488983 -3.631567
vertex -33.220737 -125.488983 -8.628759
vertex -32.445736 -125.488983 -3.786413
endloop
endfacet
facet normal 0.000000 1.000000 0.000000
outer loop
vertex -32.445736 -125.488983 -3.786413
vertex -33.220737 -125.488983 -8.628759
vertex -33.220737 -125.488983 -5.128759
endloop
endfacet
facet normal 0.000000 1.000000 0.000000
outer loop
vertex -32.445736 -125.488983 -3.786413
vertex -33.220737 -125.488983 -5.128759
vertex -32.766754 -125.488983 -4.032736
endloop
endfacet
facet normal 0.000000 1.000000 0.000031
outer loop
vertex -32.766754 -125.488983 -4.032736
vertex -33.220737 -125.488983 -5.128759
vertex -33.013077 -125.488983 -4.353765
endloop
endfacet
facet normal 0.000000 1.000000 0.000000
outer loop
vertex -33.013077 -125.488983 -4.353765
vertex -33.220737 -125.488983 -5.128759
vertex -33.167923 -125.488983 -4.727591
endloop
endfacet
facet normal 0.000000 1.000000 0.000009
outer loop
vertex -31.269567 -125.488983 -3.631567
vertex -30.895737 -125.488983 -3.786413
vertex -30.120737 -125.488983 -8.628759
endloop
endfacet
facet normal 0.000000 1.000000 0.000000
outer loop
vertex -30.120737 -125.488983 -8.628759
vertex -30.895737 -125.488983 -3.786413
vertex -30.120737 -125.488983 -5.128759
endloop
endfacet
facet normal 0.000000 1.000000 0.000000
outer loop
vertex -30.120737 -125.488983 -5.128759
vertex -30.895737 -125.488983 -3.786413
vertex -30.574720 -125.488983 -4.032736
endloop
endfacet
facet normal 0.000000 1.000000 0.000031
outer loop
vertex -30.120737 -125.488983 -5.128759
vertex -30.574720 -125.488983 -4.032736
vertex -30.328398 -125.488983 -4.353765
endloop
endfacet
facet normal 0.000000 1.000000 0.000000
outer loop
vertex -30.328398 -125.488983 -4.353765
vertex -30.173552 -125.488983 -4.727591
vertex -30.120737 -125.488983 -5.128759
endloop
endfacet
facet normal 0.991445 0.000000 0.130525
outer loop
vertex -33.167923 -127.983986 -12.529928
vertex -33.167923 -126.488983 -12.529928
vertex -33.220737 -127.983986 -12.128759
endloop
endfacet
facet normal 0.991445 0.000000 0.130524
outer loop
vertex -33.220737 -127.983986 -12.128759
vertex -33.167923 -126.488983 -12.529928
vertex -33.220737 -126.488983 -12.128759
endloop
endfacet
facet normal 0.991445 0.000000 -0.130525
outer loop
vertex -33.220737 -127.983986 -12.128759
vertex -33.220737 -126.488983 -12.128759
vertex -33.167923 -127.983986 -11.727591
endloop
endfacet
facet normal 0.991445 0.000000 -0.130524
outer loop
vertex -33.167923 -127.983986 -11.727591
vertex -33.220737 -126.488983 -12.128759
vertex -33.167923 -126.488983 -11.727591
endloop
endfacet
facet normal 0.923875 0.000000 -0.382694
outer loop
vertex -33.167923 -127.983986 -11.727591
vertex -33.167923 -126.488983 -11.727591
vertex -33.013077 -127.983986 -11.353765
endloop
endfacet
facet normal 0.923879 0.000000 -0.382684
outer loop
vertex -33.013077 -127.983986 -11.353765
vertex -33.167923 -126.488983 -11.727591
vertex -33.013077 -126.488983 -11.353765
endloop
endfacet
facet normal 0.793367 0.000000 -0.608744
outer loop
vertex -33.013077 -127.983986 -11.353765
vertex -33.013077 -126.488983 -11.353765
vertex -32.766754 -127.983986 -11.032736
endloop
endfacet
facet normal 0.793368 0.000000 -0.608743
outer loop
vertex -32.766754 -127.983986 -11.032736
vertex -33.013077 -126.488983 -11.353765
vertex -32.766754 -126.488983 -11.032736
endloop
endfacet
facet normal 0.608762 0.000000 -0.793353
outer loop
vertex -32.766754 -127.983986 -11.032736
vertex -32.766754 -126.488983 -11.032736
vertex -32.445736 -127.983986 -10.786413
endloop
endfacet
facet normal 0.608752 0.000000 -0.793361
outer loop
vertex -32.445736 -127.983986 -10.786413
vertex -32.766754 -126.488983 -11.032736
vertex -32.445736 -126.488983 -10.786413
endloop
endfacet
facet normal 0.382680 0.000000 -0.923881
outer loop
vertex -32.445736 -127.983986 -10.786413
vertex -32.445736 -126.488983 -10.786413
vertex -32.071907 -127.983986 -10.631567
endloop
endfacet
facet normal 0.382689 0.000000 -0.923877
outer loop
vertex -32.071907 -127.983986 -10.631567
vertex -32.445736 -126.488983 -10.786413
vertex -32.071907 -126.488983 -10.631567
endloop
endfacet
facet normal 0.130516 0.000000 -0.991446
outer loop
vertex -32.071907 -127.983986 -10.631567
vertex -32.071907 -126.488983 -10.631567
vertex -31.670736 -127.983986 -10.578756
endloop
endfacet
facet normal 0.130517 0.000000 -0.991446
outer loop
vertex -31.670736 -127.983986 -10.578756
vertex -32.071907 -126.488983 -10.631567
vertex -31.670736 -126.488983 -10.578756
endloop
endfacet
facet normal -0.130516 0.000000 -0.991446
outer loop
vertex -31.670736 -127.983986 -10.578756
vertex -31.670736 -126.488983 -10.578756
vertex -31.269567 -127.983986 -10.631567
endloop
endfacet
facet normal -0.130517 0.000000 -0.991446
outer loop
vertex -31.269567 -127.983986 -10.631567
vertex -31.670736 -126.488983 -10.578756
vertex -31.269567 -126.488983 -10.631567
endloop
endfacet
facet normal -0.382680 0.000000 -0.923881
outer loop
vertex -31.269567 -127.983986 -10.631567
vertex -31.269567 -126.488983 -10.631567
vertex -30.895737 -127.983986 -10.786413
endloop
endfacet
facet normal -0.382685 0.000000 -0.923879
outer loop
vertex -30.895737 -127.983986 -10.786413
vertex -31.269567 -126.488983 -10.631567
vertex -30.895737 -126.488983 -10.786413
endloop
endfacet
facet normal -0.608758 0.000000 -0.793356
outer loop
vertex -30.895737 -127.983986 -10.786413
vertex -30.895737 -126.488983 -10.786413
vertex -30.574720 -127.983986 -11.032736
endloop
endfacet
facet normal -0.608762 0.000000 -0.793353
outer loop
vertex -30.574720 -127.983986 -11.032736
vertex -30.895737 -126.488983 -10.786413
vertex -30.574720 -126.488983 -11.032736
endloop
endfacet
facet normal -0.793365 0.000000 -0.608747
outer loop
vertex -30.574720 -127.983986 -11.032736
vertex -30.574720 -126.488983 -11.032736
vertex -30.328398 -127.983986 -11.353765
endloop
endfacet
facet normal -0.793370 0.000000 -0.608740
outer loop
vertex -30.328398 -127.983986 -11.353765
vertex -30.574720 -126.488983 -11.032736
vertex -30.328398 -126.488983 -11.353765
endloop
endfacet
facet normal -0.923875 0.000000 -0.382694
outer loop
vertex -30.328398 -127.983986 -11.353765
vertex -30.328398 -126.488983 -11.353765
vertex -30.173552 -127.983986 -11.727591
endloop
endfacet
facet normal -0.923879 0.000000 -0.382684
outer loop
vertex -30.173552 -127.983986 -11.727591
vertex -30.328398 -126.488983 -11.353765
vertex -30.173552 -126.488983 -11.727591
endloop
endfacet
facet normal -0.991445 0.000000 -0.130524
outer loop
vertex -30.173552 -127.983986 -11.727591
vertex -30.173552 -126.488983 -11.727591
vertex -30.120737 -127.983986 -12.128759
endloop
endfacet
facet normal -0.991445 0.000000 -0.130525
outer loop
vertex -30.120737 -127.983986 -12.128759
vertex -30.173552 -126.488983 -11.727591
vertex -30.120737 -126.488983 -12.128759
endloop
endfacet
facet normal -0.991445 0.000000 0.130524
outer loop
vertex -30.120737 -127.983986 -12.128759
vertex -30.120737 -126.488983 -12.128759
vertex -30.173552 -127.983986 -12.529928
endloop
endfacet
facet normal -0.991445 0.000000 0.130525
outer loop
vertex -30.173552 -127.983986 -12.529928
vertex -30.120737 -126.488983 -12.128759
vertex -30.173552 -126.488983 -12.529928
endloop
endfacet
facet normal -0.923875 0.000000 0.382694
outer loop
vertex -30.173552 -127.983986 -12.529928
vertex -30.173552 -126.488983 -12.529928
vertex -30.328398 -127.983986 -12.903753
endloop
endfacet
facet normal -0.923880 0.000000 0.382682
outer loop
vertex -30.328398 -127.983986 -12.903753
vertex -30.173552 -126.488983 -12.529928
vertex -30.328398 -126.488983 -12.903753
endloop
endfacet
facet normal -0.793351 0.000000 0.608765
outer loop
vertex -30.328398 -127.983986 -12.903753
vertex -30.328398 -126.488983 -12.903753
vertex -30.574720 -127.983986 -13.224768
endloop
endfacet
facet normal -0.793356 0.000000 0.608758
outer loop
vertex -30.574720 -127.983986 -13.224768
vertex -30.328398 -126.488983 -12.903753
vertex -30.574720 -126.488983 -13.224768
endloop
endfacet
facet normal -0.608758 0.000000 0.793356
outer loop
vertex -30.574720 -127.983986 -13.224768
vertex -30.574720 -126.488983 -13.224768
vertex -30.895737 -127.983986 -13.471090
endloop
endfacet
facet normal -0.608758 0.000000 0.793356
outer loop
vertex -30.895737 -127.983986 -13.471090
vertex -30.574720 -126.488983 -13.224768
vertex -30.895737 -126.488983 -13.471090
endloop
endfacet
facet normal -0.382680 0.000000 0.923881
outer loop
vertex -30.895737 -127.983986 -13.471090
vertex -30.895737 -126.488983 -13.471090
vertex -31.269567 -127.983986 -13.625937
endloop
endfacet
facet normal -0.382690 0.000000 0.923877
outer loop
vertex -31.269567 -127.983986 -13.625937
vertex -30.895737 -126.488983 -13.471090
vertex -31.269567 -126.488983 -13.625937
endloop
endfacet
facet normal -0.130547 0.000000 0.991442
outer loop
vertex -31.269567 -127.983986 -13.625937
vertex -31.269567 -126.488983 -13.625937
vertex -31.670736 -127.983986 -13.678762
endloop
endfacet
facet normal -0.130555 0.000000 0.991441
outer loop
vertex -31.670736 -127.983986 -13.678762
vertex -31.269567 -126.488983 -13.625937
vertex -31.670736 -126.488983 -13.678762
endloop
endfacet
facet normal 0.130553 0.000000 0.991441
outer loop
vertex -31.670736 -127.983986 -13.678762
vertex -31.670736 -126.488983 -13.678762
vertex -32.071907 -127.983986 -13.625937
endloop
endfacet
facet normal 0.130548 0.000000 0.991442
outer loop
vertex -32.071907 -127.983986 -13.625937
vertex -31.670736 -126.488983 -13.678762
vertex -32.071907 -126.488983 -13.625937
endloop
endfacet
facet normal 0.382686 0.000000 0.923879
outer loop
vertex -32.071907 -127.983986 -13.625937
vertex -32.071907 -126.488983 -13.625937
vertex -32.445736 -127.983986 -13.471090
endloop
endfacet
facet normal 0.382689 0.000000 0.923877
outer loop
vertex -32.445736 -127.983986 -13.471090
vertex -32.071907 -126.488983 -13.625937
vertex -32.445736 -126.488983 -13.471090
endloop
endfacet
facet normal 0.608758 0.000000 0.793356
outer loop
vertex -32.445736 -127.983986 -13.471090
vertex -32.445736 -126.488983 -13.471090
vertex -32.766754 -127.983986 -13.224768
endloop
endfacet
facet normal 0.608752 0.000000 0.793361
outer loop
vertex -32.766754 -127.983986 -13.224768
vertex -32.445736 -126.488983 -13.471090
vertex -32.766754 -126.488983 -13.224768
endloop
endfacet
facet normal 0.793353 0.000000 0.608762
outer loop
vertex -32.766754 -127.983986 -13.224768
vertex -32.766754 -126.488983 -13.224768
vertex -33.013077 -127.983986 -12.903753
endloop
endfacet
facet normal 0.793354 0.000000 0.608761
outer loop
vertex -33.013077 -127.983986 -12.903753
vertex -32.766754 -126.488983 -13.224768
vertex -33.013077 -126.488983 -12.903753
endloop
endfacet
facet normal 0.923876 0.000000 0.382692
outer loop
vertex -33.013077 -127.983986 -12.903753
vertex -33.013077 -126.488983 -12.903753
vertex -33.167923 -127.983986 -12.529928
endloop
endfacet
facet normal 0.923879 0.000000 0.382684
outer loop
vertex -33.167923 -127.983986 -12.529928
vertex -33.013077 -126.488983 -12.903753
vertex -33.167923 -126.488983 -12.529928
endloop
endfacet
facet normal 0.000000 -1.000000 0.000000
outer loop
vertex -33.167923 -126.488983 -12.529928
vertex -30.173552 -126.488983 -12.529928
vertex -33.220737 -126.488983 -12.128759
endloop
endfacet
facet normal 0.000000 -1.000000 0.000000
outer loop
vertex -33.220737 -126.488983 -12.128759
vertex -30.173552 -126.488983 -12.529928
vertex -30.120737 -126.488983 -12.128759
endloop
endfacet
facet normal 0.000000 -1.000000 0.000000
outer loop
vertex -33.220737 -126.488983 -12.128759
vertex -30.120737 -126.488983 -12.128759
vertex -33.167923 -126.488983 -11.727591
endloop
endfacet
facet normal 0.000000 -1.000000 0.000000
outer loop
vertex -33.167923 -126.488983 -11.727591
vertex -30.120737 -126.488983 -12.128759
vertex -30.173552 -126.488983 -11.727591
endloop
endfacet
facet normal 0.000000 -1.000000 0.000000
outer loop
vertex -33.167923 -126.488983 -11.727591
vertex -30.173552 -126.488983 -11.727591
vertex -33.013077 -126.488983 -11.353765
endloop
endfacet
facet normal 0.000000 -1.000000 0.000053
outer loop
vertex -33.013077 -126.488983 -11.353765
vertex -30.173552 -126.488983 -11.727591
vertex -30.328398 -126.488983 -11.353765
endloop
endfacet
facet normal 0.000000 -1.000000 -0.000071
outer loop
vertex -33.013077 -126.488983 -11.353765
vertex -30.328398 -126.488983 -11.353765
vertex -32.766754 -126.488983 -11.032736
endloop
endfacet
facet normal 0.000000 -1.000000 0.000016
outer loop
vertex -32.766754 -126.488983 -11.032736
vertex -30.328398 -126.488983 -11.353765
vertex -30.574720 -126.488983 -11.032736
endloop
endfacet
facet normal 0.000000 -1.000000 0.000000
outer loop
vertex -32.766754 -126.488983 -11.032736
vertex -30.574720 -126.488983 -11.032736
vertex -32.445736 -126.488983 -10.786413
endloop
endfacet
facet normal 0.000000 -1.000000 0.000000
outer loop
vertex -32.445736 -126.488983 -10.786413
vertex -30.574720 -126.488983 -11.032736
vertex -30.895737 -126.488983 -10.786413
endloop
endfacet
facet normal 0.000000 -1.000000 0.000000
outer loop
vertex -32.445736 -126.488983 -10.786413
vertex -30.895737 -126.488983 -10.786413
vertex -32.071907 -126.488983 -10.631567
endloop
endfacet
facet normal 0.000000 -1.000000 0.000123
outer loop
vertex -32.071907 -126.488983 -10.631567
vertex -30.895737 -126.488983 -10.786413
vertex -31.269567 -126.488983 -10.631567
endloop
endfacet
facet normal 0.000000 -1.000000 0.000000
outer loop
vertex -32.071907 -126.488983 -10.631567
vertex -31.269567 -126.488983 -10.631567
vertex -31.670736 -126.488983 -10.578756
endloop
endfacet
facet normal 0.000000 -1.000000 0.000000
outer loop
vertex -30.173552 -126.488983 -12.529928
vertex -33.167923 -126.488983 -12.529928
vertex -30.328398 -126.488983 -12.903753
endloop
endfacet
facet normal 0.000000 -1.000000 -0.000053
outer loop
vertex -30.328398 -126.488983 -12.903753
vertex -33.167923 -126.488983 -12.529928
vertex -33.013077 -126.488983 -12.903753
endloop
endfacet
facet normal 0.000000 -1.000000 0.000071
outer loop
vertex -30.328398 -126.488983 -12.903753
vertex -33.013077 -126.488983 -12.903753
vertex -30.574720 -126.488983 -13.224768
endloop
endfacet
facet normal 0.000000 -1.000000 -0.000016
outer loop
vertex -30.574720 -126.488983 -13.224768
vertex -33.013077 -126.488983 -12.903753
vertex -32.766754 -126.488983 -13.224768
endloop
endfacet
facet normal 0.000000 -1.000000 0.000000
outer loop
vertex -30.574720 -126.488983 -13.224768
vertex -32.766754 -126.488983 -13.224768
vertex -30.895737 -126.488983 -13.471090
endloop
endfacet
facet normal 0.000000 -1.000000 -0.000020
outer loop
vertex -30.895737 -126.488983 -13.471090
vertex -32.766754 -126.488983 -13.224768
vertex -32.445736 -126.488983 -13.471090
endloop
endfacet
facet normal 0.000000 -1.000000 0.000000
outer loop
vertex -30.895737 -126.488983 -13.471090
vertex -32.445736 -126.488983 -13.471090
vertex -31.269567 -126.488983 -13.625937
endloop
endfacet
facet normal 0.000000 -1.000000 -0.000061
outer loop
vertex -31.269567 -126.488983 -13.625937
vertex -32.445736 -126.488983 -13.471090
vertex -32.071907 -126.488983 -13.625937
endloop
endfacet
facet normal 0.000000 -1.000000 0.000000
outer loop
vertex -31.269567 -126.488983 -13.625937
vertex -32.071907 -126.488983 -13.625937
vertex -31.670736 -126.488983 -13.678762
endloop
endfacet
facet normal 0.991445 0.000000 0.130525
outer loop
vertex -36.720737 -126.488983 -8.628759
vertex -36.720737 -127.983986 -8.628759
vertex -36.667923 -126.488983 -9.029928
endloop
endfacet
facet normal 0.991445 0.000000 0.130525
outer loop
vertex -36.667923 -126.488983 -9.029928
vertex -36.720737 -127.983986 -8.628759
vertex -36.667923 -127.983986 -9.029928
endloop
endfacet
facet normal 0.923880 0.000000 0.382683
outer loop
vertex -36.667923 -126.488983 -9.029928
vertex -36.667923 -127.983986 -9.029928
vertex -36.513077 -126.488983 -9.403753
endloop
endfacet
facet normal 0.923875 0.000000 0.382694
outer loop
vertex -36.513077 -126.488983 -9.403753
vertex -36.667923 -127.983986 -9.029928
vertex -36.513077 -127.983986 -9.403753
endloop
endfacet
facet normal 0.793355 0.000000 0.608760
outer loop
vertex -36.513077 -126.488983 -9.403753
vertex -36.513077 -127.983986 -9.403753
vertex -36.266754 -126.488983 -9.724768
endloop
endfacet
facet normal 0.793352 0.000000 0.608764
outer loop
vertex -36.266754 -126.488983 -9.724768
vertex -36.513077 -127.983986 -9.403753
vertex -36.266754 -127.983986 -9.724768
endloop
endfacet
facet normal 0.608754 0.000000 0.793359
outer loop
vertex -36.266754 -126.488983 -9.724768
vertex -36.266754 -127.983986 -9.724768
vertex -35.945736 -126.488983 -9.971090
endloop
endfacet
facet normal 0.608758 0.000000 0.793356
outer loop
vertex -35.945736 -126.488983 -9.971090
vertex -36.266754 -127.983986 -9.724768
vertex -35.945736 -127.983986 -9.971090
endloop
endfacet
facet normal 0.382692 0.000000 0.923876
outer loop
vertex -35.945736 -126.488983 -9.971090
vertex -35.945736 -127.983986 -9.971090
vertex -35.571907 -126.488983 -10.125937
endloop
endfacet
facet normal 0.382680 0.000000 0.923881
outer loop
vertex -35.571907 -126.488983 -10.125937
vertex -35.945736 -127.983986 -9.971090
vertex -35.571907 -127.983986 -10.125937
endloop
endfacet
facet normal 0.130555 0.000000 0.991441
outer loop
vertex -35.571907 -126.488983 -10.125937
vertex -35.571907 -127.983986 -10.125937
vertex -35.170738 -126.488983 -10.178762
endloop
endfacet
facet normal 0.130550 0.000000 0.991442
outer loop
vertex -35.170738 -126.488983 -10.178762
vertex -35.571907 -127.983986 -10.125937
vertex -35.170738 -127.983986 -10.178762
endloop
endfacet
facet normal -0.130552 0.000000 0.991441
outer loop
vertex -35.170738 -126.488983 -10.178762
vertex -35.170738 -127.983986 -10.178762
vertex -34.769566 -126.488983 -10.125937
endloop
endfacet
facet normal -0.130551 0.000000 0.991442
outer loop
vertex -34.769566 -126.488983 -10.125937
vertex -35.170738 -127.983986 -10.178762
vertex -34.769566 -127.983986 -10.125937
endloop
endfacet
facet normal -0.382689 0.000000 0.923877
outer loop
vertex -34.769566 -126.488983 -10.125937
vertex -34.769566 -127.983986 -10.125937
vertex -34.395737 -126.488983 -9.971090
endloop
endfacet
facet normal -0.382683 0.000000 0.923880
outer loop
vertex -34.395737 -126.488983 -9.971090
vertex -34.769566 -127.983986 -10.125937
vertex -34.395737 -127.983986 -9.971090
endloop
endfacet
facet normal -0.608764 0.000000 0.793351
outer loop
vertex -34.395737 -126.488983 -9.971090
vertex -34.395737 -127.983986 -9.971090
vertex -34.074722 -126.488983 -9.724768
endloop
endfacet
facet normal -0.608760 0.000000 0.793354
outer loop
vertex -34.074722 -126.488983 -9.724768
vertex -34.395737 -127.983986 -9.971090
vertex -34.074722 -127.983986 -9.724768
endloop
endfacet
facet normal -0.793349 0.000000 0.608767
outer loop
vertex -34.074722 -126.488983 -9.724768
vertex -34.074722 -127.983986 -9.724768
vertex -33.828396 -126.488983 -9.403753
endloop
endfacet
facet normal -0.793349 0.000000 0.608767
outer loop
vertex -33.828396 -126.488983 -9.403753
vertex -34.074722 -127.983986 -9.724768
vertex -33.828396 -127.983986 -9.403753
endloop
endfacet
facet normal -0.923882 0.000000 0.382678
outer loop
vertex -33.828396 -126.488983 -9.403753
vertex -33.828396 -127.983986 -9.403753
vertex -33.673553 -126.488983 -9.029928
endloop
endfacet
facet normal -0.923880 0.000000 0.382683
outer loop
vertex -33.673553 -126.488983 -9.029928
vertex -33.828396 -127.983986 -9.403753
vertex -33.673553 -127.983986 -9.029928
endloop
endfacet
facet normal -0.991444 0.000000 0.130533
outer loop
vertex -33.673553 -126.488983 -9.029928
vertex -33.673553 -127.983986 -9.029928
vertex -33.620735 -126.488983 -8.628759
endloop
endfacet
facet normal -0.991444 0.000000 0.130536
outer loop
vertex -33.620735 -126.488983 -8.628759
vertex -33.673553 -127.983986 -9.029928
vertex -33.620735 -127.983986 -8.628759
endloop
endfacet
facet normal 1.000000 0.000000 0.000000
outer loop
vertex -36.720737 -127.983986 -5.129126
vertex -36.720737 -127.983986 -8.628759
vertex -36.720737 -126.488983 -5.129126
endloop
endfacet
facet normal 1.000000 0.000000 0.000000
outer loop
vertex -36.720737 -126.488983 -5.129126
vertex -36.720737 -127.983986 -8.628759
vertex -36.720737 -126.488983 -8.628759
endloop
endfacet
facet normal 0.130516 0.000000 -0.991446
outer loop
vertex -35.170738 -126.488983 -3.579123
vertex -35.170738 -127.983986 -3.579123
vertex -35.571907 -126.488983 -3.631933
endloop
endfacet
facet normal 0.130514 0.000000 -0.991446
outer loop
vertex -35.571907 -126.488983 -3.631933
vertex -35.170738 -127.983986 -3.579123
vertex -35.571907 -127.983986 -3.631933
endloop
endfacet
facet normal 0.382690 0.000000 -0.923877
outer loop
vertex -35.571907 -126.488983 -3.631933
vertex -35.571907 -127.983986 -3.631933
vertex -35.945736 -126.488983 -3.786779
endloop
endfacet
facet normal 0.382682 0.000000 -0.923880
outer loop
vertex -35.945736 -126.488983 -3.786779
vertex -35.571907 -127.983986 -3.631933
vertex -35.945736 -127.983986 -3.786779
endloop
endfacet
facet normal 0.608753 0.000000 -0.793360
outer loop
vertex -35.945736 -126.488983 -3.786779
vertex -35.945736 -127.983986 -3.786779
vertex -36.266754 -126.488983 -4.033102
endloop
endfacet
facet normal 0.608759 0.000000 -0.793355
outer loop
vertex -36.266754 -126.488983 -4.033102
vertex -35.945736 -127.983986 -3.786779
vertex -36.266754 -127.983986 -4.033102
endloop
endfacet
facet normal 0.793355 0.000000 -0.608760
outer loop
vertex -36.266754 -126.488983 -4.033102
vertex -36.266754 -127.983986 -4.033102
vertex -36.513077 -126.488983 -4.354116
endloop
endfacet
facet normal 0.793352 0.000000 -0.608764
outer loop
vertex -36.513077 -126.488983 -4.354116
vertex -36.266754 -127.983986 -4.033102
vertex -36.513077 -127.983986 -4.354116
endloop
endfacet
facet normal 0.923885 0.000000 -0.382670
outer loop
vertex -36.513077 -126.488983 -4.354116
vertex -36.513077 -127.983986 -4.354116
vertex -36.667923 -126.488983 -4.727957
endloop
endfacet
facet normal 0.923881 0.000000 -0.382681
outer loop
vertex -36.667923 -126.488983 -4.727957
vertex -36.513077 -127.983986 -4.354116
vertex -36.667923 -127.983986 -4.727957
endloop
endfacet
facet normal 0.991445 0.000000 -0.130525
outer loop
vertex -36.667923 -126.488983 -4.727957
vertex -36.667923 -127.983986 -4.727957
vertex -36.720737 -126.488983 -5.129126
endloop
endfacet
facet normal 0.991445 0.000000 -0.130525
outer loop
vertex -36.720737 -126.488983 -5.129126
vertex -36.667923 -127.983986 -4.727957
vertex -36.720737 -127.983986 -5.129126
endloop
endfacet
facet normal 1.000000 0.000000 0.000000
outer loop
vertex -35.170738 -127.983986 -3.578756
vertex -35.170738 -127.983986 -3.579123
vertex -35.170738 -126.488983 -3.578756
endloop
endfacet
facet normal 1.000000 0.000000 0.000000
outer loop
vertex -35.170738 -126.488983 -3.578756
vertex -35.170738 -127.983986 -3.579123
vertex -35.170738 -126.488983 -3.579123
endloop
endfacet
facet normal 0.000000 0.000000 -1.000000
outer loop
vertex -28.170715 -127.983986 -3.578756
vertex -35.170738 -127.983986 -3.578756
vertex -28.170715 -126.488983 -3.578756
endloop
endfacet
facet normal 0.000000 0.000000 -1.000000
outer loop
vertex -28.170715 -126.488983 -3.578756
vertex -35.170738 -127.983986 -3.578756
vertex -35.170738 -126.488983 -3.578756
endloop
endfacet
facet normal -0.991445 0.000000 -0.130525
outer loop
vertex -26.620737 -126.488983 -5.128759
vertex -26.620737 -127.983986 -5.128759
vertex -26.673552 -126.488983 -4.727591
endloop
endfacet
facet normal -0.991445 0.000000 -0.130525
outer loop
vertex -26.673552 -126.488983 -4.727591
vertex -26.620737 -127.983986 -5.128759
vertex -26.673552 -127.983986 -4.727591
endloop
endfacet
facet normal -0.923882 0.000000 -0.382678
outer loop
vertex -26.673552 -126.488983 -4.727591
vertex -26.673552 -127.983986 -4.727591
vertex -26.828394 -126.488983 -4.353765
endloop
endfacet
facet normal -0.923880 0.000000 -0.382683
outer loop
vertex -26.828394 -126.488983 -4.353765
vertex -26.673552 -127.983986 -4.727591
vertex -26.828394 -127.983986 -4.353765
endloop
endfacet
facet normal -0.793358 0.000000 -0.608756
outer loop
vertex -26.828394 -126.488983 -4.353765
vertex -26.828394 -127.983986 -4.353765
vertex -27.074713 -126.488983 -4.032751
endloop
endfacet
facet normal -0.793358 0.000000 -0.608756
outer loop
vertex -27.074713 -126.488983 -4.032751
vertex -26.828394 -127.983986 -4.353765
vertex -27.074713 -127.983986 -4.032751
endloop
endfacet
facet normal -0.608766 0.000000 -0.793350
outer loop
vertex -27.074713 -126.488983 -4.032751
vertex -27.074713 -127.983986 -4.032751
vertex -27.395725 -126.488983 -3.786428
endloop
endfacet
facet normal -0.608765 0.000000 -0.793351
outer loop
vertex -27.395725 -126.488983 -3.786428
vertex -27.074713 -127.983986 -4.032751
vertex -27.395725 -127.983986 -3.786428
endloop
endfacet
facet normal -0.382689 0.000000 -0.923877
outer loop
vertex -27.395725 -126.488983 -3.786428
vertex -27.395725 -127.983986 -3.786428
vertex -27.769550 -126.488983 -3.631582
endloop
endfacet
facet normal -0.382686 0.000000 -0.923878
outer loop
vertex -27.769550 -126.488983 -3.631582
vertex -27.395725 -127.983986 -3.786428
vertex -27.769550 -127.983986 -3.631582
endloop
endfacet
facet normal -0.130555 0.000000 -0.991441
outer loop
vertex -27.769550 -126.488983 -3.631582
vertex -27.769550 -127.983986 -3.631582
vertex -28.170715 -126.488983 -3.578756
endloop
endfacet
facet normal -0.130553 0.000000 -0.991441
outer loop
vertex -28.170715 -126.488983 -3.578756
vertex -27.769550 -127.983986 -3.631582
vertex -28.170715 -127.983986 -3.578756
endloop
endfacet
facet normal -1.000000 0.000000 -0.000003
outer loop
vertex -26.620726 -127.983986 -8.628759
vertex -26.620737 -127.983986 -5.128759
vertex -26.620726 -126.488983 -8.628759
endloop
endfacet
facet normal -1.000000 0.000000 -0.000003
outer loop
vertex -26.620726 -126.488983 -8.628759
vertex -26.620737 -127.983986 -5.128759
vertex -26.620737 -126.488983 -5.128759
endloop
endfacet
facet normal 0.991445 0.000000 0.130525
outer loop
vertex -29.720724 -126.488983 -8.628759
vertex -29.720724 -127.983986 -8.628759
vertex -29.667910 -126.488983 -9.029928
endloop
endfacet
facet normal 0.991445 0.000000 0.130525
outer loop
vertex -29.667910 -126.488983 -9.029928
vertex -29.720724 -127.983986 -8.628759
vertex -29.667910 -127.983986 -9.029928
endloop
endfacet
facet normal 0.923881 0.000000 0.382680
outer loop
vertex -29.667910 -126.488983 -9.029928
vertex -29.667910 -127.983986 -9.029928
vertex -29.513062 -126.488983 -9.403769
endloop
endfacet
facet normal 0.923880 0.000000 0.382681
outer loop
vertex -29.513062 -126.488983 -9.403769
vertex -29.667910 -127.983986 -9.029928
vertex -29.513062 -127.983986 -9.403769
endloop
endfacet
facet normal 0.793355 0.000000 0.608760
outer loop
vertex -29.513062 -126.488983 -9.403769
vertex -29.513062 -127.983986 -9.403769
vertex -29.266737 -126.488983 -9.724783
endloop
endfacet
facet normal 0.793349 0.000000 0.608767
outer loop
vertex -29.266737 -126.488983 -9.724783
vertex -29.513062 -127.983986 -9.403769
vertex -29.266737 -127.983986 -9.724783
endloop
endfacet
facet normal 0.608760 0.000000 0.793354
outer loop
vertex -29.266737 -126.488983 -9.724783
vertex -29.266737 -127.983986 -9.724783
vertex -28.945721 -126.488983 -9.971106
endloop
endfacet
facet normal 0.608758 0.000000 0.793356
outer loop
vertex -28.945721 -126.488983 -9.971106
vertex -29.266737 -127.983986 -9.724783
vertex -28.945721 -127.983986 -9.971106
endloop
endfacet
facet normal 0.382687 0.000000 0.923878
outer loop
vertex -28.945721 -126.488983 -9.971106
vertex -28.945721 -127.983986 -9.971106
vertex -28.571890 -126.488983 -10.125952
endloop
endfacet
facet normal 0.382680 0.000000 0.923881
outer loop
vertex -28.571890 -126.488983 -10.125952
vertex -28.945721 -127.983986 -9.971106
vertex -28.571890 -127.983986 -10.125952
endloop
endfacet
facet normal 0.130517 0.000000 0.991446
outer loop
vertex -28.571890 -126.488983 -10.125952
vertex -28.571890 -127.983986 -10.125952
vertex -28.170719 -126.488983 -10.178762
endloop
endfacet
facet normal 0.130513 0.000000 0.991447
outer loop
vertex -28.170719 -126.488983 -10.178762
vertex -28.571890 -127.983986 -10.125952
vertex -28.170719 -127.983986 -10.178762
endloop
endfacet
facet normal -0.130552 0.000000 0.991441
outer loop
vertex -28.170719 -126.488983 -10.178762
vertex -28.170719 -127.983986 -10.178762
vertex -27.769550 -126.488983 -10.125937
endloop
endfacet
facet normal -0.130553 0.000000 0.991441
outer loop
vertex -27.769550 -126.488983 -10.125937
vertex -28.170719 -127.983986 -10.178762
vertex -27.769550 -127.983986 -10.125937
endloop
endfacet
facet normal -0.382689 0.000000 0.923877
outer loop
vertex -27.769550 -126.488983 -10.125937
vertex -27.769550 -127.983986 -10.125937
vertex -27.395721 -126.488983 -9.971090
endloop
endfacet
facet normal -0.382683 0.000000 0.923880
outer loop
vertex -27.395721 -126.488983 -9.971090
vertex -27.769550 -127.983986 -10.125937
vertex -27.395721 -127.983986 -9.971090
endloop
endfacet
facet normal -0.608758 0.000000 0.793356
outer loop
vertex -27.395721 -126.488983 -9.971090
vertex -27.395721 -127.983986 -9.971090
vertex -27.074705 -126.488983 -9.724768
endloop
endfacet
facet normal -0.608760 0.000000 0.793354
outer loop
vertex -27.074705 -126.488983 -9.724768
vertex -27.395721 -127.983986 -9.971090
vertex -27.074705 -127.983986 -9.724768
endloop
endfacet
facet normal -0.793355 0.000000 0.608760
outer loop
vertex -27.074705 -126.488983 -9.724768
vertex -27.074705 -127.983986 -9.724768
vertex -26.828382 -126.488983 -9.403753
endloop
endfacet
facet normal -0.793352 0.000000 0.608764
outer loop
vertex -26.828382 -126.488983 -9.403753
vertex -27.074705 -127.983986 -9.724768
vertex -26.828382 -127.983986 -9.403753
endloop
endfacet
facet normal -0.923879 0.000000 0.382684
outer loop
vertex -26.828382 -126.488983 -9.403753
vertex -26.828382 -127.983986 -9.403753
vertex -26.673538 -126.488983 -9.029928
endloop
endfacet
facet normal -0.923878 0.000000 0.382688
outer loop
vertex -26.673538 -126.488983 -9.029928
vertex -26.828382 -127.983986 -9.403753
vertex -26.673538 -127.983986 -9.029928
endloop
endfacet
facet normal -0.991446 0.000000 0.130520
outer loop
vertex -26.673538 -126.488983 -9.029928
vertex -26.673538 -127.983986 -9.029928
vertex -26.620726 -126.488983 -8.628759
endloop
endfacet
facet normal -0.991446 0.000000 0.130520
outer loop
vertex -26.620726 -126.488983 -8.628759
vertex -26.673538 -127.983986 -9.029928
vertex -26.620726 -127.983986 -8.628759
endloop
endfacet
facet normal 1.000000 0.000000 0.000004
outer loop
vertex -29.720732 -127.983986 -6.678839
vertex -29.720724 -127.983986 -8.628759
vertex -29.720732 -126.488983 -6.678839
endloop
endfacet
facet normal 1.000000 0.000000 0.000004
outer loop
vertex -29.720732 -126.488983 -6.678839
vertex -29.720724 -127.983986 -8.628759
vertex -29.720724 -126.488983 -8.628759
endloop
endfacet
facet normal -0.000051 0.000000 1.000000
outer loop
vertex -33.620735 -127.983986 -6.679037
vertex -29.720732 -127.983986 -6.678839
vertex -33.620735 -126.488983 -6.679037
endloop
endfacet
facet normal -0.000051 0.000000 1.000000
outer loop
vertex -33.620735 -126.488983 -6.679037
vertex -29.720732 -127.983986 -6.678839
vertex -29.720732 -126.488983 -6.678839
endloop
endfacet
facet normal -1.000000 0.000000 0.000000
outer loop
vertex -33.620735 -127.983986 -8.628759
vertex -33.620735 -127.983986 -6.679037
vertex -33.620735 -126.488983 -8.628759
endloop
endfacet
facet normal -1.000000 0.000000 0.000000
outer loop
vertex -33.620735 -126.488983 -8.628759
vertex -33.620735 -127.983986 -6.679037
vertex -33.620735 -126.488983 -6.679037
endloop
endfacet
facet normal 0.000000 -1.000000 0.000000
outer loop
vertex -35.170738 -126.488983 -3.578756
vertex -35.170738 -126.488983 -3.579123
vertex -28.170715 -126.488983 -3.578756
endloop
endfacet
facet normal 0.000000 -1.000000 0.000000
outer loop
vertex -28.170715 -126.488983 -3.578756
vertex -35.170738 -126.488983 -3.579123
vertex -29.720732 -126.488983 -6.678839
endloop
endfacet
facet normal 0.000000 -1.000000 0.000000
outer loop
vertex -28.170715 -126.488983 -3.578756
vertex -29.720732 -126.488983 -6.678839
vertex -26.620737 -126.488983 -5.128759
endloop
endfacet
facet normal 0.000000 -1.000000 0.000000
outer loop
vertex -26.620737 -126.488983 -5.128759
vertex -29.720732 -126.488983 -6.678839
vertex -26.620726 -126.488983 -8.628759
endloop
endfacet
facet normal 0.000000 -1.000000 0.000006
outer loop
vertex -26.620726 -126.488983 -8.628759
vertex -29.720732 -126.488983 -6.678839
vertex -29.720724 -126.488983 -8.628759
endloop
endfacet
facet normal 0.000000 -1.000000 0.000000
outer loop
vertex -26.620726 -126.488983 -8.628759
vertex -29.720724 -126.488983 -8.628759
vertex -26.673538 -126.488983 -9.029928
endloop
endfacet
facet normal 0.000000 -1.000000 0.000000
outer loop
vertex -26.673538 -126.488983 -9.029928
vertex -29.720724 -126.488983 -8.628759
vertex -29.667910 -126.488983 -9.029928
endloop
endfacet
facet normal 0.000000 -1.000000 -0.000055
outer loop
vertex -26.673538 -126.488983 -9.029928
vertex -29.667910 -126.488983 -9.029928
vertex -26.828382 -126.488983 -9.403753
endloop
endfacet
facet normal 0.000000 -1.000000 0.000000
outer loop
vertex -26.828382 -126.488983 -9.403753
vertex -29.667910 -126.488983 -9.029928
vertex -29.513062 -126.488983 -9.403769
endloop
endfacet
facet normal 0.000000 -1.000000 0.000071
outer loop
vertex -26.828382 -126.488983 -9.403753
vertex -29.513062 -126.488983 -9.403769
vertex -27.074705 -126.488983 -9.724768
endloop
endfacet
facet normal 0.000000 -1.000000 -0.000022
outer loop
vertex -27.074705 -126.488983 -9.724768
vertex -29.513062 -126.488983 -9.403769
vertex -29.266737 -126.488983 -9.724783
endloop
endfacet
facet normal 0.000000 -1.000000 0.000000
outer loop
vertex -27.074705 -126.488983 -9.724768
vertex -29.266737 -126.488983 -9.724783
vertex -27.395721 -126.488983 -9.971090
endloop
endfacet
facet normal 0.000000 -1.000000 0.000000
outer loop
vertex -27.395721 -126.488983 -9.971090
vertex -29.266737 -126.488983 -9.724783
vertex -28.945721 -126.488983 -9.971106
endloop
endfacet
facet normal 0.000000 -1.000000 0.000000
outer loop
vertex -27.395721 -126.488983 -9.971090
vertex -28.945721 -126.488983 -9.971106
vertex -27.769550 -126.488983 -10.125937
endloop
endfacet
facet normal 0.000000 -1.000000 -0.000123
outer loop
vertex -27.769550 -126.488983 -10.125937
vertex -28.945721 -126.488983 -9.971106
vertex -28.571890 -126.488983 -10.125952
endloop
endfacet
facet normal 0.000000 -1.000000 0.000000
outer loop
vertex -27.769550 -126.488983 -10.125937
vertex -28.571890 -126.488983 -10.125952
vertex -28.170719 -126.488983 -10.178762
endloop
endfacet
facet normal 0.000000 -1.000000 0.000000
outer loop
vertex -35.571907 -126.488983 -3.631933
vertex -35.945736 -126.488983 -3.786779
vertex -35.170738 -126.488983 -3.579123
endloop
endfacet
facet normal 0.000000 -1.000000 0.000061
outer loop
vertex -35.170738 -126.488983 -3.579123
vertex -35.945736 -126.488983 -3.786779
vertex -36.266754 -126.488983 -4.033102
endloop
endfacet
facet normal 0.000000 -1.000000 0.000048
outer loop
vertex -35.170738 -126.488983 -3.579123
vertex -36.266754 -126.488983 -4.033102
vertex -36.513077 -126.488983 -4.354116
endloop
endfacet
facet normal 0.000000 -1.000000 0.000000
outer loop
vertex -36.513077 -126.488983 -4.354116
vertex -36.667923 -126.488983 -4.727957
vertex -35.170738 -126.488983 -3.579123
endloop
endfacet
facet normal 0.000000 -1.000000 0.000000
outer loop
vertex -35.170738 -126.488983 -3.579123
vertex -36.667923 -126.488983 -4.727957
vertex -36.720737 -126.488983 -5.129126
endloop
endfacet
facet normal 0.000000 -1.000000 0.000000
outer loop
vertex -35.170738 -126.488983 -3.579123
vertex -36.720737 -126.488983 -5.129126
vertex -33.620735 -126.488983 -6.679037
endloop
endfacet
facet normal 0.000000 -1.000000 0.000000
outer loop
vertex -33.620735 -126.488983 -6.679037
vertex -36.720737 -126.488983 -5.129126
vertex -36.720737 -126.488983 -8.628759
endloop
endfacet
facet normal 0.000000 -1.000000 0.000000
outer loop
vertex -33.620735 -126.488983 -6.679037
vertex -36.720737 -126.488983 -8.628759
vertex -33.620735 -126.488983 -8.628759
endloop
endfacet
facet normal 0.000000 -1.000000 0.000000
outer loop
vertex -33.620735 -126.488983 -8.628759
vertex -36.720737 -126.488983 -8.628759
vertex -33.673553 -126.488983 -9.029928
endloop
endfacet
facet normal 0.000000 -1.000000 0.000000
outer loop
vertex -33.673553 -126.488983 -9.029928
vertex -36.720737 -126.488983 -8.628759
vertex -36.667923 -126.488983 -9.029928
endloop
endfacet
facet normal 0.000000 -1.000000 -0.000055
outer loop
vertex -33.673553 -126.488983 -9.029928
vertex -36.667923 -126.488983 -9.029928
vertex -33.828396 -126.488983 -9.403753
endloop
endfacet
facet normal 0.000000 -1.000000 0.000008
outer loop
vertex -33.828396 -126.488983 -9.403753
vertex -36.667923 -126.488983 -9.029928
vertex -36.513077 -126.488983 -9.403753
endloop
endfacet
facet normal 0.000000 -1.000000 0.000071
outer loop
vertex -33.828396 -126.488983 -9.403753
vertex -36.513077 -126.488983 -9.403753
vertex -34.074722 -126.488983 -9.724768
endloop
endfacet
facet normal 0.000000 -1.000000 -0.000016
outer loop
vertex -34.074722 -126.488983 -9.724768
vertex -36.513077 -126.488983 -9.403753
vertex -36.266754 -126.488983 -9.724768
endloop
endfacet
facet normal 0.000000 -1.000000 0.000000
outer loop
vertex -34.074722 -126.488983 -9.724768
vertex -36.266754 -126.488983 -9.724768
vertex -34.395737 -126.488983 -9.971090
endloop
endfacet
facet normal 0.000000 -1.000000 -0.000020
outer loop
vertex -34.395737 -126.488983 -9.971090
vertex -36.266754 -126.488983 -9.724768
vertex -35.945736 -126.488983 -9.971090
endloop
endfacet
facet normal 0.000000 -1.000000 0.000000
outer loop
vertex -34.395737 -126.488983 -9.971090
vertex -35.945736 -126.488983 -9.971090
vertex -34.769566 -126.488983 -10.125937
endloop
endfacet
facet normal 0.000000 -1.000000 -0.000061
outer loop
vertex -34.769566 -126.488983 -10.125937
vertex -35.945736 -126.488983 -9.971090
vertex -35.571907 -126.488983 -10.125937
endloop
endfacet
facet normal 0.000000 -1.000000 -0.000180
outer loop
vertex -34.769566 -126.488983 -10.125937
vertex -35.571907 -126.488983 -10.125937
vertex -35.170738 -126.488983 -10.178762
endloop
endfacet
facet normal 0.000000 -1.000000 0.000000
outer loop
vertex -33.620735 -126.488983 -6.679037
vertex -29.720732 -126.488983 -6.678839
vertex -35.170738 -126.488983 -3.579123
endloop
endfacet
facet normal 0.000000 -1.000000 0.000000
outer loop
vertex -26.620737 -126.488983 -5.128759
vertex -26.673552 -126.488983 -4.727591
vertex -28.170715 -126.488983 -3.578756
endloop
endfacet
facet normal 0.000000 -1.000000 0.000030
outer loop
vertex -28.170715 -126.488983 -3.578756
vertex -26.673552 -126.488983 -4.727591
vertex -26.828394 -126.488983 -4.353765
endloop
endfacet
facet normal 0.000000 -1.000000 0.000000
outer loop
vertex -28.170715 -126.488983 -3.578756
vertex -26.828394 -126.488983 -4.353765
vertex -27.074713 -126.488983 -4.032751
endloop
endfacet
facet normal 0.000000 -1.000000 -0.000123
outer loop
vertex -27.074713 -126.488983 -4.032751
vertex -27.395725 -126.488983 -3.786428
vertex -28.170715 -126.488983 -3.578756
endloop
endfacet
facet normal 0.000000 -1.000000 0.000180
outer loop
vertex -28.170715 -126.488983 -3.578756
vertex -27.395725 -126.488983 -3.786428
vertex -27.769550 -126.488983 -3.631582
endloop
endfacet
facet normal -0.997413 0.000000 0.071886
outer loop
vertex -40.756702 -123.993988 0.457209
vertex -42.099846 -123.993988 -18.178762
vertex -40.756702 -127.983986 0.457209
endloop
endfacet
facet normal -0.997413 0.000000 0.071886
outer loop
vertex -40.756702 -127.983986 0.457209
vertex -42.099846 -123.993988 -18.178762
vertex -42.099846 -127.983986 -18.178762
endloop
endfacet
facet normal -0.232865 0.000000 0.972509
outer loop
vertex -31.666674 -123.993988 2.633799
vertex -40.756702 -123.993988 0.457209
vertex -31.666674 -127.983986 2.633799
endloop
endfacet
facet normal -0.232865 0.000000 0.972509
outer loop
vertex -31.666674 -127.983986 2.633799
vertex -40.756702 -123.993988 0.457209
vertex -40.756702 -127.983986 0.457209
endloop
endfacet
facet normal 0.233064 0.000000 0.972461
outer loop
vertex -22.584772 -123.993988 0.457209
vertex -31.666674 -123.993988 2.633799
vertex -22.584772 -127.983986 0.457209
endloop
endfacet
facet normal 0.233061 0.000000 0.972462
outer loop
vertex -22.584772 -127.983986 0.457209
vertex -31.666674 -123.993988 2.633799
vertex -31.666674 -127.983986 2.633799
endloop
endfacet
facet normal 0.997413 0.000000 0.071886
outer loop
vertex -21.241627 -123.993988 -18.178762
vertex -22.584772 -123.993988 0.457209
vertex -21.241627 -127.983986 -18.178762
endloop
endfacet
facet normal 0.997413 0.000000 0.071886
outer loop
vertex -21.241627 -127.983986 -18.178762
vertex -22.584772 -123.993988 0.457209
vertex -22.584772 -127.983986 0.457209
endloop
endfacet
facet normal 0.000000 0.000000 -1.000000
outer loop
vertex -42.099846 -123.993988 -18.178762
vertex -21.241627 -123.993988 -18.178762
vertex -42.099846 -127.983986 -18.178762
endloop
endfacet
facet normal 0.000000 0.000000 -1.000000
outer loop
vertex -42.099846 -127.983986 -18.178762
vertex -21.241627 -123.993988 -18.178762
vertex -21.241627 -127.983986 -18.178762
endloop
endfacet
facet normal 0.000000 -1.000000 0.000000
outer loop
vertex -33.167923 -127.983986 -11.727591
vertex -35.170738 -127.983986 -10.178762
vertex -33.220737 -127.983986 -12.128759
endloop
endfacet
facet normal 0.000000 -1.000000 0.000000
outer loop
vertex -33.220737 -127.983986 -12.128759
vertex -35.170738 -127.983986 -10.178762
vertex -35.571907 -127.983986 -10.125937
endloop
endfacet
facet normal 0.000000 -1.000000 0.000073
outer loop
vertex -33.220737 -127.983986 -12.128759
vertex -35.571907 -127.983986 -10.125937
vertex -33.167923 -127.983986 -12.529928
endloop
endfacet
facet normal 0.000000 -1.000000 -0.000101
outer loop
vertex -33.167923 -127.983986 -12.529928
vertex -35.571907 -127.983986 -10.125937
vertex -35.945736 -127.983986 -9.971090
endloop
endfacet
facet normal 0.000000 -1.000000 0.000000
outer loop
vertex -33.167923 -127.983986 -12.529928
vertex -35.945736 -127.983986 -9.971090
vertex -33.013077 -127.983986 -12.903753
endloop
endfacet
facet normal 0.000000 -1.000000 0.000003
outer loop
vertex -33.013077 -127.983986 -12.903753
vertex -35.945736 -127.983986 -9.971090
vertex -42.099846 -127.983986 -18.178762
endloop
endfacet
facet normal 0.000000 -1.000000 0.000000
outer loop
vertex -33.013077 -127.983986 -12.903753
vertex -42.099846 -127.983986 -18.178762
vertex -32.766754 -127.983986 -13.224768
endloop
endfacet
facet normal 0.000000 -1.000000 0.000000
outer loop
vertex -32.766754 -127.983986 -13.224768
vertex -42.099846 -127.983986 -18.178762
vertex -32.445736 -127.983986 -13.471090
endloop
endfacet
facet normal 0.000000 -1.000000 -0.000075
outer loop
vertex -32.445736 -127.983986 -13.471090
vertex -42.099846 -127.983986 -18.178762
vertex -32.071907 -127.983986 -13.625937
endloop
endfacet
facet normal 0.000000 -1.000000 0.000104
outer loop
vertex -32.071907 -127.983986 -13.625937
vertex -42.099846 -127.983986 -18.178762
vertex -31.670736 -127.983986 -13.678762
endloop
endfacet
facet normal 0.000000 -1.000000 0.000000
outer loop
vertex -31.670736 -127.983986 -13.678762
vertex -42.099846 -127.983986 -18.178762
vertex -21.241627 -127.983986 -18.178762
endloop
endfacet
facet normal 0.000000 -1.000000 0.000104
outer loop
vertex -31.670736 -127.983986 -13.678762
vertex -21.241627 -127.983986 -18.178762
vertex -31.269567 -127.983986 -13.625937
endloop
endfacet
facet normal 0.000000 -1.000000 -0.000075
outer loop
vertex -31.269567 -127.983986 -13.625937
vertex -21.241627 -127.983986 -18.178762
vertex -30.895737 -127.983986 -13.471090
endloop
endfacet
facet normal 0.000000 -1.000000 0.000000
outer loop
vertex -30.895737 -127.983986 -13.471090
vertex -21.241627 -127.983986 -18.178762
vertex -30.574720 -127.983986 -13.224768
endloop
endfacet
facet normal 0.000000 -1.000000 0.000000
outer loop
vertex -30.574720 -127.983986 -13.224768
vertex -21.241627 -127.983986 -18.178762
vertex -30.328398 -127.983986 -12.903753
endloop
endfacet
facet normal 0.000000 -1.000000 0.000003
outer loop
vertex -30.328398 -127.983986 -12.903753
vertex -21.241627 -127.983986 -18.178762
vertex -27.395721 -127.983986 -9.971090
endloop
endfacet
facet normal 0.000000 -1.000000 0.000000
outer loop
vertex -30.328398 -127.983986 -12.903753
vertex -27.395721 -127.983986 -9.971090
vertex -30.173552 -127.983986 -12.529928
endloop
endfacet
facet normal 0.000000 -1.000000 -0.000101
outer loop
vertex -30.173552 -127.983986 -12.529928
vertex -27.395721 -127.983986 -9.971090
vertex -27.769550 -127.983986 -10.125937
endloop
endfacet
facet normal 0.000000 -1.000000 0.000073
outer loop
vertex -30.173552 -127.983986 -12.529928
vertex -27.769550 -127.983986 -10.125937
vertex -30.120737 -127.983986 -12.128759
endloop
endfacet
facet normal 0.000000 -1.000000 0.000000
outer loop
vertex -30.120737 -127.983986 -12.128759
vertex -27.769550 -127.983986 -10.125937
vertex -28.170719 -127.983986 -10.178762
endloop
endfacet
facet normal 0.000000 -1.000000 0.000000
outer loop
vertex -30.120737 -127.983986 -12.128759
vertex -28.170719 -127.983986 -10.178762
vertex -30.173552 -127.983986 -11.727591
endloop
endfacet
facet normal 0.000000 -1.000000 0.000000
outer loop
vertex -30.173552 -127.983986 -11.727591
vertex -28.170719 -127.983986 -10.178762
vertex -28.571890 -127.983986 -10.125952
endloop
endfacet
facet normal 0.000000 -1.000000 -0.000036
outer loop
vertex -30.173552 -127.983986 -11.727591
vertex -28.571890 -127.983986 -10.125952
vertex -30.328398 -127.983986 -11.353765
endloop
endfacet
facet normal 0.000000 -1.000000 0.000010
outer loop
vertex -30.328398 -127.983986 -11.353765
vertex -28.571890 -127.983986 -10.125952
vertex -28.945721 -127.983986 -9.971106
endloop
endfacet
facet normal 0.000000 -1.000000 0.000000
outer loop
vertex -30.328398 -127.983986 -11.353765
vertex -28.945721 -127.983986 -9.971106
vertex -30.574720 -127.983986 -11.032736
endloop
endfacet
facet normal 0.000000 -1.000000 0.000000
outer loop
vertex -30.574720 -127.983986 -11.032736
vertex -28.945721 -127.983986 -9.971106
vertex -29.266737 -127.983986 -9.724783
endloop
endfacet
facet normal 0.000000 -1.000000 0.000000
outer loop
vertex -30.574720 -127.983986 -11.032736
vertex -29.266737 -127.983986 -9.724783
vertex -30.895737 -127.983986 -10.786413
endloop
endfacet
facet normal 0.000000 -1.000000 -0.000019
outer loop
vertex -30.895737 -127.983986 -10.786413
vertex -29.266737 -127.983986 -9.724783
vertex -29.513062 -127.983986 -9.403769
endloop
endfacet
facet normal 0.000000 -1.000000 0.000000
outer loop
vertex -30.895737 -127.983986 -10.786413
vertex -29.513062 -127.983986 -9.403769
vertex -31.269567 -127.983986 -10.631567
endloop
endfacet
facet normal 0.000000 -1.000000 0.000018
outer loop
vertex -31.269567 -127.983986 -10.631567
vertex -29.513062 -127.983986 -9.403769
vertex -29.667910 -127.983986 -9.029928
endloop
endfacet
facet normal 0.000000 -1.000000 0.000000
outer loop
vertex -31.269567 -127.983986 -10.631567
vertex -29.667910 -127.983986 -9.029928
vertex -31.670736 -127.983986 -10.578756
endloop
endfacet
facet normal 0.000000 -1.000000 0.000015
outer loop
vertex -31.670736 -127.983986 -10.578756
vertex -29.667910 -127.983986 -9.029928
vertex -29.720724 -127.983986 -8.628759
endloop
endfacet
facet normal 0.000000 -1.000000 0.000000
outer loop
vertex -31.670736 -127.983986 -10.578756
vertex -29.720724 -127.983986 -8.628759
vertex -33.620735 -127.983986 -8.628759
endloop
endfacet
facet normal 0.000000 -1.000000 0.000000
outer loop
vertex -33.620735 -127.983986 -8.628759
vertex -29.720724 -127.983986 -8.628759
vertex -33.620735 -127.983986 -6.679037
endloop
endfacet
facet normal 0.000000 -1.000000 0.000000
outer loop
vertex -33.620735 -127.983986 -6.679037
vertex -29.720724 -127.983986 -8.628759
vertex -29.720732 -127.983986 -6.678839
endloop
endfacet
facet normal 0.000000 -1.000000 0.000000
outer loop
vertex -35.170738 -127.983986 -10.178762
vertex -33.167923 -127.983986 -11.727591
vertex -34.769566 -127.983986 -10.125937
endloop
endfacet
facet normal 0.000000 -1.000000 -0.000018
outer loop
vertex -34.769566 -127.983986 -10.125937
vertex -33.167923 -127.983986 -11.727591
vertex -33.013077 -127.983986 -11.353765
endloop
endfacet
facet normal 0.000000 -1.000000 0.000000
outer loop
vertex -34.769566 -127.983986 -10.125937
vertex -33.013077 -127.983986 -11.353765
vertex -34.395737 -127.983986 -9.971090
endloop
endfacet
facet normal 0.000000 -1.000000 0.000019
outer loop
vertex -34.395737 -127.983986 -9.971090
vertex -33.013077 -127.983986 -11.353765
vertex -32.766754 -127.983986 -11.032736
endloop
endfacet
facet normal 0.000000 -1.000000 0.000000
outer loop
vertex -34.395737 -127.983986 -9.971090
vertex -32.766754 -127.983986 -11.032736
vertex -34.074722 -127.983986 -9.724768
endloop
endfacet
facet normal 0.000000 -1.000000 0.000000
outer loop
vertex -34.074722 -127.983986 -9.724768
vertex -32.766754 -127.983986 -11.032736
vertex -32.445736 -127.983986 -10.786413
endloop
endfacet
facet normal 0.000000 -1.000000 -0.000039
outer loop
vertex -34.074722 -127.983986 -9.724768
vertex -32.445736 -127.983986 -10.786413
vertex -33.828396 -127.983986 -9.403753
endloop
endfacet
facet normal 0.000000 -1.000000 -0.000010
outer loop
vertex -33.828396 -127.983986 -9.403753
vertex -32.445736 -127.983986 -10.786413
vertex -32.071907 -127.983986 -10.631567
endloop
endfacet
facet normal 0.000000 -1.000000 0.000036
outer loop
vertex -33.828396 -127.983986 -9.403753
vertex -32.071907 -127.983986 -10.631567
vertex -33.673553 -127.983986 -9.029928
endloop
endfacet
facet normal 0.000000 -1.000000 0.000000
outer loop
vertex -33.673553 -127.983986 -9.029928
vertex -32.071907 -127.983986 -10.631567
vertex -31.670736 -127.983986 -10.578756
endloop
endfacet
facet normal 0.000000 -1.000000 0.000000
outer loop
vertex -33.673553 -127.983986 -9.029928
vertex -31.670736 -127.983986 -10.578756
vertex -33.620735 -127.983986 -8.628759
endloop
endfacet
facet normal 0.000000 -1.000000 0.000000
outer loop
vertex -35.170738 -127.983986 -3.578756
vertex -28.170715 -127.983986 -3.578756
vertex -31.666674 -127.983986 2.633799
endloop
endfacet
facet normal 0.000000 -1.000000 -0.000013
outer loop
vertex -31.666674 -127.983986 2.633799
vertex -28.170715 -127.983986 -3.578756
vertex -27.769550 -127.983986 -3.631582
endloop
endfacet
facet normal 0.000000 -1.000000 0.000000
outer loop
vertex -31.666674 -127.983986 2.633799
vertex -27.769550 -127.983986 -3.631582
vertex -22.584772 -127.983986 0.457209
endloop
endfacet
facet normal 0.000000 -1.000000 -0.000003
outer loop
vertex -22.584772 -127.983986 0.457209
vertex -27.769550 -127.983986 -3.631582
vertex -27.395725 -127.983986 -3.786428
endloop
endfacet
facet normal 0.000000 -1.000000 -0.000012
outer loop
vertex -22.584772 -127.983986 0.457209
vertex -27.395725 -127.983986 -3.786428
vertex -27.074713 -127.983986 -4.032751
endloop
endfacet
facet normal 0.000000 -1.000000 0.000000
outer loop
vertex -27.074713 -127.983986 -4.032751
vertex -26.828394 -127.983986 -4.353765
vertex -22.584772 -127.983986 0.457209
endloop
endfacet
facet normal 0.000000 -1.000000 -0.000033
outer loop
vertex -22.584772 -127.983986 0.457209
vertex -26.828394 -127.983986 -4.353765
vertex -26.673552 -127.983986 -4.727591
endloop
endfacet
facet normal 0.000000 -1.000000 0.000009
outer loop
vertex -22.584772 -127.983986 0.457209
vertex -26.673552 -127.983986 -4.727591
vertex -26.620737 -127.983986 -5.128759
endloop
endfacet
facet normal 0.000000 -1.000000 0.000000
outer loop
vertex -26.620737 -127.983986 -5.128759
vertex -26.620726 -127.983986 -8.628759
vertex -22.584772 -127.983986 0.457209
endloop
endfacet
facet normal 0.000000 -1.000000 0.000001
outer loop
vertex -22.584772 -127.983986 0.457209
vertex -26.620726 -127.983986 -8.628759
vertex -21.241627 -127.983986 -18.178762
endloop
endfacet
facet normal 0.000000 -1.000000 -0.000006
outer loop
vertex -21.241627 -127.983986 -18.178762
vertex -26.620726 -127.983986 -8.628759
vertex -26.673538 -127.983986 -9.029928
endloop
endfacet
facet normal 0.000000 -1.000000 -0.000013
outer loop
vertex -21.241627 -127.983986 -18.178762
vertex -26.673538 -127.983986 -9.029928
vertex -26.828382 -127.983986 -9.403753
endloop
endfacet
facet normal 0.000000 -1.000000 0.000031
outer loop
vertex -26.828382 -127.983986 -9.403753
vertex -27.074705 -127.983986 -9.724768
vertex -21.241627 -127.983986 -18.178762
endloop
endfacet
facet normal 0.000000 -1.000000 -0.000022
outer loop
vertex -21.241627 -127.983986 -18.178762
vertex -27.074705 -127.983986 -9.724768
vertex -27.395721 -127.983986 -9.971090
endloop
endfacet
facet normal 0.000000 -1.000000 -0.000029
outer loop
vertex -35.945736 -127.983986 -9.971090
vertex -36.266754 -127.983986 -9.724768
vertex -42.099846 -127.983986 -18.178762
endloop
endfacet
facet normal 0.000000 -1.000000 0.000019
outer loop
vertex -42.099846 -127.983986 -18.178762
vertex -36.266754 -127.983986 -9.724768
vertex -36.513077 -127.983986 -9.403753
endloop
endfacet
facet normal 0.000000 -1.000000 -0.000013
outer loop
vertex -42.099846 -127.983986 -18.178762
vertex -36.513077 -127.983986 -9.403753
vertex -36.667923 -127.983986 -9.029928
endloop
endfacet
facet normal 0.000000 -1.000000 0.000000
outer loop
vertex -36.667923 -127.983986 -9.029928
vertex -36.720737 -127.983986 -8.628759
vertex -42.099846 -127.983986 -18.178762
endloop
endfacet
facet normal 0.000000 -1.000000 0.000001
outer loop
vertex -42.099846 -127.983986 -18.178762
vertex -36.720737 -127.983986 -8.628759
vertex -40.756702 -127.983986 0.457209
endloop
endfacet
facet normal 0.000000 -1.000000 0.000000
outer loop
vertex -40.756702 -127.983986 0.457209
vertex -36.720737 -127.983986 -8.628759
vertex -36.720737 -127.983986 -5.129126
endloop
endfacet
facet normal 0.000000 -1.000000 0.000009
outer loop
vertex -40.756702 -127.983986 0.457209
vertex -36.720737 -127.983986 -5.129126
vertex -36.667923 -127.983986 -4.727957
endloop
endfacet
facet normal 0.000000 -1.000000 -0.000052
outer loop
vertex -36.667923 -127.983986 -4.727957
vertex -36.513077 -127.983986 -4.354116
vertex -40.756702 -127.983986 0.457209
endloop
endfacet
facet normal 0.000000 -1.000000 0.000018
outer loop
vertex -40.756702 -127.983986 0.457209
vertex -36.513077 -127.983986 -4.354116
vertex -36.266754 -127.983986 -4.033102
endloop
endfacet
facet normal 0.000000 -1.000000 -0.000012
outer loop
vertex -40.756702 -127.983986 0.457209
vertex -36.266754 -127.983986 -4.033102
vertex -35.945736 -127.983986 -3.786779
endloop
endfacet
facet normal 0.000000 -1.000000 0.000000
outer loop
vertex -35.945736 -127.983986 -3.786779
vertex -35.571907 -127.983986 -3.631933
vertex -40.756702 -127.983986 0.457209
endloop
endfacet
facet normal 0.000000 -1.000000 -0.000001
outer loop
vertex -40.756702 -127.983986 0.457209
vertex -35.571907 -127.983986 -3.631933
vertex -31.666674 -127.983986 2.633799
endloop
endfacet
facet normal 0.000000 -1.000000 -0.000013
outer loop
vertex -31.666674 -127.983986 2.633799
vertex -35.571907 -127.983986 -3.631933
vertex -35.170738 -127.983986 -3.578756
endloop
endfacet
facet normal 0.000000 -1.000000 0.000000
outer loop
vertex -35.571907 -127.983986 -3.631933
vertex -35.170738 -127.983986 -3.579123
vertex -35.170738 -127.983986 -3.578756
endloop
endfacet
facet normal 0.000000 1.000000 -0.000037
outer loop
vertex -33.167923 -123.993988 -4.727591
vertex -33.220737 -123.993988 -5.128759
vertex -40.756702 -123.993988 0.457209
endloop
endfacet
facet normal 0.000000 1.000000 0.000000
outer loop
vertex -40.756702 -123.993988 0.457209
vertex -33.220737 -123.993988 -5.128759
vertex -33.220737 -123.993988 -8.628759
endloop
endfacet
facet normal 0.000000 1.000000 0.000000
outer loop
vertex -40.756702 -123.993988 0.457209
vertex -33.220737 -123.993988 -8.628759
vertex -42.099846 -123.993988 -18.178762
endloop
endfacet
facet normal 0.000000 1.000000 -0.000014
outer loop
vertex -42.099846 -123.993988 -18.178762
vertex -33.220737 -123.993988 -8.628759
vertex -33.167923 -123.993988 -9.029928
endloop
endfacet
facet normal 0.000000 1.000000 0.000019
outer loop
vertex -42.099846 -123.993988 -18.178762
vertex -33.167923 -123.993988 -9.029928
vertex -33.013077 -123.993988 -9.403753
endloop
endfacet
facet normal 0.000000 1.000000 -0.000048
outer loop
vertex -33.013077 -123.993988 -9.403753
vertex -32.766754 -123.993988 -9.724768
vertex -42.099846 -123.993988 -18.178762
endloop
endfacet
facet normal 0.000000 1.000000 0.000003
outer loop
vertex -42.099846 -123.993988 -18.178762
vertex -32.766754 -123.993988 -9.724768
vertex -32.445736 -123.993988 -9.971090
endloop
endfacet
facet normal 0.000000 1.000000 -0.000002
outer loop
vertex -42.099846 -123.993988 -18.178762
vertex -32.445736 -123.993988 -9.971090
vertex -32.071907 -123.993988 -10.125937
endloop
endfacet
facet normal 0.000000 1.000000 0.000065
outer loop
vertex -32.071907 -123.993988 -10.125937
vertex -31.670736 -123.993988 -10.178762
vertex -42.099846 -123.993988 -18.178762
endloop
endfacet
facet normal 0.000000 1.000000 0.000000
outer loop
vertex -42.099846 -123.993988 -18.178762
vertex -31.670736 -123.993988 -10.178762
vertex -21.241627 -123.993988 -18.178762
endloop
endfacet
facet normal 0.000000 1.000000 0.000049
outer loop
vertex -21.241627 -123.993988 -18.178762
vertex -31.670736 -123.993988 -10.178762
vertex -31.269567 -123.993988 -10.125937
endloop
endfacet
facet normal 0.000000 1.000000 -0.000005
outer loop
vertex -21.241627 -123.993988 -18.178762
vertex -31.269567 -123.993988 -10.125937
vertex -30.895737 -123.993988 -9.971090
endloop
endfacet
facet normal 0.000000 1.000000 0.000000
outer loop
vertex -30.895737 -123.993988 -9.971090
vertex -30.574720 -123.993988 -9.724768
vertex -21.241627 -123.993988 -18.178762
endloop
endfacet
facet normal 0.000000 1.000000 -0.000030
outer loop
vertex -21.241627 -123.993988 -18.178762
vertex -30.574720 -123.993988 -9.724768
vertex -30.328398 -123.993988 -9.403753
endloop
endfacet
facet normal 0.000000 1.000000 0.000019
outer loop
vertex -21.241627 -123.993988 -18.178762
vertex -30.328398 -123.993988 -9.403753
vertex -30.173552 -123.993988 -9.029928
endloop
endfacet
facet normal 0.000000 1.000000 0.000000
outer loop
vertex -30.173552 -123.993988 -9.029928
vertex -30.120737 -123.993988 -8.628759
vertex -21.241627 -123.993988 -18.178762
endloop
endfacet
facet normal 0.000000 1.000000 0.000000
outer loop
vertex -21.241627 -123.993988 -18.178762
vertex -30.120737 -123.993988 -8.628759
vertex -22.584772 -123.993988 0.457209
endloop
endfacet
facet normal 0.000000 1.000000 0.000000
outer loop
vertex -22.584772 -123.993988 0.457209
vertex -30.120737 -123.993988 -8.628759
vertex -30.120737 -123.993988 -5.128759
endloop
endfacet
facet normal 0.000000 1.000000 -0.000020
outer loop
vertex -22.584772 -123.993988 0.457209
vertex -30.120737 -123.993988 -5.128759
vertex -30.173552 -123.993988 -4.727591
endloop
endfacet
facet normal 0.000000 1.000000 0.000000
outer loop
vertex -30.173552 -123.993988 -4.727591
vertex -30.328398 -123.993988 -4.353765
vertex -22.584772 -123.993988 0.457209
endloop
endfacet
facet normal 0.000000 1.000000 0.000008
outer loop
vertex -22.584772 -123.993988 0.457209
vertex -30.328398 -123.993988 -4.353765
vertex -30.574720 -123.993988 -4.032736
endloop
endfacet
facet normal 0.000000 1.000000 -0.000001
outer loop
vertex -22.584772 -123.993988 0.457209
vertex -30.574720 -123.993988 -4.032736
vertex -31.666674 -123.993988 2.633799
endloop
endfacet
facet normal 0.000000 1.000000 0.000000
outer loop
vertex -31.666674 -123.993988 2.633799
vertex -30.574720 -123.993988 -4.032736
vertex -30.895737 -123.993988 -3.786413
endloop
endfacet
facet normal 0.000000 1.000000 0.000003
outer loop
vertex -31.666674 -123.993988 2.633799
vertex -30.895737 -123.993988 -3.786413
vertex -31.269567 -123.993988 -3.631567
endloop
endfacet
facet normal 0.000000 1.000000 -0.000001
outer loop
vertex -31.269567 -123.993988 -3.631567
vertex -31.670736 -123.993988 -3.578756
vertex -31.666674 -123.993988 2.633799
endloop
endfacet
facet normal 0.000000 1.000000 -0.000003
outer loop
vertex -31.666674 -123.993988 2.633799
vertex -31.670736 -123.993988 -3.578756
vertex -32.071907 -123.993988 -3.631567
endloop
endfacet
facet normal 0.000000 1.000000 0.000000
outer loop
vertex -31.666674 -123.993988 2.633799
vertex -32.071907 -123.993988 -3.631567
vertex -32.445736 -123.993988 -3.786413
endloop
endfacet
facet normal 0.000000 1.000000 0.000000
outer loop
vertex -32.445736 -123.993988 -3.786413
vertex -32.766754 -123.993988 -4.032736
vertex -31.666674 -123.993988 2.633799
endloop
endfacet
facet normal 0.000000 1.000000 -0.000002
outer loop
vertex -31.666674 -123.993988 2.633799
vertex -32.766754 -123.993988 -4.032736
vertex -40.756702 -123.993988 0.457209
endloop
endfacet
facet normal 0.000000 1.000000 0.000008
outer loop
vertex -40.756702 -123.993988 0.457209
vertex -32.766754 -123.993988 -4.032736
vertex -33.013077 -123.993988 -4.353765
endloop
endfacet
facet normal 0.000000 1.000000 0.000008
outer loop
vertex -40.756702 -123.993988 0.457209
vertex -33.013077 -123.993988 -4.353765
vertex -33.167923 -123.993988 -4.727591
endloop
endfacet
endsolid ShogiChessCncAndPLA v2.014
