solid ShogiChessCncAndPLA v2.005
facet normal -0.707107 0.000000 -0.707106
outer loop
vertex -194.213608 -125.488983 8.328371
vertex -195.508743 -125.488983 9.623507
vertex -194.213608 -123.993988 8.328371
endloop
endfacet
facet normal -0.707107 0.000000 -0.707106
outer loop
vertex -194.213608 -123.993988 8.328371
vertex -195.508743 -125.488983 9.623507
vertex -195.508743 -123.993988 9.623507
endloop
endfacet
facet normal -0.999999 0.000000 0.001375
outer loop
vertex -195.500870 -123.993988 15.349070
vertex -195.508743 -123.993988 9.623507
vertex -195.500870 -125.488991 15.349070
endloop
endfacet
facet normal -0.999999 0.000000 0.001375
outer loop
vertex -195.500870 -125.488991 15.349070
vertex -195.508743 -123.993988 9.623507
vertex -195.508743 -125.488983 9.623507
endloop
endfacet
facet normal -0.707112 0.000000 0.707101
outer loop
vertex -194.213608 -123.993988 16.636339
vertex -195.500870 -123.993988 15.349070
vertex -194.213608 -125.488991 16.636339
endloop
endfacet
facet normal -0.707107 0.000000 0.707106
outer loop
vertex -194.213608 -125.488991 16.636339
vertex -195.500870 -123.993988 15.349070
vertex -195.500870 -125.488991 15.349070
endloop
endfacet
facet normal 0.707105 0.000000 -0.707108
outer loop
vertex -196.405640 -125.488991 18.828371
vertex -197.710388 -125.488991 17.523615
vertex -196.405640 -123.993988 18.828371
endloop
endfacet
facet normal 0.707110 0.000000 -0.707103
outer loop
vertex -196.405640 -123.993988 18.828371
vertex -197.710388 -125.488991 17.523615
vertex -197.710388 -123.993988 17.523615
endloop
endfacet
facet normal -0.001375 0.000000 -0.999999
outer loop
vertex -200.435364 -123.993988 17.527361
vertex -197.710388 -123.993988 17.523615
vertex -200.435364 -125.488991 17.527361
endloop
endfacet
facet normal -0.001375 0.000000 -0.999999
outer loop
vertex -200.435364 -125.488991 17.527361
vertex -197.710388 -123.993988 17.523615
vertex -197.710388 -125.488991 17.523615
endloop
endfacet
facet normal 0.051106 0.000000 -0.998693
outer loop
vertex -200.679611 -125.488991 17.527704
vertex -200.679611 -123.993988 17.527704
vertex -200.598236 -125.488991 17.531870
endloop
endfacet
facet normal 0.051139 0.000000 -0.998692
outer loop
vertex -200.598236 -125.488991 17.531870
vertex -200.679611 -123.993988 17.527704
vertex -200.598236 -123.993988 17.531870
endloop
endfacet
facet normal -0.001315 0.000000 -0.999999
outer loop
vertex -200.598236 -125.488991 17.531870
vertex -200.598236 -123.993988 17.531870
vertex -200.516739 -125.488991 17.531763
endloop
endfacet
facet normal -0.001315 0.000000 -0.999999
outer loop
vertex -200.516739 -125.488991 17.531763
vertex -200.598236 -123.993988 17.531870
vertex -200.516739 -123.993988 17.531763
endloop
endfacet
facet normal -0.054010 0.000000 -0.998540
outer loop
vertex -200.516739 -125.488991 17.531763
vertex -200.516739 -123.993988 17.531763
vertex -200.435364 -125.488991 17.527361
endloop
endfacet
facet normal -0.054012 0.000000 -0.998540
outer loop
vertex -200.435364 -125.488991 17.527361
vertex -200.516739 -123.993988 17.531763
vertex -200.435364 -123.993988 17.527361
endloop
endfacet
facet normal -0.001374 0.000000 -0.999999
outer loop
vertex -203.416702 -123.993988 17.531466
vertex -200.679611 -123.993988 17.527704
vertex -203.416702 -125.488991 17.531466
endloop
endfacet
facet normal -0.001374 0.000000 -0.999999
outer loop
vertex -203.416702 -125.488991 17.531466
vertex -200.679611 -123.993988 17.527704
vertex -200.679611 -125.488991 17.527704
endloop
endfacet
facet normal 0.000000 1.000000 0.000000
outer loop
vertex -202.056808 -125.488983 12.081186
vertex -205.609619 -125.488983 9.624384
vertex -202.109619 -125.488983 12.482355
endloop
endfacet
facet normal -0.000001 1.000000 0.000000
outer loop
vertex -202.109619 -125.488983 12.482355
vertex -205.609619 -125.488983 9.624384
vertex -205.609619 -125.488991 15.340319
endloop
endfacet
facet normal -0.000002 1.000000 0.000000
outer loop
vertex -202.109619 -125.488983 12.482355
vertex -205.609619 -125.488991 15.340319
vertex -202.056808 -125.488983 12.883524
endloop
endfacet
facet normal 0.000009 1.000000 0.000036
outer loop
vertex -202.056808 -125.488983 12.883524
vertex -205.609619 -125.488991 15.340319
vertex -201.901962 -125.488991 13.257349
endloop
endfacet
facet normal 0.000000 1.000000 0.000036
outer loop
vertex -201.901962 -125.488991 13.257349
vertex -205.609619 -125.488991 15.340319
vertex -201.655640 -125.488991 13.578371
endloop
endfacet
facet normal 0.000000 1.000000 -0.000005
outer loop
vertex -201.655640 -125.488991 13.578371
vertex -205.609619 -125.488991 15.340319
vertex -203.416702 -125.488991 17.531466
endloop
endfacet
facet normal 0.000000 1.000000 0.000000
outer loop
vertex -201.655640 -125.488991 13.578371
vertex -203.416702 -125.488991 17.531466
vertex -201.334625 -125.488991 13.824694
endloop
endfacet
facet normal 0.000000 1.000000 0.000000
outer loop
vertex -201.334625 -125.488991 13.824694
vertex -203.416702 -125.488991 17.531466
vertex -200.679611 -125.488991 17.527704
endloop
endfacet
facet normal 0.000000 1.000000 0.000000
outer loop
vertex -201.334625 -125.488991 13.824694
vertex -200.679611 -125.488991 17.527704
vertex -200.960785 -125.488991 13.979540
endloop
endfacet
facet normal 0.000000 1.000000 0.000004
outer loop
vertex -200.960785 -125.488991 13.979540
vertex -200.679611 -125.488991 17.527704
vertex -200.559616 -125.488991 14.032351
endloop
endfacet
facet normal 0.000000 1.000000 0.000000
outer loop
vertex -200.559616 -125.488991 14.032351
vertex -200.679611 -125.488991 17.527704
vertex -200.598236 -125.488991 17.531870
endloop
endfacet
facet normal 0.000000 1.000000 0.000000
outer loop
vertex -200.559616 -125.488991 14.032351
vertex -200.598236 -125.488991 17.531870
vertex -200.516739 -125.488991 17.531763
endloop
endfacet
facet normal 0.000000 1.000000 0.000000
outer loop
vertex -202.056808 -125.488983 12.081186
vertex -201.901962 -125.488983 11.707354
vertex -205.609619 -125.488983 9.624384
endloop
endfacet
facet normal 0.000000 1.000000 -0.000025
outer loop
vertex -205.609619 -125.488983 9.624384
vertex -201.901962 -125.488983 11.707354
vertex -201.655640 -125.488983 11.386339
endloop
endfacet
facet normal 0.000000 1.000000 0.000005
outer loop
vertex -205.609619 -125.488983 9.624384
vertex -201.655640 -125.488983 11.386339
vertex -203.417587 -125.488983 7.432352
endloop
endfacet
facet normal 0.000000 1.000000 -0.000013
outer loop
vertex -203.417587 -125.488983 7.432352
vertex -201.655640 -125.488983 11.386339
vertex -201.334625 -125.488983 11.140017
endloop
endfacet
facet normal 0.000000 1.000000 0.000003
outer loop
vertex -203.417587 -125.488983 7.432352
vertex -201.334625 -125.488983 11.140017
vertex -200.566422 -125.488983 7.432367
endloop
endfacet
facet normal 0.000000 1.000000 -0.000006
outer loop
vertex -200.566422 -125.488983 7.432367
vertex -201.334625 -125.488983 11.140017
vertex -200.960785 -125.488983 10.985170
endloop
endfacet
facet normal 0.000000 1.000000 0.000000
outer loop
vertex -200.566422 -125.488983 7.432367
vertex -200.960785 -125.488983 10.985170
vertex -200.559616 -125.488983 10.932352
endloop
endfacet
facet normal 0.000000 1.000000 -0.000002
outer loop
vertex -200.158447 -125.488983 10.985170
vertex -200.552795 -125.488983 7.432367
vertex -200.559616 -125.488983 10.932352
endloop
endfacet
facet normal 0.000000 1.000000 -0.000008
outer loop
vertex -200.559616 -125.488983 10.932352
vertex -200.552795 -125.488983 7.432367
vertex -200.557343 -125.488983 7.432352
endloop
endfacet
facet normal 0.000000 1.000000 0.000000
outer loop
vertex -200.559616 -125.488983 10.932352
vertex -200.557343 -125.488983 7.432352
vertex -200.561890 -125.488983 7.432352
endloop
endfacet
facet normal 0.000000 1.000000 0.000000
outer loop
vertex -200.158447 -125.488983 10.985170
vertex -199.784622 -125.488983 11.140017
vertex -200.552795 -125.488983 7.432367
endloop
endfacet
facet normal 0.000000 1.000000 0.000000
outer loop
vertex -200.552795 -125.488983 7.432367
vertex -199.784622 -125.488983 11.140017
vertex -197.701675 -125.488983 7.432383
endloop
endfacet
facet normal 0.000000 1.000000 0.000004
outer loop
vertex -197.701675 -125.488983 7.432383
vertex -199.784622 -125.488983 11.140017
vertex -199.463608 -125.488983 11.386339
endloop
endfacet
facet normal 0.000000 1.000000 0.000000
outer loop
vertex -197.701675 -125.488983 7.432383
vertex -199.463608 -125.488983 11.386339
vertex -195.508743 -125.488983 9.623507
endloop
endfacet
facet normal 0.000000 1.000000 -0.000025
outer loop
vertex -195.508743 -125.488983 9.623507
vertex -199.463608 -125.488983 11.386339
vertex -199.217285 -125.488983 11.707354
endloop
endfacet
facet normal 0.000000 1.000000 0.000004
outer loop
vertex -195.508743 -125.488983 9.623507
vertex -199.217285 -125.488983 11.707354
vertex -199.062439 -125.488983 12.081186
endloop
endfacet
facet normal 0.000000 1.000000 0.000000
outer loop
vertex -199.062439 -125.488983 12.081186
vertex -199.009613 -125.488983 12.482355
vertex -195.508743 -125.488983 9.623507
endloop
endfacet
facet normal 0.000001 1.000000 0.000000
outer loop
vertex -195.508743 -125.488983 9.623507
vertex -199.009613 -125.488983 12.482355
vertex -195.500870 -125.488991 15.349070
endloop
endfacet
facet normal 0.000002 1.000000 0.000022
outer loop
vertex -195.500870 -125.488991 15.349070
vertex -199.009613 -125.488983 12.482355
vertex -199.062439 -125.488983 12.883524
endloop
endfacet
facet normal -0.000009 1.000000 0.000031
outer loop
vertex -195.500870 -125.488991 15.349070
vertex -199.062439 -125.488983 12.883524
vertex -199.217285 -125.488991 13.257349
endloop
endfacet
facet normal 0.000000 1.000000 0.000000
outer loop
vertex -199.217285 -125.488991 13.257349
vertex -199.463608 -125.488991 13.578371
vertex -195.500870 -125.488991 15.349070
endloop
endfacet
facet normal 0.000000 1.000000 0.000000
outer loop
vertex -195.500870 -125.488991 15.349070
vertex -199.463608 -125.488991 13.578371
vertex -197.710388 -125.488991 17.523615
endloop
endfacet
facet normal 0.000000 1.000000 0.000005
outer loop
vertex -195.500870 -125.488991 15.349070
vertex -197.710388 -125.488991 17.523615
vertex -196.405640 -125.488991 18.828371
endloop
endfacet
facet normal 0.000000 1.000000 -0.000036
outer loop
vertex -199.463608 -125.488991 13.578371
vertex -199.784622 -125.488991 13.824694
vertex -197.710388 -125.488991 17.523615
endloop
endfacet
facet normal 0.000000 1.000000 0.000003
outer loop
vertex -197.710388 -125.488991 17.523615
vertex -199.784622 -125.488991 13.824694
vertex -200.435364 -125.488991 17.527361
endloop
endfacet
facet normal 0.000000 1.000000 0.000000
outer loop
vertex -200.435364 -125.488991 17.527361
vertex -199.784622 -125.488991 13.824694
vertex -200.158447 -125.488991 13.979540
endloop
endfacet
facet normal 0.000000 1.000000 0.000000
outer loop
vertex -200.435364 -125.488991 17.527361
vertex -200.158447 -125.488991 13.979540
vertex -200.559616 -125.488991 14.032351
endloop
endfacet
facet normal 0.000000 1.000000 0.000005
outer loop
vertex -194.213608 -125.488983 8.328371
vertex -196.405640 -125.488983 6.136339
vertex -195.508743 -125.488983 9.623507
endloop
endfacet
facet normal 0.000000 1.000000 -0.000005
outer loop
vertex -195.508743 -125.488983 9.623507
vertex -196.405640 -125.488983 6.136339
vertex -197.701675 -125.488983 7.432383
endloop
endfacet
facet normal 0.000000 1.000000 0.000000
outer loop
vertex -200.561890 -125.488983 7.432352
vertex -200.566422 -125.488983 7.432367
vertex -200.559616 -125.488983 10.932352
endloop
endfacet
facet normal 0.000000 1.000000 -0.000003
outer loop
vertex -203.417587 -125.488983 7.432352
vertex -204.713608 -125.488983 6.136339
vertex -205.609619 -125.488983 9.624384
endloop
endfacet
facet normal 0.000000 1.000000 0.000000
outer loop
vertex -205.609619 -125.488983 9.624384
vertex -204.713608 -125.488983 6.136339
vertex -206.905640 -125.488983 8.328371
endloop
endfacet
facet normal 0.000000 1.000000 0.000000
outer loop
vertex -206.905640 -125.488991 16.636339
vertex -204.713608 -125.488991 18.828371
vertex -205.609619 -125.488991 15.340319
endloop
endfacet
facet normal 0.000000 1.000000 0.000000
outer loop
vertex -205.609619 -125.488991 15.340319
vertex -204.713608 -125.488991 18.828371
vertex -203.416702 -125.488991 17.531466
endloop
endfacet
facet normal 0.000000 1.000000 0.000000
outer loop
vertex -200.516739 -125.488991 17.531763
vertex -200.435364 -125.488991 17.527361
vertex -200.559616 -125.488991 14.032351
endloop
endfacet
facet normal 0.000000 1.000000 0.000000
outer loop
vertex -196.405640 -125.488991 18.828371
vertex -194.213608 -125.488991 16.636339
vertex -195.500870 -125.488991 15.349070
endloop
endfacet
facet normal -0.707107 0.000000 -0.707106
outer loop
vertex -204.713608 -123.993988 18.828371
vertex -203.416702 -123.993988 17.531466
vertex -204.713608 -125.488991 18.828371
endloop
endfacet
facet normal -0.707107 0.000000 -0.707106
outer loop
vertex -204.713608 -125.488991 18.828371
vertex -203.416702 -123.993988 17.531466
vertex -203.416702 -125.488991 17.531466
endloop
endfacet
facet normal -0.991446 0.000000 -0.130516
outer loop
vertex -202.056808 -123.993988 12.081186
vertex -202.056808 -125.488983 12.081186
vertex -202.109619 -123.993988 12.482355
endloop
endfacet
facet normal -0.991446 0.000000 -0.130516
outer loop
vertex -202.109619 -123.993988 12.482355
vertex -202.056808 -125.488983 12.081186
vertex -202.109619 -125.488983 12.482355
endloop
endfacet
facet normal -0.991446 0.000000 0.130517
outer loop
vertex -202.109619 -123.993988 12.482355
vertex -202.109619 -125.488983 12.482355
vertex -202.056808 -123.993988 12.883524
endloop
endfacet
facet normal -0.991446 0.000000 0.130516
outer loop
vertex -202.056808 -123.993988 12.883524
vertex -202.109619 -125.488983 12.482355
vertex -202.056808 -125.488983 12.883524
endloop
endfacet
facet normal -0.923877 0.000000 0.382689
outer loop
vertex -202.056808 -123.993988 12.883524
vertex -202.056808 -125.488983 12.883524
vertex -201.901962 -123.993988 13.257349
endloop
endfacet
facet normal -0.923877 0.000000 0.382690
outer loop
vertex -201.901962 -123.993988 13.257349
vertex -202.056808 -125.488983 12.883524
vertex -201.901962 -125.488991 13.257349
endloop
endfacet
facet normal -0.793366 0.000000 0.608745
outer loop
vertex -201.901962 -123.993988 13.257349
vertex -201.901962 -125.488991 13.257349
vertex -201.655640 -123.993988 13.578371
endloop
endfacet
facet normal -0.793358 0.000000 0.608756
outer loop
vertex -201.655640 -123.993988 13.578371
vertex -201.901962 -125.488991 13.257349
vertex -201.655640 -125.488991 13.578371
endloop
endfacet
facet normal -0.608764 0.000000 0.793351
outer loop
vertex -201.655640 -123.993988 13.578371
vertex -201.655640 -125.488991 13.578371
vertex -201.334625 -123.993988 13.824694
endloop
endfacet
facet normal -0.608756 0.000000 0.793358
outer loop
vertex -201.334625 -123.993988 13.824694
vertex -201.655640 -125.488991 13.578371
vertex -201.334625 -125.488991 13.824694
endloop
endfacet
facet normal -0.382676 0.000000 0.923883
outer loop
vertex -201.334625 -123.993988 13.824694
vertex -201.334625 -125.488991 13.824694
vertex -200.960785 -123.993988 13.979540
endloop
endfacet
facet normal -0.382676 0.000000 0.923883
outer loop
vertex -200.960785 -123.993988 13.979540
vertex -201.334625 -125.488991 13.824694
vertex -200.960785 -125.488991 13.979540
endloop
endfacet
facet normal -0.130517 0.000000 0.991446
outer loop
vertex -200.960785 -123.993988 13.979540
vertex -200.960785 -125.488991 13.979540
vertex -200.559616 -123.993988 14.032351
endloop
endfacet
facet normal -0.130517 0.000000 0.991446
outer loop
vertex -200.559616 -123.993988 14.032351
vertex -200.960785 -125.488991 13.979540
vertex -200.559616 -125.488991 14.032351
endloop
endfacet
facet normal 0.130517 0.000000 0.991446
outer loop
vertex -200.559616 -123.993988 14.032351
vertex -200.559616 -125.488991 14.032351
vertex -200.158447 -123.993988 13.979540
endloop
endfacet
facet normal 0.130517 0.000000 0.991446
outer loop
vertex -200.158447 -123.993988 13.979540
vertex -200.559616 -125.488991 14.032351
vertex -200.158447 -125.488991 13.979540
endloop
endfacet
facet normal 0.382689 0.000000 0.923877
outer loop
vertex -200.158447 -123.993988 13.979540
vertex -200.158447 -125.488991 13.979540
vertex -199.784622 -123.993988 13.824694
endloop
endfacet
facet normal 0.382689 0.000000 0.923877
outer loop
vertex -199.784622 -123.993988 13.824694
vertex -200.158447 -125.488991 13.979540
vertex -199.784622 -125.488991 13.824694
endloop
endfacet
facet normal 0.608768 0.000000 0.793348
outer loop
vertex -199.784622 -123.993988 13.824694
vertex -199.784622 -125.488991 13.824694
vertex -199.463608 -123.993988 13.578371
endloop
endfacet
facet normal 0.608752 0.000000 0.793361
outer loop
vertex -199.463608 -123.993988 13.578371
vertex -199.784622 -125.488991 13.824694
vertex -199.463608 -125.488991 13.578371
endloop
endfacet
facet normal 0.793364 0.000000 0.608748
outer loop
vertex -199.463608 -123.993988 13.578371
vertex -199.463608 -125.488991 13.578371
vertex -199.217285 -123.993988 13.257349
endloop
endfacet
facet normal 0.793360 0.000000 0.608753
outer loop
vertex -199.217285 -123.993988 13.257349
vertex -199.463608 -125.488991 13.578371
vertex -199.217285 -125.488991 13.257349
endloop
endfacet
facet normal 0.923877 0.000000 0.382689
outer loop
vertex -199.217285 -123.993988 13.257349
vertex -199.217285 -125.488991 13.257349
vertex -199.062439 -123.993988 12.883524
endloop
endfacet
facet normal 0.923877 0.000000 0.382690
outer loop
vertex -199.062439 -123.993988 12.883524
vertex -199.217285 -125.488991 13.257349
vertex -199.062439 -125.488983 12.883524
endloop
endfacet
facet normal 0.991441 0.000000 0.130553
outer loop
vertex -199.062439 -123.993988 12.883524
vertex -199.062439 -125.488983 12.883524
vertex -199.009613 -123.993988 12.482355
endloop
endfacet
facet normal 0.991441 0.000000 0.130554
outer loop
vertex -199.009613 -123.993988 12.482355
vertex -199.062439 -125.488983 12.883524
vertex -199.009613 -125.488983 12.482355
endloop
endfacet
facet normal 0.991441 0.000000 -0.130553
outer loop
vertex -199.009613 -123.993988 12.482355
vertex -199.009613 -125.488983 12.482355
vertex -199.062439 -123.993988 12.081186
endloop
endfacet
facet normal 0.991441 0.000000 -0.130553
outer loop
vertex -199.062439 -123.993988 12.081186
vertex -199.009613 -125.488983 12.482355
vertex -199.062439 -125.488983 12.081186
endloop
endfacet
facet normal 0.923879 0.000000 -0.382685
outer loop
vertex -199.062439 -123.993988 12.081186
vertex -199.062439 -125.488983 12.081186
vertex -199.217285 -123.993988 11.707354
endloop
endfacet
facet normal 0.923880 0.000000 -0.382682
outer loop
vertex -199.217285 -123.993988 11.707354
vertex -199.062439 -125.488983 12.081186
vertex -199.217285 -125.488983 11.707354
endloop
endfacet
facet normal 0.793354 0.000000 -0.608760
outer loop
vertex -199.217285 -123.993988 11.707354
vertex -199.217285 -125.488983 11.707354
vertex -199.463608 -123.993988 11.386339
endloop
endfacet
facet normal 0.793354 0.000000 -0.608761
outer loop
vertex -199.463608 -123.993988 11.386339
vertex -199.217285 -125.488983 11.707354
vertex -199.463608 -125.488983 11.386339
endloop
endfacet
facet normal 0.608764 0.000000 -0.793351
outer loop
vertex -199.463608 -123.993988 11.386339
vertex -199.463608 -125.488983 11.386339
vertex -199.784622 -123.993988 11.140017
endloop
endfacet
facet normal 0.608758 0.000000 -0.793356
outer loop
vertex -199.784622 -123.993988 11.140017
vertex -199.463608 -125.488983 11.386339
vertex -199.784622 -125.488983 11.140017
endloop
endfacet
facet normal 0.382689 0.000000 -0.923877
outer loop
vertex -199.784622 -123.993988 11.140017
vertex -199.784622 -125.488983 11.140017
vertex -200.158447 -123.993988 10.985170
endloop
endfacet
facet normal 0.382694 0.000000 -0.923875
outer loop
vertex -200.158447 -123.993988 10.985170
vertex -199.784622 -125.488983 11.140017
vertex -200.158447 -125.488983 10.985170
endloop
endfacet
facet normal 0.130530 0.000000 -0.991444
outer loop
vertex -200.158447 -123.993988 10.985170
vertex -200.158447 -125.488983 10.985170
vertex -200.559616 -123.993988 10.932352
endloop
endfacet
facet normal 0.130538 0.000000 -0.991443
outer loop
vertex -200.559616 -123.993988 10.932352
vertex -200.158447 -125.488983 10.985170
vertex -200.559616 -125.488983 10.932352
endloop
endfacet
facet normal -0.130536 0.000000 -0.991444
outer loop
vertex -200.559616 -123.993988 10.932352
vertex -200.559616 -125.488983 10.932352
vertex -200.960785 -123.993988 10.985170
endloop
endfacet
facet normal -0.130532 0.000000 -0.991444
outer loop
vertex -200.960785 -123.993988 10.985170
vertex -200.559616 -125.488983 10.932352
vertex -200.960785 -125.488983 10.985170
endloop
endfacet
facet normal -0.382676 0.000000 -0.923883
outer loop
vertex -200.960785 -123.993988 10.985170
vertex -200.960785 -125.488983 10.985170
vertex -201.334625 -123.993988 11.140017
endloop
endfacet
facet normal -0.382680 0.000000 -0.923881
outer loop
vertex -201.334625 -123.993988 11.140017
vertex -200.960785 -125.488983 10.985170
vertex -201.334625 -125.488983 11.140017
endloop
endfacet
facet normal -0.608764 0.000000 -0.793351
outer loop
vertex -201.334625 -123.993988 11.140017
vertex -201.334625 -125.488983 11.140017
vertex -201.655640 -123.993988 11.386339
endloop
endfacet
facet normal -0.608758 0.000000 -0.793356
outer loop
vertex -201.655640 -123.993988 11.386339
vertex -201.334625 -125.488983 11.140017
vertex -201.655640 -125.488983 11.386339
endloop
endfacet
facet normal -0.793357 0.000000 -0.608757
outer loop
vertex -201.655640 -123.993988 11.386339
vertex -201.655640 -125.488983 11.386339
vertex -201.901962 -123.993988 11.707354
endloop
endfacet
facet normal -0.793351 0.000000 -0.608764
outer loop
vertex -201.901962 -123.993988 11.707354
vertex -201.655640 -125.488983 11.386339
vertex -201.901962 -125.488983 11.707354
endloop
endfacet
facet normal -0.923880 0.000000 -0.382682
outer loop
vertex -201.901962 -123.993988 11.707354
vertex -201.901962 -125.488983 11.707354
vertex -202.056808 -123.993988 12.081186
endloop
endfacet
facet normal -0.923879 0.000000 -0.382685
outer loop
vertex -202.056808 -123.993988 12.081186
vertex -201.901962 -125.488983 11.707354
vertex -202.056808 -125.488983 12.081186
endloop
endfacet
facet normal 0.707105 0.000000 0.707109
outer loop
vertex -196.405640 -123.993988 6.136339
vertex -197.701675 -123.993988 7.432383
vertex -196.405640 -125.488983 6.136339
endloop
endfacet
facet normal 0.707110 0.000000 0.707104
outer loop
vertex -196.405640 -125.488983 6.136339
vertex -197.701675 -123.993988 7.432383
vertex -197.701675 -125.488983 7.432383
endloop
endfacet
facet normal -0.000005 0.000000 1.000000
outer loop
vertex -197.701675 -123.993988 7.432383
vertex -200.552795 -123.993988 7.432367
vertex -197.701675 -125.488983 7.432383
endloop
endfacet
facet normal -0.000005 0.000000 1.000000
outer loop
vertex -197.701675 -125.488983 7.432383
vertex -200.552795 -123.993988 7.432367
vertex -200.552795 -125.488983 7.432367
endloop
endfacet
facet normal -0.003367 0.000000 0.999994
outer loop
vertex -200.552795 -125.488983 7.432367
vertex -200.552795 -123.993988 7.432367
vertex -200.557343 -125.488983 7.432352
endloop
endfacet
facet normal -0.003367 0.000000 0.999994
outer loop
vertex -200.557343 -125.488983 7.432352
vertex -200.552795 -123.993988 7.432367
vertex -200.557343 -123.993988 7.432352
endloop
endfacet
facet normal 0.000000 0.000000 1.000000
outer loop
vertex -200.557343 -125.488983 7.432352
vertex -200.557343 -123.993988 7.432352
vertex -200.561890 -125.488983 7.432352
endloop
endfacet
facet normal 0.000000 0.000000 1.000000
outer loop
vertex -200.561890 -125.488983 7.432352
vertex -200.557343 -123.993988 7.432352
vertex -200.561890 -123.993988 7.432352
endloop
endfacet
facet normal 0.003378 0.000000 0.999994
outer loop
vertex -200.561890 -125.488983 7.432352
vertex -200.561890 -123.993988 7.432352
vertex -200.566422 -125.488983 7.432367
endloop
endfacet
facet normal 0.003378 0.000000 0.999994
outer loop
vertex -200.566422 -125.488983 7.432367
vertex -200.561890 -123.993988 7.432352
vertex -200.566422 -123.993988 7.432367
endloop
endfacet
facet normal -0.000005 0.000000 1.000000
outer loop
vertex -200.566422 -123.993988 7.432367
vertex -203.417587 -123.993988 7.432352
vertex -200.566422 -125.488983 7.432367
endloop
endfacet
facet normal -0.000005 0.000000 1.000000
outer loop
vertex -200.566422 -125.488983 7.432367
vertex -203.417587 -123.993988 7.432352
vertex -203.417587 -125.488983 7.432352
endloop
endfacet
facet normal -0.707102 0.000000 0.707112
outer loop
vertex -203.417587 -123.993988 7.432352
vertex -204.713608 -123.993988 6.136339
vertex -203.417587 -125.488983 7.432352
endloop
endfacet
facet normal -0.707107 0.000000 0.707106
outer loop
vertex -203.417587 -125.488983 7.432352
vertex -204.713608 -123.993988 6.136339
vertex -204.713608 -125.488983 6.136339
endloop
endfacet
facet normal 0.707102 0.000000 -0.707112
outer loop
vertex -206.905640 -123.993988 8.328371
vertex -205.609619 -123.993988 9.624384
vertex -206.905640 -125.488983 8.328371
endloop
endfacet
facet normal 0.707107 0.000000 -0.707106
outer loop
vertex -206.905640 -125.488983 8.328371
vertex -205.609619 -123.993988 9.624384
vertex -205.609619 -125.488983 9.624384
endloop
endfacet
facet normal 1.000000 0.000000 0.000000
outer loop
vertex -205.609619 -123.993988 9.624384
vertex -205.609619 -123.993988 15.340319
vertex -205.609619 -125.488983 9.624384
endloop
endfacet
facet normal 1.000000 0.000000 0.000000
outer loop
vertex -205.609619 -125.488983 9.624384
vertex -205.609619 -123.993988 15.340319
vertex -205.609619 -125.488991 15.340319
endloop
endfacet
facet normal 0.707105 0.000000 0.707108
outer loop
vertex -205.609619 -123.993988 15.340319
vertex -206.905640 -123.993988 16.636339
vertex -205.609619 -125.488991 15.340319
endloop
endfacet
facet normal 0.707105 0.000000 0.707108
outer loop
vertex -205.609619 -125.488991 15.340319
vertex -206.905640 -123.993988 16.636339
vertex -206.905640 -125.488991 16.636339
endloop
endfacet
facet normal 0.707110 0.000000 -0.707103
outer loop
vertex -196.405640 -123.993988 6.136339
vertex -196.405640 -125.488983 6.136339
vertex -197.059616 -123.993988 5.482355
endloop
endfacet
facet normal 0.707111 0.000000 -0.707103
outer loop
vertex -197.059616 -123.993988 5.482355
vertex -196.405640 -125.488983 6.136339
vertex -196.405640 -126.488983 6.136339
endloop
endfacet
facet normal 0.707111 0.000000 -0.707102
outer loop
vertex -197.059616 -123.993988 5.482355
vertex -196.405640 -126.488983 6.136339
vertex -197.059616 -127.983986 5.482355
endloop
endfacet
facet normal 0.707113 0.000000 -0.707101
outer loop
vertex -197.059616 -127.983986 5.482355
vertex -196.405640 -126.488983 6.136339
vertex -196.405640 -127.983986 6.136339
endloop
endfacet
facet normal 0.707099 0.000000 -0.707114
outer loop
vertex -196.405640 -125.488983 6.136339
vertex -194.213608 -125.488983 8.328371
vertex -196.405640 -126.488983 6.136339
endloop
endfacet
facet normal 0.707109 0.000000 -0.707104
outer loop
vertex -196.405640 -126.488983 6.136339
vertex -194.213608 -125.488983 8.328371
vertex -194.213608 -126.488983 8.328371
endloop
endfacet
facet normal 0.707103 0.000000 -0.707111
outer loop
vertex -194.213608 -126.488983 8.328371
vertex -194.213608 -125.488983 8.328371
vertex -193.559616 -123.993988 8.982355
endloop
endfacet
facet normal 0.707103 0.000000 -0.707111
outer loop
vertex -194.213608 -126.488983 8.328371
vertex -193.559616 -123.993988 8.982355
vertex -193.559616 -127.983986 8.982355
endloop
endfacet
facet normal 0.707105 0.000000 -0.707108
outer loop
vertex -194.213608 -125.488983 8.328371
vertex -194.213608 -123.993988 8.328371
vertex -193.559616 -123.993988 8.982355
endloop
endfacet
facet normal 0.707102 0.000000 -0.707112
outer loop
vertex -193.559616 -127.983986 8.982355
vertex -194.213608 -127.983986 8.328371
vertex -194.213608 -126.488983 8.328371
endloop
endfacet
facet normal 0.707107 0.000000 0.707107
outer loop
vertex -194.213608 -123.993988 16.636339
vertex -194.213608 -125.488991 16.636339
vertex -193.559616 -123.993988 15.982355
endloop
endfacet
facet normal 0.707101 0.000000 0.707113
outer loop
vertex -193.559616 -123.993988 15.982355
vertex -194.213608 -125.488991 16.636339
vertex -194.213608 -126.488991 16.636339
endloop
endfacet
facet normal 0.707102 0.000000 0.707111
outer loop
vertex -193.559616 -123.993988 15.982355
vertex -194.213608 -126.488991 16.636339
vertex -193.559616 -127.983986 15.982355
endloop
endfacet
facet normal 0.707105 0.000000 0.707108
outer loop
vertex -193.559616 -127.983986 15.982355
vertex -194.213608 -126.488991 16.636339
vertex -194.213608 -127.983986 16.636339
endloop
endfacet
facet normal 0.707109 0.000000 0.707104
outer loop
vertex -194.213608 -125.488991 16.636339
vertex -196.405640 -125.488991 18.828371
vertex -194.213608 -126.488991 16.636339
endloop
endfacet
facet normal 0.707109 0.000000 0.707104
outer loop
vertex -194.213608 -126.488991 16.636339
vertex -196.405640 -125.488991 18.828371
vertex -196.405640 -126.488991 18.828371
endloop
endfacet
facet normal 0.707111 0.000000 0.707103
outer loop
vertex -196.405640 -126.488991 18.828371
vertex -196.405640 -125.488991 18.828371
vertex -197.059616 -123.993988 19.482355
endloop
endfacet
facet normal 0.707113 0.000000 0.707101
outer loop
vertex -196.405640 -126.488991 18.828371
vertex -197.059616 -123.993988 19.482355
vertex -197.059616 -127.983986 19.482355
endloop
endfacet
facet normal 0.707112 0.000000 0.707101
outer loop
vertex -196.405640 -125.488991 18.828371
vertex -196.405640 -123.993988 18.828371
vertex -197.059616 -123.993988 19.482355
endloop
endfacet
facet normal 0.707111 0.000000 0.707103
outer loop
vertex -197.059616 -127.983986 19.482355
vertex -196.405640 -127.983986 18.828371
vertex -196.405640 -126.488991 18.828371
endloop
endfacet
facet normal 0.000000 1.000000 0.000000
outer loop
vertex -197.710388 -123.993988 17.523615
vertex -200.435364 -123.993988 17.527361
vertex -196.405640 -123.993988 18.828371
endloop
endfacet
facet normal 0.000000 1.000000 0.000015
outer loop
vertex -196.405640 -123.993988 18.828371
vertex -200.435364 -123.993988 17.527361
vertex -200.516739 -123.993988 17.531763
endloop
endfacet
facet normal 0.000000 1.000000 0.000036
outer loop
vertex -196.405640 -123.993988 18.828371
vertex -200.516739 -123.993988 17.531763
vertex -200.598236 -123.993988 17.531870
endloop
endfacet
facet normal 0.000000 1.000000 -0.000006
outer loop
vertex -196.405640 -123.993988 18.828371
vertex -200.598236 -123.993988 17.531870
vertex -204.713608 -123.993988 18.828371
endloop
endfacet
facet normal 0.000000 1.000000 0.000016
outer loop
vertex -204.713608 -123.993988 18.828371
vertex -200.598236 -123.993988 17.531870
vertex -200.679611 -123.993988 17.527704
endloop
endfacet
facet normal 0.000000 1.000000 -0.000017
outer loop
vertex -204.713608 -123.993988 18.828371
vertex -200.679611 -123.993988 17.527704
vertex -203.416702 -123.993988 17.531466
endloop
endfacet
facet normal 0.000000 1.000000 0.000000
outer loop
vertex -204.059616 -123.993988 19.482355
vertex -197.059616 -123.993988 19.482355
vertex -204.713608 -123.993988 18.828371
endloop
endfacet
facet normal 0.000000 1.000000 0.000014
outer loop
vertex -204.713608 -123.993988 18.828371
vertex -197.059616 -123.993988 19.482355
vertex -196.405640 -123.993988 18.828371
endloop
endfacet
facet normal 0.000000 1.000000 0.000000
outer loop
vertex -195.508743 -123.993988 9.623507
vertex -195.500870 -123.993988 15.349070
vertex -194.213608 -123.993988 8.328371
endloop
endfacet
facet normal 0.000000 1.000000 0.000000
outer loop
vertex -194.213608 -123.993988 8.328371
vertex -195.500870 -123.993988 15.349070
vertex -194.213608 -123.993988 16.636339
endloop
endfacet
facet normal 0.000000 1.000000 0.000000
outer loop
vertex -194.213608 -123.993988 8.328371
vertex -194.213608 -123.993988 16.636339
vertex -193.559616 -123.993988 8.982355
endloop
endfacet
facet normal 0.000000 1.000000 0.000000
outer loop
vertex -193.559616 -123.993988 8.982355
vertex -194.213608 -123.993988 16.636339
vertex -193.559616 -123.993988 15.982355
endloop
endfacet
facet normal 0.000000 1.000000 0.000000
outer loop
vertex -205.609619 -123.993988 9.624384
vertex -206.905640 -123.993988 8.328371
vertex -205.609619 -123.993988 15.340319
endloop
endfacet
facet normal 0.000000 1.000000 0.000000
outer loop
vertex -205.609619 -123.993988 15.340319
vertex -206.905640 -123.993988 8.328371
vertex -206.905640 -123.993988 16.636339
endloop
endfacet
facet normal 0.000000 1.000000 0.000000
outer loop
vertex -206.905640 -123.993988 16.636339
vertex -206.905640 -123.993988 8.328371
vertex -207.559616 -123.993988 8.982355
endloop
endfacet
facet normal 0.000000 1.000000 0.000000
outer loop
vertex -206.905640 -123.993988 16.636339
vertex -207.559616 -123.993988 8.982355
vertex -207.559616 -123.993988 15.982355
endloop
endfacet
facet normal 0.000000 1.000000 0.000000
outer loop
vertex -202.056808 -123.993988 12.883524
vertex -199.062439 -123.993988 12.883524
vertex -202.109619 -123.993988 12.482355
endloop
endfacet
facet normal 0.000000 1.000000 0.000029
outer loop
vertex -202.109619 -123.993988 12.482355
vertex -199.062439 -123.993988 12.883524
vertex -199.009613 -123.993988 12.482355
endloop
endfacet
facet normal 0.000000 1.000000 -0.000049
outer loop
vertex -202.109619 -123.993988 12.482355
vertex -199.009613 -123.993988 12.482355
vertex -202.056808 -123.993988 12.081186
endloop
endfacet
facet normal 0.000000 1.000000 0.000021
outer loop
vertex -202.056808 -123.993988 12.081186
vertex -199.009613 -123.993988 12.482355
vertex -199.062439 -123.993988 12.081186
endloop
endfacet
facet normal 0.000000 1.000000 -0.000055
outer loop
vertex -202.056808 -123.993988 12.081186
vertex -199.062439 -123.993988 12.081186
vertex -201.901962 -123.993988 11.707354
endloop
endfacet
facet normal 0.000000 1.000000 0.000030
outer loop
vertex -201.901962 -123.993988 11.707354
vertex -199.062439 -123.993988 12.081186
vertex -199.217285 -123.993988 11.707354
endloop
endfacet
facet normal 0.000000 1.000000 0.000000
outer loop
vertex -201.901962 -123.993988 11.707354
vertex -199.217285 -123.993988 11.707354
vertex -201.655640 -123.993988 11.386339
endloop
endfacet
facet normal 0.000000 1.000000 0.000043
outer loop
vertex -201.655640 -123.993988 11.386339
vertex -199.217285 -123.993988 11.707354
vertex -199.463608 -123.993988 11.386339
endloop
endfacet
facet normal 0.000000 1.000000 -0.000057
outer loop
vertex -201.655640 -123.993988 11.386339
vertex -199.463608 -123.993988 11.386339
vertex -201.334625 -123.993988 11.140017
endloop
endfacet
facet normal 0.000000 1.000000 0.000040
outer loop
vertex -201.334625 -123.993988 11.140017
vertex -199.463608 -123.993988 11.386339
vertex -199.784622 -123.993988 11.140017
endloop
endfacet
facet normal 0.000000 1.000000 -0.000127
outer loop
vertex -201.334625 -123.993988 11.140017
vertex -199.784622 -123.993988 11.140017
vertex -200.960785 -123.993988 10.985170
endloop
endfacet
facet normal 0.000000 1.000000 0.000061
outer loop
vertex -200.960785 -123.993988 10.985170
vertex -199.784622 -123.993988 11.140017
vertex -200.158447 -123.993988 10.985170
endloop
endfacet
facet normal 0.000000 1.000000 0.000000
outer loop
vertex -200.960785 -123.993988 10.985170
vertex -200.158447 -123.993988 10.985170
vertex -200.559616 -123.993988 10.932352
endloop
endfacet
facet normal 0.000000 1.000000 0.000055
outer loop
vertex -199.062439 -123.993988 12.883524
vertex -202.056808 -123.993988 12.883524
vertex -199.217285 -123.993988 13.257349
endloop
endfacet
facet normal 0.000000 1.000000 -0.000030
outer loop
vertex -199.217285 -123.993988 13.257349
vertex -202.056808 -123.993988 12.883524
vertex -201.901962 -123.993988 13.257349
endloop
endfacet
facet normal 0.000000 1.000000 0.000000
outer loop
vertex -199.217285 -123.993988 13.257349
vertex -201.901962 -123.993988 13.257349
vertex -199.463608 -123.993988 13.578371
endloop
endfacet
facet normal 0.000000 1.000000 -0.000043
outer loop
vertex -199.463608 -123.993988 13.578371
vertex -201.901962 -123.993988 13.257349
vertex -201.655640 -123.993988 13.578371
endloop
endfacet
facet normal 0.000000 1.000000 0.000057
outer loop
vertex -199.463608 -123.993988 13.578371
vertex -201.655640 -123.993988 13.578371
vertex -199.784622 -123.993988 13.824694
endloop
endfacet
facet normal 0.000000 1.000000 -0.000040
outer loop
vertex -199.784622 -123.993988 13.824694
vertex -201.655640 -123.993988 13.578371
vertex -201.334625 -123.993988 13.824694
endloop
endfacet
facet normal 0.000000 1.000000 0.000127
outer loop
vertex -199.784622 -123.993988 13.824694
vertex -201.334625 -123.993988 13.824694
vertex -200.158447 -123.993988 13.979540
endloop
endfacet
facet normal 0.000000 1.000000 -0.000061
outer loop
vertex -200.158447 -123.993988 13.979540
vertex -201.334625 -123.993988 13.824694
vertex -200.960785 -123.993988 13.979540
endloop
endfacet
facet normal 0.000000 1.000000 0.000000
outer loop
vertex -200.158447 -123.993988 13.979540
vertex -200.960785 -123.993988 13.979540
vertex -200.559616 -123.993988 14.032351
endloop
endfacet
facet normal 0.707108 0.000000 -0.707106
outer loop
vertex -206.905640 -126.488983 8.328371
vertex -202.751648 -126.488983 12.482355
vertex -206.905640 -127.983986 8.328371
endloop
endfacet
facet normal 0.707108 0.000000 -0.707106
outer loop
vertex -206.905640 -127.983986 8.328371
vertex -202.751648 -126.488983 12.482355
vertex -202.751648 -127.983986 12.482355
endloop
endfacet
facet normal 0.707106 0.000000 0.707108
outer loop
vertex -206.905640 -127.983986 16.636339
vertex -202.751648 -127.983986 12.482355
vertex -206.905640 -126.488991 16.636339
endloop
endfacet
facet normal 0.707107 0.000000 0.707106
outer loop
vertex -206.905640 -126.488991 16.636339
vertex -202.751648 -127.983986 12.482355
vertex -202.751648 -126.488983 12.482355
endloop
endfacet
facet normal -0.707106 0.000000 -0.707108
outer loop
vertex -204.713608 -126.488991 18.828371
vertex -200.559616 -126.488991 14.674387
vertex -204.713608 -127.983986 18.828371
endloop
endfacet
facet normal -0.707106 0.000000 -0.707108
outer loop
vertex -204.713608 -127.983986 18.828371
vertex -200.559616 -126.488991 14.674387
vertex -200.559616 -127.983986 14.674387
endloop
endfacet
facet normal 0.000000 -1.000000 0.000000
outer loop
vertex -204.713608 -126.488983 6.136339
vertex -200.559616 -126.488983 10.290323
vertex -206.905640 -126.488983 8.328371
endloop
endfacet
facet normal 0.000000 -1.000000 0.000000
outer loop
vertex -206.905640 -126.488983 8.328371
vertex -200.559616 -126.488983 10.290323
vertex -202.751648 -126.488983 12.482355
endloop
endfacet
facet normal 0.000000 -1.000000 0.000000
outer loop
vertex -202.751648 -126.488983 12.482355
vertex -200.559616 -126.488983 10.290323
vertex -198.367584 -126.488983 12.482355
endloop
endfacet
facet normal 0.000000 -1.000000 0.000000
outer loop
vertex -202.751648 -126.488983 12.482355
vertex -198.367584 -126.488983 12.482355
vertex -200.559616 -126.488991 14.674387
endloop
endfacet
facet normal 0.000001 -1.000000 -0.000007
outer loop
vertex -200.559616 -126.488991 14.674387
vertex -198.367584 -126.488983 12.482355
vertex -194.213608 -126.488991 16.636339
endloop
endfacet
facet normal 0.000000 -1.000000 0.000000
outer loop
vertex -200.559616 -126.488991 14.674387
vertex -194.213608 -126.488991 16.636339
vertex -196.405640 -126.488991 18.828371
endloop
endfacet
facet normal 0.000000 -1.000000 0.000000
outer loop
vertex -196.405640 -126.488983 6.136339
vertex -194.213608 -126.488983 8.328371
vertex -200.559616 -126.488983 10.290323
endloop
endfacet
facet normal 0.000000 -1.000000 0.000000
outer loop
vertex -200.559616 -126.488983 10.290323
vertex -194.213608 -126.488983 8.328371
vertex -198.367584 -126.488983 12.482355
endloop
endfacet
facet normal 0.000000 -1.000000 0.000000
outer loop
vertex -204.713608 -126.488991 18.828371
vertex -206.905640 -126.488991 16.636339
vertex -200.559616 -126.488991 14.674387
endloop
endfacet
facet normal -0.000001 -1.000000 0.000000
outer loop
vertex -200.559616 -126.488991 14.674387
vertex -206.905640 -126.488991 16.636339
vertex -202.751648 -126.488983 12.482355
endloop
endfacet
facet normal 0.707106 0.000000 -0.707108
outer loop
vertex -196.405640 -127.983986 18.828371
vertex -200.559616 -127.983986 14.674387
vertex -196.405640 -126.488991 18.828371
endloop
endfacet
facet normal 0.707113 0.000000 -0.707101
outer loop
vertex -196.405640 -126.488991 18.828371
vertex -200.559616 -127.983986 14.674387
vertex -200.559616 -126.488991 14.674387
endloop
endfacet
facet normal -0.707107 0.000000 0.707106
outer loop
vertex -198.367584 -127.983986 12.482355
vertex -194.213608 -127.983986 16.636339
vertex -198.367584 -126.488983 12.482355
endloop
endfacet
facet normal -0.707106 0.000000 0.707108
outer loop
vertex -198.367584 -126.488983 12.482355
vertex -194.213608 -127.983986 16.636339
vertex -194.213608 -126.488991 16.636339
endloop
endfacet
facet normal -0.707108 0.000000 -0.707106
outer loop
vertex -194.213608 -127.983986 8.328371
vertex -198.367584 -127.983986 12.482355
vertex -194.213608 -126.488983 8.328371
endloop
endfacet
facet normal -0.707108 0.000000 -0.707106
outer loop
vertex -194.213608 -126.488983 8.328371
vertex -198.367584 -127.983986 12.482355
vertex -198.367584 -126.488983 12.482355
endloop
endfacet
facet normal 0.707108 0.000000 0.707106
outer loop
vertex -200.559616 -127.983986 10.290323
vertex -196.405640 -127.983986 6.136339
vertex -200.559616 -126.488983 10.290323
endloop
endfacet
facet normal 0.707107 0.000000 0.707106
outer loop
vertex -200.559616 -126.488983 10.290323
vertex -196.405640 -127.983986 6.136339
vertex -196.405640 -126.488983 6.136339
endloop
endfacet
facet normal -0.707107 0.000000 0.707106
outer loop
vertex -204.713608 -127.983986 6.136339
vertex -200.559616 -127.983986 10.290323
vertex -204.713608 -126.488983 6.136339
endloop
endfacet
facet normal -0.707108 0.000000 0.707106
outer loop
vertex -204.713608 -126.488983 6.136339
vertex -200.559616 -127.983986 10.290323
vertex -200.559616 -126.488983 10.290323
endloop
endfacet
facet normal -0.707105 0.000000 -0.707109
outer loop
vertex -204.713608 -123.993988 6.136339
vertex -204.059616 -123.993988 5.482355
vertex -204.713608 -125.488983 6.136339
endloop
endfacet
facet normal -0.707103 0.000000 -0.707111
outer loop
vertex -204.713608 -125.488983 6.136339
vertex -204.059616 -123.993988 5.482355
vertex -204.713608 -126.488983 6.136339
endloop
endfacet
facet normal -0.707109 0.000000 -0.707104
outer loop
vertex -204.713608 -125.488983 6.136339
vertex -204.713608 -126.488983 6.136339
vertex -206.905640 -126.488983 8.328371
endloop
endfacet
facet normal -0.707103 0.000000 -0.707110
outer loop
vertex -204.059616 -123.993988 5.482355
vertex -204.059616 -127.983986 5.482355
vertex -204.713608 -126.488983 6.136339
endloop
endfacet
facet normal -0.707102 0.000000 -0.707112
outer loop
vertex -204.713608 -126.488983 6.136339
vertex -204.059616 -127.983986 5.482355
vertex -204.713608 -127.983986 6.136339
endloop
endfacet
facet normal -0.707113 0.000000 -0.707101
outer loop
vertex -206.905640 -127.983986 8.328371
vertex -207.559616 -127.983986 8.982355
vertex -206.905640 -126.488983 8.328371
endloop
endfacet
facet normal -0.707111 0.000000 -0.707103
outer loop
vertex -206.905640 -126.488983 8.328371
vertex -207.559616 -127.983986 8.982355
vertex -207.559616 -123.993988 8.982355
endloop
endfacet
facet normal -0.707111 0.000000 -0.707103
outer loop
vertex -206.905640 -126.488983 8.328371
vertex -207.559616 -123.993988 8.982355
vertex -206.905640 -125.488983 8.328371
endloop
endfacet
facet normal -0.707111 0.000000 -0.707103
outer loop
vertex -206.905640 -125.488983 8.328371
vertex -207.559616 -123.993988 8.982355
vertex -206.905640 -123.993988 8.328371
endloop
endfacet
facet normal -0.707099 0.000000 -0.707114
outer loop
vertex -206.905640 -125.488983 8.328371
vertex -204.713608 -125.488983 6.136339
vertex -206.905640 -126.488983 8.328371
endloop
endfacet
facet normal -0.707112 0.000000 0.707101
outer loop
vertex -206.905640 -123.993988 16.636339
vertex -207.559616 -123.993988 15.982355
vertex -206.905640 -125.488991 16.636339
endloop
endfacet
facet normal -0.707111 0.000000 0.707103
outer loop
vertex -206.905640 -125.488991 16.636339
vertex -207.559616 -123.993988 15.982355
vertex -206.905640 -126.488991 16.636339
endloop
endfacet
facet normal -0.707109 0.000000 0.707104
outer loop
vertex -206.905640 -125.488991 16.636339
vertex -206.905640 -126.488991 16.636339
vertex -204.713608 -126.488991 18.828371
endloop
endfacet
facet normal -0.707112 0.000000 0.707101
outer loop
vertex -207.559616 -123.993988 15.982355
vertex -207.559616 -127.983986 15.982355
vertex -206.905640 -126.488991 16.636339
endloop
endfacet
facet normal -0.707111 0.000000 0.707103
outer loop
vertex -206.905640 -126.488991 16.636339
vertex -207.559616 -127.983986 15.982355
vertex -206.905640 -127.983986 16.636339
endloop
endfacet
facet normal -0.707105 0.000000 0.707108
outer loop
vertex -204.713608 -127.983986 18.828371
vertex -204.059616 -127.983986 19.482355
vertex -204.713608 -126.488991 18.828371
endloop
endfacet
facet normal -0.707103 0.000000 0.707111
outer loop
vertex -204.713608 -126.488991 18.828371
vertex -204.059616 -127.983986 19.482355
vertex -204.059616 -123.993988 19.482355
endloop
endfacet
facet normal -0.707103 0.000000 0.707111
outer loop
vertex -204.713608 -126.488991 18.828371
vertex -204.059616 -123.993988 19.482355
vertex -204.713608 -125.488991 18.828371
endloop
endfacet
facet normal -0.707107 0.000000 0.707107
outer loop
vertex -204.713608 -125.488991 18.828371
vertex -204.059616 -123.993988 19.482355
vertex -204.713608 -123.993988 18.828371
endloop
endfacet
facet normal -0.707109 0.000000 0.707104
outer loop
vertex -204.713608 -125.488991 18.828371
vertex -206.905640 -125.488991 16.636339
vertex -204.713608 -126.488991 18.828371
endloop
endfacet
facet normal 0.000000 -1.000000 0.000000
outer loop
vertex -200.559616 -127.983986 14.674387
vertex -196.405640 -127.983986 18.828371
vertex -204.713608 -127.983986 18.828371
endloop
endfacet
facet normal 0.000000 -1.000000 0.000000
outer loop
vertex -204.713608 -127.983986 18.828371
vertex -196.405640 -127.983986 18.828371
vertex -204.059616 -127.983986 19.482355
endloop
endfacet
facet normal 0.000000 -1.000000 0.000017
outer loop
vertex -204.059616 -127.983986 19.482355
vertex -196.405640 -127.983986 18.828371
vertex -197.059616 -127.983986 19.482355
endloop
endfacet
facet normal 0.000000 -1.000000 0.000000
outer loop
vertex -202.751648 -127.983986 12.482355
vertex -206.905640 -127.983986 16.636339
vertex -206.905640 -127.983986 8.328371
endloop
endfacet
facet normal 0.000000 -1.000000 0.000000
outer loop
vertex -206.905640 -127.983986 8.328371
vertex -206.905640 -127.983986 16.636339
vertex -207.559616 -127.983986 8.982355
endloop
endfacet
facet normal 0.000000 -1.000000 0.000000
outer loop
vertex -207.559616 -127.983986 8.982355
vertex -206.905640 -127.983986 16.636339
vertex -207.559616 -127.983986 15.982355
endloop
endfacet
facet normal 0.000000 -1.000000 0.000000
outer loop
vertex -198.367584 -127.983986 12.482355
vertex -194.213608 -127.983986 8.328371
vertex -194.213608 -127.983986 16.636339
endloop
endfacet
facet normal 0.000000 -1.000000 0.000000
outer loop
vertex -194.213608 -127.983986 16.636339
vertex -194.213608 -127.983986 8.328371
vertex -193.559616 -127.983986 8.982355
endloop
endfacet
facet normal 0.000000 -1.000000 0.000000
outer loop
vertex -194.213608 -127.983986 16.636339
vertex -193.559616 -127.983986 8.982355
vertex -193.559616 -127.983986 15.982355
endloop
endfacet
facet normal -1.000000 0.000000 0.000000
outer loop
vertex -207.559616 -123.993988 15.982355
vertex -207.559616 -123.993988 8.982355
vertex -207.559616 -127.983986 15.982355
endloop
endfacet
facet normal -1.000000 0.000000 0.000000
outer loop
vertex -207.559616 -127.983986 15.982355
vertex -207.559616 -123.993988 8.982355
vertex -207.559616 -127.983986 8.982355
endloop
endfacet
facet normal 0.000000 0.000000 1.000000
outer loop
vertex -197.059616 -123.993988 19.482355
vertex -204.059616 -123.993988 19.482355
vertex -197.059616 -127.983986 19.482355
endloop
endfacet
facet normal 0.000000 0.000000 1.000000
outer loop
vertex -197.059616 -127.983986 19.482355
vertex -204.059616 -123.993988 19.482355
vertex -204.059616 -127.983986 19.482355
endloop
endfacet
facet normal 1.000000 0.000000 0.000000
outer loop
vertex -193.559616 -123.993988 8.982355
vertex -193.559616 -123.993988 15.982355
vertex -193.559616 -127.983986 8.982355
endloop
endfacet
facet normal 1.000000 0.000000 0.000000
outer loop
vertex -193.559616 -127.983986 8.982355
vertex -193.559616 -123.993988 15.982355
vertex -193.559616 -127.983986 15.982355
endloop
endfacet
facet normal 0.000000 0.000000 -1.000000
outer loop
vertex -204.059616 -123.993988 5.482355
vertex -197.059616 -123.993988 5.482355
vertex -204.059616 -127.983986 5.482355
endloop
endfacet
facet normal 0.000000 0.000000 -1.000000
outer loop
vertex -204.059616 -127.983986 5.482355
vertex -197.059616 -123.993988 5.482355
vertex -197.059616 -127.983986 5.482355
endloop
endfacet
facet normal 0.000000 -1.000000 0.000000
outer loop
vertex -200.559616 -127.983986 10.290323
vertex -204.713608 -127.983986 6.136339
vertex -196.405640 -127.983986 6.136339
endloop
endfacet
facet normal 0.000000 -1.000000 0.000000
outer loop
vertex -196.405640 -127.983986 6.136339
vertex -204.713608 -127.983986 6.136339
vertex -197.059616 -127.983986 5.482355
endloop
endfacet
facet normal 0.000000 -1.000000 -0.000017
outer loop
vertex -197.059616 -127.983986 5.482355
vertex -204.713608 -127.983986 6.136339
vertex -204.059616 -127.983986 5.482355
endloop
endfacet
facet normal 0.000000 1.000000 -0.000033
outer loop
vertex -197.701675 -123.993988 7.432383
vertex -196.405640 -123.993988 6.136339
vertex -200.552795 -123.993988 7.432367
endloop
endfacet
facet normal 0.000000 0.999788 0.020614
outer loop
vertex -200.552795 -123.993988 7.432367
vertex -196.405640 -123.993988 6.136339
vertex -200.557343 -123.993988 7.432352
endloop
endfacet
facet normal 0.000000 1.000000 0.000000
outer loop
vertex -200.557343 -123.993988 7.432352
vertex -196.405640 -123.993988 6.136339
vertex -200.561890 -123.993988 7.432352
endloop
endfacet
facet normal 0.000000 1.000000 0.000023
outer loop
vertex -200.561890 -123.993988 7.432352
vertex -196.405640 -123.993988 6.136339
vertex -204.713608 -123.993988 6.136339
endloop
endfacet
facet normal 0.000000 0.999788 0.020614
outer loop
vertex -200.561890 -123.993988 7.432352
vertex -204.713608 -123.993988 6.136339
vertex -200.566422 -123.993988 7.432367
endloop
endfacet
facet normal 0.000000 1.000000 -0.000025
outer loop
vertex -200.566422 -123.993988 7.432367
vertex -204.713608 -123.993988 6.136339
vertex -203.417587 -123.993988 7.432352
endloop
endfacet
facet normal 0.000000 1.000000 0.000000
outer loop
vertex -197.059616 -123.993988 5.482355
vertex -204.059616 -123.993988 5.482355
vertex -196.405640 -123.993988 6.136339
endloop
endfacet
facet normal 0.000000 1.000000 -0.000014
outer loop
vertex -196.405640 -123.993988 6.136339
vertex -204.059616 -123.993988 5.482355
vertex -204.713608 -123.993988 6.136339
endloop
endfacet
endsolid ShogiChessCncAndPLA v2.005
