solid ShogiChessCncAndPLA v2.021
facet normal 1.000000 0.000000 0.000000
outer loop
vertex -180.998505 -123.993988 -7.078756
vertex -180.998505 -123.993988 -1.628759
vertex -180.998505 -125.488991 -7.078756
endloop
endfacet
facet normal 1.000000 0.000000 0.000000
outer loop
vertex -180.998505 -125.488991 -7.078756
vertex -180.998505 -123.993988 -1.628759
vertex -180.998505 -125.488991 -1.628759
endloop
endfacet
facet normal 0.000000 0.000000 -1.000000
outer loop
vertex -186.448502 -123.993988 -7.078756
vertex -180.998505 -123.993988 -7.078756
vertex -186.448502 -125.488991 -7.078756
endloop
endfacet
facet normal 0.000000 0.000000 -1.000000
outer loop
vertex -186.448502 -125.488991 -7.078756
vertex -180.998505 -123.993988 -7.078756
vertex -180.998505 -125.488991 -7.078756
endloop
endfacet
facet normal 0.130552 0.000000 0.991441
outer loop
vertex -186.448502 -125.488991 -10.178762
vertex -186.448502 -123.993988 -10.178762
vertex -186.849670 -125.488991 -10.125937
endloop
endfacet
facet normal 0.130555 0.000000 0.991441
outer loop
vertex -186.849670 -125.488991 -10.125937
vertex -186.448502 -123.993988 -10.178762
vertex -186.849670 -123.993988 -10.125937
endloop
endfacet
facet normal 0.382676 0.000000 0.923883
outer loop
vertex -186.849670 -125.488991 -10.125937
vertex -186.849670 -123.993988 -10.125937
vertex -187.223511 -125.488991 -9.971090
endloop
endfacet
facet normal 0.382678 0.000000 0.923882
outer loop
vertex -187.223511 -125.488991 -9.971090
vertex -186.849670 -123.993988 -10.125937
vertex -187.223511 -123.993988 -9.971090
endloop
endfacet
facet normal 0.608752 0.000000 0.793361
outer loop
vertex -187.223511 -125.488991 -9.971090
vertex -187.223511 -123.993988 -9.971090
vertex -187.544525 -125.488991 -9.724768
endloop
endfacet
facet normal 0.608766 0.000000 0.793350
outer loop
vertex -187.544525 -125.488991 -9.724768
vertex -187.223511 -123.993988 -9.971090
vertex -187.544525 -123.993988 -9.724768
endloop
endfacet
facet normal 0.793352 0.000000 0.608764
outer loop
vertex -187.544525 -125.488991 -9.724768
vertex -187.544525 -123.993988 -9.724768
vertex -187.790848 -125.488991 -9.403753
endloop
endfacet
facet normal 0.793358 0.000000 0.608756
outer loop
vertex -187.790848 -125.488991 -9.403753
vertex -187.544525 -123.993988 -9.724768
vertex -187.790848 -123.993988 -9.403753
endloop
endfacet
facet normal 0.923877 0.000000 0.382689
outer loop
vertex -187.790848 -125.488991 -9.403753
vertex -187.790848 -123.993988 -9.403753
vertex -187.945694 -125.488991 -9.029928
endloop
endfacet
facet normal 0.923878 0.000000 0.382688
outer loop
vertex -187.945694 -125.488991 -9.029928
vertex -187.790848 -123.993988 -9.403753
vertex -187.945694 -123.993988 -9.029928
endloop
endfacet
facet normal 0.991446 0.000000 0.130517
outer loop
vertex -187.945694 -125.488991 -9.029928
vertex -187.945694 -123.993988 -9.029928
vertex -187.998505 -125.488991 -8.628759
endloop
endfacet
facet normal 0.991446 0.000000 0.130516
outer loop
vertex -187.998505 -125.488991 -8.628759
vertex -187.945694 -123.993988 -9.029928
vertex -187.998505 -123.993988 -8.628759
endloop
endfacet
facet normal 0.991446 0.000000 -0.130517
outer loop
vertex -187.998505 -125.488991 -8.628759
vertex -187.998505 -123.993988 -8.628759
vertex -187.945694 -125.488991 -8.227591
endloop
endfacet
facet normal 0.991446 0.000000 -0.130516
outer loop
vertex -187.945694 -125.488991 -8.227591
vertex -187.998505 -123.993988 -8.628759
vertex -187.945694 -123.993988 -8.227591
endloop
endfacet
facet normal 0.923877 0.000000 -0.382689
outer loop
vertex -187.945694 -125.488991 -8.227591
vertex -187.945694 -123.993988 -8.227591
vertex -187.790848 -125.488991 -7.853765
endloop
endfacet
facet normal 0.923878 0.000000 -0.382688
outer loop
vertex -187.790848 -125.488991 -7.853765
vertex -187.945694 -123.993988 -8.227591
vertex -187.790848 -123.993988 -7.853765
endloop
endfacet
facet normal 0.793366 0.000000 -0.608745
outer loop
vertex -187.790848 -125.488991 -7.853765
vertex -187.790848 -123.993988 -7.853765
vertex -187.544525 -125.488991 -7.532736
endloop
endfacet
facet normal 0.793372 0.000000 -0.608737
outer loop
vertex -187.544525 -125.488991 -7.532736
vertex -187.790848 -123.993988 -7.853765
vertex -187.544525 -123.993988 -7.532736
endloop
endfacet
facet normal 0.608752 0.000000 -0.793361
outer loop
vertex -187.544525 -125.488991 -7.532736
vertex -187.544525 -123.993988 -7.532736
vertex -187.223511 -125.488991 -7.286413
endloop
endfacet
facet normal 0.608766 0.000000 -0.793350
outer loop
vertex -187.223511 -125.488991 -7.286413
vertex -187.544525 -123.993988 -7.532736
vertex -187.223511 -123.993988 -7.286413
endloop
endfacet
facet normal 0.382676 0.000000 -0.923883
outer loop
vertex -187.223511 -125.488991 -7.286413
vertex -187.223511 -123.993988 -7.286413
vertex -186.849670 -125.488991 -7.131567
endloop
endfacet
facet normal 0.382676 0.000000 -0.923883
outer loop
vertex -186.849670 -125.488991 -7.131567
vertex -187.223511 -123.993988 -7.286413
vertex -186.849670 -123.993988 -7.131567
endloop
endfacet
facet normal 0.130517 0.000000 -0.991446
outer loop
vertex -186.849670 -125.488991 -7.131567
vertex -186.849670 -123.993988 -7.131567
vertex -186.448502 -125.488991 -7.078756
endloop
endfacet
facet normal 0.130517 0.000000 -0.991446
outer loop
vertex -186.448502 -125.488991 -7.078756
vertex -186.849670 -123.993988 -7.131567
vertex -186.448502 -123.993988 -7.078756
endloop
endfacet
facet normal 0.000000 0.000000 1.000000
outer loop
vertex -180.998505 -123.993988 -10.178762
vertex -186.448502 -123.993988 -10.178762
vertex -180.998505 -125.488991 -10.178762
endloop
endfacet
facet normal 0.000000 0.000000 1.000000
outer loop
vertex -180.998505 -125.488991 -10.178762
vertex -186.448502 -123.993988 -10.178762
vertex -186.448502 -125.488991 -10.178762
endloop
endfacet
facet normal 1.000000 0.000000 0.000000
outer loop
vertex -180.998505 -123.993988 -15.628759
vertex -180.998505 -123.993988 -10.178762
vertex -180.998505 -125.488991 -15.628759
endloop
endfacet
facet normal 1.000000 0.000000 0.000000
outer loop
vertex -180.998505 -125.488991 -15.628759
vertex -180.998505 -123.993988 -10.178762
vertex -180.998505 -125.488991 -10.178762
endloop
endfacet
facet normal -0.991446 0.000000 0.130517
outer loop
vertex -177.898514 -125.488991 -15.628759
vertex -177.898514 -123.993988 -15.628759
vertex -177.951324 -125.488991 -16.029928
endloop
endfacet
facet normal -0.991446 0.000000 0.130516
outer loop
vertex -177.951324 -125.488991 -16.029928
vertex -177.898514 -123.993988 -15.628759
vertex -177.951324 -123.993988 -16.029928
endloop
endfacet
facet normal -0.923877 0.000000 0.382689
outer loop
vertex -177.951324 -125.488991 -16.029928
vertex -177.951324 -123.993988 -16.029928
vertex -178.106171 -125.488991 -16.403753
endloop
endfacet
facet normal -0.923878 0.000000 0.382687
outer loop
vertex -178.106171 -125.488991 -16.403753
vertex -177.951324 -123.993988 -16.029928
vertex -178.106171 -123.993988 -16.403753
endloop
endfacet
facet normal -0.793351 0.000000 0.608765
outer loop
vertex -178.106171 -125.488991 -16.403753
vertex -178.106171 -123.993988 -16.403753
vertex -178.352493 -125.488991 -16.724768
endloop
endfacet
facet normal -0.793359 0.000000 0.608754
outer loop
vertex -178.352493 -125.488991 -16.724768
vertex -178.106171 -123.993988 -16.403753
vertex -178.352493 -123.993988 -16.724768
endloop
endfacet
facet normal -0.608752 0.000000 0.793361
outer loop
vertex -178.352493 -125.488991 -16.724768
vertex -178.352493 -123.993988 -16.724768
vertex -178.673508 -125.488991 -16.971090
endloop
endfacet
facet normal -0.608764 0.000000 0.793351
outer loop
vertex -178.673508 -125.488991 -16.971090
vertex -178.352493 -123.993988 -16.724768
vertex -178.673508 -123.993988 -16.971090
endloop
endfacet
facet normal -0.382689 0.000000 0.923877
outer loop
vertex -178.673508 -125.488991 -16.971090
vertex -178.673508 -123.993988 -16.971090
vertex -179.047333 -125.488991 -17.125937
endloop
endfacet
facet normal -0.382694 0.000000 0.923875
outer loop
vertex -179.047333 -125.488991 -17.125937
vertex -178.673508 -123.993988 -16.971090
vertex -179.047333 -123.993988 -17.125937
endloop
endfacet
facet normal -0.130548 0.000000 0.991442
outer loop
vertex -179.047333 -125.488991 -17.125937
vertex -179.047333 -123.993988 -17.125937
vertex -179.448502 -125.488991 -17.178762
endloop
endfacet
facet normal -0.130555 0.000000 0.991441
outer loop
vertex -179.448502 -125.488991 -17.178762
vertex -179.047333 -123.993988 -17.125937
vertex -179.448502 -123.993988 -17.178762
endloop
endfacet
facet normal 0.130555 0.000000 0.991441
outer loop
vertex -179.448502 -125.488991 -17.178762
vertex -179.448502 -123.993988 -17.178762
vertex -179.849670 -125.488991 -17.125937
endloop
endfacet
facet normal 0.130548 0.000000 0.991442
outer loop
vertex -179.849670 -125.488991 -17.125937
vertex -179.448502 -123.993988 -17.178762
vertex -179.849670 -123.993988 -17.125937
endloop
endfacet
facet normal 0.382681 0.000000 0.923880
outer loop
vertex -179.849670 -125.488991 -17.125937
vertex -179.849670 -123.993988 -17.125937
vertex -180.223511 -125.488991 -16.971090
endloop
endfacet
facet normal 0.382676 0.000000 0.923883
outer loop
vertex -180.223511 -125.488991 -16.971090
vertex -179.849670 -123.993988 -17.125937
vertex -180.223511 -123.993988 -16.971090
endloop
endfacet
facet normal 0.608752 0.000000 0.793361
outer loop
vertex -180.223511 -125.488991 -16.971090
vertex -180.223511 -123.993988 -16.971090
vertex -180.544525 -125.488991 -16.724768
endloop
endfacet
facet normal 0.608764 0.000000 0.793351
outer loop
vertex -180.544525 -125.488991 -16.724768
vertex -180.223511 -123.993988 -16.971090
vertex -180.544525 -123.993988 -16.724768
endloop
endfacet
facet normal 0.793353 0.000000 0.608762
outer loop
vertex -180.544525 -125.488991 -16.724768
vertex -180.544525 -123.993988 -16.724768
vertex -180.790848 -125.488991 -16.403753
endloop
endfacet
facet normal 0.793357 0.000000 0.608757
outer loop
vertex -180.790848 -125.488991 -16.403753
vertex -180.544525 -123.993988 -16.724768
vertex -180.790848 -123.993988 -16.403753
endloop
endfacet
facet normal 0.923878 0.000000 0.382687
outer loop
vertex -180.790848 -125.488991 -16.403753
vertex -180.790848 -123.993988 -16.403753
vertex -180.945694 -125.488991 -16.029928
endloop
endfacet
facet normal 0.923877 0.000000 0.382689
outer loop
vertex -180.945694 -125.488991 -16.029928
vertex -180.790848 -123.993988 -16.403753
vertex -180.945694 -123.993988 -16.029928
endloop
endfacet
facet normal 0.991446 0.000000 0.130517
outer loop
vertex -180.945694 -125.488991 -16.029928
vertex -180.945694 -123.993988 -16.029928
vertex -180.998505 -125.488991 -15.628759
endloop
endfacet
facet normal 0.991446 0.000000 0.130515
outer loop
vertex -180.998505 -125.488991 -15.628759
vertex -180.945694 -123.993988 -16.029928
vertex -180.998505 -123.993988 -15.628759
endloop
endfacet
facet normal -1.000000 0.000000 0.000000
outer loop
vertex -177.898514 -123.993988 -10.178762
vertex -177.898514 -123.993988 -15.628759
vertex -177.898514 -125.488991 -10.178762
endloop
endfacet
facet normal -1.000000 0.000000 0.000000
outer loop
vertex -177.898514 -125.488991 -10.178762
vertex -177.898514 -123.993988 -15.628759
vertex -177.898514 -125.488991 -15.628759
endloop
endfacet
facet normal 0.991446 0.000000 -0.130517
outer loop
vertex -180.998505 -125.488991 -1.628759
vertex -180.998505 -123.993988 -1.628759
vertex -180.945694 -125.488991 -1.227591
endloop
endfacet
facet normal 0.991446 0.000000 -0.130516
outer loop
vertex -180.945694 -125.488991 -1.227591
vertex -180.998505 -123.993988 -1.628759
vertex -180.945694 -123.993988 -1.227591
endloop
endfacet
facet normal 0.923877 0.000000 -0.382689
outer loop
vertex -180.945694 -125.488991 -1.227591
vertex -180.945694 -123.993988 -1.227591
vertex -180.790848 -125.488991 -0.853765
endloop
endfacet
facet normal 0.923878 0.000000 -0.382688
outer loop
vertex -180.790848 -125.488991 -0.853765
vertex -180.945694 -123.993988 -1.227591
vertex -180.790848 -123.993988 -0.853765
endloop
endfacet
facet normal 0.793366 0.000000 -0.608745
outer loop
vertex -180.790848 -125.488991 -0.853765
vertex -180.790848 -123.993988 -0.853765
vertex -180.544525 -125.488991 -0.532736
endloop
endfacet
facet normal 0.793372 0.000000 -0.608737
outer loop
vertex -180.544525 -125.488991 -0.532736
vertex -180.790848 -123.993988 -0.853765
vertex -180.544525 -123.993988 -0.532736
endloop
endfacet
facet normal 0.608753 0.000000 -0.793360
outer loop
vertex -180.544525 -125.488991 -0.532736
vertex -180.544525 -123.993988 -0.532736
vertex -180.223511 -125.488991 -0.286413
endloop
endfacet
facet normal 0.608765 0.000000 -0.793350
outer loop
vertex -180.223511 -125.488991 -0.286413
vertex -180.544525 -123.993988 -0.532736
vertex -180.223511 -123.993988 -0.286413
endloop
endfacet
facet normal 0.382676 0.000000 -0.923882
outer loop
vertex -180.223511 -125.488991 -0.286413
vertex -180.223511 -123.993988 -0.286413
vertex -179.849670 -125.488991 -0.131567
endloop
endfacet
facet normal 0.382677 0.000000 -0.923882
outer loop
vertex -179.849670 -125.488991 -0.131567
vertex -180.223511 -123.993988 -0.286413
vertex -179.849670 -123.993988 -0.131567
endloop
endfacet
facet normal 0.130516 0.000000 -0.991446
outer loop
vertex -179.849670 -125.488991 -0.131567
vertex -179.849670 -123.993988 -0.131567
vertex -179.448502 -125.488991 -0.078756
endloop
endfacet
facet normal 0.130516 0.000000 -0.991446
outer loop
vertex -179.448502 -125.488991 -0.078756
vertex -179.849670 -123.993988 -0.131567
vertex -179.448502 -123.993988 -0.078756
endloop
endfacet
facet normal -0.130516 0.000000 -0.991446
outer loop
vertex -179.448502 -125.488991 -0.078756
vertex -179.448502 -123.993988 -0.078756
vertex -179.047333 -125.488991 -0.131567
endloop
endfacet
facet normal -0.130516 0.000000 -0.991446
outer loop
vertex -179.047333 -125.488991 -0.131567
vertex -179.448502 -123.993988 -0.078756
vertex -179.047333 -123.993988 -0.131567
endloop
endfacet
facet normal -0.382690 0.000000 -0.923877
outer loop
vertex -179.047333 -125.488991 -0.131567
vertex -179.047333 -123.993988 -0.131567
vertex -178.673508 -125.488991 -0.286413
endloop
endfacet
facet normal -0.382690 0.000000 -0.923877
outer loop
vertex -178.673508 -125.488991 -0.286413
vertex -179.047333 -123.993988 -0.131567
vertex -178.673508 -123.993988 -0.286413
endloop
endfacet
facet normal -0.608753 0.000000 -0.793360
outer loop
vertex -178.673508 -125.488991 -0.286413
vertex -178.673508 -123.993988 -0.286413
vertex -178.352493 -125.488991 -0.532736
endloop
endfacet
facet normal -0.608765 0.000000 -0.793350
outer loop
vertex -178.352493 -125.488991 -0.532736
vertex -178.673508 -123.993988 -0.286413
vertex -178.352493 -123.993988 -0.532736
endloop
endfacet
facet normal -0.793366 0.000000 -0.608745
outer loop
vertex -178.352493 -125.488991 -0.532736
vertex -178.352493 -123.993988 -0.532736
vertex -178.106171 -125.488991 -0.853765
endloop
endfacet
facet normal -0.793372 0.000000 -0.608737
outer loop
vertex -178.106171 -125.488991 -0.853765
vertex -178.352493 -123.993988 -0.532736
vertex -178.106171 -123.993988 -0.853765
endloop
endfacet
facet normal -0.923878 0.000000 -0.382688
outer loop
vertex -178.106171 -125.488991 -0.853765
vertex -178.106171 -123.993988 -0.853765
vertex -177.951324 -125.488991 -1.227591
endloop
endfacet
facet normal -0.923877 0.000000 -0.382689
outer loop
vertex -177.951324 -125.488991 -1.227591
vertex -178.106171 -123.993988 -0.853765
vertex -177.951324 -123.993988 -1.227591
endloop
endfacet
facet normal -0.991446 0.000000 -0.130517
outer loop
vertex -177.951324 -125.488991 -1.227591
vertex -177.951324 -123.993988 -1.227591
vertex -177.898514 -125.488991 -1.628759
endloop
endfacet
facet normal -0.991446 0.000000 -0.130516
outer loop
vertex -177.898514 -125.488991 -1.628759
vertex -177.951324 -123.993988 -1.227591
vertex -177.898514 -123.993988 -1.628759
endloop
endfacet
facet normal -1.000000 0.000000 0.000000
outer loop
vertex -177.898514 -123.993988 -1.628759
vertex -177.898514 -123.993988 -7.078756
vertex -177.898514 -125.488991 -1.628759
endloop
endfacet
facet normal -1.000000 0.000000 0.000000
outer loop
vertex -177.898514 -125.488991 -1.628759
vertex -177.898514 -123.993988 -7.078756
vertex -177.898514 -125.488991 -7.078756
endloop
endfacet
facet normal 0.000000 0.000000 -1.000000
outer loop
vertex -177.898514 -123.993988 -7.078756
vertex -172.448502 -123.993988 -7.078756
vertex -177.898514 -125.488991 -7.078756
endloop
endfacet
facet normal 0.000000 0.000000 -1.000000
outer loop
vertex -177.898514 -125.488991 -7.078756
vertex -172.448502 -123.993988 -7.078756
vertex -172.448502 -125.488991 -7.078756
endloop
endfacet
facet normal -0.130555 0.000000 -0.991441
outer loop
vertex -172.448502 -125.488991 -7.078756
vertex -172.448502 -123.993988 -7.078756
vertex -172.047333 -125.488991 -7.131582
endloop
endfacet
facet normal -0.130555 0.000000 -0.991441
outer loop
vertex -172.047333 -125.488991 -7.131582
vertex -172.448502 -123.993988 -7.078756
vertex -172.047333 -123.993988 -7.131582
endloop
endfacet
facet normal -0.382676 0.000000 -0.923883
outer loop
vertex -172.047333 -125.488991 -7.131582
vertex -172.047333 -123.993988 -7.131582
vertex -171.673492 -125.488991 -7.286428
endloop
endfacet
facet normal -0.382676 0.000000 -0.923883
outer loop
vertex -171.673492 -125.488991 -7.286428
vertex -172.047333 -123.993988 -7.131582
vertex -171.673492 -123.993988 -7.286428
endloop
endfacet
facet normal -0.608754 0.000000 -0.793359
outer loop
vertex -171.673492 -125.488991 -7.286428
vertex -171.673492 -123.993988 -7.286428
vertex -171.352478 -125.488991 -7.532751
endloop
endfacet
facet normal -0.608764 0.000000 -0.793351
outer loop
vertex -171.352478 -125.488991 -7.532751
vertex -171.673492 -123.993988 -7.286428
vertex -171.352478 -123.993988 -7.532751
endloop
endfacet
facet normal -0.793366 0.000000 -0.608745
outer loop
vertex -171.352478 -125.488991 -7.532751
vertex -171.352478 -123.993988 -7.532751
vertex -171.106155 -125.488991 -7.853781
endloop
endfacet
facet normal -0.793372 0.000000 -0.608737
outer loop
vertex -171.106155 -125.488991 -7.853781
vertex -171.352478 -123.993988 -7.532751
vertex -171.106155 -123.993988 -7.853781
endloop
endfacet
facet normal -0.923883 0.000000 -0.382675
outer loop
vertex -171.106155 -125.488991 -7.853781
vertex -171.106155 -123.993988 -7.853781
vertex -170.951309 -125.488991 -8.227621
endloop
endfacet
facet normal -0.923883 0.000000 -0.382676
outer loop
vertex -170.951309 -125.488991 -8.227621
vertex -171.106155 -123.993988 -7.853781
vertex -170.951309 -123.993988 -8.227621
endloop
endfacet
facet normal -0.991451 0.000000 -0.130480
outer loop
vertex -170.951309 -125.488991 -8.227621
vertex -170.951309 -123.993988 -8.227621
vertex -170.898514 -125.488991 -8.628790
endloop
endfacet
facet normal -0.991451 0.000000 -0.130478
outer loop
vertex -170.898514 -125.488991 -8.628790
vertex -170.951309 -123.993988 -8.227621
vertex -170.898514 -123.993988 -8.628790
endloop
endfacet
facet normal -0.991446 0.000000 0.130517
outer loop
vertex -170.898514 -125.488991 -8.628790
vertex -170.898514 -123.993988 -8.628790
vertex -170.951324 -125.488991 -9.029959
endloop
endfacet
facet normal -0.991446 0.000000 0.130516
outer loop
vertex -170.951324 -125.488991 -9.029959
vertex -170.898514 -123.993988 -8.628790
vertex -170.951324 -123.993988 -9.029959
endloop
endfacet
facet normal -0.923870 0.000000 0.382707
outer loop
vertex -170.951324 -125.488991 -9.029959
vertex -170.951324 -123.993988 -9.029959
vertex -171.106186 -125.488991 -9.403799
endloop
endfacet
facet normal -0.923869 0.000000 0.382708
outer loop
vertex -171.106186 -125.488991 -9.403799
vertex -170.951324 -123.993988 -9.029959
vertex -171.106186 -123.993988 -9.403799
endloop
endfacet
facet normal -0.793334 0.000000 0.608787
outer loop
vertex -171.106186 -125.488991 -9.403799
vertex -171.106186 -123.993988 -9.403799
vertex -171.352524 -125.488991 -9.724813
endloop
endfacet
facet normal -0.793340 0.000000 0.608779
outer loop
vertex -171.352524 -125.488991 -9.724813
vertex -171.106186 -123.993988 -9.403799
vertex -171.352524 -123.993988 -9.724813
endloop
endfacet
facet normal -0.608712 0.000000 0.793391
outer loop
vertex -171.352524 -125.488991 -9.724813
vertex -171.352524 -123.993988 -9.724813
vertex -171.673553 -125.488991 -9.971121
endloop
endfacet
facet normal -0.608722 0.000000 0.793384
outer loop
vertex -171.673553 -125.488991 -9.971121
vertex -171.352524 -123.993988 -9.724813
vertex -171.673553 -123.993988 -9.971121
endloop
endfacet
facet normal -0.382646 0.000000 0.923895
outer loop
vertex -171.673553 -125.488991 -9.971121
vertex -171.673553 -123.993988 -9.971121
vertex -172.047394 -125.488991 -10.125952
endloop
endfacet
facet normal -0.382643 0.000000 0.923896
outer loop
vertex -172.047394 -125.488991 -10.125952
vertex -171.673553 -123.993988 -9.971121
vertex -172.047394 -123.993988 -10.125952
endloop
endfacet
facet normal -0.130517 0.000000 0.991446
outer loop
vertex -172.047394 -125.488991 -10.125952
vertex -172.047394 -123.993988 -10.125952
vertex -172.448563 -125.488991 -10.178762
endloop
endfacet
facet normal -0.130514 0.000000 0.991446
outer loop
vertex -172.448563 -125.488991 -10.178762
vertex -172.047394 -123.993988 -10.125952
vertex -172.448563 -123.993988 -10.178762
endloop
endfacet
facet normal 0.000000 0.000000 1.000000
outer loop
vertex -172.448624 -123.993988 -10.178762
vertex -172.448624 -125.488991 -10.178762
vertex -172.448563 -123.993988 -10.178762
endloop
endfacet
facet normal 0.000000 0.000000 1.000000
outer loop
vertex -172.448563 -123.993988 -10.178762
vertex -172.448624 -125.488991 -10.178762
vertex -172.448563 -125.488991 -10.178762
endloop
endfacet
facet normal 0.000000 0.000000 1.000000
outer loop
vertex -172.448624 -123.993988 -10.178762
vertex -177.898514 -123.993988 -10.178762
vertex -172.448624 -125.488991 -10.178762
endloop
endfacet
facet normal 0.000000 0.000000 1.000000
outer loop
vertex -172.448624 -125.488991 -10.178762
vertex -177.898514 -123.993988 -10.178762
vertex -177.898514 -125.488991 -10.178762
endloop
endfacet
facet normal 0.000000 1.000000 0.000000
outer loop
vertex -177.898514 -125.488991 -10.178762
vertex -177.898514 -125.488991 -7.078756
vertex -172.448624 -125.488991 -10.178762
endloop
endfacet
facet normal 0.000000 1.000000 0.000000
outer loop
vertex -172.448624 -125.488991 -10.178762
vertex -177.898514 -125.488991 -7.078756
vertex -172.448502 -125.488991 -7.078756
endloop
endfacet
facet normal 0.000000 1.000000 0.000000
outer loop
vertex -172.448624 -125.488991 -10.178762
vertex -172.448502 -125.488991 -7.078756
vertex -172.448563 -125.488991 -10.178762
endloop
endfacet
facet normal 0.000000 1.000000 0.000000
outer loop
vertex -172.448563 -125.488991 -10.178762
vertex -172.448502 -125.488991 -7.078756
vertex -172.047394 -125.488991 -10.125952
endloop
endfacet
facet normal 0.000000 1.000000 0.000013
outer loop
vertex -172.047394 -125.488991 -10.125952
vertex -172.448502 -125.488991 -7.078756
vertex -171.673553 -125.488991 -9.971121
endloop
endfacet
facet normal 0.000000 1.000000 0.000000
outer loop
vertex -171.673553 -125.488991 -9.971121
vertex -172.448502 -125.488991 -7.078756
vertex -171.352524 -125.488991 -9.724813
endloop
endfacet
facet normal 0.000000 1.000000 0.000030
outer loop
vertex -171.352524 -125.488991 -9.724813
vertex -172.448502 -125.488991 -7.078756
vertex -171.106186 -125.488991 -9.403799
endloop
endfacet
facet normal 0.000000 1.000000 -0.000035
outer loop
vertex -171.106186 -125.488991 -9.403799
vertex -172.448502 -125.488991 -7.078756
vertex -170.951324 -125.488991 -9.029959
endloop
endfacet
facet normal 0.000000 1.000000 0.000043
outer loop
vertex -170.951324 -125.488991 -9.029959
vertex -172.448502 -125.488991 -7.078756
vertex -170.898514 -125.488991 -8.628790
endloop
endfacet
facet normal 0.000000 1.000000 0.000000
outer loop
vertex -170.898514 -125.488991 -8.628790
vertex -172.448502 -125.488991 -7.078756
vertex -170.951309 -125.488991 -8.227621
endloop
endfacet
facet normal 0.000000 1.000000 -0.000080
outer loop
vertex -170.951309 -125.488991 -8.227621
vertex -172.448502 -125.488991 -7.078756
vertex -171.106155 -125.488991 -7.853781
endloop
endfacet
facet normal 0.000000 1.000000 0.000127
outer loop
vertex -171.106155 -125.488991 -7.853781
vertex -172.448502 -125.488991 -7.078756
vertex -171.352478 -125.488991 -7.532751
endloop
endfacet
facet normal 0.000000 1.000000 0.000000
outer loop
vertex -171.352478 -125.488991 -7.532751
vertex -172.448502 -125.488991 -7.078756
vertex -171.673492 -125.488991 -7.286428
endloop
endfacet
facet normal 0.000000 1.000000 -0.000180
outer loop
vertex -171.673492 -125.488991 -7.286428
vertex -172.448502 -125.488991 -7.078756
vertex -172.047333 -125.488991 -7.131582
endloop
endfacet
facet normal 0.000000 1.000000 0.000000
outer loop
vertex -177.898514 -125.488991 -15.628759
vertex -180.998505 -125.488991 -15.628759
vertex -177.898514 -125.488991 -10.178762
endloop
endfacet
facet normal 0.000000 1.000000 0.000000
outer loop
vertex -177.898514 -125.488991 -10.178762
vertex -180.998505 -125.488991 -15.628759
vertex -180.998505 -125.488991 -10.178762
endloop
endfacet
facet normal 0.000000 1.000000 0.000000
outer loop
vertex -177.898514 -125.488991 -10.178762
vertex -180.998505 -125.488991 -10.178762
vertex -177.898514 -125.488991 -7.078756
endloop
endfacet
facet normal 0.000000 1.000000 0.000000
outer loop
vertex -177.898514 -125.488991 -7.078756
vertex -180.998505 -125.488991 -10.178762
vertex -180.998505 -125.488991 -7.078756
endloop
endfacet
facet normal 0.000000 1.000000 0.000000
outer loop
vertex -177.898514 -125.488991 -7.078756
vertex -180.998505 -125.488991 -7.078756
vertex -177.898514 -125.488991 -1.628759
endloop
endfacet
facet normal 0.000000 1.000000 0.000000
outer loop
vertex -177.898514 -125.488991 -1.628759
vertex -180.998505 -125.488991 -7.078756
vertex -180.998505 -125.488991 -1.628759
endloop
endfacet
facet normal 0.000000 1.000000 0.000049
outer loop
vertex -177.898514 -125.488991 -1.628759
vertex -180.998505 -125.488991 -1.628759
vertex -177.951324 -125.488991 -1.227591
endloop
endfacet
facet normal 0.000000 1.000000 -0.000015
outer loop
vertex -177.951324 -125.488991 -1.227591
vertex -180.998505 -125.488991 -1.628759
vertex -180.945694 -125.488991 -1.227591
endloop
endfacet
facet normal 0.000000 1.000000 0.000000
outer loop
vertex -177.951324 -125.488991 -1.227591
vertex -180.945694 -125.488991 -1.227591
vertex -178.106171 -125.488991 -0.853765
endloop
endfacet
facet normal 0.000000 1.000000 0.000008
outer loop
vertex -178.106171 -125.488991 -0.853765
vertex -180.945694 -125.488991 -1.227591
vertex -180.790848 -125.488991 -0.853765
endloop
endfacet
facet normal 0.000000 1.000000 -0.000071
outer loop
vertex -178.106171 -125.488991 -0.853765
vertex -180.790848 -125.488991 -0.853765
vertex -178.352493 -125.488991 -0.532736
endloop
endfacet
facet normal 0.000000 1.000000 0.000033
outer loop
vertex -178.352493 -125.488991 -0.532736
vertex -180.790848 -125.488991 -0.853765
vertex -180.544525 -125.488991 -0.532736
endloop
endfacet
facet normal 0.000000 1.000000 0.000057
outer loop
vertex -178.352493 -125.488991 -0.532736
vertex -180.544525 -125.488991 -0.532736
vertex -178.673508 -125.488991 -0.286413
endloop
endfacet
facet normal 0.000000 1.000000 -0.000040
outer loop
vertex -178.673508 -125.488991 -0.286413
vertex -180.544525 -125.488991 -0.532736
vertex -180.223511 -125.488991 -0.286413
endloop
endfacet
facet normal 0.000000 1.000000 0.000000
outer loop
vertex -178.673508 -125.488991 -0.286413
vertex -180.223511 -125.488991 -0.286413
vertex -179.047333 -125.488991 -0.131567
endloop
endfacet
facet normal 0.000000 1.000000 0.000061
outer loop
vertex -179.047333 -125.488991 -0.131567
vertex -180.223511 -125.488991 -0.286413
vertex -179.849670 -125.488991 -0.131567
endloop
endfacet
facet normal 0.000000 1.000000 0.000000
outer loop
vertex -179.047333 -125.488991 -0.131567
vertex -179.849670 -125.488991 -0.131567
vertex -179.448502 -125.488991 -0.078756
endloop
endfacet
facet normal 0.000000 1.000000 -0.000049
outer loop
vertex -180.998505 -125.488991 -15.628759
vertex -177.898514 -125.488991 -15.628759
vertex -180.945694 -125.488991 -16.029928
endloop
endfacet
facet normal 0.000000 1.000000 0.000015
outer loop
vertex -180.945694 -125.488991 -16.029928
vertex -177.898514 -125.488991 -15.628759
vertex -177.951324 -125.488991 -16.029928
endloop
endfacet
facet normal 0.000000 1.000000 0.000000
outer loop
vertex -180.945694 -125.488991 -16.029928
vertex -177.951324 -125.488991 -16.029928
vertex -180.790848 -125.488991 -16.403753
endloop
endfacet
facet normal 0.000000 1.000000 -0.000008
outer loop
vertex -180.790848 -125.488991 -16.403753
vertex -177.951324 -125.488991 -16.029928
vertex -178.106171 -125.488991 -16.403753
endloop
endfacet
facet normal 0.000000 1.000000 0.000071
outer loop
vertex -180.790848 -125.488991 -16.403753
vertex -178.106171 -125.488991 -16.403753
vertex -180.544525 -125.488991 -16.724768
endloop
endfacet
facet normal 0.000000 1.000000 -0.000033
outer loop
vertex -180.544525 -125.488991 -16.724768
vertex -178.106171 -125.488991 -16.403753
vertex -178.352493 -125.488991 -16.724768
endloop
endfacet
facet normal 0.000000 1.000000 -0.000057
outer loop
vertex -180.544525 -125.488991 -16.724768
vertex -178.352493 -125.488991 -16.724768
vertex -180.223511 -125.488991 -16.971090
endloop
endfacet
facet normal 0.000000 1.000000 0.000040
outer loop
vertex -180.223511 -125.488991 -16.971090
vertex -178.352493 -125.488991 -16.724768
vertex -178.673508 -125.488991 -16.971090
endloop
endfacet
facet normal 0.000000 1.000000 0.000000
outer loop
vertex -180.223511 -125.488991 -16.971090
vertex -178.673508 -125.488991 -16.971090
vertex -179.849670 -125.488991 -17.125937
endloop
endfacet
facet normal 0.000000 1.000000 0.000061
outer loop
vertex -179.849670 -125.488991 -17.125937
vertex -178.673508 -125.488991 -16.971090
vertex -179.047333 -125.488991 -17.125937
endloop
endfacet
facet normal 0.000000 1.000000 0.000000
outer loop
vertex -179.849670 -125.488991 -17.125937
vertex -179.047333 -125.488991 -17.125937
vertex -179.448502 -125.488991 -17.178762
endloop
endfacet
facet normal 0.000000 1.000000 0.000000
outer loop
vertex -180.998505 -125.488991 -10.178762
vertex -186.448502 -125.488991 -10.178762
vertex -180.998505 -125.488991 -7.078756
endloop
endfacet
facet normal 0.000000 1.000000 0.000000
outer loop
vertex -180.998505 -125.488991 -7.078756
vertex -186.448502 -125.488991 -10.178762
vertex -186.448502 -125.488991 -7.078756
endloop
endfacet
facet normal 0.000000 1.000000 0.000000
outer loop
vertex -186.448502 -125.488991 -7.078756
vertex -186.448502 -125.488991 -10.178762
vertex -186.849670 -125.488991 -10.125937
endloop
endfacet
facet normal 0.000000 1.000000 0.000006
outer loop
vertex -186.448502 -125.488991 -7.078756
vertex -186.849670 -125.488991 -10.125937
vertex -187.223511 -125.488991 -9.971090
endloop
endfacet
facet normal 0.000000 1.000000 0.000000
outer loop
vertex -187.223511 -125.488991 -9.971090
vertex -187.544525 -125.488991 -9.724768
vertex -186.448502 -125.488991 -7.078756
endloop
endfacet
facet normal 0.000000 1.000000 -0.000023
outer loop
vertex -186.448502 -125.488991 -7.078756
vertex -187.544525 -125.488991 -9.724768
vertex -187.790848 -125.488991 -9.403753
endloop
endfacet
facet normal 0.000000 1.000000 0.000027
outer loop
vertex -186.448502 -125.488991 -7.078756
vertex -187.790848 -125.488991 -9.403753
vertex -187.945694 -125.488991 -9.029928
endloop
endfacet
facet normal 0.000000 1.000000 0.000000
outer loop
vertex -187.945694 -125.488991 -9.029928
vertex -187.998505 -125.488991 -8.628759
vertex -186.448502 -125.488991 -7.078756
endloop
endfacet
facet normal 0.000000 1.000000 0.000023
outer loop
vertex -186.448502 -125.488991 -7.078756
vertex -187.998505 -125.488991 -8.628759
vertex -187.945694 -125.488991 -8.227591
endloop
endfacet
facet normal 0.000000 1.000000 -0.000060
outer loop
vertex -186.448502 -125.488991 -7.078756
vertex -187.945694 -125.488991 -8.227591
vertex -187.790848 -125.488991 -7.853765
endloop
endfacet
facet normal 0.000000 1.000000 0.000127
outer loop
vertex -187.790848 -125.488991 -7.853765
vertex -187.544525 -125.488991 -7.532736
vertex -186.448502 -125.488991 -7.078756
endloop
endfacet
facet normal 0.000000 1.000000 0.000000
outer loop
vertex -186.448502 -125.488991 -7.078756
vertex -187.544525 -125.488991 -7.532736
vertex -187.223511 -125.488991 -7.286413
endloop
endfacet
facet normal 0.000000 1.000000 -0.000180
outer loop
vertex -186.448502 -125.488991 -7.078756
vertex -187.223511 -125.488991 -7.286413
vertex -186.849670 -125.488991 -7.131567
endloop
endfacet
facet normal -0.991446 0.000000 -0.130516
outer loop
vertex -177.898514 -126.488991 -1.628759
vertex -177.898514 -127.983994 -1.628759
vertex -177.951324 -126.488991 -1.227591
endloop
endfacet
facet normal -0.991446 0.000000 -0.130516
outer loop
vertex -177.951324 -126.488991 -1.227591
vertex -177.898514 -127.983994 -1.628759
vertex -177.951324 -127.983994 -1.227591
endloop
endfacet
facet normal -0.923875 0.000000 -0.382694
outer loop
vertex -177.951324 -126.488991 -1.227591
vertex -177.951324 -127.983994 -1.227591
vertex -178.106171 -126.488991 -0.853765
endloop
endfacet
facet normal -0.923878 0.000000 -0.382688
outer loop
vertex -178.106171 -126.488991 -0.853765
vertex -177.951324 -127.983994 -1.227591
vertex -178.106171 -127.983994 -0.853765
endloop
endfacet
facet normal -0.793366 0.000000 -0.608745
outer loop
vertex -178.106171 -126.488991 -0.853765
vertex -178.106171 -127.983994 -0.853765
vertex -178.352493 -126.488991 -0.532736
endloop
endfacet
facet normal -0.793369 0.000000 -0.608741
outer loop
vertex -178.352493 -126.488991 -0.532736
vertex -178.106171 -127.983994 -0.853765
vertex -178.352493 -127.983994 -0.532736
endloop
endfacet
facet normal -0.608759 0.000000 -0.793355
outer loop
vertex -178.352493 -126.488991 -0.532736
vertex -178.352493 -127.983994 -0.532736
vertex -178.673508 -126.488991 -0.286413
endloop
endfacet
facet normal -0.608765 0.000000 -0.793350
outer loop
vertex -178.673508 -126.488991 -0.286413
vertex -178.352493 -127.983994 -0.532736
vertex -178.673508 -127.983994 -0.286413
endloop
endfacet
facet normal -0.382685 0.000000 -0.923879
outer loop
vertex -178.673508 -126.488991 -0.286413
vertex -178.673508 -127.983994 -0.286413
vertex -179.047333 -126.488991 -0.131567
endloop
endfacet
facet normal -0.382694 0.000000 -0.923875
outer loop
vertex -179.047333 -126.488991 -0.131567
vertex -178.673508 -127.983994 -0.286413
vertex -179.047333 -127.983994 -0.131567
endloop
endfacet
facet normal -0.130515 0.000000 -0.991446
outer loop
vertex -179.047333 -126.488991 -0.131567
vertex -179.047333 -127.983994 -0.131567
vertex -179.448502 -126.488991 -0.078756
endloop
endfacet
facet normal -0.130516 0.000000 -0.991446
outer loop
vertex -179.448502 -126.488991 -0.078756
vertex -179.047333 -127.983994 -0.131567
vertex -179.448502 -127.983994 -0.078756
endloop
endfacet
facet normal 0.130515 0.000000 -0.991446
outer loop
vertex -179.448502 -126.488991 -0.078756
vertex -179.448502 -127.983994 -0.078756
vertex -179.849670 -126.488991 -0.131567
endloop
endfacet
facet normal 0.130516 0.000000 -0.991446
outer loop
vertex -179.849670 -126.488991 -0.131567
vertex -179.448502 -127.983994 -0.078756
vertex -179.849670 -127.983994 -0.131567
endloop
endfacet
facet normal 0.382672 0.000000 -0.923884
outer loop
vertex -179.849670 -126.488991 -0.131567
vertex -179.849670 -127.983994 -0.131567
vertex -180.223511 -126.488991 -0.286413
endloop
endfacet
facet normal 0.382681 0.000000 -0.923881
outer loop
vertex -180.223511 -126.488991 -0.286413
vertex -179.849670 -127.983994 -0.131567
vertex -180.223511 -127.983994 -0.286413
endloop
endfacet
facet normal 0.608759 0.000000 -0.793355
outer loop
vertex -180.223511 -126.488991 -0.286413
vertex -180.223511 -127.983994 -0.286413
vertex -180.544525 -126.488991 -0.532736
endloop
endfacet
facet normal 0.608765 0.000000 -0.793350
outer loop
vertex -180.544525 -126.488991 -0.532736
vertex -180.223511 -127.983994 -0.286413
vertex -180.544525 -127.983994 -0.532736
endloop
endfacet
facet normal 0.793366 0.000000 -0.608745
outer loop
vertex -180.544525 -126.488991 -0.532736
vertex -180.544525 -127.983994 -0.532736
vertex -180.790848 -126.488991 -0.853765
endloop
endfacet
facet normal 0.793369 0.000000 -0.608741
outer loop
vertex -180.790848 -126.488991 -0.853765
vertex -180.544525 -127.983994 -0.532736
vertex -180.790848 -127.983994 -0.853765
endloop
endfacet
facet normal 0.923875 0.000000 -0.382694
outer loop
vertex -180.790848 -126.488991 -0.853765
vertex -180.790848 -127.983994 -0.853765
vertex -180.945694 -126.488991 -1.227591
endloop
endfacet
facet normal 0.923877 0.000000 -0.382689
outer loop
vertex -180.945694 -126.488991 -1.227591
vertex -180.790848 -127.983994 -0.853765
vertex -180.945694 -127.983994 -1.227591
endloop
endfacet
facet normal 0.991446 0.000000 -0.130516
outer loop
vertex -180.945694 -126.488991 -1.227591
vertex -180.945694 -127.983994 -1.227591
vertex -180.998505 -126.488991 -1.628759
endloop
endfacet
facet normal 0.991446 0.000000 -0.130516
outer loop
vertex -180.998505 -126.488991 -1.628759
vertex -180.945694 -127.983994 -1.227591
vertex -180.998505 -127.983994 -1.628759
endloop
endfacet
facet normal -1.000000 0.000000 0.000000
outer loop
vertex -177.898514 -127.983994 -7.078756
vertex -177.898514 -127.983994 -1.628759
vertex -177.898514 -126.488991 -7.078756
endloop
endfacet
facet normal -1.000000 0.000000 0.000000
outer loop
vertex -177.898514 -126.488991 -7.078756
vertex -177.898514 -127.983994 -1.628759
vertex -177.898514 -126.488991 -1.628759
endloop
endfacet
facet normal 0.000000 0.000000 -1.000000
outer loop
vertex -172.448502 -127.983994 -7.078756
vertex -177.898514 -127.983994 -7.078756
vertex -172.448502 -126.488991 -7.078756
endloop
endfacet
facet normal 0.000000 0.000000 -1.000000
outer loop
vertex -172.448502 -126.488991 -7.078756
vertex -177.898514 -127.983994 -7.078756
vertex -177.898514 -126.488991 -7.078756
endloop
endfacet
facet normal -0.130513 0.000000 0.991447
outer loop
vertex -172.448563 -126.488991 -10.178762
vertex -172.448563 -127.983994 -10.178762
vertex -172.047394 -126.488991 -10.125952
endloop
endfacet
facet normal -0.130517 0.000000 0.991446
outer loop
vertex -172.047394 -126.488991 -10.125952
vertex -172.448563 -127.983994 -10.178762
vertex -172.047394 -127.983994 -10.125952
endloop
endfacet
facet normal -0.382639 0.000000 0.923898
outer loop
vertex -172.047394 -126.488991 -10.125952
vertex -172.047394 -127.983994 -10.125952
vertex -171.673553 -126.488991 -9.971121
endloop
endfacet
facet normal -0.382651 0.000000 0.923893
outer loop
vertex -171.673553 -126.488991 -9.971121
vertex -172.047394 -127.983994 -10.125952
vertex -171.673553 -127.983994 -9.971121
endloop
endfacet
facet normal -0.608716 0.000000 0.793388
outer loop
vertex -171.673553 -126.488991 -9.971121
vertex -171.673553 -127.983994 -9.971121
vertex -171.352524 -126.488991 -9.724813
endloop
endfacet
facet normal -0.608724 0.000000 0.793382
outer loop
vertex -171.352524 -126.488991 -9.724813
vertex -171.673553 -127.983994 -9.971121
vertex -171.352524 -127.983994 -9.724813
endloop
endfacet
facet normal -0.793334 0.000000 0.608787
outer loop
vertex -171.352524 -126.488991 -9.724813
vertex -171.352524 -127.983994 -9.724813
vertex -171.106186 -126.488991 -9.403799
endloop
endfacet
facet normal -0.793337 0.000000 0.608783
outer loop
vertex -171.106186 -126.488991 -9.403799
vertex -171.352524 -127.983994 -9.724813
vertex -171.106186 -127.983994 -9.403799
endloop
endfacet
facet normal -0.923867 0.000000 0.382713
outer loop
vertex -171.106186 -126.488991 -9.403799
vertex -171.106186 -127.983994 -9.403799
vertex -170.951324 -126.488991 -9.029959
endloop
endfacet
facet normal -0.923872 0.000000 0.382702
outer loop
vertex -170.951324 -126.488991 -9.029959
vertex -171.106186 -127.983994 -9.403799
vertex -170.951324 -127.983994 -9.029959
endloop
endfacet
facet normal -0.991446 0.000000 0.130516
outer loop
vertex -170.951324 -126.488991 -9.029959
vertex -170.951324 -127.983994 -9.029959
vertex -170.898514 -126.488991 -8.628790
endloop
endfacet
facet normal -0.991446 0.000000 0.130516
outer loop
vertex -170.898514 -126.488991 -8.628790
vertex -170.951324 -127.983994 -9.029959
vertex -170.898514 -127.983994 -8.628790
endloop
endfacet
facet normal -0.991451 0.000000 -0.130480
outer loop
vertex -170.898514 -126.488991 -8.628790
vertex -170.898514 -127.983994 -8.628790
vertex -170.951309 -126.488991 -8.227621
endloop
endfacet
facet normal -0.991451 0.000000 -0.130478
outer loop
vertex -170.951309 -126.488991 -8.227621
vertex -170.898514 -127.983994 -8.628790
vertex -170.951309 -127.983994 -8.227621
endloop
endfacet
facet normal -0.923880 0.000000 -0.382681
outer loop
vertex -170.951309 -126.488991 -8.227621
vertex -170.951309 -127.983994 -8.227621
vertex -171.106155 -126.488991 -7.853781
endloop
endfacet
facet normal -0.923883 0.000000 -0.382675
outer loop
vertex -171.106155 -126.488991 -7.853781
vertex -170.951309 -127.983994 -8.227621
vertex -171.106155 -127.983994 -7.853781
endloop
endfacet
facet normal -0.793366 0.000000 -0.608745
outer loop
vertex -171.106155 -126.488991 -7.853781
vertex -171.106155 -127.983994 -7.853781
vertex -171.352478 -126.488991 -7.532751
endloop
endfacet
facet normal -0.793369 0.000000 -0.608741
outer loop
vertex -171.352478 -126.488991 -7.532751
vertex -171.106155 -127.983994 -7.853781
vertex -171.352478 -127.983994 -7.532751
endloop
endfacet
facet normal -0.608758 0.000000 -0.793356
outer loop
vertex -171.352478 -126.488991 -7.532751
vertex -171.352478 -127.983994 -7.532751
vertex -171.673492 -126.488991 -7.286428
endloop
endfacet
facet normal -0.608766 0.000000 -0.793350
outer loop
vertex -171.673492 -126.488991 -7.286428
vertex -171.352478 -127.983994 -7.532751
vertex -171.673492 -127.983994 -7.286428
endloop
endfacet
facet normal -0.382671 0.000000 -0.923885
outer loop
vertex -171.673492 -126.488991 -7.286428
vertex -171.673492 -127.983994 -7.286428
vertex -172.047333 -126.488991 -7.131582
endloop
endfacet
facet normal -0.382680 0.000000 -0.923881
outer loop
vertex -172.047333 -126.488991 -7.131582
vertex -171.673492 -127.983994 -7.286428
vertex -172.047333 -127.983994 -7.131582
endloop
endfacet
facet normal -0.130553 0.000000 -0.991441
outer loop
vertex -172.047333 -126.488991 -7.131582
vertex -172.047333 -127.983994 -7.131582
vertex -172.448502 -126.488991 -7.078756
endloop
endfacet
facet normal -0.130555 0.000000 -0.991441
outer loop
vertex -172.448502 -126.488991 -7.078756
vertex -172.047333 -127.983994 -7.131582
vertex -172.448502 -127.983994 -7.078756
endloop
endfacet
facet normal 0.000000 0.000000 1.000000
outer loop
vertex -172.448563 -127.983994 -10.178762
vertex -172.448563 -126.488991 -10.178762
vertex -172.448624 -127.983994 -10.178762
endloop
endfacet
facet normal 0.000000 0.000000 1.000000
outer loop
vertex -172.448624 -127.983994 -10.178762
vertex -172.448563 -126.488991 -10.178762
vertex -172.448624 -126.488991 -10.178762
endloop
endfacet
facet normal 0.000000 0.000000 1.000000
outer loop
vertex -177.898514 -127.983994 -10.178762
vertex -172.448624 -127.983994 -10.178762
vertex -177.898514 -126.488991 -10.178762
endloop
endfacet
facet normal 0.000000 0.000000 1.000000
outer loop
vertex -177.898514 -126.488991 -10.178762
vertex -172.448624 -127.983994 -10.178762
vertex -172.448624 -126.488991 -10.178762
endloop
endfacet
facet normal -1.000000 0.000000 0.000000
outer loop
vertex -177.898514 -127.983994 -15.628759
vertex -177.898514 -127.983994 -10.178762
vertex -177.898514 -126.488991 -15.628759
endloop
endfacet
facet normal -1.000000 0.000000 0.000000
outer loop
vertex -177.898514 -126.488991 -15.628759
vertex -177.898514 -127.983994 -10.178762
vertex -177.898514 -126.488991 -10.178762
endloop
endfacet
facet normal 0.991446 0.000000 0.130515
outer loop
vertex -180.998505 -126.488991 -15.628759
vertex -180.998505 -127.983994 -15.628759
vertex -180.945694 -126.488991 -16.029928
endloop
endfacet
facet normal 0.991446 0.000000 0.130516
outer loop
vertex -180.945694 -126.488991 -16.029928
vertex -180.998505 -127.983994 -15.628759
vertex -180.945694 -127.983994 -16.029928
endloop
endfacet
facet normal 0.923875 0.000000 0.382694
outer loop
vertex -180.945694 -126.488991 -16.029928
vertex -180.945694 -127.983994 -16.029928
vertex -180.790848 -126.488991 -16.403753
endloop
endfacet
facet normal 0.923878 0.000000 0.382687
outer loop
vertex -180.790848 -126.488991 -16.403753
vertex -180.945694 -127.983994 -16.029928
vertex -180.790848 -127.983994 -16.403753
endloop
endfacet
facet normal 0.793351 0.000000 0.608765
outer loop
vertex -180.790848 -126.488991 -16.403753
vertex -180.790848 -127.983994 -16.403753
vertex -180.544525 -126.488991 -16.724768
endloop
endfacet
facet normal 0.793356 0.000000 0.608758
outer loop
vertex -180.544525 -126.488991 -16.724768
vertex -180.790848 -127.983994 -16.403753
vertex -180.544525 -127.983994 -16.724768
endloop
endfacet
facet normal 0.608758 0.000000 0.793356
outer loop
vertex -180.544525 -126.488991 -16.724768
vertex -180.544525 -127.983994 -16.724768
vertex -180.223511 -126.488991 -16.971090
endloop
endfacet
facet normal 0.608764 0.000000 0.793351
outer loop
vertex -180.223511 -126.488991 -16.971090
vertex -180.544525 -127.983994 -16.724768
vertex -180.223511 -127.983994 -16.971090
endloop
endfacet
facet normal 0.382671 0.000000 0.923885
outer loop
vertex -180.223511 -126.488991 -16.971090
vertex -180.223511 -127.983994 -16.971090
vertex -179.849670 -126.488991 -17.125937
endloop
endfacet
facet normal 0.382686 0.000000 0.923879
outer loop
vertex -179.849670 -126.488991 -17.125937
vertex -180.223511 -127.983994 -16.971090
vertex -179.849670 -127.983994 -17.125937
endloop
endfacet
facet normal 0.130547 0.000000 0.991442
outer loop
vertex -179.849670 -126.488991 -17.125937
vertex -179.849670 -127.983994 -17.125937
vertex -179.448502 -126.488991 -17.178762
endloop
endfacet
facet normal 0.130555 0.000000 0.991441
outer loop
vertex -179.448502 -126.488991 -17.178762
vertex -179.849670 -127.983994 -17.125937
vertex -179.448502 -127.983994 -17.178762
endloop
endfacet
facet normal -0.130553 0.000000 0.991441
outer loop
vertex -179.448502 -126.488991 -17.178762
vertex -179.448502 -127.983994 -17.178762
vertex -179.047333 -126.488991 -17.125937
endloop
endfacet
facet normal -0.130548 0.000000 0.991442
outer loop
vertex -179.047333 -126.488991 -17.125937
vertex -179.448502 -127.983994 -17.178762
vertex -179.047333 -127.983994 -17.125937
endloop
endfacet
facet normal -0.382690 0.000000 0.923877
outer loop
vertex -179.047333 -126.488991 -17.125937
vertex -179.047333 -127.983994 -17.125937
vertex -178.673508 -126.488991 -16.971090
endloop
endfacet
facet normal -0.382694 0.000000 0.923875
outer loop
vertex -178.673508 -126.488991 -16.971090
vertex -179.047333 -127.983994 -17.125937
vertex -178.673508 -127.983994 -16.971090
endloop
endfacet
facet normal -0.608758 0.000000 0.793356
outer loop
vertex -178.673508 -126.488991 -16.971090
vertex -178.673508 -127.983994 -16.971090
vertex -178.352493 -126.488991 -16.724768
endloop
endfacet
facet normal -0.608764 0.000000 0.793351
outer loop
vertex -178.352493 -126.488991 -16.724768
vertex -178.673508 -127.983994 -16.971090
vertex -178.352493 -127.983994 -16.724768
endloop
endfacet
facet normal -0.793353 0.000000 0.608762
outer loop
vertex -178.352493 -126.488991 -16.724768
vertex -178.352493 -127.983994 -16.724768
vertex -178.106171 -126.488991 -16.403753
endloop
endfacet
facet normal -0.793354 0.000000 0.608761
outer loop
vertex -178.106171 -126.488991 -16.403753
vertex -178.352493 -127.983994 -16.724768
vertex -178.106171 -127.983994 -16.403753
endloop
endfacet
facet normal -0.923876 0.000000 0.382692
outer loop
vertex -178.106171 -126.488991 -16.403753
vertex -178.106171 -127.983994 -16.403753
vertex -177.951324 -126.488991 -16.029928
endloop
endfacet
facet normal -0.923877 0.000000 0.382689
outer loop
vertex -177.951324 -126.488991 -16.029928
vertex -178.106171 -127.983994 -16.403753
vertex -177.951324 -127.983994 -16.029928
endloop
endfacet
facet normal -0.991446 0.000000 0.130516
outer loop
vertex -177.951324 -126.488991 -16.029928
vertex -177.951324 -127.983994 -16.029928
vertex -177.898514 -126.488991 -15.628759
endloop
endfacet
facet normal -0.991446 0.000000 0.130515
outer loop
vertex -177.898514 -126.488991 -15.628759
vertex -177.951324 -127.983994 -16.029928
vertex -177.898514 -127.983994 -15.628759
endloop
endfacet
facet normal 1.000000 0.000000 0.000000
outer loop
vertex -180.998505 -127.983994 -10.178762
vertex -180.998505 -127.983994 -15.628759
vertex -180.998505 -126.488991 -10.178762
endloop
endfacet
facet normal 1.000000 0.000000 0.000000
outer loop
vertex -180.998505 -126.488991 -10.178762
vertex -180.998505 -127.983994 -15.628759
vertex -180.998505 -126.488991 -15.628759
endloop
endfacet
facet normal 0.000000 0.000000 1.000000
outer loop
vertex -186.448502 -127.983994 -10.178762
vertex -180.998505 -127.983994 -10.178762
vertex -186.448502 -126.488991 -10.178762
endloop
endfacet
facet normal 0.000000 0.000000 1.000000
outer loop
vertex -186.448502 -126.488991 -10.178762
vertex -180.998505 -127.983994 -10.178762
vertex -180.998505 -126.488991 -10.178762
endloop
endfacet
facet normal 0.130516 0.000000 -0.991446
outer loop
vertex -186.448502 -126.488991 -7.078756
vertex -186.448502 -127.983994 -7.078756
vertex -186.849670 -126.488991 -7.131567
endloop
endfacet
facet normal 0.130517 0.000000 -0.991446
outer loop
vertex -186.849670 -126.488991 -7.131567
vertex -186.448502 -127.983994 -7.078756
vertex -186.849670 -127.983994 -7.131567
endloop
endfacet
facet normal 0.382671 0.000000 -0.923885
outer loop
vertex -186.849670 -126.488991 -7.131567
vertex -186.849670 -127.983994 -7.131567
vertex -187.223511 -126.488991 -7.286413
endloop
endfacet
facet normal 0.382680 0.000000 -0.923881
outer loop
vertex -187.223511 -126.488991 -7.286413
vertex -186.849670 -127.983994 -7.131567
vertex -187.223511 -127.983994 -7.286413
endloop
endfacet
facet normal 0.608760 0.000000 -0.793354
outer loop
vertex -187.223511 -126.488991 -7.286413
vertex -187.223511 -127.983994 -7.286413
vertex -187.544525 -126.488991 -7.532736
endloop
endfacet
facet normal 0.608764 0.000000 -0.793351
outer loop
vertex -187.544525 -126.488991 -7.532736
vertex -187.223511 -127.983994 -7.286413
vertex -187.544525 -127.983994 -7.532736
endloop
endfacet
facet normal 0.793366 0.000000 -0.608745
outer loop
vertex -187.544525 -126.488991 -7.532736
vertex -187.544525 -127.983994 -7.532736
vertex -187.790848 -126.488991 -7.853765
endloop
endfacet
facet normal 0.793369 0.000000 -0.608741
outer loop
vertex -187.790848 -126.488991 -7.853765
vertex -187.544525 -127.983994 -7.532736
vertex -187.790848 -127.983994 -7.853765
endloop
endfacet
facet normal 0.923875 0.000000 -0.382693
outer loop
vertex -187.790848 -126.488991 -7.853765
vertex -187.790848 -127.983994 -7.853765
vertex -187.945694 -126.488991 -8.227591
endloop
endfacet
facet normal 0.923877 0.000000 -0.382689
outer loop
vertex -187.945694 -126.488991 -8.227591
vertex -187.790848 -127.983994 -7.853765
vertex -187.945694 -127.983994 -8.227591
endloop
endfacet
facet normal 0.991446 0.000000 -0.130516
outer loop
vertex -187.945694 -126.488991 -8.227591
vertex -187.945694 -127.983994 -8.227591
vertex -187.998505 -126.488991 -8.628759
endloop
endfacet
facet normal 0.991446 0.000000 -0.130516
outer loop
vertex -187.998505 -126.488991 -8.628759
vertex -187.945694 -127.983994 -8.227591
vertex -187.998505 -127.983994 -8.628759
endloop
endfacet
facet normal 0.991446 0.000000 0.130516
outer loop
vertex -187.998505 -126.488991 -8.628759
vertex -187.998505 -127.983994 -8.628759
vertex -187.945694 -126.488991 -9.029928
endloop
endfacet
facet normal 0.991446 0.000000 0.130516
outer loop
vertex -187.945694 -126.488991 -9.029928
vertex -187.998505 -127.983994 -8.628759
vertex -187.945694 -127.983994 -9.029928
endloop
endfacet
facet normal 0.923875 0.000000 0.382693
outer loop
vertex -187.945694 -126.488991 -9.029928
vertex -187.945694 -127.983994 -9.029928
vertex -187.790848 -126.488991 -9.403753
endloop
endfacet
facet normal 0.923877 0.000000 0.382689
outer loop
vertex -187.790848 -126.488991 -9.403753
vertex -187.945694 -127.983994 -9.029928
vertex -187.790848 -127.983994 -9.403753
endloop
endfacet
facet normal 0.793352 0.000000 0.608764
outer loop
vertex -187.790848 -126.488991 -9.403753
vertex -187.790848 -127.983994 -9.403753
vertex -187.544525 -126.488991 -9.724768
endloop
endfacet
facet normal 0.793355 0.000000 0.608760
outer loop
vertex -187.544525 -126.488991 -9.724768
vertex -187.790848 -127.983994 -9.403753
vertex -187.544525 -127.983994 -9.724768
endloop
endfacet
facet normal 0.608760 0.000000 0.793354
outer loop
vertex -187.544525 -126.488991 -9.724768
vertex -187.544525 -127.983994 -9.724768
vertex -187.223511 -126.488991 -9.971090
endloop
endfacet
facet normal 0.608764 0.000000 0.793351
outer loop
vertex -187.223511 -126.488991 -9.971090
vertex -187.544525 -127.983994 -9.724768
vertex -187.223511 -127.983994 -9.971090
endloop
endfacet
facet normal 0.382674 0.000000 0.923883
outer loop
vertex -187.223511 -126.488991 -9.971090
vertex -187.223511 -127.983994 -9.971090
vertex -186.849670 -126.488991 -10.125937
endloop
endfacet
facet normal 0.382680 0.000000 0.923881
outer loop
vertex -186.849670 -126.488991 -10.125937
vertex -187.223511 -127.983994 -9.971090
vertex -186.849670 -127.983994 -10.125937
endloop
endfacet
facet normal 0.130553 0.000000 0.991441
outer loop
vertex -186.849670 -126.488991 -10.125937
vertex -186.849670 -127.983994 -10.125937
vertex -186.448502 -126.488991 -10.178762
endloop
endfacet
facet normal 0.130552 0.000000 0.991441
outer loop
vertex -186.448502 -126.488991 -10.178762
vertex -186.849670 -127.983994 -10.125937
vertex -186.448502 -127.983994 -10.178762
endloop
endfacet
facet normal 0.000000 0.000000 -1.000000
outer loop
vertex -180.998505 -127.983994 -7.078756
vertex -186.448502 -127.983994 -7.078756
vertex -180.998505 -126.488991 -7.078756
endloop
endfacet
facet normal 0.000000 0.000000 -1.000000
outer loop
vertex -180.998505 -126.488991 -7.078756
vertex -186.448502 -127.983994 -7.078756
vertex -186.448502 -126.488991 -7.078756
endloop
endfacet
facet normal 1.000000 0.000000 0.000000
outer loop
vertex -180.998505 -127.983994 -1.628759
vertex -180.998505 -127.983994 -7.078756
vertex -180.998505 -126.488991 -1.628759
endloop
endfacet
facet normal 1.000000 0.000000 0.000000
outer loop
vertex -180.998505 -126.488991 -1.628759
vertex -180.998505 -127.983994 -7.078756
vertex -180.998505 -126.488991 -7.078756
endloop
endfacet
facet normal 0.000000 -1.000000 0.000000
outer loop
vertex -172.448624 -126.488991 -10.178762
vertex -177.898514 -126.488991 -7.078756
vertex -177.898514 -126.488991 -10.178762
endloop
endfacet
facet normal 0.000000 -1.000000 0.000000
outer loop
vertex -177.898514 -126.488991 -10.178762
vertex -177.898514 -126.488991 -7.078756
vertex -180.998505 -126.488991 -10.178762
endloop
endfacet
facet normal 0.000000 -1.000000 0.000000
outer loop
vertex -177.898514 -126.488991 -10.178762
vertex -180.998505 -126.488991 -10.178762
vertex -177.898514 -126.488991 -15.628759
endloop
endfacet
facet normal 0.000000 -1.000000 0.000000
outer loop
vertex -177.898514 -126.488991 -15.628759
vertex -180.998505 -126.488991 -10.178762
vertex -180.998505 -126.488991 -15.628759
endloop
endfacet
facet normal 0.000000 -1.000000 0.000000
outer loop
vertex -177.898514 -126.488991 -15.628759
vertex -180.998505 -126.488991 -15.628759
vertex -177.951324 -126.488991 -16.029928
endloop
endfacet
facet normal 0.000000 -1.000000 0.000010
outer loop
vertex -177.951324 -126.488991 -16.029928
vertex -180.998505 -126.488991 -15.628759
vertex -180.945694 -126.488991 -16.029928
endloop
endfacet
facet normal 0.000000 -1.000000 -0.000055
outer loop
vertex -177.951324 -126.488991 -16.029928
vertex -180.945694 -126.488991 -16.029928
vertex -178.106171 -126.488991 -16.403753
endloop
endfacet
facet normal 0.000000 -1.000000 0.000008
outer loop
vertex -178.106171 -126.488991 -16.403753
vertex -180.945694 -126.488991 -16.029928
vertex -180.790848 -126.488991 -16.403753
endloop
endfacet
facet normal 0.000000 -1.000000 0.000000
outer loop
vertex -178.106171 -126.488991 -16.403753
vertex -180.790848 -126.488991 -16.403753
vertex -178.352493 -126.488991 -16.724768
endloop
endfacet
facet normal 0.000000 -1.000000 -0.000011
outer loop
vertex -178.352493 -126.488991 -16.724768
vertex -180.790848 -126.488991 -16.403753
vertex -180.544525 -126.488991 -16.724768
endloop
endfacet
facet normal 0.000000 -1.000000 0.000113
outer loop
vertex -178.352493 -126.488991 -16.724768
vertex -180.544525 -126.488991 -16.724768
vertex -178.673508 -126.488991 -16.971090
endloop
endfacet
facet normal 0.000000 -1.000000 -0.000040
outer loop
vertex -178.673508 -126.488991 -16.971090
vertex -180.544525 -126.488991 -16.724768
vertex -180.223511 -126.488991 -16.971090
endloop
endfacet
facet normal 0.000000 -1.000000 0.000000
outer loop
vertex -178.673508 -126.488991 -16.971090
vertex -180.223511 -126.488991 -16.971090
vertex -179.047333 -126.488991 -17.125937
endloop
endfacet
facet normal 0.000000 -1.000000 0.000061
outer loop
vertex -179.047333 -126.488991 -17.125937
vertex -180.223511 -126.488991 -16.971090
vertex -179.849670 -126.488991 -17.125937
endloop
endfacet
facet normal 0.000000 -1.000000 0.000000
outer loop
vertex -179.047333 -126.488991 -17.125937
vertex -179.849670 -126.488991 -17.125937
vertex -179.448502 -126.488991 -17.178762
endloop
endfacet
facet normal 0.000000 -1.000000 -0.000000
outer loop
vertex -177.898514 -126.488991 -7.078756
vertex -172.448624 -126.488991 -10.178762
vertex -172.448502 -126.488991 -7.078756
endloop
endfacet
facet normal 0.000000 -1.000000 0.000000
outer loop
vertex -172.448502 -126.488991 -7.078756
vertex -172.448624 -126.488991 -10.178762
vertex -172.448563 -126.488991 -10.178762
endloop
endfacet
facet normal 0.000000 -1.000000 0.000000
outer loop
vertex -172.448502 -126.488991 -7.078756
vertex -172.448563 -126.488991 -10.178762
vertex -172.047394 -126.488991 -10.125952
endloop
endfacet
facet normal 0.000000 -1.000000 -0.000013
outer loop
vertex -172.047394 -126.488991 -10.125952
vertex -171.673553 -126.488991 -9.971121
vertex -172.448502 -126.488991 -7.078756
endloop
endfacet
facet normal 0.000000 -1.000000 0.000014
outer loop
vertex -172.448502 -126.488991 -7.078756
vertex -171.673553 -126.488991 -9.971121
vertex -171.352524 -126.488991 -9.724813
endloop
endfacet
facet normal 0.000000 -1.000000 -0.000023
outer loop
vertex -172.448502 -126.488991 -7.078756
vertex -171.352524 -126.488991 -9.724813
vertex -171.106186 -126.488991 -9.403799
endloop
endfacet
facet normal 0.000000 -1.000000 0.000035
outer loop
vertex -171.106186 -126.488991 -9.403799
vertex -170.951324 -126.488991 -9.029959
vertex -172.448502 -126.488991 -7.078756
endloop
endfacet
facet normal 0.000000 -1.000000 -0.000026
outer loop
vertex -172.448502 -126.488991 -7.078756
vertex -170.951324 -126.488991 -9.029959
vertex -170.898514 -126.488991 -8.628790
endloop
endfacet
facet normal 0.000000 -1.000000 0.000005
outer loop
vertex -172.448502 -126.488991 -7.078756
vertex -170.898514 -126.488991 -8.628790
vertex -170.951309 -126.488991 -8.227621
endloop
endfacet
facet normal 0.000000 -1.000000 0.000080
outer loop
vertex -170.951309 -126.488991 -8.227621
vertex -171.106155 -126.488991 -7.853781
vertex -172.448502 -126.488991 -7.078756
endloop
endfacet
facet normal 0.000000 -1.000000 -0.000095
outer loop
vertex -172.448502 -126.488991 -7.078756
vertex -171.106155 -126.488991 -7.853781
vertex -171.352478 -126.488991 -7.532751
endloop
endfacet
facet normal 0.000000 -1.000000 0.000000
outer loop
vertex -172.448502 -126.488991 -7.078756
vertex -171.352478 -126.488991 -7.532751
vertex -171.673492 -126.488991 -7.286428
endloop
endfacet
facet normal 0.000000 -1.000000 0.000180
outer loop
vertex -171.673492 -126.488991 -7.286428
vertex -172.047333 -126.488991 -7.131582
vertex -172.448502 -126.488991 -7.078756
endloop
endfacet
facet normal 0.000000 -1.000000 0.000000
outer loop
vertex -177.898514 -126.488991 -1.628759
vertex -180.998505 -126.488991 -1.628759
vertex -177.898514 -126.488991 -7.078756
endloop
endfacet
facet normal 0.000000 -1.000000 0.000000
outer loop
vertex -177.898514 -126.488991 -7.078756
vertex -180.998505 -126.488991 -1.628759
vertex -180.998505 -126.488991 -7.078756
endloop
endfacet
facet normal 0.000000 -1.000000 0.000000
outer loop
vertex -177.898514 -126.488991 -7.078756
vertex -180.998505 -126.488991 -7.078756
vertex -180.998505 -126.488991 -10.178762
endloop
endfacet
facet normal 0.000000 -1.000000 0.000000
outer loop
vertex -180.998505 -126.488991 -10.178762
vertex -180.998505 -126.488991 -7.078756
vertex -186.448502 -126.488991 -10.178762
endloop
endfacet
facet normal 0.000000 -1.000000 0.000000
outer loop
vertex -186.448502 -126.488991 -10.178762
vertex -180.998505 -126.488991 -7.078756
vertex -186.448502 -126.488991 -7.078756
endloop
endfacet
facet normal 0.000000 -1.000000 0.000000
outer loop
vertex -186.448502 -126.488991 -10.178762
vertex -186.448502 -126.488991 -7.078756
vertex -186.849670 -126.488991 -10.125937
endloop
endfacet
facet normal 0.000000 -1.000000 -0.000013
outer loop
vertex -186.849670 -126.488991 -10.125937
vertex -186.448502 -126.488991 -7.078756
vertex -187.223511 -126.488991 -9.971090
endloop
endfacet
facet normal 0.000000 -1.000000 0.000000
outer loop
vertex -187.223511 -126.488991 -9.971090
vertex -186.448502 -126.488991 -7.078756
vertex -187.544525 -126.488991 -9.724768
endloop
endfacet
facet normal 0.000000 -1.000000 0.000030
outer loop
vertex -187.544525 -126.488991 -9.724768
vertex -186.448502 -126.488991 -7.078756
vertex -187.790848 -126.488991 -9.403753
endloop
endfacet
facet normal 0.000000 -1.000000 -0.000035
outer loop
vertex -187.790848 -126.488991 -9.403753
vertex -186.448502 -126.488991 -7.078756
vertex -187.945694 -126.488991 -9.029928
endloop
endfacet
facet normal 0.000000 -1.000000 0.000000
outer loop
vertex -187.945694 -126.488991 -9.029928
vertex -186.448502 -126.488991 -7.078756
vertex -187.998505 -126.488991 -8.628759
endloop
endfacet
facet normal 0.000000 -1.000000 0.000000
outer loop
vertex -187.998505 -126.488991 -8.628759
vertex -186.448502 -126.488991 -7.078756
vertex -187.945694 -126.488991 -8.227591
endloop
endfacet
facet normal 0.000000 -1.000000 0.000080
outer loop
vertex -187.945694 -126.488991 -8.227591
vertex -186.448502 -126.488991 -7.078756
vertex -187.790848 -126.488991 -7.853765
endloop
endfacet
facet normal 0.000000 -1.000000 -0.000127
outer loop
vertex -187.790848 -126.488991 -7.853765
vertex -186.448502 -126.488991 -7.078756
vertex -187.544525 -126.488991 -7.532736
endloop
endfacet
facet normal 0.000000 -1.000000 0.000000
outer loop
vertex -187.544525 -126.488991 -7.532736
vertex -186.448502 -126.488991 -7.078756
vertex -187.223511 -126.488991 -7.286413
endloop
endfacet
facet normal 0.000000 -1.000000 0.000180
outer loop
vertex -187.223511 -126.488991 -7.286413
vertex -186.448502 -126.488991 -7.078756
vertex -186.849670 -126.488991 -7.131567
endloop
endfacet
facet normal 0.000000 -1.000000 0.000000
outer loop
vertex -180.998505 -126.488991 -1.628759
vertex -177.898514 -126.488991 -1.628759
vertex -180.945694 -126.488991 -1.227591
endloop
endfacet
facet normal 0.000000 -1.000000 -0.000010
outer loop
vertex -180.945694 -126.488991 -1.227591
vertex -177.898514 -126.488991 -1.628759
vertex -177.951324 -126.488991 -1.227591
endloop
endfacet
facet normal 0.000000 -1.000000 0.000055
outer loop
vertex -180.945694 -126.488991 -1.227591
vertex -177.951324 -126.488991 -1.227591
vertex -180.790848 -126.488991 -0.853765
endloop
endfacet
facet normal 0.000000 -1.000000 -0.000008
outer loop
vertex -180.790848 -126.488991 -0.853765
vertex -177.951324 -126.488991 -1.227591
vertex -178.106171 -126.488991 -0.853765
endloop
endfacet
facet normal 0.000000 -1.000000 0.000000
outer loop
vertex -180.790848 -126.488991 -0.853765
vertex -178.106171 -126.488991 -0.853765
vertex -180.544525 -126.488991 -0.532736
endloop
endfacet
facet normal 0.000000 -1.000000 0.000011
outer loop
vertex -180.544525 -126.488991 -0.532736
vertex -178.106171 -126.488991 -0.853765
vertex -178.352493 -126.488991 -0.532736
endloop
endfacet
facet normal 0.000000 -1.000000 -0.000113
outer loop
vertex -180.544525 -126.488991 -0.532736
vertex -178.352493 -126.488991 -0.532736
vertex -180.223511 -126.488991 -0.286413
endloop
endfacet
facet normal 0.000000 -1.000000 0.000040
outer loop
vertex -180.223511 -126.488991 -0.286413
vertex -178.352493 -126.488991 -0.532736
vertex -178.673508 -126.488991 -0.286413
endloop
endfacet
facet normal 0.000000 -1.000000 0.000000
outer loop
vertex -180.223511 -126.488991 -0.286413
vertex -178.673508 -126.488991 -0.286413
vertex -179.849670 -126.488991 -0.131567
endloop
endfacet
facet normal 0.000000 -1.000000 0.000061
outer loop
vertex -179.849670 -126.488991 -0.131567
vertex -178.673508 -126.488991 -0.286413
vertex -179.047333 -126.488991 -0.131567
endloop
endfacet
facet normal 0.000000 -1.000000 0.000000
outer loop
vertex -179.849670 -126.488991 -0.131567
vertex -179.047333 -126.488991 -0.131567
vertex -179.448502 -126.488991 -0.078756
endloop
endfacet
facet normal -0.997413 0.000000 0.071887
outer loop
vertex -188.534470 -123.993988 0.457209
vertex -189.877625 -123.993988 -18.178762
vertex -188.534470 -127.983994 0.457209
endloop
endfacet
facet normal -0.997413 0.000000 0.071887
outer loop
vertex -188.534470 -127.983994 0.457209
vertex -189.877625 -123.993988 -18.178762
vertex -189.877625 -127.983994 -18.178762
endloop
endfacet
facet normal -0.232865 0.000000 0.972509
outer loop
vertex -179.444443 -123.993988 2.633799
vertex -188.534470 -123.993988 0.457209
vertex -179.444443 -127.983994 2.633799
endloop
endfacet
facet normal -0.232865 0.000000 0.972509
outer loop
vertex -179.444443 -127.983994 2.633799
vertex -188.534470 -123.993988 0.457209
vertex -188.534470 -127.983994 0.457209
endloop
endfacet
facet normal 0.233063 0.000000 0.972462
outer loop
vertex -170.362549 -123.993988 0.457209
vertex -179.444443 -123.993988 2.633799
vertex -170.362549 -127.983994 0.457209
endloop
endfacet
facet normal 0.233063 0.000000 0.972462
outer loop
vertex -170.362549 -127.983994 0.457209
vertex -179.444443 -123.993988 2.633799
vertex -179.444443 -127.983994 2.633799
endloop
endfacet
facet normal 0.997413 0.000000 0.071887
outer loop
vertex -169.019394 -123.993988 -18.178762
vertex -170.362549 -123.993988 0.457209
vertex -169.019394 -127.983994 -18.178762
endloop
endfacet
facet normal 0.997413 0.000000 0.071887
outer loop
vertex -169.019394 -127.983994 -18.178762
vertex -170.362549 -123.993988 0.457209
vertex -170.362549 -127.983994 0.457209
endloop
endfacet
facet normal 0.000000 0.000000 -1.000000
outer loop
vertex -189.877625 -123.993988 -18.178762
vertex -169.019394 -123.993988 -18.178762
vertex -189.877625 -127.983994 -18.178762
endloop
endfacet
facet normal 0.000000 0.000000 -1.000000
outer loop
vertex -189.877625 -127.983994 -18.178762
vertex -169.019394 -123.993988 -18.178762
vertex -169.019394 -127.983994 -18.178762
endloop
endfacet
facet normal 0.000000 -1.000000 0.000000
outer loop
vertex -177.898514 -127.983994 -10.178762
vertex -177.898514 -127.983994 -15.628759
vertex -172.448624 -127.983994 -10.178762
endloop
endfacet
facet normal 0.000000 -1.000000 0.000000
outer loop
vertex -172.448624 -127.983994 -10.178762
vertex -177.898514 -127.983994 -15.628759
vertex -169.019394 -127.983994 -18.178762
endloop
endfacet
facet normal 0.000000 -1.000000 0.000000
outer loop
vertex -172.448624 -127.983994 -10.178762
vertex -169.019394 -127.983994 -18.178762
vertex -172.448563 -127.983994 -10.178762
endloop
endfacet
facet normal 0.000000 -1.000000 -0.000018
outer loop
vertex -172.448563 -127.983994 -10.178762
vertex -169.019394 -127.983994 -18.178762
vertex -172.047394 -127.983994 -10.125952
endloop
endfacet
facet normal 0.000000 -1.000000 0.000000
outer loop
vertex -172.047394 -127.983994 -10.125952
vertex -169.019394 -127.983994 -18.178762
vertex -171.673553 -127.983994 -9.971121
endloop
endfacet
facet normal 0.000000 -1.000000 0.000000
outer loop
vertex -171.673553 -127.983994 -9.971121
vertex -169.019394 -127.983994 -18.178762
vertex -171.352524 -127.983994 -9.724813
endloop
endfacet
facet normal 0.000000 -1.000000 0.000000
outer loop
vertex -171.352524 -127.983994 -9.724813
vertex -169.019394 -127.983994 -18.178762
vertex -171.106186 -127.983994 -9.403799
endloop
endfacet
facet normal 0.000000 -1.000000 -0.000014
outer loop
vertex -171.106186 -127.983994 -9.403799
vertex -169.019394 -127.983994 -18.178762
vertex -170.951324 -127.983994 -9.029959
endloop
endfacet
facet normal 0.000000 -1.000000 -0.000024
outer loop
vertex -170.951324 -127.983994 -9.029959
vertex -169.019394 -127.983994 -18.178762
vertex -170.898514 -127.983994 -8.628790
endloop
endfacet
facet normal 0.000000 -1.000000 0.000000
outer loop
vertex -170.898514 -127.983994 -8.628790
vertex -169.019394 -127.983994 -18.178762
vertex -170.362549 -127.983994 0.457209
endloop
endfacet
facet normal 0.000000 -1.000000 0.000000
outer loop
vertex -170.898514 -127.983994 -8.628790
vertex -170.362549 -127.983994 0.457209
vertex -170.951309 -127.983994 -8.227621
endloop
endfacet
facet normal 0.000000 -1.000000 0.000000
outer loop
vertex -170.951309 -127.983994 -8.227621
vertex -170.362549 -127.983994 0.457209
vertex -171.106155 -127.983994 -7.853781
endloop
endfacet
facet normal 0.000000 -1.000000 0.000000
outer loop
vertex -171.106155 -127.983994 -7.853781
vertex -170.362549 -127.983994 0.457209
vertex -171.352478 -127.983994 -7.532751
endloop
endfacet
facet normal 0.000000 -1.000000 0.000000
outer loop
vertex -171.352478 -127.983994 -7.532751
vertex -170.362549 -127.983994 0.457209
vertex -171.673492 -127.983994 -7.286428
endloop
endfacet
facet normal 0.000000 -1.000000 0.000000
outer loop
vertex -171.673492 -127.983994 -7.286428
vertex -170.362549 -127.983994 0.457209
vertex -172.047333 -127.983994 -7.131582
endloop
endfacet
facet normal 0.000000 -1.000000 0.000000
outer loop
vertex -172.047333 -127.983994 -7.131582
vertex -170.362549 -127.983994 0.457209
vertex -172.448502 -127.983994 -7.078756
endloop
endfacet
facet normal 0.000000 -1.000000 0.000000
outer loop
vertex -172.448502 -127.983994 -7.078756
vertex -170.362549 -127.983994 0.457209
vertex -177.898514 -127.983994 -1.628759
endloop
endfacet
facet normal 0.000000 -1.000000 0.000000
outer loop
vertex -172.448502 -127.983994 -7.078756
vertex -177.898514 -127.983994 -1.628759
vertex -177.898514 -127.983994 -7.078756
endloop
endfacet
facet normal 0.000000 -1.000000 0.000000
outer loop
vertex -177.898514 -127.983994 -15.628759
vertex -177.951324 -127.983994 -16.029928
vertex -169.019394 -127.983994 -18.178762
endloop
endfacet
facet normal 0.000000 -1.000000 -0.000047
outer loop
vertex -169.019394 -127.983994 -18.178762
vertex -177.951324 -127.983994 -16.029928
vertex -178.106171 -127.983994 -16.403753
endloop
endfacet
facet normal 0.000000 -1.000000 0.000022
outer loop
vertex -169.019394 -127.983994 -18.178762
vertex -178.106171 -127.983994 -16.403753
vertex -178.352493 -127.983994 -16.724768
endloop
endfacet
facet normal 0.000000 -1.000000 0.000000
outer loop
vertex -178.352493 -127.983994 -16.724768
vertex -178.673508 -127.983994 -16.971090
vertex -169.019394 -127.983994 -18.178762
endloop
endfacet
facet normal 0.000000 -1.000000 0.000004
outer loop
vertex -169.019394 -127.983994 -18.178762
vertex -178.673508 -127.983994 -16.971090
vertex -179.047333 -127.983994 -17.125937
endloop
endfacet
facet normal 0.000000 -1.000000 -0.000104
outer loop
vertex -169.019394 -127.983994 -18.178762
vertex -179.047333 -127.983994 -17.125937
vertex -179.448502 -127.983994 -17.178762
endloop
endfacet
facet normal 0.000000 -1.000000 0.000000
outer loop
vertex -169.019394 -127.983994 -18.178762
vertex -179.448502 -127.983994 -17.178762
vertex -189.877625 -127.983994 -18.178762
endloop
endfacet
facet normal 0.000000 -1.000000 -0.000104
outer loop
vertex -189.877625 -127.983994 -18.178762
vertex -179.448502 -127.983994 -17.178762
vertex -179.849670 -127.983994 -17.125937
endloop
endfacet
facet normal 0.000000 -1.000000 0.000004
outer loop
vertex -189.877625 -127.983994 -18.178762
vertex -179.849670 -127.983994 -17.125937
vertex -180.223511 -127.983994 -16.971090
endloop
endfacet
facet normal 0.000000 -1.000000 0.000000
outer loop
vertex -180.223511 -127.983994 -16.971090
vertex -180.544525 -127.983994 -16.724768
vertex -189.877625 -127.983994 -18.178762
endloop
endfacet
facet normal 0.000000 -1.000000 0.000022
outer loop
vertex -189.877625 -127.983994 -18.178762
vertex -180.544525 -127.983994 -16.724768
vertex -180.790848 -127.983994 -16.403753
endloop
endfacet
facet normal 0.000000 -1.000000 -0.000047
outer loop
vertex -189.877625 -127.983994 -18.178762
vertex -180.790848 -127.983994 -16.403753
vertex -180.945694 -127.983994 -16.029928
endloop
endfacet
facet normal 0.000000 -1.000000 0.000000
outer loop
vertex -180.945694 -127.983994 -16.029928
vertex -180.998505 -127.983994 -15.628759
vertex -189.877625 -127.983994 -18.178762
endloop
endfacet
facet normal 0.000000 -1.000000 0.000002
outer loop
vertex -189.877625 -127.983994 -18.178762
vertex -180.998505 -127.983994 -15.628759
vertex -186.448502 -127.983994 -10.178762
endloop
endfacet
facet normal 0.000000 -1.000000 -0.000011
outer loop
vertex -189.877625 -127.983994 -18.178762
vertex -186.448502 -127.983994 -10.178762
vertex -186.849670 -127.983994 -10.125937
endloop
endfacet
facet normal 0.000000 -1.000000 0.000000
outer loop
vertex -180.998505 -127.983994 -15.628759
vertex -180.998505 -127.983994 -10.178762
vertex -186.448502 -127.983994 -10.178762
endloop
endfacet
facet normal 0.000000 -1.000000 0.000000
outer loop
vertex -186.849670 -127.983994 -10.125937
vertex -187.223511 -127.983994 -9.971090
vertex -189.877625 -127.983994 -18.178762
endloop
endfacet
facet normal 0.000000 -1.000000 0.000007
outer loop
vertex -189.877625 -127.983994 -18.178762
vertex -187.223511 -127.983994 -9.971090
vertex -187.544525 -127.983994 -9.724768
endloop
endfacet
facet normal 0.000000 -1.000000 0.000004
outer loop
vertex -189.877625 -127.983994 -18.178762
vertex -187.544525 -127.983994 -9.724768
vertex -187.790848 -127.983994 -9.403753
endloop
endfacet
facet normal 0.000000 -1.000000 -0.000014
outer loop
vertex -187.790848 -127.983994 -9.403753
vertex -187.945694 -127.983994 -9.029928
vertex -189.877625 -127.983994 -18.178762
endloop
endfacet
facet normal 0.000000 -1.000000 -0.000014
outer loop
vertex -189.877625 -127.983994 -18.178762
vertex -187.945694 -127.983994 -9.029928
vertex -187.998505 -127.983994 -8.628759
endloop
endfacet
facet normal 0.000000 -1.000000 0.000000
outer loop
vertex -189.877625 -127.983994 -18.178762
vertex -187.998505 -127.983994 -8.628759
vertex -188.534470 -127.983994 0.457209
endloop
endfacet
facet normal 0.000000 -1.000000 0.000004
outer loop
vertex -188.534470 -127.983994 0.457209
vertex -187.998505 -127.983994 -8.628759
vertex -187.945694 -127.983994 -8.227591
endloop
endfacet
facet normal 0.000000 -1.000000 0.000002
outer loop
vertex -188.534470 -127.983994 0.457209
vertex -187.945694 -127.983994 -8.227591
vertex -187.790848 -127.983994 -7.853765
endloop
endfacet
facet normal 0.000000 -1.000000 0.000000
outer loop
vertex -187.790848 -127.983994 -7.853765
vertex -187.544525 -127.983994 -7.532736
vertex -188.534470 -127.983994 0.457209
endloop
endfacet
facet normal 0.000000 -1.000000 -0.000003
outer loop
vertex -188.534470 -127.983994 0.457209
vertex -187.544525 -127.983994 -7.532736
vertex -187.223511 -127.983994 -7.286413
endloop
endfacet
facet normal 0.000000 -1.000000 -0.000002
outer loop
vertex -188.534470 -127.983994 0.457209
vertex -187.223511 -127.983994 -7.286413
vertex -186.849670 -127.983994 -7.131567
endloop
endfacet
facet normal 0.000000 -1.000000 0.000000
outer loop
vertex -186.849670 -127.983994 -7.131567
vertex -186.448502 -127.983994 -7.078756
vertex -188.534470 -127.983994 0.457209
endloop
endfacet
facet normal 0.000000 -1.000000 0.000000
outer loop
vertex -188.534470 -127.983994 0.457209
vertex -186.448502 -127.983994 -7.078756
vertex -180.998505 -127.983994 -1.628759
endloop
endfacet
facet normal 0.000000 -1.000000 0.000006
outer loop
vertex -188.534470 -127.983994 0.457209
vertex -180.998505 -127.983994 -1.628759
vertex -180.945694 -127.983994 -1.227591
endloop
endfacet
facet normal 0.000000 -1.000000 0.000000
outer loop
vertex -186.448502 -127.983994 -7.078756
vertex -180.998505 -127.983994 -7.078756
vertex -180.998505 -127.983994 -1.628759
endloop
endfacet
facet normal 0.000000 -1.000000 0.000000
outer loop
vertex -180.945694 -127.983994 -1.227591
vertex -180.790848 -127.983994 -0.853765
vertex -188.534470 -127.983994 0.457209
endloop
endfacet
facet normal 0.000000 -1.000000 -0.000026
outer loop
vertex -188.534470 -127.983994 0.457209
vertex -180.790848 -127.983994 -0.853765
vertex -180.544525 -127.983994 -0.532736
endloop
endfacet
facet normal 0.000000 -1.000000 0.000002
outer loop
vertex -188.534470 -127.983994 0.457209
vertex -180.544525 -127.983994 -0.532736
vertex -179.444443 -127.983994 2.633799
endloop
endfacet
facet normal 0.000000 -1.000000 0.000010
outer loop
vertex -179.444443 -127.983994 2.633799
vertex -180.544525 -127.983994 -0.532736
vertex -180.223511 -127.983994 -0.286413
endloop
endfacet
facet normal 0.000000 -1.000000 -0.000008
outer loop
vertex -179.444443 -127.983994 2.633799
vertex -180.223511 -127.983994 -0.286413
vertex -179.849670 -127.983994 -0.131567
endloop
endfacet
facet normal 0.000000 -1.000000 -0.000000
outer loop
vertex -179.849670 -127.983994 -0.131567
vertex -179.448502 -127.983994 -0.078756
vertex -179.444443 -127.983994 2.633799
endloop
endfacet
facet normal 0.000000 -1.000000 0.000000
outer loop
vertex -179.444443 -127.983994 2.633799
vertex -179.448502 -127.983994 -0.078756
vertex -179.047333 -127.983994 -0.131567
endloop
endfacet
facet normal 0.000000 -1.000000 -0.000008
outer loop
vertex -179.444443 -127.983994 2.633799
vertex -179.047333 -127.983994 -0.131567
vertex -178.673508 -127.983994 -0.286413
endloop
endfacet
facet normal 0.000000 -1.000000 0.000000
outer loop
vertex -178.673508 -127.983994 -0.286413
vertex -178.352493 -127.983994 -0.532736
vertex -179.444443 -127.983994 2.633799
endloop
endfacet
facet normal 0.000000 -1.000000 0.000005
outer loop
vertex -179.444443 -127.983994 2.633799
vertex -178.352493 -127.983994 -0.532736
vertex -170.362549 -127.983994 0.457209
endloop
endfacet
facet normal 0.000000 -1.000000 -0.000026
outer loop
vertex -170.362549 -127.983994 0.457209
vertex -178.352493 -127.983994 -0.532736
vertex -178.106171 -127.983994 -0.853765
endloop
endfacet
facet normal 0.000000 -1.000000 0.000016
outer loop
vertex -170.362549 -127.983994 0.457209
vertex -178.106171 -127.983994 -0.853765
vertex -177.951324 -127.983994 -1.227591
endloop
endfacet
facet normal 0.000000 -1.000000 0.000000
outer loop
vertex -177.951324 -127.983994 -1.227591
vertex -177.898514 -127.983994 -1.628759
vertex -170.362549 -127.983994 0.457209
endloop
endfacet
facet normal 0.000000 1.000000 0.000000
outer loop
vertex -177.898514 -123.993988 -10.178762
vertex -172.448624 -123.993988 -10.178762
vertex -177.898514 -123.993988 -15.628759
endloop
endfacet
facet normal 0.000000 1.000000 -0.000002
outer loop
vertex -177.898514 -123.993988 -15.628759
vertex -172.448624 -123.993988 -10.178762
vertex -169.019394 -123.993988 -18.178762
endloop
endfacet
facet normal 0.000000 1.000000 0.000000
outer loop
vertex -177.898514 -123.993988 -15.628759
vertex -169.019394 -123.993988 -18.178762
vertex -177.951324 -123.993988 -16.029928
endloop
endfacet
facet normal 0.000000 1.000000 0.000000
outer loop
vertex -177.951324 -123.993988 -16.029928
vertex -169.019394 -123.993988 -18.178762
vertex -178.106171 -123.993988 -16.403753
endloop
endfacet
facet normal 0.000000 1.000000 0.000000
outer loop
vertex -178.106171 -123.993988 -16.403753
vertex -169.019394 -123.993988 -18.178762
vertex -178.352493 -123.993988 -16.724768
endloop
endfacet
facet normal 0.000000 1.000000 -0.000088
outer loop
vertex -178.352493 -123.993988 -16.724768
vertex -169.019394 -123.993988 -18.178762
vertex -178.673508 -123.993988 -16.971090
endloop
endfacet
facet normal 0.000000 1.000000 0.000000
outer loop
vertex -178.673508 -123.993988 -16.971090
vertex -169.019394 -123.993988 -18.178762
vertex -179.047333 -123.993988 -17.125937
endloop
endfacet
facet normal 0.000000 1.000000 0.000256
outer loop
vertex -179.047333 -123.993988 -17.125937
vertex -169.019394 -123.993988 -18.178762
vertex -179.448502 -123.993988 -17.178762
endloop
endfacet
facet normal 0.000000 1.000000 0.000000
outer loop
vertex -179.448502 -123.993988 -17.178762
vertex -169.019394 -123.993988 -18.178762
vertex -189.877625 -123.993988 -18.178762
endloop
endfacet
facet normal 0.000000 1.000000 0.000000
outer loop
vertex -179.448502 -123.993988 -17.178762
vertex -189.877625 -123.993988 -18.178762
vertex -179.849670 -123.993988 -17.125937
endloop
endfacet
facet normal 0.000000 1.000000 0.000125
outer loop
vertex -179.849670 -123.993988 -17.125937
vertex -189.877625 -123.993988 -18.178762
vertex -180.223511 -123.993988 -16.971090
endloop
endfacet
facet normal 0.000000 1.000000 -0.000088
outer loop
vertex -180.223511 -123.993988 -16.971090
vertex -189.877625 -123.993988 -18.178762
vertex -180.544525 -123.993988 -16.724768
endloop
endfacet
facet normal 0.000000 1.000000 0.000000
outer loop
vertex -180.544525 -123.993988 -16.724768
vertex -189.877625 -123.993988 -18.178762
vertex -180.790848 -123.993988 -16.403753
endloop
endfacet
facet normal 0.000000 1.000000 0.000000
outer loop
vertex -180.790848 -123.993988 -16.403753
vertex -189.877625 -123.993988 -18.178762
vertex -180.945694 -123.993988 -16.029928
endloop
endfacet
facet normal 0.000000 1.000000 0.000000
outer loop
vertex -180.945694 -123.993988 -16.029928
vertex -189.877625 -123.993988 -18.178762
vertex -180.998505 -123.993988 -15.628759
endloop
endfacet
facet normal 0.000000 1.000000 -0.000002
outer loop
vertex -180.998505 -123.993988 -15.628759
vertex -189.877625 -123.993988 -18.178762
vertex -186.448502 -123.993988 -10.178762
endloop
endfacet
facet normal 0.000000 1.000000 0.000000
outer loop
vertex -180.998505 -123.993988 -15.628759
vertex -186.448502 -123.993988 -10.178762
vertex -180.998505 -123.993988 -10.178762
endloop
endfacet
facet normal 0.000000 1.000000 0.000000
outer loop
vertex -172.448624 -123.993988 -10.178762
vertex -172.448563 -123.993988 -10.178762
vertex -169.019394 -123.993988 -18.178762
endloop
endfacet
facet normal 0.000000 1.000000 0.000000
outer loop
vertex -169.019394 -123.993988 -18.178762
vertex -172.448563 -123.993988 -10.178762
vertex -172.047394 -123.993988 -10.125952
endloop
endfacet
facet normal 0.000000 1.000000 0.000007
outer loop
vertex -169.019394 -123.993988 -18.178762
vertex -172.047394 -123.993988 -10.125952
vertex -171.673553 -123.993988 -9.971121
endloop
endfacet
facet normal 0.000000 1.000000 0.000000
outer loop
vertex -171.673553 -123.993988 -9.971121
vertex -171.352524 -123.993988 -9.724813
vertex -169.019394 -123.993988 -18.178762
endloop
endfacet
facet normal 0.000000 1.000000 0.000011
outer loop
vertex -169.019394 -123.993988 -18.178762
vertex -171.352524 -123.993988 -9.724813
vertex -171.106186 -123.993988 -9.403799
endloop
endfacet
facet normal 0.000000 1.000000 0.000000
outer loop
vertex -169.019394 -123.993988 -18.178762
vertex -171.106186 -123.993988 -9.403799
vertex -170.951324 -123.993988 -9.029959
endloop
endfacet
facet normal 0.000000 1.000000 0.000000
outer loop
vertex -170.951324 -123.993988 -9.029959
vertex -170.898514 -123.993988 -8.628790
vertex -169.019394 -123.993988 -18.178762
endloop
endfacet
facet normal 0.000000 1.000000 0.000000
outer loop
vertex -169.019394 -123.993988 -18.178762
vertex -170.898514 -123.993988 -8.628790
vertex -170.362549 -123.993988 0.457209
endloop
endfacet
facet normal 0.000000 1.000000 -0.000008
outer loop
vertex -170.362549 -123.993988 0.457209
vertex -170.898514 -123.993988 -8.628790
vertex -170.951309 -123.993988 -8.227621
endloop
endfacet
facet normal 0.000000 1.000000 0.000000
outer loop
vertex -170.362549 -123.993988 0.457209
vertex -170.951309 -123.993988 -8.227621
vertex -171.106155 -123.993988 -7.853781
endloop
endfacet
facet normal 0.000000 1.000000 0.000000
outer loop
vertex -171.106155 -123.993988 -7.853781
vertex -171.352478 -123.993988 -7.532751
vertex -170.362549 -123.993988 0.457209
endloop
endfacet
facet normal 0.000000 1.000000 -0.000005
outer loop
vertex -170.362549 -123.993988 0.457209
vertex -171.352478 -123.993988 -7.532751
vertex -171.673492 -123.993988 -7.286428
endloop
endfacet
facet normal 0.000000 1.000000 0.000002
outer loop
vertex -170.362549 -123.993988 0.457209
vertex -171.673492 -123.993988 -7.286428
vertex -172.047333 -123.993988 -7.131582
endloop
endfacet
facet normal 0.000000 1.000000 0.000000
outer loop
vertex -172.047333 -123.993988 -7.131582
vertex -172.448502 -123.993988 -7.078756
vertex -170.362549 -123.993988 0.457209
endloop
endfacet
facet normal 0.000000 1.000000 0.000002
outer loop
vertex -170.362549 -123.993988 0.457209
vertex -172.448502 -123.993988 -7.078756
vertex -177.898514 -123.993988 -1.628759
endloop
endfacet
facet normal 0.000000 1.000000 0.000008
outer loop
vertex -170.362549 -123.993988 0.457209
vertex -177.898514 -123.993988 -1.628759
vertex -177.951324 -123.993988 -1.227591
endloop
endfacet
facet normal 0.000000 1.000000 0.000000
outer loop
vertex -172.448502 -123.993988 -7.078756
vertex -177.898514 -123.993988 -7.078756
vertex -177.898514 -123.993988 -1.628759
endloop
endfacet
facet normal 0.000000 1.000000 -0.000039
outer loop
vertex -177.951324 -123.993988 -1.227591
vertex -178.106171 -123.993988 -0.853765
vertex -170.362549 -123.993988 0.457209
endloop
endfacet
facet normal 0.000000 1.000000 0.000011
outer loop
vertex -170.362549 -123.993988 0.457209
vertex -178.106171 -123.993988 -0.853765
vertex -178.352493 -123.993988 -0.532736
endloop
endfacet
facet normal 0.000000 1.000000 -0.000002
outer loop
vertex -170.362549 -123.993988 0.457209
vertex -178.352493 -123.993988 -0.532736
vertex -179.444443 -123.993988 2.633799
endloop
endfacet
facet normal 0.000000 1.000000 0.000000
outer loop
vertex -179.444443 -123.993988 2.633799
vertex -178.352493 -123.993988 -0.532736
vertex -178.673508 -123.993988 -0.286413
endloop
endfacet
facet normal 0.000000 1.000000 0.000008
outer loop
vertex -179.444443 -123.993988 2.633799
vertex -178.673508 -123.993988 -0.286413
vertex -179.047333 -123.993988 -0.131567
endloop
endfacet
facet normal 0.000000 1.000000 -0.000003
outer loop
vertex -179.047333 -123.993988 -0.131567
vertex -179.448502 -123.993988 -0.078756
vertex -179.444443 -123.993988 2.633799
endloop
endfacet
facet normal 0.000000 1.000000 -0.000007
outer loop
vertex -179.444443 -123.993988 2.633799
vertex -179.448502 -123.993988 -0.078756
vertex -179.849670 -123.993988 -0.131567
endloop
endfacet
facet normal 0.000000 1.000000 0.000000
outer loop
vertex -179.444443 -123.993988 2.633799
vertex -179.849670 -123.993988 -0.131567
vertex -180.223511 -123.993988 -0.286413
endloop
endfacet
facet normal 0.000000 1.000000 0.000041
outer loop
vertex -180.223511 -123.993988 -0.286413
vertex -180.544525 -123.993988 -0.532736
vertex -179.444443 -123.993988 2.633799
endloop
endfacet
facet normal 0.000000 1.000000 -0.000005
outer loop
vertex -179.444443 -123.993988 2.633799
vertex -180.544525 -123.993988 -0.532736
vertex -188.534470 -123.993988 0.457209
endloop
endfacet
facet normal 0.000000 1.000000 0.000011
outer loop
vertex -188.534470 -123.993988 0.457209
vertex -180.544525 -123.993988 -0.532736
vertex -180.790848 -123.993988 -0.853765
endloop
endfacet
facet normal 0.000000 1.000000 -0.000030
outer loop
vertex -188.534470 -123.993988 0.457209
vertex -180.790848 -123.993988 -0.853765
vertex -180.945694 -123.993988 -1.227591
endloop
endfacet
facet normal 0.000000 1.000000 0.000000
outer loop
vertex -180.945694 -123.993988 -1.227591
vertex -180.998505 -123.993988 -1.628759
vertex -188.534470 -123.993988 0.457209
endloop
endfacet
facet normal 0.000000 1.000000 0.000000
outer loop
vertex -188.534470 -123.993988 0.457209
vertex -180.998505 -123.993988 -1.628759
vertex -186.448502 -123.993988 -7.078756
endloop
endfacet
facet normal 0.000000 1.000000 0.000000
outer loop
vertex -188.534470 -123.993988 0.457209
vertex -186.448502 -123.993988 -7.078756
vertex -186.849670 -123.993988 -7.131567
endloop
endfacet
facet normal 0.000000 1.000000 0.000000
outer loop
vertex -180.998505 -123.993988 -1.628759
vertex -180.998505 -123.993988 -7.078756
vertex -186.448502 -123.993988 -7.078756
endloop
endfacet
facet normal 0.000000 1.000000 0.000000
outer loop
vertex -186.849670 -123.993988 -7.131567
vertex -187.223511 -123.993988 -7.286413
vertex -188.534470 -123.993988 0.457209
endloop
endfacet
facet normal 0.000000 1.000000 -0.000005
outer loop
vertex -188.534470 -123.993988 0.457209
vertex -187.223511 -123.993988 -7.286413
vertex -187.544525 -123.993988 -7.532736
endloop
endfacet
facet normal 0.000000 1.000000 0.000000
outer loop
vertex -188.534470 -123.993988 0.457209
vertex -187.544525 -123.993988 -7.532736
vertex -187.790848 -123.993988 -7.853765
endloop
endfacet
facet normal 0.000000 1.000000 0.000000
outer loop
vertex -187.790848 -123.993988 -7.853765
vertex -187.945694 -123.993988 -8.227591
vertex -188.534470 -123.993988 0.457209
endloop
endfacet
facet normal 0.000000 1.000000 -0.000008
outer loop
vertex -188.534470 -123.993988 0.457209
vertex -187.945694 -123.993988 -8.227591
vertex -187.998505 -123.993988 -8.628759
endloop
endfacet
facet normal 0.000000 1.000000 0.000000
outer loop
vertex -188.534470 -123.993988 0.457209
vertex -187.998505 -123.993988 -8.628759
vertex -189.877625 -123.993988 -18.178762
endloop
endfacet
facet normal 0.000000 1.000000 0.000005
outer loop
vertex -189.877625 -123.993988 -18.178762
vertex -187.998505 -123.993988 -8.628759
vertex -187.945694 -123.993988 -9.029928
endloop
endfacet
facet normal 0.000000 1.000000 0.000000
outer loop
vertex -189.877625 -123.993988 -18.178762
vertex -187.945694 -123.993988 -9.029928
vertex -187.790848 -123.993988 -9.403753
endloop
endfacet
facet normal 0.000000 1.000000 0.000000
outer loop
vertex -187.790848 -123.993988 -9.403753
vertex -187.544525 -123.993988 -9.724768
vertex -189.877625 -123.993988 -18.178762
endloop
endfacet
facet normal 0.000000 1.000000 -0.000005
outer loop
vertex -189.877625 -123.993988 -18.178762
vertex -187.544525 -123.993988 -9.724768
vertex -187.223511 -123.993988 -9.971090
endloop
endfacet
facet normal 0.000000 1.000000 0.000007
outer loop
vertex -189.877625 -123.993988 -18.178762
vertex -187.223511 -123.993988 -9.971090
vertex -186.849670 -123.993988 -10.125937
endloop
endfacet
facet normal 0.000000 1.000000 0.000000
outer loop
vertex -186.849670 -123.993988 -10.125937
vertex -186.448502 -123.993988 -10.178762
vertex -189.877625 -123.993988 -18.178762
endloop
endfacet
endsolid ShogiChessCncAndPLA v2.021
