solid ShogiChessCncAndPLA v2.006
facet normal 0.000000 0.000000 1.000000
outer loop
vertex -180.998505 -123.993988 10.932352
vertex -186.448502 -123.993988 10.932352
vertex -180.998505 -125.488991 10.932352
endloop
endfacet
facet normal 0.000000 0.000000 1.000000
outer loop
vertex -180.998505 -125.488991 10.932352
vertex -186.448502 -123.993988 10.932352
vertex -186.448502 -125.488991 10.932352
endloop
endfacet
facet normal 1.000000 0.000000 0.000000
outer loop
vertex -180.998505 -123.993988 5.482355
vertex -180.998505 -123.993988 10.932352
vertex -180.998505 -125.488991 5.482355
endloop
endfacet
facet normal 1.000000 0.000000 0.000000
outer loop
vertex -180.998505 -125.488991 5.482355
vertex -180.998505 -123.993988 10.932352
vertex -180.998505 -125.488991 10.932352
endloop
endfacet
facet normal -1.000000 0.000000 0.000000
outer loop
vertex -177.898514 -123.993988 10.932352
vertex -177.898514 -123.993988 5.482355
vertex -177.898514 -125.488991 10.932352
endloop
endfacet
facet normal -1.000000 0.000000 0.000000
outer loop
vertex -177.898514 -125.488991 10.932352
vertex -177.898514 -123.993988 5.482355
vertex -177.898514 -125.488991 5.482355
endloop
endfacet
facet normal 0.000000 0.000000 1.000000
outer loop
vertex -172.448624 -123.993988 10.932352
vertex -177.898514 -123.993988 10.932352
vertex -172.448624 -125.488991 10.932352
endloop
endfacet
facet normal 0.000000 0.000000 1.000000
outer loop
vertex -172.448624 -125.488991 10.932352
vertex -177.898514 -123.993988 10.932352
vertex -177.898514 -125.488991 10.932352
endloop
endfacet
facet normal 0.000000 0.000000 1.000000
outer loop
vertex -172.448624 -123.993988 10.932352
vertex -172.448624 -125.488991 10.932352
vertex -172.448563 -123.993988 10.932352
endloop
endfacet
facet normal 0.000000 0.000000 1.000000
outer loop
vertex -172.448563 -123.993988 10.932352
vertex -172.448624 -125.488991 10.932352
vertex -172.448563 -125.488991 10.932352
endloop
endfacet
facet normal 0.000000 1.000000 0.000000
outer loop
vertex -186.448502 -125.488991 14.032351
vertex -180.998505 -125.488991 14.032351
vertex -186.448502 -125.488991 10.932352
endloop
endfacet
facet normal 0.000000 1.000000 0.000000
outer loop
vertex -186.448502 -125.488991 10.932352
vertex -180.998505 -125.488991 14.032351
vertex -180.998505 -125.488991 10.932352
endloop
endfacet
facet normal 0.000000 1.000000 0.000000
outer loop
vertex -180.998505 -125.488991 10.932352
vertex -180.998505 -125.488991 14.032351
vertex -177.898514 -125.488991 14.032351
endloop
endfacet
facet normal 0.000000 1.000000 0.000000
outer loop
vertex -180.998505 -125.488991 10.932352
vertex -177.898514 -125.488991 14.032351
vertex -177.898514 -125.488991 10.932352
endloop
endfacet
facet normal 0.000000 1.000000 0.000000
outer loop
vertex -177.898514 -125.488991 10.932352
vertex -177.898514 -125.488991 14.032351
vertex -172.448624 -125.488991 10.932352
endloop
endfacet
facet normal 0.000000 1.000000 0.000000
outer loop
vertex -172.448624 -125.488991 10.932352
vertex -177.898514 -125.488991 14.032351
vertex -172.448502 -125.488991 14.032351
endloop
endfacet
facet normal 0.000000 1.000000 0.000000
outer loop
vertex -172.448624 -125.488991 10.932352
vertex -172.448502 -125.488991 14.032351
vertex -172.448563 -125.488991 10.932352
endloop
endfacet
facet normal 0.000000 1.000000 0.000000
outer loop
vertex -172.448563 -125.488991 10.932352
vertex -172.448502 -125.488991 14.032351
vertex -172.448502 -125.488991 10.932352
endloop
endfacet
facet normal 0.000000 1.000000 0.000000
outer loop
vertex -180.998505 -125.488991 19.482355
vertex -177.898514 -125.488991 19.482355
vertex -180.998505 -125.488991 14.032351
endloop
endfacet
facet normal 0.000000 1.000000 0.000000
outer loop
vertex -180.998505 -125.488991 14.032351
vertex -177.898514 -125.488991 19.482355
vertex -177.898514 -125.488991 14.032351
endloop
endfacet
facet normal 0.000000 1.000000 0.000000
outer loop
vertex -177.898514 -125.488991 5.482355
vertex -180.998505 -125.488991 5.482355
vertex -177.898514 -125.488991 10.932352
endloop
endfacet
facet normal 0.000000 1.000000 0.000000
outer loop
vertex -177.898514 -125.488991 10.932352
vertex -180.998505 -125.488991 5.482355
vertex -180.998505 -125.488991 10.932352
endloop
endfacet
facet normal 0.000000 0.000000 1.000000
outer loop
vertex -172.448563 -123.993988 10.932352
vertex -172.448563 -125.488991 10.932352
vertex -172.448502 -123.993988 10.932352
endloop
endfacet
facet normal 0.000000 0.000000 1.000000
outer loop
vertex -172.448502 -123.993988 10.932352
vertex -172.448563 -125.488991 10.932352
vertex -172.448502 -125.488991 10.932352
endloop
endfacet
facet normal 0.000000 0.000000 -1.000000
outer loop
vertex -186.448502 -123.993988 14.032351
vertex -180.998505 -123.993988 14.032351
vertex -186.448502 -125.488991 14.032351
endloop
endfacet
facet normal 0.000000 0.000000 -1.000000
outer loop
vertex -186.448502 -125.488991 14.032351
vertex -180.998505 -123.993988 14.032351
vertex -180.998505 -125.488991 14.032351
endloop
endfacet
facet normal 1.000000 0.000000 0.000000
outer loop
vertex -180.998505 -123.993988 14.032351
vertex -180.998505 -123.993988 19.482355
vertex -180.998505 -125.488991 14.032351
endloop
endfacet
facet normal 1.000000 0.000000 0.000000
outer loop
vertex -180.998505 -125.488991 14.032351
vertex -180.998505 -123.993988 19.482355
vertex -180.998505 -125.488991 19.482355
endloop
endfacet
facet normal -1.000000 0.000000 0.000000
outer loop
vertex -177.898514 -123.993988 19.482355
vertex -177.898514 -123.993988 14.032351
vertex -177.898514 -125.488991 19.482355
endloop
endfacet
facet normal -1.000000 0.000000 0.000000
outer loop
vertex -177.898514 -125.488991 19.482355
vertex -177.898514 -123.993988 14.032351
vertex -177.898514 -125.488991 14.032351
endloop
endfacet
facet normal 0.000000 0.000000 -1.000000
outer loop
vertex -177.898514 -123.993988 14.032351
vertex -172.448502 -123.993988 14.032351
vertex -177.898514 -125.488991 14.032351
endloop
endfacet
facet normal 0.000000 0.000000 -1.000000
outer loop
vertex -177.898514 -125.488991 14.032351
vertex -172.448502 -123.993988 14.032351
vertex -172.448502 -125.488991 14.032351
endloop
endfacet
facet normal -1.000000 0.000000 0.000000
outer loop
vertex -186.448502 -123.993988 14.032351
vertex -186.448502 -125.488991 14.032351
vertex -186.448502 -123.993988 15.982355
endloop
endfacet
facet normal -1.000000 0.000000 0.000000
outer loop
vertex -186.448502 -123.993988 15.982355
vertex -186.448502 -125.488991 14.032351
vertex -186.448502 -126.488991 14.032351
endloop
endfacet
facet normal -1.000000 0.000000 0.000000
outer loop
vertex -186.448502 -123.993988 15.982355
vertex -186.448502 -126.488991 14.032351
vertex -186.448502 -127.983994 15.982355
endloop
endfacet
facet normal -1.000000 0.000000 0.000000
outer loop
vertex -186.448502 -127.983994 15.982355
vertex -186.448502 -126.488991 14.032351
vertex -186.448502 -127.983994 14.032351
endloop
endfacet
facet normal -1.000000 0.000000 0.000000
outer loop
vertex -186.448502 -125.488991 14.032351
vertex -186.448502 -125.488991 10.932352
vertex -186.448502 -126.488991 14.032351
endloop
endfacet
facet normal -1.000000 0.000000 0.000000
outer loop
vertex -186.448502 -126.488991 14.032351
vertex -186.448502 -125.488991 10.932352
vertex -186.448502 -126.488991 10.932352
endloop
endfacet
facet normal -1.000000 0.000000 0.000000
outer loop
vertex -186.448502 -126.488991 10.932352
vertex -186.448502 -125.488991 10.932352
vertex -186.448502 -123.993988 8.982355
endloop
endfacet
facet normal -1.000000 0.000000 0.000000
outer loop
vertex -186.448502 -126.488991 10.932352
vertex -186.448502 -123.993988 8.982355
vertex -186.448502 -127.983994 8.982355
endloop
endfacet
facet normal -1.000000 0.000000 0.000000
outer loop
vertex -186.448502 -125.488991 10.932352
vertex -186.448502 -123.993988 10.932352
vertex -186.448502 -123.993988 8.982355
endloop
endfacet
facet normal -1.000000 0.000000 0.000000
outer loop
vertex -186.448502 -127.983994 8.982355
vertex -186.448502 -127.983994 10.932352
vertex -186.448502 -126.488991 10.932352
endloop
endfacet
facet normal 0.000000 0.000000 -1.000000
outer loop
vertex -180.998505 -123.993988 5.482355
vertex -180.998505 -125.488991 5.482355
vertex -182.948502 -123.993988 5.482355
endloop
endfacet
facet normal 0.000000 0.000000 -1.000000
outer loop
vertex -182.948502 -123.993988 5.482355
vertex -180.998505 -125.488991 5.482355
vertex -180.998505 -126.488991 5.482355
endloop
endfacet
facet normal 0.000000 0.000000 -1.000000
outer loop
vertex -182.948502 -123.993988 5.482355
vertex -180.998505 -126.488991 5.482355
vertex -182.948502 -127.983994 5.482355
endloop
endfacet
facet normal 0.000000 0.000000 -1.000000
outer loop
vertex -182.948502 -127.983994 5.482355
vertex -180.998505 -126.488991 5.482355
vertex -180.998505 -127.983994 5.482355
endloop
endfacet
facet normal 0.000000 0.000000 -1.000000
outer loop
vertex -180.998505 -125.488991 5.482355
vertex -177.898514 -125.488991 5.482355
vertex -180.998505 -126.488991 5.482355
endloop
endfacet
facet normal 0.000000 0.000000 -1.000000
outer loop
vertex -180.998505 -126.488991 5.482355
vertex -177.898514 -125.488991 5.482355
vertex -177.898514 -126.488991 5.482355
endloop
endfacet
facet normal 0.000000 0.000000 -1.000000
outer loop
vertex -177.898514 -126.488991 5.482355
vertex -177.898514 -125.488991 5.482355
vertex -175.948502 -123.993988 5.482355
endloop
endfacet
facet normal 0.000000 0.000000 -1.000000
outer loop
vertex -177.898514 -126.488991 5.482355
vertex -175.948502 -123.993988 5.482355
vertex -175.948502 -127.983994 5.482355
endloop
endfacet
facet normal 0.000000 0.000000 -1.000000
outer loop
vertex -177.898514 -125.488991 5.482355
vertex -177.898514 -123.993988 5.482355
vertex -175.948502 -123.993988 5.482355
endloop
endfacet
facet normal 0.000000 0.000000 -1.000000
outer loop
vertex -175.948502 -127.983994 5.482355
vertex -177.898514 -127.983994 5.482355
vertex -177.898514 -126.488991 5.482355
endloop
endfacet
facet normal 0.000000 1.000000 0.000000
outer loop
vertex -177.898514 -123.993988 5.482355
vertex -177.898514 -123.993988 10.932352
vertex -175.948502 -123.993988 5.482355
endloop
endfacet
facet normal 0.000000 1.000000 0.000000
outer loop
vertex -175.948502 -123.993988 5.482355
vertex -177.898514 -123.993988 10.932352
vertex -172.448502 -123.993988 8.982355
endloop
endfacet
facet normal 0.000000 1.000000 0.000000
outer loop
vertex -172.448502 -123.993988 8.982355
vertex -177.898514 -123.993988 10.932352
vertex -172.448624 -123.993988 10.932352
endloop
endfacet
facet normal 0.000000 1.000000 0.000000
outer loop
vertex -172.448502 -123.993988 8.982355
vertex -172.448624 -123.993988 10.932352
vertex -172.448563 -123.993988 10.932352
endloop
endfacet
facet normal 0.000000 1.000000 0.000000
outer loop
vertex -172.448563 -123.993988 10.932352
vertex -172.448502 -123.993988 10.932352
vertex -172.448502 -123.993988 8.982355
endloop
endfacet
facet normal 0.000000 1.000000 0.000000
outer loop
vertex -186.448502 -123.993988 10.932352
vertex -180.998505 -123.993988 10.932352
vertex -186.448502 -123.993988 8.982355
endloop
endfacet
facet normal 0.000000 1.000000 0.000000
outer loop
vertex -186.448502 -123.993988 8.982355
vertex -180.998505 -123.993988 10.932352
vertex -182.948502 -123.993988 5.482355
endloop
endfacet
facet normal 0.000000 1.000000 0.000000
outer loop
vertex -182.948502 -123.993988 5.482355
vertex -180.998505 -123.993988 10.932352
vertex -180.998505 -123.993988 5.482355
endloop
endfacet
facet normal 0.000000 1.000000 0.000000
outer loop
vertex -177.898514 -123.993988 19.482355
vertex -175.948502 -123.993988 19.482355
vertex -177.898514 -123.993988 14.032351
endloop
endfacet
facet normal 0.000000 1.000000 0.000000
outer loop
vertex -177.898514 -123.993988 14.032351
vertex -175.948502 -123.993988 19.482355
vertex -172.448502 -123.993988 15.982355
endloop
endfacet
facet normal 0.000000 1.000000 0.000000
outer loop
vertex -177.898514 -123.993988 14.032351
vertex -172.448502 -123.993988 15.982355
vertex -172.448502 -123.993988 14.032351
endloop
endfacet
facet normal 0.000000 0.000000 -1.000000
outer loop
vertex -180.998505 -127.983994 14.032351
vertex -186.448502 -127.983994 14.032351
vertex -180.998505 -126.488991 14.032351
endloop
endfacet
facet normal 0.000000 0.000000 -1.000000
outer loop
vertex -180.998505 -126.488991 14.032351
vertex -186.448502 -127.983994 14.032351
vertex -186.448502 -126.488991 14.032351
endloop
endfacet
facet normal 1.000000 0.000000 0.000000
outer loop
vertex -180.998505 -127.983994 19.482355
vertex -180.998505 -127.983994 14.032351
vertex -180.998505 -126.488991 19.482355
endloop
endfacet
facet normal 1.000000 0.000000 0.000000
outer loop
vertex -180.998505 -126.488991 19.482355
vertex -180.998505 -127.983994 14.032351
vertex -180.998505 -126.488991 14.032351
endloop
endfacet
facet normal -1.000000 0.000000 0.000000
outer loop
vertex -177.898514 -127.983994 14.032351
vertex -177.898514 -127.983994 19.482355
vertex -177.898514 -126.488991 14.032351
endloop
endfacet
facet normal -1.000000 0.000000 0.000000
outer loop
vertex -177.898514 -126.488991 14.032351
vertex -177.898514 -127.983994 19.482355
vertex -177.898514 -126.488991 19.482355
endloop
endfacet
facet normal 0.000000 0.000000 -1.000000
outer loop
vertex -172.448502 -127.983994 14.032351
vertex -177.898514 -127.983994 14.032351
vertex -172.448502 -126.488991 14.032351
endloop
endfacet
facet normal 0.000000 0.000000 -1.000000
outer loop
vertex -172.448502 -126.488991 14.032351
vertex -177.898514 -127.983994 14.032351
vertex -177.898514 -126.488991 14.032351
endloop
endfacet
facet normal 0.000000 -1.000000 0.000000
outer loop
vertex -186.448502 -126.488991 10.932352
vertex -180.998505 -126.488991 10.932352
vertex -186.448502 -126.488991 14.032351
endloop
endfacet
facet normal 0.000000 -1.000000 0.000000
outer loop
vertex -186.448502 -126.488991 14.032351
vertex -180.998505 -126.488991 10.932352
vertex -180.998505 -126.488991 14.032351
endloop
endfacet
facet normal 0.000000 -1.000000 0.000000
outer loop
vertex -180.998505 -126.488991 14.032351
vertex -180.998505 -126.488991 10.932352
vertex -177.898514 -126.488991 10.932352
endloop
endfacet
facet normal 0.000000 -1.000000 0.000000
outer loop
vertex -180.998505 -126.488991 14.032351
vertex -177.898514 -126.488991 10.932352
vertex -177.898514 -126.488991 14.032351
endloop
endfacet
facet normal 0.000000 -1.000000 0.000000
outer loop
vertex -177.898514 -126.488991 14.032351
vertex -177.898514 -126.488991 10.932352
vertex -172.448624 -126.488991 10.932352
endloop
endfacet
facet normal 0.000000 -1.000000 -0.000000
outer loop
vertex -177.898514 -126.488991 14.032351
vertex -172.448624 -126.488991 10.932352
vertex -172.448502 -126.488991 14.032351
endloop
endfacet
facet normal 0.000000 -1.000000 0.000000
outer loop
vertex -172.448502 -126.488991 14.032351
vertex -172.448624 -126.488991 10.932352
vertex -172.448563 -126.488991 10.932352
endloop
endfacet
facet normal 0.000000 -1.000000 0.000000
outer loop
vertex -172.448502 -126.488991 14.032351
vertex -172.448563 -126.488991 10.932352
vertex -172.448502 -126.488991 10.932352
endloop
endfacet
facet normal 0.000000 -1.000000 0.000000
outer loop
vertex -180.998505 -126.488991 5.482355
vertex -177.898514 -126.488991 5.482355
vertex -180.998505 -126.488991 10.932352
endloop
endfacet
facet normal 0.000000 -1.000000 0.000000
outer loop
vertex -180.998505 -126.488991 10.932352
vertex -177.898514 -126.488991 5.482355
vertex -177.898514 -126.488991 10.932352
endloop
endfacet
facet normal 0.000000 -1.000000 0.000000
outer loop
vertex -177.898514 -126.488991 19.482355
vertex -180.998505 -126.488991 19.482355
vertex -177.898514 -126.488991 14.032351
endloop
endfacet
facet normal 0.000000 -1.000000 0.000000
outer loop
vertex -177.898514 -126.488991 14.032351
vertex -180.998505 -126.488991 19.482355
vertex -180.998505 -126.488991 14.032351
endloop
endfacet
facet normal -1.000000 0.000000 0.000000
outer loop
vertex -177.898514 -127.983994 5.482355
vertex -177.898514 -127.983994 10.932352
vertex -177.898514 -126.488991 5.482355
endloop
endfacet
facet normal -1.000000 0.000000 0.000000
outer loop
vertex -177.898514 -126.488991 5.482355
vertex -177.898514 -127.983994 10.932352
vertex -177.898514 -126.488991 10.932352
endloop
endfacet
facet normal 1.000000 0.000000 0.000000
outer loop
vertex -180.998505 -127.983994 10.932352
vertex -180.998505 -127.983994 5.482355
vertex -180.998505 -126.488991 10.932352
endloop
endfacet
facet normal 1.000000 0.000000 0.000000
outer loop
vertex -180.998505 -126.488991 10.932352
vertex -180.998505 -127.983994 5.482355
vertex -180.998505 -126.488991 5.482355
endloop
endfacet
facet normal 0.000000 0.000000 1.000000
outer loop
vertex -186.448502 -127.983994 10.932352
vertex -180.998505 -127.983994 10.932352
vertex -186.448502 -126.488991 10.932352
endloop
endfacet
facet normal 0.000000 0.000000 1.000000
outer loop
vertex -186.448502 -126.488991 10.932352
vertex -180.998505 -127.983994 10.932352
vertex -180.998505 -126.488991 10.932352
endloop
endfacet
facet normal 0.000000 0.000000 1.000000
outer loop
vertex -172.448502 -127.983994 10.932352
vertex -172.448502 -126.488991 10.932352
vertex -172.448563 -127.983994 10.932352
endloop
endfacet
facet normal 0.000000 0.000000 1.000000
outer loop
vertex -172.448563 -127.983994 10.932352
vertex -172.448502 -126.488991 10.932352
vertex -172.448563 -126.488991 10.932352
endloop
endfacet
facet normal 0.000000 0.000000 1.000000
outer loop
vertex -172.448563 -127.983994 10.932352
vertex -172.448563 -126.488991 10.932352
vertex -172.448624 -127.983994 10.932352
endloop
endfacet
facet normal 0.000000 0.000000 1.000000
outer loop
vertex -172.448624 -127.983994 10.932352
vertex -172.448563 -126.488991 10.932352
vertex -172.448624 -126.488991 10.932352
endloop
endfacet
facet normal 0.000000 0.000000 1.000000
outer loop
vertex -177.898514 -127.983994 10.932352
vertex -172.448624 -127.983994 10.932352
vertex -177.898514 -126.488991 10.932352
endloop
endfacet
facet normal 0.000000 0.000000 1.000000
outer loop
vertex -177.898514 -126.488991 10.932352
vertex -172.448624 -127.983994 10.932352
vertex -172.448624 -126.488991 10.932352
endloop
endfacet
facet normal 0.000000 0.000000 1.000000
outer loop
vertex -180.998505 -123.993988 19.482355
vertex -182.948502 -123.993988 19.482355
vertex -180.998505 -125.488991 19.482355
endloop
endfacet
facet normal 0.000000 0.000000 1.000000
outer loop
vertex -180.998505 -125.488991 19.482355
vertex -182.948502 -123.993988 19.482355
vertex -180.998505 -126.488991 19.482355
endloop
endfacet
facet normal 0.000000 0.000000 1.000000
outer loop
vertex -180.998505 -125.488991 19.482355
vertex -180.998505 -126.488991 19.482355
vertex -177.898514 -126.488991 19.482355
endloop
endfacet
facet normal 0.000000 0.000000 1.000000
outer loop
vertex -182.948502 -123.993988 19.482355
vertex -182.948502 -127.983994 19.482355
vertex -180.998505 -126.488991 19.482355
endloop
endfacet
facet normal 0.000000 0.000000 1.000000
outer loop
vertex -180.998505 -126.488991 19.482355
vertex -182.948502 -127.983994 19.482355
vertex -180.998505 -127.983994 19.482355
endloop
endfacet
facet normal 0.000000 0.000000 1.000000
outer loop
vertex -177.898514 -127.983994 19.482355
vertex -175.948502 -127.983994 19.482355
vertex -177.898514 -126.488991 19.482355
endloop
endfacet
facet normal 0.000000 0.000000 1.000000
outer loop
vertex -177.898514 -126.488991 19.482355
vertex -175.948502 -127.983994 19.482355
vertex -175.948502 -123.993988 19.482355
endloop
endfacet
facet normal 0.000002 0.000000 1.000000
outer loop
vertex -177.898514 -126.488991 19.482355
vertex -175.948502 -123.993988 19.482355
vertex -177.898514 -125.488991 19.482355
endloop
endfacet
facet normal 0.000000 0.000000 1.000000
outer loop
vertex -177.898514 -125.488991 19.482355
vertex -175.948502 -123.993988 19.482355
vertex -177.898514 -123.993988 19.482355
endloop
endfacet
facet normal 0.000000 0.000000 1.000000
outer loop
vertex -177.898514 -125.488991 19.482355
vertex -180.998505 -125.488991 19.482355
vertex -177.898514 -126.488991 19.482355
endloop
endfacet
facet normal 0.000000 -1.000000 0.000000
outer loop
vertex -186.448502 -127.983994 14.032351
vertex -180.998505 -127.983994 14.032351
vertex -186.448502 -127.983994 15.982355
endloop
endfacet
facet normal 0.000000 -1.000000 0.000002
outer loop
vertex -186.448502 -127.983994 15.982355
vertex -180.998505 -127.983994 14.032351
vertex -182.948502 -127.983994 19.482355
endloop
endfacet
facet normal 0.000000 -1.000000 0.000000
outer loop
vertex -182.948502 -127.983994 19.482355
vertex -180.998505 -127.983994 14.032351
vertex -180.998505 -127.983994 19.482355
endloop
endfacet
facet normal 0.000000 -1.000000 0.000000
outer loop
vertex -177.898514 -127.983994 19.482355
vertex -177.898514 -127.983994 14.032351
vertex -175.948502 -127.983994 19.482355
endloop
endfacet
facet normal 0.000000 -1.000000 0.000005
outer loop
vertex -175.948502 -127.983994 19.482355
vertex -177.898514 -127.983994 14.032351
vertex -172.448502 -127.983994 15.982355
endloop
endfacet
facet normal 0.000000 -1.000000 0.000000
outer loop
vertex -172.448502 -127.983994 15.982355
vertex -177.898514 -127.983994 14.032351
vertex -172.448502 -127.983994 14.032351
endloop
endfacet
facet normal 0.000000 -1.000000 0.000000
outer loop
vertex -177.898514 -127.983994 5.482355
vertex -175.948502 -127.983994 5.482355
vertex -177.898514 -127.983994 10.932352
endloop
endfacet
facet normal 0.000000 -1.000000 -0.000002
outer loop
vertex -177.898514 -127.983994 10.932352
vertex -175.948502 -127.983994 5.482355
vertex -172.448502 -127.983994 8.982355
endloop
endfacet
facet normal 0.000000 -1.000000 0.000000
outer loop
vertex -177.898514 -127.983994 10.932352
vertex -172.448502 -127.983994 8.982355
vertex -172.448624 -127.983994 10.932352
endloop
endfacet
facet normal 0.000000 -1.000000 0.000000
outer loop
vertex -172.448624 -127.983994 10.932352
vertex -172.448502 -127.983994 8.982355
vertex -172.448563 -127.983994 10.932352
endloop
endfacet
facet normal 0.000000 -1.000000 0.000000
outer loop
vertex -172.448563 -127.983994 10.932352
vertex -172.448502 -127.983994 8.982355
vertex -172.448502 -127.983994 10.932352
endloop
endfacet
facet normal 1.000000 0.000000 0.000000
outer loop
vertex -172.448502 -123.993988 14.032351
vertex -172.448502 -123.993988 15.982355
vertex -172.448502 -125.488991 14.032351
endloop
endfacet
facet normal 1.000000 0.000000 0.000000
outer loop
vertex -172.448502 -125.488991 14.032351
vertex -172.448502 -123.993988 15.982355
vertex -172.448502 -126.488991 14.032351
endloop
endfacet
facet normal 1.000000 0.000000 0.000000
outer loop
vertex -172.448502 -125.488991 14.032351
vertex -172.448502 -126.488991 14.032351
vertex -172.448502 -126.488991 10.932352
endloop
endfacet
facet normal 1.000000 0.000000 0.000000
outer loop
vertex -172.448502 -123.993988 15.982355
vertex -172.448502 -127.983994 15.982355
vertex -172.448502 -126.488991 14.032351
endloop
endfacet
facet normal 1.000000 0.000000 0.000000
outer loop
vertex -172.448502 -126.488991 14.032351
vertex -172.448502 -127.983994 15.982355
vertex -172.448502 -127.983994 14.032351
endloop
endfacet
facet normal 1.000000 0.000000 0.000000
outer loop
vertex -172.448502 -127.983994 10.932352
vertex -172.448502 -127.983994 8.982355
vertex -172.448502 -126.488991 10.932352
endloop
endfacet
facet normal 1.000000 0.000000 0.000000
outer loop
vertex -172.448502 -126.488991 10.932352
vertex -172.448502 -127.983994 8.982355
vertex -172.448502 -123.993988 8.982355
endloop
endfacet
facet normal 1.000000 0.000000 0.000000
outer loop
vertex -172.448502 -126.488991 10.932352
vertex -172.448502 -123.993988 8.982355
vertex -172.448502 -125.488991 10.932352
endloop
endfacet
facet normal 1.000000 0.000000 0.000000
outer loop
vertex -172.448502 -125.488991 10.932352
vertex -172.448502 -123.993988 8.982355
vertex -172.448502 -123.993988 10.932352
endloop
endfacet
facet normal 1.000000 0.000000 0.000000
outer loop
vertex -172.448502 -125.488991 10.932352
vertex -172.448502 -125.488991 14.032351
vertex -172.448502 -126.488991 10.932352
endloop
endfacet
facet normal -0.707107 0.000000 -0.707107
outer loop
vertex -186.448502 -123.993988 8.982355
vertex -182.948502 -123.993988 5.482355
vertex -186.448502 -127.983994 8.982355
endloop
endfacet
facet normal -0.707107 0.000000 -0.707107
outer loop
vertex -186.448502 -127.983994 8.982355
vertex -182.948502 -123.993988 5.482355
vertex -182.948502 -127.983994 5.482355
endloop
endfacet
facet normal -0.707106 0.000000 0.707107
outer loop
vertex -182.948502 -123.993988 19.482355
vertex -186.448502 -123.993988 15.982355
vertex -182.948502 -127.983994 19.482355
endloop
endfacet
facet normal -0.707107 0.000000 0.707107
outer loop
vertex -182.948502 -127.983994 19.482355
vertex -186.448502 -123.993988 15.982355
vertex -186.448502 -127.983994 15.982355
endloop
endfacet
facet normal 0.707107 0.000000 0.707107
outer loop
vertex -172.448502 -123.993988 15.982355
vertex -175.948502 -123.993988 19.482355
vertex -172.448502 -127.983994 15.982355
endloop
endfacet
facet normal 0.707106 0.000000 0.707107
outer loop
vertex -172.448502 -127.983994 15.982355
vertex -175.948502 -123.993988 19.482355
vertex -175.948502 -127.983994 19.482355
endloop
endfacet
facet normal 0.707107 0.000000 -0.707107
outer loop
vertex -175.948502 -123.993988 5.482355
vertex -172.448502 -123.993988 8.982355
vertex -175.948502 -127.983994 5.482355
endloop
endfacet
facet normal 0.707107 0.000000 -0.707107
outer loop
vertex -175.948502 -127.983994 5.482355
vertex -172.448502 -123.993988 8.982355
vertex -172.448502 -127.983994 8.982355
endloop
endfacet
facet normal 0.000000 -1.000000 0.000000
outer loop
vertex -186.448502 -127.983994 10.932352
vertex -186.448502 -127.983994 8.982355
vertex -180.998505 -127.983994 10.932352
endloop
endfacet
facet normal 0.000000 -1.000000 -0.000002
outer loop
vertex -180.998505 -127.983994 10.932352
vertex -186.448502 -127.983994 8.982355
vertex -182.948502 -127.983994 5.482355
endloop
endfacet
facet normal 0.000000 -1.000000 0.000000
outer loop
vertex -180.998505 -127.983994 10.932352
vertex -182.948502 -127.983994 5.482355
vertex -180.998505 -127.983994 5.482355
endloop
endfacet
facet normal 0.000000 1.000000 0.000000
outer loop
vertex -186.448502 -123.993988 14.032351
vertex -186.448502 -123.993988 15.982355
vertex -180.998505 -123.993988 14.032351
endloop
endfacet
facet normal 0.000000 1.000000 0.000000
outer loop
vertex -180.998505 -123.993988 14.032351
vertex -186.448502 -123.993988 15.982355
vertex -182.948502 -123.993988 19.482355
endloop
endfacet
facet normal 0.000000 1.000000 0.000000
outer loop
vertex -180.998505 -123.993988 14.032351
vertex -182.948502 -123.993988 19.482355
vertex -180.998505 -123.993988 19.482355
endloop
endfacet
endsolid ShogiChessCncAndPLA v2.006
