solid ShogiChessCncAndPLA v2.004
facet normal 0.000000 0.000000 -1.000000
outer loop
vertex -216.618057 -123.993996 14.032351
vertex -214.670807 -123.993996 14.032351
vertex -216.618057 -125.488991 14.032351
endloop
endfacet
facet normal 0.000000 0.000000 -1.000000
outer loop
vertex -216.618057 -125.488991 14.032351
vertex -214.670807 -123.993996 14.032351
vertex -214.670807 -125.488991 14.032351
endloop
endfacet
facet normal -0.999999 0.000000 -0.001369
outer loop
vertex -216.620728 -123.993996 15.982355
vertex -216.618057 -123.993996 14.032351
vertex -216.620728 -125.488991 15.982355
endloop
endfacet
facet normal -0.999999 0.000000 -0.001369
outer loop
vertex -216.620728 -125.488991 15.982355
vertex -216.618057 -123.993996 14.032351
vertex -216.618057 -125.488991 14.032351
endloop
endfacet
facet normal -0.130517 0.000000 -0.991446
outer loop
vertex -218.170731 -125.488991 17.532351
vertex -218.170731 -123.993996 17.532351
vertex -217.769562 -125.488991 17.479540
endloop
endfacet
facet normal -0.130519 0.000000 -0.991446
outer loop
vertex -217.769562 -125.488991 17.479540
vertex -218.170731 -123.993996 17.532351
vertex -217.769562 -123.993996 17.479540
endloop
endfacet
facet normal -0.382689 0.000000 -0.923877
outer loop
vertex -217.769562 -125.488991 17.479540
vertex -217.769562 -123.993996 17.479540
vertex -217.395737 -125.488991 17.324694
endloop
endfacet
facet normal -0.382688 0.000000 -0.923878
outer loop
vertex -217.395737 -125.488991 17.324694
vertex -217.769562 -123.993996 17.479540
vertex -217.395737 -123.993996 17.324694
endloop
endfacet
facet normal -0.608740 0.000000 -0.793370
outer loop
vertex -217.395737 -125.488991 17.324694
vertex -217.395737 -123.993996 17.324694
vertex -217.074707 -125.488991 17.078371
endloop
endfacet
facet normal -0.608746 0.000000 -0.793365
outer loop
vertex -217.074707 -125.488991 17.078371
vertex -217.395737 -123.993996 17.324694
vertex -217.074707 -123.993996 17.078371
endloop
endfacet
facet normal -0.793361 0.000000 -0.608752
outer loop
vertex -217.074707 -125.488991 17.078371
vertex -217.074707 -123.993996 17.078371
vertex -216.828384 -125.488991 16.757349
endloop
endfacet
facet normal -0.793364 0.000000 -0.608748
outer loop
vertex -216.828384 -125.488991 16.757349
vertex -217.074707 -123.993996 17.078371
vertex -216.828384 -123.993996 16.757349
endloop
endfacet
facet normal -0.923876 0.000000 -0.382691
outer loop
vertex -216.828384 -125.488991 16.757349
vertex -216.828384 -123.993996 16.757349
vertex -216.673538 -125.488991 16.383524
endloop
endfacet
facet normal -0.923879 0.000000 -0.382684
outer loop
vertex -216.673538 -125.488991 16.383524
vertex -216.828384 -123.993996 16.757349
vertex -216.673538 -123.993996 16.383524
endloop
endfacet
facet normal -0.991446 0.000000 -0.130516
outer loop
vertex -216.673538 -125.488991 16.383524
vertex -216.673538 -123.993996 16.383524
vertex -216.620728 -125.488991 15.982355
endloop
endfacet
facet normal -0.991446 0.000000 -0.130517
outer loop
vertex -216.620728 -125.488991 15.982355
vertex -216.673538 -123.993996 16.383524
vertex -216.620728 -123.993996 15.982355
endloop
endfacet
facet normal 0.000000 0.000000 -1.000000
outer loop
vertex -220.120728 -123.993996 17.532351
vertex -218.170731 -123.993996 17.532351
vertex -220.120728 -125.488991 17.532351
endloop
endfacet
facet normal 0.000000 0.000000 -1.000000
outer loop
vertex -220.120728 -125.488991 17.532351
vertex -218.170731 -123.993996 17.532351
vertex -218.170731 -125.488991 17.532351
endloop
endfacet
facet normal -1.000000 0.000000 0.000000
outer loop
vertex -220.120728 -123.993996 19.481493
vertex -220.120728 -123.993996 17.532351
vertex -220.120728 -125.488991 19.481493
endloop
endfacet
facet normal -1.000000 0.000000 0.000000
outer loop
vertex -220.120728 -125.488991 19.481493
vertex -220.120728 -123.993996 17.532351
vertex -220.120728 -125.488991 17.532351
endloop
endfacet
facet normal 0.999909 0.000000 0.013465
outer loop
vertex -223.220734 -123.993996 19.482355
vertex -223.220734 -125.488991 19.482355
vertex -223.220169 -123.993996 19.440432
endloop
endfacet
facet normal 0.999909 0.000000 0.013466
outer loop
vertex -223.220169 -123.993996 19.440432
vertex -223.220734 -125.488991 19.482355
vertex -223.220169 -125.488991 19.440432
endloop
endfacet
facet normal 0.999169 0.000000 0.040760
outer loop
vertex -223.220169 -123.993996 19.440432
vertex -223.220169 -125.488991 19.440432
vertex -223.218460 -123.993996 19.398539
endloop
endfacet
facet normal 0.999169 0.000000 0.040760
outer loop
vertex -223.218460 -123.993996 19.398539
vertex -223.220169 -125.488991 19.440432
vertex -223.218460 -125.488991 19.398539
endloop
endfacet
facet normal 0.997706 0.000000 0.067691
outer loop
vertex -223.218460 -123.993996 19.398539
vertex -223.218460 -125.488991 19.398539
vertex -223.215622 -123.993996 19.356707
endloop
endfacet
facet normal 0.997706 0.000000 0.067691
outer loop
vertex -223.215622 -123.993996 19.356707
vertex -223.218460 -125.488991 19.398539
vertex -223.215622 -125.488991 19.356707
endloop
endfacet
facet normal -1.000000 0.000000 0.000000
outer loop
vertex -220.120728 -125.488991 19.482355
vertex -220.120728 -123.993996 19.482355
vertex -220.120728 -125.488991 19.482065
endloop
endfacet
facet normal -1.000000 0.000000 0.000000
outer loop
vertex -220.120728 -125.488991 19.482065
vertex -220.120728 -123.993996 19.482355
vertex -220.120728 -123.993996 19.482065
endloop
endfacet
facet normal -1.000000 0.000000 0.000000
outer loop
vertex -220.120728 -125.488991 19.482065
vertex -220.120728 -123.993996 19.482065
vertex -220.120728 -125.488991 19.481775
endloop
endfacet
facet normal -1.000000 0.000000 0.000000
outer loop
vertex -220.120728 -125.488991 19.481775
vertex -220.120728 -123.993996 19.482065
vertex -220.120728 -123.993996 19.481775
endloop
endfacet
facet normal -1.000000 0.000000 0.000000
outer loop
vertex -220.120728 -125.488991 19.481775
vertex -220.120728 -123.993996 19.481775
vertex -220.120728 -125.488991 19.481493
endloop
endfacet
facet normal -1.000000 0.000000 0.000000
outer loop
vertex -220.120728 -125.488991 19.481493
vertex -220.120728 -123.993996 19.481775
vertex -220.120728 -123.993996 19.481493
endloop
endfacet
facet normal 0.999999 0.000000 -0.001514
outer loop
vertex -223.218384 -123.993996 17.532351
vertex -223.215622 -123.993996 19.356707
vertex -223.218384 -125.488991 17.532351
endloop
endfacet
facet normal 0.999999 0.000000 -0.001514
outer loop
vertex -223.218384 -125.488991 17.532351
vertex -223.215622 -123.993996 19.356707
vertex -223.215622 -125.488991 19.356707
endloop
endfacet
facet normal 0.000000 0.000000 -1.000000
outer loop
vertex -225.170731 -123.993996 17.532351
vertex -223.218384 -123.993996 17.532351
vertex -225.170731 -125.488991 17.532351
endloop
endfacet
facet normal 0.000000 0.000000 -1.000000
outer loop
vertex -225.170731 -125.488991 17.532351
vertex -223.218384 -123.993996 17.532351
vertex -223.218384 -125.488991 17.532351
endloop
endfacet
facet normal 0.991441 0.000000 -0.130552
outer loop
vertex -226.720734 -125.488991 15.982355
vertex -226.720734 -123.993996 15.982355
vertex -226.667908 -125.488991 16.383524
endloop
endfacet
facet normal 0.991441 0.000000 -0.130553
outer loop
vertex -226.667908 -125.488991 16.383524
vertex -226.720734 -123.993996 15.982355
vertex -226.667908 -123.993996 16.383524
endloop
endfacet
facet normal 0.923877 0.000000 -0.382689
outer loop
vertex -226.667908 -125.488991 16.383524
vertex -226.667908 -123.993996 16.383524
vertex -226.513062 -125.488991 16.757349
endloop
endfacet
facet normal 0.923879 0.000000 -0.382686
outer loop
vertex -226.513062 -125.488991 16.757349
vertex -226.667908 -123.993996 16.383524
vertex -226.513062 -123.993996 16.757349
endloop
endfacet
facet normal 0.793361 0.000000 -0.608752
outer loop
vertex -226.513062 -125.488991 16.757349
vertex -226.513062 -123.993996 16.757349
vertex -226.266739 -125.488991 17.078371
endloop
endfacet
facet normal 0.793364 0.000000 -0.608748
outer loop
vertex -226.266739 -125.488991 17.078371
vertex -226.513062 -123.993996 16.757349
vertex -226.266739 -123.993996 17.078371
endloop
endfacet
facet normal 0.608758 0.000000 -0.793356
outer loop
vertex -226.266739 -125.488991 17.078371
vertex -226.266739 -123.993996 17.078371
vertex -225.945724 -125.488991 17.324694
endloop
endfacet
facet normal 0.608764 0.000000 -0.793351
outer loop
vertex -225.945724 -125.488991 17.324694
vertex -226.266739 -123.993996 17.078371
vertex -225.945724 -123.993996 17.324694
endloop
endfacet
facet normal 0.382684 0.000000 -0.923879
outer loop
vertex -225.945724 -125.488991 17.324694
vertex -225.945724 -123.993996 17.324694
vertex -225.571899 -125.488991 17.479540
endloop
endfacet
facet normal 0.382694 0.000000 -0.923875
outer loop
vertex -225.571899 -125.488991 17.479540
vertex -225.945724 -123.993996 17.324694
vertex -225.571899 -123.993996 17.479540
endloop
endfacet
facet normal 0.130517 0.000000 -0.991446
outer loop
vertex -225.571899 -125.488991 17.479540
vertex -225.571899 -123.993996 17.479540
vertex -225.170731 -125.488991 17.532351
endloop
endfacet
facet normal 0.130519 0.000000 -0.991446
outer loop
vertex -225.170731 -125.488991 17.532351
vertex -225.571899 -123.993996 17.479540
vertex -225.170731 -123.993996 17.532351
endloop
endfacet
facet normal 1.000000 0.000000 0.000000
outer loop
vertex -226.720734 -123.993996 14.032351
vertex -226.720734 -123.993996 15.982355
vertex -226.720734 -125.488991 14.032351
endloop
endfacet
facet normal 1.000000 0.000000 0.000000
outer loop
vertex -226.720734 -125.488991 14.032351
vertex -226.720734 -123.993996 15.982355
vertex -226.720734 -125.488991 15.982355
endloop
endfacet
facet normal 0.000000 0.000000 -1.000000
outer loop
vertex -228.670181 -123.993996 14.032351
vertex -226.720734 -123.993996 14.032351
vertex -228.670181 -125.488991 14.032351
endloop
endfacet
facet normal 0.000000 0.000000 -1.000000
outer loop
vertex -228.670181 -125.488991 14.032351
vertex -226.720734 -123.993996 14.032351
vertex -226.720734 -125.488991 14.032351
endloop
endfacet
facet normal 0.000000 0.000000 1.000000
outer loop
vertex -228.670731 -123.993996 10.932352
vertex -228.670731 -125.488991 10.932352
vertex -228.670456 -123.993996 10.932352
endloop
endfacet
facet normal 0.000000 0.000000 1.000000
outer loop
vertex -228.670456 -123.993996 10.932352
vertex -228.670731 -125.488991 10.932352
vertex -228.670456 -125.488991 10.932352
endloop
endfacet
facet normal 0.000000 0.000000 -1.000000
outer loop
vertex -228.670731 -125.488991 14.032351
vertex -228.670731 -123.993996 14.032351
vertex -228.670547 -125.488991 14.032351
endloop
endfacet
facet normal 0.000000 0.000000 -1.000000
outer loop
vertex -228.670547 -125.488991 14.032351
vertex -228.670731 -123.993996 14.032351
vertex -228.670547 -123.993996 14.032351
endloop
endfacet
facet normal 0.000000 0.000000 -1.000000
outer loop
vertex -228.670547 -125.488991 14.032351
vertex -228.670547 -123.993996 14.032351
vertex -228.670364 -125.488991 14.032351
endloop
endfacet
facet normal 0.000000 0.000000 -1.000000
outer loop
vertex -228.670364 -125.488991 14.032351
vertex -228.670547 -123.993996 14.032351
vertex -228.670364 -123.993996 14.032351
endloop
endfacet
facet normal 0.000000 0.000000 -1.000000
outer loop
vertex -228.670364 -125.488991 14.032351
vertex -228.670364 -123.993996 14.032351
vertex -228.670181 -125.488991 14.032351
endloop
endfacet
facet normal 0.000000 0.000000 -1.000000
outer loop
vertex -228.670181 -125.488991 14.032351
vertex -228.670364 -123.993996 14.032351
vertex -228.670181 -123.993996 14.032351
endloop
endfacet
facet normal -0.991441 0.000000 -0.130553
outer loop
vertex -223.167908 -123.993996 12.081186
vertex -223.167908 -125.488991 12.081186
vertex -223.220734 -123.993996 12.482355
endloop
endfacet
facet normal -0.991441 0.000000 -0.130552
outer loop
vertex -223.220734 -123.993996 12.482355
vertex -223.167908 -125.488991 12.081186
vertex -223.220734 -125.488991 12.482355
endloop
endfacet
facet normal -0.991441 0.000000 0.130554
outer loop
vertex -223.220734 -123.993996 12.482355
vertex -223.220734 -125.488991 12.482355
vertex -223.167908 -123.993996 12.883524
endloop
endfacet
facet normal -0.991441 0.000000 0.130552
outer loop
vertex -223.167908 -123.993996 12.883524
vertex -223.220734 -125.488991 12.482355
vertex -223.167908 -125.488991 12.883524
endloop
endfacet
facet normal -0.923879 0.000000 0.382684
outer loop
vertex -223.167908 -123.993996 12.883524
vertex -223.167908 -125.488991 12.883524
vertex -223.013062 -123.993996 13.257349
endloop
endfacet
facet normal -0.923876 0.000000 0.382691
outer loop
vertex -223.013062 -123.993996 13.257349
vertex -223.167908 -125.488991 12.883524
vertex -223.013062 -125.488991 13.257349
endloop
endfacet
facet normal -0.793364 0.000000 0.608748
outer loop
vertex -223.013062 -123.993996 13.257349
vertex -223.013062 -125.488991 13.257349
vertex -222.766739 -123.993996 13.578371
endloop
endfacet
facet normal -0.793361 0.000000 0.608752
outer loop
vertex -222.766739 -123.993996 13.578371
vertex -223.013062 -125.488991 13.257349
vertex -222.766739 -125.488991 13.578371
endloop
endfacet
facet normal -0.608764 0.000000 0.793351
outer loop
vertex -222.766739 -123.993996 13.578371
vertex -222.766739 -125.488991 13.578371
vertex -222.445724 -123.993996 13.824694
endloop
endfacet
facet normal -0.608758 0.000000 0.793356
outer loop
vertex -222.445724 -123.993996 13.824694
vertex -222.766739 -125.488991 13.578371
vertex -222.445724 -125.488991 13.824694
endloop
endfacet
facet normal -0.382688 0.000000 0.923878
outer loop
vertex -222.445724 -123.993996 13.824694
vertex -222.445724 -125.488991 13.824694
vertex -222.071899 -123.993996 13.979540
endloop
endfacet
facet normal -0.382689 0.000000 0.923877
outer loop
vertex -222.071899 -123.993996 13.979540
vertex -222.445724 -125.488991 13.824694
vertex -222.071899 -125.488991 13.979540
endloop
endfacet
facet normal -0.130519 0.000000 0.991446
outer loop
vertex -222.071899 -123.993996 13.979540
vertex -222.071899 -125.488991 13.979540
vertex -221.670731 -123.993996 14.032351
endloop
endfacet
facet normal -0.130517 0.000000 0.991446
outer loop
vertex -221.670731 -123.993996 14.032351
vertex -222.071899 -125.488991 13.979540
vertex -221.670731 -125.488991 14.032351
endloop
endfacet
facet normal 0.130519 0.000000 0.991446
outer loop
vertex -221.670731 -123.993996 14.032351
vertex -221.670731 -125.488991 14.032351
vertex -221.269562 -123.993996 13.979540
endloop
endfacet
facet normal 0.130517 0.000000 0.991446
outer loop
vertex -221.269562 -123.993996 13.979540
vertex -221.670731 -125.488991 14.032351
vertex -221.269562 -125.488991 13.979540
endloop
endfacet
facet normal 0.382694 0.000000 0.923875
outer loop
vertex -221.269562 -123.993996 13.979540
vertex -221.269562 -125.488991 13.979540
vertex -220.895737 -123.993996 13.824694
endloop
endfacet
facet normal 0.382684 0.000000 0.923879
outer loop
vertex -220.895737 -123.993996 13.824694
vertex -221.269562 -125.488991 13.979540
vertex -220.895737 -125.488991 13.824694
endloop
endfacet
facet normal 0.608746 0.000000 0.793365
outer loop
vertex -220.895737 -123.993996 13.824694
vertex -220.895737 -125.488991 13.824694
vertex -220.574707 -123.993996 13.578371
endloop
endfacet
facet normal 0.608740 0.000000 0.793370
outer loop
vertex -220.574707 -123.993996 13.578371
vertex -220.895737 -125.488991 13.824694
vertex -220.574707 -125.488991 13.578371
endloop
endfacet
facet normal 0.793364 0.000000 0.608748
outer loop
vertex -220.574707 -123.993996 13.578371
vertex -220.574707 -125.488991 13.578371
vertex -220.328384 -123.993996 13.257349
endloop
endfacet
facet normal 0.793361 0.000000 0.608752
outer loop
vertex -220.328384 -123.993996 13.257349
vertex -220.574707 -125.488991 13.578371
vertex -220.328384 -125.488991 13.257349
endloop
endfacet
facet normal 0.923879 0.000000 0.382686
outer loop
vertex -220.328384 -123.993996 13.257349
vertex -220.328384 -125.488991 13.257349
vertex -220.173538 -123.993996 12.883524
endloop
endfacet
facet normal 0.923877 0.000000 0.382689
outer loop
vertex -220.173538 -123.993996 12.883524
vertex -220.328384 -125.488991 13.257349
vertex -220.173538 -125.488991 12.883524
endloop
endfacet
facet normal 0.991446 0.000000 0.130516
outer loop
vertex -220.173538 -123.993996 12.883524
vertex -220.173538 -125.488991 12.883524
vertex -220.120728 -123.993996 12.482355
endloop
endfacet
facet normal 0.991446 0.000000 0.130517
outer loop
vertex -220.120728 -123.993996 12.482355
vertex -220.173538 -125.488991 12.883524
vertex -220.120728 -125.488991 12.482355
endloop
endfacet
facet normal 0.991446 0.000000 -0.130516
outer loop
vertex -220.120728 -123.993996 12.482355
vertex -220.120728 -125.488991 12.482355
vertex -220.173538 -123.993996 12.081186
endloop
endfacet
facet normal 0.991446 0.000000 -0.130516
outer loop
vertex -220.173538 -123.993996 12.081186
vertex -220.120728 -125.488991 12.482355
vertex -220.173538 -125.488991 12.081186
endloop
endfacet
facet normal 0.923881 0.000000 -0.382679
outer loop
vertex -220.173538 -123.993996 12.081186
vertex -220.173538 -125.488991 12.081186
vertex -220.328384 -123.993996 11.707354
endloop
endfacet
facet normal 0.923880 0.000000 -0.382682
outer loop
vertex -220.328384 -123.993996 11.707354
vertex -220.173538 -125.488991 12.081186
vertex -220.328384 -125.488991 11.707354
endloop
endfacet
facet normal 0.793354 0.000000 -0.608760
outer loop
vertex -220.328384 -123.993996 11.707354
vertex -220.328384 -125.488991 11.707354
vertex -220.574707 -123.993996 11.386339
endloop
endfacet
facet normal 0.793354 0.000000 -0.608761
outer loop
vertex -220.574707 -123.993996 11.386339
vertex -220.328384 -125.488991 11.707354
vertex -220.574707 -125.488991 11.386339
endloop
endfacet
facet normal 0.608746 0.000000 -0.793365
outer loop
vertex -220.574707 -123.993996 11.386339
vertex -220.574707 -125.488991 11.386339
vertex -220.895737 -123.993996 11.140017
endloop
endfacet
facet normal 0.608740 0.000000 -0.793370
outer loop
vertex -220.895737 -123.993996 11.140017
vertex -220.574707 -125.488991 11.386339
vertex -220.895737 -125.488991 11.140017
endloop
endfacet
facet normal 0.382694 0.000000 -0.923875
outer loop
vertex -220.895737 -123.993996 11.140017
vertex -220.895737 -125.488991 11.140017
vertex -221.269562 -123.993996 10.985170
endloop
endfacet
facet normal 0.382689 0.000000 -0.923877
outer loop
vertex -221.269562 -123.993996 10.985170
vertex -220.895737 -125.488991 11.140017
vertex -221.269562 -125.488991 10.985170
endloop
endfacet
facet normal 0.130532 0.000000 -0.991444
outer loop
vertex -221.269562 -123.993996 10.985170
vertex -221.269562 -125.488991 10.985170
vertex -221.670731 -123.993996 10.932352
endloop
endfacet
facet normal 0.130536 0.000000 -0.991444
outer loop
vertex -221.670731 -123.993996 10.932352
vertex -221.269562 -125.488991 10.985170
vertex -221.670731 -125.488991 10.932352
endloop
endfacet
facet normal -0.130538 0.000000 -0.991443
outer loop
vertex -221.670731 -123.993996 10.932352
vertex -221.670731 -125.488991 10.932352
vertex -222.071899 -123.993996 10.985170
endloop
endfacet
facet normal -0.130530 0.000000 -0.991444
outer loop
vertex -222.071899 -123.993996 10.985170
vertex -221.670731 -125.488991 10.932352
vertex -222.071899 -125.488991 10.985170
endloop
endfacet
facet normal -0.382694 0.000000 -0.923875
outer loop
vertex -222.071899 -123.993996 10.985170
vertex -222.071899 -125.488991 10.985170
vertex -222.445724 -123.993996 11.140017
endloop
endfacet
facet normal -0.382689 0.000000 -0.923877
outer loop
vertex -222.445724 -123.993996 11.140017
vertex -222.071899 -125.488991 10.985170
vertex -222.445724 -125.488991 11.140017
endloop
endfacet
facet normal -0.608764 0.000000 -0.793351
outer loop
vertex -222.445724 -123.993996 11.140017
vertex -222.445724 -125.488991 11.140017
vertex -222.766739 -123.993996 11.386339
endloop
endfacet
facet normal -0.608758 0.000000 -0.793356
outer loop
vertex -222.766739 -123.993996 11.386339
vertex -222.445724 -125.488991 11.140017
vertex -222.766739 -125.488991 11.386339
endloop
endfacet
facet normal -0.793357 0.000000 -0.608757
outer loop
vertex -222.766739 -123.993996 11.386339
vertex -222.766739 -125.488991 11.386339
vertex -223.013062 -123.993996 11.707354
endloop
endfacet
facet normal -0.793351 0.000000 -0.608764
outer loop
vertex -223.013062 -123.993996 11.707354
vertex -222.766739 -125.488991 11.386339
vertex -223.013062 -125.488991 11.707354
endloop
endfacet
facet normal -0.923882 0.000000 -0.382677
outer loop
vertex -223.013062 -123.993996 11.707354
vertex -223.013062 -125.488991 11.707354
vertex -223.167908 -123.993996 12.081186
endloop
endfacet
facet normal -0.923879 0.000000 -0.382685
outer loop
vertex -223.167908 -123.993996 12.081186
vertex -223.013062 -125.488991 11.707354
vertex -223.167908 -125.488991 12.081186
endloop
endfacet
facet normal 0.000000 0.000000 -1.000000
outer loop
vertex -214.670731 -123.993996 14.032351
vertex -214.670731 -125.488991 14.032351
vertex -214.670807 -123.993996 14.032351
endloop
endfacet
facet normal 0.000000 0.000000 -1.000000
outer loop
vertex -214.670807 -123.993996 14.032351
vertex -214.670731 -125.488991 14.032351
vertex -214.670807 -125.488991 14.032351
endloop
endfacet
facet normal 0.000000 0.000000 1.000000
outer loop
vertex -214.670731 -125.488991 10.932352
vertex -214.670731 -123.993996 10.932352
vertex -214.670792 -125.488991 10.932352
endloop
endfacet
facet normal 0.000000 0.000000 1.000000
outer loop
vertex -214.670792 -125.488991 10.932352
vertex -214.670731 -123.993996 10.932352
vertex -214.670792 -123.993996 10.932352
endloop
endfacet
facet normal 0.000000 0.000000 1.000000
outer loop
vertex -214.670792 -123.993996 10.932352
vertex -216.613785 -123.993996 10.932352
vertex -214.670792 -125.488991 10.932352
endloop
endfacet
facet normal 0.000000 0.000000 1.000000
outer loop
vertex -214.670792 -125.488991 10.932352
vertex -216.613785 -123.993996 10.932352
vertex -216.613785 -125.488991 10.932352
endloop
endfacet
facet normal -0.999999 0.000000 -0.001369
outer loop
vertex -216.613785 -123.993996 10.932352
vertex -216.611115 -123.993988 8.982355
vertex -216.613785 -125.488991 10.932352
endloop
endfacet
facet normal -0.999999 0.000000 -0.001369
outer loop
vertex -216.613785 -125.488991 10.932352
vertex -216.611115 -123.993988 8.982355
vertex -216.611115 -125.488991 8.982355
endloop
endfacet
facet normal -0.993687 0.000000 0.112190
outer loop
vertex -216.611115 -125.488991 8.982355
vertex -216.611115 -123.993988 8.982355
vertex -216.650131 -125.488991 8.636774
endloop
endfacet
facet normal -0.993687 0.000000 0.112188
outer loop
vertex -216.650131 -125.488991 8.636774
vertex -216.611115 -123.993988 8.982355
vertex -216.650131 -123.993988 8.636774
endloop
endfacet
facet normal -0.943662 0.000000 0.330911
outer loop
vertex -216.650131 -125.488991 8.636774
vertex -216.650131 -123.993988 8.636774
vertex -216.765213 -123.993988 8.308596
endloop
endfacet
facet normal -0.943662 0.000000 0.330911
outer loop
vertex -216.650131 -125.488991 8.636774
vertex -216.765213 -123.993988 8.308596
vertex -216.765213 -125.488991 8.308596
endloop
endfacet
facet normal -0.846143 0.000000 0.532957
outer loop
vertex -216.765213 -125.488991 8.308596
vertex -216.765213 -123.993988 8.308596
vertex -216.950562 -123.993988 8.014330
endloop
endfacet
facet normal -0.846143 0.000000 0.532957
outer loop
vertex -216.765213 -125.488991 8.308596
vertex -216.950562 -123.993988 8.014330
vertex -216.950562 -125.488991 8.014330
endloop
endfacet
facet normal -0.706011 0.000000 0.708201
outer loop
vertex -216.950562 -125.488991 8.014330
vertex -216.950562 -123.993988 8.014330
vertex -217.196854 -123.993988 7.768801
endloop
endfacet
facet normal -0.706011 0.000000 0.708201
outer loop
vertex -216.950562 -125.488991 8.014330
vertex -217.196854 -123.993988 7.768801
vertex -217.196854 -125.488991 7.768801
endloop
endfacet
facet normal -0.530335 0.000000 0.847788
outer loop
vertex -217.196854 -125.488991 7.768801
vertex -217.196854 -123.993988 7.768801
vertex -217.491684 -123.993988 7.584368
endloop
endfacet
facet normal -0.530338 0.000000 0.847786
outer loop
vertex -217.196854 -125.488991 7.768801
vertex -217.491684 -123.993988 7.584368
vertex -217.491684 -125.488991 7.584368
endloop
endfacet
facet normal -0.327989 0.000000 0.944682
outer loop
vertex -217.491684 -125.488991 7.584368
vertex -217.491684 -123.993988 7.584368
vertex -217.820221 -123.993988 7.470301
endloop
endfacet
facet normal -0.327989 0.000000 0.944682
outer loop
vertex -217.491684 -125.488991 7.584368
vertex -217.820221 -123.993988 7.470301
vertex -217.820221 -125.488991 7.470301
endloop
endfacet
facet normal -0.109096 0.000000 0.994031
outer loop
vertex -217.820221 -125.488991 7.470301
vertex -217.820221 -123.993988 7.470301
vertex -218.165924 -125.488991 7.432360
endloop
endfacet
facet normal -0.109097 0.000000 0.994031
outer loop
vertex -218.165924 -125.488991 7.432360
vertex -217.820221 -123.993988 7.470301
vertex -218.165924 -123.993988 7.432360
endloop
endfacet
facet normal 0.000000 0.000000 1.000000
outer loop
vertex -218.165924 -123.993988 7.432360
vertex -220.120728 -123.993988 7.432360
vertex -218.165924 -125.488991 7.432360
endloop
endfacet
facet normal 0.000000 0.000000 1.000000
outer loop
vertex -218.165924 -125.488991 7.432360
vertex -220.120728 -123.993988 7.432360
vertex -220.120728 -125.488991 7.432360
endloop
endfacet
facet normal -1.000000 0.000000 0.000000
outer loop
vertex -220.120728 -123.993988 7.432360
vertex -220.120728 -123.993988 5.482355
vertex -220.120728 -125.488991 7.432360
endloop
endfacet
facet normal -1.000000 0.000000 0.000000
outer loop
vertex -220.120728 -125.488991 7.432360
vertex -220.120728 -123.993988 5.482355
vertex -220.120728 -125.488991 5.482355
endloop
endfacet
facet normal 1.000000 0.000000 0.000000
outer loop
vertex -223.220734 -123.993988 5.482355
vertex -223.220734 -123.993988 7.432352
vertex -223.220734 -125.488991 5.482355
endloop
endfacet
facet normal 1.000000 0.000000 0.000000
outer loop
vertex -223.220734 -125.488991 5.482355
vertex -223.220734 -123.993988 7.432352
vertex -223.220734 -125.488991 7.432352
endloop
endfacet
facet normal 0.000000 0.000000 1.000000
outer loop
vertex -223.220734 -123.993988 7.432352
vertex -225.170731 -123.993988 7.432352
vertex -223.220734 -125.488991 7.432352
endloop
endfacet
facet normal 0.000000 0.000000 1.000000
outer loop
vertex -223.220734 -125.488991 7.432352
vertex -225.170731 -123.993988 7.432352
vertex -225.170731 -125.488991 7.432352
endloop
endfacet
facet normal 0.130536 0.000000 0.991444
outer loop
vertex -225.170731 -125.488991 7.432352
vertex -225.170731 -123.993988 7.432352
vertex -225.571899 -125.488991 7.485170
endloop
endfacet
facet normal 0.130536 0.000000 0.991444
outer loop
vertex -225.571899 -125.488991 7.485170
vertex -225.170731 -123.993988 7.432352
vertex -225.571899 -123.993988 7.485170
endloop
endfacet
facet normal 0.382689 0.000000 0.923877
outer loop
vertex -225.571899 -125.488991 7.485170
vertex -225.571899 -123.993988 7.485170
vertex -225.945724 -125.488991 7.640017
endloop
endfacet
facet normal 0.382689 0.000000 0.923877
outer loop
vertex -225.945724 -125.488991 7.640017
vertex -225.571899 -123.993988 7.485170
vertex -225.945724 -123.993988 7.640017
endloop
endfacet
facet normal 0.608754 0.000000 0.793359
outer loop
vertex -225.945724 -125.488991 7.640017
vertex -225.945724 -123.993988 7.640017
vertex -226.266739 -125.488991 7.886339
endloop
endfacet
facet normal 0.608766 0.000000 0.793350
outer loop
vertex -226.266739 -125.488991 7.886339
vertex -225.945724 -123.993988 7.640017
vertex -226.266739 -123.993988 7.886339
endloop
endfacet
facet normal 0.793352 0.000000 0.608764
outer loop
vertex -226.266739 -125.488991 7.886339
vertex -226.266739 -123.993988 7.886339
vertex -226.513062 -125.488991 8.207354
endloop
endfacet
facet normal 0.793357 0.000000 0.608757
outer loop
vertex -226.513062 -125.488991 8.207354
vertex -226.266739 -123.993988 7.886339
vertex -226.513062 -123.993988 8.207354
endloop
endfacet
facet normal 0.923880 0.000000 0.382681
outer loop
vertex -226.513062 -125.488991 8.207354
vertex -226.513062 -123.993988 8.207354
vertex -226.667908 -125.488991 8.581186
endloop
endfacet
facet normal 0.923880 0.000000 0.382681
outer loop
vertex -226.667908 -125.488991 8.581186
vertex -226.513062 -123.993988 8.207354
vertex -226.667908 -123.993988 8.581186
endloop
endfacet
facet normal 0.991441 0.000000 0.130553
outer loop
vertex -226.667908 -125.488991 8.581186
vertex -226.667908 -123.993988 8.581186
vertex -226.720734 -125.488991 8.982355
endloop
endfacet
facet normal 0.991441 0.000000 0.130553
outer loop
vertex -226.720734 -125.488991 8.982355
vertex -226.667908 -123.993988 8.581186
vertex -226.720734 -123.993988 8.982355
endloop
endfacet
facet normal 1.000000 0.000000 0.000000
outer loop
vertex -226.720734 -123.993988 8.982355
vertex -226.720734 -123.993996 10.932352
vertex -226.720734 -125.488991 8.982355
endloop
endfacet
facet normal 1.000000 0.000000 0.000000
outer loop
vertex -226.720734 -125.488991 8.982355
vertex -226.720734 -123.993996 10.932352
vertex -226.720734 -125.488991 10.932352
endloop
endfacet
facet normal 0.000000 0.000000 1.000000
outer loop
vertex -226.720734 -123.993996 10.932352
vertex -228.670456 -123.993996 10.932352
vertex -226.720734 -125.488991 10.932352
endloop
endfacet
facet normal 0.000000 0.000000 1.000000
outer loop
vertex -226.720734 -125.488991 10.932352
vertex -228.670456 -123.993996 10.932352
vertex -228.670456 -125.488991 10.932352
endloop
endfacet
facet normal 0.000000 1.000000 0.000000
outer loop
vertex -214.670731 -125.488991 14.032351
vertex -214.670731 -125.488991 10.932352
vertex -214.670807 -125.488991 14.032351
endloop
endfacet
facet normal 0.000000 1.000000 0.000000
outer loop
vertex -214.670807 -125.488991 14.032351
vertex -214.670731 -125.488991 10.932352
vertex -214.670792 -125.488991 10.932352
endloop
endfacet
facet normal 0.000000 1.000000 0.000000
outer loop
vertex -214.670807 -125.488991 14.032351
vertex -214.670792 -125.488991 10.932352
vertex -216.613785 -125.488991 10.932352
endloop
endfacet
facet normal 0.000000 1.000000 -0.000008
outer loop
vertex -216.611115 -125.488991 8.982355
vertex -220.574707 -125.488991 11.386339
vertex -216.613785 -125.488991 10.932352
endloop
endfacet
facet normal 0.000000 1.000000 0.000017
outer loop
vertex -216.613785 -125.488991 10.932352
vertex -220.574707 -125.488991 11.386339
vertex -220.328384 -125.488991 11.707354
endloop
endfacet
facet normal 0.000000 1.000000 0.000005
outer loop
vertex -216.613785 -125.488991 10.932352
vertex -220.328384 -125.488991 11.707354
vertex -220.173538 -125.488991 12.081186
endloop
endfacet
facet normal 0.000000 1.000000 0.000141
outer loop
vertex -216.650131 -125.488991 8.636774
vertex -216.765213 -125.488991 8.308596
vertex -216.611115 -125.488991 8.982355
endloop
endfacet
facet normal 0.000000 1.000000 -0.000048
outer loop
vertex -216.611115 -125.488991 8.982355
vertex -216.765213 -125.488991 8.308596
vertex -216.950562 -125.488991 8.014330
endloop
endfacet
facet normal 0.000000 1.000000 0.000049
outer loop
vertex -216.611115 -125.488991 8.982355
vertex -216.950562 -125.488991 8.014330
vertex -217.196854 -125.488991 7.768801
endloop
endfacet
facet normal 0.000000 1.000000 0.000000
outer loop
vertex -217.196854 -125.488991 7.768801
vertex -217.491684 -125.488991 7.584368
vertex -216.611115 -125.488991 8.982355
endloop
endfacet
facet normal 0.000000 1.000000 0.000043
outer loop
vertex -216.611115 -125.488991 8.982355
vertex -217.491684 -125.488991 7.584368
vertex -217.820221 -125.488991 7.470301
endloop
endfacet
facet normal 0.000000 1.000000 -0.000032
outer loop
vertex -216.611115 -125.488991 8.982355
vertex -217.820221 -125.488991 7.470301
vertex -218.165924 -125.488991 7.432360
endloop
endfacet
facet normal 0.000000 1.000000 0.000000
outer loop
vertex -216.611115 -125.488991 8.982355
vertex -218.165924 -125.488991 7.432360
vertex -220.574707 -125.488991 11.386339
endloop
endfacet
facet normal 0.000000 1.000000 0.000004
outer loop
vertex -220.574707 -125.488991 11.386339
vertex -218.165924 -125.488991 7.432360
vertex -220.120728 -125.488991 7.432360
endloop
endfacet
facet normal 0.000000 1.000000 0.000000
outer loop
vertex -220.574707 -125.488991 11.386339
vertex -220.120728 -125.488991 7.432360
vertex -220.895737 -125.488991 11.140017
endloop
endfacet
facet normal 0.000000 1.000000 0.000000
outer loop
vertex -220.895737 -125.488991 11.140017
vertex -220.120728 -125.488991 7.432360
vertex -221.269562 -125.488991 10.985170
endloop
endfacet
facet normal 0.000000 1.000000 0.000000
outer loop
vertex -221.269562 -125.488991 10.985170
vertex -220.120728 -125.488991 7.432360
vertex -221.670731 -125.488991 10.932352
endloop
endfacet
facet normal 0.000000 1.000000 0.000000
outer loop
vertex -221.670731 -125.488991 10.932352
vertex -220.120728 -125.488991 7.432360
vertex -223.220734 -125.488991 7.432352
endloop
endfacet
facet normal 0.000000 1.000000 0.000000
outer loop
vertex -221.670731 -125.488991 10.932352
vertex -223.220734 -125.488991 7.432352
vertex -222.071899 -125.488991 10.985170
endloop
endfacet
facet normal 0.000000 1.000000 0.000010
outer loop
vertex -222.071899 -125.488991 10.985170
vertex -223.220734 -125.488991 7.432352
vertex -222.445724 -125.488991 11.140017
endloop
endfacet
facet normal 0.000000 1.000000 0.000000
outer loop
vertex -222.445724 -125.488991 11.140017
vertex -223.220734 -125.488991 7.432352
vertex -222.766739 -125.488991 11.386339
endloop
endfacet
facet normal 0.000000 1.000000 0.000000
outer loop
vertex -222.766739 -125.488991 11.386339
vertex -223.220734 -125.488991 7.432352
vertex -225.170731 -125.488991 7.432352
endloop
endfacet
facet normal 0.000000 1.000000 -0.000003
outer loop
vertex -222.766739 -125.488991 11.386339
vertex -225.170731 -125.488991 7.432352
vertex -226.720734 -125.488991 8.982355
endloop
endfacet
facet normal 0.000000 1.000000 0.000000
outer loop
vertex -226.720734 -125.488991 8.982355
vertex -225.170731 -125.488991 7.432352
vertex -225.571899 -125.488991 7.485170
endloop
endfacet
facet normal 0.000000 1.000000 -0.000020
outer loop
vertex -226.720734 -125.488991 8.982355
vertex -225.571899 -125.488991 7.485170
vertex -225.945724 -125.488991 7.640017
endloop
endfacet
facet normal 0.000000 1.000000 0.000000
outer loop
vertex -220.120728 -125.488991 7.432360
vertex -220.120728 -125.488991 5.482355
vertex -223.220734 -125.488991 7.432352
endloop
endfacet
facet normal 0.000000 1.000000 0.000000
outer loop
vertex -223.220734 -125.488991 7.432352
vertex -220.120728 -125.488991 5.482355
vertex -223.220734 -125.488991 5.482355
endloop
endfacet
facet normal 0.000000 1.000000 0.000000
outer loop
vertex -225.945724 -125.488991 7.640017
vertex -226.266739 -125.488991 7.886339
vertex -226.720734 -125.488991 8.982355
endloop
endfacet
facet normal 0.000000 1.000000 0.000031
outer loop
vertex -226.720734 -125.488991 8.982355
vertex -226.266739 -125.488991 7.886339
vertex -226.513062 -125.488991 8.207354
endloop
endfacet
facet normal 0.000000 1.000000 0.000000
outer loop
vertex -226.720734 -125.488991 8.982355
vertex -226.513062 -125.488991 8.207354
vertex -226.667908 -125.488991 8.581186
endloop
endfacet
facet normal 0.000000 1.000000 0.000000
outer loop
vertex -226.720734 -125.488991 8.982355
vertex -226.720734 -125.488991 10.932352
vertex -222.766739 -125.488991 11.386339
endloop
endfacet
facet normal 0.000000 1.000000 0.000000
outer loop
vertex -222.766739 -125.488991 11.386339
vertex -226.720734 -125.488991 10.932352
vertex -223.013062 -125.488991 11.707354
endloop
endfacet
facet normal 0.000000 1.000000 0.000000
outer loop
vertex -223.013062 -125.488991 11.707354
vertex -226.720734 -125.488991 10.932352
vertex -223.167908 -125.488991 12.081186
endloop
endfacet
facet normal 0.000000 1.000000 -0.000041
outer loop
vertex -223.167908 -125.488991 12.081186
vertex -226.720734 -125.488991 10.932352
vertex -223.220734 -125.488991 12.482355
endloop
endfacet
facet normal 0.000000 1.000000 0.000000
outer loop
vertex -223.220734 -125.488991 12.482355
vertex -226.720734 -125.488991 10.932352
vertex -226.720734 -125.488991 14.032351
endloop
endfacet
facet normal 0.000000 1.000000 0.000041
outer loop
vertex -223.220734 -125.488991 12.482355
vertex -226.720734 -125.488991 14.032351
vertex -223.167908 -125.488991 12.883524
endloop
endfacet
facet normal 0.000000 1.000000 0.000000
outer loop
vertex -223.167908 -125.488991 12.883524
vertex -226.720734 -125.488991 14.032351
vertex -223.013062 -125.488991 13.257349
endloop
endfacet
facet normal 0.000000 1.000000 0.000000
outer loop
vertex -223.013062 -125.488991 13.257349
vertex -226.720734 -125.488991 14.032351
vertex -222.766739 -125.488991 13.578371
endloop
endfacet
facet normal 0.000000 1.000000 0.000000
outer loop
vertex -222.766739 -125.488991 13.578371
vertex -226.720734 -125.488991 14.032351
vertex -226.720734 -125.488991 15.982355
endloop
endfacet
facet normal 0.000000 1.000000 0.000003
outer loop
vertex -222.766739 -125.488991 13.578371
vertex -226.720734 -125.488991 15.982355
vertex -225.170731 -125.488991 17.532351
endloop
endfacet
facet normal 0.000000 1.000000 -0.000007
outer loop
vertex -225.170731 -125.488991 17.532351
vertex -226.720734 -125.488991 15.982355
vertex -226.667908 -125.488991 16.383524
endloop
endfacet
facet normal 0.000000 1.000000 0.000020
outer loop
vertex -225.170731 -125.488991 17.532351
vertex -226.667908 -125.488991 16.383524
vertex -226.513062 -125.488991 16.757349
endloop
endfacet
facet normal 0.000000 1.000000 0.000000
outer loop
vertex -226.720734 -125.488991 14.032351
vertex -226.720734 -125.488991 10.932352
vertex -228.670181 -125.488991 14.032351
endloop
endfacet
facet normal 0.000000 1.000000 0.000000
outer loop
vertex -228.670181 -125.488991 14.032351
vertex -226.720734 -125.488991 10.932352
vertex -228.670456 -125.488991 10.932352
endloop
endfacet
facet normal 0.000000 1.000000 0.000000
outer loop
vertex -228.670181 -125.488991 14.032351
vertex -228.670456 -125.488991 10.932352
vertex -228.670731 -125.488991 10.932352
endloop
endfacet
facet normal 0.000000 1.000000 0.000000
outer loop
vertex -228.670731 -125.488991 14.032351
vertex -228.670547 -125.488991 14.032351
vertex -228.670731 -125.488991 10.932352
endloop
endfacet
facet normal 0.000000 1.000000 0.000000
outer loop
vertex -228.670731 -125.488991 10.932352
vertex -228.670547 -125.488991 14.032351
vertex -228.670364 -125.488991 14.032351
endloop
endfacet
facet normal 0.000000 1.000000 0.000012
outer loop
vertex -228.670731 -125.488991 10.932352
vertex -228.670364 -125.488991 14.032351
vertex -228.670181 -125.488991 14.032351
endloop
endfacet
facet normal 0.000000 1.000000 0.000000
outer loop
vertex -226.513062 -125.488991 16.757349
vertex -226.266739 -125.488991 17.078371
vertex -225.170731 -125.488991 17.532351
endloop
endfacet
facet normal 0.000000 1.000000 0.000123
outer loop
vertex -225.170731 -125.488991 17.532351
vertex -226.266739 -125.488991 17.078371
vertex -225.945724 -125.488991 17.324694
endloop
endfacet
facet normal 0.000000 1.000000 -0.000180
outer loop
vertex -225.170731 -125.488991 17.532351
vertex -225.945724 -125.488991 17.324694
vertex -225.571899 -125.488991 17.479540
endloop
endfacet
facet normal 0.000000 1.000000 -0.000001
outer loop
vertex -225.170731 -125.488991 17.532351
vertex -223.218384 -125.488991 17.532351
vertex -222.766739 -125.488991 13.578371
endloop
endfacet
facet normal 0.000000 1.000000 0.000000
outer loop
vertex -222.766739 -125.488991 13.578371
vertex -223.218384 -125.488991 17.532351
vertex -222.445724 -125.488991 13.824694
endloop
endfacet
facet normal 0.000000 1.000000 0.000000
outer loop
vertex -222.445724 -125.488991 13.824694
vertex -223.218384 -125.488991 17.532351
vertex -222.071899 -125.488991 13.979540
endloop
endfacet
facet normal 0.000000 1.000000 0.000000
outer loop
vertex -222.071899 -125.488991 13.979540
vertex -223.218384 -125.488991 17.532351
vertex -221.670731 -125.488991 14.032351
endloop
endfacet
facet normal 0.000000 1.000000 0.000006
outer loop
vertex -221.670731 -125.488991 14.032351
vertex -223.218384 -125.488991 17.532351
vertex -220.120728 -125.488991 17.532351
endloop
endfacet
facet normal 0.000000 1.000000 0.000000
outer loop
vertex -221.670731 -125.488991 14.032351
vertex -220.120728 -125.488991 17.532351
vertex -221.269562 -125.488991 13.979540
endloop
endfacet
facet normal 0.000000 1.000000 -0.000010
outer loop
vertex -221.269562 -125.488991 13.979540
vertex -220.120728 -125.488991 17.532351
vertex -220.895737 -125.488991 13.824694
endloop
endfacet
facet normal 0.000000 1.000000 0.000000
outer loop
vertex -220.895737 -125.488991 13.824694
vertex -220.120728 -125.488991 17.532351
vertex -220.574707 -125.488991 13.578371
endloop
endfacet
facet normal 0.000000 1.000000 0.000000
outer loop
vertex -220.574707 -125.488991 13.578371
vertex -220.120728 -125.488991 17.532351
vertex -218.170731 -125.488991 17.532351
endloop
endfacet
facet normal 0.000000 1.000000 -0.000003
outer loop
vertex -220.574707 -125.488991 13.578371
vertex -218.170731 -125.488991 17.532351
vertex -216.620728 -125.488991 15.982355
endloop
endfacet
facet normal 0.000000 1.000000 0.000000
outer loop
vertex -216.620728 -125.488991 15.982355
vertex -218.170731 -125.488991 17.532351
vertex -216.673538 -125.488991 16.383524
endloop
endfacet
facet normal 0.000000 1.000000 -0.000080
outer loop
vertex -216.673538 -125.488991 16.383524
vertex -218.170731 -125.488991 17.532351
vertex -216.828384 -125.488991 16.757349
endloop
endfacet
facet normal 0.000000 1.000000 0.000127
outer loop
vertex -216.828384 -125.488991 16.757349
vertex -218.170731 -125.488991 17.532351
vertex -217.074707 -125.488991 17.078371
endloop
endfacet
facet normal 0.000000 1.000000 0.000000
outer loop
vertex -217.074707 -125.488991 17.078371
vertex -218.170731 -125.488991 17.532351
vertex -217.395737 -125.488991 17.324694
endloop
endfacet
facet normal 0.000000 1.000000 -0.000180
outer loop
vertex -217.395737 -125.488991 17.324694
vertex -218.170731 -125.488991 17.532351
vertex -217.769562 -125.488991 17.479540
endloop
endfacet
facet normal 0.000000 1.000000 0.000000
outer loop
vertex -223.218384 -125.488991 17.532351
vertex -223.215622 -125.488991 19.356707
vertex -220.120728 -125.488991 17.532351
endloop
endfacet
facet normal 0.000000 1.000000 0.000000
outer loop
vertex -220.120728 -125.488991 17.532351
vertex -223.215622 -125.488991 19.356707
vertex -220.120728 -125.488991 19.481493
endloop
endfacet
facet normal 0.000000 1.000000 0.000000
outer loop
vertex -220.120728 -125.488991 19.481493
vertex -223.215622 -125.488991 19.356707
vertex -220.120728 -125.488991 19.481775
endloop
endfacet
facet normal 0.000000 1.000000 -0.000224
outer loop
vertex -220.120728 -125.488991 19.481775
vertex -223.215622 -125.488991 19.356707
vertex -223.218460 -125.488991 19.398539
endloop
endfacet
facet normal 0.000000 1.000000 0.000290
outer loop
vertex -220.120728 -125.488991 19.481775
vertex -223.218460 -125.488991 19.398539
vertex -223.220169 -125.488991 19.440432
endloop
endfacet
facet normal 0.000000 1.000000 -0.000470
outer loop
vertex -223.220734 -125.488991 19.482355
vertex -220.120728 -125.488991 19.482355
vertex -223.220169 -125.488991 19.440432
endloop
endfacet
facet normal 0.000000 1.000000 0.000000
outer loop
vertex -223.220169 -125.488991 19.440432
vertex -220.120728 -125.488991 19.482355
vertex -220.120728 -125.488991 19.482065
endloop
endfacet
facet normal 0.000000 1.000000 0.000000
outer loop
vertex -223.220169 -125.488991 19.440432
vertex -220.120728 -125.488991 19.482065
vertex -220.120728 -125.488991 19.481775
endloop
endfacet
facet normal 0.000000 1.000000 0.000000
outer loop
vertex -216.620728 -125.488991 15.982355
vertex -216.618057 -125.488991 14.032351
vertex -220.574707 -125.488991 13.578371
endloop
endfacet
facet normal 0.000000 1.000000 0.000044
outer loop
vertex -220.574707 -125.488991 13.578371
vertex -216.618057 -125.488991 14.032351
vertex -220.328384 -125.488991 13.257349
endloop
endfacet
facet normal 0.000000 1.000000 0.000000
outer loop
vertex -220.328384 -125.488991 13.257349
vertex -216.618057 -125.488991 14.032351
vertex -220.173538 -125.488991 12.883524
endloop
endfacet
facet normal 0.000000 1.000000 -0.000041
outer loop
vertex -220.173538 -125.488991 12.883524
vertex -216.618057 -125.488991 14.032351
vertex -220.120728 -125.488991 12.482355
endloop
endfacet
facet normal 0.000000 1.000000 0.000003
outer loop
vertex -220.120728 -125.488991 12.482355
vertex -216.618057 -125.488991 14.032351
vertex -216.613785 -125.488991 10.932352
endloop
endfacet
facet normal 0.000000 1.000000 0.000000
outer loop
vertex -220.120728 -125.488991 12.482355
vertex -216.613785 -125.488991 10.932352
vertex -220.173538 -125.488991 12.081186
endloop
endfacet
facet normal 0.000000 1.000000 0.000000
outer loop
vertex -216.618057 -125.488991 14.032351
vertex -214.670807 -125.488991 14.032351
vertex -216.613785 -125.488991 10.932352
endloop
endfacet
facet normal 0.000000 0.000000 1.000000
outer loop
vertex -220.120728 -123.993996 19.482355
vertex -220.120728 -125.488991 19.482355
vertex -218.170731 -123.993996 19.482355
endloop
endfacet
facet normal 0.000002 0.000000 1.000000
outer loop
vertex -218.170731 -123.993996 19.482355
vertex -220.120728 -125.488991 19.482355
vertex -220.120728 -126.488991 19.482355
endloop
endfacet
facet normal -0.000001 0.000000 1.000000
outer loop
vertex -218.170731 -123.993996 19.482355
vertex -220.120728 -126.488991 19.482355
vertex -218.170731 -127.983994 19.482355
endloop
endfacet
facet normal 0.000000 0.000000 1.000000
outer loop
vertex -218.170731 -127.983994 19.482355
vertex -220.120728 -126.488991 19.482355
vertex -220.120728 -127.983994 19.482355
endloop
endfacet
facet normal 0.000000 0.000000 1.000000
outer loop
vertex -220.120728 -125.488991 19.482355
vertex -223.220734 -125.488991 19.482355
vertex -220.120728 -126.488991 19.482355
endloop
endfacet
facet normal 0.000000 0.000000 1.000000
outer loop
vertex -220.120728 -126.488991 19.482355
vertex -223.220734 -125.488991 19.482355
vertex -223.220734 -126.488991 19.482355
endloop
endfacet
facet normal -0.000002 0.000000 1.000000
outer loop
vertex -223.220734 -126.488991 19.482355
vertex -223.220734 -125.488991 19.482355
vertex -225.170731 -123.993996 19.482355
endloop
endfacet
facet normal 0.000000 0.000000 1.000000
outer loop
vertex -223.220734 -126.488991 19.482355
vertex -225.170731 -123.993996 19.482355
vertex -225.170731 -127.983994 19.482355
endloop
endfacet
facet normal 0.000000 0.000000 1.000000
outer loop
vertex -223.220734 -125.488991 19.482355
vertex -223.220734 -123.993996 19.482355
vertex -225.170731 -123.993996 19.482355
endloop
endfacet
facet normal 0.000000 0.000000 1.000000
outer loop
vertex -225.170731 -127.983994 19.482355
vertex -223.220734 -127.983994 19.482355
vertex -223.220734 -126.488991 19.482355
endloop
endfacet
facet normal -1.000000 0.000000 0.000000
outer loop
vertex -228.670731 -123.993996 14.032351
vertex -228.670731 -125.488991 14.032351
vertex -228.670731 -123.993996 15.982355
endloop
endfacet
facet normal -1.000000 0.000000 0.000000
outer loop
vertex -228.670731 -123.993996 15.982355
vertex -228.670731 -125.488991 14.032351
vertex -228.670731 -126.488991 14.032351
endloop
endfacet
facet normal -1.000000 0.000000 0.000000
outer loop
vertex -228.670731 -123.993996 15.982355
vertex -228.670731 -126.488991 14.032351
vertex -228.670731 -127.983994 15.982355
endloop
endfacet
facet normal -1.000000 0.000000 0.000000
outer loop
vertex -228.670731 -127.983994 15.982355
vertex -228.670731 -126.488991 14.032351
vertex -228.670731 -127.983994 14.032351
endloop
endfacet
facet normal -1.000000 0.000000 0.000000
outer loop
vertex -228.670731 -125.488991 14.032351
vertex -228.670731 -125.488991 10.932352
vertex -228.670731 -126.488991 14.032351
endloop
endfacet
facet normal -1.000000 0.000000 0.000000
outer loop
vertex -228.670731 -126.488991 14.032351
vertex -228.670731 -125.488991 10.932352
vertex -228.670731 -126.488991 10.932352
endloop
endfacet
facet normal -1.000000 0.000000 0.000000
outer loop
vertex -228.670731 -126.488991 10.932352
vertex -228.670731 -125.488991 10.932352
vertex -228.670731 -123.993988 8.982355
endloop
endfacet
facet normal -1.000000 0.000000 0.000000
outer loop
vertex -228.670731 -126.488991 10.932352
vertex -228.670731 -123.993988 8.982355
vertex -228.670731 -127.983994 8.982355
endloop
endfacet
facet normal -1.000000 0.000000 0.000000
outer loop
vertex -228.670731 -125.488991 10.932352
vertex -228.670731 -123.993996 10.932352
vertex -228.670731 -123.993988 8.982355
endloop
endfacet
facet normal -1.000000 0.000000 0.000000
outer loop
vertex -228.670731 -127.983994 8.982355
vertex -228.670731 -127.983994 10.932352
vertex -228.670731 -126.488991 10.932352
endloop
endfacet
facet normal 0.000000 1.000000 0.000373
outer loop
vertex -223.220734 -123.993996 19.482355
vertex -223.220169 -123.993996 19.440432
vertex -225.170731 -123.993996 19.482355
endloop
endfacet
facet normal 0.000000 1.000000 -0.000252
outer loop
vertex -225.170731 -123.993996 19.482355
vertex -223.220169 -123.993996 19.440432
vertex -223.218460 -123.993996 19.398539
endloop
endfacet
facet normal 0.000000 1.000000 -0.000044
outer loop
vertex -225.170731 -123.993996 19.482355
vertex -223.218460 -123.993996 19.398539
vertex -223.215622 -123.993996 19.356707
endloop
endfacet
facet normal 0.000000 1.000000 0.000000
outer loop
vertex -223.218384 -123.993996 17.532351
vertex -225.170731 -123.993996 17.532351
vertex -223.215622 -123.993996 19.356707
endloop
endfacet
facet normal 0.000000 1.000000 0.000000
outer loop
vertex -223.215622 -123.993996 19.356707
vertex -225.170731 -123.993996 17.532351
vertex -225.170731 -123.993996 19.482355
endloop
endfacet
facet normal 0.000000 1.000000 0.000000
outer loop
vertex -225.170731 -123.993996 17.532351
vertex -225.571899 -123.993996 17.479540
vertex -225.170731 -123.993996 19.482355
endloop
endfacet
facet normal 0.000000 1.000000 -0.000011
outer loop
vertex -225.170731 -123.993996 19.482355
vertex -225.571899 -123.993996 17.479540
vertex -225.945724 -123.993996 17.324694
endloop
endfacet
facet normal 0.000000 1.000000 0.000015
outer loop
vertex -225.170731 -123.993996 19.482355
vertex -225.945724 -123.993996 17.324694
vertex -226.266739 -123.993996 17.078371
endloop
endfacet
facet normal 0.000000 1.000000 -0.000013
outer loop
vertex -225.170731 -123.993996 19.482355
vertex -226.266739 -123.993996 17.078371
vertex -228.670731 -123.993996 15.982355
endloop
endfacet
facet normal 0.000000 1.000000 0.000053
outer loop
vertex -228.670731 -123.993996 15.982355
vertex -226.266739 -123.993996 17.078371
vertex -226.513062 -123.993996 16.757349
endloop
endfacet
facet normal 0.000000 1.000000 -0.000050
outer loop
vertex -228.670731 -123.993996 15.982355
vertex -226.513062 -123.993996 16.757349
vertex -226.667908 -123.993996 16.383524
endloop
endfacet
facet normal 0.000000 1.000000 0.000000
outer loop
vertex -226.667908 -123.993996 16.383524
vertex -226.720734 -123.993996 15.982355
vertex -228.670731 -123.993996 15.982355
endloop
endfacet
facet normal 0.000000 1.000000 0.000000
outer loop
vertex -228.670731 -123.993996 15.982355
vertex -226.720734 -123.993996 15.982355
vertex -228.670181 -123.993996 14.032351
endloop
endfacet
facet normal 0.000000 1.000000 -0.000024
outer loop
vertex -228.670731 -123.993996 15.982355
vertex -228.670181 -123.993996 14.032351
vertex -228.670364 -123.993996 14.032351
endloop
endfacet
facet normal 0.000000 1.000000 0.000000
outer loop
vertex -226.720734 -123.993996 15.982355
vertex -226.720734 -123.993996 14.032351
vertex -228.670181 -123.993996 14.032351
endloop
endfacet
facet normal 0.000000 1.000000 0.000000
outer loop
vertex -228.670364 -123.993996 14.032351
vertex -228.670547 -123.993996 14.032351
vertex -228.670731 -123.993996 15.982355
endloop
endfacet
facet normal 0.000000 1.000000 0.000000
outer loop
vertex -228.670731 -123.993996 15.982355
vertex -228.670547 -123.993996 14.032351
vertex -228.670731 -123.993996 14.032351
endloop
endfacet
facet normal 0.000000 1.000000 0.000000
outer loop
vertex -223.220734 -123.993988 7.432352
vertex -223.220734 -123.993988 5.482355
vertex -225.170731 -123.993988 7.432352
endloop
endfacet
facet normal 0.000000 1.000000 0.000000
outer loop
vertex -225.170731 -123.993988 7.432352
vertex -223.220734 -123.993988 5.482355
vertex -225.170731 -123.993988 5.482355
endloop
endfacet
facet normal 0.000000 1.000000 0.000000
outer loop
vertex -225.170731 -123.993988 7.432352
vertex -225.170731 -123.993988 5.482355
vertex -225.571899 -123.993988 7.485170
endloop
endfacet
facet normal 0.000000 1.000000 0.000022
outer loop
vertex -225.571899 -123.993988 7.485170
vertex -225.170731 -123.993988 5.482355
vertex -225.945724 -123.993988 7.640017
endloop
endfacet
facet normal 0.000000 1.000000 0.000000
outer loop
vertex -225.945724 -123.993988 7.640017
vertex -225.170731 -123.993988 5.482355
vertex -226.266739 -123.993988 7.886339
endloop
endfacet
facet normal 0.000000 1.000000 0.000000
outer loop
vertex -226.266739 -123.993988 7.886339
vertex -225.170731 -123.993988 5.482355
vertex -228.670731 -123.993988 8.982355
endloop
endfacet
facet normal 0.000000 1.000000 0.000122
outer loop
vertex -226.266739 -123.993988 7.886339
vertex -228.670731 -123.993988 8.982355
vertex -226.513062 -123.993988 8.207354
endloop
endfacet
facet normal 0.000000 1.000000 0.000000
outer loop
vertex -226.513062 -123.993988 8.207354
vertex -228.670731 -123.993988 8.982355
vertex -226.667908 -123.993988 8.581186
endloop
endfacet
facet normal 0.000000 1.000000 0.000000
outer loop
vertex -226.667908 -123.993988 8.581186
vertex -228.670731 -123.993988 8.982355
vertex -226.720734 -123.993988 8.982355
endloop
endfacet
facet normal 0.000000 1.000000 -0.000001
outer loop
vertex -226.720734 -123.993988 8.982355
vertex -228.670731 -123.993988 8.982355
vertex -228.670456 -123.993996 10.932352
endloop
endfacet
facet normal 0.000000 1.000000 0.000008
outer loop
vertex -226.720734 -123.993988 8.982355
vertex -228.670456 -123.993996 10.932352
vertex -226.720734 -123.993996 10.932352
endloop
endfacet
facet normal 0.000000 1.000000 0.000000
outer loop
vertex -228.670731 -123.993988 8.982355
vertex -228.670731 -123.993996 10.932352
vertex -228.670456 -123.993996 10.932352
endloop
endfacet
facet normal 0.000000 1.000000 0.000008
outer loop
vertex -214.670731 -123.993996 10.932352
vertex -214.670731 -123.993988 8.982355
vertex -214.670792 -123.993996 10.932352
endloop
endfacet
facet normal 0.000000 1.000000 0.000008
outer loop
vertex -214.670792 -123.993996 10.932352
vertex -214.670731 -123.993988 8.982355
vertex -216.611115 -123.993988 8.982355
endloop
endfacet
facet normal 0.000000 1.000000 0.000000
outer loop
vertex -214.670792 -123.993996 10.932352
vertex -216.611115 -123.993988 8.982355
vertex -216.613785 -123.993996 10.932352
endloop
endfacet
facet normal 0.000000 1.000000 0.000013
outer loop
vertex -218.170731 -123.993988 5.482355
vertex -216.950562 -123.993988 8.014330
vertex -214.670731 -123.993988 8.982355
endloop
endfacet
facet normal 0.000000 1.000000 -0.000062
outer loop
vertex -214.670731 -123.993988 8.982355
vertex -216.950562 -123.993988 8.014330
vertex -216.765213 -123.993988 8.308596
endloop
endfacet
facet normal 0.000000 1.000000 0.000034
outer loop
vertex -214.670731 -123.993988 8.982355
vertex -216.765213 -123.993988 8.308596
vertex -216.650131 -123.993988 8.636774
endloop
endfacet
facet normal 0.000000 1.000000 0.000000
outer loop
vertex -220.120728 -123.993988 5.482355
vertex -220.120728 -123.993988 7.432360
vertex -218.170731 -123.993988 5.482355
endloop
endfacet
facet normal 0.000000 1.000000 0.000000
outer loop
vertex -218.170731 -123.993988 5.482355
vertex -220.120728 -123.993988 7.432360
vertex -218.165924 -123.993988 7.432360
endloop
endfacet
facet normal 0.000000 1.000000 -0.000011
outer loop
vertex -218.170731 -123.993988 5.482355
vertex -218.165924 -123.993988 7.432360
vertex -217.820221 -123.993988 7.470301
endloop
endfacet
facet normal 0.000000 1.000000 0.000000
outer loop
vertex -217.820221 -123.993988 7.470301
vertex -217.491684 -123.993988 7.584368
vertex -218.170731 -123.993988 5.482355
endloop
endfacet
facet normal 0.000000 1.000000 -0.000015
outer loop
vertex -218.170731 -123.993988 5.482355
vertex -217.491684 -123.993988 7.584368
vertex -217.196854 -123.993988 7.768801
endloop
endfacet
facet normal 0.000000 1.000000 0.000047
outer loop
vertex -218.170731 -123.993988 5.482355
vertex -217.196854 -123.993988 7.768801
vertex -216.950562 -123.993988 8.014330
endloop
endfacet
facet normal 0.000000 1.000000 0.000000
outer loop
vertex -216.650131 -123.993988 8.636774
vertex -216.611115 -123.993988 8.982355
vertex -214.670731 -123.993988 8.982355
endloop
endfacet
facet normal 0.000000 1.000000 0.000000
outer loop
vertex -214.670731 -123.993996 14.032351
vertex -214.670807 -123.993996 14.032351
vertex -214.670731 -123.993996 15.982355
endloop
endfacet
facet normal 0.000000 1.000000 0.000000
outer loop
vertex -214.670731 -123.993996 15.982355
vertex -214.670807 -123.993996 14.032351
vertex -216.618057 -123.993996 14.032351
endloop
endfacet
facet normal 0.000000 1.000000 0.000000
outer loop
vertex -214.670731 -123.993996 15.982355
vertex -216.618057 -123.993996 14.032351
vertex -216.620728 -123.993996 15.982355
endloop
endfacet
facet normal 0.000000 1.000000 0.000000
outer loop
vertex -216.620728 -123.993996 15.982355
vertex -216.673538 -123.993996 16.383524
vertex -214.670731 -123.993996 15.982355
endloop
endfacet
facet normal 0.000000 1.000000 -0.000050
outer loop
vertex -214.670731 -123.993996 15.982355
vertex -216.673538 -123.993996 16.383524
vertex -216.828384 -123.993996 16.757349
endloop
endfacet
facet normal 0.000000 1.000000 0.000053
outer loop
vertex -214.670731 -123.993996 15.982355
vertex -216.828384 -123.993996 16.757349
vertex -217.074707 -123.993996 17.078371
endloop
endfacet
facet normal 0.000000 1.000000 -0.000007
outer loop
vertex -214.670731 -123.993996 15.982355
vertex -217.074707 -123.993996 17.078371
vertex -218.170731 -123.993996 19.482355
endloop
endfacet
facet normal 0.000000 1.000000 0.000015
outer loop
vertex -218.170731 -123.993996 19.482355
vertex -217.074707 -123.993996 17.078371
vertex -217.395737 -123.993996 17.324694
endloop
endfacet
facet normal 0.000000 1.000000 -0.000011
outer loop
vertex -218.170731 -123.993996 19.482355
vertex -217.395737 -123.993996 17.324694
vertex -217.769562 -123.993996 17.479540
endloop
endfacet
facet normal 0.000000 1.000000 0.000000
outer loop
vertex -217.769562 -123.993996 17.479540
vertex -218.170731 -123.993996 17.532351
vertex -218.170731 -123.993996 19.482355
endloop
endfacet
facet normal 0.000000 1.000000 0.000000
outer loop
vertex -218.170731 -123.993996 19.482355
vertex -218.170731 -123.993996 17.532351
vertex -220.120728 -123.993996 19.481493
endloop
endfacet
facet normal 0.000000 1.000000 0.000000
outer loop
vertex -218.170731 -123.993996 19.482355
vertex -220.120728 -123.993996 19.481493
vertex -220.120728 -123.993996 19.481775
endloop
endfacet
facet normal 0.000000 1.000000 0.000000
outer loop
vertex -218.170731 -123.993996 17.532351
vertex -220.120728 -123.993996 17.532351
vertex -220.120728 -123.993996 19.481493
endloop
endfacet
facet normal 0.000000 1.000000 0.000000
outer loop
vertex -220.120728 -123.993996 19.481775
vertex -220.120728 -123.993996 19.482065
vertex -218.170731 -123.993996 19.482355
endloop
endfacet
facet normal 0.000000 1.000000 0.000000
outer loop
vertex -218.170731 -123.993996 19.482355
vertex -220.120728 -123.993996 19.482065
vertex -220.120728 -123.993996 19.482355
endloop
endfacet
facet normal 0.000000 0.000000 -1.000000
outer loop
vertex -223.220734 -127.983994 14.032351
vertex -228.670731 -127.983994 14.032351
vertex -223.220734 -126.488991 14.032351
endloop
endfacet
facet normal 0.000000 0.000000 -1.000000
outer loop
vertex -223.220734 -126.488991 14.032351
vertex -228.670731 -127.983994 14.032351
vertex -228.670731 -126.488991 14.032351
endloop
endfacet
facet normal 1.000000 0.000000 0.000000
outer loop
vertex -223.220734 -127.983994 19.482355
vertex -223.220734 -127.983994 14.032351
vertex -223.220734 -126.488991 19.482355
endloop
endfacet
facet normal 1.000000 0.000000 0.000000
outer loop
vertex -223.220734 -126.488991 19.482355
vertex -223.220734 -127.983994 14.032351
vertex -223.220734 -126.488991 14.032351
endloop
endfacet
facet normal -1.000000 0.000000 0.000000
outer loop
vertex -220.120728 -127.983994 14.032351
vertex -220.120728 -127.983994 19.482355
vertex -220.120728 -126.488991 14.032351
endloop
endfacet
facet normal -1.000000 0.000000 0.000000
outer loop
vertex -220.120728 -126.488991 14.032351
vertex -220.120728 -127.983994 19.482355
vertex -220.120728 -126.488991 19.482355
endloop
endfacet
facet normal 0.000000 0.000000 -1.000000
outer loop
vertex -214.670731 -127.983994 14.032351
vertex -220.120728 -127.983994 14.032351
vertex -214.670731 -126.488991 14.032351
endloop
endfacet
facet normal 0.000000 0.000000 -1.000000
outer loop
vertex -214.670731 -126.488991 14.032351
vertex -220.120728 -127.983994 14.032351
vertex -220.120728 -126.488991 14.032351
endloop
endfacet
facet normal 0.000000 -1.000000 0.000000
outer loop
vertex -228.670731 -126.488991 10.932352
vertex -223.220734 -126.488991 10.932352
vertex -228.670731 -126.488991 14.032351
endloop
endfacet
facet normal 0.000000 -1.000000 0.000000
outer loop
vertex -228.670731 -126.488991 14.032351
vertex -223.220734 -126.488991 10.932352
vertex -223.220734 -126.488991 14.032351
endloop
endfacet
facet normal 0.000000 -1.000000 0.000000
outer loop
vertex -223.220734 -126.488991 14.032351
vertex -223.220734 -126.488991 10.932352
vertex -220.120728 -126.488991 10.932352
endloop
endfacet
facet normal 0.000000 -1.000000 0.000000
outer loop
vertex -223.220734 -126.488991 14.032351
vertex -220.120728 -126.488991 10.932352
vertex -220.120728 -126.488991 14.032351
endloop
endfacet
facet normal 0.000000 -1.000000 0.000000
outer loop
vertex -220.120728 -126.488991 14.032351
vertex -220.120728 -126.488991 10.932352
vertex -214.670853 -126.488991 10.932352
endloop
endfacet
facet normal 0.000000 -1.000000 -0.000000
outer loop
vertex -220.120728 -126.488991 14.032351
vertex -214.670853 -126.488991 10.932352
vertex -214.670731 -126.488991 14.032351
endloop
endfacet
facet normal 0.000000 -1.000000 0.000000
outer loop
vertex -214.670731 -126.488991 14.032351
vertex -214.670853 -126.488991 10.932352
vertex -214.670792 -126.488991 10.932352
endloop
endfacet
facet normal 0.000000 -1.000000 0.000000
outer loop
vertex -214.670731 -126.488991 14.032351
vertex -214.670792 -126.488991 10.932352
vertex -214.670731 -126.488991 10.932352
endloop
endfacet
facet normal 0.000000 -1.000000 0.000000
outer loop
vertex -223.220734 -126.488991 5.482355
vertex -220.120728 -126.488991 5.482355
vertex -223.220734 -126.488991 10.932352
endloop
endfacet
facet normal 0.000000 -1.000000 0.000000
outer loop
vertex -223.220734 -126.488991 10.932352
vertex -220.120728 -126.488991 5.482355
vertex -220.120728 -126.488991 10.932352
endloop
endfacet
facet normal 0.000000 -1.000000 0.000000
outer loop
vertex -220.120728 -126.488991 19.482355
vertex -223.220734 -126.488991 19.482355
vertex -220.120728 -126.488991 14.032351
endloop
endfacet
facet normal 0.000000 -1.000000 0.000000
outer loop
vertex -220.120728 -126.488991 14.032351
vertex -223.220734 -126.488991 19.482355
vertex -223.220734 -126.488991 14.032351
endloop
endfacet
facet normal -1.000000 0.000000 0.000000
outer loop
vertex -220.120728 -127.983994 5.482355
vertex -220.120728 -127.983994 10.932352
vertex -220.120728 -126.488991 5.482355
endloop
endfacet
facet normal -1.000000 0.000000 0.000000
outer loop
vertex -220.120728 -126.488991 5.482355
vertex -220.120728 -127.983994 10.932352
vertex -220.120728 -126.488991 10.932352
endloop
endfacet
facet normal 1.000000 0.000000 0.000000
outer loop
vertex -223.220734 -127.983994 10.932352
vertex -223.220734 -127.983994 5.482355
vertex -223.220734 -126.488991 10.932352
endloop
endfacet
facet normal 1.000000 0.000000 0.000000
outer loop
vertex -223.220734 -126.488991 10.932352
vertex -223.220734 -127.983994 5.482355
vertex -223.220734 -126.488991 5.482355
endloop
endfacet
facet normal 0.000000 0.000000 1.000000
outer loop
vertex -228.670731 -127.983994 10.932352
vertex -223.220734 -127.983994 10.932352
vertex -228.670731 -126.488991 10.932352
endloop
endfacet
facet normal 0.000000 0.000000 1.000000
outer loop
vertex -228.670731 -126.488991 10.932352
vertex -223.220734 -127.983994 10.932352
vertex -223.220734 -126.488991 10.932352
endloop
endfacet
facet normal 0.000000 0.000000 1.000000
outer loop
vertex -214.670731 -127.983994 10.932352
vertex -214.670731 -126.488991 10.932352
vertex -214.670792 -127.983994 10.932352
endloop
endfacet
facet normal 0.000000 0.000000 1.000000
outer loop
vertex -214.670792 -127.983994 10.932352
vertex -214.670731 -126.488991 10.932352
vertex -214.670792 -126.488991 10.932352
endloop
endfacet
facet normal 0.000000 0.000000 1.000000
outer loop
vertex -214.670792 -127.983994 10.932352
vertex -214.670792 -126.488991 10.932352
vertex -214.670853 -127.983994 10.932352
endloop
endfacet
facet normal 0.000000 0.000000 1.000000
outer loop
vertex -214.670853 -127.983994 10.932352
vertex -214.670792 -126.488991 10.932352
vertex -214.670853 -126.488991 10.932352
endloop
endfacet
facet normal 0.000000 0.000000 1.000000
outer loop
vertex -220.120728 -127.983994 10.932352
vertex -214.670853 -127.983994 10.932352
vertex -220.120728 -126.488991 10.932352
endloop
endfacet
facet normal 0.000000 0.000000 1.000000
outer loop
vertex -220.120728 -126.488991 10.932352
vertex -214.670853 -127.983994 10.932352
vertex -214.670853 -126.488991 10.932352
endloop
endfacet
facet normal 0.000000 -1.000000 0.000000
outer loop
vertex -228.670731 -127.983994 14.032351
vertex -223.220734 -127.983994 14.032351
vertex -228.670731 -127.983994 15.982355
endloop
endfacet
facet normal 0.000000 -1.000000 0.000002
outer loop
vertex -228.670731 -127.983994 15.982355
vertex -223.220734 -127.983994 14.032351
vertex -225.170731 -127.983994 19.482355
endloop
endfacet
facet normal 0.000000 -1.000000 0.000000
outer loop
vertex -225.170731 -127.983994 19.482355
vertex -223.220734 -127.983994 14.032351
vertex -223.220734 -127.983994 19.482355
endloop
endfacet
facet normal 0.000000 -1.000000 0.000000
outer loop
vertex -220.120728 -127.983994 19.482355
vertex -220.120728 -127.983994 14.032351
vertex -218.170731 -127.983994 19.482355
endloop
endfacet
facet normal 0.000000 -1.000000 0.000005
outer loop
vertex -218.170731 -127.983994 19.482355
vertex -220.120728 -127.983994 14.032351
vertex -214.670731 -127.983994 15.982355
endloop
endfacet
facet normal 0.000000 -1.000000 0.000000
outer loop
vertex -214.670731 -127.983994 15.982355
vertex -220.120728 -127.983994 14.032351
vertex -214.670731 -127.983994 14.032351
endloop
endfacet
facet normal 0.000000 -1.000000 0.000000
outer loop
vertex -220.120728 -127.983994 5.482355
vertex -218.170731 -127.983994 5.482355
vertex -220.120728 -127.983994 10.932352
endloop
endfacet
facet normal 0.000000 -1.000000 -0.000002
outer loop
vertex -220.120728 -127.983994 10.932352
vertex -218.170731 -127.983994 5.482355
vertex -214.670731 -127.983994 8.982355
endloop
endfacet
facet normal 0.000000 -1.000000 0.000000
outer loop
vertex -220.120728 -127.983994 10.932352
vertex -214.670731 -127.983994 8.982355
vertex -214.670853 -127.983994 10.932352
endloop
endfacet
facet normal 0.000000 -1.000000 0.000000
outer loop
vertex -214.670853 -127.983994 10.932352
vertex -214.670731 -127.983994 8.982355
vertex -214.670792 -127.983994 10.932352
endloop
endfacet
facet normal 0.000000 -1.000000 0.000000
outer loop
vertex -214.670792 -127.983994 10.932352
vertex -214.670731 -127.983994 8.982355
vertex -214.670731 -127.983994 10.932352
endloop
endfacet
facet normal 1.000000 0.000000 0.000000
outer loop
vertex -214.670731 -123.993996 14.032351
vertex -214.670731 -123.993996 15.982355
vertex -214.670731 -125.488991 14.032351
endloop
endfacet
facet normal 1.000000 0.000000 0.000000
outer loop
vertex -214.670731 -125.488991 14.032351
vertex -214.670731 -123.993996 15.982355
vertex -214.670731 -126.488991 14.032351
endloop
endfacet
facet normal 1.000000 0.000000 0.000000
outer loop
vertex -214.670731 -125.488991 14.032351
vertex -214.670731 -126.488991 14.032351
vertex -214.670731 -126.488991 10.932352
endloop
endfacet
facet normal 1.000000 0.000000 0.000000
outer loop
vertex -214.670731 -123.993996 15.982355
vertex -214.670731 -127.983994 15.982355
vertex -214.670731 -126.488991 14.032351
endloop
endfacet
facet normal 1.000000 0.000000 0.000000
outer loop
vertex -214.670731 -126.488991 14.032351
vertex -214.670731 -127.983994 15.982355
vertex -214.670731 -127.983994 14.032351
endloop
endfacet
facet normal 1.000000 0.000000 0.000000
outer loop
vertex -214.670731 -127.983994 10.932352
vertex -214.670731 -127.983994 8.982355
vertex -214.670731 -126.488991 10.932352
endloop
endfacet
facet normal 1.000000 0.000000 0.000000
outer loop
vertex -214.670731 -126.488991 10.932352
vertex -214.670731 -127.983994 8.982355
vertex -214.670731 -123.993988 8.982355
endloop
endfacet
facet normal 1.000000 0.000000 0.000000
outer loop
vertex -214.670731 -126.488991 10.932352
vertex -214.670731 -123.993988 8.982355
vertex -214.670731 -125.488991 10.932352
endloop
endfacet
facet normal 1.000000 0.000000 0.000000
outer loop
vertex -214.670731 -125.488991 10.932352
vertex -214.670731 -123.993988 8.982355
vertex -214.670731 -123.993996 10.932352
endloop
endfacet
facet normal 1.000000 0.000000 0.000000
outer loop
vertex -214.670731 -125.488991 10.932352
vertex -214.670731 -125.488991 14.032351
vertex -214.670731 -126.488991 10.932352
endloop
endfacet
facet normal -0.707107 0.000000 -0.707107
outer loop
vertex -228.670731 -123.993988 8.982355
vertex -225.170731 -123.993988 5.482355
vertex -228.670731 -127.983994 8.982355
endloop
endfacet
facet normal -0.707107 0.000000 -0.707107
outer loop
vertex -228.670731 -127.983994 8.982355
vertex -225.170731 -123.993988 5.482355
vertex -225.170731 -127.983994 5.482355
endloop
endfacet
facet normal -0.707106 0.000000 0.707108
outer loop
vertex -225.170731 -123.993996 19.482355
vertex -228.670731 -123.993996 15.982355
vertex -225.170731 -127.983994 19.482355
endloop
endfacet
facet normal -0.707108 0.000000 0.707106
outer loop
vertex -225.170731 -127.983994 19.482355
vertex -228.670731 -123.993996 15.982355
vertex -228.670731 -127.983994 15.982355
endloop
endfacet
facet normal 0.707106 0.000000 0.707108
outer loop
vertex -214.670731 -123.993996 15.982355
vertex -218.170731 -123.993996 19.482355
vertex -214.670731 -127.983994 15.982355
endloop
endfacet
facet normal 0.707108 0.000000 0.707106
outer loop
vertex -214.670731 -127.983994 15.982355
vertex -218.170731 -123.993996 19.482355
vertex -218.170731 -127.983994 19.482355
endloop
endfacet
facet normal 0.707107 0.000000 -0.707107
outer loop
vertex -218.170731 -123.993988 5.482355
vertex -214.670731 -123.993988 8.982355
vertex -218.170731 -127.983994 5.482355
endloop
endfacet
facet normal 0.707107 0.000000 -0.707107
outer loop
vertex -218.170731 -127.983994 5.482355
vertex -214.670731 -123.993988 8.982355
vertex -214.670731 -127.983994 8.982355
endloop
endfacet
facet normal 0.000000 0.000000 -1.000000
outer loop
vertex -220.120728 -123.993988 5.482355
vertex -218.170731 -123.993988 5.482355
vertex -220.120728 -125.488991 5.482355
endloop
endfacet
facet normal 0.000000 0.000000 -1.000000
outer loop
vertex -220.120728 -125.488991 5.482355
vertex -218.170731 -123.993988 5.482355
vertex -220.120728 -126.488991 5.482355
endloop
endfacet
facet normal 0.000000 0.000000 -1.000000
outer loop
vertex -220.120728 -125.488991 5.482355
vertex -220.120728 -126.488991 5.482355
vertex -223.220734 -126.488991 5.482355
endloop
endfacet
facet normal 0.000000 0.000000 -1.000000
outer loop
vertex -218.170731 -123.993988 5.482355
vertex -218.170731 -127.983994 5.482355
vertex -220.120728 -126.488991 5.482355
endloop
endfacet
facet normal 0.000000 0.000000 -1.000000
outer loop
vertex -220.120728 -126.488991 5.482355
vertex -218.170731 -127.983994 5.482355
vertex -220.120728 -127.983994 5.482355
endloop
endfacet
facet normal 0.000000 0.000000 -1.000000
outer loop
vertex -223.220734 -127.983994 5.482355
vertex -225.170731 -127.983994 5.482355
vertex -223.220734 -126.488991 5.482355
endloop
endfacet
facet normal 0.000000 0.000000 -1.000000
outer loop
vertex -223.220734 -126.488991 5.482355
vertex -225.170731 -127.983994 5.482355
vertex -225.170731 -123.993988 5.482355
endloop
endfacet
facet normal 0.000000 0.000000 -1.000000
outer loop
vertex -223.220734 -126.488991 5.482355
vertex -225.170731 -123.993988 5.482355
vertex -223.220734 -125.488991 5.482355
endloop
endfacet
facet normal 0.000000 0.000000 -1.000000
outer loop
vertex -223.220734 -125.488991 5.482355
vertex -225.170731 -123.993988 5.482355
vertex -223.220734 -123.993988 5.482355
endloop
endfacet
facet normal 0.000000 0.000000 -1.000000
outer loop
vertex -223.220734 -125.488991 5.482355
vertex -220.120728 -125.488991 5.482355
vertex -223.220734 -126.488991 5.482355
endloop
endfacet
facet normal 0.000000 -1.000000 0.000000
outer loop
vertex -228.670731 -127.983994 10.932352
vertex -228.670731 -127.983994 8.982355
vertex -223.220734 -127.983994 10.932352
endloop
endfacet
facet normal 0.000000 -1.000000 -0.000002
outer loop
vertex -223.220734 -127.983994 10.932352
vertex -228.670731 -127.983994 8.982355
vertex -225.170731 -127.983994 5.482355
endloop
endfacet
facet normal 0.000000 -1.000000 0.000000
outer loop
vertex -223.220734 -127.983994 10.932352
vertex -225.170731 -127.983994 5.482355
vertex -223.220734 -127.983994 5.482355
endloop
endfacet
facet normal 0.000000 1.000000 0.000051
outer loop
vertex -223.167908 -123.993996 12.883524
vertex -220.173538 -123.993996 12.883524
vertex -223.220734 -123.993996 12.482355
endloop
endfacet
facet normal 0.000000 1.000000 -0.000019
outer loop
vertex -223.220734 -123.993996 12.482355
vertex -220.173538 -123.993996 12.883524
vertex -220.120728 -123.993996 12.482355
endloop
endfacet
facet normal 0.000000 1.000000 0.000000
outer loop
vertex -223.220734 -123.993996 12.482355
vertex -220.120728 -123.993996 12.482355
vertex -223.167908 -123.993996 12.081186
endloop
endfacet
facet normal 0.000000 1.000000 -0.000031
outer loop
vertex -223.167908 -123.993996 12.081186
vertex -220.120728 -123.993996 12.482355
vertex -220.173538 -123.993996 12.081186
endloop
endfacet
facet normal 0.000000 1.000000 0.000000
outer loop
vertex -223.167908 -123.993996 12.081186
vertex -220.173538 -123.993996 12.081186
vertex -223.013062 -123.993996 11.707354
endloop
endfacet
facet normal 0.000000 1.000000 -0.000034
outer loop
vertex -223.013062 -123.993996 11.707354
vertex -220.173538 -123.993996 12.081186
vertex -220.328384 -123.993996 11.707354
endloop
endfacet
facet normal 0.000000 1.000000 0.000000
outer loop
vertex -223.013062 -123.993996 11.707354
vertex -220.328384 -123.993996 11.707354
vertex -222.766739 -123.993996 11.386339
endloop
endfacet
facet normal 0.000000 1.000000 -0.000049
outer loop
vertex -222.766739 -123.993996 11.386339
vertex -220.328384 -123.993996 11.707354
vertex -220.574707 -123.993996 11.386339
endloop
endfacet
facet normal 0.000000 1.000000 0.000000
outer loop
vertex -222.766739 -123.993996 11.386339
vertex -220.574707 -123.993996 11.386339
vertex -222.445724 -123.993996 11.140017
endloop
endfacet
facet normal 0.000000 1.000000 0.000020
outer loop
vertex -222.445724 -123.993996 11.140017
vertex -220.574707 -123.993996 11.386339
vertex -220.895737 -123.993996 11.140017
endloop
endfacet
facet normal 0.000000 1.000000 0.000000
outer loop
vertex -222.445724 -123.993996 11.140017
vertex -220.895737 -123.993996 11.140017
vertex -222.071899 -123.993996 10.985170
endloop
endfacet
facet normal 0.000000 1.000000 -0.000123
outer loop
vertex -222.071899 -123.993996 10.985170
vertex -220.895737 -123.993996 11.140017
vertex -221.269562 -123.993996 10.985170
endloop
endfacet
facet normal 0.000000 1.000000 0.000000
outer loop
vertex -222.071899 -123.993996 10.985170
vertex -221.269562 -123.993996 10.985170
vertex -221.670731 -123.993996 10.932352
endloop
endfacet
facet normal 0.000000 1.000000 0.000000
outer loop
vertex -220.173538 -123.993996 12.883524
vertex -223.167908 -123.993996 12.883524
vertex -220.328384 -123.993996 13.257349
endloop
endfacet
facet normal 0.000000 1.000000 0.000034
outer loop
vertex -220.328384 -123.993996 13.257349
vertex -223.167908 -123.993996 12.883524
vertex -223.013062 -123.993996 13.257349
endloop
endfacet
facet normal 0.000000 1.000000 0.000000
outer loop
vertex -220.328384 -123.993996 13.257349
vertex -223.013062 -123.993996 13.257349
vertex -220.574707 -123.993996 13.578371
endloop
endfacet
facet normal 0.000000 1.000000 0.000049
outer loop
vertex -220.574707 -123.993996 13.578371
vertex -223.013062 -123.993996 13.257349
vertex -222.766739 -123.993996 13.578371
endloop
endfacet
facet normal 0.000000 1.000000 0.000000
outer loop
vertex -220.574707 -123.993996 13.578371
vertex -222.766739 -123.993996 13.578371
vertex -220.895737 -123.993996 13.824694
endloop
endfacet
facet normal 0.000000 1.000000 -0.000020
outer loop
vertex -220.895737 -123.993996 13.824694
vertex -222.766739 -123.993996 13.578371
vertex -222.445724 -123.993996 13.824694
endloop
endfacet
facet normal 0.000000 1.000000 0.000000
outer loop
vertex -220.895737 -123.993996 13.824694
vertex -222.445724 -123.993996 13.824694
vertex -221.269562 -123.993996 13.979540
endloop
endfacet
facet normal 0.000000 1.000000 0.000123
outer loop
vertex -221.269562 -123.993996 13.979540
vertex -222.445724 -123.993996 13.824694
vertex -222.071899 -123.993996 13.979540
endloop
endfacet
facet normal 0.000000 1.000000 0.000000
outer loop
vertex -221.269562 -123.993996 13.979540
vertex -222.071899 -123.993996 13.979540
vertex -221.670731 -123.993996 14.032351
endloop
endfacet
endsolid ShogiChessCncAndPLA v2.004
