solid ShogiChessCncAndPLA v2.013
facet normal -1.000000 0.000000 0.000000
outer loop
vertex -30.120735 -123.993988 15.982355
vertex -30.120735 -123.993988 12.482355
vertex -30.120735 -125.488991 15.982355
endloop
endfacet
facet normal -1.000000 0.000000 0.000000
outer loop
vertex -30.120735 -125.488991 15.982355
vertex -30.120735 -123.993988 12.482355
vertex -30.120735 -125.488991 12.482355
endloop
endfacet
facet normal 0.991446 0.000000 -0.130517
outer loop
vertex -33.220734 -125.488991 15.982355
vertex -33.220734 -123.993988 15.982355
vertex -33.167923 -125.488991 16.383524
endloop
endfacet
facet normal 0.991446 0.000000 -0.130515
outer loop
vertex -33.167923 -125.488991 16.383524
vertex -33.220734 -123.993988 15.982355
vertex -33.167923 -123.993988 16.383524
endloop
endfacet
facet normal 0.923877 0.000000 -0.382689
outer loop
vertex -33.167923 -125.488991 16.383524
vertex -33.167923 -123.993988 16.383524
vertex -33.013077 -125.488991 16.757349
endloop
endfacet
facet normal 0.923877 0.000000 -0.382689
outer loop
vertex -33.013077 -125.488991 16.757349
vertex -33.167923 -123.993988 16.383524
vertex -33.013077 -123.993988 16.757349
endloop
endfacet
facet normal 0.793360 0.000000 -0.608753
outer loop
vertex -33.013077 -125.488991 16.757349
vertex -33.013077 -123.993988 16.757349
vertex -32.766754 -125.488991 17.078371
endloop
endfacet
facet normal 0.793364 0.000000 -0.608748
outer loop
vertex -32.766754 -125.488991 17.078371
vertex -33.013077 -123.993988 16.757349
vertex -32.766754 -123.993988 17.078371
endloop
endfacet
facet normal 0.608746 0.000000 -0.793365
outer loop
vertex -32.766754 -125.488991 17.078371
vertex -32.766754 -123.993988 17.078371
vertex -32.445732 -125.488991 17.324694
endloop
endfacet
facet normal 0.608756 0.000000 -0.793358
outer loop
vertex -32.445732 -125.488991 17.324694
vertex -32.766754 -123.993988 17.078371
vertex -32.445732 -123.993988 17.324694
endloop
endfacet
facet normal 0.382689 0.000000 -0.923877
outer loop
vertex -32.445732 -125.488991 17.324694
vertex -32.445732 -123.993988 17.324694
vertex -32.071907 -125.488991 17.479540
endloop
endfacet
facet normal 0.382689 0.000000 -0.923877
outer loop
vertex -32.071907 -125.488991 17.479540
vertex -32.445732 -123.993988 17.324694
vertex -32.071907 -123.993988 17.479540
endloop
endfacet
facet normal 0.130514 0.000000 -0.991446
outer loop
vertex -32.071907 -125.488991 17.479540
vertex -32.071907 -123.993988 17.479540
vertex -31.670734 -125.488991 17.532351
endloop
endfacet
facet normal 0.130517 0.000000 -0.991446
outer loop
vertex -31.670734 -125.488991 17.532351
vertex -32.071907 -123.993988 17.479540
vertex -31.670734 -123.993988 17.532351
endloop
endfacet
facet normal -0.130517 0.000000 -0.991446
outer loop
vertex -31.670734 -125.488991 17.532351
vertex -31.670734 -123.993988 17.532351
vertex -31.269566 -125.488991 17.479540
endloop
endfacet
facet normal -0.130517 0.000000 -0.991446
outer loop
vertex -31.269566 -125.488991 17.479540
vertex -31.670734 -123.993988 17.532351
vertex -31.269566 -123.993988 17.479540
endloop
endfacet
facet normal -0.382685 0.000000 -0.923879
outer loop
vertex -31.269566 -125.488991 17.479540
vertex -31.269566 -123.993988 17.479540
vertex -30.895735 -125.488991 17.324694
endloop
endfacet
facet normal -0.382685 0.000000 -0.923879
outer loop
vertex -30.895735 -125.488991 17.324694
vertex -31.269566 -123.993988 17.479540
vertex -30.895735 -123.993988 17.324694
endloop
endfacet
facet normal -0.608762 0.000000 -0.793353
outer loop
vertex -30.895735 -125.488991 17.324694
vertex -30.895735 -123.993988 17.324694
vertex -30.574718 -125.488991 17.078371
endloop
endfacet
facet normal -0.608758 0.000000 -0.793356
outer loop
vertex -30.574718 -125.488991 17.078371
vertex -30.895735 -123.993988 17.324694
vertex -30.574718 -123.993988 17.078371
endloop
endfacet
facet normal -0.793358 0.000000 -0.608756
outer loop
vertex -30.574718 -125.488991 17.078371
vertex -30.574718 -123.993988 17.078371
vertex -30.328396 -125.488991 16.757349
endloop
endfacet
facet normal -0.793366 0.000000 -0.608745
outer loop
vertex -30.328396 -125.488991 16.757349
vertex -30.574718 -123.993988 17.078371
vertex -30.328396 -123.993988 16.757349
endloop
endfacet
facet normal -0.923877 0.000000 -0.382689
outer loop
vertex -30.328396 -125.488991 16.757349
vertex -30.328396 -123.993988 16.757349
vertex -30.173550 -125.488991 16.383524
endloop
endfacet
facet normal -0.923877 0.000000 -0.382689
outer loop
vertex -30.173550 -125.488991 16.383524
vertex -30.328396 -123.993988 16.757349
vertex -30.173550 -123.993988 16.383524
endloop
endfacet
facet normal -0.991445 0.000000 -0.130526
outer loop
vertex -30.173550 -125.488991 16.383524
vertex -30.173550 -123.993988 16.383524
vertex -30.120735 -125.488991 15.982355
endloop
endfacet
facet normal -0.991445 0.000000 -0.130525
outer loop
vertex -30.120735 -125.488991 15.982355
vertex -30.173550 -123.993988 16.383524
vertex -30.120735 -123.993988 15.982355
endloop
endfacet
facet normal 1.000000 0.000000 0.000000
outer loop
vertex -33.220734 -123.993988 12.482355
vertex -33.220734 -123.993988 15.982355
vertex -33.220734 -125.488991 12.482355
endloop
endfacet
facet normal 1.000000 0.000000 0.000000
outer loop
vertex -33.220734 -125.488991 12.482355
vertex -33.220734 -123.993988 15.982355
vertex -33.220734 -125.488991 15.982355
endloop
endfacet
facet normal -0.991445 0.000000 0.130526
outer loop
vertex -30.120735 -125.488991 12.482355
vertex -30.120735 -123.993988 12.482355
vertex -30.173550 -125.488991 12.081186
endloop
endfacet
facet normal -0.991445 0.000000 0.130525
outer loop
vertex -30.173550 -125.488991 12.081186
vertex -30.120735 -123.993988 12.482355
vertex -30.173550 -123.993988 12.081186
endloop
endfacet
facet normal -0.923880 0.000000 0.382682
outer loop
vertex -30.173550 -125.488991 12.081186
vertex -30.173550 -123.993988 12.081186
vertex -30.328396 -125.488991 11.707354
endloop
endfacet
facet normal -0.923881 0.000000 0.382680
outer loop
vertex -30.328396 -125.488991 11.707354
vertex -30.173550 -123.993988 12.081186
vertex -30.328396 -123.993988 11.707354
endloop
endfacet
facet normal -0.793351 0.000000 0.608765
outer loop
vertex -30.328396 -125.488991 11.707354
vertex -30.328396 -123.993988 11.707354
vertex -30.574718 -125.488991 11.386339
endloop
endfacet
facet normal -0.793359 0.000000 0.608754
outer loop
vertex -30.574718 -125.488991 11.386339
vertex -30.328396 -123.993988 11.707354
vertex -30.574718 -123.993988 11.386339
endloop
endfacet
facet normal -0.608758 0.000000 0.793356
outer loop
vertex -30.574718 -125.488991 11.386339
vertex -30.574718 -123.993988 11.386339
vertex -30.895735 -125.488991 11.140017
endloop
endfacet
facet normal -0.608758 0.000000 0.793356
outer loop
vertex -30.895735 -125.488991 11.140017
vertex -30.574718 -123.993988 11.386339
vertex -30.895735 -123.993988 11.140017
endloop
endfacet
facet normal -0.382685 0.000000 0.923879
outer loop
vertex -30.895735 -125.488991 11.140017
vertex -30.895735 -123.993988 11.140017
vertex -31.269566 -125.488991 10.985170
endloop
endfacet
facet normal -0.382690 0.000000 0.923877
outer loop
vertex -31.269566 -125.488991 10.985170
vertex -30.895735 -123.993988 11.140017
vertex -31.269566 -123.993988 10.985170
endloop
endfacet
facet normal -0.130530 0.000000 0.991444
outer loop
vertex -31.269566 -125.488991 10.985170
vertex -31.269566 -123.993988 10.985170
vertex -31.670734 -125.488991 10.932352
endloop
endfacet
facet normal -0.130536 0.000000 0.991444
outer loop
vertex -31.670734 -125.488991 10.932352
vertex -31.269566 -123.993988 10.985170
vertex -31.670734 -123.993988 10.932352
endloop
endfacet
facet normal 0.130533 0.000000 0.991444
outer loop
vertex -31.670734 -125.488991 10.932352
vertex -31.670734 -123.993988 10.932352
vertex -32.071907 -125.488991 10.985170
endloop
endfacet
facet normal 0.130530 0.000000 0.991444
outer loop
vertex -32.071907 -125.488991 10.985170
vertex -31.670734 -123.993988 10.932352
vertex -32.071907 -123.993988 10.985170
endloop
endfacet
facet normal 0.382694 0.000000 0.923875
outer loop
vertex -32.071907 -125.488991 10.985170
vertex -32.071907 -123.993988 10.985170
vertex -32.445732 -125.488991 11.140017
endloop
endfacet
facet normal 0.382689 0.000000 0.923877
outer loop
vertex -32.445732 -125.488991 11.140017
vertex -32.071907 -123.993988 10.985170
vertex -32.445732 -123.993988 11.140017
endloop
endfacet
facet normal 0.608746 0.000000 0.793365
outer loop
vertex -32.445732 -125.488991 11.140017
vertex -32.445732 -123.993988 11.140017
vertex -32.766754 -125.488991 11.386339
endloop
endfacet
facet normal 0.608752 0.000000 0.793361
outer loop
vertex -32.766754 -125.488991 11.386339
vertex -32.445732 -123.993988 11.140017
vertex -32.766754 -123.993988 11.386339
endloop
endfacet
facet normal 0.793353 0.000000 0.608762
outer loop
vertex -32.766754 -125.488991 11.386339
vertex -32.766754 -123.993988 11.386339
vertex -33.013077 -125.488991 11.707354
endloop
endfacet
facet normal 0.793357 0.000000 0.608757
outer loop
vertex -33.013077 -125.488991 11.707354
vertex -32.766754 -123.993988 11.386339
vertex -33.013077 -123.993988 11.707354
endloop
endfacet
facet normal 0.923881 0.000000 0.382680
outer loop
vertex -33.013077 -125.488991 11.707354
vertex -33.013077 -123.993988 11.707354
vertex -33.167923 -125.488991 12.081186
endloop
endfacet
facet normal 0.923880 0.000000 0.382682
outer loop
vertex -33.167923 -125.488991 12.081186
vertex -33.013077 -123.993988 11.707354
vertex -33.167923 -123.993988 12.081186
endloop
endfacet
facet normal 0.991446 0.000000 0.130517
outer loop
vertex -33.167923 -125.488991 12.081186
vertex -33.167923 -123.993988 12.081186
vertex -33.220734 -125.488991 12.482355
endloop
endfacet
facet normal 0.991446 0.000000 0.130515
outer loop
vertex -33.220734 -125.488991 12.482355
vertex -33.167923 -123.993988 12.081186
vertex -33.220734 -123.993988 12.482355
endloop
endfacet
facet normal 0.000000 1.000000 0.000000
outer loop
vertex -30.173550 -125.488991 12.081186
vertex -30.328396 -125.488991 11.707354
vertex -30.120735 -125.488991 12.482355
endloop
endfacet
facet normal 0.000000 1.000000 0.000000
outer loop
vertex -30.120735 -125.488991 12.482355
vertex -30.328396 -125.488991 11.707354
vertex -30.574718 -125.488991 11.386339
endloop
endfacet
facet normal 0.000000 1.000000 0.000032
outer loop
vertex -30.120735 -125.488991 12.482355
vertex -30.574718 -125.488991 11.386339
vertex -30.895735 -125.488991 11.140017
endloop
endfacet
facet normal 0.000000 1.000000 0.000001
outer loop
vertex -30.120735 -125.488991 12.482355
vertex -30.895735 -125.488991 11.140017
vertex -31.269566 -125.488991 17.479540
endloop
endfacet
facet normal 0.000000 1.000000 0.000000
outer loop
vertex -31.269566 -125.488991 17.479540
vertex -30.895735 -125.488991 11.140017
vertex -31.269566 -125.488991 10.985170
endloop
endfacet
facet normal 0.000000 1.000000 0.000000
outer loop
vertex -31.269566 -125.488991 17.479540
vertex -31.269566 -125.488991 10.985170
vertex -31.670734 -125.488991 17.532351
endloop
endfacet
facet normal 0.000000 1.000000 0.000000
outer loop
vertex -31.670734 -125.488991 17.532351
vertex -31.269566 -125.488991 10.985170
vertex -31.670734 -125.488991 10.932352
endloop
endfacet
facet normal 0.000000 1.000000 0.000000
outer loop
vertex -31.670734 -125.488991 17.532351
vertex -31.670734 -125.488991 10.932352
vertex -32.071907 -125.488991 10.985170
endloop
endfacet
facet normal 0.000000 1.000000 0.000000
outer loop
vertex -31.670734 -125.488991 17.532351
vertex -32.071907 -125.488991 10.985170
vertex -32.071907 -125.488991 17.479540
endloop
endfacet
facet normal 0.000000 1.000000 0.000000
outer loop
vertex -32.071907 -125.488991 17.479540
vertex -32.071907 -125.488991 10.985170
vertex -32.445732 -125.488991 11.140017
endloop
endfacet
facet normal 0.000000 1.000000 -0.000003
outer loop
vertex -32.071907 -125.488991 17.479540
vertex -32.445732 -125.488991 11.140017
vertex -33.220734 -125.488991 12.482355
endloop
endfacet
facet normal 0.000000 1.000000 -0.000032
outer loop
vertex -33.220734 -125.488991 12.482355
vertex -32.445732 -125.488991 11.140017
vertex -32.766754 -125.488991 11.386339
endloop
endfacet
facet normal 0.000000 1.000000 0.000031
outer loop
vertex -33.220734 -125.488991 12.482355
vertex -32.766754 -125.488991 11.386339
vertex -33.013077 -125.488991 11.707354
endloop
endfacet
facet normal 0.000000 1.000000 -0.000023
outer loop
vertex -33.013077 -125.488991 11.707354
vertex -33.167923 -125.488991 12.081186
vertex -33.220734 -125.488991 12.482355
endloop
endfacet
facet normal 0.000000 1.000000 0.000009
outer loop
vertex -32.071907 -125.488991 17.479540
vertex -33.220734 -125.488991 12.482355
vertex -32.445732 -125.488991 17.324694
endloop
endfacet
facet normal 0.000000 1.000000 0.000000
outer loop
vertex -32.445732 -125.488991 17.324694
vertex -33.220734 -125.488991 12.482355
vertex -33.220734 -125.488991 15.982355
endloop
endfacet
facet normal 0.000000 1.000000 0.000032
outer loop
vertex -32.445732 -125.488991 17.324694
vertex -33.220734 -125.488991 15.982355
vertex -32.766754 -125.488991 17.078371
endloop
endfacet
facet normal 0.000000 1.000000 -0.000031
outer loop
vertex -32.766754 -125.488991 17.078371
vertex -33.220734 -125.488991 15.982355
vertex -33.013077 -125.488991 16.757349
endloop
endfacet
facet normal 0.000000 1.000000 0.000023
outer loop
vertex -33.013077 -125.488991 16.757349
vertex -33.220734 -125.488991 15.982355
vertex -33.167923 -125.488991 16.383524
endloop
endfacet
facet normal 0.000000 1.000000 0.000000
outer loop
vertex -31.269566 -125.488991 17.479540
vertex -30.895735 -125.488991 17.324694
vertex -30.120735 -125.488991 12.482355
endloop
endfacet
facet normal 0.000000 1.000000 0.000000
outer loop
vertex -30.120735 -125.488991 12.482355
vertex -30.895735 -125.488991 17.324694
vertex -30.120735 -125.488991 15.982355
endloop
endfacet
facet normal 0.000000 1.000000 -0.000032
outer loop
vertex -30.120735 -125.488991 15.982355
vertex -30.895735 -125.488991 17.324694
vertex -30.574718 -125.488991 17.078371
endloop
endfacet
facet normal 0.000000 1.000000 0.000000
outer loop
vertex -30.120735 -125.488991 15.982355
vertex -30.574718 -125.488991 17.078371
vertex -30.328396 -125.488991 16.757349
endloop
endfacet
facet normal 0.000000 1.000000 0.000023
outer loop
vertex -30.328396 -125.488991 16.757349
vertex -30.173550 -125.488991 16.383524
vertex -30.120735 -125.488991 15.982355
endloop
endfacet
facet normal 0.991446 0.000000 0.130515
outer loop
vertex -36.720734 -126.488991 12.482355
vertex -36.720734 -127.983994 12.482355
vertex -36.667923 -126.488991 12.081186
endloop
endfacet
facet normal 0.991446 0.000000 0.130516
outer loop
vertex -36.667923 -126.488991 12.081186
vertex -36.720734 -127.983994 12.482355
vertex -36.667923 -127.983994 12.081186
endloop
endfacet
facet normal 0.923878 0.000000 0.382688
outer loop
vertex -36.667923 -126.488991 12.081186
vertex -36.667923 -127.983994 12.081186
vertex -36.513077 -126.488991 11.707354
endloop
endfacet
facet normal 0.923881 0.000000 0.382680
outer loop
vertex -36.513077 -126.488991 11.707354
vertex -36.667923 -127.983994 12.081186
vertex -36.513077 -127.983994 11.707354
endloop
endfacet
facet normal 0.793351 0.000000 0.608765
outer loop
vertex -36.513077 -126.488991 11.707354
vertex -36.513077 -127.983994 11.707354
vertex -36.266754 -126.488991 11.386339
endloop
endfacet
facet normal 0.793356 0.000000 0.608758
outer loop
vertex -36.266754 -126.488991 11.386339
vertex -36.513077 -127.983994 11.707354
vertex -36.266754 -127.983994 11.386339
endloop
endfacet
facet normal 0.608752 0.000000 0.793361
outer loop
vertex -36.266754 -126.488991 11.386339
vertex -36.266754 -127.983994 11.386339
vertex -35.945732 -126.488991 11.140017
endloop
endfacet
facet normal 0.608752 0.000000 0.793361
outer loop
vertex -35.945732 -126.488991 11.140017
vertex -36.266754 -127.983994 11.386339
vertex -35.945732 -127.983994 11.140017
endloop
endfacet
facet normal 0.382685 0.000000 0.923879
outer loop
vertex -35.945732 -126.488991 11.140017
vertex -35.945732 -127.983994 11.140017
vertex -35.571907 -126.488991 10.985170
endloop
endfacet
facet normal 0.382699 0.000000 0.923873
outer loop
vertex -35.571907 -126.488991 10.985170
vertex -35.945732 -127.983994 11.140017
vertex -35.571907 -127.983994 10.985170
endloop
endfacet
facet normal 0.130528 0.000000 0.991445
outer loop
vertex -35.571907 -126.488991 10.985170
vertex -35.571907 -127.983994 10.985170
vertex -35.170738 -126.488991 10.932352
endloop
endfacet
facet normal 0.130536 0.000000 0.991444
outer loop
vertex -35.170738 -126.488991 10.932352
vertex -35.571907 -127.983994 10.985170
vertex -35.170738 -127.983994 10.932352
endloop
endfacet
facet normal -0.130533 0.000000 0.991444
outer loop
vertex -35.170738 -126.488991 10.932352
vertex -35.170738 -127.983994 10.932352
vertex -34.769562 -126.488991 10.985170
endloop
endfacet
facet normal -0.130527 0.000000 0.991445
outer loop
vertex -34.769562 -126.488991 10.985170
vertex -35.170738 -127.983994 10.932352
vertex -34.769562 -127.983994 10.985170
endloop
endfacet
facet normal -0.382690 0.000000 0.923877
outer loop
vertex -34.769562 -126.488991 10.985170
vertex -34.769562 -127.983994 10.985170
vertex -34.395737 -126.488991 11.140017
endloop
endfacet
facet normal -0.382694 0.000000 0.923875
outer loop
vertex -34.395737 -126.488991 11.140017
vertex -34.769562 -127.983994 10.985170
vertex -34.395737 -127.983994 11.140017
endloop
endfacet
facet normal -0.608758 0.000000 0.793356
outer loop
vertex -34.395737 -126.488991 11.140017
vertex -34.395737 -127.983994 11.140017
vertex -34.074722 -126.488991 11.386339
endloop
endfacet
facet normal -0.608764 0.000000 0.793351
outer loop
vertex -34.074722 -126.488991 11.386339
vertex -34.395737 -127.983994 11.140017
vertex -34.074722 -127.983994 11.386339
endloop
endfacet
facet normal -0.793344 0.000000 0.608774
outer loop
vertex -34.074722 -126.488991 11.386339
vertex -34.074722 -127.983994 11.386339
vertex -33.828392 -126.488991 11.707354
endloop
endfacet
facet normal -0.793344 0.000000 0.608773
outer loop
vertex -33.828392 -126.488991 11.707354
vertex -34.074722 -127.983994 11.386339
vertex -33.828392 -127.983994 11.707354
endloop
endfacet
facet normal -0.923885 0.000000 0.382669
outer loop
vertex -33.828392 -126.488991 11.707354
vertex -33.828392 -127.983994 11.707354
vertex -33.673553 -126.488991 12.081186
endloop
endfacet
facet normal -0.923887 0.000000 0.382666
outer loop
vertex -33.673553 -126.488991 12.081186
vertex -33.828392 -127.983994 11.707354
vertex -33.673553 -127.983994 12.081186
endloop
endfacet
facet normal -0.991444 0.000000 0.130535
outer loop
vertex -33.673553 -126.488991 12.081186
vertex -33.673553 -127.983994 12.081186
vertex -33.620735 -126.488991 12.482355
endloop
endfacet
facet normal -0.991444 0.000000 0.130534
outer loop
vertex -33.620735 -126.488991 12.482355
vertex -33.673553 -127.983994 12.081186
vertex -33.620735 -127.983994 12.482355
endloop
endfacet
facet normal 1.000000 0.000000 0.000000
outer loop
vertex -36.720734 -127.983994 15.981989
vertex -36.720734 -127.983994 12.482355
vertex -36.720734 -126.488991 15.981989
endloop
endfacet
facet normal 1.000000 0.000000 0.000000
outer loop
vertex -36.720734 -126.488991 15.981989
vertex -36.720734 -127.983994 12.482355
vertex -36.720734 -126.488991 12.482355
endloop
endfacet
facet normal 0.130534 0.000000 -0.991444
outer loop
vertex -35.170738 -126.488991 17.531992
vertex -35.170738 -127.983994 17.531992
vertex -35.571907 -126.488991 17.479174
endloop
endfacet
facet normal 0.130536 0.000000 -0.991444
outer loop
vertex -35.571907 -126.488991 17.479174
vertex -35.170738 -127.983994 17.531992
vertex -35.571907 -127.983994 17.479174
endloop
endfacet
facet normal 0.382669 0.000000 -0.923886
outer loop
vertex -35.571907 -126.488991 17.479174
vertex -35.571907 -127.983994 17.479174
vertex -35.945732 -126.488991 17.324335
endloop
endfacet
facet normal 0.382677 0.000000 -0.923882
outer loop
vertex -35.945732 -126.488991 17.324335
vertex -35.571907 -127.983994 17.479174
vertex -35.945732 -127.983994 17.324335
endloop
endfacet
facet normal 0.608768 0.000000 -0.793348
outer loop
vertex -35.945732 -126.488991 17.324335
vertex -35.945732 -127.983994 17.324335
vertex -36.266754 -126.488991 17.078005
endloop
endfacet
facet normal 0.608764 0.000000 -0.793352
outer loop
vertex -36.266754 -126.488991 17.078005
vertex -35.945732 -127.983994 17.324335
vertex -36.266754 -127.983994 17.078005
endloop
endfacet
facet normal 0.793351 0.000000 -0.608765
outer loop
vertex -36.266754 -126.488991 17.078005
vertex -36.266754 -127.983994 17.078005
vertex -36.513077 -126.488991 16.756990
endloop
endfacet
facet normal 0.793356 0.000000 -0.608758
outer loop
vertex -36.513077 -126.488991 16.756990
vertex -36.266754 -127.983994 17.078005
vertex -36.513077 -127.983994 16.756990
endloop
endfacet
facet normal 0.923875 0.000000 -0.382694
outer loop
vertex -36.513077 -126.488991 16.756990
vertex -36.513077 -127.983994 16.756990
vertex -36.667923 -126.488991 16.383165
endloop
endfacet
facet normal 0.923877 0.000000 -0.382689
outer loop
vertex -36.667923 -126.488991 16.383165
vertex -36.513077 -127.983994 16.756990
vertex -36.667923 -127.983994 16.383165
endloop
endfacet
facet normal 0.991447 0.000000 -0.130513
outer loop
vertex -36.667923 -126.488991 16.383165
vertex -36.667923 -127.983994 16.383165
vertex -36.720734 -126.488991 15.981989
endloop
endfacet
facet normal 0.991447 0.000000 -0.130513
outer loop
vertex -36.720734 -126.488991 15.981989
vertex -36.667923 -127.983994 16.383165
vertex -36.720734 -127.983994 15.981989
endloop
endfacet
facet normal 1.000000 0.000000 0.000000
outer loop
vertex -35.170738 -127.983994 17.532351
vertex -35.170738 -127.983994 17.531992
vertex -35.170738 -126.488991 17.532351
endloop
endfacet
facet normal 1.000000 0.000000 0.000000
outer loop
vertex -35.170738 -126.488991 17.532351
vertex -35.170738 -127.983994 17.531992
vertex -35.170738 -126.488991 17.531992
endloop
endfacet
facet normal 0.000000 0.000000 -1.000000
outer loop
vertex -28.170713 -127.983994 17.532351
vertex -35.170738 -127.983994 17.532351
vertex -28.170713 -126.488991 17.532351
endloop
endfacet
facet normal 0.000000 0.000000 -1.000000
outer loop
vertex -28.170713 -126.488991 17.532351
vertex -35.170738 -127.983994 17.532351
vertex -35.170738 -126.488991 17.532351
endloop
endfacet
facet normal -0.991445 0.000000 -0.130528
outer loop
vertex -26.620735 -126.488991 15.982355
vertex -26.620735 -127.983994 15.982355
vertex -26.673550 -126.488991 16.383516
endloop
endfacet
facet normal -0.991445 0.000000 -0.130527
outer loop
vertex -26.673550 -126.488991 16.383516
vertex -26.620735 -127.983994 15.982355
vertex -26.673550 -127.983994 16.383516
endloop
endfacet
facet normal -0.923882 0.000000 -0.382677
outer loop
vertex -26.673550 -126.488991 16.383516
vertex -26.673550 -127.983994 16.383516
vertex -26.828392 -126.488991 16.757349
endloop
endfacet
facet normal -0.923882 0.000000 -0.382677
outer loop
vertex -26.828392 -126.488991 16.757349
vertex -26.673550 -127.983994 16.383516
vertex -26.828392 -127.983994 16.757349
endloop
endfacet
facet normal -0.793356 0.000000 -0.608758
outer loop
vertex -26.828392 -126.488991 16.757349
vertex -26.828392 -127.983994 16.757349
vertex -27.074711 -126.488991 17.078363
endloop
endfacet
facet normal -0.793360 0.000000 -0.608753
outer loop
vertex -27.074711 -126.488991 17.078363
vertex -26.828392 -127.983994 16.757349
vertex -27.074711 -127.983994 17.078363
endloop
endfacet
facet normal -0.608762 0.000000 -0.793353
outer loop
vertex -27.074711 -126.488991 17.078363
vertex -27.074711 -127.983994 17.078363
vertex -27.395723 -126.488991 17.324686
endloop
endfacet
facet normal -0.608764 0.000000 -0.793351
outer loop
vertex -27.395723 -126.488991 17.324686
vertex -27.074711 -127.983994 17.078363
vertex -27.395723 -127.983994 17.324686
endloop
endfacet
facet normal -0.382685 0.000000 -0.923879
outer loop
vertex -27.395723 -126.488991 17.324686
vertex -27.395723 -127.983994 17.324686
vertex -27.769548 -126.488991 17.479532
endloop
endfacet
facet normal -0.382694 0.000000 -0.923875
outer loop
vertex -27.769548 -126.488991 17.479532
vertex -27.395723 -127.983994 17.324686
vertex -27.769548 -127.983994 17.479532
endloop
endfacet
facet normal -0.130536 0.000000 -0.991444
outer loop
vertex -27.769548 -126.488991 17.479532
vertex -27.769548 -127.983994 17.479532
vertex -28.170713 -126.488991 17.532351
endloop
endfacet
facet normal -0.130538 0.000000 -0.991443
outer loop
vertex -28.170713 -126.488991 17.532351
vertex -27.769548 -127.983994 17.479532
vertex -28.170713 -127.983994 17.532351
endloop
endfacet
facet normal -1.000000 0.000000 -0.000003
outer loop
vertex -26.620724 -127.983994 12.482355
vertex -26.620735 -127.983994 15.982355
vertex -26.620724 -126.488991 12.482355
endloop
endfacet
facet normal -1.000000 0.000000 -0.000003
outer loop
vertex -26.620724 -126.488991 12.482355
vertex -26.620735 -127.983994 15.982355
vertex -26.620735 -126.488991 15.982355
endloop
endfacet
facet normal 0.991445 0.000000 0.130524
outer loop
vertex -29.720722 -126.488991 12.482347
vertex -29.720722 -127.983994 12.482347
vertex -29.667908 -126.488991 12.081179
endloop
endfacet
facet normal 0.991445 0.000000 0.130525
outer loop
vertex -29.667908 -126.488991 12.081179
vertex -29.720722 -127.983994 12.482347
vertex -29.667908 -127.983994 12.081179
endloop
endfacet
facet normal 0.923878 0.000000 0.382688
outer loop
vertex -29.667908 -126.488991 12.081179
vertex -29.667908 -127.983994 12.081179
vertex -29.513060 -126.488991 11.707346
endloop
endfacet
facet normal 0.923879 0.000000 0.382686
outer loop
vertex -29.513060 -126.488991 11.707346
vertex -29.667908 -127.983994 12.081179
vertex -29.513060 -127.983994 11.707346
endloop
endfacet
facet normal 0.793351 0.000000 0.608765
outer loop
vertex -29.513060 -126.488991 11.707346
vertex -29.513060 -127.983994 11.707346
vertex -29.266735 -126.488991 11.386332
endloop
endfacet
facet normal 0.793353 0.000000 0.608762
outer loop
vertex -29.266735 -126.488991 11.386332
vertex -29.513060 -127.983994 11.707346
vertex -29.266735 -127.983994 11.386332
endloop
endfacet
facet normal 0.608758 0.000000 0.793356
outer loop
vertex -29.266735 -126.488991 11.386332
vertex -29.266735 -127.983994 11.386332
vertex -28.945719 -126.488991 11.140009
endloop
endfacet
facet normal 0.608758 0.000000 0.793356
outer loop
vertex -28.945719 -126.488991 11.140009
vertex -29.266735 -127.983994 11.386332
vertex -28.945719 -127.983994 11.140009
endloop
endfacet
facet normal 0.382680 0.000000 0.923881
outer loop
vertex -28.945719 -126.488991 11.140009
vertex -28.945719 -127.983994 11.140009
vertex -28.571888 -126.488991 10.985163
endloop
endfacet
facet normal 0.382694 0.000000 0.923875
outer loop
vertex -28.571888 -126.488991 10.985163
vertex -28.945719 -127.983994 11.140009
vertex -28.571888 -127.983994 10.985163
endloop
endfacet
facet normal 0.130510 0.000000 0.991447
outer loop
vertex -28.571888 -126.488991 10.985163
vertex -28.571888 -127.983994 10.985163
vertex -28.170717 -126.488991 10.932352
endloop
endfacet
facet normal 0.130516 0.000000 0.991446
outer loop
vertex -28.170717 -126.488991 10.932352
vertex -28.571888 -127.983994 10.985163
vertex -28.170717 -127.983994 10.932352
endloop
endfacet
facet normal -0.130534 0.000000 0.991444
outer loop
vertex -28.170717 -126.488991 10.932352
vertex -28.170717 -127.983994 10.932352
vertex -27.769548 -126.488991 10.985170
endloop
endfacet
facet normal -0.130530 0.000000 0.991444
outer loop
vertex -27.769548 -126.488991 10.985170
vertex -28.170717 -127.983994 10.932352
vertex -27.769548 -127.983994 10.985170
endloop
endfacet
facet normal -0.382690 0.000000 0.923877
outer loop
vertex -27.769548 -126.488991 10.985170
vertex -27.769548 -127.983994 10.985170
vertex -27.395720 -126.488991 11.140017
endloop
endfacet
facet normal -0.382689 0.000000 0.923877
outer loop
vertex -27.395720 -126.488991 11.140017
vertex -27.769548 -127.983994 10.985170
vertex -27.395720 -127.983994 11.140017
endloop
endfacet
facet normal -0.608758 0.000000 0.793356
outer loop
vertex -27.395720 -126.488991 11.140017
vertex -27.395720 -127.983994 11.140017
vertex -27.074703 -126.488991 11.386339
endloop
endfacet
facet normal -0.608758 0.000000 0.793356
outer loop
vertex -27.074703 -126.488991 11.386339
vertex -27.395720 -127.983994 11.140017
vertex -27.074703 -127.983994 11.386339
endloop
endfacet
facet normal -0.793353 0.000000 0.608762
outer loop
vertex -27.074703 -126.488991 11.386339
vertex -27.074703 -127.983994 11.386339
vertex -26.828381 -126.488991 11.707354
endloop
endfacet
facet normal -0.793354 0.000000 0.608761
outer loop
vertex -26.828381 -126.488991 11.707354
vertex -27.074703 -127.983994 11.386339
vertex -26.828381 -127.983994 11.707354
endloop
endfacet
facet normal -0.923883 0.000000 0.382675
outer loop
vertex -26.828381 -126.488991 11.707354
vertex -26.828381 -127.983994 11.707354
vertex -26.673536 -126.488991 12.081186
endloop
endfacet
facet normal -0.923880 0.000000 0.382682
outer loop
vertex -26.673536 -126.488991 12.081186
vertex -26.828381 -127.983994 11.707354
vertex -26.673536 -127.983994 12.081186
endloop
endfacet
facet normal -0.991446 0.000000 0.130521
outer loop
vertex -26.673536 -126.488991 12.081186
vertex -26.673536 -127.983994 12.081186
vertex -26.620724 -126.488991 12.482355
endloop
endfacet
facet normal -0.991446 0.000000 0.130520
outer loop
vertex -26.620724 -126.488991 12.482355
vertex -26.673536 -127.983994 12.081186
vertex -26.620724 -127.983994 12.482355
endloop
endfacet
facet normal 1.000000 0.000000 0.000004
outer loop
vertex -29.720730 -127.983994 14.432276
vertex -29.720722 -127.983994 12.482347
vertex -29.720730 -126.488991 14.432276
endloop
endfacet
facet normal 1.000000 0.000000 0.000004
outer loop
vertex -29.720730 -126.488991 14.432276
vertex -29.720722 -127.983994 12.482347
vertex -29.720722 -126.488991 12.482347
endloop
endfacet
facet normal -0.000053 0.000000 1.000000
outer loop
vertex -33.620735 -127.983994 14.432070
vertex -29.720730 -127.983994 14.432276
vertex -33.620735 -126.488991 14.432070
endloop
endfacet
facet normal -0.000053 0.000000 1.000000
outer loop
vertex -33.620735 -126.488991 14.432070
vertex -29.720730 -127.983994 14.432276
vertex -29.720730 -126.488991 14.432276
endloop
endfacet
facet normal -1.000000 0.000000 0.000000
outer loop
vertex -33.620735 -127.983994 12.482355
vertex -33.620735 -127.983994 14.432070
vertex -33.620735 -126.488991 12.482355
endloop
endfacet
facet normal -1.000000 0.000000 0.000000
outer loop
vertex -33.620735 -126.488991 12.482355
vertex -33.620735 -127.983994 14.432070
vertex -33.620735 -126.488991 14.432070
endloop
endfacet
facet normal 0.000000 -1.000000 0.000000
outer loop
vertex -35.170738 -126.488991 17.532351
vertex -35.170738 -126.488991 17.531992
vertex -28.170713 -126.488991 17.532351
endloop
endfacet
facet normal 0.000000 -1.000000 0.000000
outer loop
vertex -28.170713 -126.488991 17.532351
vertex -35.170738 -126.488991 17.531992
vertex -29.720730 -126.488991 14.432276
endloop
endfacet
facet normal 0.000000 -1.000000 0.000000
outer loop
vertex -28.170713 -126.488991 17.532351
vertex -29.720730 -126.488991 14.432276
vertex -26.620735 -126.488991 15.982355
endloop
endfacet
facet normal 0.000000 -1.000000 0.000000
outer loop
vertex -26.620735 -126.488991 15.982355
vertex -29.720730 -126.488991 14.432276
vertex -26.620724 -126.488991 12.482355
endloop
endfacet
facet normal 0.000000 -1.000000 0.000006
outer loop
vertex -26.620724 -126.488991 12.482355
vertex -29.720730 -126.488991 14.432276
vertex -29.720722 -126.488991 12.482347
endloop
endfacet
facet normal 0.000000 -1.000000 -0.000049
outer loop
vertex -26.620724 -126.488991 12.482355
vertex -29.720722 -126.488991 12.482347
vertex -26.673536 -126.488991 12.081186
endloop
endfacet
facet normal 0.000000 -1.000000 0.000001
outer loop
vertex -26.673536 -126.488991 12.081186
vertex -29.720722 -126.488991 12.482347
vertex -29.667908 -126.488991 12.081179
endloop
endfacet
facet normal 0.000000 -1.000000 0.000000
outer loop
vertex -26.673536 -126.488991 12.081186
vertex -29.667908 -126.488991 12.081179
vertex -26.828381 -126.488991 11.707354
endloop
endfacet
facet normal 0.000000 -1.000000 0.000004
outer loop
vertex -26.828381 -126.488991 11.707354
vertex -29.667908 -126.488991 12.081179
vertex -29.513060 -126.488991 11.707346
endloop
endfacet
facet normal 0.000000 -1.000000 0.000000
outer loop
vertex -26.828381 -126.488991 11.707354
vertex -29.513060 -126.488991 11.707346
vertex -27.074703 -126.488991 11.386339
endloop
endfacet
facet normal 0.000000 -1.000000 -0.000016
outer loop
vertex -27.074703 -126.488991 11.386339
vertex -29.513060 -126.488991 11.707346
vertex -29.266735 -126.488991 11.386332
endloop
endfacet
facet normal 0.000000 -1.000000 0.000057
outer loop
vertex -27.074703 -126.488991 11.386339
vertex -29.266735 -126.488991 11.386332
vertex -27.395720 -126.488991 11.140017
endloop
endfacet
facet normal 0.000000 -1.000000 0.000020
outer loop
vertex -27.395720 -126.488991 11.140017
vertex -29.266735 -126.488991 11.386332
vertex -28.945719 -126.488991 11.140009
endloop
endfacet
facet normal 0.000000 -1.000000 -0.000127
outer loop
vertex -27.395720 -126.488991 11.140017
vertex -28.945719 -126.488991 11.140009
vertex -27.769548 -126.488991 10.985170
endloop
endfacet
facet normal 0.000000 -1.000000 0.000061
outer loop
vertex -27.769548 -126.488991 10.985170
vertex -28.945719 -126.488991 11.140009
vertex -28.571888 -126.488991 10.985163
endloop
endfacet
facet normal 0.000000 -1.000000 -0.000180
outer loop
vertex -27.769548 -126.488991 10.985170
vertex -28.571888 -126.488991 10.985163
vertex -28.170717 -126.488991 10.932352
endloop
endfacet
facet normal 0.000000 -1.000000 0.000000
outer loop
vertex -35.571907 -126.488991 17.479174
vertex -35.945732 -126.488991 17.324335
vertex -35.170738 -126.488991 17.531992
endloop
endfacet
facet normal 0.000000 -1.000000 -0.000184
outer loop
vertex -35.170738 -126.488991 17.531992
vertex -35.945732 -126.488991 17.324335
vertex -36.266754 -126.488991 17.078005
endloop
endfacet
facet normal 0.000000 -1.000000 0.000032
outer loop
vertex -35.170738 -126.488991 17.531992
vertex -36.266754 -126.488991 17.078005
vertex -36.513077 -126.488991 16.756990
endloop
endfacet
facet normal 0.000000 -1.000000 0.000080
outer loop
vertex -36.513077 -126.488991 16.756990
vertex -36.667923 -126.488991 16.383165
vertex -35.170738 -126.488991 17.531992
endloop
endfacet
facet normal 0.000000 -1.000000 -0.000023
outer loop
vertex -35.170738 -126.488991 17.531992
vertex -36.667923 -126.488991 16.383165
vertex -36.720734 -126.488991 15.981989
endloop
endfacet
facet normal 0.000000 -1.000000 0.000008
outer loop
vertex -35.170738 -126.488991 17.531992
vertex -36.720734 -126.488991 15.981989
vertex -33.620735 -126.488991 14.432070
endloop
endfacet
facet normal 0.000000 -1.000000 0.000000
outer loop
vertex -33.620735 -126.488991 14.432070
vertex -36.720734 -126.488991 15.981989
vertex -36.720734 -126.488991 12.482355
endloop
endfacet
facet normal 0.000000 -1.000000 0.000000
outer loop
vertex -33.620735 -126.488991 14.432070
vertex -36.720734 -126.488991 12.482355
vertex -33.620735 -126.488991 12.482355
endloop
endfacet
facet normal 0.000000 -1.000000 0.000000
outer loop
vertex -33.620735 -126.488991 12.482355
vertex -36.720734 -126.488991 12.482355
vertex -33.673553 -126.488991 12.081186
endloop
endfacet
facet normal 0.000000 -1.000000 0.000010
outer loop
vertex -33.673553 -126.488991 12.081186
vertex -36.720734 -126.488991 12.482355
vertex -36.667923 -126.488991 12.081186
endloop
endfacet
facet normal 0.000000 -1.000000 -0.000055
outer loop
vertex -33.673553 -126.488991 12.081186
vertex -36.667923 -126.488991 12.081186
vertex -33.828392 -126.488991 11.707354
endloop
endfacet
facet normal 0.000000 -1.000000 0.000008
outer loop
vertex -33.828392 -126.488991 11.707354
vertex -36.667923 -126.488991 12.081186
vertex -36.513077 -126.488991 11.707354
endloop
endfacet
facet normal 0.000000 -1.000000 0.000000
outer loop
vertex -33.828392 -126.488991 11.707354
vertex -36.513077 -126.488991 11.707354
vertex -34.074722 -126.488991 11.386339
endloop
endfacet
facet normal 0.000000 -1.000000 -0.000011
outer loop
vertex -34.074722 -126.488991 11.386339
vertex -36.513077 -126.488991 11.707354
vertex -36.266754 -126.488991 11.386339
endloop
endfacet
facet normal 0.000000 -1.000000 0.000113
outer loop
vertex -34.074722 -126.488991 11.386339
vertex -36.266754 -126.488991 11.386339
vertex -34.395737 -126.488991 11.140017
endloop
endfacet
facet normal 0.000000 -1.000000 -0.000020
outer loop
vertex -34.395737 -126.488991 11.140017
vertex -36.266754 -126.488991 11.386339
vertex -35.945732 -126.488991 11.140017
endloop
endfacet
facet normal 0.000000 -1.000000 0.000000
outer loop
vertex -34.395737 -126.488991 11.140017
vertex -35.945732 -126.488991 11.140017
vertex -34.769562 -126.488991 10.985170
endloop
endfacet
facet normal 0.000000 -1.000000 0.000061
outer loop
vertex -34.769562 -126.488991 10.985170
vertex -35.945732 -126.488991 11.140017
vertex -35.571907 -126.488991 10.985170
endloop
endfacet
facet normal 0.000000 -1.000000 -0.000180
outer loop
vertex -34.769562 -126.488991 10.985170
vertex -35.571907 -126.488991 10.985170
vertex -35.170738 -126.488991 10.932352
endloop
endfacet
facet normal 0.000000 -1.000000 0.000000
outer loop
vertex -33.620735 -126.488991 14.432070
vertex -29.720730 -126.488991 14.432276
vertex -35.170738 -126.488991 17.531992
endloop
endfacet
facet normal 0.000000 -1.000000 0.000000
outer loop
vertex -26.620735 -126.488991 15.982355
vertex -26.673550 -126.488991 16.383516
vertex -28.170713 -126.488991 17.532351
endloop
endfacet
facet normal 0.000000 -1.000000 0.000030
outer loop
vertex -28.170713 -126.488991 17.532351
vertex -26.673550 -126.488991 16.383516
vertex -26.828392 -126.488991 16.757349
endloop
endfacet
facet normal 0.000000 -1.000000 -0.000016
outer loop
vertex -28.170713 -126.488991 17.532351
vertex -26.828392 -126.488991 16.757349
vertex -27.074711 -126.488991 17.078363
endloop
endfacet
facet normal 0.000000 -1.000000 0.000123
outer loop
vertex -27.074711 -126.488991 17.078363
vertex -27.395723 -126.488991 17.324686
vertex -28.170713 -126.488991 17.532351
endloop
endfacet
facet normal 0.000000 -1.000000 -0.000180
outer loop
vertex -28.170713 -126.488991 17.532351
vertex -27.395723 -126.488991 17.324686
vertex -27.769548 -126.488991 17.479532
endloop
endfacet
facet normal 0.991446 0.000000 0.130515
outer loop
vertex -33.167923 -127.983986 8.581186
vertex -33.167923 -126.488991 8.581186
vertex -33.220734 -127.983986 8.982355
endloop
endfacet
facet normal 0.991446 0.000000 0.130516
outer loop
vertex -33.220734 -127.983986 8.982355
vertex -33.167923 -126.488991 8.581186
vertex -33.220734 -126.488991 8.982355
endloop
endfacet
facet normal 0.991446 0.000000 -0.130515
outer loop
vertex -33.220734 -127.983986 8.982355
vertex -33.220734 -126.488991 8.982355
vertex -33.167923 -127.983986 9.383524
endloop
endfacet
facet normal 0.991446 0.000000 -0.130516
outer loop
vertex -33.167923 -127.983986 9.383524
vertex -33.220734 -126.488991 8.982355
vertex -33.167923 -126.488991 9.383524
endloop
endfacet
facet normal 0.923877 0.000000 -0.382690
outer loop
vertex -33.167923 -127.983986 9.383524
vertex -33.167923 -126.488991 9.383524
vertex -33.013077 -127.983986 9.757349
endloop
endfacet
facet normal 0.923877 0.000000 -0.382690
outer loop
vertex -33.013077 -127.983986 9.757349
vertex -33.167923 -126.488991 9.383524
vertex -33.013077 -126.488991 9.757349
endloop
endfacet
facet normal 0.793361 0.000000 -0.608752
outer loop
vertex -33.013077 -127.983986 9.757349
vertex -33.013077 -126.488991 9.757349
vertex -32.766754 -127.983994 10.078371
endloop
endfacet
facet normal 0.793359 0.000000 -0.608754
outer loop
vertex -32.766754 -127.983994 10.078371
vertex -33.013077 -126.488991 9.757349
vertex -32.766754 -126.488991 10.078371
endloop
endfacet
facet normal 0.608754 0.000000 -0.793359
outer loop
vertex -32.766754 -127.983994 10.078371
vertex -32.766754 -126.488991 10.078371
vertex -32.445732 -127.983994 10.324694
endloop
endfacet
facet normal 0.608754 0.000000 -0.793359
outer loop
vertex -32.445732 -127.983994 10.324694
vertex -32.766754 -126.488991 10.078371
vertex -32.445732 -126.488991 10.324694
endloop
endfacet
facet normal 0.382694 0.000000 -0.923875
outer loop
vertex -32.445732 -127.983994 10.324694
vertex -32.445732 -126.488991 10.324694
vertex -32.071907 -127.983994 10.479540
endloop
endfacet
facet normal 0.382685 0.000000 -0.923879
outer loop
vertex -32.071907 -127.983994 10.479540
vertex -32.445732 -126.488991 10.324694
vertex -32.071907 -126.488991 10.479540
endloop
endfacet
facet normal 0.130516 0.000000 -0.991446
outer loop
vertex -32.071907 -127.983994 10.479540
vertex -32.071907 -126.488991 10.479540
vertex -31.670734 -127.983994 10.532351
endloop
endfacet
facet normal 0.130513 0.000000 -0.991447
outer loop
vertex -31.670734 -127.983994 10.532351
vertex -32.071907 -126.488991 10.479540
vertex -31.670734 -126.488991 10.532351
endloop
endfacet
facet normal -0.130514 0.000000 -0.991446
outer loop
vertex -31.670734 -127.983994 10.532351
vertex -31.670734 -126.488991 10.532351
vertex -31.269566 -127.983994 10.479540
endloop
endfacet
facet normal -0.130516 0.000000 -0.991446
outer loop
vertex -31.269566 -127.983994 10.479540
vertex -31.670734 -126.488991 10.532351
vertex -31.269566 -126.488991 10.479540
endloop
endfacet
facet normal -0.382689 0.000000 -0.923877
outer loop
vertex -31.269566 -127.983994 10.479540
vertex -31.269566 -126.488991 10.479540
vertex -30.895735 -127.983994 10.324694
endloop
endfacet
facet normal -0.382680 0.000000 -0.923881
outer loop
vertex -30.895735 -127.983994 10.324694
vertex -31.269566 -126.488991 10.479540
vertex -30.895735 -126.488991 10.324694
endloop
endfacet
facet normal -0.608760 0.000000 -0.793354
outer loop
vertex -30.895735 -127.983994 10.324694
vertex -30.895735 -126.488991 10.324694
vertex -30.574718 -127.983994 10.078371
endloop
endfacet
facet normal -0.608760 0.000000 -0.793354
outer loop
vertex -30.574718 -127.983994 10.078371
vertex -30.895735 -126.488991 10.324694
vertex -30.574718 -126.488991 10.078371
endloop
endfacet
facet normal -0.793359 0.000000 -0.608754
outer loop
vertex -30.574718 -127.983994 10.078371
vertex -30.574718 -126.488991 10.078371
vertex -30.328396 -127.983986 9.757349
endloop
endfacet
facet normal -0.793361 0.000000 -0.608752
outer loop
vertex -30.328396 -127.983986 9.757349
vertex -30.574718 -126.488991 10.078371
vertex -30.328396 -126.488991 9.757349
endloop
endfacet
facet normal -0.923877 0.000000 -0.382690
outer loop
vertex -30.328396 -127.983986 9.757349
vertex -30.328396 -126.488991 9.757349
vertex -30.173550 -127.983986 9.383524
endloop
endfacet
facet normal -0.923877 0.000000 -0.382690
outer loop
vertex -30.173550 -127.983986 9.383524
vertex -30.328396 -126.488991 9.757349
vertex -30.173550 -126.488991 9.383524
endloop
endfacet
facet normal -0.991445 0.000000 -0.130526
outer loop
vertex -30.173550 -127.983986 9.383524
vertex -30.173550 -126.488991 9.383524
vertex -30.120735 -127.983986 8.982355
endloop
endfacet
facet normal -0.991445 0.000000 -0.130524
outer loop
vertex -30.120735 -127.983986 8.982355
vertex -30.173550 -126.488991 9.383524
vertex -30.120735 -126.488991 8.982355
endloop
endfacet
facet normal -0.991445 0.000000 0.130525
outer loop
vertex -30.120735 -127.983986 8.982355
vertex -30.120735 -126.488991 8.982355
vertex -30.173550 -127.983986 8.581186
endloop
endfacet
facet normal -0.991445 0.000000 0.130524
outer loop
vertex -30.173550 -127.983986 8.581186
vertex -30.120735 -126.488991 8.982355
vertex -30.173550 -126.488991 8.581186
endloop
endfacet
facet normal -0.923879 0.000000 0.382684
outer loop
vertex -30.173550 -127.983986 8.581186
vertex -30.173550 -126.488991 8.581186
vertex -30.328396 -127.983986 8.207354
endloop
endfacet
facet normal -0.923879 0.000000 0.382684
outer loop
vertex -30.328396 -127.983986 8.207354
vertex -30.173550 -126.488991 8.581186
vertex -30.328396 -126.488991 8.207354
endloop
endfacet
facet normal -0.793354 0.000000 0.608761
outer loop
vertex -30.328396 -127.983986 8.207354
vertex -30.328396 -126.488991 8.207354
vertex -30.574718 -127.983986 7.886339
endloop
endfacet
facet normal -0.793354 0.000000 0.608761
outer loop
vertex -30.574718 -127.983986 7.886339
vertex -30.328396 -126.488991 8.207354
vertex -30.574718 -126.488991 7.886339
endloop
endfacet
facet normal -0.608762 0.000000 0.793353
outer loop
vertex -30.574718 -127.983986 7.886339
vertex -30.574718 -126.488991 7.886339
vertex -30.895735 -127.983986 7.640017
endloop
endfacet
facet normal -0.608758 0.000000 0.793356
outer loop
vertex -30.895735 -127.983986 7.640017
vertex -30.574718 -126.488991 7.886339
vertex -30.895735 -126.488991 7.640017
endloop
endfacet
facet normal -0.382682 0.000000 0.923880
outer loop
vertex -30.895735 -127.983986 7.640017
vertex -30.895735 -126.488991 7.640017
vertex -31.269566 -127.983986 7.485170
endloop
endfacet
facet normal -0.382685 0.000000 0.923879
outer loop
vertex -31.269566 -127.983986 7.485170
vertex -30.895735 -126.488991 7.640017
vertex -31.269566 -126.488991 7.485170
endloop
endfacet
facet normal -0.130536 0.000000 0.991444
outer loop
vertex -31.269566 -127.983986 7.485170
vertex -31.269566 -126.488991 7.485170
vertex -31.670734 -127.983986 7.432352
endloop
endfacet
facet normal -0.130533 0.000000 0.991444
outer loop
vertex -31.670734 -127.983986 7.432352
vertex -31.269566 -126.488991 7.485170
vertex -31.670734 -126.488991 7.432352
endloop
endfacet
facet normal 0.130531 0.000000 0.991444
outer loop
vertex -31.670734 -127.983986 7.432352
vertex -31.670734 -126.488991 7.432352
vertex -32.071907 -127.983986 7.485170
endloop
endfacet
facet normal 0.130536 0.000000 0.991444
outer loop
vertex -32.071907 -127.983986 7.485170
vertex -31.670734 -126.488991 7.432352
vertex -32.071907 -126.488991 7.485170
endloop
endfacet
facet normal 0.382689 0.000000 0.923877
outer loop
vertex -32.071907 -127.983986 7.485170
vertex -32.071907 -126.488991 7.485170
vertex -32.445732 -127.983986 7.640017
endloop
endfacet
facet normal 0.382686 0.000000 0.923878
outer loop
vertex -32.445732 -127.983986 7.640017
vertex -32.071907 -126.488991 7.485170
vertex -32.445732 -126.488991 7.640017
endloop
endfacet
facet normal 0.608752 0.000000 0.793361
outer loop
vertex -32.445732 -127.983986 7.640017
vertex -32.445732 -126.488991 7.640017
vertex -32.766754 -127.983986 7.886339
endloop
endfacet
facet normal 0.608756 0.000000 0.793358
outer loop
vertex -32.766754 -127.983986 7.886339
vertex -32.445732 -126.488991 7.640017
vertex -32.766754 -126.488991 7.886339
endloop
endfacet
facet normal 0.793354 0.000000 0.608761
outer loop
vertex -32.766754 -127.983986 7.886339
vertex -32.766754 -126.488991 7.886339
vertex -33.013077 -127.983986 8.207354
endloop
endfacet
facet normal 0.793354 0.000000 0.608761
outer loop
vertex -33.013077 -127.983986 8.207354
vertex -32.766754 -126.488991 7.886339
vertex -33.013077 -126.488991 8.207354
endloop
endfacet
facet normal 0.923879 0.000000 0.382684
outer loop
vertex -33.013077 -127.983986 8.207354
vertex -33.013077 -126.488991 8.207354
vertex -33.167923 -127.983986 8.581186
endloop
endfacet
facet normal 0.923879 0.000000 0.382684
outer loop
vertex -33.167923 -127.983986 8.581186
vertex -33.013077 -126.488991 8.207354
vertex -33.167923 -126.488991 8.581186
endloop
endfacet
facet normal 0.000000 -1.000000 -0.000051
outer loop
vertex -33.167923 -126.488991 8.581186
vertex -30.173550 -126.488991 8.581186
vertex -33.220734 -126.488991 8.982355
endloop
endfacet
facet normal 0.000000 -1.000000 0.000001
outer loop
vertex -33.220734 -126.488991 8.982355
vertex -30.173550 -126.488991 8.581186
vertex -30.120735 -126.488991 8.982355
endloop
endfacet
facet normal 0.000000 -1.000000 0.000049
outer loop
vertex -33.220734 -126.488991 8.982355
vertex -30.120735 -126.488991 8.982355
vertex -33.167923 -126.488991 9.383524
endloop
endfacet
facet normal 0.000000 -1.000000 -0.000001
outer loop
vertex -33.167923 -126.488991 9.383524
vertex -30.120735 -126.488991 8.982355
vertex -30.173550 -126.488991 9.383524
endloop
endfacet
facet normal 0.000000 -1.000000 0.000000
outer loop
vertex -33.167923 -126.488991 9.383524
vertex -30.173550 -126.488991 9.383524
vertex -33.013077 -126.488991 9.757349
endloop
endfacet
facet normal 0.000000 -1.000000 -0.000008
outer loop
vertex -33.013077 -126.488991 9.757349
vertex -30.173550 -126.488991 9.383524
vertex -30.328396 -126.488991 9.757349
endloop
endfacet
facet normal 0.000000 -1.000000 0.000000
outer loop
vertex -33.013077 -126.488991 9.757349
vertex -30.328396 -126.488991 9.757349
vertex -32.766754 -126.488991 10.078371
endloop
endfacet
facet normal 0.000000 -1.000000 0.000011
outer loop
vertex -32.766754 -126.488991 10.078371
vertex -30.328396 -126.488991 9.757349
vertex -30.574718 -126.488991 10.078371
endloop
endfacet
facet normal 0.000000 -1.000000 -0.000057
outer loop
vertex -32.766754 -126.488991 10.078371
vertex -30.574718 -126.488991 10.078371
vertex -32.445732 -126.488991 10.324694
endloop
endfacet
facet normal 0.000000 -1.000000 -0.000020
outer loop
vertex -32.445732 -126.488991 10.324694
vertex -30.574718 -126.488991 10.078371
vertex -30.895735 -126.488991 10.324694
endloop
endfacet
facet normal 0.000000 -1.000000 0.000000
outer loop
vertex -32.445732 -126.488991 10.324694
vertex -30.895735 -126.488991 10.324694
vertex -32.071907 -126.488991 10.479540
endloop
endfacet
facet normal 0.000000 -1.000000 0.000061
outer loop
vertex -32.071907 -126.488991 10.479540
vertex -30.895735 -126.488991 10.324694
vertex -31.269566 -126.488991 10.479540
endloop
endfacet
facet normal 0.000000 -1.000000 -0.000180
outer loop
vertex -32.071907 -126.488991 10.479540
vertex -31.269566 -126.488991 10.479540
vertex -31.670734 -126.488991 10.532351
endloop
endfacet
facet normal 0.000000 -1.000000 0.000000
outer loop
vertex -30.173550 -126.488991 8.581186
vertex -33.167923 -126.488991 8.581186
vertex -30.328396 -126.488991 8.207354
endloop
endfacet
facet normal 0.000000 -1.000000 0.000008
outer loop
vertex -30.328396 -126.488991 8.207354
vertex -33.167923 -126.488991 8.581186
vertex -33.013077 -126.488991 8.207354
endloop
endfacet
facet normal 0.000000 -1.000000 0.000000
outer loop
vertex -30.328396 -126.488991 8.207354
vertex -33.013077 -126.488991 8.207354
vertex -30.574718 -126.488991 7.886339
endloop
endfacet
facet normal 0.000000 -1.000000 -0.000011
outer loop
vertex -30.574718 -126.488991 7.886339
vertex -33.013077 -126.488991 8.207354
vertex -32.766754 -126.488991 7.886339
endloop
endfacet
facet normal 0.000000 -1.000000 0.000000
outer loop
vertex -30.574718 -126.488991 7.886339
vertex -32.766754 -126.488991 7.886339
vertex -30.895735 -126.488991 7.640017
endloop
endfacet
facet normal 0.000000 -1.000000 0.000060
outer loop
vertex -30.895735 -126.488991 7.640017
vertex -32.766754 -126.488991 7.886339
vertex -32.445732 -126.488991 7.640017
endloop
endfacet
facet normal 0.000000 -1.000000 0.000000
outer loop
vertex -30.895735 -126.488991 7.640017
vertex -32.445732 -126.488991 7.640017
vertex -31.269566 -126.488991 7.485170
endloop
endfacet
facet normal 0.000000 -1.000000 -0.000184
outer loop
vertex -31.269566 -126.488991 7.485170
vertex -32.445732 -126.488991 7.640017
vertex -32.071907 -126.488991 7.485170
endloop
endfacet
facet normal 0.000000 -1.000000 0.000180
outer loop
vertex -31.269566 -126.488991 7.485170
vertex -32.071907 -126.488991 7.485170
vertex -31.670734 -126.488991 7.432352
endloop
endfacet
facet normal -0.707107 0.000000 -0.707106
outer loop
vertex -38.670738 -123.993988 8.982355
vertex -35.170738 -123.993988 5.482355
vertex -38.670738 -127.983986 8.982355
endloop
endfacet
facet normal -0.707106 0.000000 -0.707108
outer loop
vertex -38.670738 -127.983986 8.982355
vertex -35.170738 -123.993988 5.482355
vertex -35.170738 -127.983986 5.482355
endloop
endfacet
facet normal -1.000000 0.000000 0.000000
outer loop
vertex -38.670738 -123.993988 15.982355
vertex -38.670738 -123.993988 8.982355
vertex -38.670738 -127.983994 15.982355
endloop
endfacet
facet normal -1.000000 0.000000 0.000000
outer loop
vertex -38.670738 -127.983994 15.982355
vertex -38.670738 -123.993988 8.982355
vertex -38.670738 -127.983986 8.982355
endloop
endfacet
facet normal -0.707106 0.000000 0.707107
outer loop
vertex -35.170738 -123.993988 19.482355
vertex -38.670738 -123.993988 15.982355
vertex -35.170738 -127.983994 19.482355
endloop
endfacet
facet normal -0.707107 0.000000 0.707107
outer loop
vertex -35.170738 -127.983994 19.482355
vertex -38.670738 -123.993988 15.982355
vertex -38.670738 -127.983994 15.982355
endloop
endfacet
facet normal 0.000000 0.000000 1.000000
outer loop
vertex -28.170734 -123.993988 19.482355
vertex -35.170738 -123.993988 19.482355
vertex -28.170734 -127.983994 19.482355
endloop
endfacet
facet normal 0.000000 0.000000 1.000000
outer loop
vertex -28.170734 -127.983994 19.482355
vertex -35.170738 -123.993988 19.482355
vertex -35.170738 -127.983994 19.482355
endloop
endfacet
facet normal 0.707107 0.000000 0.707107
outer loop
vertex -24.670734 -123.993988 15.982355
vertex -28.170734 -123.993988 19.482355
vertex -24.670734 -127.983994 15.982355
endloop
endfacet
facet normal 0.707106 0.000000 0.707107
outer loop
vertex -24.670734 -127.983994 15.982355
vertex -28.170734 -123.993988 19.482355
vertex -28.170734 -127.983994 19.482355
endloop
endfacet
facet normal 1.000000 0.000000 0.000000
outer loop
vertex -24.670734 -123.993988 8.982355
vertex -24.670734 -123.993988 15.982355
vertex -24.670734 -127.983986 8.982355
endloop
endfacet
facet normal 1.000000 0.000000 0.000000
outer loop
vertex -24.670734 -127.983986 8.982355
vertex -24.670734 -123.993988 15.982355
vertex -24.670734 -127.983994 15.982355
endloop
endfacet
facet normal 0.707107 0.000000 -0.707106
outer loop
vertex -28.170734 -123.993988 5.482355
vertex -24.670734 -123.993988 8.982355
vertex -28.170734 -127.983986 5.482355
endloop
endfacet
facet normal 0.707106 0.000000 -0.707108
outer loop
vertex -28.170734 -127.983986 5.482355
vertex -24.670734 -123.993988 8.982355
vertex -24.670734 -127.983986 8.982355
endloop
endfacet
facet normal 0.000000 0.000000 -1.000000
outer loop
vertex -35.170738 -123.993988 5.482355
vertex -28.170734 -123.993988 5.482355
vertex -35.170738 -127.983986 5.482355
endloop
endfacet
facet normal 0.000000 0.000000 -1.000000
outer loop
vertex -35.170738 -127.983986 5.482355
vertex -28.170734 -123.993988 5.482355
vertex -28.170734 -127.983986 5.482355
endloop
endfacet
facet normal 0.000000 -1.000000 0.000000
outer loop
vertex -35.170738 -127.983994 17.532351
vertex -28.170713 -127.983994 17.532351
vertex -28.170734 -127.983994 19.482355
endloop
endfacet
facet normal 0.000000 -1.000000 0.000000
outer loop
vertex -28.170734 -127.983994 19.482355
vertex -28.170713 -127.983994 17.532351
vertex -27.769548 -127.983994 17.479532
endloop
endfacet
facet normal 0.000000 -1.000000 0.000000
outer loop
vertex -28.170734 -127.983994 19.482355
vertex -27.769548 -127.983994 17.479532
vertex -27.395723 -127.983994 17.324686
endloop
endfacet
facet normal 0.000000 -1.000000 0.000000
outer loop
vertex -27.395723 -127.983994 17.324686
vertex -27.074711 -127.983994 17.078363
vertex -28.170734 -127.983994 19.482355
endloop
endfacet
facet normal 0.000000 -1.000000 0.000000
outer loop
vertex -28.170734 -127.983994 19.482355
vertex -27.074711 -127.983994 17.078363
vertex -24.670734 -127.983994 15.982355
endloop
endfacet
facet normal 0.000000 -1.000000 -0.000023
outer loop
vertex -24.670734 -127.983994 15.982355
vertex -27.074711 -127.983994 17.078363
vertex -26.828392 -127.983994 16.757349
endloop
endfacet
facet normal 0.000000 -1.000000 0.000072
outer loop
vertex -24.670734 -127.983994 15.982355
vertex -26.828392 -127.983994 16.757349
vertex -26.673550 -127.983994 16.383516
endloop
endfacet
facet normal 0.000000 -1.000000 -0.000039
outer loop
vertex -26.673550 -127.983994 16.383516
vertex -26.620735 -127.983994 15.982355
vertex -24.670734 -127.983994 15.982355
endloop
endfacet
facet normal 0.000000 -1.000000 -0.000000
outer loop
vertex -24.670734 -127.983994 15.982355
vertex -26.620735 -127.983994 15.982355
vertex -26.620724 -127.983994 12.482355
endloop
endfacet
facet normal 0.000002 -1.000000 0.000000
outer loop
vertex -24.670734 -127.983994 15.982355
vertex -26.620724 -127.983994 12.482355
vertex -24.670734 -127.983986 8.982355
endloop
endfacet
facet normal 0.000003 -1.000000 0.000044
outer loop
vertex -24.670734 -127.983986 8.982355
vertex -26.620724 -127.983994 12.482355
vertex -26.673536 -127.983994 12.081186
endloop
endfacet
facet normal 0.000002 -1.000000 -0.000040
outer loop
vertex -24.670734 -127.983986 8.982355
vertex -26.673536 -127.983994 12.081186
vertex -26.828381 -127.983994 11.707354
endloop
endfacet
facet normal 0.000002 -1.000000 0.000000
outer loop
vertex -26.828381 -127.983994 11.707354
vertex -27.074703 -127.983994 11.386339
vertex -24.670734 -127.983986 8.982355
endloop
endfacet
facet normal 0.000001 -1.000000 0.000017
outer loop
vertex -24.670734 -127.983986 8.982355
vertex -27.074703 -127.983994 11.386339
vertex -27.395720 -127.983994 11.140017
endloop
endfacet
facet normal 0.000001 -1.000000 0.000006
outer loop
vertex -24.670734 -127.983986 8.982355
vertex -27.395720 -127.983994 11.140017
vertex -27.769548 -127.983994 10.985170
endloop
endfacet
facet normal 0.000000 -1.000000 -0.000073
outer loop
vertex -28.170717 -127.983994 10.932352
vertex -30.173550 -127.983986 8.581186
vertex -27.769548 -127.983994 10.985170
endloop
endfacet
facet normal -0.000002 -1.000000 0.000000
outer loop
vertex -27.769548 -127.983994 10.985170
vertex -30.173550 -127.983986 8.581186
vertex -28.170734 -127.983986 5.482355
endloop
endfacet
facet normal 0.000001 -1.000000 -0.000007
outer loop
vertex -27.769548 -127.983994 10.985170
vertex -28.170734 -127.983986 5.482355
vertex -24.670734 -127.983986 8.982355
endloop
endfacet
facet normal -0.000005 -1.000000 0.000045
outer loop
vertex -30.173550 -127.983986 8.581186
vertex -28.170717 -127.983994 10.932352
vertex -30.120735 -127.983986 8.982355
endloop
endfacet
facet normal -0.000000 -1.000000 -0.000009
outer loop
vertex -30.120735 -127.983986 8.982355
vertex -28.170717 -127.983994 10.932352
vertex -28.571888 -127.983994 10.985163
endloop
endfacet
facet normal -0.000004 -1.000000 0.000000
outer loop
vertex -30.120735 -127.983986 8.982355
vertex -28.571888 -127.983994 10.985163
vertex -30.173550 -127.983986 9.383524
endloop
endfacet
facet normal -0.000001 -1.000000 0.000009
outer loop
vertex -30.173550 -127.983986 9.383524
vertex -28.571888 -127.983994 10.985163
vertex -28.945719 -127.983994 11.140009
endloop
endfacet
facet normal -0.000004 -1.000000 0.000000
outer loop
vertex -30.173550 -127.983986 9.383524
vertex -28.945719 -127.983994 11.140009
vertex -30.328396 -127.983986 9.757349
endloop
endfacet
facet normal -0.000002 -1.000000 0.000029
outer loop
vertex -30.328396 -127.983986 9.757349
vertex -28.945719 -127.983994 11.140009
vertex -29.266735 -127.983994 11.386332
endloop
endfacet
facet normal 0.000013 -1.000000 0.000000
outer loop
vertex -30.328396 -127.983986 9.757349
vertex -29.266735 -127.983994 11.386332
vertex -30.574718 -127.983994 10.078371
endloop
endfacet
facet normal 0.000000 -1.000000 0.000015
outer loop
vertex -30.574718 -127.983994 10.078371
vertex -29.266735 -127.983994 11.386332
vertex -29.513060 -127.983994 11.707346
endloop
endfacet
facet normal 0.000000 -1.000000 -0.000039
outer loop
vertex -30.574718 -127.983994 10.078371
vertex -29.513060 -127.983994 11.707346
vertex -30.895735 -127.983994 10.324694
endloop
endfacet
facet normal 0.000000 -1.000000 0.000016
outer loop
vertex -30.895735 -127.983994 10.324694
vertex -29.513060 -127.983994 11.707346
vertex -29.667908 -127.983994 12.081179
endloop
endfacet
facet normal 0.000000 -1.000000 0.000000
outer loop
vertex -30.895735 -127.983994 10.324694
vertex -29.667908 -127.983994 12.081179
vertex -31.269566 -127.983994 10.479540
endloop
endfacet
facet normal 0.000000 -1.000000 0.000017
outer loop
vertex -31.269566 -127.983994 10.479540
vertex -29.667908 -127.983994 12.081179
vertex -29.720722 -127.983994 12.482347
endloop
endfacet
facet normal 0.000000 -1.000000 0.000000
outer loop
vertex -31.269566 -127.983994 10.479540
vertex -29.720722 -127.983994 12.482347
vertex -31.670734 -127.983994 10.532351
endloop
endfacet
facet normal 0.000000 -1.000000 0.000000
outer loop
vertex -31.670734 -127.983994 10.532351
vertex -29.720722 -127.983994 12.482347
vertex -33.620735 -127.983994 12.482355
endloop
endfacet
facet normal 0.000000 -1.000000 0.000048
outer loop
vertex -31.670734 -127.983994 10.532351
vertex -33.620735 -127.983994 12.482355
vertex -33.673553 -127.983994 12.081186
endloop
endfacet
facet normal 0.000000 -1.000000 0.000000
outer loop
vertex -29.720730 -127.983994 14.432276
vertex -33.620735 -127.983994 14.432070
vertex -29.720722 -127.983994 12.482347
endloop
endfacet
facet normal 0.000000 -1.000000 0.000000
outer loop
vertex -29.720722 -127.983994 12.482347
vertex -33.620735 -127.983994 14.432070
vertex -33.620735 -127.983994 12.482355
endloop
endfacet
facet normal 0.000000 -1.000000 -0.000042
outer loop
vertex -31.670734 -127.983994 10.532351
vertex -33.673553 -127.983994 12.081186
vertex -32.071907 -127.983994 10.479540
endloop
endfacet
facet normal 0.000000 -1.000000 -0.000023
outer loop
vertex -32.071907 -127.983994 10.479540
vertex -33.673553 -127.983994 12.081186
vertex -33.828392 -127.983994 11.707354
endloop
endfacet
facet normal 0.000000 -1.000000 0.000042
outer loop
vertex -32.071907 -127.983994 10.479540
vertex -33.828392 -127.983994 11.707354
vertex -32.445732 -127.983994 10.324694
endloop
endfacet
facet normal 0.000000 -1.000000 -0.000024
outer loop
vertex -32.445732 -127.983994 10.324694
vertex -33.828392 -127.983994 11.707354
vertex -34.074722 -127.983994 11.386339
endloop
endfacet
facet normal 0.000000 -1.000000 0.000000
outer loop
vertex -32.445732 -127.983994 10.324694
vertex -34.074722 -127.983994 11.386339
vertex -32.766754 -127.983994 10.078371
endloop
endfacet
facet normal 0.000000 -1.000000 -0.000010
outer loop
vertex -32.766754 -127.983994 10.078371
vertex -34.074722 -127.983994 11.386339
vertex -34.395737 -127.983994 11.140017
endloop
endfacet
facet normal -0.000010 -1.000000 0.000039
outer loop
vertex -32.766754 -127.983994 10.078371
vertex -34.395737 -127.983994 11.140017
vertex -33.013077 -127.983986 9.757349
endloop
endfacet
facet normal 0.000002 -1.000000 -0.000031
outer loop
vertex -33.013077 -127.983986 9.757349
vertex -34.395737 -127.983994 11.140017
vertex -34.769562 -127.983994 10.985170
endloop
endfacet
facet normal 0.000003 -1.000000 0.000000
outer loop
vertex -33.013077 -127.983986 9.757349
vertex -34.769562 -127.983994 10.985170
vertex -33.167923 -127.983986 9.383524
endloop
endfacet
facet normal 0.000001 -1.000000 0.000031
outer loop
vertex -33.167923 -127.983986 9.383524
vertex -34.769562 -127.983994 10.985170
vertex -35.170738 -127.983994 10.932352
endloop
endfacet
facet normal 0.000003 -1.000000 -0.000034
outer loop
vertex -33.167923 -127.983986 9.383524
vertex -35.170738 -127.983994 10.932352
vertex -33.220734 -127.983986 8.982355
endloop
endfacet
facet normal -0.000001 -1.000000 0.000034
outer loop
vertex -33.220734 -127.983986 8.982355
vertex -35.170738 -127.983994 10.932352
vertex -35.571907 -127.983994 10.985170
endloop
endfacet
facet normal 0.000004 -1.000000 0.000000
outer loop
vertex -33.220734 -127.983986 8.982355
vertex -35.571907 -127.983994 10.985170
vertex -33.167923 -127.983986 8.581186
endloop
endfacet
facet normal 0.000002 -1.000000 -0.000002
outer loop
vertex -33.167923 -127.983986 8.581186
vertex -35.571907 -127.983994 10.985170
vertex -35.170738 -127.983986 5.482355
endloop
endfacet
facet normal 0.000000 -1.000000 0.000000
outer loop
vertex -33.167923 -127.983986 8.581186
vertex -35.170738 -127.983986 5.482355
vertex -33.013077 -127.983986 8.207354
endloop
endfacet
facet normal 0.000000 -1.000000 0.000000
outer loop
vertex -33.013077 -127.983986 8.207354
vertex -35.170738 -127.983986 5.482355
vertex -32.766754 -127.983986 7.886339
endloop
endfacet
facet normal 0.000000 -1.000000 0.000000
outer loop
vertex -32.766754 -127.983986 7.886339
vertex -35.170738 -127.983986 5.482355
vertex -32.445732 -127.983986 7.640017
endloop
endfacet
facet normal 0.000000 -1.000000 0.000000
outer loop
vertex -32.445732 -127.983986 7.640017
vertex -35.170738 -127.983986 5.482355
vertex -32.071907 -127.983986 7.485170
endloop
endfacet
facet normal 0.000000 -1.000000 -0.000063
outer loop
vertex -32.071907 -127.983986 7.485170
vertex -35.170738 -127.983986 5.482355
vertex -31.670734 -127.983986 7.432352
endloop
endfacet
facet normal 0.000000 -1.000000 0.000000
outer loop
vertex -31.670734 -127.983986 7.432352
vertex -35.170738 -127.983986 5.482355
vertex -28.170734 -127.983986 5.482355
endloop
endfacet
facet normal 0.000000 -1.000000 0.000000
outer loop
vertex -31.670734 -127.983986 7.432352
vertex -28.170734 -127.983986 5.482355
vertex -31.269566 -127.983986 7.485170
endloop
endfacet
facet normal 0.000000 -1.000000 0.000000
outer loop
vertex -31.269566 -127.983986 7.485170
vertex -28.170734 -127.983986 5.482355
vertex -30.895735 -127.983986 7.640017
endloop
endfacet
facet normal 0.000000 -1.000000 -0.000045
outer loop
vertex -30.895735 -127.983986 7.640017
vertex -28.170734 -127.983986 5.482355
vertex -30.574718 -127.983986 7.886339
endloop
endfacet
facet normal 0.000000 -1.000000 0.000000
outer loop
vertex -30.574718 -127.983986 7.886339
vertex -28.170734 -127.983986 5.482355
vertex -30.328396 -127.983986 8.207354
endloop
endfacet
facet normal 0.000000 -1.000000 0.000000
outer loop
vertex -30.328396 -127.983986 8.207354
vertex -28.170734 -127.983986 5.482355
vertex -30.173550 -127.983986 8.581186
endloop
endfacet
facet normal -0.000001 -1.000000 -0.000007
outer loop
vertex -35.170738 -127.983986 5.482355
vertex -35.571907 -127.983994 10.985170
vertex -38.670738 -127.983986 8.982355
endloop
endfacet
facet normal -0.000001 -1.000000 0.000006
outer loop
vertex -38.670738 -127.983986 8.982355
vertex -35.571907 -127.983994 10.985170
vertex -35.945732 -127.983994 11.140017
endloop
endfacet
facet normal -0.000001 -1.000000 0.000017
outer loop
vertex -38.670738 -127.983986 8.982355
vertex -35.945732 -127.983994 11.140017
vertex -36.266754 -127.983994 11.386339
endloop
endfacet
facet normal -0.000002 -1.000000 0.000000
outer loop
vertex -36.266754 -127.983994 11.386339
vertex -36.513077 -127.983994 11.707354
vertex -38.670738 -127.983986 8.982355
endloop
endfacet
facet normal -0.000002 -1.000000 -0.000040
outer loop
vertex -38.670738 -127.983986 8.982355
vertex -36.513077 -127.983994 11.707354
vertex -36.667923 -127.983994 12.081186
endloop
endfacet
facet normal -0.000003 -1.000000 0.000044
outer loop
vertex -38.670738 -127.983986 8.982355
vertex -36.667923 -127.983994 12.081186
vertex -36.720734 -127.983994 12.482355
endloop
endfacet
facet normal -0.000002 -1.000000 0.000000
outer loop
vertex -38.670738 -127.983986 8.982355
vertex -36.720734 -127.983994 12.482355
vertex -38.670738 -127.983994 15.982355
endloop
endfacet
facet normal 0.000000 -1.000000 0.000000
outer loop
vertex -38.670738 -127.983994 15.982355
vertex -36.720734 -127.983994 12.482355
vertex -36.720734 -127.983994 15.981989
endloop
endfacet
facet normal 0.000000 -1.000000 -0.000055
outer loop
vertex -38.670738 -127.983994 15.982355
vertex -36.720734 -127.983994 15.981989
vertex -36.667923 -127.983994 16.383165
endloop
endfacet
facet normal 0.000000 -1.000000 0.000089
outer loop
vertex -36.667923 -127.983994 16.383165
vertex -36.513077 -127.983994 16.756990
vertex -38.670738 -127.983994 15.982355
endloop
endfacet
facet normal 0.000000 -1.000000 -0.000023
outer loop
vertex -38.670738 -127.983994 15.982355
vertex -36.513077 -127.983994 16.756990
vertex -36.266754 -127.983994 17.078005
endloop
endfacet
facet normal 0.000000 -1.000000 0.000000
outer loop
vertex -38.670738 -127.983994 15.982355
vertex -36.266754 -127.983994 17.078005
vertex -35.170738 -127.983994 19.482355
endloop
endfacet
facet normal 0.000000 -1.000000 0.000015
outer loop
vertex -35.170738 -127.983994 19.482355
vertex -36.266754 -127.983994 17.078005
vertex -35.945732 -127.983994 17.324335
endloop
endfacet
facet normal 0.000000 -1.000000 0.000000
outer loop
vertex -35.170738 -127.983994 19.482355
vertex -35.945732 -127.983994 17.324335
vertex -35.571907 -127.983994 17.479174
endloop
endfacet
facet normal 0.000000 -1.000000 0.000000
outer loop
vertex -35.170738 -127.983994 17.531992
vertex -35.170738 -127.983994 17.532351
vertex -35.571907 -127.983994 17.479174
endloop
endfacet
facet normal 0.000000 -1.000000 0.000000
outer loop
vertex -35.571907 -127.983994 17.479174
vertex -35.170738 -127.983994 17.532351
vertex -35.170738 -127.983994 19.482355
endloop
endfacet
facet normal 0.000000 -1.000000 0.000000
outer loop
vertex -35.170738 -127.983994 19.482355
vertex -35.170738 -127.983994 17.532351
vertex -28.170734 -127.983994 19.482355
endloop
endfacet
facet normal 0.000000 1.000000 -0.000056
outer loop
vertex -33.167923 -123.993988 16.383524
vertex -33.220734 -123.993988 15.982355
vertex -38.670738 -123.993988 15.982355
endloop
endfacet
facet normal 0.000000 1.000000 0.000000
outer loop
vertex -38.670738 -123.993988 15.982355
vertex -33.220734 -123.993988 15.982355
vertex -33.220734 -123.993988 12.482355
endloop
endfacet
facet normal 0.000000 1.000000 0.000000
outer loop
vertex -38.670738 -123.993988 15.982355
vertex -33.220734 -123.993988 12.482355
vertex -38.670738 -123.993988 8.982355
endloop
endfacet
facet normal 0.000000 1.000000 0.000041
outer loop
vertex -38.670738 -123.993988 8.982355
vertex -33.220734 -123.993988 12.482355
vertex -33.167923 -123.993988 12.081186
endloop
endfacet
facet normal 0.000000 1.000000 -0.000012
outer loop
vertex -38.670738 -123.993988 8.982355
vertex -33.167923 -123.993988 12.081186
vertex -33.013077 -123.993988 11.707354
endloop
endfacet
facet normal 0.000000 1.000000 0.000000
outer loop
vertex -33.013077 -123.993988 11.707354
vertex -32.766754 -123.993988 11.386339
vertex -38.670738 -123.993988 8.982355
endloop
endfacet
facet normal 0.000000 1.000000 0.000002
outer loop
vertex -38.670738 -123.993988 8.982355
vertex -32.766754 -123.993988 11.386339
vertex -35.170738 -123.993988 5.482355
endloop
endfacet
facet normal 0.000000 1.000000 -0.000006
outer loop
vertex -35.170738 -123.993988 5.482355
vertex -32.766754 -123.993988 11.386339
vertex -32.445732 -123.993988 11.140017
endloop
endfacet
facet normal 0.000000 1.000000 -0.000015
outer loop
vertex -35.170738 -123.993988 5.482355
vertex -32.445732 -123.993988 11.140017
vertex -32.071907 -123.993988 10.985170
endloop
endfacet
facet normal 0.000000 1.000000 0.000000
outer loop
vertex -32.071907 -123.993988 10.985170
vertex -31.670734 -123.993988 10.932352
vertex -35.170738 -123.993988 5.482355
endloop
endfacet
facet normal 0.000000 1.000000 0.000000
outer loop
vertex -35.170738 -123.993988 5.482355
vertex -31.670734 -123.993988 10.932352
vertex -28.170734 -123.993988 5.482355
endloop
endfacet
facet normal 0.000000 1.000000 0.000026
outer loop
vertex -28.170734 -123.993988 5.482355
vertex -31.670734 -123.993988 10.932352
vertex -31.269566 -123.993988 10.985170
endloop
endfacet
facet normal 0.000000 1.000000 -0.000009
outer loop
vertex -28.170734 -123.993988 5.482355
vertex -31.269566 -123.993988 10.985170
vertex -30.895735 -123.993988 11.140017
endloop
endfacet
facet normal 0.000000 1.000000 -0.000025
outer loop
vertex -30.895735 -123.993988 11.140017
vertex -30.574718 -123.993988 11.386339
vertex -28.170734 -123.993988 5.482355
endloop
endfacet
facet normal 0.000000 1.000000 0.000004
outer loop
vertex -28.170734 -123.993988 5.482355
vertex -30.574718 -123.993988 11.386339
vertex -24.670734 -123.993988 8.982355
endloop
endfacet
facet normal 0.000000 1.000000 -0.000012
outer loop
vertex -24.670734 -123.993988 8.982355
vertex -30.574718 -123.993988 11.386339
vertex -30.328396 -123.993988 11.707354
endloop
endfacet
facet normal 0.000000 1.000000 -0.000012
outer loop
vertex -24.670734 -123.993988 8.982355
vertex -30.328396 -123.993988 11.707354
vertex -30.173550 -123.993988 12.081186
endloop
endfacet
facet normal 0.000000 1.000000 0.000051
outer loop
vertex -30.173550 -123.993988 12.081186
vertex -30.120735 -123.993988 12.482355
vertex -24.670734 -123.993988 8.982355
endloop
endfacet
facet normal 0.000000 1.000000 0.000000
outer loop
vertex -24.670734 -123.993988 8.982355
vertex -30.120735 -123.993988 12.482355
vertex -24.670734 -123.993988 15.982355
endloop
endfacet
facet normal 0.000000 1.000000 0.000000
outer loop
vertex -24.670734 -123.993988 15.982355
vertex -30.120735 -123.993988 12.482355
vertex -30.120735 -123.993988 15.982355
endloop
endfacet
facet normal 0.000000 1.000000 -0.000031
outer loop
vertex -24.670734 -123.993988 15.982355
vertex -30.120735 -123.993988 15.982355
vertex -30.173550 -123.993988 16.383524
endloop
endfacet
facet normal 0.000000 1.000000 0.000002
outer loop
vertex -24.670734 -123.993988 15.982355
vertex -30.173550 -123.993988 16.383524
vertex -28.170734 -123.993988 19.482355
endloop
endfacet
facet normal 0.000000 1.000000 0.000000
outer loop
vertex -28.170734 -123.993988 19.482355
vertex -30.173550 -123.993988 16.383524
vertex -30.328396 -123.993988 16.757349
endloop
endfacet
facet normal 0.000000 1.000000 -0.000022
outer loop
vertex -28.170734 -123.993988 19.482355
vertex -30.328396 -123.993988 16.757349
vertex -30.574718 -123.993988 17.078371
endloop
endfacet
facet normal 0.000000 1.000000 0.000000
outer loop
vertex -30.574718 -123.993988 17.078371
vertex -30.895735 -123.993988 17.324694
vertex -28.170734 -123.993988 19.482355
endloop
endfacet
facet normal 0.000000 1.000000 0.000019
outer loop
vertex -28.170734 -123.993988 19.482355
vertex -30.895735 -123.993988 17.324694
vertex -31.269566 -123.993988 17.479540
endloop
endfacet
facet normal 0.000000 1.000000 -0.000063
outer loop
vertex -28.170734 -123.993988 19.482355
vertex -31.269566 -123.993988 17.479540
vertex -31.670734 -123.993988 17.532351
endloop
endfacet
facet normal 0.000000 1.000000 0.000000
outer loop
vertex -28.170734 -123.993988 19.482355
vertex -31.670734 -123.993988 17.532351
vertex -35.170738 -123.993988 19.482355
endloop
endfacet
facet normal 0.000000 1.000000 -0.000032
outer loop
vertex -35.170738 -123.993988 19.482355
vertex -31.670734 -123.993988 17.532351
vertex -32.071907 -123.993988 17.479540
endloop
endfacet
facet normal 0.000000 1.000000 0.000031
outer loop
vertex -35.170738 -123.993988 19.482355
vertex -32.071907 -123.993988 17.479540
vertex -32.445732 -123.993988 17.324694
endloop
endfacet
facet normal 0.000000 1.000000 0.000000
outer loop
vertex -32.445732 -123.993988 17.324694
vertex -32.766754 -123.993988 17.078371
vertex -35.170738 -123.993988 19.482355
endloop
endfacet
facet normal 0.000000 1.000000 -0.000022
outer loop
vertex -35.170738 -123.993988 19.482355
vertex -32.766754 -123.993988 17.078371
vertex -33.013077 -123.993988 16.757349
endloop
endfacet
facet normal 0.000000 1.000000 0.000000
outer loop
vertex -35.170738 -123.993988 19.482355
vertex -33.013077 -123.993988 16.757349
vertex -33.167923 -123.993988 16.383524
endloop
endfacet
facet normal 0.000000 1.000000 0.000000
outer loop
vertex -35.170738 -123.993988 19.482355
vertex -33.167923 -123.993988 16.383524
vertex -38.670738 -123.993988 15.982355
endloop
endfacet
endsolid ShogiChessCncAndPLA v2.013
