solid ShogiChessCncAndPLA v2.002
facet normal -0.707104 0.000000 -0.707110
outer loop
vertex -266.296936 -123.993988 17.078371
vertex -263.892944 -123.993988 14.674387
vertex -266.296936 -125.488991 17.078371
endloop
endfacet
facet normal -0.707103 0.000000 -0.707110
outer loop
vertex -266.296936 -125.488991 17.078371
vertex -263.892944 -123.993988 14.674387
vertex -263.892944 -125.488991 14.674387
endloop
endfacet
facet normal 0.793335 0.000000 0.608786
outer loop
vertex -268.488953 -125.488991 14.886339
vertex -268.488953 -123.993988 14.886339
vertex -268.735291 -125.488991 15.207354
endloop
endfacet
facet normal 0.793338 0.000000 0.608781
outer loop
vertex -268.735291 -125.488991 15.207354
vertex -268.488953 -123.993988 14.886339
vertex -268.735291 -123.993988 15.207354
endloop
endfacet
facet normal 0.923881 0.000000 0.382680
outer loop
vertex -268.735291 -125.488991 15.207354
vertex -268.735291 -123.993988 15.207354
vertex -268.890137 -125.488991 15.581186
endloop
endfacet
facet normal 0.923880 0.000000 0.382682
outer loop
vertex -268.890137 -125.488991 15.581186
vertex -268.735291 -123.993988 15.207354
vertex -268.890137 -123.993988 15.581186
endloop
endfacet
facet normal 0.991441 0.000000 0.130553
outer loop
vertex -268.890137 -125.488991 15.581186
vertex -268.890137 -123.993988 15.581186
vertex -268.942963 -125.488991 15.982355
endloop
endfacet
facet normal 0.991441 0.000000 0.130552
outer loop
vertex -268.942963 -125.488991 15.982355
vertex -268.890137 -123.993988 15.581186
vertex -268.942963 -123.993988 15.982355
endloop
endfacet
facet normal 0.991441 0.000000 -0.130553
outer loop
vertex -268.942963 -125.488991 15.982355
vertex -268.942963 -123.993988 15.982355
vertex -268.890137 -125.488991 16.383524
endloop
endfacet
facet normal 0.991441 0.000000 -0.130552
outer loop
vertex -268.890137 -125.488991 16.383524
vertex -268.942963 -123.993988 15.982355
vertex -268.890137 -123.993988 16.383524
endloop
endfacet
facet normal 0.923877 0.000000 -0.382689
outer loop
vertex -268.890137 -125.488991 16.383524
vertex -268.890137 -123.993988 16.383524
vertex -268.735291 -125.488991 16.757349
endloop
endfacet
facet normal 0.923877 0.000000 -0.382689
outer loop
vertex -268.735291 -125.488991 16.757349
vertex -268.890137 -123.993988 16.383524
vertex -268.735291 -123.993988 16.757349
endloop
endfacet
facet normal 0.793342 0.000000 -0.608777
outer loop
vertex -268.735291 -125.488991 16.757349
vertex -268.735291 -123.993988 16.757349
vertex -268.488953 -125.488991 17.078371
endloop
endfacet
facet normal 0.793345 0.000000 -0.608772
outer loop
vertex -268.488953 -125.488991 17.078371
vertex -268.735291 -123.993988 16.757349
vertex -268.488953 -123.993988 17.078371
endloop
endfacet
facet normal 0.608752 0.000000 -0.793361
outer loop
vertex -268.488953 -125.488991 17.078371
vertex -268.488953 -123.993988 17.078371
vertex -268.167938 -125.488991 17.324694
endloop
endfacet
facet normal 0.608768 0.000000 -0.793348
outer loop
vertex -268.167938 -125.488991 17.324694
vertex -268.488953 -123.993988 17.078371
vertex -268.167938 -123.993988 17.324694
endloop
endfacet
facet normal 0.382703 0.000000 -0.923872
outer loop
vertex -268.167938 -125.488991 17.324694
vertex -268.167938 -123.993988 17.324694
vertex -267.794128 -125.488991 17.479540
endloop
endfacet
facet normal 0.382703 0.000000 -0.923872
outer loop
vertex -267.794128 -125.488991 17.479540
vertex -268.167938 -123.993988 17.324694
vertex -267.794128 -123.993988 17.479540
endloop
endfacet
facet normal 0.130513 0.000000 -0.991447
outer loop
vertex -267.794128 -125.488991 17.479540
vertex -267.794128 -123.993988 17.479540
vertex -267.392944 -125.488991 17.532351
endloop
endfacet
facet normal 0.130513 0.000000 -0.991447
outer loop
vertex -267.392944 -125.488991 17.532351
vertex -267.794128 -123.993988 17.479540
vertex -267.392944 -123.993988 17.532351
endloop
endfacet
facet normal -0.130522 0.000000 -0.991445
outer loop
vertex -267.392944 -125.488991 17.532351
vertex -267.392944 -123.993988 17.532351
vertex -266.991791 -125.488991 17.479540
endloop
endfacet
facet normal -0.130522 0.000000 -0.991445
outer loop
vertex -266.991791 -125.488991 17.479540
vertex -267.392944 -123.993988 17.532351
vertex -266.991791 -123.993988 17.479540
endloop
endfacet
facet normal -0.382676 0.000000 -0.923883
outer loop
vertex -266.991791 -125.488991 17.479540
vertex -266.991791 -123.993988 17.479540
vertex -266.617950 -125.488991 17.324694
endloop
endfacet
facet normal -0.382676 0.000000 -0.923883
outer loop
vertex -266.617950 -125.488991 17.324694
vertex -266.991791 -123.993988 17.479540
vertex -266.617950 -123.993988 17.324694
endloop
endfacet
facet normal -0.608756 0.000000 -0.793358
outer loop
vertex -266.617950 -125.488991 17.324694
vertex -266.617950 -123.993988 17.324694
vertex -266.296936 -125.488991 17.078371
endloop
endfacet
facet normal -0.608764 0.000000 -0.793351
outer loop
vertex -266.296936 -125.488991 17.078371
vertex -266.617950 -123.993988 17.324694
vertex -266.296936 -123.993988 17.078371
endloop
endfacet
facet normal 0.707104 0.000000 0.707109
outer loop
vertex -264.988953 -123.993988 11.386339
vertex -268.488953 -123.993988 14.886339
vertex -264.988953 -125.488991 11.386339
endloop
endfacet
facet normal 0.707109 0.000000 0.707105
outer loop
vertex -264.988953 -125.488991 11.386339
vertex -268.488953 -123.993988 14.886339
vertex -268.488953 -125.488991 14.886339
endloop
endfacet
facet normal -0.608752 0.000000 0.793361
outer loop
vertex -262.796936 -125.488991 11.386339
vertex -262.796936 -123.993988 11.386339
vertex -263.117950 -125.488991 11.140017
endloop
endfacet
facet normal -0.608764 0.000000 0.793351
outer loop
vertex -263.117950 -125.488991 11.140017
vertex -262.796936 -123.993988 11.386339
vertex -263.117950 -123.993988 11.140017
endloop
endfacet
facet normal -0.382676 0.000000 0.923883
outer loop
vertex -263.117950 -125.488991 11.140017
vertex -263.117950 -123.993988 11.140017
vertex -263.491791 -125.488991 10.985170
endloop
endfacet
facet normal -0.382681 0.000000 0.923880
outer loop
vertex -263.491791 -125.488991 10.985170
vertex -263.117950 -123.993988 11.140017
vertex -263.491791 -123.993988 10.985170
endloop
endfacet
facet normal -0.130535 0.000000 0.991444
outer loop
vertex -263.491791 -125.488991 10.985170
vertex -263.491791 -123.993988 10.985170
vertex -263.892944 -125.488991 10.932352
endloop
endfacet
facet normal -0.130541 0.000000 0.991443
outer loop
vertex -263.892944 -125.488991 10.932352
vertex -263.491791 -123.993988 10.985170
vertex -263.892944 -123.993988 10.932352
endloop
endfacet
facet normal 0.130531 0.000000 0.991444
outer loop
vertex -263.892944 -125.488991 10.932352
vertex -263.892944 -123.993988 10.932352
vertex -264.294128 -125.488991 10.985170
endloop
endfacet
facet normal 0.130525 0.000000 0.991445
outer loop
vertex -264.294128 -125.488991 10.985170
vertex -263.892944 -123.993988 10.932352
vertex -264.294128 -123.993988 10.985170
endloop
endfacet
facet normal 0.382708 0.000000 0.923869
outer loop
vertex -264.294128 -125.488991 10.985170
vertex -264.294128 -123.993988 10.985170
vertex -264.667938 -125.488991 11.140017
endloop
endfacet
facet normal 0.382703 0.000000 0.923872
outer loop
vertex -264.667938 -125.488991 11.140017
vertex -264.294128 -123.993988 10.985170
vertex -264.667938 -123.993988 11.140017
endloop
endfacet
facet normal 0.608752 0.000000 0.793361
outer loop
vertex -264.667938 -125.488991 11.140017
vertex -264.667938 -123.993988 11.140017
vertex -264.988953 -125.488991 11.386339
endloop
endfacet
facet normal 0.608764 0.000000 0.793351
outer loop
vertex -264.988953 -125.488991 11.386339
vertex -264.667938 -123.993988 11.140017
vertex -264.988953 -123.993988 11.386339
endloop
endfacet
facet normal 0.707103 0.000000 -0.707110
outer loop
vertex -263.892944 -123.993988 14.674387
vertex -261.488953 -123.993988 17.078371
vertex -263.892944 -125.488991 14.674387
endloop
endfacet
facet normal 0.707104 0.000000 -0.707110
outer loop
vertex -263.892944 -125.488991 14.674387
vertex -261.488953 -123.993988 17.078371
vertex -261.488953 -125.488991 17.078371
endloop
endfacet
facet normal 0.608752 0.000000 -0.793361
outer loop
vertex -261.488953 -125.488991 17.078371
vertex -261.488953 -123.993988 17.078371
vertex -261.167938 -125.488991 17.324694
endloop
endfacet
facet normal 0.608768 0.000000 -0.793348
outer loop
vertex -261.167938 -125.488991 17.324694
vertex -261.488953 -123.993988 17.078371
vertex -261.167938 -123.993988 17.324694
endloop
endfacet
facet normal 0.382703 0.000000 -0.923872
outer loop
vertex -261.167938 -125.488991 17.324694
vertex -261.167938 -123.993988 17.324694
vertex -260.794128 -125.488991 17.479540
endloop
endfacet
facet normal 0.382703 0.000000 -0.923872
outer loop
vertex -260.794128 -125.488991 17.479540
vertex -261.167938 -123.993988 17.324694
vertex -260.794128 -123.993988 17.479540
endloop
endfacet
facet normal 0.130513 0.000000 -0.991447
outer loop
vertex -260.794128 -125.488991 17.479540
vertex -260.794128 -123.993988 17.479540
vertex -260.392944 -125.488991 17.532351
endloop
endfacet
facet normal 0.130513 0.000000 -0.991447
outer loop
vertex -260.392944 -125.488991 17.532351
vertex -260.794128 -123.993988 17.479540
vertex -260.392944 -123.993988 17.532351
endloop
endfacet
facet normal -0.130522 0.000000 -0.991445
outer loop
vertex -260.392944 -125.488991 17.532351
vertex -260.392944 -123.993988 17.532351
vertex -259.991791 -125.488991 17.479540
endloop
endfacet
facet normal -0.130522 0.000000 -0.991445
outer loop
vertex -259.991791 -125.488991 17.479540
vertex -260.392944 -123.993988 17.532351
vertex -259.991791 -123.993988 17.479540
endloop
endfacet
facet normal -0.382676 0.000000 -0.923883
outer loop
vertex -259.991791 -125.488991 17.479540
vertex -259.991791 -123.993988 17.479540
vertex -259.617950 -125.488991 17.324694
endloop
endfacet
facet normal -0.382676 0.000000 -0.923883
outer loop
vertex -259.617950 -125.488991 17.324694
vertex -259.991791 -123.993988 17.479540
vertex -259.617950 -123.993988 17.324694
endloop
endfacet
facet normal -0.608756 0.000000 -0.793358
outer loop
vertex -259.617950 -125.488991 17.324694
vertex -259.617950 -123.993988 17.324694
vertex -259.296936 -125.488991 17.078371
endloop
endfacet
facet normal -0.608764 0.000000 -0.793351
outer loop
vertex -259.296936 -125.488991 17.078371
vertex -259.617950 -123.993988 17.324694
vertex -259.296936 -123.993988 17.078371
endloop
endfacet
facet normal -0.793339 0.000000 -0.608780
outer loop
vertex -259.296936 -125.488991 17.078371
vertex -259.296936 -123.993988 17.078371
vertex -259.050598 -125.488991 16.757349
endloop
endfacet
facet normal -0.793348 0.000000 -0.608769
outer loop
vertex -259.050598 -125.488991 16.757349
vertex -259.296936 -123.993988 17.078371
vertex -259.050598 -123.993988 16.757349
endloop
endfacet
facet normal -0.923877 0.000000 -0.382689
outer loop
vertex -259.050598 -125.488991 16.757349
vertex -259.050598 -123.993988 16.757349
vertex -258.895752 -125.488991 16.383524
endloop
endfacet
facet normal -0.923877 0.000000 -0.382689
outer loop
vertex -258.895752 -125.488991 16.383524
vertex -259.050598 -123.993988 16.757349
vertex -258.895752 -123.993988 16.383524
endloop
endfacet
facet normal -0.991451 0.000000 -0.130479
outer loop
vertex -258.895752 -125.488991 16.383524
vertex -258.895752 -123.993988 16.383524
vertex -258.842957 -125.488991 15.982355
endloop
endfacet
facet normal -0.991451 0.000000 -0.130479
outer loop
vertex -258.842957 -125.488991 15.982355
vertex -258.895752 -123.993988 16.383524
vertex -258.842957 -123.993988 15.982355
endloop
endfacet
facet normal -0.991451 0.000000 0.130479
outer loop
vertex -258.842957 -125.488991 15.982355
vertex -258.842957 -123.993988 15.982355
vertex -258.895752 -125.488991 15.581186
endloop
endfacet
facet normal -0.991451 0.000000 0.130479
outer loop
vertex -258.895752 -125.488991 15.581186
vertex -258.842957 -123.993988 15.982355
vertex -258.895752 -123.993988 15.581186
endloop
endfacet
facet normal -0.923880 0.000000 0.382682
outer loop
vertex -258.895752 -125.488991 15.581186
vertex -258.895752 -123.993988 15.581186
vertex -259.050598 -125.488991 15.207354
endloop
endfacet
facet normal -0.923881 0.000000 0.382680
outer loop
vertex -259.050598 -125.488991 15.207354
vertex -258.895752 -123.993988 15.581186
vertex -259.050598 -123.993988 15.207354
endloop
endfacet
facet normal -0.793332 0.000000 0.608789
outer loop
vertex -259.050598 -125.488991 15.207354
vertex -259.050598 -123.993988 15.207354
vertex -259.296936 -125.488991 14.886339
endloop
endfacet
facet normal -0.793341 0.000000 0.608778
outer loop
vertex -259.296936 -125.488991 14.886339
vertex -259.050598 -123.993988 15.207354
vertex -259.296936 -123.993988 14.886339
endloop
endfacet
facet normal -0.707104 0.000000 0.707109
outer loop
vertex -259.296936 -123.993988 14.886339
vertex -262.796936 -123.993988 11.386339
vertex -259.296936 -125.488991 14.886339
endloop
endfacet
facet normal -0.707109 0.000000 0.707105
outer loop
vertex -259.296936 -125.488991 14.886339
vertex -262.796936 -123.993988 11.386339
vertex -262.796936 -125.488991 11.386339
endloop
endfacet
facet normal 0.000000 1.000000 0.000000
outer loop
vertex -262.796936 -125.488991 11.386339
vertex -263.892944 -125.488991 14.674387
vertex -259.296936 -125.488991 14.886339
endloop
endfacet
facet normal 0.000000 1.000000 0.000006
outer loop
vertex -259.296936 -125.488991 14.886339
vertex -263.892944 -125.488991 14.674387
vertex -261.488953 -125.488991 17.078371
endloop
endfacet
facet normal 0.000000 1.000000 0.000000
outer loop
vertex -259.296936 -125.488991 14.886339
vertex -261.488953 -125.488991 17.078371
vertex -259.050598 -125.488991 15.207354
endloop
endfacet
facet normal 0.000000 1.000000 0.000051
outer loop
vertex -259.050598 -125.488991 15.207354
vertex -261.488953 -125.488991 17.078371
vertex -258.895752 -125.488991 15.581186
endloop
endfacet
facet normal 0.000000 1.000000 -0.000055
outer loop
vertex -258.895752 -125.488991 15.581186
vertex -261.488953 -125.488991 17.078371
vertex -258.842957 -125.488991 15.982355
endloop
endfacet
facet normal 0.000000 1.000000 0.000061
outer loop
vertex -258.842957 -125.488991 15.982355
vertex -261.488953 -125.488991 17.078371
vertex -258.895752 -125.488991 16.383524
endloop
endfacet
facet normal 0.000000 1.000000 -0.000071
outer loop
vertex -258.895752 -125.488991 16.383524
vertex -261.488953 -125.488991 17.078371
vertex -259.050598 -125.488991 16.757349
endloop
endfacet
facet normal 0.000000 1.000000 0.000000
outer loop
vertex -259.050598 -125.488991 16.757349
vertex -261.488953 -125.488991 17.078371
vertex -259.296936 -125.488991 17.078371
endloop
endfacet
facet normal 0.000000 1.000000 0.000057
outer loop
vertex -259.296936 -125.488991 17.078371
vertex -261.488953 -125.488991 17.078371
vertex -259.617950 -125.488991 17.324694
endloop
endfacet
facet normal 0.000000 1.000000 0.000040
outer loop
vertex -259.617950 -125.488991 17.324694
vertex -261.488953 -125.488991 17.078371
vertex -261.167938 -125.488991 17.324694
endloop
endfacet
facet normal 0.000000 1.000000 -0.000127
outer loop
vertex -259.617950 -125.488991 17.324694
vertex -261.167938 -125.488991 17.324694
vertex -259.991791 -125.488991 17.479540
endloop
endfacet
facet normal 0.000000 1.000000 0.000061
outer loop
vertex -259.991791 -125.488991 17.479540
vertex -261.167938 -125.488991 17.324694
vertex -260.794128 -125.488991 17.479540
endloop
endfacet
facet normal 0.000000 1.000000 0.000000
outer loop
vertex -259.991791 -125.488991 17.479540
vertex -260.794128 -125.488991 17.479540
vertex -260.392944 -125.488991 17.532351
endloop
endfacet
facet normal 0.000000 1.000000 -0.000080
outer loop
vertex -263.117950 -125.488991 11.140017
vertex -264.667938 -125.488991 11.140017
vertex -262.796936 -125.488991 11.386339
endloop
endfacet
facet normal 0.000000 1.000000 -0.000028
outer loop
vertex -262.796936 -125.488991 11.386339
vertex -264.667938 -125.488991 11.140017
vertex -264.988953 -125.488991 11.386339
endloop
endfacet
facet normal 0.000000 1.000000 0.000000
outer loop
vertex -262.796936 -125.488991 11.386339
vertex -264.988953 -125.488991 11.386339
vertex -263.892944 -125.488991 14.674387
endloop
endfacet
facet normal 0.000000 1.000000 -0.000004
outer loop
vertex -263.892944 -125.488991 14.674387
vertex -264.988953 -125.488991 11.386339
vertex -268.488953 -125.488991 14.886339
endloop
endfacet
facet normal 0.000000 1.000000 0.000006
outer loop
vertex -263.892944 -125.488991 14.674387
vertex -268.488953 -125.488991 14.886339
vertex -266.296936 -125.488991 17.078371
endloop
endfacet
facet normal 0.000000 1.000000 -0.000006
outer loop
vertex -266.296936 -125.488991 17.078371
vertex -268.488953 -125.488991 14.886339
vertex -268.735291 -125.488991 15.207354
endloop
endfacet
facet normal 0.000000 1.000000 0.000044
outer loop
vertex -266.296936 -125.488991 17.078371
vertex -268.735291 -125.488991 15.207354
vertex -268.890137 -125.488991 15.581186
endloop
endfacet
facet normal 0.000000 1.000000 0.000127
outer loop
vertex -264.667938 -125.488991 11.140017
vertex -263.117950 -125.488991 11.140017
vertex -264.294128 -125.488991 10.985170
endloop
endfacet
facet normal 0.000000 1.000000 -0.000061
outer loop
vertex -264.294128 -125.488991 10.985170
vertex -263.117950 -125.488991 11.140017
vertex -263.491791 -125.488991 10.985170
endloop
endfacet
facet normal 0.000000 1.000000 0.000000
outer loop
vertex -264.294128 -125.488991 10.985170
vertex -263.491791 -125.488991 10.985170
vertex -263.892944 -125.488991 10.932352
endloop
endfacet
facet normal 0.000000 1.000000 0.000000
outer loop
vertex -268.890137 -125.488991 15.581186
vertex -268.942963 -125.488991 15.982355
vertex -266.296936 -125.488991 17.078371
endloop
endfacet
facet normal 0.000000 1.000000 0.000027
outer loop
vertex -266.296936 -125.488991 17.078371
vertex -268.942963 -125.488991 15.982355
vertex -268.890137 -125.488991 16.383524
endloop
endfacet
facet normal 0.000000 1.000000 -0.000062
outer loop
vertex -266.296936 -125.488991 17.078371
vertex -268.890137 -125.488991 16.383524
vertex -268.735291 -125.488991 16.757349
endloop
endfacet
facet normal 0.000000 1.000000 0.000000
outer loop
vertex -268.735291 -125.488991 16.757349
vertex -268.488953 -125.488991 17.078371
vertex -266.296936 -125.488991 17.078371
endloop
endfacet
facet normal 0.000000 1.000000 0.000057
outer loop
vertex -266.296936 -125.488991 17.078371
vertex -268.488953 -125.488991 17.078371
vertex -266.617950 -125.488991 17.324694
endloop
endfacet
facet normal 0.000000 1.000000 0.000040
outer loop
vertex -266.617950 -125.488991 17.324694
vertex -268.488953 -125.488991 17.078371
vertex -268.167938 -125.488991 17.324694
endloop
endfacet
facet normal 0.000000 1.000000 -0.000127
outer loop
vertex -266.617950 -125.488991 17.324694
vertex -268.167938 -125.488991 17.324694
vertex -266.991791 -125.488991 17.479540
endloop
endfacet
facet normal 0.000000 1.000000 0.000061
outer loop
vertex -266.991791 -125.488991 17.479540
vertex -268.167938 -125.488991 17.324694
vertex -267.794128 -125.488991 17.479540
endloop
endfacet
facet normal 0.000000 1.000000 0.000000
outer loop
vertex -266.991791 -125.488991 17.479540
vertex -267.794128 -125.488991 17.479540
vertex -267.392944 -125.488991 17.532351
endloop
endfacet
facet normal 0.707102 0.000000 -0.707112
outer loop
vertex -261.488953 -127.983986 17.078371
vertex -263.892944 -127.983986 14.674387
vertex -261.488953 -126.488991 17.078371
endloop
endfacet
facet normal 0.707108 0.000000 -0.707106
outer loop
vertex -261.488953 -126.488991 17.078371
vertex -263.892944 -127.983986 14.674387
vertex -263.892944 -126.488991 14.674387
endloop
endfacet
facet normal -0.793335 0.000000 0.608785
outer loop
vertex -259.296936 -126.488991 14.886339
vertex -259.296936 -127.983986 14.886339
vertex -259.050598 -126.488991 15.207354
endloop
endfacet
facet normal -0.793333 0.000000 0.608788
outer loop
vertex -259.050598 -126.488991 15.207354
vertex -259.296936 -127.983986 14.886339
vertex -259.050598 -127.983986 15.207354
endloop
endfacet
facet normal -0.923880 0.000000 0.382682
outer loop
vertex -259.050598 -126.488991 15.207354
vertex -259.050598 -127.983986 15.207354
vertex -258.895752 -126.488991 15.581186
endloop
endfacet
facet normal -0.923879 0.000000 0.382685
outer loop
vertex -258.895752 -126.488991 15.581186
vertex -259.050598 -127.983986 15.207354
vertex -258.895752 -127.983986 15.581186
endloop
endfacet
facet normal -0.991451 0.000000 0.130479
outer loop
vertex -258.895752 -126.488991 15.581186
vertex -258.895752 -127.983986 15.581186
vertex -258.842957 -126.488991 15.982355
endloop
endfacet
facet normal -0.991451 0.000000 0.130479
outer loop
vertex -258.842957 -126.488991 15.982355
vertex -258.895752 -127.983986 15.581186
vertex -258.842957 -127.983986 15.982355
endloop
endfacet
facet normal -0.991451 0.000000 -0.130480
outer loop
vertex -258.842957 -126.488991 15.982355
vertex -258.842957 -127.983986 15.982355
vertex -258.895752 -126.488991 16.383524
endloop
endfacet
facet normal -0.991451 0.000000 -0.130479
outer loop
vertex -258.895752 -126.488991 16.383524
vertex -258.842957 -127.983986 15.982355
vertex -258.895752 -127.983986 16.383524
endloop
endfacet
facet normal -0.923877 0.000000 -0.382689
outer loop
vertex -258.895752 -126.488991 16.383524
vertex -258.895752 -127.983986 16.383524
vertex -259.050598 -126.488991 16.757349
endloop
endfacet
facet normal -0.923876 0.000000 -0.382691
outer loop
vertex -259.050598 -126.488991 16.757349
vertex -258.895752 -127.983986 16.383524
vertex -259.050598 -127.983986 16.757349
endloop
endfacet
facet normal -0.793342 0.000000 -0.608776
outer loop
vertex -259.050598 -126.488991 16.757349
vertex -259.050598 -127.983986 16.757349
vertex -259.296936 -126.488991 17.078371
endloop
endfacet
facet normal -0.793342 0.000000 -0.608776
outer loop
vertex -259.296936 -126.488991 17.078371
vertex -259.050598 -127.983986 16.757349
vertex -259.296936 -127.983986 17.078371
endloop
endfacet
facet normal -0.608764 0.000000 -0.793351
outer loop
vertex -259.296936 -126.488991 17.078371
vertex -259.296936 -127.983986 17.078371
vertex -259.617950 -126.488991 17.324694
endloop
endfacet
facet normal -0.608764 0.000000 -0.793351
outer loop
vertex -259.617950 -126.488991 17.324694
vertex -259.296936 -127.983986 17.078371
vertex -259.617950 -127.983986 17.324694
endloop
endfacet
facet normal -0.382670 0.000000 -0.923885
outer loop
vertex -259.617950 -126.488991 17.324694
vertex -259.617950 -127.983986 17.324694
vertex -259.991791 -126.488991 17.479540
endloop
endfacet
facet normal -0.382676 0.000000 -0.923883
outer loop
vertex -259.991791 -126.488991 17.479540
vertex -259.617950 -127.983986 17.324694
vertex -259.991791 -127.983986 17.479540
endloop
endfacet
facet normal -0.130522 0.000000 -0.991445
outer loop
vertex -259.991791 -126.488991 17.479540
vertex -259.991791 -127.983986 17.479540
vertex -260.392944 -126.488991 17.532351
endloop
endfacet
facet normal -0.130522 0.000000 -0.991445
outer loop
vertex -260.392944 -126.488991 17.532351
vertex -259.991791 -127.983986 17.479540
vertex -260.392944 -127.983986 17.532351
endloop
endfacet
facet normal 0.130513 0.000000 -0.991447
outer loop
vertex -260.392944 -126.488991 17.532351
vertex -260.392944 -127.983986 17.532351
vertex -260.794128 -126.488991 17.479540
endloop
endfacet
facet normal 0.130513 0.000000 -0.991447
outer loop
vertex -260.794128 -126.488991 17.479540
vertex -260.392944 -127.983986 17.532351
vertex -260.794128 -127.983986 17.479540
endloop
endfacet
facet normal 0.382703 0.000000 -0.923872
outer loop
vertex -260.794128 -126.488991 17.479540
vertex -260.794128 -127.983986 17.479540
vertex -261.167938 -126.488991 17.324694
endloop
endfacet
facet normal 0.382697 0.000000 -0.923874
outer loop
vertex -261.167938 -126.488991 17.324694
vertex -260.794128 -127.983986 17.479540
vertex -261.167938 -127.983986 17.324694
endloop
endfacet
facet normal 0.608764 0.000000 -0.793351
outer loop
vertex -261.167938 -126.488991 17.324694
vertex -261.167938 -127.983986 17.324694
vertex -261.488953 -126.488991 17.078371
endloop
endfacet
facet normal 0.608764 0.000000 -0.793351
outer loop
vertex -261.488953 -126.488991 17.078371
vertex -261.167938 -127.983986 17.324694
vertex -261.488953 -127.983986 17.078371
endloop
endfacet
facet normal -0.707107 0.000000 0.707107
outer loop
vertex -262.796936 -127.983986 11.386339
vertex -259.296936 -127.983986 14.886339
vertex -262.796936 -126.488991 11.386339
endloop
endfacet
facet normal -0.707107 0.000000 0.707107
outer loop
vertex -262.796936 -126.488991 11.386339
vertex -259.296936 -127.983986 14.886339
vertex -259.296936 -126.488991 14.886339
endloop
endfacet
facet normal 0.608764 0.000000 0.793351
outer loop
vertex -264.988953 -126.488991 11.386339
vertex -264.988953 -127.983986 11.386339
vertex -264.667938 -126.488991 11.140017
endloop
endfacet
facet normal 0.608764 0.000000 0.793351
outer loop
vertex -264.667938 -126.488991 11.140017
vertex -264.988953 -127.983986 11.386339
vertex -264.667938 -127.983986 11.140017
endloop
endfacet
facet normal 0.382703 0.000000 0.923872
outer loop
vertex -264.667938 -126.488991 11.140017
vertex -264.667938 -127.983986 11.140017
vertex -264.294128 -126.488991 10.985170
endloop
endfacet
facet normal 0.382703 0.000000 0.923872
outer loop
vertex -264.294128 -126.488991 10.985170
vertex -264.667938 -127.983986 11.140017
vertex -264.294128 -127.983986 10.985170
endloop
endfacet
facet normal 0.130525 0.000000 0.991445
outer loop
vertex -264.294128 -126.488991 10.985170
vertex -264.294128 -127.983986 10.985170
vertex -263.892944 -126.488991 10.932352
endloop
endfacet
facet normal 0.130531 0.000000 0.991444
outer loop
vertex -263.892944 -126.488991 10.932352
vertex -264.294128 -127.983986 10.985170
vertex -263.892944 -127.983986 10.932352
endloop
endfacet
facet normal -0.130541 0.000000 0.991443
outer loop
vertex -263.892944 -126.488991 10.932352
vertex -263.892944 -127.983986 10.932352
vertex -263.491791 -126.488991 10.985170
endloop
endfacet
facet normal -0.130535 0.000000 0.991444
outer loop
vertex -263.491791 -126.488991 10.985170
vertex -263.892944 -127.983986 10.932352
vertex -263.491791 -127.983986 10.985170
endloop
endfacet
facet normal -0.382676 0.000000 0.923883
outer loop
vertex -263.491791 -126.488991 10.985170
vertex -263.491791 -127.983986 10.985170
vertex -263.117950 -126.488991 11.140017
endloop
endfacet
facet normal -0.382676 0.000000 0.923883
outer loop
vertex -263.117950 -126.488991 11.140017
vertex -263.491791 -127.983986 10.985170
vertex -263.117950 -127.983986 11.140017
endloop
endfacet
facet normal -0.608764 0.000000 0.793351
outer loop
vertex -263.117950 -126.488991 11.140017
vertex -263.117950 -127.983986 11.140017
vertex -262.796936 -126.488991 11.386339
endloop
endfacet
facet normal -0.608764 0.000000 0.793351
outer loop
vertex -262.796936 -126.488991 11.386339
vertex -263.117950 -127.983986 11.140017
vertex -262.796936 -127.983986 11.386339
endloop
endfacet
facet normal 0.707107 0.000000 0.707107
outer loop
vertex -268.488953 -127.983986 14.886339
vertex -264.988953 -127.983986 11.386339
vertex -268.488953 -126.488991 14.886339
endloop
endfacet
facet normal 0.707107 0.000000 0.707107
outer loop
vertex -268.488953 -126.488991 14.886339
vertex -264.988953 -127.983986 11.386339
vertex -264.988953 -126.488991 11.386339
endloop
endfacet
facet normal -0.608764 0.000000 -0.793351
outer loop
vertex -266.296936 -126.488991 17.078371
vertex -266.296936 -127.983986 17.078371
vertex -266.617950 -126.488991 17.324694
endloop
endfacet
facet normal -0.608764 0.000000 -0.793351
outer loop
vertex -266.617950 -126.488991 17.324694
vertex -266.296936 -127.983986 17.078371
vertex -266.617950 -127.983986 17.324694
endloop
endfacet
facet normal -0.382670 0.000000 -0.923885
outer loop
vertex -266.617950 -126.488991 17.324694
vertex -266.617950 -127.983986 17.324694
vertex -266.991791 -126.488991 17.479540
endloop
endfacet
facet normal -0.382676 0.000000 -0.923883
outer loop
vertex -266.991791 -126.488991 17.479540
vertex -266.617950 -127.983986 17.324694
vertex -266.991791 -127.983986 17.479540
endloop
endfacet
facet normal -0.130522 0.000000 -0.991445
outer loop
vertex -266.991791 -126.488991 17.479540
vertex -266.991791 -127.983986 17.479540
vertex -267.392944 -126.488991 17.532351
endloop
endfacet
facet normal -0.130522 0.000000 -0.991445
outer loop
vertex -267.392944 -126.488991 17.532351
vertex -266.991791 -127.983986 17.479540
vertex -267.392944 -127.983986 17.532351
endloop
endfacet
facet normal 0.130513 0.000000 -0.991447
outer loop
vertex -267.392944 -126.488991 17.532351
vertex -267.392944 -127.983986 17.532351
vertex -267.794128 -126.488991 17.479540
endloop
endfacet
facet normal 0.130513 0.000000 -0.991447
outer loop
vertex -267.794128 -126.488991 17.479540
vertex -267.392944 -127.983986 17.532351
vertex -267.794128 -127.983986 17.479540
endloop
endfacet
facet normal 0.382703 0.000000 -0.923872
outer loop
vertex -267.794128 -126.488991 17.479540
vertex -267.794128 -127.983986 17.479540
vertex -268.167938 -126.488991 17.324694
endloop
endfacet
facet normal 0.382697 0.000000 -0.923874
outer loop
vertex -268.167938 -126.488991 17.324694
vertex -267.794128 -127.983986 17.479540
vertex -268.167938 -127.983986 17.324694
endloop
endfacet
facet normal 0.608764 0.000000 -0.793351
outer loop
vertex -268.167938 -126.488991 17.324694
vertex -268.167938 -127.983986 17.324694
vertex -268.488953 -126.488991 17.078371
endloop
endfacet
facet normal 0.608764 0.000000 -0.793351
outer loop
vertex -268.488953 -126.488991 17.078371
vertex -268.167938 -127.983986 17.324694
vertex -268.488953 -127.983986 17.078371
endloop
endfacet
facet normal 0.793342 0.000000 -0.608776
outer loop
vertex -268.488953 -126.488991 17.078371
vertex -268.488953 -127.983986 17.078371
vertex -268.735291 -126.488991 16.757349
endloop
endfacet
facet normal 0.793342 0.000000 -0.608776
outer loop
vertex -268.735291 -126.488991 16.757349
vertex -268.488953 -127.983986 17.078371
vertex -268.735291 -127.983986 16.757349
endloop
endfacet
facet normal 0.923876 0.000000 -0.382691
outer loop
vertex -268.735291 -126.488991 16.757349
vertex -268.735291 -127.983986 16.757349
vertex -268.890137 -126.488991 16.383524
endloop
endfacet
facet normal 0.923877 0.000000 -0.382689
outer loop
vertex -268.890137 -126.488991 16.383524
vertex -268.735291 -127.983986 16.757349
vertex -268.890137 -127.983986 16.383524
endloop
endfacet
facet normal 0.991441 0.000000 -0.130553
outer loop
vertex -268.890137 -126.488991 16.383524
vertex -268.890137 -127.983986 16.383524
vertex -268.942963 -126.488991 15.982355
endloop
endfacet
facet normal 0.991441 0.000000 -0.130554
outer loop
vertex -268.942963 -126.488991 15.982355
vertex -268.890137 -127.983986 16.383524
vertex -268.942963 -127.983986 15.982355
endloop
endfacet
facet normal 0.991441 0.000000 0.130553
outer loop
vertex -268.942963 -126.488991 15.982355
vertex -268.942963 -127.983986 15.982355
vertex -268.890137 -126.488991 15.581186
endloop
endfacet
facet normal 0.991441 0.000000 0.130553
outer loop
vertex -268.890137 -126.488991 15.581186
vertex -268.942963 -127.983986 15.982355
vertex -268.890137 -127.983986 15.581186
endloop
endfacet
facet normal 0.923879 0.000000 0.382685
outer loop
vertex -268.890137 -126.488991 15.581186
vertex -268.890137 -127.983986 15.581186
vertex -268.735291 -126.488991 15.207354
endloop
endfacet
facet normal 0.923880 0.000000 0.382682
outer loop
vertex -268.735291 -126.488991 15.207354
vertex -268.890137 -127.983986 15.581186
vertex -268.735291 -127.983986 15.207354
endloop
endfacet
facet normal 0.793333 0.000000 0.608788
outer loop
vertex -268.735291 -126.488991 15.207354
vertex -268.735291 -127.983986 15.207354
vertex -268.488953 -126.488991 14.886339
endloop
endfacet
facet normal 0.793335 0.000000 0.608785
outer loop
vertex -268.488953 -126.488991 14.886339
vertex -268.735291 -127.983986 15.207354
vertex -268.488953 -127.983986 14.886339
endloop
endfacet
facet normal -0.707102 0.000000 -0.707112
outer loop
vertex -263.892944 -127.983986 14.674387
vertex -266.296936 -127.983986 17.078371
vertex -263.892944 -126.488991 14.674387
endloop
endfacet
facet normal -0.707108 0.000000 -0.707106
outer loop
vertex -263.892944 -126.488991 14.674387
vertex -266.296936 -127.983986 17.078371
vertex -266.296936 -126.488991 17.078371
endloop
endfacet
facet normal 0.000000 -1.000000 0.000002
outer loop
vertex -259.296936 -126.488991 14.886339
vertex -263.892944 -126.488991 14.674387
vertex -262.796936 -126.488991 11.386339
endloop
endfacet
facet normal 0.000000 -1.000000 0.000000
outer loop
vertex -262.796936 -126.488991 11.386339
vertex -263.892944 -126.488991 14.674387
vertex -264.988953 -126.488991 11.386339
endloop
endfacet
facet normal 0.000000 -1.000000 0.000057
outer loop
vertex -262.796936 -126.488991 11.386339
vertex -264.988953 -126.488991 11.386339
vertex -263.117950 -126.488991 11.140017
endloop
endfacet
facet normal 0.000000 -1.000000 0.000040
outer loop
vertex -263.117950 -126.488991 11.140017
vertex -264.988953 -126.488991 11.386339
vertex -264.667938 -126.488991 11.140017
endloop
endfacet
facet normal 0.000000 -1.000000 -0.000127
outer loop
vertex -263.117950 -126.488991 11.140017
vertex -264.667938 -126.488991 11.140017
vertex -263.491791 -126.488991 10.985170
endloop
endfacet
facet normal 0.000000 -1.000000 0.000061
outer loop
vertex -263.491791 -126.488991 10.985170
vertex -264.667938 -126.488991 11.140017
vertex -264.294128 -126.488991 10.985170
endloop
endfacet
facet normal 0.000000 -1.000000 0.000000
outer loop
vertex -263.491791 -126.488991 10.985170
vertex -264.294128 -126.488991 10.985170
vertex -263.892944 -126.488991 10.932352
endloop
endfacet
facet normal 0.000000 -1.000000 -0.000006
outer loop
vertex -263.892944 -126.488991 14.674387
vertex -259.296936 -126.488991 14.886339
vertex -261.488953 -126.488991 17.078371
endloop
endfacet
facet normal 0.000000 -1.000000 0.000006
outer loop
vertex -261.488953 -126.488991 17.078371
vertex -259.296936 -126.488991 14.886339
vertex -259.050598 -126.488991 15.207354
endloop
endfacet
facet normal 0.000000 -1.000000 -0.000044
outer loop
vertex -261.488953 -126.488991 17.078371
vertex -259.050598 -126.488991 15.207354
vertex -258.895752 -126.488991 15.581186
endloop
endfacet
facet normal 0.000000 -1.000000 0.000055
outer loop
vertex -258.895752 -126.488991 15.581186
vertex -258.842957 -126.488991 15.982355
vertex -261.488953 -126.488991 17.078371
endloop
endfacet
facet normal 0.000000 -1.000000 -0.000058
outer loop
vertex -261.488953 -126.488991 17.078371
vertex -258.842957 -126.488991 15.982355
vertex -258.895752 -126.488991 16.383524
endloop
endfacet
facet normal 0.000000 -1.000000 0.000062
outer loop
vertex -261.488953 -126.488991 17.078371
vertex -258.895752 -126.488991 16.383524
vertex -259.050598 -126.488991 16.757349
endloop
endfacet
facet normal 0.000000 -1.000000 0.000000
outer loop
vertex -259.050598 -126.488991 16.757349
vertex -259.296936 -126.488991 17.078371
vertex -261.488953 -126.488991 17.078371
endloop
endfacet
facet normal 0.000000 -1.000000 -0.000057
outer loop
vertex -261.488953 -126.488991 17.078371
vertex -259.296936 -126.488991 17.078371
vertex -261.167938 -126.488991 17.324694
endloop
endfacet
facet normal 0.000000 -1.000000 -0.000040
outer loop
vertex -261.167938 -126.488991 17.324694
vertex -259.296936 -126.488991 17.078371
vertex -259.617950 -126.488991 17.324694
endloop
endfacet
facet normal 0.000000 -1.000000 0.000127
outer loop
vertex -261.167938 -126.488991 17.324694
vertex -259.617950 -126.488991 17.324694
vertex -260.794128 -126.488991 17.479540
endloop
endfacet
facet normal 0.000000 -1.000000 -0.000061
outer loop
vertex -260.794128 -126.488991 17.479540
vertex -259.617950 -126.488991 17.324694
vertex -259.991791 -126.488991 17.479540
endloop
endfacet
facet normal 0.000000 -1.000000 0.000000
outer loop
vertex -260.794128 -126.488991 17.479540
vertex -259.991791 -126.488991 17.479540
vertex -260.392944 -126.488991 17.532351
endloop
endfacet
facet normal 0.000000 -1.000000 0.000000
outer loop
vertex -264.988953 -126.488991 11.386339
vertex -263.892944 -126.488991 14.674387
vertex -268.488953 -126.488991 14.886339
endloop
endfacet
facet normal 0.000000 -1.000000 -0.000006
outer loop
vertex -268.488953 -126.488991 14.886339
vertex -263.892944 -126.488991 14.674387
vertex -266.296936 -126.488991 17.078371
endloop
endfacet
facet normal 0.000000 -1.000000 0.000000
outer loop
vertex -268.488953 -126.488991 14.886339
vertex -266.296936 -126.488991 17.078371
vertex -268.735291 -126.488991 15.207354
endloop
endfacet
facet normal 0.000000 -1.000000 -0.000051
outer loop
vertex -268.735291 -126.488991 15.207354
vertex -266.296936 -126.488991 17.078371
vertex -268.890137 -126.488991 15.581186
endloop
endfacet
facet normal 0.000000 -1.000000 0.000000
outer loop
vertex -268.890137 -126.488991 15.581186
vertex -266.296936 -126.488991 17.078371
vertex -268.942963 -126.488991 15.982355
endloop
endfacet
facet normal 0.000000 -1.000000 0.000000
outer loop
vertex -268.942963 -126.488991 15.982355
vertex -266.296936 -126.488991 17.078371
vertex -268.890137 -126.488991 16.383524
endloop
endfacet
facet normal 0.000000 -1.000000 0.000071
outer loop
vertex -268.890137 -126.488991 16.383524
vertex -266.296936 -126.488991 17.078371
vertex -268.735291 -126.488991 16.757349
endloop
endfacet
facet normal 0.000000 -1.000000 0.000000
outer loop
vertex -268.735291 -126.488991 16.757349
vertex -266.296936 -126.488991 17.078371
vertex -268.488953 -126.488991 17.078371
endloop
endfacet
facet normal 0.000000 -1.000000 -0.000057
outer loop
vertex -268.488953 -126.488991 17.078371
vertex -266.296936 -126.488991 17.078371
vertex -268.167938 -126.488991 17.324694
endloop
endfacet
facet normal 0.000000 -1.000000 -0.000040
outer loop
vertex -268.167938 -126.488991 17.324694
vertex -266.296936 -126.488991 17.078371
vertex -266.617950 -126.488991 17.324694
endloop
endfacet
facet normal 0.000000 -1.000000 0.000127
outer loop
vertex -268.167938 -126.488991 17.324694
vertex -266.617950 -126.488991 17.324694
vertex -267.794128 -126.488991 17.479540
endloop
endfacet
facet normal 0.000000 -1.000000 -0.000061
outer loop
vertex -267.794128 -126.488991 17.479540
vertex -266.617950 -126.488991 17.324694
vertex -266.991791 -126.488991 17.479540
endloop
endfacet
facet normal 0.000000 -1.000000 0.000000
outer loop
vertex -267.794128 -126.488991 17.479540
vertex -266.991791 -126.488991 17.479540
vertex -267.392944 -126.488991 17.532351
endloop
endfacet
facet normal -0.707107 0.000000 -0.707106
outer loop
vertex -270.892944 -123.993988 8.982355
vertex -267.392944 -123.993988 5.482355
vertex -270.892944 -127.983986 8.982355
endloop
endfacet
facet normal -0.707106 0.000000 -0.707108
outer loop
vertex -270.892944 -127.983986 8.982355
vertex -267.392944 -123.993988 5.482355
vertex -267.392944 -127.983986 5.482355
endloop
endfacet
facet normal -1.000000 0.000000 0.000000
outer loop
vertex -270.892944 -123.993988 15.982355
vertex -270.892944 -123.993988 8.982355
vertex -270.892944 -127.983986 15.982355
endloop
endfacet
facet normal -1.000000 0.000000 0.000000
outer loop
vertex -270.892944 -127.983986 15.982355
vertex -270.892944 -123.993988 8.982355
vertex -270.892944 -127.983986 8.982355
endloop
endfacet
facet normal -0.707108 0.000000 0.707106
outer loop
vertex -267.392944 -123.993988 19.482355
vertex -270.892944 -123.993988 15.982355
vertex -267.392944 -127.983986 19.482355
endloop
endfacet
facet normal -0.707106 0.000000 0.707108
outer loop
vertex -267.392944 -127.983986 19.482355
vertex -270.892944 -123.993988 15.982355
vertex -270.892944 -127.983986 15.982355
endloop
endfacet
facet normal 0.000000 0.000000 1.000000
outer loop
vertex -260.392944 -123.993988 19.482355
vertex -267.392944 -123.993988 19.482355
vertex -260.392944 -127.983986 19.482355
endloop
endfacet
facet normal 0.000000 0.000000 1.000000
outer loop
vertex -260.392944 -127.983986 19.482355
vertex -267.392944 -123.993988 19.482355
vertex -267.392944 -127.983986 19.482355
endloop
endfacet
facet normal 0.707108 0.000000 0.707106
outer loop
vertex -256.892944 -123.993988 15.982355
vertex -260.392944 -123.993988 19.482355
vertex -256.892944 -127.983986 15.982355
endloop
endfacet
facet normal 0.707106 0.000000 0.707108
outer loop
vertex -256.892944 -127.983986 15.982355
vertex -260.392944 -123.993988 19.482355
vertex -260.392944 -127.983986 19.482355
endloop
endfacet
facet normal 1.000000 0.000000 0.000000
outer loop
vertex -256.892944 -123.993988 8.982355
vertex -256.892944 -123.993988 15.982355
vertex -256.892944 -127.983986 8.982355
endloop
endfacet
facet normal 1.000000 0.000000 0.000000
outer loop
vertex -256.892944 -127.983986 8.982355
vertex -256.892944 -123.993988 15.982355
vertex -256.892944 -127.983986 15.982355
endloop
endfacet
facet normal 0.707107 0.000000 -0.707106
outer loop
vertex -260.392944 -123.993988 5.482355
vertex -256.892944 -123.993988 8.982355
vertex -260.392944 -127.983986 5.482355
endloop
endfacet
facet normal 0.707106 0.000000 -0.707108
outer loop
vertex -260.392944 -127.983986 5.482355
vertex -256.892944 -123.993988 8.982355
vertex -256.892944 -127.983986 8.982355
endloop
endfacet
facet normal 0.000000 0.000000 -1.000000
outer loop
vertex -267.392944 -123.993988 5.482355
vertex -260.392944 -123.993988 5.482355
vertex -267.392944 -127.983986 5.482355
endloop
endfacet
facet normal 0.000000 0.000000 -1.000000
outer loop
vertex -267.392944 -127.983986 5.482355
vertex -260.392944 -123.993988 5.482355
vertex -260.392944 -127.983986 5.482355
endloop
endfacet
facet normal 0.000000 -1.000000 -0.000025
outer loop
vertex -263.117950 -127.983986 11.140017
vertex -260.392944 -127.983986 5.482355
vertex -262.796936 -127.983986 11.386339
endloop
endfacet
facet normal 0.000000 -1.000000 0.000000
outer loop
vertex -262.796936 -127.983986 11.386339
vertex -260.392944 -127.983986 5.482355
vertex -256.892944 -127.983986 8.982355
endloop
endfacet
facet normal 0.000000 -1.000000 0.000000
outer loop
vertex -262.796936 -127.983986 11.386339
vertex -256.892944 -127.983986 8.982355
vertex -259.296936 -127.983986 14.886339
endloop
endfacet
facet normal 0.000000 -1.000000 0.000000
outer loop
vertex -259.296936 -127.983986 14.886339
vertex -256.892944 -127.983986 8.982355
vertex -256.892944 -127.983986 15.982355
endloop
endfacet
facet normal 0.000000 -1.000000 0.000000
outer loop
vertex -259.296936 -127.983986 14.886339
vertex -256.892944 -127.983986 15.982355
vertex -259.050598 -127.983986 15.207354
endloop
endfacet
facet normal 0.000000 -1.000000 0.000000
outer loop
vertex -259.050598 -127.983986 15.207354
vertex -256.892944 -127.983986 15.982355
vertex -258.895752 -127.983986 15.581186
endloop
endfacet
facet normal 0.000000 -1.000000 0.000000
outer loop
vertex -258.895752 -127.983986 15.581186
vertex -256.892944 -127.983986 15.982355
vertex -258.842957 -127.983986 15.982355
endloop
endfacet
facet normal 0.000000 -1.000000 0.000000
outer loop
vertex -258.842957 -127.983986 15.982355
vertex -256.892944 -127.983986 15.982355
vertex -258.895752 -127.983986 16.383524
endloop
endfacet
facet normal 0.000000 -1.000000 0.000000
outer loop
vertex -258.895752 -127.983986 16.383524
vertex -256.892944 -127.983986 15.982355
vertex -259.050598 -127.983986 16.757349
endloop
endfacet
facet normal 0.000000 -1.000000 0.000000
outer loop
vertex -259.050598 -127.983986 16.757349
vertex -256.892944 -127.983986 15.982355
vertex -259.296936 -127.983986 17.078371
endloop
endfacet
facet normal 0.000000 -1.000000 0.000013
outer loop
vertex -259.296936 -127.983986 17.078371
vertex -256.892944 -127.983986 15.982355
vertex -260.392944 -127.983986 19.482355
endloop
endfacet
facet normal 0.000000 -1.000000 -0.000030
outer loop
vertex -259.296936 -127.983986 17.078371
vertex -260.392944 -127.983986 19.482355
vertex -259.617950 -127.983986 17.324694
endloop
endfacet
facet normal 0.000000 -1.000000 0.000011
outer loop
vertex -259.617950 -127.983986 17.324694
vertex -260.392944 -127.983986 19.482355
vertex -259.991791 -127.983986 17.479540
endloop
endfacet
facet normal 0.000000 -1.000000 0.000000
outer loop
vertex -259.991791 -127.983986 17.479540
vertex -260.392944 -127.983986 19.482355
vertex -260.392944 -127.983986 17.532351
endloop
endfacet
facet normal 0.000000 -1.000000 0.000000
outer loop
vertex -260.392944 -127.983986 17.532351
vertex -260.392944 -127.983986 19.482355
vertex -260.794128 -127.983986 17.479540
endloop
endfacet
facet normal 0.000000 -1.000000 0.000022
outer loop
vertex -260.794128 -127.983986 17.479540
vertex -260.392944 -127.983986 19.482355
vertex -261.167938 -127.983986 17.324694
endloop
endfacet
facet normal 0.000000 -1.000000 0.000000
outer loop
vertex -261.167938 -127.983986 17.324694
vertex -260.392944 -127.983986 19.482355
vertex -261.488953 -127.983986 17.078371
endloop
endfacet
facet normal 0.000000 -1.000000 0.000007
outer loop
vertex -261.488953 -127.983986 17.078371
vertex -260.392944 -127.983986 19.482355
vertex -267.392944 -127.983986 19.482355
endloop
endfacet
facet normal 0.000000 -1.000000 0.000005
outer loop
vertex -261.488953 -127.983986 17.078371
vertex -267.392944 -127.983986 19.482355
vertex -266.296936 -127.983986 17.078371
endloop
endfacet
facet normal 0.000000 -1.000000 -0.000030
outer loop
vertex -266.296936 -127.983986 17.078371
vertex -267.392944 -127.983986 19.482355
vertex -266.617950 -127.983986 17.324694
endloop
endfacet
facet normal 0.000000 -1.000000 0.000011
outer loop
vertex -266.617950 -127.983986 17.324694
vertex -267.392944 -127.983986 19.482355
vertex -266.991791 -127.983986 17.479540
endloop
endfacet
facet normal 0.000000 -1.000000 0.000000
outer loop
vertex -266.991791 -127.983986 17.479540
vertex -267.392944 -127.983986 19.482355
vertex -267.392944 -127.983986 17.532351
endloop
endfacet
facet normal 0.000000 -1.000000 0.000000
outer loop
vertex -267.392944 -127.983986 17.532351
vertex -267.392944 -127.983986 19.482355
vertex -267.794128 -127.983986 17.479540
endloop
endfacet
facet normal 0.000000 -1.000000 0.000022
outer loop
vertex -267.794128 -127.983986 17.479540
vertex -267.392944 -127.983986 19.482355
vertex -268.167938 -127.983986 17.324694
endloop
endfacet
facet normal 0.000000 -1.000000 0.000000
outer loop
vertex -268.167938 -127.983986 17.324694
vertex -267.392944 -127.983986 19.482355
vertex -268.488953 -127.983986 17.078371
endloop
endfacet
facet normal 0.000000 -1.000000 0.000013
outer loop
vertex -268.488953 -127.983986 17.078371
vertex -267.392944 -127.983986 19.482355
vertex -270.892944 -127.983986 15.982355
endloop
endfacet
facet normal 0.000000 -1.000000 0.000000
outer loop
vertex -268.488953 -127.983986 17.078371
vertex -270.892944 -127.983986 15.982355
vertex -268.735291 -127.983986 16.757349
endloop
endfacet
facet normal 0.000000 -1.000000 0.000000
outer loop
vertex -268.735291 -127.983986 16.757349
vertex -270.892944 -127.983986 15.982355
vertex -268.890137 -127.983986 16.383524
endloop
endfacet
facet normal 0.000000 -1.000000 0.000000
outer loop
vertex -268.890137 -127.983986 16.383524
vertex -270.892944 -127.983986 15.982355
vertex -268.942963 -127.983986 15.982355
endloop
endfacet
facet normal 0.000000 -1.000000 0.000000
outer loop
vertex -268.942963 -127.983986 15.982355
vertex -270.892944 -127.983986 15.982355
vertex -268.890137 -127.983986 15.581186
endloop
endfacet
facet normal 0.000000 -1.000000 0.000000
outer loop
vertex -268.890137 -127.983986 15.581186
vertex -270.892944 -127.983986 15.982355
vertex -268.735291 -127.983986 15.207354
endloop
endfacet
facet normal 0.000000 -1.000000 0.000000
outer loop
vertex -268.735291 -127.983986 15.207354
vertex -270.892944 -127.983986 15.982355
vertex -268.488953 -127.983986 14.886339
endloop
endfacet
facet normal 0.000000 -1.000000 0.000000
outer loop
vertex -268.488953 -127.983986 14.886339
vertex -270.892944 -127.983986 15.982355
vertex -270.892944 -127.983986 8.982355
endloop
endfacet
facet normal 0.000000 -1.000000 0.000000
outer loop
vertex -268.488953 -127.983986 14.886339
vertex -270.892944 -127.983986 8.982355
vertex -264.988953 -127.983986 11.386339
endloop
endfacet
facet normal 0.000000 -1.000000 0.000000
outer loop
vertex -264.988953 -127.983986 11.386339
vertex -270.892944 -127.983986 8.982355
vertex -267.392944 -127.983986 5.482355
endloop
endfacet
facet normal 0.000000 -1.000000 0.000000
outer loop
vertex -264.988953 -127.983986 11.386339
vertex -267.392944 -127.983986 5.482355
vertex -264.667938 -127.983986 11.140017
endloop
endfacet
facet normal 0.000000 -1.000000 0.000000
outer loop
vertex -264.667938 -127.983986 11.140017
vertex -267.392944 -127.983986 5.482355
vertex -264.294128 -127.983986 10.985170
endloop
endfacet
facet normal 0.000000 -1.000000 -0.000026
outer loop
vertex -264.294128 -127.983986 10.985170
vertex -267.392944 -127.983986 5.482355
vertex -263.892944 -127.983986 10.932352
endloop
endfacet
facet normal 0.000000 -1.000000 0.000000
outer loop
vertex -263.892944 -127.983986 10.932352
vertex -267.392944 -127.983986 5.482355
vertex -260.392944 -127.983986 5.482355
endloop
endfacet
facet normal 0.000000 -1.000000 0.000000
outer loop
vertex -263.892944 -127.983986 10.932352
vertex -260.392944 -127.983986 5.482355
vertex -263.491791 -127.983986 10.985170
endloop
endfacet
facet normal 0.000000 -1.000000 0.000000
outer loop
vertex -263.491791 -127.983986 10.985170
vertex -260.392944 -127.983986 5.482355
vertex -263.117950 -127.983986 11.140017
endloop
endfacet
facet normal 0.000000 -1.000000 0.000000
outer loop
vertex -266.296936 -127.983986 17.078371
vertex -263.892944 -127.983986 14.674387
vertex -261.488953 -127.983986 17.078371
endloop
endfacet
facet normal 0.000000 1.000000 0.000000
outer loop
vertex -264.667938 -123.993988 11.140017
vertex -267.392944 -123.993988 5.482355
vertex -264.988953 -123.993988 11.386339
endloop
endfacet
facet normal 0.000000 1.000000 0.000000
outer loop
vertex -264.988953 -123.993988 11.386339
vertex -267.392944 -123.993988 5.482355
vertex -270.892944 -123.993988 8.982355
endloop
endfacet
facet normal 0.000000 1.000000 0.000000
outer loop
vertex -264.988953 -123.993988 11.386339
vertex -270.892944 -123.993988 8.982355
vertex -268.488953 -123.993988 14.886339
endloop
endfacet
facet normal 0.000000 1.000000 0.000000
outer loop
vertex -268.488953 -123.993988 14.886339
vertex -270.892944 -123.993988 8.982355
vertex -270.892944 -123.993988 15.982355
endloop
endfacet
facet normal 0.000000 1.000000 0.000122
outer loop
vertex -268.488953 -123.993988 14.886339
vertex -270.892944 -123.993988 15.982355
vertex -268.735291 -123.993988 15.207354
endloop
endfacet
facet normal 0.000000 1.000000 0.000000
outer loop
vertex -268.735291 -123.993988 15.207354
vertex -270.892944 -123.993988 15.982355
vertex -268.890137 -123.993988 15.581186
endloop
endfacet
facet normal 0.000000 1.000000 0.000000
outer loop
vertex -268.890137 -123.993988 15.581186
vertex -270.892944 -123.993988 15.982355
vertex -268.942963 -123.993988 15.982355
endloop
endfacet
facet normal 0.000000 1.000000 0.000000
outer loop
vertex -268.942963 -123.993988 15.982355
vertex -270.892944 -123.993988 15.982355
vertex -268.890137 -123.993988 16.383524
endloop
endfacet
facet normal 0.000000 1.000000 0.000000
outer loop
vertex -268.890137 -123.993988 16.383524
vertex -270.892944 -123.993988 15.982355
vertex -268.735291 -123.993988 16.757349
endloop
endfacet
facet normal 0.000000 1.000000 0.000000
outer loop
vertex -268.735291 -123.993988 16.757349
vertex -270.892944 -123.993988 15.982355
vertex -268.488953 -123.993988 17.078371
endloop
endfacet
facet normal 0.000000 1.000000 0.000000
outer loop
vertex -268.488953 -123.993988 17.078371
vertex -270.892944 -123.993988 15.982355
vertex -267.392944 -123.993988 19.482355
endloop
endfacet
facet normal 0.000000 1.000000 0.000000
outer loop
vertex -268.488953 -123.993988 17.078371
vertex -267.392944 -123.993988 19.482355
vertex -268.167938 -123.993988 17.324694
endloop
endfacet
facet normal 0.000000 1.000000 -0.000011
outer loop
vertex -268.167938 -123.993988 17.324694
vertex -267.392944 -123.993988 19.482355
vertex -267.794128 -123.993988 17.479540
endloop
endfacet
facet normal 0.000000 1.000000 0.000000
outer loop
vertex -267.794128 -123.993988 17.479540
vertex -267.392944 -123.993988 19.482355
vertex -267.392944 -123.993988 17.532351
endloop
endfacet
facet normal 0.000000 1.000000 0.000000
outer loop
vertex -267.392944 -123.993988 17.532351
vertex -267.392944 -123.993988 19.482355
vertex -266.991791 -123.993988 17.479540
endloop
endfacet
facet normal 0.000000 1.000000 -0.000022
outer loop
vertex -266.991791 -123.993988 17.479540
vertex -267.392944 -123.993988 19.482355
vertex -266.617950 -123.993988 17.324694
endloop
endfacet
facet normal 0.000000 1.000000 0.000000
outer loop
vertex -266.617950 -123.993988 17.324694
vertex -267.392944 -123.993988 19.482355
vertex -266.296936 -123.993988 17.078371
endloop
endfacet
facet normal 0.000000 1.000000 0.000000
outer loop
vertex -266.296936 -123.993988 17.078371
vertex -267.392944 -123.993988 19.482355
vertex -260.392944 -123.993988 19.482355
endloop
endfacet
facet normal 0.000000 1.000000 0.000000
outer loop
vertex -266.296936 -123.993988 17.078371
vertex -260.392944 -123.993988 19.482355
vertex -261.488953 -123.993988 17.078371
endloop
endfacet
facet normal 0.000000 1.000000 0.000000
outer loop
vertex -261.488953 -123.993988 17.078371
vertex -260.392944 -123.993988 19.482355
vertex -261.167938 -123.993988 17.324694
endloop
endfacet
facet normal 0.000000 1.000000 -0.000011
outer loop
vertex -261.167938 -123.993988 17.324694
vertex -260.392944 -123.993988 19.482355
vertex -260.794128 -123.993988 17.479540
endloop
endfacet
facet normal 0.000000 1.000000 0.000000
outer loop
vertex -260.794128 -123.993988 17.479540
vertex -260.392944 -123.993988 19.482355
vertex -260.392944 -123.993988 17.532351
endloop
endfacet
facet normal 0.000000 1.000000 0.000000
outer loop
vertex -260.392944 -123.993988 17.532351
vertex -260.392944 -123.993988 19.482355
vertex -259.991791 -123.993988 17.479540
endloop
endfacet
facet normal 0.000000 1.000000 -0.000022
outer loop
vertex -259.991791 -123.993988 17.479540
vertex -260.392944 -123.993988 19.482355
vertex -259.617950 -123.993988 17.324694
endloop
endfacet
facet normal 0.000000 1.000000 0.000000
outer loop
vertex -259.617950 -123.993988 17.324694
vertex -260.392944 -123.993988 19.482355
vertex -259.296936 -123.993988 17.078371
endloop
endfacet
facet normal 0.000000 1.000000 0.000000
outer loop
vertex -259.296936 -123.993988 17.078371
vertex -260.392944 -123.993988 19.482355
vertex -256.892944 -123.993988 15.982355
endloop
endfacet
facet normal 0.000000 1.000000 -0.000122
outer loop
vertex -259.296936 -123.993988 17.078371
vertex -256.892944 -123.993988 15.982355
vertex -259.050598 -123.993988 16.757349
endloop
endfacet
facet normal 0.000000 1.000000 0.000000
outer loop
vertex -259.050598 -123.993988 16.757349
vertex -256.892944 -123.993988 15.982355
vertex -258.895752 -123.993988 16.383524
endloop
endfacet
facet normal 0.000000 1.000000 0.000000
outer loop
vertex -258.895752 -123.993988 16.383524
vertex -256.892944 -123.993988 15.982355
vertex -258.842957 -123.993988 15.982355
endloop
endfacet
facet normal 0.000000 1.000000 0.000000
outer loop
vertex -258.842957 -123.993988 15.982355
vertex -256.892944 -123.993988 15.982355
vertex -258.895752 -123.993988 15.581186
endloop
endfacet
facet normal 0.000000 1.000000 0.000000
outer loop
vertex -258.895752 -123.993988 15.581186
vertex -256.892944 -123.993988 15.982355
vertex -259.050598 -123.993988 15.207354
endloop
endfacet
facet normal 0.000000 1.000000 0.000000
outer loop
vertex -259.050598 -123.993988 15.207354
vertex -256.892944 -123.993988 15.982355
vertex -259.296936 -123.993988 14.886339
endloop
endfacet
facet normal 0.000000 1.000000 0.000000
outer loop
vertex -259.296936 -123.993988 14.886339
vertex -256.892944 -123.993988 15.982355
vertex -256.892944 -123.993988 8.982355
endloop
endfacet
facet normal 0.000000 1.000000 0.000000
outer loop
vertex -259.296936 -123.993988 14.886339
vertex -256.892944 -123.993988 8.982355
vertex -262.796936 -123.993988 11.386339
endloop
endfacet
facet normal 0.000000 1.000000 0.000000
outer loop
vertex -262.796936 -123.993988 11.386339
vertex -256.892944 -123.993988 8.982355
vertex -260.392944 -123.993988 5.482355
endloop
endfacet
facet normal 0.000000 1.000000 0.000000
outer loop
vertex -262.796936 -123.993988 11.386339
vertex -260.392944 -123.993988 5.482355
vertex -263.117950 -123.993988 11.140017
endloop
endfacet
facet normal 0.000000 1.000000 -0.000024
outer loop
vertex -263.117950 -123.993988 11.140017
vertex -260.392944 -123.993988 5.482355
vertex -263.491791 -123.993988 10.985170
endloop
endfacet
facet normal 0.000000 1.000000 0.000026
outer loop
vertex -263.491791 -123.993988 10.985170
vertex -260.392944 -123.993988 5.482355
vertex -263.892944 -123.993988 10.932352
endloop
endfacet
facet normal 0.000000 1.000000 0.000000
outer loop
vertex -263.892944 -123.993988 10.932352
vertex -260.392944 -123.993988 5.482355
vertex -267.392944 -123.993988 5.482355
endloop
endfacet
facet normal 0.000000 1.000000 0.000026
outer loop
vertex -263.892944 -123.993988 10.932352
vertex -267.392944 -123.993988 5.482355
vertex -264.294128 -123.993988 10.985170
endloop
endfacet
facet normal 0.000000 1.000000 -0.000024
outer loop
vertex -264.294128 -123.993988 10.985170
vertex -267.392944 -123.993988 5.482355
vertex -264.667938 -123.993988 11.140017
endloop
endfacet
facet normal 0.000000 1.000000 0.000000
outer loop
vertex -261.488953 -123.993988 17.078371
vertex -263.892944 -123.993988 14.674387
vertex -266.296936 -123.993988 17.078371
endloop
endfacet
endsolid ShogiChessCncAndPLA v2.002
