solid ShogiChessCncAndPLA v2.008
facet normal -0.028829 0.000000 0.999584
outer loop
vertex -137.159271 -125.488991 14.433802
vertex -137.159271 -123.993988 14.433802
vertex -137.203949 -125.488991 14.432512
endloop
endfacet
facet normal -0.028887 0.000000 0.999583
outer loop
vertex -137.203949 -125.488991 14.432512
vertex -137.159271 -123.993988 14.433802
vertex -137.203949 -123.993988 14.432512
endloop
endfacet
facet normal 0.000000 0.000000 1.000000
outer loop
vertex -137.203949 -125.488991 14.432512
vertex -137.203949 -123.993988 14.432512
vertex -137.248627 -125.488991 14.432512
endloop
endfacet
facet normal 0.000000 0.000000 1.000000
outer loop
vertex -137.248627 -125.488991 14.432512
vertex -137.203949 -123.993988 14.432512
vertex -137.248627 -123.993988 14.432512
endloop
endfacet
facet normal 0.028896 0.000000 0.999582
outer loop
vertex -137.248627 -125.488991 14.432512
vertex -137.248627 -123.993988 14.432512
vertex -137.293289 -125.488991 14.433802
endloop
endfacet
facet normal 0.028839 0.000000 0.999584
outer loop
vertex -137.293289 -125.488991 14.433802
vertex -137.248627 -123.993988 14.432512
vertex -137.293289 -123.993988 14.433802
endloop
endfacet
facet normal 0.000000 0.000000 1.000000
outer loop
vertex -135.276047 -123.993988 14.433802
vertex -137.159271 -123.993988 14.433802
vertex -135.276047 -125.488991 14.433802
endloop
endfacet
facet normal 0.000000 0.000000 1.000000
outer loop
vertex -135.276047 -125.488991 14.433802
vertex -137.159271 -123.993988 14.433802
vertex -137.159271 -125.488991 14.433802
endloop
endfacet
facet normal 1.000000 0.000000 -0.000047
outer loop
vertex -135.276138 -123.993988 12.503778
vertex -135.276047 -123.993988 14.433802
vertex -135.276138 -125.488991 12.503778
endloop
endfacet
facet normal 1.000000 0.000000 -0.000047
outer loop
vertex -135.276138 -125.488991 12.503778
vertex -135.276047 -123.993988 14.433802
vertex -135.276047 -125.488991 14.433802
endloop
endfacet
facet normal 0.999954 0.000000 0.009646
outer loop
vertex -135.276138 -125.488991 12.461061
vertex -135.276138 -123.993988 12.461061
vertex -135.276276 -125.488991 12.475298
endloop
endfacet
facet normal 0.999954 0.000000 0.009646
outer loop
vertex -135.276276 -125.488991 12.475298
vertex -135.276138 -123.993988 12.461061
vertex -135.276276 -123.993988 12.475298
endloop
endfacet
facet normal 1.000000 0.000000 0.000000
outer loop
vertex -135.276276 -125.488991 12.475298
vertex -135.276276 -123.993988 12.475298
vertex -135.276276 -125.488991 12.489542
endloop
endfacet
facet normal 1.000000 0.000000 0.000000
outer loop
vertex -135.276276 -125.488991 12.489542
vertex -135.276276 -123.993988 12.475298
vertex -135.276276 -123.993988 12.489542
endloop
endfacet
facet normal 0.999954 0.000000 -0.009646
outer loop
vertex -135.276276 -125.488991 12.489542
vertex -135.276276 -123.993988 12.489542
vertex -135.276138 -125.488991 12.503778
endloop
endfacet
facet normal 0.999954 0.000000 -0.009645
outer loop
vertex -135.276138 -125.488991 12.503778
vertex -135.276276 -123.993988 12.489542
vertex -135.276138 -123.993988 12.503778
endloop
endfacet
facet normal 0.042886 0.000000 -0.999080
outer loop
vertex -137.326355 -125.488991 17.530565
vertex -137.326355 -123.993988 17.530565
vertex -137.259125 -125.488991 17.533449
endloop
endfacet
facet normal 0.042848 0.000000 -0.999082
outer loop
vertex -137.259125 -125.488991 17.533449
vertex -137.326355 -123.993988 17.530565
vertex -137.259125 -123.993988 17.533449
endloop
endfacet
facet normal -0.000455 0.000000 -1.000000
outer loop
vertex -137.259125 -125.488991 17.533449
vertex -137.259125 -123.993988 17.533449
vertex -137.191818 -125.488991 17.533419
endloop
endfacet
facet normal -0.000455 0.000000 -1.000000
outer loop
vertex -137.191818 -125.488991 17.533419
vertex -137.259125 -123.993988 17.533449
vertex -137.191818 -123.993988 17.533419
endloop
endfacet
facet normal -0.043984 0.000000 -0.999032
outer loop
vertex -137.191818 -125.488991 17.533419
vertex -137.191818 -123.993988 17.533419
vertex -137.124588 -125.488991 17.530458
endloop
endfacet
facet normal -0.043984 0.000000 -0.999032
outer loop
vertex -137.124588 -125.488991 17.530458
vertex -137.191818 -123.993988 17.533419
vertex -137.124588 -123.993988 17.530458
endloop
endfacet
facet normal -0.000525 0.000000 -1.000000
outer loop
vertex -140.725464 -123.993988 17.532351
vertex -137.326355 -123.993988 17.530565
vertex -140.725464 -125.488991 17.532351
endloop
endfacet
facet normal -0.000525 0.000000 -1.000000
outer loop
vertex -140.725464 -125.488991 17.532351
vertex -137.326355 -123.993988 17.530565
vertex -137.326355 -125.488991 17.530565
endloop
endfacet
facet normal 0.993764 0.000000 -0.111503
outer loop
vertex -142.276276 -125.488991 15.981539
vertex -142.276276 -123.993988 15.981539
vertex -142.237549 -125.488991 16.326693
endloop
endfacet
facet normal 0.993764 0.000000 -0.111500
outer loop
vertex -142.237549 -125.488991 16.326693
vertex -142.276276 -123.993988 15.981539
vertex -142.237549 -123.993988 16.326693
endloop
endfacet
facet normal 0.943988 0.000000 -0.329979
outer loop
vertex -142.237549 -125.488991 16.326693
vertex -142.237549 -123.993988 16.326693
vertex -142.122940 -123.993988 16.654558
endloop
endfacet
facet normal 0.943988 0.000000 -0.329980
outer loop
vertex -142.237549 -125.488991 16.326693
vertex -142.122940 -123.993988 16.654558
vertex -142.122940 -125.488991 16.654558
endloop
endfacet
facet normal 0.846791 0.000000 -0.531926
outer loop
vertex -142.122940 -125.488991 16.654558
vertex -142.122940 -123.993988 16.654558
vertex -141.938187 -123.993988 16.948671
endloop
endfacet
facet normal 0.846786 0.000000 -0.531933
outer loop
vertex -142.122940 -125.488991 16.654558
vertex -141.938187 -123.993988 16.948671
vertex -141.938187 -125.488991 16.948671
endloop
endfacet
facet normal 0.707118 0.000000 -0.707096
outer loop
vertex -141.938187 -125.488991 16.948671
vertex -141.938187 -123.993988 16.948671
vertex -141.692596 -123.993988 17.194269
endloop
endfacet
facet normal 0.707121 0.000000 -0.707092
outer loop
vertex -141.938187 -125.488991 16.948671
vertex -141.692596 -123.993988 17.194269
vertex -141.692596 -125.488991 17.194269
endloop
endfacet
facet normal 0.531893 0.000000 -0.846812
outer loop
vertex -141.692596 -125.488991 17.194269
vertex -141.692596 -123.993988 17.194269
vertex -141.398483 -123.993988 17.379007
endloop
endfacet
facet normal 0.531900 0.000000 -0.846807
outer loop
vertex -141.692596 -125.488991 17.194269
vertex -141.398483 -123.993988 17.379007
vertex -141.398483 -125.488991 17.379007
endloop
endfacet
facet normal 0.329996 0.000000 -0.943982
outer loop
vertex -141.398483 -125.488991 17.379007
vertex -141.398483 -123.993988 17.379007
vertex -141.070618 -123.993988 17.493624
endloop
endfacet
facet normal 0.329998 0.000000 -0.943982
outer loop
vertex -141.398483 -125.488991 17.379007
vertex -141.070618 -123.993988 17.493624
vertex -141.070618 -125.488991 17.493624
endloop
endfacet
facet normal 0.111500 0.000000 -0.993764
outer loop
vertex -141.070618 -125.488991 17.493624
vertex -141.070618 -123.993988 17.493624
vertex -140.725464 -125.488991 17.532351
endloop
endfacet
facet normal 0.111507 0.000000 -0.993764
outer loop
vertex -140.725464 -125.488991 17.532351
vertex -141.070618 -123.993988 17.493624
vertex -140.725464 -123.993988 17.532351
endloop
endfacet
facet normal 1.000000 0.000000 0.000000
outer loop
vertex -142.276276 -123.993988 8.982355
vertex -142.276276 -123.993988 15.981539
vertex -142.276276 -125.488991 8.982355
endloop
endfacet
facet normal 1.000000 0.000000 0.000000
outer loop
vertex -142.276276 -125.488991 8.982355
vertex -142.276276 -123.993988 15.981539
vertex -142.276276 -125.488991 15.981539
endloop
endfacet
facet normal 0.102394 0.000000 0.994744
outer loop
vertex -140.710236 -125.488991 7.432436
vertex -140.710236 -123.993988 7.432436
vertex -141.057770 -125.488991 7.468210
endloop
endfacet
facet normal 0.102399 0.000000 0.994743
outer loop
vertex -141.057770 -125.488991 7.468210
vertex -140.710236 -123.993988 7.432436
vertex -141.057770 -123.993988 7.468210
endloop
endfacet
facet normal 0.322588 0.000000 0.946539
outer loop
vertex -141.057770 -125.488991 7.468210
vertex -141.057770 -123.993988 7.468210
vertex -141.388458 -123.993988 7.580912
endloop
endfacet
facet normal 0.322587 0.000000 0.946540
outer loop
vertex -141.057770 -125.488991 7.468210
vertex -141.388458 -123.993988 7.580912
vertex -141.388458 -125.488991 7.580912
endloop
endfacet
facet normal 0.526404 0.000000 0.850234
outer loop
vertex -141.388458 -125.488991 7.580912
vertex -141.388458 -123.993988 7.580912
vertex -141.685501 -123.993988 7.764818
endloop
endfacet
facet normal 0.526398 0.000000 0.850238
outer loop
vertex -141.388458 -125.488991 7.580912
vertex -141.685501 -123.993988 7.764818
vertex -141.685501 -125.488991 7.764818
endloop
endfacet
facet normal 0.703431 0.000000 0.710764
outer loop
vertex -141.685501 -125.488991 7.764818
vertex -141.685501 -123.993988 7.764818
vertex -141.933823 -123.993988 8.010576
endloop
endfacet
facet normal 0.703425 0.000000 0.710769
outer loop
vertex -141.685501 -125.488991 7.764818
vertex -141.933823 -123.993988 8.010576
vertex -141.933823 -125.488991 8.010576
endloop
endfacet
facet normal 0.844755 0.000000 0.535153
outer loop
vertex -141.933823 -125.488991 8.010576
vertex -141.933823 -123.993988 8.010576
vertex -142.120789 -123.993988 8.305704
endloop
endfacet
facet normal 0.844749 0.000000 0.535162
outer loop
vertex -141.933823 -125.488991 8.010576
vertex -142.120789 -123.993988 8.305704
vertex -142.120789 -125.488991 8.305704
endloop
endfacet
facet normal 0.943150 0.000000 0.332367
outer loop
vertex -142.120789 -125.488991 8.305704
vertex -142.120789 -123.993988 8.305704
vertex -142.236908 -123.993988 8.635210
endloop
endfacet
facet normal 0.943147 0.000000 0.332375
outer loop
vertex -142.120789 -125.488991 8.305704
vertex -142.236908 -123.993988 8.635210
vertex -142.236908 -125.488991 8.635210
endloop
endfacet
facet normal 0.993631 0.000000 0.112682
outer loop
vertex -142.236908 -125.488991 8.635210
vertex -142.236908 -123.993988 8.635210
vertex -142.276276 -125.488991 8.982355
endloop
endfacet
facet normal 0.993631 0.000000 0.112681
outer loop
vertex -142.276276 -125.488991 8.982355
vertex -142.236908 -123.993988 8.635210
vertex -142.276276 -123.993988 8.982355
endloop
endfacet
facet normal 0.000000 0.000000 1.000000
outer loop
vertex -137.242157 -123.993988 7.432436
vertex -140.710236 -123.993988 7.432436
vertex -137.242157 -125.488991 7.432436
endloop
endfacet
facet normal 0.000000 0.000000 1.000000
outer loop
vertex -137.242157 -125.488991 7.432436
vertex -140.710236 -123.993988 7.432436
vertex -140.710236 -125.488991 7.432436
endloop
endfacet
facet normal -0.007229 0.000000 0.999974
outer loop
vertex -137.210403 -125.488991 7.432436
vertex -137.210403 -123.993988 7.432436
vertex -137.220993 -125.488991 7.432360
endloop
endfacet
facet normal -0.007229 0.000000 0.999974
outer loop
vertex -137.220993 -125.488991 7.432360
vertex -137.210403 -123.993988 7.432436
vertex -137.220993 -123.993988 7.432360
endloop
endfacet
facet normal 0.000000 0.000000 1.000000
outer loop
vertex -137.220993 -125.488991 7.432360
vertex -137.220993 -123.993988 7.432360
vertex -137.231583 -125.488991 7.432360
endloop
endfacet
facet normal 0.000000 0.000000 1.000000
outer loop
vertex -137.231583 -125.488991 7.432360
vertex -137.220993 -123.993988 7.432360
vertex -137.231583 -123.993988 7.432360
endloop
endfacet
facet normal 0.007239 0.000000 0.999974
outer loop
vertex -137.231583 -125.488991 7.432360
vertex -137.231583 -123.993988 7.432360
vertex -137.242157 -125.488991 7.432436
endloop
endfacet
facet normal 0.007239 0.000000 0.999974
outer loop
vertex -137.242157 -125.488991 7.432436
vertex -137.231583 -123.993988 7.432360
vertex -137.242157 -123.993988 7.432436
endloop
endfacet
facet normal 1.000000 0.000000 -0.000047
outer loop
vertex -135.276230 -123.993988 10.532434
vertex -135.276138 -123.993988 12.461061
vertex -135.276230 -125.488991 10.532434
endloop
endfacet
facet normal 1.000000 0.000000 -0.000047
outer loop
vertex -135.276230 -125.488991 10.532434
vertex -135.276138 -123.993988 12.461061
vertex -135.276138 -125.488991 12.461061
endloop
endfacet
facet normal 0.000000 0.000000 1.000000
outer loop
vertex -137.293289 -123.993988 14.433802
vertex -139.176285 -123.993988 14.433802
vertex -137.293289 -125.488991 14.433802
endloop
endfacet
facet normal 0.000000 0.000000 1.000000
outer loop
vertex -137.293289 -125.488991 14.433802
vertex -139.176285 -123.993988 14.433802
vertex -139.176285 -125.488991 14.433802
endloop
endfacet
facet normal -1.000000 0.000000 0.000000
outer loop
vertex -139.176285 -123.993988 14.433802
vertex -139.176285 -123.993988 10.532434
vertex -139.176285 -125.488991 14.433802
endloop
endfacet
facet normal -1.000000 0.000000 0.000000
outer loop
vertex -139.176285 -125.488991 14.433802
vertex -139.176285 -123.993988 10.532434
vertex -139.176285 -125.488991 10.532434
endloop
endfacet
facet normal 0.000000 0.000000 -1.000000
outer loop
vertex -139.176285 -123.993988 10.532434
vertex -135.276230 -123.993988 10.532434
vertex -139.176285 -125.488991 10.532434
endloop
endfacet
facet normal 0.000000 0.000000 -1.000000
outer loop
vertex -139.176285 -125.488991 10.532434
vertex -135.276230 -123.993988 10.532434
vertex -135.276230 -125.488991 10.532434
endloop
endfacet
facet normal -0.000526 0.000000 -1.000000
outer loop
vertex -137.124588 -123.993988 17.530458
vertex -133.832214 -123.993988 17.528727
vertex -137.124588 -125.488991 17.530458
endloop
endfacet
facet normal -0.000526 0.000000 -1.000000
outer loop
vertex -137.124588 -125.488991 17.530458
vertex -133.832214 -123.993988 17.528727
vertex -133.832214 -125.488991 17.528727
endloop
endfacet
facet normal -0.061496 0.000000 -0.998107
outer loop
vertex -133.832214 -125.488991 17.528727
vertex -133.832214 -123.993988 17.528727
vertex -133.431290 -125.488991 17.504023
endloop
endfacet
facet normal -0.061503 0.000000 -0.998107
outer loop
vertex -133.431290 -125.488991 17.504023
vertex -133.832214 -123.993988 17.528727
vertex -133.431290 -123.993988 17.504023
endloop
endfacet
facet normal -0.315913 0.000000 -0.948788
outer loop
vertex -133.431290 -125.488991 17.504023
vertex -133.431290 -123.993988 17.504023
vertex -133.050171 -125.488991 17.377123
endloop
endfacet
facet normal -0.315917 0.000000 -0.948787
outer loop
vertex -133.050171 -125.488991 17.377123
vertex -133.431290 -123.993988 17.504023
vertex -133.050171 -123.993988 17.377123
endloop
endfacet
facet normal -0.549135 0.000000 -0.835734
outer loop
vertex -133.050171 -125.488991 17.377123
vertex -133.050171 -123.993988 17.377123
vertex -132.714478 -125.488991 17.156549
endloop
endfacet
facet normal -0.549135 0.000000 -0.835734
outer loop
vertex -132.714478 -125.488991 17.156549
vertex -133.050171 -123.993988 17.377123
vertex -132.714478 -123.993988 17.156549
endloop
endfacet
facet normal -0.745423 0.000000 -0.666592
outer loop
vertex -132.714478 -125.488991 17.156549
vertex -132.714478 -123.993988 17.156549
vertex -132.446716 -125.488991 16.857119
endloop
endfacet
facet normal -0.745432 0.000000 -0.666582
outer loop
vertex -132.446716 -125.488991 16.857119
vertex -132.714478 -123.993988 17.156549
vertex -132.446716 -123.993988 16.857119
endloop
endfacet
facet normal -0.891700 0.000000 -0.452628
outer loop
vertex -132.446716 -125.488991 16.857119
vertex -132.446716 -123.993988 16.857119
vertex -132.264908 -125.488991 16.498941
endloop
endfacet
facet normal -0.891705 0.000000 -0.452618
outer loop
vertex -132.264908 -125.488991 16.498941
vertex -132.446716 -123.993988 16.857119
vertex -132.264908 -123.993988 16.498941
endloop
endfacet
facet normal -0.978061 0.000000 -0.208320
outer loop
vertex -132.264908 -125.488991 16.498941
vertex -132.264908 -123.993988 16.498941
vertex -132.181229 -125.488991 16.106066
endloop
endfacet
facet normal -0.978061 0.000000 -0.208320
outer loop
vertex -132.181229 -125.488991 16.106066
vertex -132.264908 -123.993988 16.498941
vertex -132.181229 -123.993988 16.106066
endloop
endfacet
facet normal -0.997650 0.000000 -0.068517
outer loop
vertex -132.181229 -125.488991 16.106066
vertex -132.181229 -123.993988 16.106066
vertex -132.178314 -125.488991 16.063631
endloop
endfacet
facet normal -0.997650 0.000000 -0.068520
outer loop
vertex -132.178314 -125.488991 16.063631
vertex -132.181229 -123.993988 16.106066
vertex -132.178314 -123.993988 16.063631
endloop
endfacet
facet normal -0.999163 0.000000 -0.040898
outer loop
vertex -132.178314 -125.488991 16.063631
vertex -132.178314 -123.993988 16.063631
vertex -132.176575 -125.488991 16.021135
endloop
endfacet
facet normal -0.999163 0.000000 -0.040900
outer loop
vertex -132.176575 -125.488991 16.021135
vertex -132.178314 -123.993988 16.063631
vertex -132.176575 -123.993988 16.021135
endloop
endfacet
facet normal -0.999902 0.000000 -0.013993
outer loop
vertex -132.176575 -125.488991 16.021135
vertex -132.176575 -123.993988 16.021135
vertex -132.175980 -125.488991 15.978609
endloop
endfacet
facet normal -0.999902 0.000000 -0.013992
outer loop
vertex -132.175980 -125.488991 15.978609
vertex -132.176575 -123.993988 16.021135
vertex -132.175980 -123.993988 15.978609
endloop
endfacet
facet normal -1.000000 0.000000 0.000044
outer loop
vertex -132.175980 -123.993988 15.978609
vertex -132.176285 -123.993988 8.982355
vertex -132.175980 -125.488991 15.978609
endloop
endfacet
facet normal -1.000000 0.000000 0.000044
outer loop
vertex -132.175980 -125.488991 15.978609
vertex -132.176285 -123.993988 8.982355
vertex -132.176285 -125.488991 8.982355
endloop
endfacet
facet normal -0.999438 0.000000 0.033512
outer loop
vertex -132.176285 -125.488991 8.982355
vertex -132.176285 -123.993988 8.982355
vertex -132.179749 -125.488991 8.879053
endloop
endfacet
facet normal -0.999438 0.000000 0.033511
outer loop
vertex -132.179749 -125.488991 8.879053
vertex -132.176285 -123.993988 8.982355
vertex -132.179749 -123.993988 8.879053
endloop
endfacet
facet normal -0.995007 0.000000 0.099803
outer loop
vertex -132.179749 -125.488991 8.879053
vertex -132.179749 -123.993988 8.879053
vertex -132.190063 -125.488991 8.776217
endloop
endfacet
facet normal -0.995007 0.000000 0.099803
outer loop
vertex -132.190063 -125.488991 8.776217
vertex -132.179749 -123.993988 8.879053
vertex -132.190063 -123.993988 8.776217
endloop
endfacet
facet normal -0.986113 0.000000 0.166074
outer loop
vertex -132.190063 -125.488991 8.776217
vertex -132.190063 -123.993988 8.776217
vertex -132.207230 -125.488991 8.674288
endloop
endfacet
facet normal -0.986113 0.000000 0.166074
outer loop
vertex -132.207230 -125.488991 8.674288
vertex -132.190063 -123.993988 8.776217
vertex -132.207230 -123.993988 8.674288
endloop
endfacet
facet normal -0.948596 0.000000 0.316491
outer loop
vertex -132.207230 -125.488991 8.674288
vertex -132.207230 -123.993988 8.674288
vertex -132.326553 -125.488991 8.316645
endloop
endfacet
facet normal -0.948597 0.000000 0.316488
outer loop
vertex -132.326553 -125.488991 8.316645
vertex -132.207230 -123.993988 8.674288
vertex -132.326553 -123.993988 8.316645
endloop
endfacet
facet normal -0.844095 0.000000 0.536194
outer loop
vertex -132.326553 -125.488991 8.316645
vertex -132.326553 -123.993988 8.316645
vertex -132.528717 -125.488991 7.998392
endloop
endfacet
facet normal -0.844096 0.000000 0.536192
outer loop
vertex -132.528717 -125.488991 7.998392
vertex -132.326553 -123.993988 8.316645
vertex -132.528717 -123.993988 7.998392
endloop
endfacet
facet normal -0.689676 0.000000 0.724118
outer loop
vertex -132.528717 -125.488991 7.998392
vertex -132.528717 -123.993988 7.998392
vertex -132.801727 -125.488991 7.738367
endloop
endfacet
facet normal -0.689678 0.000000 0.724116
outer loop
vertex -132.801727 -125.488991 7.738367
vertex -132.528717 -123.993988 7.998392
vertex -132.801727 -123.993988 7.738367
endloop
endfacet
facet normal -0.494446 0.000000 0.869209
outer loop
vertex -132.801727 -125.488991 7.738367
vertex -132.801727 -123.993988 7.738367
vertex -133.129440 -125.488991 7.551950
endloop
endfacet
facet normal -0.494443 0.000000 0.869210
outer loop
vertex -133.129440 -125.488991 7.551950
vertex -132.801727 -123.993988 7.738367
vertex -133.129440 -123.993988 7.551950
endloop
endfacet
facet normal -0.323464 0.000000 0.946241
outer loop
vertex -133.129440 -125.488991 7.551950
vertex -133.129440 -123.993988 7.551950
vertex -133.322540 -125.488991 7.485941
endloop
endfacet
facet normal -0.323464 0.000000 0.946241
outer loop
vertex -133.322540 -125.488991 7.485941
vertex -133.129440 -123.993988 7.551950
vertex -133.322540 -123.993988 7.485941
endloop
endfacet
facet normal -0.196346 0.000000 0.980535
outer loop
vertex -133.322540 -125.488991 7.485941
vertex -133.322540 -123.993988 7.485941
vertex -133.522644 -123.993988 7.445871
endloop
endfacet
facet normal -0.065833 0.000000 0.997831
outer loop
vertex -133.726288 -123.993988 7.432436
vertex -133.726288 -125.488991 7.432436
vertex -133.522644 -123.993988 7.445871
endloop
endfacet
facet normal -0.065832 0.000000 0.997831
outer loop
vertex -133.522644 -123.993988 7.445871
vertex -133.726288 -125.488991 7.432436
vertex -133.522644 -125.488991 7.445871
endloop
endfacet
facet normal -0.196346 0.000000 0.980535
outer loop
vertex -133.522644 -123.993988 7.445871
vertex -133.522644 -125.488991 7.445871
vertex -133.322540 -125.488991 7.485941
endloop
endfacet
facet normal 0.000000 0.000000 1.000000
outer loop
vertex -133.726288 -123.993988 7.432436
vertex -137.210403 -123.993988 7.432436
vertex -133.726288 -125.488991 7.432436
endloop
endfacet
facet normal 0.000000 0.000000 1.000000
outer loop
vertex -133.726288 -125.488991 7.432436
vertex -137.210403 -123.993988 7.432436
vertex -137.210403 -125.488991 7.432436
endloop
endfacet
facet normal 0.000000 1.000000 0.000003
outer loop
vertex -135.276230 -125.488991 10.532434
vertex -137.210403 -125.488991 7.432436
vertex -139.176285 -125.488991 10.532434
endloop
endfacet
facet normal 0.000000 1.000000 0.000126
outer loop
vertex -139.176285 -125.488991 10.532434
vertex -137.210403 -125.488991 7.432436
vertex -137.242157 -125.488991 7.432436
endloop
endfacet
facet normal 0.000000 1.000000 0.000000
outer loop
vertex -139.176285 -125.488991 10.532434
vertex -137.242157 -125.488991 7.432436
vertex -140.710236 -125.488991 7.432436
endloop
endfacet
facet normal 0.000000 1.000000 0.000000
outer loop
vertex -135.276138 -125.488991 12.461061
vertex -132.176285 -125.488991 8.982355
vertex -135.276230 -125.488991 10.532434
endloop
endfacet
facet normal 0.000000 1.000000 0.000000
outer loop
vertex -135.276230 -125.488991 10.532434
vertex -132.176285 -125.488991 8.982355
vertex -133.726288 -125.488991 7.432436
endloop
endfacet
facet normal 0.000000 1.000000 0.000000
outer loop
vertex -135.276230 -125.488991 10.532434
vertex -133.726288 -125.488991 7.432436
vertex -137.210403 -125.488991 7.432436
endloop
endfacet
facet normal 0.000000 1.000000 0.000000
outer loop
vertex -135.276276 -125.488991 12.475298
vertex -135.276138 -125.488991 12.503778
vertex -135.276138 -125.488991 12.461061
endloop
endfacet
facet normal 0.000000 1.000000 0.000000
outer loop
vertex -135.276138 -125.488991 12.461061
vertex -135.276138 -125.488991 12.503778
vertex -132.175980 -125.488991 15.978609
endloop
endfacet
facet normal 0.000000 1.000000 0.000000
outer loop
vertex -135.276138 -125.488991 12.461061
vertex -132.175980 -125.488991 15.978609
vertex -132.176285 -125.488991 8.982355
endloop
endfacet
facet normal 0.000000 1.000000 0.000000
outer loop
vertex -135.276276 -125.488991 12.475298
vertex -135.276276 -125.488991 12.489542
vertex -135.276138 -125.488991 12.503778
endloop
endfacet
facet normal 0.000000 1.000000 -0.000010
outer loop
vertex -135.276138 -125.488991 12.503778
vertex -135.276047 -125.488991 14.433802
vertex -132.175980 -125.488991 15.978609
endloop
endfacet
facet normal 0.000000 1.000000 0.000004
outer loop
vertex -132.175980 -125.488991 15.978609
vertex -135.276047 -125.488991 14.433802
vertex -133.832214 -125.488991 17.528727
endloop
endfacet
facet normal 0.000000 1.000000 -0.000439
outer loop
vertex -132.175980 -125.488991 15.978609
vertex -133.832214 -125.488991 17.528727
vertex -132.176575 -125.488991 16.021135
endloop
endfacet
facet normal 0.000000 1.000000 0.000450
outer loop
vertex -132.176575 -125.488991 16.021135
vertex -133.832214 -125.488991 17.528727
vertex -132.178314 -125.488991 16.063631
endloop
endfacet
facet normal 0.000000 1.000000 -0.000463
outer loop
vertex -132.178314 -125.488991 16.063631
vertex -133.832214 -125.488991 17.528727
vertex -132.181229 -125.488991 16.106066
endloop
endfacet
facet normal 0.000000 1.000000 0.000014
outer loop
vertex -132.181229 -125.488991 16.106066
vertex -133.832214 -125.488991 17.528727
vertex -133.431290 -125.488991 17.504023
endloop
endfacet
facet normal 0.000000 1.000000 0.000000
outer loop
vertex -132.181229 -125.488991 16.106066
vertex -133.431290 -125.488991 17.504023
vertex -133.050171 -125.488991 17.377123
endloop
endfacet
facet normal 0.000000 1.000000 0.000000
outer loop
vertex -133.832214 -125.488991 17.528727
vertex -135.276047 -125.488991 14.433802
vertex -137.124588 -125.488991 17.530458
endloop
endfacet
facet normal 0.000000 1.000000 -0.000005
outer loop
vertex -137.124588 -125.488991 17.530458
vertex -135.276047 -125.488991 14.433802
vertex -137.159271 -125.488991 14.433802
endloop
endfacet
facet normal 0.000000 1.000000 0.000007
outer loop
vertex -137.124588 -125.488991 17.530458
vertex -137.159271 -125.488991 14.433802
vertex -137.203949 -125.488991 14.432512
endloop
endfacet
facet normal 0.000000 1.000000 0.000000
outer loop
vertex -137.203949 -125.488991 14.432512
vertex -137.248627 -125.488991 14.432512
vertex -137.124588 -125.488991 17.530458
endloop
endfacet
facet normal 0.000000 1.000000 -0.000007
outer loop
vertex -137.124588 -125.488991 17.530458
vertex -137.248627 -125.488991 14.432512
vertex -137.293289 -125.488991 14.433802
endloop
endfacet
facet normal 0.000000 1.000000 0.000009
outer loop
vertex -137.124588 -125.488991 17.530458
vertex -137.293289 -125.488991 14.433802
vertex -137.191818 -125.488991 17.533419
endloop
endfacet
facet normal 0.000000 1.000000 -0.000005
outer loop
vertex -137.191818 -125.488991 17.533419
vertex -137.293289 -125.488991 14.433802
vertex -137.259125 -125.488991 17.533449
endloop
endfacet
facet normal 0.000000 1.000000 0.000000
outer loop
vertex -137.259125 -125.488991 17.533449
vertex -137.293289 -125.488991 14.433802
vertex -137.326355 -125.488991 17.530565
endloop
endfacet
facet normal 0.000000 1.000000 0.000005
outer loop
vertex -137.326355 -125.488991 17.530565
vertex -137.293289 -125.488991 14.433802
vertex -139.176285 -125.488991 14.433802
endloop
endfacet
facet normal 0.000000 1.000000 0.000000
outer loop
vertex -137.326355 -125.488991 17.530565
vertex -139.176285 -125.488991 14.433802
vertex -140.725464 -125.488991 17.532351
endloop
endfacet
facet normal 0.000000 1.000000 0.000000
outer loop
vertex -140.725464 -125.488991 17.532351
vertex -139.176285 -125.488991 14.433802
vertex -142.276276 -125.488991 15.981539
endloop
endfacet
facet normal 0.000000 1.000000 0.000000
outer loop
vertex -140.725464 -125.488991 17.532351
vertex -142.276276 -125.488991 15.981539
vertex -141.070618 -125.488991 17.493624
endloop
endfacet
facet normal 0.000000 1.000000 0.000000
outer loop
vertex -141.070618 -125.488991 17.493624
vertex -142.276276 -125.488991 15.981539
vertex -141.398483 -125.488991 17.379007
endloop
endfacet
facet normal 0.000000 1.000000 0.000000
outer loop
vertex -141.398483 -125.488991 17.379007
vertex -142.276276 -125.488991 15.981539
vertex -141.692596 -125.488991 17.194269
endloop
endfacet
facet normal 0.000000 1.000000 -0.000049
outer loop
vertex -141.692596 -125.488991 17.194269
vertex -142.276276 -125.488991 15.981539
vertex -141.938187 -125.488991 16.948671
endloop
endfacet
facet normal 0.000000 1.000000 0.000048
outer loop
vertex -141.938187 -125.488991 16.948671
vertex -142.276276 -125.488991 15.981539
vertex -142.122940 -125.488991 16.654558
endloop
endfacet
facet normal 0.000000 1.000000 0.000000
outer loop
vertex -142.122940 -125.488991 16.654558
vertex -142.276276 -125.488991 15.981539
vertex -142.237549 -125.488991 16.326693
endloop
endfacet
facet normal 0.000000 1.000000 0.000000
outer loop
vertex -139.176285 -125.488991 14.433802
vertex -139.176285 -125.488991 10.532434
vertex -142.276276 -125.488991 15.981539
endloop
endfacet
facet normal 0.000000 1.000000 0.000000
outer loop
vertex -142.276276 -125.488991 15.981539
vertex -139.176285 -125.488991 10.532434
vertex -142.276276 -125.488991 8.982355
endloop
endfacet
facet normal 0.000000 1.000000 -0.000054
outer loop
vertex -142.276276 -125.488991 8.982355
vertex -139.176285 -125.488991 10.532434
vertex -142.236908 -125.488991 8.635210
endloop
endfacet
facet normal 0.000000 1.000000 0.000000
outer loop
vertex -142.236908 -125.488991 8.635210
vertex -139.176285 -125.488991 10.532434
vertex -142.120789 -125.488991 8.305704
endloop
endfacet
facet normal 0.000000 1.000000 0.000000
outer loop
vertex -142.120789 -125.488991 8.305704
vertex -139.176285 -125.488991 10.532434
vertex -141.933823 -125.488991 8.010576
endloop
endfacet
facet normal 0.000000 1.000000 0.000000
outer loop
vertex -141.933823 -125.488991 8.010576
vertex -139.176285 -125.488991 10.532434
vertex -141.685501 -125.488991 7.764818
endloop
endfacet
facet normal 0.000000 1.000000 0.000000
outer loop
vertex -141.685501 -125.488991 7.764818
vertex -139.176285 -125.488991 10.532434
vertex -141.388458 -125.488991 7.580912
endloop
endfacet
facet normal 0.000000 1.000000 0.000000
outer loop
vertex -141.388458 -125.488991 7.580912
vertex -139.176285 -125.488991 10.532434
vertex -141.057770 -125.488991 7.468210
endloop
endfacet
facet normal 0.000000 1.000000 0.000000
outer loop
vertex -141.057770 -125.488991 7.468210
vertex -139.176285 -125.488991 10.532434
vertex -140.710236 -125.488991 7.432436
endloop
endfacet
facet normal 0.000000 1.000000 0.000000
outer loop
vertex -133.050171 -125.488991 17.377123
vertex -132.714478 -125.488991 17.156549
vertex -132.181229 -125.488991 16.106066
endloop
endfacet
facet normal 0.000000 1.000000 -0.000063
outer loop
vertex -132.181229 -125.488991 16.106066
vertex -132.714478 -125.488991 17.156549
vertex -132.446716 -125.488991 16.857119
endloop
endfacet
facet normal 0.000000 1.000000 0.000000
outer loop
vertex -132.181229 -125.488991 16.106066
vertex -132.446716 -125.488991 16.857119
vertex -132.264908 -125.488991 16.498941
endloop
endfacet
facet normal 0.000000 1.000000 0.000000
outer loop
vertex -132.176285 -125.488991 8.982355
vertex -132.179749 -125.488991 8.879053
vertex -133.726288 -125.488991 7.432436
endloop
endfacet
facet normal 0.000000 1.000000 -0.000117
outer loop
vertex -133.726288 -125.488991 7.432436
vertex -132.179749 -125.488991 8.879053
vertex -132.190063 -125.488991 8.776217
endloop
endfacet
facet normal 0.000000 1.000000 0.000204
outer loop
vertex -133.726288 -125.488991 7.432436
vertex -132.190063 -125.488991 8.776217
vertex -132.207230 -125.488991 8.674288
endloop
endfacet
facet normal 0.000000 1.000000 0.000000
outer loop
vertex -132.326553 -125.488991 8.316645
vertex -132.528717 -125.488991 7.998392
vertex -132.207230 -125.488991 8.674288
endloop
endfacet
facet normal 0.000000 1.000000 0.000000
outer loop
vertex -132.207230 -125.488991 8.674288
vertex -132.528717 -125.488991 7.998392
vertex -132.801727 -125.488991 7.738367
endloop
endfacet
facet normal 0.000000 1.000000 0.000000
outer loop
vertex -132.207230 -125.488991 8.674288
vertex -132.801727 -125.488991 7.738367
vertex -133.129440 -125.488991 7.551950
endloop
endfacet
facet normal 0.000000 1.000000 0.000000
outer loop
vertex -133.129440 -125.488991 7.551950
vertex -133.322540 -125.488991 7.485941
vertex -132.207230 -125.488991 8.674288
endloop
endfacet
facet normal 0.000000 1.000000 -0.000099
outer loop
vertex -132.207230 -125.488991 8.674288
vertex -133.322540 -125.488991 7.485941
vertex -133.522644 -125.488991 7.445871
endloop
endfacet
facet normal 0.000000 1.000000 -0.000016
outer loop
vertex -132.207230 -125.488991 8.674288
vertex -133.522644 -125.488991 7.445871
vertex -133.726288 -125.488991 7.432436
endloop
endfacet
facet normal 0.000000 1.000000 0.000000
outer loop
vertex -137.220993 -125.488991 7.432360
vertex -137.231583 -125.488991 7.432360
vertex -137.210403 -125.488991 7.432436
endloop
endfacet
facet normal 0.000000 0.995195 0.097913
outer loop
vertex -137.210403 -125.488991 7.432436
vertex -137.231583 -125.488991 7.432360
vertex -137.242157 -125.488991 7.432436
endloop
endfacet
facet normal 0.000000 1.000000 0.000004
outer loop
vertex -140.726288 -123.993988 5.482355
vertex -137.220993 -123.993988 7.432360
vertex -133.726288 -123.993988 5.482355
endloop
endfacet
facet normal 0.000000 1.000000 -0.000252
outer loop
vertex -133.726288 -123.993988 5.482355
vertex -137.220993 -123.993988 7.432360
vertex -137.210403 -123.993988 7.432436
endloop
endfacet
facet normal 0.000000 1.000000 0.000000
outer loop
vertex -133.726288 -123.993988 5.482355
vertex -137.210403 -123.993988 7.432436
vertex -133.726288 -123.993988 7.432436
endloop
endfacet
facet normal 0.000000 1.000000 0.000000
outer loop
vertex -144.226288 -123.993988 8.982355
vertex -141.933823 -123.993988 8.010576
vertex -140.726288 -123.993988 5.482355
endloop
endfacet
facet normal 0.000000 1.000000 0.000012
outer loop
vertex -140.726288 -123.993988 5.482355
vertex -141.933823 -123.993988 8.010576
vertex -141.685501 -123.993988 7.764818
endloop
endfacet
facet normal 0.000000 1.000000 0.000000
outer loop
vertex -140.726288 -123.993988 5.482355
vertex -141.685501 -123.993988 7.764818
vertex -141.388458 -123.993988 7.580912
endloop
endfacet
facet normal 0.000000 1.000000 0.000000
outer loop
vertex -144.226288 -123.993988 15.982355
vertex -142.276276 -123.993988 15.981539
vertex -144.226288 -123.993988 8.982355
endloop
endfacet
facet normal 0.000000 1.000000 0.000000
outer loop
vertex -144.226288 -123.993988 8.982355
vertex -142.276276 -123.993988 15.981539
vertex -142.276276 -123.993988 8.982355
endloop
endfacet
facet normal 0.000000 1.000000 0.000023
outer loop
vertex -144.226288 -123.993988 8.982355
vertex -142.276276 -123.993988 8.982355
vertex -142.236908 -123.993988 8.635210
endloop
endfacet
facet normal -0.000002 1.000000 -0.000013
outer loop
vertex -140.726288 -123.993996 19.482355
vertex -141.938187 -123.993988 16.948671
vertex -144.226288 -123.993988 15.982355
endloop
endfacet
facet normal 0.000000 1.000000 -0.000077
outer loop
vertex -144.226288 -123.993988 15.982355
vertex -141.938187 -123.993988 16.948671
vertex -142.122940 -123.993988 16.654558
endloop
endfacet
facet normal 0.000000 1.000000 0.000056
outer loop
vertex -144.226288 -123.993988 15.982355
vertex -142.122940 -123.993988 16.654558
vertex -142.237549 -123.993988 16.326693
endloop
endfacet
facet normal 0.000000 1.000000 0.000004
outer loop
vertex -133.726288 -123.993996 19.482355
vertex -137.259125 -123.993988 17.533449
vertex -140.726288 -123.993996 19.482355
endloop
endfacet
facet normal -0.000000 1.000000 0.000108
outer loop
vertex -140.726288 -123.993996 19.482355
vertex -137.259125 -123.993988 17.533449
vertex -137.326355 -123.993988 17.530565
endloop
endfacet
facet normal 0.000000 1.000000 0.000000
outer loop
vertex -140.726288 -123.993996 19.482355
vertex -137.326355 -123.993988 17.530565
vertex -140.725464 -123.993988 17.532351
endloop
endfacet
facet normal 0.000002 1.000000 -0.000010
outer loop
vertex -130.226288 -123.993988 15.982355
vertex -132.714478 -123.993988 17.156549
vertex -133.726288 -123.993996 19.482355
endloop
endfacet
facet normal 0.000003 1.000000 0.000014
outer loop
vertex -133.726288 -123.993996 19.482355
vertex -132.714478 -123.993988 17.156549
vertex -133.050171 -123.993988 17.377123
endloop
endfacet
facet normal 0.000001 1.000000 0.000000
outer loop
vertex -133.726288 -123.993996 19.482355
vertex -133.050171 -123.993988 17.377123
vertex -133.431290 -123.993988 17.504023
endloop
endfacet
facet normal 0.000000 1.000000 0.000000
outer loop
vertex -130.226288 -123.993988 8.982355
vertex -132.175980 -123.993988 15.978609
vertex -130.226288 -123.993988 15.982355
endloop
endfacet
facet normal 0.000000 1.000000 0.000086
outer loop
vertex -130.226288 -123.993988 15.982355
vertex -132.175980 -123.993988 15.978609
vertex -132.176575 -123.993988 16.021135
endloop
endfacet
facet normal 0.000000 1.000000 -0.000116
outer loop
vertex -130.226288 -123.993988 15.982355
vertex -132.176575 -123.993988 16.021135
vertex -132.178314 -123.993988 16.063631
endloop
endfacet
facet normal 0.000000 1.000000 0.000000
outer loop
vertex -133.726288 -123.993988 5.482355
vertex -132.528717 -123.993988 7.998392
vertex -130.226288 -123.993988 8.982355
endloop
endfacet
facet normal 0.000000 1.000000 0.000021
outer loop
vertex -130.226288 -123.993988 8.982355
vertex -132.528717 -123.993988 7.998392
vertex -132.326553 -123.993988 8.316645
endloop
endfacet
facet normal 0.000000 1.000000 0.000045
outer loop
vertex -130.226288 -123.993988 8.982355
vertex -132.326553 -123.993988 8.316645
vertex -132.207230 -123.993988 8.674288
endloop
endfacet
facet normal 0.000000 1.000000 0.000000
outer loop
vertex -133.726288 -123.993988 7.432436
vertex -133.522644 -123.993988 7.445871
vertex -133.726288 -123.993988 5.482355
endloop
endfacet
facet normal 0.000000 1.000000 -0.000010
outer loop
vertex -133.726288 -123.993988 5.482355
vertex -133.522644 -123.993988 7.445871
vertex -133.322540 -123.993988 7.485941
endloop
endfacet
facet normal 0.000000 1.000000 -0.000011
outer loop
vertex -133.726288 -123.993988 5.482355
vertex -133.322540 -123.993988 7.485941
vertex -133.129440 -123.993988 7.551950
endloop
endfacet
facet normal 0.000000 1.000000 0.000027
outer loop
vertex -133.129440 -123.993988 7.551950
vertex -132.801727 -123.993988 7.738367
vertex -133.726288 -123.993988 5.482355
endloop
endfacet
facet normal 0.000000 1.000000 0.000000
outer loop
vertex -133.726288 -123.993988 5.482355
vertex -132.801727 -123.993988 7.738367
vertex -132.528717 -123.993988 7.998392
endloop
endfacet
facet normal 0.000000 1.000000 -0.000155
outer loop
vertex -132.207230 -123.993988 8.674288
vertex -132.190063 -123.993988 8.776217
vertex -130.226288 -123.993988 8.982355
endloop
endfacet
facet normal 0.000000 1.000000 -0.000010
outer loop
vertex -130.226288 -123.993988 8.982355
vertex -132.190063 -123.993988 8.776217
vertex -132.179749 -123.993988 8.879053
endloop
endfacet
facet normal 0.000000 1.000000 0.000096
outer loop
vertex -130.226288 -123.993988 8.982355
vertex -132.179749 -123.993988 8.879053
vertex -132.176285 -123.993988 8.982355
endloop
endfacet
facet normal 0.000000 1.000000 0.000000
outer loop
vertex -132.176285 -123.993988 8.982355
vertex -132.175980 -123.993988 15.978609
vertex -130.226288 -123.993988 8.982355
endloop
endfacet
facet normal 0.000000 1.000000 0.000000
outer loop
vertex -132.178314 -123.993988 16.063631
vertex -132.181229 -123.993988 16.106066
vertex -130.226288 -123.993988 15.982355
endloop
endfacet
facet normal 0.000000 1.000000 0.000000
outer loop
vertex -130.226288 -123.993988 15.982355
vertex -132.181229 -123.993988 16.106066
vertex -132.264908 -123.993988 16.498941
endloop
endfacet
facet normal 0.000000 1.000000 0.000030
outer loop
vertex -130.226288 -123.993988 15.982355
vertex -132.264908 -123.993988 16.498941
vertex -132.446716 -123.993988 16.857119
endloop
endfacet
facet normal 0.000000 1.000000 0.000000
outer loop
vertex -132.446716 -123.993988 16.857119
vertex -132.714478 -123.993988 17.156549
vertex -130.226288 -123.993988 15.982355
endloop
endfacet
facet normal 0.000000 1.000000 0.000000
outer loop
vertex -133.431290 -123.993988 17.504023
vertex -133.832214 -123.993988 17.528727
vertex -133.726288 -123.993996 19.482355
endloop
endfacet
facet normal 0.000000 1.000000 0.000009
outer loop
vertex -133.726288 -123.993996 19.482355
vertex -133.832214 -123.993988 17.528727
vertex -137.124588 -123.993988 17.530458
endloop
endfacet
facet normal 0.000000 1.000000 -0.000324
outer loop
vertex -133.726288 -123.993996 19.482355
vertex -137.124588 -123.993988 17.530458
vertex -137.191818 -123.993988 17.533419
endloop
endfacet
facet normal 0.000000 1.000000 0.000000
outer loop
vertex -137.191818 -123.993988 17.533419
vertex -137.259125 -123.993988 17.533449
vertex -133.726288 -123.993996 19.482355
endloop
endfacet
facet normal -0.000000 1.000000 0.000000
outer loop
vertex -140.725464 -123.993988 17.532351
vertex -141.070618 -123.993988 17.493624
vertex -140.726288 -123.993996 19.482355
endloop
endfacet
facet normal -0.000001 1.000000 0.000000
outer loop
vertex -140.726288 -123.993996 19.482355
vertex -141.070618 -123.993988 17.493624
vertex -141.398483 -123.993988 17.379007
endloop
endfacet
facet normal -0.000003 1.000000 0.000031
outer loop
vertex -140.726288 -123.993996 19.482355
vertex -141.398483 -123.993988 17.379007
vertex -141.692596 -123.993988 17.194269
endloop
endfacet
facet normal -0.000006 1.000000 0.000000
outer loop
vertex -141.692596 -123.993988 17.194269
vertex -141.938187 -123.993988 16.948671
vertex -140.726288 -123.993996 19.482355
endloop
endfacet
facet normal 0.000000 1.000000 -0.000045
outer loop
vertex -142.237549 -123.993988 16.326693
vertex -142.276276 -123.993988 15.981539
vertex -144.226288 -123.993988 15.982355
endloop
endfacet
facet normal 0.000000 1.000000 0.000000
outer loop
vertex -142.236908 -123.993988 8.635210
vertex -142.120789 -123.993988 8.305704
vertex -144.226288 -123.993988 8.982355
endloop
endfacet
facet normal 0.000000 1.000000 0.000023
outer loop
vertex -144.226288 -123.993988 8.982355
vertex -142.120789 -123.993988 8.305704
vertex -141.933823 -123.993988 8.010576
endloop
endfacet
facet normal 0.000000 1.000000 0.000012
outer loop
vertex -141.388458 -123.993988 7.580912
vertex -141.057770 -123.993988 7.468210
vertex -140.726288 -123.993988 5.482355
endloop
endfacet
facet normal 0.000000 1.000000 -0.000011
outer loop
vertex -140.726288 -123.993988 5.482355
vertex -141.057770 -123.993988 7.468210
vertex -140.710236 -123.993988 7.432436
endloop
endfacet
facet normal 0.000000 1.000000 0.000000
outer loop
vertex -140.726288 -123.993988 5.482355
vertex -140.710236 -123.993988 7.432436
vertex -137.242157 -123.993988 7.432436
endloop
endfacet
facet normal 0.000000 1.000000 0.000000
outer loop
vertex -137.242157 -123.993988 7.432436
vertex -137.231583 -123.993988 7.432360
vertex -140.726288 -123.993988 5.482355
endloop
endfacet
facet normal 0.000000 0.999996 0.002688
outer loop
vertex -140.726288 -123.993988 5.482355
vertex -137.231583 -123.993988 7.432360
vertex -137.220993 -123.993988 7.432360
endloop
endfacet
facet normal 0.028839 0.000000 0.999584
outer loop
vertex -137.293289 -126.488991 14.433802
vertex -137.293289 -127.983994 14.433802
vertex -137.248627 -126.488991 14.432512
endloop
endfacet
facet normal 0.028896 0.000000 0.999582
outer loop
vertex -137.248627 -126.488991 14.432512
vertex -137.293289 -127.983994 14.433802
vertex -137.248627 -127.983994 14.432512
endloop
endfacet
facet normal 0.000000 0.000000 1.000000
outer loop
vertex -137.248627 -126.488991 14.432512
vertex -137.248627 -127.983994 14.432512
vertex -137.203949 -126.488991 14.432512
endloop
endfacet
facet normal 0.000000 0.000000 1.000000
outer loop
vertex -137.203949 -126.488991 14.432512
vertex -137.248627 -127.983994 14.432512
vertex -137.203949 -127.983994 14.432512
endloop
endfacet
facet normal -0.028886 0.000000 0.999583
outer loop
vertex -137.203949 -126.488991 14.432512
vertex -137.203949 -127.983994 14.432512
vertex -137.159271 -126.488991 14.433802
endloop
endfacet
facet normal -0.028830 0.000000 0.999584
outer loop
vertex -137.159271 -126.488991 14.433802
vertex -137.203949 -127.983994 14.432512
vertex -137.159271 -127.983994 14.433802
endloop
endfacet
facet normal 0.000000 0.000000 1.000000
outer loop
vertex -139.176285 -127.983994 14.433802
vertex -137.293289 -127.983994 14.433802
vertex -139.176285 -126.488991 14.433802
endloop
endfacet
facet normal 0.000000 0.000000 1.000000
outer loop
vertex -139.176285 -126.488991 14.433802
vertex -137.293289 -127.983994 14.433802
vertex -137.293289 -126.488991 14.433802
endloop
endfacet
facet normal -1.000000 0.000000 0.000000
outer loop
vertex -139.176285 -127.983994 10.532434
vertex -139.176285 -127.983994 14.433802
vertex -139.176285 -126.488991 10.532434
endloop
endfacet
facet normal -1.000000 0.000000 0.000000
outer loop
vertex -139.176285 -126.488991 10.532434
vertex -139.176285 -127.983994 14.433802
vertex -139.176285 -126.488991 14.433802
endloop
endfacet
facet normal 0.000000 0.000000 -1.000000
outer loop
vertex -135.276230 -127.983994 10.532434
vertex -139.176285 -127.983994 10.532434
vertex -135.276230 -126.488991 10.532434
endloop
endfacet
facet normal 0.000000 0.000000 -1.000000
outer loop
vertex -135.276230 -126.488991 10.532434
vertex -139.176285 -127.983994 10.532434
vertex -139.176285 -126.488991 10.532434
endloop
endfacet
facet normal -0.000526 0.000000 -1.000000
outer loop
vertex -133.832214 -127.983994 17.528727
vertex -137.124588 -127.983994 17.530458
vertex -133.832214 -126.488991 17.528727
endloop
endfacet
facet normal -0.000526 0.000000 -1.000000
outer loop
vertex -133.832214 -126.488991 17.528727
vertex -137.124588 -127.983994 17.530458
vertex -137.124588 -126.488991 17.530458
endloop
endfacet
facet normal -0.978061 0.000000 -0.208320
outer loop
vertex -132.181229 -126.488991 16.106066
vertex -132.181229 -127.983994 16.106066
vertex -132.264908 -126.488991 16.498941
endloop
endfacet
facet normal -0.978061 0.000000 -0.208320
outer loop
vertex -132.264908 -126.488991 16.498941
vertex -132.181229 -127.983994 16.106066
vertex -132.264908 -127.983994 16.498941
endloop
endfacet
facet normal -0.891702 0.000000 -0.452623
outer loop
vertex -132.264908 -126.488991 16.498941
vertex -132.264908 -127.983994 16.498941
vertex -132.446716 -126.488991 16.857119
endloop
endfacet
facet normal -0.891705 0.000000 -0.452618
outer loop
vertex -132.446716 -126.488991 16.857119
vertex -132.264908 -127.983994 16.498941
vertex -132.446716 -127.983994 16.857119
endloop
endfacet
facet normal -0.745426 0.000000 -0.666589
outer loop
vertex -132.446716 -126.488991 16.857119
vertex -132.446716 -127.983994 16.857119
vertex -132.714478 -126.488991 17.156549
endloop
endfacet
facet normal -0.745429 0.000000 -0.666585
outer loop
vertex -132.714478 -126.488991 17.156549
vertex -132.446716 -127.983994 16.857119
vertex -132.714478 -127.983994 17.156549
endloop
endfacet
facet normal -0.549129 0.000000 -0.835738
outer loop
vertex -132.714478 -126.488991 17.156549
vertex -132.714478 -127.983994 17.156549
vertex -133.050171 -126.488991 17.377123
endloop
endfacet
facet normal -0.549141 0.000000 -0.835730
outer loop
vertex -133.050171 -126.488991 17.377123
vertex -132.714478 -127.983994 17.156549
vertex -133.050171 -127.983994 17.377123
endloop
endfacet
facet normal -0.315913 0.000000 -0.948788
outer loop
vertex -133.050171 -126.488991 17.377123
vertex -133.050171 -127.983994 17.377123
vertex -133.431290 -126.488991 17.504023
endloop
endfacet
facet normal -0.315917 0.000000 -0.948787
outer loop
vertex -133.431290 -126.488991 17.504023
vertex -133.050171 -127.983994 17.377123
vertex -133.431290 -127.983994 17.504023
endloop
endfacet
facet normal -0.061503 0.000000 -0.998107
outer loop
vertex -133.431290 -126.488991 17.504023
vertex -133.431290 -127.983994 17.504023
vertex -133.832214 -126.488991 17.528727
endloop
endfacet
facet normal -0.061497 0.000000 -0.998107
outer loop
vertex -133.832214 -126.488991 17.528727
vertex -133.431290 -127.983994 17.504023
vertex -133.832214 -127.983994 17.528727
endloop
endfacet
facet normal -0.999902 0.000000 -0.013992
outer loop
vertex -132.175980 -126.488991 15.978609
vertex -132.175980 -127.983994 15.978609
vertex -132.176575 -126.488991 16.021135
endloop
endfacet
facet normal -0.999902 0.000000 -0.013993
outer loop
vertex -132.176575 -126.488991 16.021135
vertex -132.175980 -127.983994 15.978609
vertex -132.176575 -127.983994 16.021135
endloop
endfacet
facet normal -0.999163 0.000000 -0.040900
outer loop
vertex -132.176575 -126.488991 16.021135
vertex -132.176575 -127.983994 16.021135
vertex -132.178314 -126.488991 16.063631
endloop
endfacet
facet normal -0.999163 0.000000 -0.040897
outer loop
vertex -132.178314 -126.488991 16.063631
vertex -132.176575 -127.983994 16.021135
vertex -132.178314 -127.983994 16.063631
endloop
endfacet
facet normal -0.997650 0.000000 -0.068521
outer loop
vertex -132.178314 -126.488991 16.063631
vertex -132.178314 -127.983994 16.063631
vertex -132.181229 -126.488991 16.106066
endloop
endfacet
facet normal -0.997650 0.000000 -0.068517
outer loop
vertex -132.181229 -126.488991 16.106066
vertex -132.178314 -127.983994 16.063631
vertex -132.181229 -127.983994 16.106066
endloop
endfacet
facet normal -1.000000 0.000000 0.000044
outer loop
vertex -132.176285 -127.983994 8.982355
vertex -132.175980 -127.983994 15.978609
vertex -132.176285 -126.488991 8.982355
endloop
endfacet
facet normal -1.000000 0.000000 0.000044
outer loop
vertex -132.176285 -126.488991 8.982355
vertex -132.175980 -127.983994 15.978609
vertex -132.175980 -126.488991 15.978609
endloop
endfacet
facet normal -0.986113 0.000000 0.166077
outer loop
vertex -132.207230 -126.488991 8.674288
vertex -132.207230 -127.983994 8.674288
vertex -132.190063 -126.488991 8.776217
endloop
endfacet
facet normal -0.986113 0.000000 0.166074
outer loop
vertex -132.190063 -126.488991 8.776217
vertex -132.207230 -127.983994 8.674288
vertex -132.190063 -127.983994 8.776217
endloop
endfacet
facet normal -0.995007 0.000000 0.099806
outer loop
vertex -132.190063 -126.488991 8.776217
vertex -132.190063 -127.983994 8.776217
vertex -132.179749 -126.488991 8.879053
endloop
endfacet
facet normal -0.995007 0.000000 0.099802
outer loop
vertex -132.179749 -126.488991 8.879053
vertex -132.190063 -127.983994 8.776217
vertex -132.179749 -127.983994 8.879053
endloop
endfacet
facet normal -0.999438 0.000000 0.033512
outer loop
vertex -132.179749 -126.488991 8.879053
vertex -132.179749 -127.983994 8.879053
vertex -132.176285 -126.488991 8.982355
endloop
endfacet
facet normal -0.999438 0.000000 0.033511
outer loop
vertex -132.176285 -126.488991 8.982355
vertex -132.179749 -127.983994 8.879053
vertex -132.176285 -127.983994 8.982355
endloop
endfacet
facet normal -0.494437 0.000000 0.869213
outer loop
vertex -133.129440 -126.488991 7.551950
vertex -133.129440 -127.983994 7.551950
vertex -132.801727 -126.488991 7.738367
endloop
endfacet
facet normal -0.494446 0.000000 0.869209
outer loop
vertex -132.801727 -126.488991 7.738367
vertex -133.129440 -127.983994 7.551950
vertex -132.801727 -127.983994 7.738367
endloop
endfacet
facet normal -0.689671 0.000000 0.724123
outer loop
vertex -132.801727 -126.488991 7.738367
vertex -132.801727 -127.983994 7.738367
vertex -132.528717 -126.488991 7.998392
endloop
endfacet
facet normal -0.689683 0.000000 0.724111
outer loop
vertex -132.528717 -126.488991 7.998392
vertex -132.801727 -127.983994 7.738367
vertex -132.528717 -127.983994 7.998392
endloop
endfacet
facet normal -0.844093 0.000000 0.536197
outer loop
vertex -132.528717 -126.488991 7.998392
vertex -132.528717 -127.983994 7.998392
vertex -132.326553 -126.488991 8.316645
endloop
endfacet
facet normal -0.844098 0.000000 0.536189
outer loop
vertex -132.326553 -126.488991 8.316645
vertex -132.528717 -127.983994 7.998392
vertex -132.326553 -127.983994 8.316645
endloop
endfacet
facet normal -0.948597 0.000000 0.316488
outer loop
vertex -132.326553 -126.488991 8.316645
vertex -132.326553 -127.983994 8.316645
vertex -132.207230 -126.488991 8.674288
endloop
endfacet
facet normal -0.948597 0.000000 0.316488
outer loop
vertex -132.207230 -126.488991 8.674288
vertex -132.326553 -127.983994 8.316645
vertex -132.207230 -127.983994 8.674288
endloop
endfacet
facet normal -0.065833 0.000000 0.997831
outer loop
vertex -133.726288 -126.488991 7.432436
vertex -133.726288 -127.983994 7.432436
vertex -133.522644 -126.488991 7.445871
endloop
endfacet
facet normal -0.065833 0.000000 0.997831
outer loop
vertex -133.522644 -126.488991 7.445871
vertex -133.726288 -127.983994 7.432436
vertex -133.522644 -127.983994 7.445871
endloop
endfacet
facet normal -0.196346 0.000000 0.980535
outer loop
vertex -133.522644 -126.488991 7.445871
vertex -133.522644 -127.983994 7.445871
vertex -133.322540 -127.983994 7.485941
endloop
endfacet
facet normal -0.323464 0.000000 0.946241
outer loop
vertex -133.129440 -127.983994 7.551950
vertex -133.129440 -126.488991 7.551950
vertex -133.322540 -127.983994 7.485941
endloop
endfacet
facet normal -0.323460 0.000000 0.946242
outer loop
vertex -133.322540 -127.983994 7.485941
vertex -133.129440 -126.488991 7.551950
vertex -133.322540 -126.488991 7.485941
endloop
endfacet
facet normal -0.196346 0.000000 0.980535
outer loop
vertex -133.322540 -127.983994 7.485941
vertex -133.322540 -126.488991 7.485941
vertex -133.522644 -126.488991 7.445871
endloop
endfacet
facet normal 1.000000 0.000000 -0.000047
outer loop
vertex -135.276138 -127.983994 12.461061
vertex -135.276230 -127.983994 10.532434
vertex -135.276138 -126.488991 12.461061
endloop
endfacet
facet normal 1.000000 0.000000 -0.000047
outer loop
vertex -135.276138 -126.488991 12.461061
vertex -135.276230 -127.983994 10.532434
vertex -135.276230 -126.488991 10.532434
endloop
endfacet
facet normal 0.999954 0.000000 -0.009645
outer loop
vertex -135.276138 -126.488991 12.503778
vertex -135.276138 -127.983994 12.503778
vertex -135.276276 -126.488991 12.489542
endloop
endfacet
facet normal 0.999954 0.000000 -0.009646
outer loop
vertex -135.276276 -126.488991 12.489542
vertex -135.276138 -127.983994 12.503778
vertex -135.276276 -127.983994 12.489542
endloop
endfacet
facet normal 1.000000 0.000000 0.000000
outer loop
vertex -135.276276 -126.488991 12.489542
vertex -135.276276 -127.983994 12.489542
vertex -135.276276 -126.488991 12.475298
endloop
endfacet
facet normal 1.000000 0.000000 0.000000
outer loop
vertex -135.276276 -126.488991 12.475298
vertex -135.276276 -127.983994 12.489542
vertex -135.276276 -127.983994 12.475298
endloop
endfacet
facet normal 0.999954 0.000000 0.009646
outer loop
vertex -135.276276 -126.488991 12.475298
vertex -135.276276 -127.983994 12.475298
vertex -135.276138 -126.488991 12.461061
endloop
endfacet
facet normal 0.999954 0.000000 0.009646
outer loop
vertex -135.276138 -126.488991 12.461061
vertex -135.276276 -127.983994 12.475298
vertex -135.276138 -127.983994 12.461061
endloop
endfacet
facet normal 1.000000 0.000000 -0.000047
outer loop
vertex -135.276047 -127.983994 14.433802
vertex -135.276138 -127.983994 12.503778
vertex -135.276047 -126.488991 14.433802
endloop
endfacet
facet normal 1.000000 0.000000 -0.000047
outer loop
vertex -135.276047 -126.488991 14.433802
vertex -135.276138 -127.983994 12.503778
vertex -135.276138 -126.488991 12.503778
endloop
endfacet
facet normal 0.000000 0.000000 1.000000
outer loop
vertex -137.159271 -127.983994 14.433802
vertex -135.276047 -127.983994 14.433802
vertex -137.159271 -126.488991 14.433802
endloop
endfacet
facet normal 0.000000 0.000000 1.000000
outer loop
vertex -137.159271 -126.488991 14.433802
vertex -135.276047 -127.983994 14.433802
vertex -135.276047 -126.488991 14.433802
endloop
endfacet
facet normal -0.000525 0.000000 -1.000000
outer loop
vertex -137.326355 -127.983994 17.530565
vertex -140.725464 -127.983994 17.532351
vertex -137.326355 -126.488991 17.530565
endloop
endfacet
facet normal -0.000525 0.000000 -1.000000
outer loop
vertex -137.326355 -126.488991 17.530565
vertex -140.725464 -127.983994 17.532351
vertex -140.725464 -126.488991 17.532351
endloop
endfacet
facet normal -0.043984 0.000000 -0.999032
outer loop
vertex -137.124588 -126.488991 17.530458
vertex -137.124588 -127.983994 17.530458
vertex -137.191818 -126.488991 17.533419
endloop
endfacet
facet normal -0.043984 0.000000 -0.999032
outer loop
vertex -137.191818 -126.488991 17.533419
vertex -137.124588 -127.983994 17.530458
vertex -137.191818 -127.983994 17.533419
endloop
endfacet
facet normal -0.000455 0.000000 -1.000000
outer loop
vertex -137.191818 -126.488991 17.533419
vertex -137.191818 -127.983994 17.533419
vertex -137.259125 -126.488991 17.533449
endloop
endfacet
facet normal -0.000455 0.000000 -1.000000
outer loop
vertex -137.259125 -126.488991 17.533449
vertex -137.191818 -127.983994 17.533419
vertex -137.259125 -127.983994 17.533449
endloop
endfacet
facet normal 0.042848 0.000000 -0.999082
outer loop
vertex -137.259125 -126.488991 17.533449
vertex -137.259125 -127.983994 17.533449
vertex -137.326355 -126.488991 17.530565
endloop
endfacet
facet normal 0.042886 0.000000 -0.999080
outer loop
vertex -137.326355 -126.488991 17.530565
vertex -137.259125 -127.983994 17.533449
vertex -137.326355 -127.983994 17.530565
endloop
endfacet
facet normal 0.000000 0.000000 1.000000
outer loop
vertex -137.210403 -127.983994 7.432436
vertex -133.726288 -127.983994 7.432436
vertex -137.210403 -126.488991 7.432436
endloop
endfacet
facet normal 0.000000 0.000000 1.000000
outer loop
vertex -137.210403 -126.488991 7.432436
vertex -133.726288 -127.983994 7.432436
vertex -133.726288 -126.488991 7.432436
endloop
endfacet
facet normal 0.007239 0.000000 0.999974
outer loop
vertex -137.242157 -126.488991 7.432436
vertex -137.242157 -127.983994 7.432436
vertex -137.231583 -126.488991 7.432360
endloop
endfacet
facet normal 0.007239 0.000000 0.999974
outer loop
vertex -137.231583 -126.488991 7.432360
vertex -137.242157 -127.983994 7.432436
vertex -137.231583 -127.983994 7.432360
endloop
endfacet
facet normal 0.000000 0.000000 1.000000
outer loop
vertex -137.231583 -126.488991 7.432360
vertex -137.231583 -127.983994 7.432360
vertex -137.220993 -126.488991 7.432360
endloop
endfacet
facet normal 0.000000 0.000000 1.000000
outer loop
vertex -137.220993 -126.488991 7.432360
vertex -137.231583 -127.983994 7.432360
vertex -137.220993 -127.983994 7.432360
endloop
endfacet
facet normal -0.007229 0.000000 0.999974
outer loop
vertex -137.220993 -126.488991 7.432360
vertex -137.220993 -127.983994 7.432360
vertex -137.210403 -126.488991 7.432436
endloop
endfacet
facet normal -0.007229 0.000000 0.999974
outer loop
vertex -137.210403 -126.488991 7.432436
vertex -137.220993 -127.983994 7.432360
vertex -137.210403 -127.983994 7.432436
endloop
endfacet
facet normal 0.000000 0.000000 1.000000
outer loop
vertex -140.710236 -127.983994 7.432436
vertex -137.242157 -127.983994 7.432436
vertex -140.710236 -126.488991 7.432436
endloop
endfacet
facet normal 0.000000 0.000000 1.000000
outer loop
vertex -140.710236 -126.488991 7.432436
vertex -137.242157 -127.983994 7.432436
vertex -137.242157 -126.488991 7.432436
endloop
endfacet
facet normal 0.993631 0.000000 0.112683
outer loop
vertex -142.276276 -126.488991 8.982355
vertex -142.276276 -127.983994 8.982355
vertex -142.236908 -126.488991 8.635210
endloop
endfacet
facet normal 0.993631 0.000000 0.112682
outer loop
vertex -142.236908 -126.488991 8.635210
vertex -142.276276 -127.983994 8.982355
vertex -142.236908 -127.983994 8.635210
endloop
endfacet
facet normal 0.943150 0.000000 0.332368
outer loop
vertex -142.236908 -126.488991 8.635210
vertex -142.236908 -127.983994 8.635210
vertex -142.120789 -127.983994 8.305704
endloop
endfacet
facet normal 0.943149 0.000000 0.332370
outer loop
vertex -142.236908 -126.488991 8.635210
vertex -142.120789 -127.983994 8.305704
vertex -142.120789 -126.488991 8.305704
endloop
endfacet
facet normal 0.844753 0.000000 0.535157
outer loop
vertex -142.120789 -126.488991 8.305704
vertex -142.120789 -127.983994 8.305704
vertex -141.933823 -127.983994 8.010576
endloop
endfacet
facet normal 0.844752 0.000000 0.535158
outer loop
vertex -142.120789 -126.488991 8.305704
vertex -141.933823 -127.983994 8.010576
vertex -141.933823 -126.488991 8.010576
endloop
endfacet
facet normal 0.703433 0.000000 0.710762
outer loop
vertex -141.933823 -126.488991 8.010576
vertex -141.933823 -127.983994 8.010576
vertex -141.685501 -127.983994 7.764818
endloop
endfacet
facet normal 0.703427 0.000000 0.710767
outer loop
vertex -141.933823 -126.488991 8.010576
vertex -141.685501 -127.983994 7.764818
vertex -141.685501 -126.488991 7.764818
endloop
endfacet
facet normal 0.526398 0.000000 0.850238
outer loop
vertex -141.685501 -126.488991 7.764818
vertex -141.685501 -127.983994 7.764818
vertex -141.388458 -127.983994 7.580912
endloop
endfacet
facet normal 0.526404 0.000000 0.850234
outer loop
vertex -141.685501 -126.488991 7.764818
vertex -141.388458 -127.983994 7.580912
vertex -141.388458 -126.488991 7.580912
endloop
endfacet
facet normal 0.322591 0.000000 0.946538
outer loop
vertex -141.388458 -126.488991 7.580912
vertex -141.388458 -127.983994 7.580912
vertex -141.057770 -127.983994 7.468210
endloop
endfacet
facet normal 0.322588 0.000000 0.946539
outer loop
vertex -141.388458 -126.488991 7.580912
vertex -141.057770 -127.983994 7.468210
vertex -141.057770 -126.488991 7.468210
endloop
endfacet
facet normal 0.102398 0.000000 0.994743
outer loop
vertex -141.057770 -126.488991 7.468210
vertex -141.057770 -127.983994 7.468210
vertex -140.710236 -126.488991 7.432436
endloop
endfacet
facet normal 0.102396 0.000000 0.994744
outer loop
vertex -140.710236 -126.488991 7.432436
vertex -141.057770 -127.983994 7.468210
vertex -140.710236 -127.983994 7.432436
endloop
endfacet
facet normal 1.000000 0.000000 0.000000
outer loop
vertex -142.276276 -127.983994 15.981539
vertex -142.276276 -127.983994 8.982355
vertex -142.276276 -126.488991 15.981539
endloop
endfacet
facet normal 1.000000 0.000000 0.000000
outer loop
vertex -142.276276 -126.488991 15.981539
vertex -142.276276 -127.983994 8.982355
vertex -142.276276 -126.488991 8.982355
endloop
endfacet
facet normal 0.111507 0.000000 -0.993764
outer loop
vertex -140.725464 -126.488991 17.532351
vertex -140.725464 -127.983994 17.532351
vertex -141.070618 -126.488991 17.493624
endloop
endfacet
facet normal 0.111500 0.000000 -0.993764
outer loop
vertex -141.070618 -126.488991 17.493624
vertex -140.725464 -127.983994 17.532351
vertex -141.070618 -127.983994 17.493624
endloop
endfacet
facet normal 0.330002 0.000000 -0.943980
outer loop
vertex -141.070618 -126.488991 17.493624
vertex -141.070618 -127.983994 17.493624
vertex -141.398483 -127.983994 17.379007
endloop
endfacet
facet normal 0.329996 0.000000 -0.943982
outer loop
vertex -141.070618 -126.488991 17.493624
vertex -141.398483 -127.983994 17.379007
vertex -141.398483 -126.488991 17.379007
endloop
endfacet
facet normal 0.531900 0.000000 -0.846807
outer loop
vertex -141.398483 -126.488991 17.379007
vertex -141.398483 -127.983994 17.379007
vertex -141.692596 -127.983994 17.194269
endloop
endfacet
facet normal 0.531893 0.000000 -0.846812
outer loop
vertex -141.398483 -126.488991 17.379007
vertex -141.692596 -127.983994 17.194269
vertex -141.692596 -126.488991 17.194269
endloop
endfacet
facet normal 0.707121 0.000000 -0.707092
outer loop
vertex -141.692596 -126.488991 17.194269
vertex -141.692596 -127.983994 17.194269
vertex -141.938187 -127.983994 16.948671
endloop
endfacet
facet normal 0.707114 0.000000 -0.707099
outer loop
vertex -141.692596 -126.488991 17.194269
vertex -141.938187 -127.983994 16.948671
vertex -141.938187 -126.488991 16.948671
endloop
endfacet
facet normal 0.846790 0.000000 -0.531928
outer loop
vertex -141.938187 -126.488991 16.948671
vertex -141.938187 -127.983994 16.948671
vertex -142.122940 -127.983994 16.654558
endloop
endfacet
facet normal 0.846788 0.000000 -0.531931
outer loop
vertex -141.938187 -126.488991 16.948671
vertex -142.122940 -127.983994 16.654558
vertex -142.122940 -126.488991 16.654558
endloop
endfacet
facet normal 0.943989 0.000000 -0.329977
outer loop
vertex -142.122940 -126.488991 16.654558
vertex -142.122940 -127.983994 16.654558
vertex -142.237549 -127.983994 16.326693
endloop
endfacet
facet normal 0.943987 0.000000 -0.329983
outer loop
vertex -142.122940 -126.488991 16.654558
vertex -142.237549 -127.983994 16.326693
vertex -142.237549 -126.488991 16.326693
endloop
endfacet
facet normal 0.993764 0.000000 -0.111502
outer loop
vertex -142.237549 -126.488991 16.326693
vertex -142.237549 -127.983994 16.326693
vertex -142.276276 -126.488991 15.981539
endloop
endfacet
facet normal 0.993764 0.000000 -0.111502
outer loop
vertex -142.276276 -126.488991 15.981539
vertex -142.237549 -127.983994 16.326693
vertex -142.276276 -127.983994 15.981539
endloop
endfacet
facet normal 0.000000 -1.000000 -0.000003
outer loop
vertex -139.176285 -126.488991 10.532434
vertex -137.210403 -126.488991 7.432436
vertex -135.276230 -126.488991 10.532434
endloop
endfacet
facet normal 0.000000 -1.000000 0.000000
outer loop
vertex -135.276230 -126.488991 10.532434
vertex -137.210403 -126.488991 7.432436
vertex -133.726288 -126.488991 7.432436
endloop
endfacet
facet normal 0.000000 -1.000000 0.000000
outer loop
vertex -135.276230 -126.488991 10.532434
vertex -133.726288 -126.488991 7.432436
vertex -132.176285 -126.488991 8.982355
endloop
endfacet
facet normal 0.000000 -1.000000 0.000000
outer loop
vertex -132.176285 -126.488991 8.982355
vertex -133.726288 -126.488991 7.432436
vertex -132.179749 -126.488991 8.879053
endloop
endfacet
facet normal 0.000000 -1.000000 0.000212
outer loop
vertex -132.179749 -126.488991 8.879053
vertex -133.726288 -126.488991 7.432436
vertex -132.190063 -126.488991 8.776217
endloop
endfacet
facet normal 0.000000 -1.000000 -0.000229
outer loop
vertex -132.190063 -126.488991 8.776217
vertex -133.726288 -126.488991 7.432436
vertex -132.207230 -126.488991 8.674288
endloop
endfacet
facet normal 0.000000 -1.000000 0.000016
outer loop
vertex -132.207230 -126.488991 8.674288
vertex -133.726288 -126.488991 7.432436
vertex -133.522644 -126.488991 7.445871
endloop
endfacet
facet normal 0.000000 -1.000000 0.000099
outer loop
vertex -132.207230 -126.488991 8.674288
vertex -133.522644 -126.488991 7.445871
vertex -133.322540 -126.488991 7.485941
endloop
endfacet
facet normal 0.000000 -1.000000 0.000000
outer loop
vertex -139.176285 -126.488991 14.433802
vertex -142.276276 -126.488991 15.981539
vertex -139.176285 -126.488991 10.532434
endloop
endfacet
facet normal 0.000000 -1.000000 0.000000
outer loop
vertex -139.176285 -126.488991 10.532434
vertex -142.276276 -126.488991 15.981539
vertex -142.276276 -126.488991 8.982355
endloop
endfacet
facet normal 0.000000 -1.000000 -0.000011
outer loop
vertex -139.176285 -126.488991 10.532434
vertex -142.276276 -126.488991 8.982355
vertex -142.236908 -126.488991 8.635210
endloop
endfacet
facet normal 0.000000 -1.000000 -0.000005
outer loop
vertex -137.293289 -126.488991 14.433802
vertex -137.326355 -126.488991 17.530565
vertex -139.176285 -126.488991 14.433802
endloop
endfacet
facet normal 0.000000 -1.000000 0.000000
outer loop
vertex -139.176285 -126.488991 14.433802
vertex -137.326355 -126.488991 17.530565
vertex -140.725464 -126.488991 17.532351
endloop
endfacet
facet normal 0.000000 -1.000000 0.000000
outer loop
vertex -139.176285 -126.488991 14.433802
vertex -140.725464 -126.488991 17.532351
vertex -142.276276 -126.488991 15.981539
endloop
endfacet
facet normal 0.000000 -1.000000 0.000000
outer loop
vertex -142.276276 -126.488991 15.981539
vertex -140.725464 -126.488991 17.532351
vertex -141.070618 -126.488991 17.493624
endloop
endfacet
facet normal 0.000000 -1.000000 0.000000
outer loop
vertex -142.276276 -126.488991 15.981539
vertex -141.070618 -126.488991 17.493624
vertex -141.398483 -126.488991 17.379007
endloop
endfacet
facet normal 0.000000 -1.000000 0.000000
outer loop
vertex -137.293289 -126.488991 14.433802
vertex -137.248627 -126.488991 14.432512
vertex -137.326355 -126.488991 17.530565
endloop
endfacet
facet normal 0.000000 -1.000000 0.000000
outer loop
vertex -137.326355 -126.488991 17.530565
vertex -137.248627 -126.488991 14.432512
vertex -137.203949 -126.488991 14.432512
endloop
endfacet
facet normal 0.000000 -1.000000 -0.000014
outer loop
vertex -137.326355 -126.488991 17.530565
vertex -137.203949 -126.488991 14.432512
vertex -137.159271 -126.488991 14.433802
endloop
endfacet
facet normal 0.000000 -1.000000 0.000003
outer loop
vertex -135.276047 -126.488991 14.433802
vertex -137.124588 -126.488991 17.530458
vertex -137.159271 -126.488991 14.433802
endloop
endfacet
facet normal 0.000000 -1.000000 0.000000
outer loop
vertex -137.159271 -126.488991 14.433802
vertex -137.124588 -126.488991 17.530458
vertex -137.191818 -126.488991 17.533419
endloop
endfacet
facet normal 0.000000 -1.000000 -0.000009
outer loop
vertex -137.159271 -126.488991 14.433802
vertex -137.191818 -126.488991 17.533419
vertex -137.259125 -126.488991 17.533449
endloop
endfacet
facet normal 0.000000 -1.000000 0.000010
outer loop
vertex -135.276138 -126.488991 12.503778
vertex -132.175980 -126.488991 15.978609
vertex -135.276047 -126.488991 14.433802
endloop
endfacet
facet normal 0.000000 -1.000000 -0.000004
outer loop
vertex -135.276047 -126.488991 14.433802
vertex -132.175980 -126.488991 15.978609
vertex -133.832214 -126.488991 17.528727
endloop
endfacet
facet normal 0.000000 -1.000000 0.000000
outer loop
vertex -135.276047 -126.488991 14.433802
vertex -133.832214 -126.488991 17.528727
vertex -137.124588 -126.488991 17.530458
endloop
endfacet
facet normal 0.000000 -1.000000 0.000000
outer loop
vertex -135.276276 -126.488991 12.489542
vertex -135.276276 -126.488991 12.475298
vertex -135.276138 -126.488991 12.503778
endloop
endfacet
facet normal 0.000000 -1.000000 0.000000
outer loop
vertex -135.276138 -126.488991 12.503778
vertex -135.276276 -126.488991 12.475298
vertex -135.276138 -126.488991 12.461061
endloop
endfacet
facet normal 0.000000 -1.000000 0.000000
outer loop
vertex -135.276138 -126.488991 12.503778
vertex -135.276138 -126.488991 12.461061
vertex -132.175980 -126.488991 15.978609
endloop
endfacet
facet normal 0.000000 -1.000000 0.000000
outer loop
vertex -132.175980 -126.488991 15.978609
vertex -135.276138 -126.488991 12.461061
vertex -132.176285 -126.488991 8.982355
endloop
endfacet
facet normal 0.000000 -1.000000 -0.000005
outer loop
vertex -132.176285 -126.488991 8.982355
vertex -135.276138 -126.488991 12.461061
vertex -135.276230 -126.488991 10.532434
endloop
endfacet
facet normal 0.000000 -1.000000 0.000000
outer loop
vertex -141.398483 -126.488991 17.379007
vertex -141.692596 -126.488991 17.194269
vertex -142.276276 -126.488991 15.981539
endloop
endfacet
facet normal 0.000000 -1.000000 0.000049
outer loop
vertex -142.276276 -126.488991 15.981539
vertex -141.692596 -126.488991 17.194269
vertex -141.938187 -126.488991 16.948671
endloop
endfacet
facet normal 0.000000 -1.000000 -0.000048
outer loop
vertex -142.276276 -126.488991 15.981539
vertex -141.938187 -126.488991 16.948671
vertex -142.122940 -126.488991 16.654558
endloop
endfacet
facet normal 0.000000 -1.000000 0.000000
outer loop
vertex -142.122940 -126.488991 16.654558
vertex -142.237549 -126.488991 16.326693
vertex -142.276276 -126.488991 15.981539
endloop
endfacet
facet normal 0.000000 -1.000000 0.000050
outer loop
vertex -142.236908 -126.488991 8.635210
vertex -142.120789 -126.488991 8.305704
vertex -139.176285 -126.488991 10.532434
endloop
endfacet
facet normal 0.000000 -1.000000 -0.000009
outer loop
vertex -139.176285 -126.488991 10.532434
vertex -142.120789 -126.488991 8.305704
vertex -141.933823 -126.488991 8.010576
endloop
endfacet
facet normal 0.000000 -1.000000 -0.000003
outer loop
vertex -139.176285 -126.488991 10.532434
vertex -141.933823 -126.488991 8.010576
vertex -141.685501 -126.488991 7.764818
endloop
endfacet
facet normal 0.000000 -1.000000 0.000000
outer loop
vertex -141.685501 -126.488991 7.764818
vertex -141.388458 -126.488991 7.580912
vertex -139.176285 -126.488991 10.532434
endloop
endfacet
facet normal 0.000000 -1.000000 0.000012
outer loop
vertex -139.176285 -126.488991 10.532434
vertex -141.388458 -126.488991 7.580912
vertex -141.057770 -126.488991 7.468210
endloop
endfacet
facet normal 0.000000 -1.000000 0.000007
outer loop
vertex -139.176285 -126.488991 10.532434
vertex -141.057770 -126.488991 7.468210
vertex -140.710236 -126.488991 7.432436
endloop
endfacet
facet normal 0.000000 -1.000000 0.000000
outer loop
vertex -140.710236 -126.488991 7.432436
vertex -137.242157 -126.488991 7.432436
vertex -139.176285 -126.488991 10.532434
endloop
endfacet
facet normal 0.000000 -1.000000 -0.000126
outer loop
vertex -139.176285 -126.488991 10.532434
vertex -137.242157 -126.488991 7.432436
vertex -137.210403 -126.488991 7.432436
endloop
endfacet
facet normal 0.000000 -0.861832 -0.507193
outer loop
vertex -137.231583 -126.488991 7.432360
vertex -137.220993 -126.488991 7.432360
vertex -137.242157 -126.488991 7.432436
endloop
endfacet
facet normal 0.000000 -1.000000 0.000000
outer loop
vertex -137.242157 -126.488991 7.432436
vertex -137.220993 -126.488991 7.432360
vertex -137.210403 -126.488991 7.432436
endloop
endfacet
facet normal 0.000000 -1.000000 -0.000098
outer loop
vertex -133.322540 -126.488991 7.485941
vertex -133.129440 -126.488991 7.551950
vertex -132.207230 -126.488991 8.674288
endloop
endfacet
facet normal 0.000000 -1.000000 0.000000
outer loop
vertex -132.207230 -126.488991 8.674288
vertex -133.129440 -126.488991 7.551950
vertex -132.801727 -126.488991 7.738367
endloop
endfacet
facet normal 0.000000 -1.000000 0.000000
outer loop
vertex -132.207230 -126.488991 8.674288
vertex -132.801727 -126.488991 7.738367
vertex -132.528717 -126.488991 7.998392
endloop
endfacet
facet normal 0.000000 -1.000000 0.000056
outer loop
vertex -132.528717 -126.488991 7.998392
vertex -132.326553 -126.488991 8.316645
vertex -132.207230 -126.488991 8.674288
endloop
endfacet
facet normal 0.000000 -1.000000 0.000439
outer loop
vertex -132.175980 -126.488991 15.978609
vertex -132.176575 -126.488991 16.021135
vertex -133.832214 -126.488991 17.528727
endloop
endfacet
facet normal 0.000000 -1.000000 -0.000336
outer loop
vertex -133.832214 -126.488991 17.528727
vertex -132.176575 -126.488991 16.021135
vertex -132.178314 -126.488991 16.063631
endloop
endfacet
facet normal 0.000000 -1.000000 0.000279
outer loop
vertex -133.832214 -126.488991 17.528727
vertex -132.178314 -126.488991 16.063631
vertex -132.181229 -126.488991 16.106066
endloop
endfacet
facet normal 0.000000 -1.000000 0.000000
outer loop
vertex -132.264908 -126.488991 16.498941
vertex -132.446716 -126.488991 16.857119
vertex -132.181229 -126.488991 16.106066
endloop
endfacet
facet normal 0.000000 -1.000000 0.000063
outer loop
vertex -132.181229 -126.488991 16.106066
vertex -132.446716 -126.488991 16.857119
vertex -132.714478 -126.488991 17.156549
endloop
endfacet
facet normal 0.000000 -1.000000 -0.000032
outer loop
vertex -132.181229 -126.488991 16.106066
vertex -132.714478 -126.488991 17.156549
vertex -133.050171 -126.488991 17.377123
endloop
endfacet
facet normal 0.000000 -1.000000 0.000000
outer loop
vertex -133.050171 -126.488991 17.377123
vertex -133.431290 -126.488991 17.504023
vertex -132.181229 -126.488991 16.106066
endloop
endfacet
facet normal 0.000000 -1.000000 -0.000014
outer loop
vertex -132.181229 -126.488991 16.106066
vertex -133.431290 -126.488991 17.504023
vertex -133.832214 -126.488991 17.528727
endloop
endfacet
facet normal 0.000000 -1.000000 0.000000
outer loop
vertex -137.259125 -126.488991 17.533449
vertex -137.326355 -126.488991 17.530565
vertex -137.159271 -126.488991 14.433802
endloop
endfacet
facet normal 0.000000 -1.000000 0.000000
outer loop
vertex -133.726288 -127.983994 5.482355
vertex -137.231583 -127.983994 7.432360
vertex -140.726288 -127.983994 5.482355
endloop
endfacet
facet normal 0.000000 -0.999999 -0.001325
outer loop
vertex -140.726288 -127.983994 5.482355
vertex -137.231583 -127.983994 7.432360
vertex -137.242157 -127.983994 7.432436
endloop
endfacet
facet normal 0.000000 -1.000000 0.000000
outer loop
vertex -140.726288 -127.983994 5.482355
vertex -137.242157 -127.983994 7.432436
vertex -140.710236 -127.983994 7.432436
endloop
endfacet
facet normal 0.000000 -1.000000 0.000000
outer loop
vertex -130.226288 -127.983994 8.982355
vertex -132.528717 -127.983994 7.998392
vertex -133.726288 -127.983994 5.482355
endloop
endfacet
facet normal 0.000000 -1.000000 0.000041
outer loop
vertex -133.726288 -127.983994 5.482355
vertex -132.528717 -127.983994 7.998392
vertex -132.801727 -127.983994 7.738367
endloop
endfacet
facet normal 0.000000 -1.000000 -0.000013
outer loop
vertex -133.726288 -127.983994 5.482355
vertex -132.801727 -127.983994 7.738367
vertex -133.129440 -127.983994 7.551950
endloop
endfacet
facet normal 0.000000 -1.000000 0.000000
outer loop
vertex -130.226288 -127.983994 15.982355
vertex -132.175980 -127.983994 15.978609
vertex -130.226288 -127.983994 8.982355
endloop
endfacet
facet normal 0.000000 -1.000000 -0.000002
outer loop
vertex -130.226288 -127.983994 8.982355
vertex -132.175980 -127.983994 15.978609
vertex -132.176285 -127.983994 8.982355
endloop
endfacet
facet normal 0.000000 -1.000000 0.000096
outer loop
vertex -130.226288 -127.983994 8.982355
vertex -132.176285 -127.983994 8.982355
vertex -132.179749 -127.983994 8.879053
endloop
endfacet
facet normal 0.000000 -1.000000 0.000013
outer loop
vertex -133.726288 -127.983994 19.482355
vertex -132.714478 -127.983994 17.156549
vertex -130.226288 -127.983994 15.982355
endloop
endfacet
facet normal 0.000000 -1.000000 -0.000071
outer loop
vertex -130.226288 -127.983994 15.982355
vertex -132.714478 -127.983994 17.156549
vertex -132.446716 -127.983994 16.857119
endloop
endfacet
facet normal 0.000000 -1.000000 0.000060
outer loop
vertex -130.226288 -127.983994 15.982355
vertex -132.446716 -127.983994 16.857119
vertex -132.264908 -127.983994 16.498941
endloop
endfacet
facet normal 0.000000 -1.000000 0.000000
outer loop
vertex -140.726288 -127.983994 19.482355
vertex -137.259125 -127.983994 17.533449
vertex -133.726288 -127.983994 19.482355
endloop
endfacet
facet normal 0.000000 -1.000000 -0.000145
outer loop
vertex -133.726288 -127.983994 19.482355
vertex -137.259125 -127.983994 17.533449
vertex -137.191818 -127.983994 17.533419
endloop
endfacet
facet normal 0.000000 -1.000000 0.000324
outer loop
vertex -133.726288 -127.983994 19.482355
vertex -137.191818 -127.983994 17.533419
vertex -137.124588 -127.983994 17.530458
endloop
endfacet
facet normal 0.000000 -1.000000 0.000007
outer loop
vertex -144.226288 -127.983994 15.982355
vertex -141.938187 -127.983994 16.948671
vertex -140.726288 -127.983994 19.482355
endloop
endfacet
facet normal 0.000000 -1.000000 -0.000012
outer loop
vertex -140.726288 -127.983994 19.482355
vertex -141.938187 -127.983994 16.948671
vertex -141.692596 -127.983994 17.194269
endloop
endfacet
facet normal 0.000000 -1.000000 0.000000
outer loop
vertex -140.726288 -127.983994 19.482355
vertex -141.692596 -127.983994 17.194269
vertex -141.398483 -127.983994 17.379007
endloop
endfacet
facet normal 0.000000 -1.000000 0.000000
outer loop
vertex -144.226288 -127.983994 8.982355
vertex -142.276276 -127.983994 15.981539
vertex -144.226288 -127.983994 15.982355
endloop
endfacet
facet normal 0.000000 -1.000000 -0.000028
outer loop
vertex -144.226288 -127.983994 15.982355
vertex -142.276276 -127.983994 15.981539
vertex -142.237549 -127.983994 16.326693
endloop
endfacet
facet normal 0.000000 -1.000000 -0.000012
outer loop
vertex -144.226288 -127.983994 15.982355
vertex -142.237549 -127.983994 16.326693
vertex -142.122940 -127.983994 16.654558
endloop
endfacet
facet normal 0.000000 -1.000000 0.000000
outer loop
vertex -140.726288 -127.983994 5.482355
vertex -141.933823 -127.983994 8.010576
vertex -144.226288 -127.983994 8.982355
endloop
endfacet
facet normal 0.000000 -1.000000 0.000008
outer loop
vertex -144.226288 -127.983994 8.982355
vertex -141.933823 -127.983994 8.010576
vertex -142.120789 -127.983994 8.305704
endloop
endfacet
facet normal 0.000000 -1.000000 0.000040
outer loop
vertex -144.226288 -127.983994 8.982355
vertex -142.120789 -127.983994 8.305704
vertex -142.236908 -127.983994 8.635210
endloop
endfacet
facet normal 0.000000 -1.000000 0.000000
outer loop
vertex -133.522644 -127.983994 7.445871
vertex -133.726288 -127.983994 7.432436
vertex -133.726288 -127.983994 5.482355
endloop
endfacet
facet normal 0.000000 -1.000000 0.000000
outer loop
vertex -133.726288 -127.983994 5.482355
vertex -133.726288 -127.983994 7.432436
vertex -137.210403 -127.983994 7.432436
endloop
endfacet
facet normal 0.000000 -0.999999 -0.001306
outer loop
vertex -133.726288 -127.983994 5.482355
vertex -137.210403 -127.983994 7.432436
vertex -137.220993 -127.983994 7.432360
endloop
endfacet
facet normal 0.000000 -1.000000 0.000000
outer loop
vertex -137.220993 -127.983994 7.432360
vertex -137.231583 -127.983994 7.432360
vertex -133.726288 -127.983994 5.482355
endloop
endfacet
facet normal 0.000000 -1.000000 0.000000
outer loop
vertex -140.710236 -127.983994 7.432436
vertex -141.057770 -127.983994 7.468210
vertex -140.726288 -127.983994 5.482355
endloop
endfacet
facet normal 0.000000 -1.000000 0.000012
outer loop
vertex -140.726288 -127.983994 5.482355
vertex -141.057770 -127.983994 7.468210
vertex -141.388458 -127.983994 7.580912
endloop
endfacet
facet normal 0.000000 -1.000000 0.000000
outer loop
vertex -140.726288 -127.983994 5.482355
vertex -141.388458 -127.983994 7.580912
vertex -141.685501 -127.983994 7.764818
endloop
endfacet
facet normal 0.000000 -1.000000 -0.000092
outer loop
vertex -141.685501 -127.983994 7.764818
vertex -141.933823 -127.983994 8.010576
vertex -140.726288 -127.983994 5.482355
endloop
endfacet
facet normal 0.000000 -1.000000 0.000000
outer loop
vertex -142.236908 -127.983994 8.635210
vertex -142.276276 -127.983994 8.982355
vertex -144.226288 -127.983994 8.982355
endloop
endfacet
facet normal 0.000000 -1.000000 0.000000
outer loop
vertex -144.226288 -127.983994 8.982355
vertex -142.276276 -127.983994 8.982355
vertex -142.276276 -127.983994 15.981539
endloop
endfacet
facet normal 0.000000 -1.000000 0.000000
outer loop
vertex -142.122940 -127.983994 16.654558
vertex -141.938187 -127.983994 16.948671
vertex -144.226288 -127.983994 15.982355
endloop
endfacet
facet normal 0.000000 -1.000000 -0.000012
outer loop
vertex -141.398483 -127.983994 17.379007
vertex -141.070618 -127.983994 17.493624
vertex -140.726288 -127.983994 19.482355
endloop
endfacet
facet normal 0.000000 -1.000000 0.000000
outer loop
vertex -140.726288 -127.983994 19.482355
vertex -141.070618 -127.983994 17.493624
vertex -140.725464 -127.983994 17.532351
endloop
endfacet
facet normal 0.000000 -1.000000 0.000000
outer loop
vertex -140.726288 -127.983994 19.482355
vertex -140.725464 -127.983994 17.532351
vertex -137.326355 -127.983994 17.530565
endloop
endfacet
facet normal 0.000000 -1.000000 0.000433
outer loop
vertex -137.326355 -127.983994 17.530565
vertex -137.259125 -127.983994 17.533449
vertex -140.726288 -127.983994 19.482355
endloop
endfacet
facet normal 0.000000 -1.000000 -0.000005
outer loop
vertex -137.124588 -127.983994 17.530458
vertex -133.832214 -127.983994 17.528727
vertex -133.726288 -127.983994 19.482355
endloop
endfacet
facet normal 0.000000 -1.000000 0.000000
outer loop
vertex -133.726288 -127.983994 19.482355
vertex -133.832214 -127.983994 17.528727
vertex -133.431290 -127.983994 17.504023
endloop
endfacet
facet normal 0.000000 -1.000000 -0.000011
outer loop
vertex -133.726288 -127.983994 19.482355
vertex -133.431290 -127.983994 17.504023
vertex -133.050171 -127.983994 17.377123
endloop
endfacet
facet normal 0.000000 -1.000000 0.000000
outer loop
vertex -133.050171 -127.983994 17.377123
vertex -132.714478 -127.983994 17.156549
vertex -133.726288 -127.983994 19.482355
endloop
endfacet
facet normal 0.000000 -1.000000 -0.000040
outer loop
vertex -132.264908 -127.983994 16.498941
vertex -132.181229 -127.983994 16.106066
vertex -130.226288 -127.983994 15.982355
endloop
endfacet
facet normal 0.000000 -1.000000 -0.000021
outer loop
vertex -130.226288 -127.983994 15.982355
vertex -132.181229 -127.983994 16.106066
vertex -132.178314 -127.983994 16.063631
endloop
endfacet
facet normal 0.000000 -1.000000 0.000064
outer loop
vertex -130.226288 -127.983994 15.982355
vertex -132.178314 -127.983994 16.063631
vertex -132.176575 -127.983994 16.021135
endloop
endfacet
facet normal 0.000000 -1.000000 0.000000
outer loop
vertex -132.176575 -127.983994 16.021135
vertex -132.175980 -127.983994 15.978609
vertex -130.226288 -127.983994 15.982355
endloop
endfacet
facet normal 0.000000 -1.000000 0.000000
outer loop
vertex -132.179749 -127.983994 8.879053
vertex -132.190063 -127.983994 8.776217
vertex -130.226288 -127.983994 8.982355
endloop
endfacet
facet normal 0.000000 -1.000000 0.000000
outer loop
vertex -130.226288 -127.983994 8.982355
vertex -132.190063 -127.983994 8.776217
vertex -132.207230 -127.983994 8.674288
endloop
endfacet
facet normal 0.000000 -1.000000 -0.000037
outer loop
vertex -130.226288 -127.983994 8.982355
vertex -132.207230 -127.983994 8.674288
vertex -132.326553 -127.983994 8.316645
endloop
endfacet
facet normal 0.000000 -1.000000 0.000000
outer loop
vertex -132.326553 -127.983994 8.316645
vertex -132.528717 -127.983994 7.998392
vertex -130.226288 -127.983994 8.982355
endloop
endfacet
facet normal 0.000000 -1.000000 0.000000
outer loop
vertex -133.129440 -127.983994 7.551950
vertex -133.322540 -127.983994 7.485941
vertex -133.726288 -127.983994 5.482355
endloop
endfacet
facet normal 0.000000 -1.000000 0.000000
outer loop
vertex -133.726288 -127.983994 5.482355
vertex -133.322540 -127.983994 7.485941
vertex -133.522644 -127.983994 7.445871
endloop
endfacet
facet normal -0.707107 0.000000 -0.707107
outer loop
vertex -144.226288 -123.993988 8.982355
vertex -140.726288 -123.993988 5.482355
vertex -144.226288 -127.983994 8.982355
endloop
endfacet
facet normal -0.707107 0.000000 -0.707107
outer loop
vertex -144.226288 -127.983994 8.982355
vertex -140.726288 -123.993988 5.482355
vertex -140.726288 -127.983994 5.482355
endloop
endfacet
facet normal -1.000000 0.000000 0.000000
outer loop
vertex -144.226288 -123.993988 15.982355
vertex -144.226288 -123.993988 8.982355
vertex -144.226288 -127.983994 15.982355
endloop
endfacet
facet normal -1.000000 0.000000 0.000000
outer loop
vertex -144.226288 -127.983994 15.982355
vertex -144.226288 -123.993988 8.982355
vertex -144.226288 -127.983994 8.982355
endloop
endfacet
facet normal -0.707106 0.000000 0.707108
outer loop
vertex -140.726288 -123.993996 19.482355
vertex -144.226288 -123.993988 15.982355
vertex -140.726288 -127.983994 19.482355
endloop
endfacet
facet normal -0.707107 0.000000 0.707107
outer loop
vertex -140.726288 -127.983994 19.482355
vertex -144.226288 -123.993988 15.982355
vertex -144.226288 -127.983994 15.982355
endloop
endfacet
facet normal 0.000000 0.000000 1.000000
outer loop
vertex -133.726288 -123.993996 19.482355
vertex -140.726288 -123.993996 19.482355
vertex -133.726288 -127.983994 19.482355
endloop
endfacet
facet normal 0.000000 0.000000 1.000000
outer loop
vertex -133.726288 -127.983994 19.482355
vertex -140.726288 -123.993996 19.482355
vertex -140.726288 -127.983994 19.482355
endloop
endfacet
facet normal 0.707105 0.000000 0.707108
outer loop
vertex -130.226288 -123.993988 15.982355
vertex -133.726288 -123.993996 19.482355
vertex -130.226288 -127.983994 15.982355
endloop
endfacet
facet normal 0.707108 0.000000 0.707106
outer loop
vertex -130.226288 -127.983994 15.982355
vertex -133.726288 -123.993996 19.482355
vertex -133.726288 -127.983994 19.482355
endloop
endfacet
facet normal 1.000000 0.000000 0.000000
outer loop
vertex -130.226288 -123.993988 8.982355
vertex -130.226288 -123.993988 15.982355
vertex -130.226288 -127.983994 8.982355
endloop
endfacet
facet normal 1.000000 0.000000 0.000000
outer loop
vertex -130.226288 -127.983994 8.982355
vertex -130.226288 -123.993988 15.982355
vertex -130.226288 -127.983994 15.982355
endloop
endfacet
facet normal 0.707107 0.000000 -0.707107
outer loop
vertex -133.726288 -123.993988 5.482355
vertex -130.226288 -123.993988 8.982355
vertex -133.726288 -127.983994 5.482355
endloop
endfacet
facet normal 0.707107 0.000000 -0.707107
outer loop
vertex -133.726288 -127.983994 5.482355
vertex -130.226288 -123.993988 8.982355
vertex -130.226288 -127.983994 8.982355
endloop
endfacet
facet normal 0.000000 0.000000 -1.000000
outer loop
vertex -140.726288 -123.993988 5.482355
vertex -133.726288 -123.993988 5.482355
vertex -140.726288 -127.983994 5.482355
endloop
endfacet
facet normal 0.000000 0.000000 -1.000000
outer loop
vertex -140.726288 -127.983994 5.482355
vertex -133.726288 -123.993988 5.482355
vertex -133.726288 -127.983994 5.482355
endloop
endfacet
facet normal 0.000000 -1.000000 0.000000
outer loop
vertex -135.276230 -127.983994 10.532434
vertex -135.276138 -127.983994 12.461061
vertex -139.176285 -127.983994 10.532434
endloop
endfacet
facet normal 0.000000 -1.000000 0.000000
outer loop
vertex -139.176285 -127.983994 10.532434
vertex -135.276138 -127.983994 12.461061
vertex -137.293289 -127.983994 14.433802
endloop
endfacet
facet normal 0.000000 -1.000000 0.000000
outer loop
vertex -139.176285 -127.983994 10.532434
vertex -137.293289 -127.983994 14.433802
vertex -139.176285 -127.983994 14.433802
endloop
endfacet
facet normal 0.000000 -1.000000 0.000000
outer loop
vertex -137.293289 -127.983994 14.433802
vertex -135.276138 -127.983994 12.461061
vertex -137.248627 -127.983994 14.432512
endloop
endfacet
facet normal 0.000000 -1.000000 0.000158
outer loop
vertex -137.248627 -127.983994 14.432512
vertex -135.276138 -127.983994 12.461061
vertex -135.276276 -127.983994 12.475298
endloop
endfacet
facet normal 0.000000 -1.000000 0.000000
outer loop
vertex -137.248627 -127.983994 14.432512
vertex -135.276276 -127.983994 12.475298
vertex -137.203949 -127.983994 14.432512
endloop
endfacet
facet normal 0.000000 -1.000000 0.000000
outer loop
vertex -137.203949 -127.983994 14.432512
vertex -135.276276 -127.983994 12.475298
vertex -135.276276 -127.983994 12.489542
endloop
endfacet
facet normal 0.000000 -1.000000 -0.000159
outer loop
vertex -137.203949 -127.983994 14.432512
vertex -135.276276 -127.983994 12.489542
vertex -135.276138 -127.983994 12.503778
endloop
endfacet
facet normal 0.000000 -1.000000 0.000008
outer loop
vertex -135.276047 -127.983994 14.433802
vertex -137.159271 -127.983994 14.433802
vertex -135.276138 -127.983994 12.503778
endloop
endfacet
facet normal 0.000000 -1.000000 -0.000043
outer loop
vertex -135.276138 -127.983994 12.503778
vertex -137.159271 -127.983994 14.433802
vertex -137.203949 -127.983994 14.432512
endloop
endfacet
facet normal 0.000000 1.000000 0.000000
outer loop
vertex -135.276230 -123.993988 10.532434
vertex -139.176285 -123.993988 10.532434
vertex -135.276138 -123.993988 12.461061
endloop
endfacet
facet normal 0.000000 1.000000 -0.000003
outer loop
vertex -135.276138 -123.993988 12.461061
vertex -139.176285 -123.993988 10.532434
vertex -137.293289 -123.993988 14.433802
endloop
endfacet
facet normal 0.000000 1.000000 0.000145
outer loop
vertex -135.276138 -123.993988 12.461061
vertex -137.293289 -123.993988 14.433802
vertex -137.248627 -123.993988 14.432512
endloop
endfacet
facet normal 0.000000 1.000000 0.000000
outer loop
vertex -139.176285 -123.993988 10.532434
vertex -139.176285 -123.993988 14.433802
vertex -137.293289 -123.993988 14.433802
endloop
endfacet
facet normal 0.000000 1.000000 0.000000
outer loop
vertex -135.276138 -123.993988 12.461061
vertex -137.248627 -123.993988 14.432512
vertex -135.276276 -123.993988 12.475298
endloop
endfacet
facet normal 0.000000 1.000000 -0.000207
outer loop
vertex -135.276276 -123.993988 12.475298
vertex -137.248627 -123.993988 14.432512
vertex -137.203949 -123.993988 14.432512
endloop
endfacet
facet normal 0.000000 1.000000 0.000000
outer loop
vertex -135.276276 -123.993988 12.475298
vertex -137.203949 -123.993988 14.432512
vertex -135.276276 -123.993988 12.489542
endloop
endfacet
facet normal 0.000000 1.000000 0.000000
outer loop
vertex -135.276276 -123.993988 12.489542
vertex -137.203949 -123.993988 14.432512
vertex -135.276138 -123.993988 12.503778
endloop
endfacet
facet normal 0.000000 1.000000 0.000140
outer loop
vertex -135.276138 -123.993988 12.503778
vertex -137.203949 -123.993988 14.432512
vertex -137.159271 -123.993988 14.433802
endloop
endfacet
facet normal 0.000000 1.000000 0.000000
outer loop
vertex -135.276138 -123.993988 12.503778
vertex -137.159271 -123.993988 14.433802
vertex -135.276047 -123.993988 14.433802
endloop
endfacet
endsolid ShogiChessCncAndPLA v2.008
