solid ShogiChessCncAndPLA v2.007
facet normal -0.707107 0.000000 0.707106
outer loop
vertex -162.491379 -125.488991 6.136339
vertex -158.337402 -125.488991 10.290323
vertex -162.491379 -123.993988 6.136339
endloop
endfacet
facet normal -0.707108 0.000000 0.707106
outer loop
vertex -162.491379 -123.993988 6.136339
vertex -158.337402 -125.488991 10.290323
vertex -158.337402 -123.993988 10.290323
endloop
endfacet
facet normal 0.707107 0.000000 0.707106
outer loop
vertex -154.183411 -123.993988 6.136339
vertex -158.337402 -123.993988 10.290323
vertex -154.183411 -125.488991 6.136339
endloop
endfacet
facet normal 0.707108 0.000000 0.707106
outer loop
vertex -154.183411 -125.488991 6.136339
vertex -158.337402 -123.993988 10.290323
vertex -158.337402 -125.488991 10.290323
endloop
endfacet
facet normal -0.707108 0.000000 -0.707106
outer loop
vertex -151.991379 -125.488991 8.328371
vertex -156.145370 -125.488991 12.482355
vertex -151.991379 -123.993988 8.328371
endloop
endfacet
facet normal -0.707108 0.000000 -0.707106
outer loop
vertex -151.991379 -123.993988 8.328371
vertex -156.145370 -125.488991 12.482355
vertex -156.145370 -123.993988 12.482355
endloop
endfacet
facet normal -0.707106 0.000000 0.707108
outer loop
vertex -151.991379 -123.993996 16.636339
vertex -156.145370 -123.993988 12.482355
vertex -151.991379 -125.488991 16.636339
endloop
endfacet
facet normal -0.707107 0.000000 0.707106
outer loop
vertex -151.991379 -125.488991 16.636339
vertex -156.145370 -123.993988 12.482355
vertex -156.145370 -125.488991 12.482355
endloop
endfacet
facet normal 0.707108 0.000000 -0.707106
outer loop
vertex -164.683411 -123.993988 8.328371
vertex -160.529434 -123.993988 12.482355
vertex -164.683411 -125.488991 8.328371
endloop
endfacet
facet normal 0.707108 0.000000 -0.707106
outer loop
vertex -164.683411 -125.488991 8.328371
vertex -160.529434 -123.993988 12.482355
vertex -160.529434 -125.488991 12.482355
endloop
endfacet
facet normal 0.707107 0.000000 0.707106
outer loop
vertex -160.529434 -123.993988 12.482355
vertex -164.683411 -123.993996 16.636339
vertex -160.529434 -125.488991 12.482355
endloop
endfacet
facet normal 0.707106 0.000000 0.707108
outer loop
vertex -160.529434 -125.488991 12.482355
vertex -164.683411 -123.993996 16.636339
vertex -164.683411 -125.488991 16.636339
endloop
endfacet
facet normal -0.707106 0.000000 -0.707108
outer loop
vertex -162.491379 -123.993996 18.828371
vertex -158.337402 -123.993996 14.674387
vertex -162.491379 -125.488991 18.828371
endloop
endfacet
facet normal -0.707106 0.000000 -0.707108
outer loop
vertex -162.491379 -125.488991 18.828371
vertex -158.337402 -123.993996 14.674387
vertex -158.337402 -125.488991 14.674387
endloop
endfacet
facet normal 0.707106 0.000000 -0.707108
outer loop
vertex -158.337402 -123.993996 14.674387
vertex -154.183411 -123.993996 18.828371
vertex -158.337402 -125.488991 14.674387
endloop
endfacet
facet normal 0.707106 0.000000 -0.707108
outer loop
vertex -158.337402 -125.488991 14.674387
vertex -154.183411 -123.993996 18.828371
vertex -154.183411 -125.488991 18.828371
endloop
endfacet
facet normal 0.000000 1.000000 0.000000
outer loop
vertex -162.491379 -125.488991 6.136339
vertex -164.683411 -125.488991 8.328371
vertex -158.337402 -125.488991 10.290323
endloop
endfacet
facet normal 0.000000 1.000000 0.000000
outer loop
vertex -158.337402 -125.488991 10.290323
vertex -164.683411 -125.488991 8.328371
vertex -160.529434 -125.488991 12.482355
endloop
endfacet
facet normal 0.000000 1.000000 0.000000
outer loop
vertex -158.337402 -125.488991 10.290323
vertex -160.529434 -125.488991 12.482355
vertex -156.145370 -125.488991 12.482355
endloop
endfacet
facet normal 0.000000 1.000000 0.000000
outer loop
vertex -156.145370 -125.488991 12.482355
vertex -160.529434 -125.488991 12.482355
vertex -158.337402 -125.488991 14.674387
endloop
endfacet
facet normal 0.000000 1.000000 0.000000
outer loop
vertex -156.145370 -125.488991 12.482355
vertex -158.337402 -125.488991 14.674387
vertex -151.991379 -125.488991 16.636339
endloop
endfacet
facet normal 0.000000 1.000000 0.000000
outer loop
vertex -151.991379 -125.488991 16.636339
vertex -158.337402 -125.488991 14.674387
vertex -154.183411 -125.488991 18.828371
endloop
endfacet
facet normal 0.000000 1.000000 0.000000
outer loop
vertex -160.529434 -125.488991 12.482355
vertex -164.683411 -125.488991 16.636339
vertex -158.337402 -125.488991 14.674387
endloop
endfacet
facet normal 0.000000 1.000000 0.000000
outer loop
vertex -158.337402 -125.488991 14.674387
vertex -164.683411 -125.488991 16.636339
vertex -162.491379 -125.488991 18.828371
endloop
endfacet
facet normal 0.000000 1.000000 0.000000
outer loop
vertex -156.145370 -125.488991 12.482355
vertex -151.991379 -125.488991 8.328371
vertex -158.337402 -125.488991 10.290323
endloop
endfacet
facet normal 0.000000 1.000000 0.000000
outer loop
vertex -158.337402 -125.488991 10.290323
vertex -151.991379 -125.488991 8.328371
vertex -154.183411 -125.488991 6.136339
endloop
endfacet
facet normal 0.707107 0.000000 -0.707106
outer loop
vertex -154.183411 -123.993988 6.136339
vertex -154.183411 -125.488991 6.136339
vertex -154.837402 -123.993988 5.482355
endloop
endfacet
facet normal 0.707103 0.000000 -0.707111
outer loop
vertex -154.837402 -123.993988 5.482355
vertex -154.183411 -125.488991 6.136339
vertex -154.183411 -126.488991 6.136339
endloop
endfacet
facet normal 0.707102 0.000000 -0.707111
outer loop
vertex -154.837402 -123.993988 5.482355
vertex -154.183411 -126.488991 6.136339
vertex -154.837402 -127.983994 5.482355
endloop
endfacet
facet normal 0.707102 0.000000 -0.707112
outer loop
vertex -154.837402 -127.983994 5.482355
vertex -154.183411 -126.488991 6.136339
vertex -154.183411 -127.983994 6.136339
endloop
endfacet
facet normal 0.707109 0.000000 -0.707104
outer loop
vertex -154.183411 -125.488991 6.136339
vertex -151.991379 -125.488991 8.328371
vertex -154.183411 -126.488991 6.136339
endloop
endfacet
facet normal 0.707109 0.000000 -0.707104
outer loop
vertex -154.183411 -126.488991 6.136339
vertex -151.991379 -125.488991 8.328371
vertex -151.991379 -126.488991 8.328371
endloop
endfacet
facet normal 0.707110 0.000000 -0.707104
outer loop
vertex -151.991379 -126.488991 8.328371
vertex -151.991379 -125.488991 8.328371
vertex -151.337402 -123.993988 8.982355
endloop
endfacet
facet normal 0.707110 0.000000 -0.707104
outer loop
vertex -151.991379 -126.488991 8.328371
vertex -151.337402 -123.993988 8.982355
vertex -151.337402 -127.983994 8.982355
endloop
endfacet
facet normal 0.707113 0.000000 -0.707101
outer loop
vertex -151.991379 -125.488991 8.328371
vertex -151.991379 -123.993988 8.328371
vertex -151.337402 -123.993988 8.982355
endloop
endfacet
facet normal 0.707113 0.000000 -0.707101
outer loop
vertex -151.337402 -127.983994 8.982355
vertex -151.991379 -127.983994 8.328371
vertex -151.991379 -126.488991 8.328371
endloop
endfacet
facet normal 0.000001 1.000000 0.000000
outer loop
vertex -156.145370 -123.993988 12.482355
vertex -151.991379 -123.993996 16.636339
vertex -151.991379 -123.993988 8.328371
endloop
endfacet
facet normal -0.000001 1.000000 0.000000
outer loop
vertex -151.991379 -123.993988 8.328371
vertex -151.991379 -123.993996 16.636339
vertex -151.337402 -123.993988 8.982355
endloop
endfacet
facet normal 0.000001 1.000000 0.000000
outer loop
vertex -151.337402 -123.993988 8.982355
vertex -151.991379 -123.993996 16.636339
vertex -151.337402 -123.993996 15.982355
endloop
endfacet
facet normal 0.000000 1.000000 0.000000
outer loop
vertex -158.337402 -123.993996 14.674387
vertex -162.491379 -123.993996 18.828371
vertex -154.183411 -123.993996 18.828371
endloop
endfacet
facet normal 0.000000 1.000000 0.000000
outer loop
vertex -154.183411 -123.993996 18.828371
vertex -162.491379 -123.993996 18.828371
vertex -154.837402 -123.993996 19.482355
endloop
endfacet
facet normal 0.000000 1.000000 -0.000010
outer loop
vertex -154.837402 -123.993996 19.482355
vertex -162.491379 -123.993996 18.828371
vertex -161.837402 -123.993996 19.482355
endloop
endfacet
facet normal -0.000001 1.000000 0.000000
outer loop
vertex -160.529434 -123.993988 12.482355
vertex -164.683411 -123.993988 8.328371
vertex -164.683411 -123.993996 16.636339
endloop
endfacet
facet normal 0.000001 1.000000 0.000000
outer loop
vertex -164.683411 -123.993996 16.636339
vertex -164.683411 -123.993988 8.328371
vertex -165.337402 -123.993988 8.982355
endloop
endfacet
facet normal -0.000001 1.000000 0.000000
outer loop
vertex -164.683411 -123.993996 16.636339
vertex -165.337402 -123.993988 8.982355
vertex -165.337402 -123.993996 15.982355
endloop
endfacet
facet normal 0.000000 1.000000 0.000007
outer loop
vertex -158.337402 -123.993988 10.290323
vertex -154.183411 -123.993988 6.136339
vertex -162.491379 -123.993988 6.136339
endloop
endfacet
facet normal 0.000000 1.000000 -0.000022
outer loop
vertex -162.491379 -123.993988 6.136339
vertex -154.183411 -123.993988 6.136339
vertex -161.837402 -123.993988 5.482355
endloop
endfacet
facet normal 0.000000 1.000000 0.000010
outer loop
vertex -161.837402 -123.993988 5.482355
vertex -154.183411 -123.993988 6.136339
vertex -154.837402 -123.993988 5.482355
endloop
endfacet
facet normal 0.707111 0.000000 0.707103
outer loop
vertex -151.991379 -123.993996 16.636339
vertex -151.991379 -125.488991 16.636339
vertex -151.337402 -123.993996 15.982355
endloop
endfacet
facet normal 0.707111 0.000000 0.707103
outer loop
vertex -151.337402 -123.993996 15.982355
vertex -151.991379 -125.488991 16.636339
vertex -151.991379 -126.488991 16.636339
endloop
endfacet
facet normal 0.707110 0.000000 0.707104
outer loop
vertex -151.337402 -123.993996 15.982355
vertex -151.991379 -126.488991 16.636339
vertex -151.337402 -127.983994 15.982355
endloop
endfacet
facet normal 0.707112 0.000000 0.707101
outer loop
vertex -151.337402 -127.983994 15.982355
vertex -151.991379 -126.488991 16.636339
vertex -151.991379 -127.983994 16.636339
endloop
endfacet
facet normal 0.707109 0.000000 0.707104
outer loop
vertex -151.991379 -125.488991 16.636339
vertex -154.183411 -125.488991 18.828371
vertex -151.991379 -126.488991 16.636339
endloop
endfacet
facet normal 0.707109 0.000000 0.707104
outer loop
vertex -151.991379 -126.488991 16.636339
vertex -154.183411 -125.488991 18.828371
vertex -154.183411 -126.488991 18.828371
endloop
endfacet
facet normal 0.707103 0.000000 0.707111
outer loop
vertex -154.183411 -126.488991 18.828371
vertex -154.183411 -125.488991 18.828371
vertex -154.837402 -123.993996 19.482355
endloop
endfacet
facet normal 0.707105 0.000000 0.707109
outer loop
vertex -154.183411 -126.488991 18.828371
vertex -154.837402 -123.993996 19.482355
vertex -154.837402 -127.983994 19.482355
endloop
endfacet
facet normal 0.707100 0.000000 0.707114
outer loop
vertex -154.183411 -125.488991 18.828371
vertex -154.183411 -123.993996 18.828371
vertex -154.837402 -123.993996 19.482355
endloop
endfacet
facet normal 0.707101 0.000000 0.707112
outer loop
vertex -154.837402 -127.983994 19.482355
vertex -154.183411 -127.983994 18.828371
vertex -154.183411 -126.488991 18.828371
endloop
endfacet
facet normal 0.707108 0.000000 -0.707106
outer loop
vertex -164.683411 -126.488991 8.328371
vertex -160.529434 -126.488991 12.482355
vertex -164.683411 -127.983994 8.328371
endloop
endfacet
facet normal 0.707108 0.000000 -0.707106
outer loop
vertex -164.683411 -127.983994 8.328371
vertex -160.529434 -126.488991 12.482355
vertex -160.529434 -127.983994 12.482355
endloop
endfacet
facet normal 0.707107 0.000000 0.707106
outer loop
vertex -164.683411 -127.983994 16.636339
vertex -160.529434 -127.983994 12.482355
vertex -164.683411 -126.488991 16.636339
endloop
endfacet
facet normal 0.707107 0.000000 0.707106
outer loop
vertex -164.683411 -126.488991 16.636339
vertex -160.529434 -127.983994 12.482355
vertex -160.529434 -126.488991 12.482355
endloop
endfacet
facet normal -0.707107 0.000000 -0.707106
outer loop
vertex -162.491379 -126.488991 18.828371
vertex -158.337402 -126.488991 14.674387
vertex -162.491379 -127.983994 18.828371
endloop
endfacet
facet normal -0.707107 0.000000 -0.707106
outer loop
vertex -162.491379 -127.983994 18.828371
vertex -158.337402 -126.488991 14.674387
vertex -158.337402 -127.983994 14.674387
endloop
endfacet
facet normal 0.000000 -1.000000 0.000000
outer loop
vertex -162.491379 -126.488991 6.136339
vertex -158.337402 -126.488991 10.290323
vertex -164.683411 -126.488991 8.328371
endloop
endfacet
facet normal 0.000000 -1.000000 0.000000
outer loop
vertex -164.683411 -126.488991 8.328371
vertex -158.337402 -126.488991 10.290323
vertex -160.529434 -126.488991 12.482355
endloop
endfacet
facet normal 0.000000 -1.000000 0.000000
outer loop
vertex -160.529434 -126.488991 12.482355
vertex -158.337402 -126.488991 10.290323
vertex -156.145370 -126.488991 12.482355
endloop
endfacet
facet normal 0.000000 -1.000000 0.000000
outer loop
vertex -160.529434 -126.488991 12.482355
vertex -156.145370 -126.488991 12.482355
vertex -158.337402 -126.488991 14.674387
endloop
endfacet
facet normal 0.000000 -1.000000 0.000000
outer loop
vertex -158.337402 -126.488991 14.674387
vertex -156.145370 -126.488991 12.482355
vertex -151.991379 -126.488991 16.636339
endloop
endfacet
facet normal 0.000000 -1.000000 0.000000
outer loop
vertex -158.337402 -126.488991 14.674387
vertex -151.991379 -126.488991 16.636339
vertex -154.183411 -126.488991 18.828371
endloop
endfacet
facet normal 0.000000 -1.000000 0.000000
outer loop
vertex -154.183411 -126.488991 6.136339
vertex -151.991379 -126.488991 8.328371
vertex -158.337402 -126.488991 10.290323
endloop
endfacet
facet normal 0.000000 -1.000000 0.000000
outer loop
vertex -158.337402 -126.488991 10.290323
vertex -151.991379 -126.488991 8.328371
vertex -156.145370 -126.488991 12.482355
endloop
endfacet
facet normal 0.000000 -1.000000 0.000000
outer loop
vertex -162.491379 -126.488991 18.828371
vertex -164.683411 -126.488991 16.636339
vertex -158.337402 -126.488991 14.674387
endloop
endfacet
facet normal 0.000000 -1.000000 0.000000
outer loop
vertex -158.337402 -126.488991 14.674387
vertex -164.683411 -126.488991 16.636339
vertex -160.529434 -126.488991 12.482355
endloop
endfacet
facet normal 0.707107 0.000000 -0.707106
outer loop
vertex -154.183411 -127.983994 18.828371
vertex -158.337402 -127.983994 14.674387
vertex -154.183411 -126.488991 18.828371
endloop
endfacet
facet normal 0.707101 0.000000 -0.707113
outer loop
vertex -154.183411 -126.488991 18.828371
vertex -158.337402 -127.983994 14.674387
vertex -158.337402 -126.488991 14.674387
endloop
endfacet
facet normal -0.707107 0.000000 0.707106
outer loop
vertex -156.145370 -127.983994 12.482355
vertex -151.991379 -127.983994 16.636339
vertex -156.145370 -126.488991 12.482355
endloop
endfacet
facet normal -0.707101 0.000000 0.707113
outer loop
vertex -156.145370 -126.488991 12.482355
vertex -151.991379 -127.983994 16.636339
vertex -151.991379 -126.488991 16.636339
endloop
endfacet
facet normal -0.707108 0.000000 -0.707106
outer loop
vertex -151.991379 -127.983994 8.328371
vertex -156.145370 -127.983994 12.482355
vertex -151.991379 -126.488991 8.328371
endloop
endfacet
facet normal -0.707101 0.000000 -0.707113
outer loop
vertex -151.991379 -126.488991 8.328371
vertex -156.145370 -127.983994 12.482355
vertex -156.145370 -126.488991 12.482355
endloop
endfacet
facet normal 0.707108 0.000000 0.707106
outer loop
vertex -158.337402 -127.983994 10.290323
vertex -154.183411 -127.983994 6.136339
vertex -158.337402 -126.488991 10.290323
endloop
endfacet
facet normal 0.707101 0.000000 0.707113
outer loop
vertex -158.337402 -126.488991 10.290323
vertex -154.183411 -127.983994 6.136339
vertex -154.183411 -126.488991 6.136339
endloop
endfacet
facet normal -0.707107 0.000000 0.707106
outer loop
vertex -162.491379 -127.983994 6.136339
vertex -158.337402 -127.983994 10.290323
vertex -162.491379 -126.488991 6.136339
endloop
endfacet
facet normal -0.707108 0.000000 0.707106
outer loop
vertex -162.491379 -126.488991 6.136339
vertex -158.337402 -127.983994 10.290323
vertex -158.337402 -126.488991 10.290323
endloop
endfacet
facet normal -0.707113 0.000000 -0.707101
outer loop
vertex -162.491379 -123.993988 6.136339
vertex -161.837402 -123.993988 5.482355
vertex -162.491379 -125.488991 6.136339
endloop
endfacet
facet normal -0.707111 0.000000 -0.707103
outer loop
vertex -162.491379 -125.488991 6.136339
vertex -161.837402 -123.993988 5.482355
vertex -162.491379 -126.488991 6.136339
endloop
endfacet
facet normal -0.707109 0.000000 -0.707104
outer loop
vertex -162.491379 -125.488991 6.136339
vertex -162.491379 -126.488991 6.136339
vertex -164.683411 -126.488991 8.328371
endloop
endfacet
facet normal -0.707110 0.000000 -0.707103
outer loop
vertex -161.837402 -123.993988 5.482355
vertex -161.837402 -127.983994 5.482355
vertex -162.491379 -126.488991 6.136339
endloop
endfacet
facet normal -0.707113 0.000000 -0.707101
outer loop
vertex -162.491379 -126.488991 6.136339
vertex -161.837402 -127.983994 5.482355
vertex -162.491379 -127.983994 6.136339
endloop
endfacet
facet normal -0.707102 0.000000 -0.707112
outer loop
vertex -164.683411 -127.983994 8.328371
vertex -165.337402 -127.983994 8.982355
vertex -164.683411 -126.488991 8.328371
endloop
endfacet
facet normal -0.707102 0.000000 -0.707112
outer loop
vertex -164.683411 -126.488991 8.328371
vertex -165.337402 -127.983994 8.982355
vertex -165.337402 -123.993988 8.982355
endloop
endfacet
facet normal -0.707102 0.000000 -0.707112
outer loop
vertex -164.683411 -126.488991 8.328371
vertex -165.337402 -123.993988 8.982355
vertex -164.683411 -125.488991 8.328371
endloop
endfacet
facet normal -0.707107 0.000000 -0.707106
outer loop
vertex -164.683411 -125.488991 8.328371
vertex -165.337402 -123.993988 8.982355
vertex -164.683411 -123.993988 8.328371
endloop
endfacet
facet normal -0.707109 0.000000 -0.707104
outer loop
vertex -164.683411 -125.488991 8.328371
vertex -162.491379 -125.488991 6.136339
vertex -164.683411 -126.488991 8.328371
endloop
endfacet
facet normal -0.707100 0.000000 0.707114
outer loop
vertex -164.683411 -123.993996 16.636339
vertex -165.337402 -123.993996 15.982355
vertex -164.683411 -125.488991 16.636339
endloop
endfacet
facet normal -0.707103 0.000000 0.707111
outer loop
vertex -164.683411 -125.488991 16.636339
vertex -165.337402 -123.993996 15.982355
vertex -164.683411 -126.488991 16.636339
endloop
endfacet
facet normal -0.707109 0.000000 0.707104
outer loop
vertex -164.683411 -125.488991 16.636339
vertex -164.683411 -126.488991 16.636339
vertex -162.491379 -126.488991 18.828371
endloop
endfacet
facet normal -0.707104 0.000000 0.707110
outer loop
vertex -165.337402 -123.993996 15.982355
vertex -165.337402 -127.983994 15.982355
vertex -164.683411 -126.488991 16.636339
endloop
endfacet
facet normal -0.707101 0.000000 0.707112
outer loop
vertex -164.683411 -126.488991 16.636339
vertex -165.337402 -127.983994 15.982355
vertex -164.683411 -127.983994 16.636339
endloop
endfacet
facet normal -0.707112 0.000000 0.707101
outer loop
vertex -162.491379 -127.983994 18.828371
vertex -161.837402 -127.983994 19.482355
vertex -162.491379 -126.488991 18.828371
endloop
endfacet
facet normal -0.707111 0.000000 0.707103
outer loop
vertex -162.491379 -126.488991 18.828371
vertex -161.837402 -127.983994 19.482355
vertex -161.837402 -123.993996 19.482355
endloop
endfacet
facet normal -0.707111 0.000000 0.707103
outer loop
vertex -162.491379 -126.488991 18.828371
vertex -161.837402 -123.993996 19.482355
vertex -162.491379 -125.488991 18.828371
endloop
endfacet
facet normal -0.707111 0.000000 0.707103
outer loop
vertex -162.491379 -125.488991 18.828371
vertex -161.837402 -123.993996 19.482355
vertex -162.491379 -123.993996 18.828371
endloop
endfacet
facet normal -0.707109 0.000000 0.707104
outer loop
vertex -162.491379 -125.488991 18.828371
vertex -164.683411 -125.488991 16.636339
vertex -162.491379 -126.488991 18.828371
endloop
endfacet
facet normal 0.000000 -1.000000 0.000000
outer loop
vertex -158.337402 -127.983994 14.674387
vertex -154.183411 -127.983994 18.828371
vertex -162.491379 -127.983994 18.828371
endloop
endfacet
facet normal 0.000000 -1.000000 0.000022
outer loop
vertex -162.491379 -127.983994 18.828371
vertex -154.183411 -127.983994 18.828371
vertex -161.837402 -127.983994 19.482355
endloop
endfacet
facet normal 0.000000 -1.000000 0.000013
outer loop
vertex -161.837402 -127.983994 19.482355
vertex -154.183411 -127.983994 18.828371
vertex -154.837402 -127.983994 19.482355
endloop
endfacet
facet normal 0.000000 -1.000000 0.000000
outer loop
vertex -160.529434 -127.983994 12.482355
vertex -164.683411 -127.983994 16.636339
vertex -164.683411 -127.983994 8.328371
endloop
endfacet
facet normal 0.000000 -1.000000 0.000000
outer loop
vertex -164.683411 -127.983994 8.328371
vertex -164.683411 -127.983994 16.636339
vertex -165.337402 -127.983994 8.982355
endloop
endfacet
facet normal 0.000000 -1.000000 0.000000
outer loop
vertex -165.337402 -127.983994 8.982355
vertex -164.683411 -127.983994 16.636339
vertex -165.337402 -127.983994 15.982355
endloop
endfacet
facet normal 0.000000 -1.000000 0.000000
outer loop
vertex -156.145370 -127.983994 12.482355
vertex -151.991379 -127.983994 8.328371
vertex -151.991379 -127.983994 16.636339
endloop
endfacet
facet normal 0.000000 -1.000000 0.000000
outer loop
vertex -151.991379 -127.983994 16.636339
vertex -151.991379 -127.983994 8.328371
vertex -151.337402 -127.983994 8.982355
endloop
endfacet
facet normal 0.000000 -1.000000 0.000000
outer loop
vertex -151.991379 -127.983994 16.636339
vertex -151.337402 -127.983994 8.982355
vertex -151.337402 -127.983994 15.982355
endloop
endfacet
facet normal -1.000000 0.000000 0.000000
outer loop
vertex -165.337402 -123.993996 15.982355
vertex -165.337402 -123.993988 8.982355
vertex -165.337402 -127.983994 15.982355
endloop
endfacet
facet normal -1.000000 0.000000 0.000000
outer loop
vertex -165.337402 -127.983994 15.982355
vertex -165.337402 -123.993988 8.982355
vertex -165.337402 -127.983994 8.982355
endloop
endfacet
facet normal 0.000000 0.000000 1.000000
outer loop
vertex -154.837402 -123.993996 19.482355
vertex -161.837402 -123.993996 19.482355
vertex -154.837402 -127.983994 19.482355
endloop
endfacet
facet normal 0.000000 0.000000 1.000000
outer loop
vertex -154.837402 -127.983994 19.482355
vertex -161.837402 -123.993996 19.482355
vertex -161.837402 -127.983994 19.482355
endloop
endfacet
facet normal 1.000000 0.000000 0.000000
outer loop
vertex -151.337402 -123.993988 8.982355
vertex -151.337402 -123.993996 15.982355
vertex -151.337402 -127.983994 8.982355
endloop
endfacet
facet normal 1.000000 0.000000 0.000000
outer loop
vertex -151.337402 -127.983994 8.982355
vertex -151.337402 -123.993996 15.982355
vertex -151.337402 -127.983994 15.982355
endloop
endfacet
facet normal 0.000000 0.000000 -1.000000
outer loop
vertex -161.837402 -123.993988 5.482355
vertex -154.837402 -123.993988 5.482355
vertex -161.837402 -127.983994 5.482355
endloop
endfacet
facet normal 0.000000 0.000000 -1.000000
outer loop
vertex -161.837402 -127.983994 5.482355
vertex -154.837402 -123.993988 5.482355
vertex -154.837402 -127.983994 5.482355
endloop
endfacet
facet normal 0.000000 -1.000000 0.000000
outer loop
vertex -158.337402 -127.983994 10.290323
vertex -162.491379 -127.983994 6.136339
vertex -154.183411 -127.983994 6.136339
endloop
endfacet
facet normal 0.000000 -1.000000 -0.000022
outer loop
vertex -154.183411 -127.983994 6.136339
vertex -162.491379 -127.983994 6.136339
vertex -154.837402 -127.983994 5.482355
endloop
endfacet
facet normal 0.000000 -1.000000 -0.000013
outer loop
vertex -154.837402 -127.983994 5.482355
vertex -162.491379 -127.983994 6.136339
vertex -161.837402 -127.983994 5.482355
endloop
endfacet
endsolid ShogiChessCncAndPLA v2.007
