solid ShogiChessCncAndPLA v2.011
facet normal 0.608764 0.000000 0.793351
outer loop
vertex -78.488976 -123.993996 18.386339
vertex -78.488976 -125.488991 18.386339
vertex -78.167961 -123.993996 18.140017
endloop
endfacet
facet normal 0.608758 0.000000 0.793356
outer loop
vertex -78.167961 -123.993996 18.140017
vertex -78.488976 -125.488991 18.386339
vertex -78.167961 -125.488991 18.140017
endloop
endfacet
facet normal 0.382685 0.000000 0.923879
outer loop
vertex -78.167961 -123.993996 18.140017
vertex -78.167961 -125.488991 18.140017
vertex -77.794128 -123.993996 17.985170
endloop
endfacet
facet normal 0.382685 0.000000 0.923879
outer loop
vertex -77.794128 -123.993996 17.985170
vertex -78.167961 -125.488991 18.140017
vertex -77.794128 -125.488991 17.985170
endloop
endfacet
facet normal 0.130532 0.000000 0.991444
outer loop
vertex -77.794128 -123.993996 17.985170
vertex -77.794128 -125.488991 17.985170
vertex -77.392960 -123.993996 17.932352
endloop
endfacet
facet normal 0.130536 0.000000 0.991444
outer loop
vertex -77.392960 -123.993996 17.932352
vertex -77.794128 -125.488991 17.985170
vertex -77.392960 -125.488991 17.932352
endloop
endfacet
facet normal -0.130538 0.000000 0.991443
outer loop
vertex -77.392960 -123.993996 17.932352
vertex -77.392960 -125.488991 17.932352
vertex -76.991791 -123.993996 17.985170
endloop
endfacet
facet normal -0.130530 0.000000 0.991444
outer loop
vertex -76.991791 -123.993996 17.985170
vertex -77.392960 -125.488991 17.932352
vertex -76.991791 -125.488991 17.985170
endloop
endfacet
facet normal -0.382685 0.000000 0.923879
outer loop
vertex -76.991791 -123.993996 17.985170
vertex -76.991791 -125.488991 17.985170
vertex -76.617958 -123.993996 18.140017
endloop
endfacet
facet normal -0.382685 0.000000 0.923879
outer loop
vertex -76.617958 -123.993996 18.140017
vertex -76.991791 -125.488991 17.985170
vertex -76.617958 -125.488991 18.140017
endloop
endfacet
facet normal -0.608764 0.000000 0.793351
outer loop
vertex -76.617958 -123.993996 18.140017
vertex -76.617958 -125.488991 18.140017
vertex -76.296944 -123.993996 18.386339
endloop
endfacet
facet normal -0.608758 0.000000 0.793356
outer loop
vertex -76.296944 -123.993996 18.386339
vertex -76.617958 -125.488991 18.140017
vertex -76.296944 -125.488991 18.386339
endloop
endfacet
facet normal -0.793357 0.000000 0.608757
outer loop
vertex -76.296944 -123.993996 18.386339
vertex -76.296944 -125.488991 18.386339
vertex -76.050621 -123.993996 18.707354
endloop
endfacet
facet normal -0.793351 0.000000 0.608764
outer loop
vertex -76.050621 -123.993996 18.707354
vertex -76.296944 -125.488991 18.386339
vertex -76.050621 -125.488991 18.707354
endloop
endfacet
facet normal -0.923882 0.000000 0.382677
outer loop
vertex -76.050621 -123.993996 18.707354
vertex -76.050621 -125.488991 18.707354
vertex -75.895775 -123.993996 19.081186
endloop
endfacet
facet normal -0.923879 0.000000 0.382685
outer loop
vertex -75.895775 -123.993996 19.081186
vertex -76.050621 -125.488991 18.707354
vertex -75.895775 -125.488991 19.081186
endloop
endfacet
facet normal -0.991444 0.000000 0.130535
outer loop
vertex -75.895775 -123.993996 19.081186
vertex -75.895775 -125.488991 19.081186
vertex -75.842957 -123.993996 19.482355
endloop
endfacet
facet normal -0.991444 0.000000 0.130535
outer loop
vertex -75.842957 -123.993996 19.482355
vertex -75.895775 -125.488991 19.081186
vertex -75.842957 -125.488991 19.482355
endloop
endfacet
facet normal 0.000000 1.000000 0.000000
outer loop
vertex -78.167961 -125.488991 18.140017
vertex -78.488976 -125.488991 18.386339
vertex -76.296944 -125.488991 18.386339
endloop
endfacet
facet normal 0.000000 1.000000 0.000000
outer loop
vertex -76.296944 -125.488991 18.386339
vertex -78.488976 -125.488991 18.386339
vertex -77.392960 -125.488991 19.482355
endloop
endfacet
facet normal 0.000000 1.000000 0.000000
outer loop
vertex -76.296944 -125.488991 18.386339
vertex -77.392960 -125.488991 19.482355
vertex -76.050621 -125.488991 18.707354
endloop
endfacet
facet normal 0.000000 1.000000 0.000000
outer loop
vertex -76.050621 -125.488991 18.707354
vertex -77.392960 -125.488991 19.482355
vertex -75.895775 -125.488991 19.081186
endloop
endfacet
facet normal 0.000000 1.000000 0.000000
outer loop
vertex -75.895775 -125.488991 19.081186
vertex -77.392960 -125.488991 19.482355
vertex -75.842957 -125.488991 19.482355
endloop
endfacet
facet normal 0.000000 1.000000 0.000080
outer loop
vertex -76.296944 -125.488991 18.386339
vertex -76.617958 -125.488991 18.140017
vertex -78.167961 -125.488991 18.140017
endloop
endfacet
facet normal 0.000000 1.000000 0.000000
outer loop
vertex -78.167961 -125.488991 18.140017
vertex -76.617958 -125.488991 18.140017
vertex -77.794128 -125.488991 17.985170
endloop
endfacet
facet normal 0.000000 1.000000 0.000123
outer loop
vertex -77.794128 -125.488991 17.985170
vertex -76.617958 -125.488991 18.140017
vertex -76.991791 -125.488991 17.985170
endloop
endfacet
facet normal 0.000000 1.000000 0.000000
outer loop
vertex -77.794128 -125.488991 17.985170
vertex -76.991791 -125.488991 17.985170
vertex -77.392960 -125.488991 17.932352
endloop
endfacet
facet normal -0.707107 0.000000 0.707107
outer loop
vertex -77.392960 -125.488991 19.482355
vertex -78.488976 -125.488991 18.386339
vertex -77.392960 -127.983994 19.482355
endloop
endfacet
facet normal -0.707108 0.000005 0.707106
outer loop
vertex -77.392960 -127.983994 19.482355
vertex -78.488976 -125.488991 18.386339
vertex -80.892960 -127.983994 15.982355
endloop
endfacet
facet normal -0.707106 0.000000 0.707108
outer loop
vertex -80.892960 -127.983994 15.982355
vertex -78.488976 -125.488991 18.386339
vertex -80.892960 -123.993996 15.982355
endloop
endfacet
facet normal -0.707108 0.000000 0.707106
outer loop
vertex -80.892960 -123.993996 15.982355
vertex -78.488976 -125.488991 18.386339
vertex -78.488976 -123.993996 18.386339
endloop
endfacet
facet normal 0.000000 1.000000 0.000000
outer loop
vertex -75.390144 -123.993996 12.081186
vertex -80.892960 -123.993996 8.982355
vertex -75.442963 -123.993996 12.482355
endloop
endfacet
facet normal 0.000000 1.000000 0.000000
outer loop
vertex -75.442963 -123.993996 12.482355
vertex -80.892960 -123.993996 8.982355
vertex -80.892960 -123.993996 15.982355
endloop
endfacet
facet normal 0.000000 1.000000 0.000000
outer loop
vertex -75.442963 -123.993996 12.482355
vertex -80.892960 -123.993996 15.982355
vertex -75.390144 -123.993996 12.883524
endloop
endfacet
facet normal 0.000000 1.000000 0.000000
outer loop
vertex -75.390144 -123.993996 12.883524
vertex -80.892960 -123.993996 15.982355
vertex -75.235298 -123.993996 13.257349
endloop
endfacet
facet normal 0.000000 1.000000 -0.000003
outer loop
vertex -75.235298 -123.993996 13.257349
vertex -80.892960 -123.993996 15.982355
vertex -77.392960 -123.993996 17.932352
endloop
endfacet
facet normal 0.000000 1.000000 0.000000
outer loop
vertex -75.235298 -123.993996 13.257349
vertex -77.392960 -123.993996 17.932352
vertex -74.988976 -123.993996 13.578371
endloop
endfacet
facet normal 0.000000 1.000000 0.000004
outer loop
vertex -74.988976 -123.993996 13.578371
vertex -77.392960 -123.993996 17.932352
vertex -76.991791 -123.993996 17.985170
endloop
endfacet
facet normal 0.000000 1.000000 0.000000
outer loop
vertex -74.988976 -123.993996 13.578371
vertex -76.991791 -123.993996 17.985170
vertex -74.667961 -123.993996 13.824694
endloop
endfacet
facet normal 0.000000 1.000000 0.000000
outer loop
vertex -74.667961 -123.993996 13.824694
vertex -76.991791 -123.993996 17.985170
vertex -76.617958 -123.993996 18.140017
endloop
endfacet
facet normal 0.000000 1.000000 0.000000
outer loop
vertex -74.667961 -123.993996 13.824694
vertex -76.617958 -123.993996 18.140017
vertex -74.294128 -123.993996 13.979540
endloop
endfacet
facet normal 0.000000 1.000000 -0.000004
outer loop
vertex -74.294128 -123.993996 13.979540
vertex -76.617958 -123.993996 18.140017
vertex -76.296944 -123.993996 18.386339
endloop
endfacet
facet normal 0.000000 1.000000 0.000000
outer loop
vertex -74.294128 -123.993996 13.979540
vertex -76.296944 -123.993996 18.386339
vertex -73.892960 -123.993996 14.032351
endloop
endfacet
facet normal 0.000000 1.000000 -0.000014
outer loop
vertex -73.892960 -123.993996 14.032351
vertex -76.296944 -123.993996 18.386339
vertex -76.050621 -123.993996 18.707354
endloop
endfacet
facet normal 0.000000 1.000000 0.000000
outer loop
vertex -73.892960 -123.993996 14.032351
vertex -76.050621 -123.993996 18.707354
vertex -71.735298 -123.993996 18.707354
endloop
endfacet
facet normal 0.000000 1.000000 0.000076
outer loop
vertex -71.735298 -123.993996 18.707354
vertex -76.050621 -123.993996 18.707354
vertex -71.890144 -123.993996 19.081186
endloop
endfacet
facet normal 0.000000 1.000000 -0.000018
outer loop
vertex -71.890144 -123.993996 19.081186
vertex -76.050621 -123.993996 18.707354
vertex -75.895775 -123.993996 19.081186
endloop
endfacet
facet normal 0.000000 1.000000 0.000000
outer loop
vertex -71.890144 -123.993996 19.081186
vertex -75.895775 -123.993996 19.081186
vertex -71.942963 -123.993996 19.482355
endloop
endfacet
facet normal 0.000000 1.000000 0.000024
outer loop
vertex -71.942963 -123.993996 19.482355
vertex -75.895775 -123.993996 19.081186
vertex -75.842957 -123.993996 19.482355
endloop
endfacet
facet normal 0.000000 1.000000 0.000000
outer loop
vertex -75.390144 -123.993996 12.081186
vertex -75.235298 -123.993996 11.707354
vertex -80.892960 -123.993996 8.982355
endloop
endfacet
facet normal 0.000000 1.000000 -0.000011
outer loop
vertex -80.892960 -123.993996 8.982355
vertex -75.235298 -123.993996 11.707354
vertex -74.988976 -123.993996 11.386339
endloop
endfacet
facet normal 0.000000 1.000000 0.000002
outer loop
vertex -80.892960 -123.993996 8.982355
vertex -74.988976 -123.993996 11.386339
vertex -77.392960 -123.993996 5.482355
endloop
endfacet
facet normal 0.000000 1.000000 -0.000003
outer loop
vertex -77.392960 -123.993996 5.482355
vertex -74.988976 -123.993996 11.386339
vertex -74.667961 -123.993996 11.140017
endloop
endfacet
facet normal 0.000000 1.000000 0.000012
outer loop
vertex -77.392960 -123.993996 5.482355
vertex -74.667961 -123.993996 11.140017
vertex -74.294128 -123.993996 10.985170
endloop
endfacet
facet normal 0.000000 1.000000 0.000000
outer loop
vertex -74.294128 -123.993996 10.985170
vertex -73.892960 -123.993996 10.932352
vertex -77.392960 -123.993996 5.482355
endloop
endfacet
facet normal 0.000000 1.000000 0.000000
outer loop
vertex -77.392960 -123.993996 5.482355
vertex -73.892960 -123.993996 10.932352
vertex -70.392960 -123.993996 5.482355
endloop
endfacet
facet normal 0.000000 1.000000 0.000003
outer loop
vertex -70.392960 -123.993996 5.482355
vertex -73.892960 -123.993996 10.932352
vertex -73.491791 -123.993996 10.985170
endloop
endfacet
facet normal 0.000000 1.000000 0.000012
outer loop
vertex -70.392960 -123.993996 5.482355
vertex -73.491791 -123.993996 10.985170
vertex -73.117958 -123.993996 11.140017
endloop
endfacet
facet normal 0.000000 1.000000 0.000000
outer loop
vertex -73.117958 -123.993996 11.140017
vertex -72.796944 -123.993996 11.386339
vertex -70.392960 -123.993996 5.482355
endloop
endfacet
facet normal 0.000000 1.000000 0.000000
outer loop
vertex -70.392960 -123.993996 5.482355
vertex -72.796944 -123.993996 11.386339
vertex -66.892960 -123.993996 8.982355
endloop
endfacet
facet normal 0.000000 1.000000 -0.000011
outer loop
vertex -66.892960 -123.993996 8.982355
vertex -72.796944 -123.993996 11.386339
vertex -72.550621 -123.993996 11.707354
endloop
endfacet
facet normal 0.000000 1.000000 -0.000011
outer loop
vertex -66.892960 -123.993996 8.982355
vertex -72.550621 -123.993996 11.707354
vertex -72.395775 -123.993996 12.081186
endloop
endfacet
facet normal 0.000000 1.000000 0.000000
outer loop
vertex -72.395775 -123.993996 12.081186
vertex -72.342957 -123.993996 12.482355
vertex -66.892960 -123.993996 8.982355
endloop
endfacet
facet normal 0.000000 1.000000 0.000000
outer loop
vertex -66.892960 -123.993996 8.982355
vertex -72.342957 -123.993996 12.482355
vertex -66.892960 -123.993996 15.982355
endloop
endfacet
facet normal 0.000000 1.000000 -0.000016
outer loop
vertex -66.892960 -123.993996 15.982355
vertex -72.342957 -123.993996 12.482355
vertex -72.395775 -123.993996 12.883524
endloop
endfacet
facet normal 0.000000 1.000000 0.000011
outer loop
vertex -66.892960 -123.993996 15.982355
vertex -72.395775 -123.993996 12.883524
vertex -72.550621 -123.993996 13.257349
endloop
endfacet
facet normal 0.000000 1.000000 -0.000003
outer loop
vertex -66.892960 -123.993996 15.982355
vertex -72.550621 -123.993996 13.257349
vertex -70.392960 -123.993996 17.932352
endloop
endfacet
facet normal 0.000000 1.000000 0.000014
outer loop
vertex -70.392960 -123.993996 17.932352
vertex -72.550621 -123.993996 13.257349
vertex -72.796944 -123.993996 13.578371
endloop
endfacet
facet normal 0.000000 1.000000 0.000000
outer loop
vertex -70.392960 -123.993996 17.932352
vertex -72.796944 -123.993996 13.578371
vertex -70.794128 -123.993996 17.985170
endloop
endfacet
facet normal 0.000000 1.000000 0.000004
outer loop
vertex -70.794128 -123.993996 17.985170
vertex -72.796944 -123.993996 13.578371
vertex -73.117958 -123.993996 13.824694
endloop
endfacet
facet normal 0.000000 1.000000 0.000000
outer loop
vertex -70.794128 -123.993996 17.985170
vertex -73.117958 -123.993996 13.824694
vertex -71.167961 -123.993996 18.140017
endloop
endfacet
facet normal 0.000000 1.000000 0.000000
outer loop
vertex -71.167961 -123.993996 18.140017
vertex -73.117958 -123.993996 13.824694
vertex -73.491791 -123.993996 13.979540
endloop
endfacet
facet normal 0.000000 1.000000 0.000000
outer loop
vertex -71.167961 -123.993996 18.140017
vertex -73.491791 -123.993996 13.979540
vertex -71.488976 -123.993996 18.386339
endloop
endfacet
facet normal 0.000000 1.000000 -0.000004
outer loop
vertex -71.488976 -123.993996 18.386339
vertex -73.491791 -123.993996 13.979540
vertex -73.892960 -123.993996 14.032351
endloop
endfacet
facet normal 0.000000 1.000000 0.000000
outer loop
vertex -71.488976 -123.993996 18.386339
vertex -73.892960 -123.993996 14.032351
vertex -71.735298 -123.993996 18.707354
endloop
endfacet
facet normal 0.000000 1.000000 0.000000
outer loop
vertex -78.488976 -123.993996 18.386339
vertex -78.167961 -123.993996 18.140017
vertex -80.892960 -123.993996 15.982355
endloop
endfacet
facet normal 0.000000 1.000000 0.000025
outer loop
vertex -80.892960 -123.993996 15.982355
vertex -78.167961 -123.993996 18.140017
vertex -77.794128 -123.993996 17.985170
endloop
endfacet
facet normal 0.000000 1.000000 0.000008
outer loop
vertex -80.892960 -123.993996 15.982355
vertex -77.794128 -123.993996 17.985170
vertex -77.392960 -123.993996 17.932352
endloop
endfacet
facet normal 0.000000 1.000000 0.000000
outer loop
vertex -70.392960 -123.993996 17.932352
vertex -69.991791 -123.993996 17.985170
vertex -66.892960 -123.993996 15.982355
endloop
endfacet
facet normal 0.000000 1.000000 0.000025
outer loop
vertex -66.892960 -123.993996 15.982355
vertex -69.991791 -123.993996 17.985170
vertex -69.617958 -123.993996 18.140017
endloop
endfacet
facet normal 0.000000 1.000000 -0.000006
outer loop
vertex -66.892960 -123.993996 15.982355
vertex -69.617958 -123.993996 18.140017
vertex -69.296944 -123.993996 18.386339
endloop
endfacet
facet normal 0.991444 0.000000 0.130535
outer loop
vertex -71.942963 -123.993996 19.482355
vertex -71.942963 -125.488991 19.482355
vertex -71.890144 -123.993996 19.081186
endloop
endfacet
facet normal 0.991444 0.000000 0.130535
outer loop
vertex -71.890144 -123.993996 19.081186
vertex -71.942963 -125.488991 19.482355
vertex -71.890144 -125.488991 19.081186
endloop
endfacet
facet normal 0.923881 0.000000 0.382679
outer loop
vertex -71.890144 -123.993996 19.081186
vertex -71.890144 -125.488991 19.081186
vertex -71.735298 -123.993996 18.707354
endloop
endfacet
facet normal 0.923880 0.000000 0.382682
outer loop
vertex -71.735298 -123.993996 18.707354
vertex -71.890144 -125.488991 19.081186
vertex -71.735298 -125.488991 18.707354
endloop
endfacet
facet normal 0.793354 0.000000 0.608760
outer loop
vertex -71.735298 -123.993996 18.707354
vertex -71.735298 -125.488991 18.707354
vertex -71.488976 -123.993996 18.386339
endloop
endfacet
facet normal 0.793354 0.000000 0.608761
outer loop
vertex -71.488976 -123.993996 18.386339
vertex -71.735298 -125.488991 18.707354
vertex -71.488976 -125.488991 18.386339
endloop
endfacet
facet normal 0.608764 0.000000 0.793351
outer loop
vertex -71.488976 -123.993996 18.386339
vertex -71.488976 -125.488991 18.386339
vertex -71.167961 -123.993996 18.140017
endloop
endfacet
facet normal 0.608758 0.000000 0.793356
outer loop
vertex -71.167961 -123.993996 18.140017
vertex -71.488976 -125.488991 18.386339
vertex -71.167961 -125.488991 18.140017
endloop
endfacet
facet normal 0.382685 0.000000 0.923879
outer loop
vertex -71.167961 -123.993996 18.140017
vertex -71.167961 -125.488991 18.140017
vertex -70.794128 -123.993996 17.985170
endloop
endfacet
facet normal 0.382685 0.000000 0.923879
outer loop
vertex -70.794128 -123.993996 17.985170
vertex -71.167961 -125.488991 18.140017
vertex -70.794128 -125.488991 17.985170
endloop
endfacet
facet normal 0.130532 0.000000 0.991444
outer loop
vertex -70.794128 -123.993996 17.985170
vertex -70.794128 -125.488991 17.985170
vertex -70.392960 -123.993996 17.932352
endloop
endfacet
facet normal 0.130536 0.000000 0.991444
outer loop
vertex -70.392960 -123.993996 17.932352
vertex -70.794128 -125.488991 17.985170
vertex -70.392960 -125.488991 17.932352
endloop
endfacet
facet normal -0.130538 0.000000 0.991443
outer loop
vertex -70.392960 -123.993996 17.932352
vertex -70.392960 -125.488991 17.932352
vertex -69.991791 -123.993996 17.985170
endloop
endfacet
facet normal -0.130530 0.000000 0.991444
outer loop
vertex -69.991791 -123.993996 17.985170
vertex -70.392960 -125.488991 17.932352
vertex -69.991791 -125.488991 17.985170
endloop
endfacet
facet normal -0.382685 0.000000 0.923879
outer loop
vertex -69.991791 -123.993996 17.985170
vertex -69.991791 -125.488991 17.985170
vertex -69.617958 -123.993996 18.140017
endloop
endfacet
facet normal -0.382685 0.000000 0.923879
outer loop
vertex -69.617958 -123.993996 18.140017
vertex -69.991791 -125.488991 17.985170
vertex -69.617958 -125.488991 18.140017
endloop
endfacet
facet normal -0.608764 0.000000 0.793351
outer loop
vertex -69.617958 -123.993996 18.140017
vertex -69.617958 -125.488991 18.140017
vertex -69.296944 -123.993996 18.386339
endloop
endfacet
facet normal -0.608758 0.000000 0.793356
outer loop
vertex -69.296944 -123.993996 18.386339
vertex -69.617958 -125.488991 18.140017
vertex -69.296944 -125.488991 18.386339
endloop
endfacet
facet normal 0.000000 1.000000 0.000000
outer loop
vertex -71.942963 -125.488991 19.482355
vertex -70.392960 -125.488991 19.482355
vertex -71.890144 -125.488991 19.081186
endloop
endfacet
facet normal 0.000000 1.000000 0.000000
outer loop
vertex -71.890144 -125.488991 19.081186
vertex -70.392960 -125.488991 19.482355
vertex -71.735298 -125.488991 18.707354
endloop
endfacet
facet normal 0.000000 1.000000 0.000000
outer loop
vertex -71.735298 -125.488991 18.707354
vertex -70.392960 -125.488991 19.482355
vertex -71.488976 -125.488991 18.386339
endloop
endfacet
facet normal 0.000000 1.000000 0.000000
outer loop
vertex -71.488976 -125.488991 18.386339
vertex -70.392960 -125.488991 19.482355
vertex -69.296944 -125.488991 18.386339
endloop
endfacet
facet normal 0.000000 1.000000 -0.000057
outer loop
vertex -71.488976 -125.488991 18.386339
vertex -69.296944 -125.488991 18.386339
vertex -71.167961 -125.488991 18.140017
endloop
endfacet
facet normal 0.000000 1.000000 0.000040
outer loop
vertex -71.167961 -125.488991 18.140017
vertex -69.296944 -125.488991 18.386339
vertex -69.617958 -125.488991 18.140017
endloop
endfacet
facet normal 0.000000 1.000000 0.000000
outer loop
vertex -71.167961 -125.488991 18.140017
vertex -69.617958 -125.488991 18.140017
vertex -70.794128 -125.488991 17.985170
endloop
endfacet
facet normal 0.000000 1.000000 0.000123
outer loop
vertex -70.794128 -125.488991 17.985170
vertex -69.617958 -125.488991 18.140017
vertex -69.991791 -125.488991 17.985170
endloop
endfacet
facet normal 0.000000 1.000000 0.000000
outer loop
vertex -70.794128 -125.488991 17.985170
vertex -69.991791 -125.488991 17.985170
vertex -70.392960 -125.488991 17.932352
endloop
endfacet
facet normal 0.000000 0.000000 1.000000
outer loop
vertex -77.392960 -125.488991 19.482355
vertex -77.392960 -127.983994 19.482355
vertex -75.842957 -125.488991 19.482355
endloop
endfacet
facet normal 0.000000 0.000000 1.000000
outer loop
vertex -75.842957 -125.488991 19.482355
vertex -77.392960 -127.983994 19.482355
vertex -70.392960 -127.983994 19.482355
endloop
endfacet
facet normal 0.000000 0.000000 1.000000
outer loop
vertex -75.842957 -125.488991 19.482355
vertex -70.392960 -127.983994 19.482355
vertex -71.942963 -125.488991 19.482355
endloop
endfacet
facet normal 0.000000 0.000000 1.000000
outer loop
vertex -71.942963 -125.488991 19.482355
vertex -70.392960 -127.983994 19.482355
vertex -70.392960 -125.488991 19.482355
endloop
endfacet
facet normal 0.000000 0.000000 1.000000
outer loop
vertex -71.942963 -123.993996 19.482355
vertex -75.842957 -123.993996 19.482355
vertex -71.942963 -125.488991 19.482355
endloop
endfacet
facet normal 0.000000 0.000000 1.000000
outer loop
vertex -71.942963 -125.488991 19.482355
vertex -75.842957 -123.993996 19.482355
vertex -75.842957 -125.488991 19.482355
endloop
endfacet
facet normal 0.991444 0.000000 0.130534
outer loop
vertex -78.942963 -126.488991 12.482355
vertex -78.942963 -127.983994 12.482355
vertex -78.890144 -126.488991 12.081186
endloop
endfacet
facet normal 0.991444 0.000000 0.130535
outer loop
vertex -78.890144 -126.488991 12.081186
vertex -78.942963 -127.983994 12.482355
vertex -78.890144 -127.983994 12.081186
endloop
endfacet
facet normal 0.923878 0.000000 0.382688
outer loop
vertex -78.890144 -126.488991 12.081186
vertex -78.890144 -127.983994 12.081186
vertex -78.735298 -126.488991 11.707354
endloop
endfacet
facet normal 0.923881 0.000000 0.382680
outer loop
vertex -78.735298 -126.488991 11.707354
vertex -78.890144 -127.983994 12.081186
vertex -78.735298 -127.983994 11.707354
endloop
endfacet
facet normal 0.793351 0.000000 0.608765
outer loop
vertex -78.735298 -126.488991 11.707354
vertex -78.735298 -127.983994 11.707354
vertex -78.488976 -126.488991 11.386339
endloop
endfacet
facet normal 0.793356 0.000000 0.608758
outer loop
vertex -78.488976 -126.488991 11.386339
vertex -78.735298 -127.983994 11.707354
vertex -78.488976 -127.983994 11.386339
endloop
endfacet
facet normal 0.608758 0.000000 0.793356
outer loop
vertex -78.488976 -126.488991 11.386339
vertex -78.488976 -127.983994 11.386339
vertex -78.167961 -126.488991 11.140017
endloop
endfacet
facet normal 0.608764 0.000000 0.793351
outer loop
vertex -78.167961 -126.488991 11.140017
vertex -78.488976 -127.983994 11.386339
vertex -78.167961 -127.983994 11.140017
endloop
endfacet
facet normal 0.382680 0.000000 0.923881
outer loop
vertex -78.167961 -126.488991 11.140017
vertex -78.167961 -127.983994 11.140017
vertex -77.794128 -126.488991 10.985170
endloop
endfacet
facet normal 0.382690 0.000000 0.923877
outer loop
vertex -77.794128 -126.488991 10.985170
vertex -78.167961 -127.983994 11.140017
vertex -77.794128 -127.983994 10.985170
endloop
endfacet
facet normal 0.130528 0.000000 0.991445
outer loop
vertex -77.794128 -126.488991 10.985170
vertex -77.794128 -127.983994 10.985170
vertex -77.392960 -126.488991 10.932352
endloop
endfacet
facet normal 0.130536 0.000000 0.991444
outer loop
vertex -77.392960 -126.488991 10.932352
vertex -77.794128 -127.983994 10.985170
vertex -77.392960 -127.983994 10.932352
endloop
endfacet
facet normal -0.130534 0.000000 0.991444
outer loop
vertex -77.392960 -126.488991 10.932352
vertex -77.392960 -127.983994 10.932352
vertex -76.991791 -126.488991 10.985170
endloop
endfacet
facet normal -0.130530 0.000000 0.991444
outer loop
vertex -76.991791 -126.488991 10.985170
vertex -77.392960 -127.983994 10.932352
vertex -76.991791 -127.983994 10.985170
endloop
endfacet
facet normal -0.382686 0.000000 0.923879
outer loop
vertex -76.991791 -126.488991 10.985170
vertex -76.991791 -127.983994 10.985170
vertex -76.617958 -126.488991 11.140017
endloop
endfacet
facet normal -0.382685 0.000000 0.923879
outer loop
vertex -76.617958 -126.488991 11.140017
vertex -76.991791 -127.983994 10.985170
vertex -76.617958 -127.983994 11.140017
endloop
endfacet
facet normal -0.608758 0.000000 0.793356
outer loop
vertex -76.617958 -126.488991 11.140017
vertex -76.617958 -127.983994 11.140017
vertex -76.296944 -126.488991 11.386339
endloop
endfacet
facet normal -0.608764 0.000000 0.793351
outer loop
vertex -76.296944 -126.488991 11.386339
vertex -76.617958 -127.983994 11.140017
vertex -76.296944 -127.983994 11.386339
endloop
endfacet
facet normal -0.793353 0.000000 0.608762
outer loop
vertex -76.296944 -126.488991 11.386339
vertex -76.296944 -127.983994 11.386339
vertex -76.050621 -126.488991 11.707354
endloop
endfacet
facet normal -0.793354 0.000000 0.608761
outer loop
vertex -76.050621 -126.488991 11.707354
vertex -76.296944 -127.983994 11.386339
vertex -76.050621 -127.983994 11.707354
endloop
endfacet
facet normal -0.923879 0.000000 0.382686
outer loop
vertex -76.050621 -126.488991 11.707354
vertex -76.050621 -127.983994 11.707354
vertex -75.895775 -126.488991 12.081186
endloop
endfacet
facet normal -0.923880 0.000000 0.382682
outer loop
vertex -75.895775 -126.488991 12.081186
vertex -76.050621 -127.983994 11.707354
vertex -75.895775 -127.983994 12.081186
endloop
endfacet
facet normal -0.991444 0.000000 0.130535
outer loop
vertex -75.895775 -126.488991 12.081186
vertex -75.895775 -127.983994 12.081186
vertex -75.842957 -126.488991 12.482355
endloop
endfacet
facet normal -0.991444 0.000000 0.130534
outer loop
vertex -75.842957 -126.488991 12.482355
vertex -75.895775 -127.983994 12.081186
vertex -75.842957 -127.983994 12.482355
endloop
endfacet
facet normal 1.000000 0.000000 0.000000
outer loop
vertex -78.942963 -127.983994 15.981989
vertex -78.942963 -127.983994 12.482355
vertex -78.942963 -126.488991 15.981989
endloop
endfacet
facet normal 1.000000 0.000000 0.000000
outer loop
vertex -78.942963 -126.488991 15.981989
vertex -78.942963 -127.983994 12.482355
vertex -78.942963 -126.488991 12.482355
endloop
endfacet
facet normal 0.130534 0.000000 -0.991444
outer loop
vertex -77.392960 -126.488991 17.531992
vertex -77.392960 -127.983994 17.531992
vertex -77.794128 -126.488991 17.479174
endloop
endfacet
facet normal 0.130536 0.000000 -0.991444
outer loop
vertex -77.794128 -126.488991 17.479174
vertex -77.392960 -127.983994 17.531992
vertex -77.794128 -127.983994 17.479174
endloop
endfacet
facet normal 0.382664 0.000000 -0.923887
outer loop
vertex -77.794128 -126.488991 17.479174
vertex -77.794128 -127.983994 17.479174
vertex -78.167961 -126.488991 17.324335
endloop
endfacet
facet normal 0.382669 0.000000 -0.923886
outer loop
vertex -78.167961 -126.488991 17.324335
vertex -77.794128 -127.983994 17.479174
vertex -78.167961 -127.983994 17.324335
endloop
endfacet
facet normal 0.608774 0.000000 -0.793344
outer loop
vertex -78.167961 -126.488991 17.324335
vertex -78.167961 -127.983994 17.324335
vertex -78.488976 -126.488991 17.078005
endloop
endfacet
facet normal 0.608776 0.000000 -0.793342
outer loop
vertex -78.488976 -126.488991 17.078005
vertex -78.167961 -127.983994 17.324335
vertex -78.488976 -127.983994 17.078005
endloop
endfacet
facet normal 0.793351 0.000000 -0.608765
outer loop
vertex -78.488976 -126.488991 17.078005
vertex -78.488976 -127.983994 17.078005
vertex -78.735298 -126.488991 16.756990
endloop
endfacet
facet normal 0.793356 0.000000 -0.608758
outer loop
vertex -78.735298 -126.488991 16.756990
vertex -78.488976 -127.983994 17.078005
vertex -78.735298 -127.983994 16.756990
endloop
endfacet
facet normal 0.923875 0.000000 -0.382694
outer loop
vertex -78.735298 -126.488991 16.756990
vertex -78.735298 -127.983994 16.756990
vertex -78.890144 -126.488991 16.383165
endloop
endfacet
facet normal 0.923877 0.000000 -0.382689
outer loop
vertex -78.890144 -126.488991 16.383165
vertex -78.735298 -127.983994 16.756990
vertex -78.890144 -127.983994 16.383165
endloop
endfacet
facet normal 0.991444 0.000000 -0.130531
outer loop
vertex -78.890144 -126.488991 16.383165
vertex -78.890144 -127.983994 16.383165
vertex -78.942963 -126.488991 15.981989
endloop
endfacet
facet normal 0.991444 0.000000 -0.130532
outer loop
vertex -78.942963 -126.488991 15.981989
vertex -78.890144 -127.983994 16.383165
vertex -78.942963 -127.983994 15.981989
endloop
endfacet
facet normal 1.000000 0.000000 0.000000
outer loop
vertex -77.392960 -127.983994 17.532351
vertex -77.392960 -127.983994 17.531992
vertex -77.392960 -126.488991 17.532351
endloop
endfacet
facet normal 1.000000 0.000000 0.000000
outer loop
vertex -77.392960 -126.488991 17.532351
vertex -77.392960 -127.983994 17.531992
vertex -77.392960 -126.488991 17.531992
endloop
endfacet
facet normal 0.000000 0.000000 -1.000000
outer loop
vertex -70.392937 -127.983994 17.532351
vertex -77.392960 -127.983994 17.532351
vertex -70.392937 -126.488991 17.532351
endloop
endfacet
facet normal 0.000000 0.000000 -1.000000
outer loop
vertex -70.392937 -126.488991 17.532351
vertex -77.392960 -127.983994 17.532351
vertex -77.392960 -126.488991 17.532351
endloop
endfacet
facet normal -0.991443 0.000000 -0.130537
outer loop
vertex -68.842957 -126.488991 15.982355
vertex -68.842957 -127.983994 15.982355
vertex -68.895775 -126.488991 16.383516
endloop
endfacet
facet normal -0.991444 0.000000 -0.130536
outer loop
vertex -68.895775 -126.488991 16.383516
vertex -68.842957 -127.983994 15.982355
vertex -68.895775 -127.983994 16.383516
endloop
endfacet
facet normal -0.923884 0.000000 -0.382672
outer loop
vertex -68.895775 -126.488991 16.383516
vertex -68.895775 -127.983994 16.383516
vertex -69.050613 -126.488991 16.757349
endloop
endfacet
facet normal -0.923887 0.000000 -0.382666
outer loop
vertex -69.050613 -126.488991 16.757349
vertex -68.895775 -127.983994 16.383516
vertex -69.050613 -127.983994 16.757349
endloop
endfacet
facet normal -0.793353 0.000000 -0.608762
outer loop
vertex -69.050613 -126.488991 16.757349
vertex -69.050613 -127.983994 16.757349
vertex -69.296936 -126.488991 17.078363
endloop
endfacet
facet normal -0.793354 0.000000 -0.608761
outer loop
vertex -69.296936 -126.488991 17.078363
vertex -69.050613 -127.983994 16.757349
vertex -69.296936 -127.983994 17.078363
endloop
endfacet
facet normal -0.608774 0.000000 -0.793344
outer loop
vertex -69.296936 -126.488991 17.078363
vertex -69.296936 -127.983994 17.078363
vertex -69.617943 -126.488991 17.324686
endloop
endfacet
facet normal -0.608770 0.000000 -0.793347
outer loop
vertex -69.617943 -126.488991 17.324686
vertex -69.296936 -127.983994 17.078363
vertex -69.617943 -127.983994 17.324686
endloop
endfacet
facet normal -0.382680 0.000000 -0.923881
outer loop
vertex -69.617943 -126.488991 17.324686
vertex -69.617943 -127.983994 17.324686
vertex -69.991776 -126.488991 17.479532
endloop
endfacet
facet normal -0.382685 0.000000 -0.923879
outer loop
vertex -69.991776 -126.488991 17.479532
vertex -69.617943 -127.983994 17.324686
vertex -69.991776 -127.983994 17.479532
endloop
endfacet
facet normal -0.130538 0.000000 -0.991443
outer loop
vertex -69.991776 -126.488991 17.479532
vertex -69.991776 -127.983994 17.479532
vertex -70.392937 -126.488991 17.532351
endloop
endfacet
facet normal -0.130538 0.000000 -0.991443
outer loop
vertex -70.392937 -126.488991 17.532351
vertex -69.991776 -127.983994 17.479532
vertex -70.392937 -127.983994 17.532351
endloop
endfacet
facet normal -1.000000 0.000000 -0.000002
outer loop
vertex -68.842949 -127.983994 12.482355
vertex -68.842957 -127.983994 15.982355
vertex -68.842949 -126.488991 12.482355
endloop
endfacet
facet normal -1.000000 0.000000 -0.000002
outer loop
vertex -68.842949 -126.488991 12.482355
vertex -68.842957 -127.983994 15.982355
vertex -68.842957 -126.488991 15.982355
endloop
endfacet
facet normal 0.991444 0.000000 0.130534
outer loop
vertex -71.942947 -126.488991 12.482347
vertex -71.942947 -127.983994 12.482347
vertex -71.890129 -126.488991 12.081179
endloop
endfacet
facet normal 0.991444 0.000000 0.130535
outer loop
vertex -71.890129 -126.488991 12.081179
vertex -71.942947 -127.983994 12.482347
vertex -71.890129 -127.983994 12.081179
endloop
endfacet
facet normal 0.923878 0.000000 0.382688
outer loop
vertex -71.890129 -126.488991 12.081179
vertex -71.890129 -127.983994 12.081179
vertex -71.735283 -126.488991 11.707346
endloop
endfacet
facet normal 0.923881 0.000000 0.382680
outer loop
vertex -71.735283 -126.488991 11.707346
vertex -71.890129 -127.983994 12.081179
vertex -71.735283 -127.983994 11.707346
endloop
endfacet
facet normal 0.793351 0.000000 0.608765
outer loop
vertex -71.735283 -126.488991 11.707346
vertex -71.735283 -127.983994 11.707346
vertex -71.488960 -126.488991 11.386332
endloop
endfacet
facet normal 0.793356 0.000000 0.608758
outer loop
vertex -71.488960 -126.488991 11.386332
vertex -71.735283 -127.983994 11.707346
vertex -71.488960 -127.983994 11.386332
endloop
endfacet
facet normal 0.608758 0.000000 0.793356
outer loop
vertex -71.488960 -126.488991 11.386332
vertex -71.488960 -127.983994 11.386332
vertex -71.167946 -126.488991 11.140009
endloop
endfacet
facet normal 0.608764 0.000000 0.793351
outer loop
vertex -71.167946 -126.488991 11.140009
vertex -71.488960 -127.983994 11.386332
vertex -71.167946 -127.983994 11.140009
endloop
endfacet
facet normal 0.382680 0.000000 0.923881
outer loop
vertex -71.167946 -126.488991 11.140009
vertex -71.167946 -127.983994 11.140009
vertex -70.794113 -126.488991 10.985163
endloop
endfacet
facet normal 0.382690 0.000000 0.923877
outer loop
vertex -70.794113 -126.488991 10.985163
vertex -71.167946 -127.983994 11.140009
vertex -70.794113 -127.983994 10.985163
endloop
endfacet
facet normal 0.130510 0.000000 0.991447
outer loop
vertex -70.794113 -126.488991 10.985163
vertex -70.794113 -127.983994 10.985163
vertex -70.392944 -126.488991 10.932352
endloop
endfacet
facet normal 0.130517 0.000000 0.991446
outer loop
vertex -70.392944 -126.488991 10.932352
vertex -70.794113 -127.983994 10.985163
vertex -70.392944 -127.983994 10.932352
endloop
endfacet
facet normal -0.130534 0.000000 0.991444
outer loop
vertex -70.392944 -126.488991 10.932352
vertex -70.392944 -127.983994 10.932352
vertex -69.991776 -126.488991 10.985170
endloop
endfacet
facet normal -0.130530 0.000000 0.991444
outer loop
vertex -69.991776 -126.488991 10.985170
vertex -70.392944 -127.983994 10.932352
vertex -69.991776 -127.983994 10.985170
endloop
endfacet
facet normal -0.382686 0.000000 0.923879
outer loop
vertex -69.991776 -126.488991 10.985170
vertex -69.991776 -127.983994 10.985170
vertex -69.617943 -126.488991 11.140017
endloop
endfacet
facet normal -0.382685 0.000000 0.923879
outer loop
vertex -69.617943 -126.488991 11.140017
vertex -69.991776 -127.983994 10.985170
vertex -69.617943 -127.983994 11.140017
endloop
endfacet
facet normal -0.608758 0.000000 0.793356
outer loop
vertex -69.617943 -126.488991 11.140017
vertex -69.617943 -127.983994 11.140017
vertex -69.296928 -126.488991 11.386339
endloop
endfacet
facet normal -0.608764 0.000000 0.793351
outer loop
vertex -69.296928 -126.488991 11.386339
vertex -69.617943 -127.983994 11.140017
vertex -69.296928 -127.983994 11.386339
endloop
endfacet
facet normal -0.793353 0.000000 0.608762
outer loop
vertex -69.296928 -126.488991 11.386339
vertex -69.296928 -127.983994 11.386339
vertex -69.050606 -126.488991 11.707354
endloop
endfacet
facet normal -0.793354 0.000000 0.608761
outer loop
vertex -69.050606 -126.488991 11.707354
vertex -69.296928 -127.983994 11.386339
vertex -69.050606 -127.983994 11.707354
endloop
endfacet
facet normal -0.923879 0.000000 0.382686
outer loop
vertex -69.050606 -126.488991 11.707354
vertex -69.050606 -127.983994 11.707354
vertex -68.895760 -126.488991 12.081186
endloop
endfacet
facet normal -0.923880 0.000000 0.382682
outer loop
vertex -68.895760 -126.488991 12.081186
vertex -69.050606 -127.983994 11.707354
vertex -68.895760 -127.983994 12.081186
endloop
endfacet
facet normal -0.991446 0.000000 0.130516
outer loop
vertex -68.895760 -126.488991 12.081186
vertex -68.895760 -127.983994 12.081186
vertex -68.842949 -126.488991 12.482355
endloop
endfacet
facet normal -0.991446 0.000000 0.130515
outer loop
vertex -68.842949 -126.488991 12.482355
vertex -68.895760 -127.983994 12.081186
vertex -68.842949 -127.983994 12.482355
endloop
endfacet
facet normal 1.000000 0.000000 0.000004
outer loop
vertex -71.942955 -127.983994 14.432276
vertex -71.942947 -127.983994 12.482347
vertex -71.942955 -126.488991 14.432276
endloop
endfacet
facet normal 1.000000 0.000000 0.000004
outer loop
vertex -71.942955 -126.488991 14.432276
vertex -71.942947 -127.983994 12.482347
vertex -71.942947 -126.488991 12.482347
endloop
endfacet
facet normal -0.000053 0.000000 1.000000
outer loop
vertex -75.842957 -127.983994 14.432070
vertex -71.942955 -127.983994 14.432276
vertex -75.842957 -126.488991 14.432070
endloop
endfacet
facet normal -0.000053 0.000000 1.000000
outer loop
vertex -75.842957 -126.488991 14.432070
vertex -71.942955 -127.983994 14.432276
vertex -71.942955 -126.488991 14.432276
endloop
endfacet
facet normal -1.000000 0.000000 0.000000
outer loop
vertex -75.842957 -127.983994 12.482355
vertex -75.842957 -127.983994 14.432070
vertex -75.842957 -126.488991 12.482355
endloop
endfacet
facet normal -1.000000 0.000000 0.000000
outer loop
vertex -75.842957 -126.488991 12.482355
vertex -75.842957 -127.983994 14.432070
vertex -75.842957 -126.488991 14.432070
endloop
endfacet
facet normal 0.000000 -1.000000 0.000000
outer loop
vertex -77.392960 -126.488991 17.532351
vertex -77.392960 -126.488991 17.531992
vertex -70.392937 -126.488991 17.532351
endloop
endfacet
facet normal 0.000000 -1.000000 0.000000
outer loop
vertex -70.392937 -126.488991 17.532351
vertex -77.392960 -126.488991 17.531992
vertex -71.942955 -126.488991 14.432276
endloop
endfacet
facet normal 0.000000 -1.000000 0.000008
outer loop
vertex -70.392937 -126.488991 17.532351
vertex -71.942955 -126.488991 14.432276
vertex -68.842957 -126.488991 15.982355
endloop
endfacet
facet normal 0.000000 -1.000000 -0.000006
outer loop
vertex -68.842957 -126.488991 15.982355
vertex -71.942955 -126.488991 14.432276
vertex -68.842949 -126.488991 12.482355
endloop
endfacet
facet normal 0.000000 -1.000000 0.000006
outer loop
vertex -68.842949 -126.488991 12.482355
vertex -71.942955 -126.488991 14.432276
vertex -71.942947 -126.488991 12.482347
endloop
endfacet
facet normal 0.000000 -1.000000 -0.000049
outer loop
vertex -68.842949 -126.488991 12.482355
vertex -71.942947 -126.488991 12.482347
vertex -68.895760 -126.488991 12.081186
endloop
endfacet
facet normal 0.000000 -1.000000 0.000042
outer loop
vertex -68.895760 -126.488991 12.081186
vertex -71.942947 -126.488991 12.482347
vertex -71.890129 -126.488991 12.081179
endloop
endfacet
facet normal 0.000000 -1.000000 -0.000055
outer loop
vertex -68.895760 -126.488991 12.081186
vertex -71.890129 -126.488991 12.081179
vertex -69.050606 -126.488991 11.707354
endloop
endfacet
facet normal 0.000000 -1.000000 0.000008
outer loop
vertex -69.050606 -126.488991 11.707354
vertex -71.890129 -126.488991 12.081179
vertex -71.735283 -126.488991 11.707346
endloop
endfacet
facet normal 0.000000 -1.000000 0.000000
outer loop
vertex -69.050606 -126.488991 11.707354
vertex -71.735283 -126.488991 11.707346
vertex -69.296928 -126.488991 11.386339
endloop
endfacet
facet normal 0.000000 -1.000000 -0.000011
outer loop
vertex -69.296928 -126.488991 11.386339
vertex -71.735283 -126.488991 11.707346
vertex -71.488960 -126.488991 11.386332
endloop
endfacet
facet normal 0.000000 -1.000000 0.000113
outer loop
vertex -69.296928 -126.488991 11.386339
vertex -71.488960 -126.488991 11.386332
vertex -69.617943 -126.488991 11.140017
endloop
endfacet
facet normal 0.000000 -1.000000 -0.000040
outer loop
vertex -69.617943 -126.488991 11.140017
vertex -71.488960 -126.488991 11.386332
vertex -71.167946 -126.488991 11.140009
endloop
endfacet
facet normal 0.000000 -1.000000 0.000000
outer loop
vertex -69.617943 -126.488991 11.140017
vertex -71.167946 -126.488991 11.140009
vertex -69.991776 -126.488991 10.985170
endloop
endfacet
facet normal 0.000000 -1.000000 0.000000
outer loop
vertex -69.991776 -126.488991 10.985170
vertex -71.167946 -126.488991 11.140009
vertex -70.794113 -126.488991 10.985163
endloop
endfacet
facet normal 0.000000 -1.000000 0.000000
outer loop
vertex -69.991776 -126.488991 10.985170
vertex -70.794113 -126.488991 10.985163
vertex -70.392944 -126.488991 10.932352
endloop
endfacet
facet normal 0.000000 -1.000000 0.000000
outer loop
vertex -77.794128 -126.488991 17.479174
vertex -78.167961 -126.488991 17.324335
vertex -77.392960 -126.488991 17.531992
endloop
endfacet
facet normal 0.000000 -1.000000 -0.000123
outer loop
vertex -77.392960 -126.488991 17.531992
vertex -78.167961 -126.488991 17.324335
vertex -78.488976 -126.488991 17.078005
endloop
endfacet
facet normal 0.000000 -1.000000 0.000032
outer loop
vertex -77.392960 -126.488991 17.531992
vertex -78.488976 -126.488991 17.078005
vertex -78.735298 -126.488991 16.756990
endloop
endfacet
facet normal 0.000000 -1.000000 0.000080
outer loop
vertex -78.735298 -126.488991 16.756990
vertex -78.890144 -126.488991 16.383165
vertex -77.392960 -126.488991 17.531992
endloop
endfacet
facet normal 0.000000 -1.000000 -0.000037
outer loop
vertex -77.392960 -126.488991 17.531992
vertex -78.890144 -126.488991 16.383165
vertex -78.942963 -126.488991 15.981989
endloop
endfacet
facet normal 0.000000 -1.000000 0.000000
outer loop
vertex -77.392960 -126.488991 17.531992
vertex -78.942963 -126.488991 15.981989
vertex -75.842957 -126.488991 14.432070
endloop
endfacet
facet normal 0.000000 -1.000000 0.000000
outer loop
vertex -75.842957 -126.488991 14.432070
vertex -78.942963 -126.488991 15.981989
vertex -78.942963 -126.488991 12.482355
endloop
endfacet
facet normal 0.000000 -1.000000 0.000000
outer loop
vertex -75.842957 -126.488991 14.432070
vertex -78.942963 -126.488991 12.482355
vertex -75.842957 -126.488991 12.482355
endloop
endfacet
facet normal 0.000000 -1.000000 0.000000
outer loop
vertex -75.842957 -126.488991 12.482355
vertex -78.942963 -126.488991 12.482355
vertex -75.895775 -126.488991 12.081186
endloop
endfacet
facet normal 0.000000 -1.000000 0.000042
outer loop
vertex -75.895775 -126.488991 12.081186
vertex -78.942963 -126.488991 12.482355
vertex -78.890144 -126.488991 12.081186
endloop
endfacet
facet normal 0.000000 -1.000000 -0.000055
outer loop
vertex -75.895775 -126.488991 12.081186
vertex -78.890144 -126.488991 12.081186
vertex -76.050621 -126.488991 11.707354
endloop
endfacet
facet normal 0.000000 -1.000000 0.000008
outer loop
vertex -76.050621 -126.488991 11.707354
vertex -78.890144 -126.488991 12.081186
vertex -78.735298 -126.488991 11.707354
endloop
endfacet
facet normal 0.000000 -1.000000 0.000000
outer loop
vertex -76.050621 -126.488991 11.707354
vertex -78.735298 -126.488991 11.707354
vertex -76.296944 -126.488991 11.386339
endloop
endfacet
facet normal 0.000000 -1.000000 -0.000011
outer loop
vertex -76.296944 -126.488991 11.386339
vertex -78.735298 -126.488991 11.707354
vertex -78.488976 -126.488991 11.386339
endloop
endfacet
facet normal 0.000000 -1.000000 0.000113
outer loop
vertex -76.296944 -126.488991 11.386339
vertex -78.488976 -126.488991 11.386339
vertex -76.617958 -126.488991 11.140017
endloop
endfacet
facet normal 0.000000 -1.000000 -0.000040
outer loop
vertex -76.617958 -126.488991 11.140017
vertex -78.488976 -126.488991 11.386339
vertex -78.167961 -126.488991 11.140017
endloop
endfacet
facet normal 0.000000 -1.000000 0.000000
outer loop
vertex -76.617958 -126.488991 11.140017
vertex -78.167961 -126.488991 11.140017
vertex -76.991791 -126.488991 10.985170
endloop
endfacet
facet normal 0.000000 -1.000000 0.000000
outer loop
vertex -76.991791 -126.488991 10.985170
vertex -78.167961 -126.488991 11.140017
vertex -77.794128 -126.488991 10.985170
endloop
endfacet
facet normal 0.000000 -1.000000 0.000000
outer loop
vertex -76.991791 -126.488991 10.985170
vertex -77.794128 -126.488991 10.985170
vertex -77.392960 -126.488991 10.932352
endloop
endfacet
facet normal 0.000000 -1.000000 0.000000
outer loop
vertex -75.842957 -126.488991 14.432070
vertex -71.942955 -126.488991 14.432276
vertex -77.392960 -126.488991 17.531992
endloop
endfacet
facet normal 0.000000 -1.000000 -0.000057
outer loop
vertex -68.842957 -126.488991 15.982355
vertex -68.895775 -126.488991 16.383516
vertex -70.392937 -126.488991 17.532351
endloop
endfacet
facet normal 0.000000 -1.000000 0.000000
outer loop
vertex -70.392937 -126.488991 17.532351
vertex -68.895775 -126.488991 16.383516
vertex -69.050613 -126.488991 16.757349
endloop
endfacet
facet normal 0.000000 -1.000000 0.000032
outer loop
vertex -70.392937 -126.488991 17.532351
vertex -69.050613 -126.488991 16.757349
vertex -69.296936 -126.488991 17.078363
endloop
endfacet
facet normal 0.000000 -1.000000 0.000000
outer loop
vertex -69.296936 -126.488991 17.078363
vertex -69.617943 -126.488991 17.324686
vertex -70.392937 -126.488991 17.532351
endloop
endfacet
facet normal 0.000000 -1.000000 0.000180
outer loop
vertex -70.392937 -126.488991 17.532351
vertex -69.617943 -126.488991 17.324686
vertex -69.991776 -126.488991 17.479532
endloop
endfacet
facet normal 0.991444 0.000000 -0.130535
outer loop
vertex -75.390144 -123.993996 12.883524
vertex -75.390144 -125.488991 12.883524
vertex -75.442963 -123.993996 12.482355
endloop
endfacet
facet normal 0.991444 0.000000 -0.130535
outer loop
vertex -75.442963 -123.993996 12.482355
vertex -75.390144 -125.488991 12.883524
vertex -75.442963 -125.488991 12.482355
endloop
endfacet
facet normal 0.991444 0.000000 0.130535
outer loop
vertex -75.442963 -123.993996 12.482355
vertex -75.442963 -125.488991 12.482355
vertex -75.390144 -123.993996 12.081186
endloop
endfacet
facet normal 0.991444 0.000000 0.130535
outer loop
vertex -75.390144 -123.993996 12.081186
vertex -75.442963 -125.488991 12.482355
vertex -75.390144 -125.488991 12.081186
endloop
endfacet
facet normal 0.923881 0.000000 0.382679
outer loop
vertex -75.390144 -123.993996 12.081186
vertex -75.390144 -125.488991 12.081186
vertex -75.235298 -123.993996 11.707354
endloop
endfacet
facet normal 0.923880 0.000000 0.382682
outer loop
vertex -75.235298 -123.993996 11.707354
vertex -75.390144 -125.488991 12.081186
vertex -75.235298 -125.488991 11.707354
endloop
endfacet
facet normal 0.793354 0.000000 0.608760
outer loop
vertex -75.235298 -123.993996 11.707354
vertex -75.235298 -125.488991 11.707354
vertex -74.988976 -123.993996 11.386339
endloop
endfacet
facet normal 0.793354 0.000000 0.608761
outer loop
vertex -74.988976 -123.993996 11.386339
vertex -75.235298 -125.488991 11.707354
vertex -74.988976 -125.488991 11.386339
endloop
endfacet
facet normal 0.608764 0.000000 0.793351
outer loop
vertex -74.988976 -123.993996 11.386339
vertex -74.988976 -125.488991 11.386339
vertex -74.667961 -123.993996 11.140017
endloop
endfacet
facet normal 0.608758 0.000000 0.793356
outer loop
vertex -74.667961 -123.993996 11.140017
vertex -74.988976 -125.488991 11.386339
vertex -74.667961 -125.488991 11.140017
endloop
endfacet
facet normal 0.382685 0.000000 0.923879
outer loop
vertex -74.667961 -123.993996 11.140017
vertex -74.667961 -125.488991 11.140017
vertex -74.294128 -123.993996 10.985170
endloop
endfacet
facet normal 0.382685 0.000000 0.923879
outer loop
vertex -74.294128 -123.993996 10.985170
vertex -74.667961 -125.488991 11.140017
vertex -74.294128 -125.488991 10.985170
endloop
endfacet
facet normal 0.130532 0.000000 0.991444
outer loop
vertex -74.294128 -123.993996 10.985170
vertex -74.294128 -125.488991 10.985170
vertex -73.892960 -123.993996 10.932352
endloop
endfacet
facet normal 0.130536 0.000000 0.991444
outer loop
vertex -73.892960 -123.993996 10.932352
vertex -74.294128 -125.488991 10.985170
vertex -73.892960 -125.488991 10.932352
endloop
endfacet
facet normal -0.130538 0.000000 0.991443
outer loop
vertex -73.892960 -123.993996 10.932352
vertex -73.892960 -125.488991 10.932352
vertex -73.491791 -123.993996 10.985170
endloop
endfacet
facet normal -0.130530 0.000000 0.991444
outer loop
vertex -73.491791 -123.993996 10.985170
vertex -73.892960 -125.488991 10.932352
vertex -73.491791 -125.488991 10.985170
endloop
endfacet
facet normal -0.382685 0.000000 0.923879
outer loop
vertex -73.491791 -123.993996 10.985170
vertex -73.491791 -125.488991 10.985170
vertex -73.117958 -123.993996 11.140017
endloop
endfacet
facet normal -0.382685 0.000000 0.923879
outer loop
vertex -73.117958 -123.993996 11.140017
vertex -73.491791 -125.488991 10.985170
vertex -73.117958 -125.488991 11.140017
endloop
endfacet
facet normal -0.608764 0.000000 0.793351
outer loop
vertex -73.117958 -123.993996 11.140017
vertex -73.117958 -125.488991 11.140017
vertex -72.796944 -123.993996 11.386339
endloop
endfacet
facet normal -0.608758 0.000000 0.793356
outer loop
vertex -72.796944 -123.993996 11.386339
vertex -73.117958 -125.488991 11.140017
vertex -72.796944 -125.488991 11.386339
endloop
endfacet
facet normal -0.793357 0.000000 0.608757
outer loop
vertex -72.796944 -123.993996 11.386339
vertex -72.796944 -125.488991 11.386339
vertex -72.550621 -123.993996 11.707354
endloop
endfacet
facet normal -0.793351 0.000000 0.608764
outer loop
vertex -72.550621 -123.993996 11.707354
vertex -72.796944 -125.488991 11.386339
vertex -72.550621 -125.488991 11.707354
endloop
endfacet
facet normal -0.923882 0.000000 0.382677
outer loop
vertex -72.550621 -123.993996 11.707354
vertex -72.550621 -125.488991 11.707354
vertex -72.395775 -123.993996 12.081186
endloop
endfacet
facet normal -0.923879 0.000000 0.382685
outer loop
vertex -72.395775 -123.993996 12.081186
vertex -72.550621 -125.488991 11.707354
vertex -72.395775 -125.488991 12.081186
endloop
endfacet
facet normal -0.991444 0.000000 0.130535
outer loop
vertex -72.395775 -123.993996 12.081186
vertex -72.395775 -125.488991 12.081186
vertex -72.342957 -123.993996 12.482355
endloop
endfacet
facet normal -0.991444 0.000000 0.130535
outer loop
vertex -72.342957 -123.993996 12.482355
vertex -72.395775 -125.488991 12.081186
vertex -72.342957 -125.488991 12.482355
endloop
endfacet
facet normal -0.991444 0.000000 -0.130535
outer loop
vertex -72.342957 -123.993996 12.482355
vertex -72.342957 -125.488991 12.482355
vertex -72.395775 -123.993996 12.883524
endloop
endfacet
facet normal -0.991444 0.000000 -0.130535
outer loop
vertex -72.395775 -123.993996 12.883524
vertex -72.342957 -125.488991 12.482355
vertex -72.395775 -125.488991 12.883524
endloop
endfacet
facet normal -0.923879 0.000000 -0.382684
outer loop
vertex -72.395775 -123.993996 12.883524
vertex -72.395775 -125.488991 12.883524
vertex -72.550621 -123.993996 13.257349
endloop
endfacet
facet normal -0.923876 0.000000 -0.382691
outer loop
vertex -72.550621 -123.993996 13.257349
vertex -72.395775 -125.488991 12.883524
vertex -72.550621 -125.488991 13.257349
endloop
endfacet
facet normal -0.793364 0.000000 -0.608748
outer loop
vertex -72.550621 -123.993996 13.257349
vertex -72.550621 -125.488991 13.257349
vertex -72.796944 -123.993996 13.578371
endloop
endfacet
facet normal -0.793361 0.000000 -0.608752
outer loop
vertex -72.796944 -123.993996 13.578371
vertex -72.550621 -125.488991 13.257349
vertex -72.796944 -125.488991 13.578371
endloop
endfacet
facet normal -0.608764 0.000000 -0.793351
outer loop
vertex -72.796944 -123.993996 13.578371
vertex -72.796944 -125.488991 13.578371
vertex -73.117958 -123.993996 13.824694
endloop
endfacet
facet normal -0.608758 0.000000 -0.793356
outer loop
vertex -73.117958 -123.993996 13.824694
vertex -72.796944 -125.488991 13.578371
vertex -73.117958 -125.488991 13.824694
endloop
endfacet
facet normal -0.382679 0.000000 -0.923881
outer loop
vertex -73.117958 -123.993996 13.824694
vertex -73.117958 -125.488991 13.824694
vertex -73.491791 -123.993996 13.979540
endloop
endfacet
facet normal -0.382685 0.000000 -0.923879
outer loop
vertex -73.491791 -123.993996 13.979540
vertex -73.117958 -125.488991 13.824694
vertex -73.491791 -125.488991 13.979540
endloop
endfacet
facet normal -0.130519 0.000000 -0.991446
outer loop
vertex -73.491791 -123.993996 13.979540
vertex -73.491791 -125.488991 13.979540
vertex -73.892960 -123.993996 14.032351
endloop
endfacet
facet normal -0.130517 0.000000 -0.991446
outer loop
vertex -73.892960 -123.993996 14.032351
vertex -73.491791 -125.488991 13.979540
vertex -73.892960 -125.488991 14.032351
endloop
endfacet
facet normal 0.130519 0.000000 -0.991446
outer loop
vertex -73.892960 -123.993996 14.032351
vertex -73.892960 -125.488991 14.032351
vertex -74.294128 -123.993996 13.979540
endloop
endfacet
facet normal 0.130517 0.000000 -0.991446
outer loop
vertex -74.294128 -123.993996 13.979540
vertex -73.892960 -125.488991 14.032351
vertex -74.294128 -125.488991 13.979540
endloop
endfacet
facet normal 0.382685 0.000000 -0.923879
outer loop
vertex -74.294128 -123.993996 13.979540
vertex -74.294128 -125.488991 13.979540
vertex -74.667961 -123.993996 13.824694
endloop
endfacet
facet normal 0.382679 0.000000 -0.923881
outer loop
vertex -74.667961 -123.993996 13.824694
vertex -74.294128 -125.488991 13.979540
vertex -74.667961 -125.488991 13.824694
endloop
endfacet
facet normal 0.608764 0.000000 -0.793351
outer loop
vertex -74.667961 -123.993996 13.824694
vertex -74.667961 -125.488991 13.824694
vertex -74.988976 -123.993996 13.578371
endloop
endfacet
facet normal 0.608758 0.000000 -0.793356
outer loop
vertex -74.988976 -123.993996 13.578371
vertex -74.667961 -125.488991 13.824694
vertex -74.988976 -125.488991 13.578371
endloop
endfacet
facet normal 0.793364 0.000000 -0.608748
outer loop
vertex -74.988976 -123.993996 13.578371
vertex -74.988976 -125.488991 13.578371
vertex -75.235298 -123.993996 13.257349
endloop
endfacet
facet normal 0.793361 0.000000 -0.608752
outer loop
vertex -75.235298 -123.993996 13.257349
vertex -74.988976 -125.488991 13.578371
vertex -75.235298 -125.488991 13.257349
endloop
endfacet
facet normal 0.923879 0.000000 -0.382686
outer loop
vertex -75.235298 -123.993996 13.257349
vertex -75.235298 -125.488991 13.257349
vertex -75.390144 -123.993996 12.883524
endloop
endfacet
facet normal 0.923877 0.000000 -0.382689
outer loop
vertex -75.390144 -123.993996 12.883524
vertex -75.235298 -125.488991 13.257349
vertex -75.390144 -125.488991 12.883524
endloop
endfacet
facet normal 0.000000 1.000000 0.000000
outer loop
vertex -75.390144 -125.488991 12.883524
vertex -72.395775 -125.488991 12.883524
vertex -75.442963 -125.488991 12.482355
endloop
endfacet
facet normal 0.000000 1.000000 0.000004
outer loop
vertex -75.442963 -125.488991 12.482355
vertex -72.395775 -125.488991 12.883524
vertex -72.342957 -125.488991 12.482355
endloop
endfacet
facet normal 0.000000 1.000000 0.000000
outer loop
vertex -75.442963 -125.488991 12.482355
vertex -72.342957 -125.488991 12.482355
vertex -75.390144 -125.488991 12.081186
endloop
endfacet
facet normal 0.000000 1.000000 -0.000004
outer loop
vertex -75.390144 -125.488991 12.081186
vertex -72.342957 -125.488991 12.482355
vertex -72.395775 -125.488991 12.081186
endloop
endfacet
facet normal 0.000000 1.000000 0.000000
outer loop
vertex -75.390144 -125.488991 12.081186
vertex -72.395775 -125.488991 12.081186
vertex -75.235298 -125.488991 11.707354
endloop
endfacet
facet normal 0.000000 1.000000 -0.000008
outer loop
vertex -75.235298 -125.488991 11.707354
vertex -72.395775 -125.488991 12.081186
vertex -72.550621 -125.488991 11.707354
endloop
endfacet
facet normal 0.000000 1.000000 0.000071
outer loop
vertex -75.235298 -125.488991 11.707354
vertex -72.550621 -125.488991 11.707354
vertex -74.988976 -125.488991 11.386339
endloop
endfacet
facet normal 0.000000 1.000000 -0.000033
outer loop
vertex -74.988976 -125.488991 11.386339
vertex -72.550621 -125.488991 11.707354
vertex -72.796944 -125.488991 11.386339
endloop
endfacet
facet normal 0.000000 1.000000 -0.000057
outer loop
vertex -74.988976 -125.488991 11.386339
vertex -72.796944 -125.488991 11.386339
vertex -74.667961 -125.488991 11.140017
endloop
endfacet
facet normal 0.000000 1.000000 0.000040
outer loop
vertex -74.667961 -125.488991 11.140017
vertex -72.796944 -125.488991 11.386339
vertex -73.117958 -125.488991 11.140017
endloop
endfacet
facet normal 0.000000 1.000000 0.000000
outer loop
vertex -74.667961 -125.488991 11.140017
vertex -73.117958 -125.488991 11.140017
vertex -74.294128 -125.488991 10.985170
endloop
endfacet
facet normal 0.000000 1.000000 0.000123
outer loop
vertex -74.294128 -125.488991 10.985170
vertex -73.117958 -125.488991 11.140017
vertex -73.491791 -125.488991 10.985170
endloop
endfacet
facet normal 0.000000 1.000000 0.000000
outer loop
vertex -74.294128 -125.488991 10.985170
vertex -73.491791 -125.488991 10.985170
vertex -73.892960 -125.488991 10.932352
endloop
endfacet
facet normal 0.000000 1.000000 0.000000
outer loop
vertex -72.395775 -125.488991 12.883524
vertex -75.390144 -125.488991 12.883524
vertex -72.550621 -125.488991 13.257349
endloop
endfacet
facet normal 0.000000 1.000000 0.000008
outer loop
vertex -72.550621 -125.488991 13.257349
vertex -75.390144 -125.488991 12.883524
vertex -75.235298 -125.488991 13.257349
endloop
endfacet
facet normal 0.000000 1.000000 -0.000071
outer loop
vertex -72.550621 -125.488991 13.257349
vertex -75.235298 -125.488991 13.257349
vertex -72.796944 -125.488991 13.578371
endloop
endfacet
facet normal 0.000000 1.000000 0.000033
outer loop
vertex -72.796944 -125.488991 13.578371
vertex -75.235298 -125.488991 13.257349
vertex -74.988976 -125.488991 13.578371
endloop
endfacet
facet normal 0.000000 1.000000 0.000057
outer loop
vertex -72.796944 -125.488991 13.578371
vertex -74.988976 -125.488991 13.578371
vertex -73.117958 -125.488991 13.824694
endloop
endfacet
facet normal 0.000000 1.000000 -0.000040
outer loop
vertex -73.117958 -125.488991 13.824694
vertex -74.988976 -125.488991 13.578371
vertex -74.667961 -125.488991 13.824694
endloop
endfacet
facet normal 0.000000 1.000000 0.000000
outer loop
vertex -73.117958 -125.488991 13.824694
vertex -74.667961 -125.488991 13.824694
vertex -73.491791 -125.488991 13.979540
endloop
endfacet
facet normal 0.000000 1.000000 -0.000123
outer loop
vertex -73.491791 -125.488991 13.979540
vertex -74.667961 -125.488991 13.824694
vertex -74.294128 -125.488991 13.979540
endloop
endfacet
facet normal 0.000000 1.000000 0.000000
outer loop
vertex -73.491791 -125.488991 13.979540
vertex -74.294128 -125.488991 13.979540
vertex -73.892960 -125.488991 14.032351
endloop
endfacet
facet normal 0.991444 0.000000 0.130534
outer loop
vertex -75.390144 -127.983994 8.581186
vertex -75.390144 -126.488991 8.581186
vertex -75.442963 -127.983994 8.982355
endloop
endfacet
facet normal 0.991444 0.000000 0.130535
outer loop
vertex -75.442963 -127.983994 8.982355
vertex -75.390144 -126.488991 8.581186
vertex -75.442963 -126.488991 8.982355
endloop
endfacet
facet normal 0.991444 0.000000 -0.130534
outer loop
vertex -75.442963 -127.983994 8.982355
vertex -75.442963 -126.488991 8.982355
vertex -75.390144 -127.983994 9.383524
endloop
endfacet
facet normal 0.991444 0.000000 -0.130534
outer loop
vertex -75.390144 -127.983994 9.383524
vertex -75.442963 -126.488991 8.982355
vertex -75.390144 -126.488991 9.383524
endloop
endfacet
facet normal 0.923878 0.000000 -0.382688
outer loop
vertex -75.390144 -127.983994 9.383524
vertex -75.390144 -126.488991 9.383524
vertex -75.235298 -127.983994 9.757349
endloop
endfacet
facet normal 0.923875 0.000000 -0.382694
outer loop
vertex -75.235298 -127.983994 9.757349
vertex -75.390144 -126.488991 9.383524
vertex -75.235298 -126.488991 9.757349
endloop
endfacet
facet normal 0.793362 0.000000 -0.608750
outer loop
vertex -75.235298 -127.983994 9.757349
vertex -75.235298 -126.488991 9.757349
vertex -74.988976 -127.983994 10.078371
endloop
endfacet
facet normal 0.793359 0.000000 -0.608754
outer loop
vertex -74.988976 -127.983994 10.078371
vertex -75.235298 -126.488991 9.757349
vertex -74.988976 -126.488991 10.078371
endloop
endfacet
facet normal 0.608766 0.000000 -0.793350
outer loop
vertex -74.988976 -127.983994 10.078371
vertex -74.988976 -126.488991 10.078371
vertex -74.667961 -127.983994 10.324694
endloop
endfacet
facet normal 0.608760 0.000000 -0.793354
outer loop
vertex -74.667961 -127.983994 10.324694
vertex -74.988976 -126.488991 10.078371
vertex -74.667961 -126.488991 10.324694
endloop
endfacet
facet normal 0.382685 0.000000 -0.923879
outer loop
vertex -74.667961 -127.983994 10.324694
vertex -74.667961 -126.488991 10.324694
vertex -74.294128 -127.983994 10.479540
endloop
endfacet
facet normal 0.382680 0.000000 -0.923881
outer loop
vertex -74.294128 -127.983994 10.479540
vertex -74.667961 -126.488991 10.324694
vertex -74.294128 -126.488991 10.479540
endloop
endfacet
facet normal 0.130517 0.000000 -0.991446
outer loop
vertex -74.294128 -127.983994 10.479540
vertex -74.294128 -126.488991 10.479540
vertex -73.892960 -127.983994 10.532351
endloop
endfacet
facet normal 0.130513 0.000000 -0.991447
outer loop
vertex -73.892960 -127.983994 10.532351
vertex -74.294128 -126.488991 10.479540
vertex -73.892960 -126.488991 10.532351
endloop
endfacet
facet normal -0.130514 0.000000 -0.991446
outer loop
vertex -73.892960 -127.983994 10.532351
vertex -73.892960 -126.488991 10.532351
vertex -73.491791 -127.983994 10.479540
endloop
endfacet
facet normal -0.130516 0.000000 -0.991446
outer loop
vertex -73.491791 -127.983994 10.479540
vertex -73.892960 -126.488991 10.532351
vertex -73.491791 -126.488991 10.479540
endloop
endfacet
facet normal -0.382685 0.000000 -0.923879
outer loop
vertex -73.491791 -127.983994 10.479540
vertex -73.491791 -126.488991 10.479540
vertex -73.117958 -127.983994 10.324694
endloop
endfacet
facet normal -0.382680 0.000000 -0.923881
outer loop
vertex -73.117958 -127.983994 10.324694
vertex -73.491791 -126.488991 10.479540
vertex -73.117958 -126.488991 10.324694
endloop
endfacet
facet normal -0.608766 0.000000 -0.793350
outer loop
vertex -73.117958 -127.983994 10.324694
vertex -73.117958 -126.488991 10.324694
vertex -72.796944 -127.983994 10.078371
endloop
endfacet
facet normal -0.608760 0.000000 -0.793354
outer loop
vertex -72.796944 -127.983994 10.078371
vertex -73.117958 -126.488991 10.324694
vertex -72.796944 -126.488991 10.078371
endloop
endfacet
facet normal -0.793362 0.000000 -0.608750
outer loop
vertex -72.796944 -127.983994 10.078371
vertex -72.796944 -126.488991 10.078371
vertex -72.550621 -127.983994 9.757349
endloop
endfacet
facet normal -0.793359 0.000000 -0.608754
outer loop
vertex -72.550621 -127.983994 9.757349
vertex -72.796944 -126.488991 10.078371
vertex -72.550621 -126.488991 9.757349
endloop
endfacet
facet normal -0.923877 0.000000 -0.382689
outer loop
vertex -72.550621 -127.983994 9.757349
vertex -72.550621 -126.488991 9.757349
vertex -72.395775 -127.983994 9.383524
endloop
endfacet
facet normal -0.923875 0.000000 -0.382693
outer loop
vertex -72.395775 -127.983994 9.383524
vertex -72.550621 -126.488991 9.757349
vertex -72.395775 -126.488991 9.383524
endloop
endfacet
facet normal -0.991444 0.000000 -0.130534
outer loop
vertex -72.395775 -127.983994 9.383524
vertex -72.395775 -126.488991 9.383524
vertex -72.342957 -127.983994 8.982355
endloop
endfacet
facet normal -0.991444 0.000000 -0.130534
outer loop
vertex -72.342957 -127.983994 8.982355
vertex -72.395775 -126.488991 9.383524
vertex -72.342957 -126.488991 8.982355
endloop
endfacet
facet normal -0.991444 0.000000 0.130535
outer loop
vertex -72.342957 -127.983994 8.982355
vertex -72.342957 -126.488991 8.982355
vertex -72.395775 -127.983994 8.581186
endloop
endfacet
facet normal -0.991444 0.000000 0.130534
outer loop
vertex -72.395775 -127.983994 8.581186
vertex -72.342957 -126.488991 8.982355
vertex -72.395775 -126.488991 8.581186
endloop
endfacet
facet normal -0.923880 0.000000 0.382681
outer loop
vertex -72.395775 -127.983994 8.581186
vertex -72.395775 -126.488991 8.581186
vertex -72.550621 -127.983994 8.207354
endloop
endfacet
facet normal -0.923878 0.000000 0.382687
outer loop
vertex -72.550621 -127.983994 8.207354
vertex -72.395775 -126.488991 8.581186
vertex -72.550621 -126.488991 8.207354
endloop
endfacet
facet normal -0.793354 0.000000 0.608761
outer loop
vertex -72.550621 -127.983994 8.207354
vertex -72.550621 -126.488991 8.207354
vertex -72.796944 -127.983994 7.886339
endloop
endfacet
facet normal -0.793352 0.000000 0.608764
outer loop
vertex -72.796944 -127.983994 7.886339
vertex -72.550621 -126.488991 8.207354
vertex -72.796944 -126.488991 7.886339
endloop
endfacet
facet normal -0.608766 0.000000 0.793350
outer loop
vertex -72.796944 -127.983994 7.886339
vertex -72.796944 -126.488991 7.886339
vertex -73.117958 -127.983994 7.640017
endloop
endfacet
facet normal -0.608760 0.000000 0.793354
outer loop
vertex -73.117958 -127.983994 7.640017
vertex -72.796944 -126.488991 7.886339
vertex -73.117958 -126.488991 7.640017
endloop
endfacet
facet normal -0.382685 0.000000 0.923879
outer loop
vertex -73.117958 -127.983994 7.640017
vertex -73.117958 -126.488991 7.640017
vertex -73.491791 -127.983994 7.485170
endloop
endfacet
facet normal -0.382680 0.000000 0.923881
outer loop
vertex -73.491791 -127.983994 7.485170
vertex -73.117958 -126.488991 7.640017
vertex -73.491791 -126.488991 7.485170
endloop
endfacet
facet normal -0.130536 0.000000 0.991444
outer loop
vertex -73.491791 -127.983994 7.485170
vertex -73.491791 -126.488991 7.485170
vertex -73.892960 -127.983994 7.432352
endloop
endfacet
facet normal -0.130534 0.000000 0.991444
outer loop
vertex -73.892960 -127.983994 7.432352
vertex -73.491791 -126.488991 7.485170
vertex -73.892960 -126.488991 7.432352
endloop
endfacet
facet normal 0.130536 0.000000 0.991444
outer loop
vertex -73.892960 -127.983994 7.432352
vertex -73.892960 -126.488991 7.432352
vertex -74.294128 -127.983994 7.485170
endloop
endfacet
facet normal 0.130534 0.000000 0.991444
outer loop
vertex -74.294128 -127.983994 7.485170
vertex -73.892960 -126.488991 7.432352
vertex -74.294128 -126.488991 7.485170
endloop
endfacet
facet normal 0.382685 0.000000 0.923879
outer loop
vertex -74.294128 -127.983994 7.485170
vertex -74.294128 -126.488991 7.485170
vertex -74.667961 -127.983994 7.640017
endloop
endfacet
facet normal 0.382680 0.000000 0.923881
outer loop
vertex -74.667961 -127.983994 7.640017
vertex -74.294128 -126.488991 7.485170
vertex -74.667961 -126.488991 7.640017
endloop
endfacet
facet normal 0.608766 0.000000 0.793350
outer loop
vertex -74.667961 -127.983994 7.640017
vertex -74.667961 -126.488991 7.640017
vertex -74.988976 -127.983994 7.886339
endloop
endfacet
facet normal 0.608760 0.000000 0.793354
outer loop
vertex -74.988976 -127.983994 7.886339
vertex -74.667961 -126.488991 7.640017
vertex -74.988976 -126.488991 7.886339
endloop
endfacet
facet normal 0.793355 0.000000 0.608760
outer loop
vertex -74.988976 -127.983994 7.886339
vertex -74.988976 -126.488991 7.886339
vertex -75.235298 -127.983994 8.207354
endloop
endfacet
facet normal 0.793351 0.000000 0.608765
outer loop
vertex -75.235298 -127.983994 8.207354
vertex -74.988976 -126.488991 7.886339
vertex -75.235298 -126.488991 8.207354
endloop
endfacet
facet normal 0.923880 0.000000 0.382681
outer loop
vertex -75.235298 -127.983994 8.207354
vertex -75.235298 -126.488991 8.207354
vertex -75.390144 -127.983994 8.581186
endloop
endfacet
facet normal 0.923878 0.000000 0.382687
outer loop
vertex -75.390144 -127.983994 8.581186
vertex -75.235298 -126.488991 8.207354
vertex -75.390144 -126.488991 8.581186
endloop
endfacet
facet normal 0.000000 -1.000000 0.000051
outer loop
vertex -75.390144 -126.488991 8.581186
vertex -72.395775 -126.488991 8.581186
vertex -75.442963 -126.488991 8.982355
endloop
endfacet
facet normal 0.000000 -1.000000 -0.000008
outer loop
vertex -75.442963 -126.488991 8.982355
vertex -72.395775 -126.488991 8.581186
vertex -72.342957 -126.488991 8.982355
endloop
endfacet
facet normal 0.000000 -1.000000 0.000000
outer loop
vertex -75.442963 -126.488991 8.982355
vertex -72.342957 -126.488991 8.982355
vertex -75.390144 -126.488991 9.383524
endloop
endfacet
facet normal 0.000000 -1.000000 -0.000042
outer loop
vertex -75.390144 -126.488991 9.383524
vertex -72.342957 -126.488991 8.982355
vertex -72.395775 -126.488991 9.383524
endloop
endfacet
facet normal 0.000000 -1.000000 0.000055
outer loop
vertex -75.390144 -126.488991 9.383524
vertex -72.395775 -126.488991 9.383524
vertex -75.235298 -126.488991 9.757349
endloop
endfacet
facet normal 0.000000 -1.000000 -0.000008
outer loop
vertex -75.235298 -126.488991 9.757349
vertex -72.395775 -126.488991 9.383524
vertex -72.550621 -126.488991 9.757349
endloop
endfacet
facet normal 0.000000 -1.000000 0.000000
outer loop
vertex -75.235298 -126.488991 9.757349
vertex -72.550621 -126.488991 9.757349
vertex -74.988976 -126.488991 10.078371
endloop
endfacet
facet normal 0.000000 -1.000000 0.000011
outer loop
vertex -74.988976 -126.488991 10.078371
vertex -72.550621 -126.488991 9.757349
vertex -72.796944 -126.488991 10.078371
endloop
endfacet
facet normal 0.000000 -1.000000 -0.000113
outer loop
vertex -74.988976 -126.488991 10.078371
vertex -72.796944 -126.488991 10.078371
vertex -74.667961 -126.488991 10.324694
endloop
endfacet
facet normal 0.000000 -1.000000 0.000040
outer loop
vertex -74.667961 -126.488991 10.324694
vertex -72.796944 -126.488991 10.078371
vertex -73.117958 -126.488991 10.324694
endloop
endfacet
facet normal 0.000000 -1.000000 0.000000
outer loop
vertex -74.667961 -126.488991 10.324694
vertex -73.117958 -126.488991 10.324694
vertex -74.294128 -126.488991 10.479540
endloop
endfacet
facet normal 0.000000 -1.000000 0.000000
outer loop
vertex -74.294128 -126.488991 10.479540
vertex -73.117958 -126.488991 10.324694
vertex -73.491791 -126.488991 10.479540
endloop
endfacet
facet normal 0.000000 -1.000000 0.000000
outer loop
vertex -74.294128 -126.488991 10.479540
vertex -73.491791 -126.488991 10.479540
vertex -73.892960 -126.488991 10.532351
endloop
endfacet
facet normal 0.000000 -1.000000 -0.000055
outer loop
vertex -72.395775 -126.488991 8.581186
vertex -75.390144 -126.488991 8.581186
vertex -72.550621 -126.488991 8.207354
endloop
endfacet
facet normal 0.000000 -1.000000 0.000008
outer loop
vertex -72.550621 -126.488991 8.207354
vertex -75.390144 -126.488991 8.581186
vertex -75.235298 -126.488991 8.207354
endloop
endfacet
facet normal 0.000000 -1.000000 0.000000
outer loop
vertex -72.550621 -126.488991 8.207354
vertex -75.235298 -126.488991 8.207354
vertex -72.796944 -126.488991 7.886339
endloop
endfacet
facet normal 0.000000 -1.000000 -0.000011
outer loop
vertex -72.796944 -126.488991 7.886339
vertex -75.235298 -126.488991 8.207354
vertex -74.988976 -126.488991 7.886339
endloop
endfacet
facet normal 0.000000 -1.000000 0.000113
outer loop
vertex -72.796944 -126.488991 7.886339
vertex -74.988976 -126.488991 7.886339
vertex -73.117958 -126.488991 7.640017
endloop
endfacet
facet normal 0.000000 -1.000000 -0.000040
outer loop
vertex -73.117958 -126.488991 7.640017
vertex -74.988976 -126.488991 7.886339
vertex -74.667961 -126.488991 7.640017
endloop
endfacet
facet normal 0.000000 -1.000000 0.000000
outer loop
vertex -73.117958 -126.488991 7.640017
vertex -74.667961 -126.488991 7.640017
vertex -73.491791 -126.488991 7.485170
endloop
endfacet
facet normal 0.000000 -1.000000 0.000000
outer loop
vertex -73.491791 -126.488991 7.485170
vertex -74.667961 -126.488991 7.640017
vertex -74.294128 -126.488991 7.485170
endloop
endfacet
facet normal 0.000000 -1.000000 0.000000
outer loop
vertex -73.491791 -126.488991 7.485170
vertex -74.294128 -126.488991 7.485170
vertex -73.892960 -126.488991 7.432352
endloop
endfacet
facet normal -0.707106 0.000000 -0.707108
outer loop
vertex -80.892960 -123.993996 8.982355
vertex -77.392960 -123.993996 5.482355
vertex -80.892960 -127.983994 8.982355
endloop
endfacet
facet normal -0.707107 0.000000 -0.707106
outer loop
vertex -80.892960 -127.983994 8.982355
vertex -77.392960 -123.993996 5.482355
vertex -77.392960 -127.983994 5.482355
endloop
endfacet
facet normal -1.000000 0.000000 0.000000
outer loop
vertex -80.892960 -123.993996 15.982355
vertex -80.892960 -123.993996 8.982355
vertex -80.892960 -127.983994 15.982355
endloop
endfacet
facet normal -1.000000 0.000000 0.000000
outer loop
vertex -80.892960 -127.983994 15.982355
vertex -80.892960 -123.993996 8.982355
vertex -80.892960 -127.983994 8.982355
endloop
endfacet
facet normal 0.707107 0.000000 0.707107
outer loop
vertex -70.392960 -125.488991 19.482355
vertex -70.392960 -127.983994 19.482355
vertex -69.296944 -125.488991 18.386339
endloop
endfacet
facet normal 0.707108 0.000000 0.707106
outer loop
vertex -69.296944 -125.488991 18.386339
vertex -70.392960 -127.983994 19.482355
vertex -66.892960 -127.983994 15.982355
endloop
endfacet
facet normal 0.707106 0.000000 0.707108
outer loop
vertex -69.296944 -125.488991 18.386339
vertex -66.892960 -127.983994 15.982355
vertex -66.892960 -123.993996 15.982355
endloop
endfacet
facet normal 0.707108 0.000000 0.707106
outer loop
vertex -66.892960 -123.993996 15.982355
vertex -69.296944 -123.993996 18.386339
vertex -69.296944 -125.488991 18.386339
endloop
endfacet
facet normal 1.000000 0.000000 0.000000
outer loop
vertex -66.892960 -123.993996 8.982355
vertex -66.892960 -123.993996 15.982355
vertex -66.892960 -127.983994 8.982355
endloop
endfacet
facet normal 1.000000 0.000000 0.000000
outer loop
vertex -66.892960 -127.983994 8.982355
vertex -66.892960 -123.993996 15.982355
vertex -66.892960 -127.983994 15.982355
endloop
endfacet
facet normal 0.707106 0.000000 -0.707108
outer loop
vertex -70.392960 -123.993996 5.482355
vertex -66.892960 -123.993996 8.982355
vertex -70.392960 -127.983994 5.482355
endloop
endfacet
facet normal 0.707107 0.000000 -0.707106
outer loop
vertex -70.392960 -127.983994 5.482355
vertex -66.892960 -123.993996 8.982355
vertex -66.892960 -127.983994 8.982355
endloop
endfacet
facet normal 0.000000 0.000000 -1.000000
outer loop
vertex -77.392960 -123.993996 5.482355
vertex -70.392960 -123.993996 5.482355
vertex -77.392960 -127.983994 5.482355
endloop
endfacet
facet normal 0.000000 0.000000 -1.000000
outer loop
vertex -77.392960 -127.983994 5.482355
vertex -70.392960 -123.993996 5.482355
vertex -70.392960 -127.983994 5.482355
endloop
endfacet
facet normal 0.000000 -1.000000 0.000000
outer loop
vertex -77.392960 -127.983994 17.532351
vertex -70.392937 -127.983994 17.532351
vertex -70.392960 -127.983994 19.482355
endloop
endfacet
facet normal 0.000000 -1.000000 0.000000
outer loop
vertex -70.392960 -127.983994 19.482355
vertex -70.392937 -127.983994 17.532351
vertex -69.991776 -127.983994 17.479532
endloop
endfacet
facet normal 0.000000 -1.000000 0.000000
outer loop
vertex -70.392960 -127.983994 19.482355
vertex -69.991776 -127.983994 17.479532
vertex -69.617943 -127.983994 17.324686
endloop
endfacet
facet normal 0.000000 -1.000000 0.000000
outer loop
vertex -69.617943 -127.983994 17.324686
vertex -69.296936 -127.983994 17.078363
vertex -70.392960 -127.983994 19.482355
endloop
endfacet
facet normal 0.000000 -1.000000 0.000000
outer loop
vertex -70.392960 -127.983994 19.482355
vertex -69.296936 -127.983994 17.078363
vertex -66.892960 -127.983994 15.982355
endloop
endfacet
facet normal 0.000000 -1.000000 -0.000023
outer loop
vertex -66.892960 -127.983994 15.982355
vertex -69.296936 -127.983994 17.078363
vertex -69.050613 -127.983994 16.757349
endloop
endfacet
facet normal 0.000000 -1.000000 0.000072
outer loop
vertex -66.892960 -127.983994 15.982355
vertex -69.050613 -127.983994 16.757349
vertex -68.895775 -127.983994 16.383516
endloop
endfacet
facet normal 0.000000 -1.000000 -0.000039
outer loop
vertex -68.895775 -127.983994 16.383516
vertex -68.842957 -127.983994 15.982355
vertex -66.892960 -127.983994 15.982355
endloop
endfacet
facet normal 0.000000 -1.000000 -0.000000
outer loop
vertex -66.892960 -127.983994 15.982355
vertex -68.842957 -127.983994 15.982355
vertex -68.842949 -127.983994 12.482355
endloop
endfacet
facet normal 0.000000 -1.000000 0.000000
outer loop
vertex -66.892960 -127.983994 15.982355
vertex -68.842949 -127.983994 12.482355
vertex -66.892960 -127.983994 8.982355
endloop
endfacet
facet normal 0.000000 -1.000000 0.000044
outer loop
vertex -66.892960 -127.983994 8.982355
vertex -68.842949 -127.983994 12.482355
vertex -68.895760 -127.983994 12.081186
endloop
endfacet
facet normal 0.000000 -1.000000 -0.000040
outer loop
vertex -66.892960 -127.983994 8.982355
vertex -68.895760 -127.983994 12.081186
vertex -69.050606 -127.983994 11.707354
endloop
endfacet
facet normal 0.000000 -1.000000 0.000000
outer loop
vertex -69.050606 -127.983994 11.707354
vertex -69.296928 -127.983994 11.386339
vertex -66.892960 -127.983994 8.982355
endloop
endfacet
facet normal 0.000000 -1.000000 0.000017
outer loop
vertex -66.892960 -127.983994 8.982355
vertex -69.296928 -127.983994 11.386339
vertex -69.617943 -127.983994 11.140017
endloop
endfacet
facet normal 0.000000 -1.000000 0.000006
outer loop
vertex -66.892960 -127.983994 8.982355
vertex -69.617943 -127.983994 11.140017
vertex -69.991776 -127.983994 10.985170
endloop
endfacet
facet normal 0.000000 -1.000000 -0.000073
outer loop
vertex -70.392944 -127.983994 10.932352
vertex -72.395775 -127.983994 8.581186
vertex -69.991776 -127.983994 10.985170
endloop
endfacet
facet normal 0.000000 -1.000000 0.000005
outer loop
vertex -69.991776 -127.983994 10.985170
vertex -72.395775 -127.983994 8.581186
vertex -70.392960 -127.983994 5.482355
endloop
endfacet
facet normal 0.000000 -1.000000 -0.000003
outer loop
vertex -69.991776 -127.983994 10.985170
vertex -70.392960 -127.983994 5.482355
vertex -66.892960 -127.983994 8.982355
endloop
endfacet
facet normal 0.000000 -1.000000 0.000045
outer loop
vertex -72.395775 -127.983994 8.581186
vertex -70.392944 -127.983994 10.932352
vertex -72.342957 -127.983994 8.982355
endloop
endfacet
facet normal 0.000000 -1.000000 -0.000009
outer loop
vertex -72.342957 -127.983994 8.982355
vertex -70.392944 -127.983994 10.932352
vertex -70.794113 -127.983994 10.985163
endloop
endfacet
facet normal 0.000000 -1.000000 0.000000
outer loop
vertex -72.342957 -127.983994 8.982355
vertex -70.794113 -127.983994 10.985163
vertex -72.395775 -127.983994 9.383524
endloop
endfacet
facet normal 0.000000 -1.000000 0.000009
outer loop
vertex -72.395775 -127.983994 9.383524
vertex -70.794113 -127.983994 10.985163
vertex -71.167946 -127.983994 11.140009
endloop
endfacet
facet normal 0.000000 -1.000000 0.000000
outer loop
vertex -72.395775 -127.983994 9.383524
vertex -71.167946 -127.983994 11.140009
vertex -72.550621 -127.983994 9.757349
endloop
endfacet
facet normal 0.000000 -1.000000 0.000029
outer loop
vertex -72.550621 -127.983994 9.757349
vertex -71.167946 -127.983994 11.140009
vertex -71.488960 -127.983994 11.386332
endloop
endfacet
facet normal 0.000000 -1.000000 0.000000
outer loop
vertex -72.550621 -127.983994 9.757349
vertex -71.488960 -127.983994 11.386332
vertex -72.796944 -127.983994 10.078371
endloop
endfacet
facet normal 0.000000 -1.000000 0.000015
outer loop
vertex -72.796944 -127.983994 10.078371
vertex -71.488960 -127.983994 11.386332
vertex -71.735283 -127.983994 11.707346
endloop
endfacet
facet normal 0.000000 -1.000000 -0.000039
outer loop
vertex -72.796944 -127.983994 10.078371
vertex -71.735283 -127.983994 11.707346
vertex -73.117958 -127.983994 10.324694
endloop
endfacet
facet normal 0.000000 -1.000000 0.000016
outer loop
vertex -73.117958 -127.983994 10.324694
vertex -71.735283 -127.983994 11.707346
vertex -71.890129 -127.983994 12.081179
endloop
endfacet
facet normal 0.000000 -1.000000 0.000000
outer loop
vertex -73.117958 -127.983994 10.324694
vertex -71.890129 -127.983994 12.081179
vertex -73.491791 -127.983994 10.479540
endloop
endfacet
facet normal 0.000000 -1.000000 0.000017
outer loop
vertex -73.491791 -127.983994 10.479540
vertex -71.890129 -127.983994 12.081179
vertex -71.942947 -127.983994 12.482347
endloop
endfacet
facet normal 0.000000 -1.000000 0.000000
outer loop
vertex -73.491791 -127.983994 10.479540
vertex -71.942947 -127.983994 12.482347
vertex -73.892960 -127.983994 10.532351
endloop
endfacet
facet normal 0.000000 -1.000000 0.000000
outer loop
vertex -73.892960 -127.983994 10.532351
vertex -71.942947 -127.983994 12.482347
vertex -75.842957 -127.983994 12.482355
endloop
endfacet
facet normal 0.000000 -1.000000 0.000048
outer loop
vertex -73.892960 -127.983994 10.532351
vertex -75.842957 -127.983994 12.482355
vertex -75.895775 -127.983994 12.081186
endloop
endfacet
facet normal 0.000000 -1.000000 0.000000
outer loop
vertex -71.942955 -127.983994 14.432276
vertex -75.842957 -127.983994 14.432070
vertex -71.942947 -127.983994 12.482347
endloop
endfacet
facet normal 0.000000 -1.000000 0.000000
outer loop
vertex -71.942947 -127.983994 12.482347
vertex -75.842957 -127.983994 14.432070
vertex -75.842957 -127.983994 12.482355
endloop
endfacet
facet normal 0.000000 -1.000000 -0.000042
outer loop
vertex -73.892960 -127.983994 10.532351
vertex -75.895775 -127.983994 12.081186
vertex -74.294128 -127.983994 10.479540
endloop
endfacet
facet normal 0.000000 -1.000000 -0.000023
outer loop
vertex -74.294128 -127.983994 10.479540
vertex -75.895775 -127.983994 12.081186
vertex -76.050621 -127.983994 11.707354
endloop
endfacet
facet normal 0.000000 -1.000000 0.000042
outer loop
vertex -74.294128 -127.983994 10.479540
vertex -76.050621 -127.983994 11.707354
vertex -74.667961 -127.983994 10.324694
endloop
endfacet
facet normal 0.000000 -1.000000 -0.000024
outer loop
vertex -74.667961 -127.983994 10.324694
vertex -76.050621 -127.983994 11.707354
vertex -76.296944 -127.983994 11.386339
endloop
endfacet
facet normal 0.000000 -1.000000 0.000000
outer loop
vertex -74.667961 -127.983994 10.324694
vertex -76.296944 -127.983994 11.386339
vertex -74.988976 -127.983994 10.078371
endloop
endfacet
facet normal 0.000000 -1.000000 -0.000010
outer loop
vertex -74.988976 -127.983994 10.078371
vertex -76.296944 -127.983994 11.386339
vertex -76.617958 -127.983994 11.140017
endloop
endfacet
facet normal 0.000000 -1.000000 0.000039
outer loop
vertex -74.988976 -127.983994 10.078371
vertex -76.617958 -127.983994 11.140017
vertex -75.235298 -127.983994 9.757349
endloop
endfacet
facet normal 0.000000 -1.000000 -0.000031
outer loop
vertex -75.235298 -127.983994 9.757349
vertex -76.617958 -127.983994 11.140017
vertex -76.991791 -127.983994 10.985170
endloop
endfacet
facet normal 0.000000 -1.000000 0.000036
outer loop
vertex -75.235298 -127.983994 9.757349
vertex -76.991791 -127.983994 10.985170
vertex -75.390144 -127.983994 9.383524
endloop
endfacet
facet normal 0.000000 -1.000000 0.000031
outer loop
vertex -75.390144 -127.983994 9.383524
vertex -76.991791 -127.983994 10.985170
vertex -77.392960 -127.983994 10.932352
endloop
endfacet
facet normal 0.000000 -1.000000 -0.000034
outer loop
vertex -75.390144 -127.983994 9.383524
vertex -77.392960 -127.983994 10.932352
vertex -75.442963 -127.983994 8.982355
endloop
endfacet
facet normal 0.000000 -1.000000 0.000034
outer loop
vertex -75.442963 -127.983994 8.982355
vertex -77.392960 -127.983994 10.932352
vertex -77.794128 -127.983994 10.985170
endloop
endfacet
facet normal 0.000000 -1.000000 0.000000
outer loop
vertex -75.442963 -127.983994 8.982355
vertex -77.794128 -127.983994 10.985170
vertex -75.390144 -127.983994 8.581186
endloop
endfacet
facet normal 0.000000 -1.000000 0.000003
outer loop
vertex -75.390144 -127.983994 8.581186
vertex -77.794128 -127.983994 10.985170
vertex -77.392960 -127.983994 5.482355
endloop
endfacet
facet normal 0.000000 -1.000000 -0.000050
outer loop
vertex -75.390144 -127.983994 8.581186
vertex -77.392960 -127.983994 5.482355
vertex -75.235298 -127.983994 8.207354
endloop
endfacet
facet normal 0.000000 -1.000000 0.000000
outer loop
vertex -75.235298 -127.983994 8.207354
vertex -77.392960 -127.983994 5.482355
vertex -74.988976 -127.983994 7.886339
endloop
endfacet
facet normal 0.000000 -1.000000 0.000000
outer loop
vertex -74.988976 -127.983994 7.886339
vertex -77.392960 -127.983994 5.482355
vertex -74.667961 -127.983994 7.640017
endloop
endfacet
facet normal 0.000000 -1.000000 0.000000
outer loop
vertex -74.667961 -127.983994 7.640017
vertex -77.392960 -127.983994 5.482355
vertex -74.294128 -127.983994 7.485170
endloop
endfacet
facet normal 0.000000 -1.000000 -0.000063
outer loop
vertex -74.294128 -127.983994 7.485170
vertex -77.392960 -127.983994 5.482355
vertex -73.892960 -127.983994 7.432352
endloop
endfacet
facet normal 0.000000 -1.000000 0.000000
outer loop
vertex -73.892960 -127.983994 7.432352
vertex -77.392960 -127.983994 5.482355
vertex -70.392960 -127.983994 5.482355
endloop
endfacet
facet normal 0.000000 -1.000000 -0.000063
outer loop
vertex -73.892960 -127.983994 7.432352
vertex -70.392960 -127.983994 5.482355
vertex -73.491791 -127.983994 7.485170
endloop
endfacet
facet normal 0.000000 -1.000000 0.000000
outer loop
vertex -73.491791 -127.983994 7.485170
vertex -70.392960 -127.983994 5.482355
vertex -73.117958 -127.983994 7.640017
endloop
endfacet
facet normal 0.000000 -1.000000 0.000000
outer loop
vertex -73.117958 -127.983994 7.640017
vertex -70.392960 -127.983994 5.482355
vertex -72.796944 -127.983994 7.886339
endloop
endfacet
facet normal 0.000000 -1.000000 0.000000
outer loop
vertex -72.796944 -127.983994 7.886339
vertex -70.392960 -127.983994 5.482355
vertex -72.550621 -127.983994 8.207354
endloop
endfacet
facet normal 0.000000 -1.000000 -0.000050
outer loop
vertex -72.550621 -127.983994 8.207354
vertex -70.392960 -127.983994 5.482355
vertex -72.395775 -127.983994 8.581186
endloop
endfacet
facet normal 0.000000 -1.000000 -0.000003
outer loop
vertex -77.392960 -127.983994 5.482355
vertex -77.794128 -127.983994 10.985170
vertex -80.892960 -127.983994 8.982355
endloop
endfacet
facet normal 0.000000 -1.000000 0.000006
outer loop
vertex -80.892960 -127.983994 8.982355
vertex -77.794128 -127.983994 10.985170
vertex -78.167961 -127.983994 11.140017
endloop
endfacet
facet normal 0.000000 -1.000000 0.000017
outer loop
vertex -80.892960 -127.983994 8.982355
vertex -78.167961 -127.983994 11.140017
vertex -78.488976 -127.983994 11.386339
endloop
endfacet
facet normal 0.000000 -1.000000 0.000000
outer loop
vertex -78.488976 -127.983994 11.386339
vertex -78.735298 -127.983994 11.707354
vertex -80.892960 -127.983994 8.982355
endloop
endfacet
facet normal 0.000000 -1.000000 -0.000040
outer loop
vertex -80.892960 -127.983994 8.982355
vertex -78.735298 -127.983994 11.707354
vertex -78.890144 -127.983994 12.081186
endloop
endfacet
facet normal 0.000000 -1.000000 0.000044
outer loop
vertex -80.892960 -127.983994 8.982355
vertex -78.890144 -127.983994 12.081186
vertex -78.942963 -127.983994 12.482355
endloop
endfacet
facet normal 0.000000 -1.000000 0.000000
outer loop
vertex -80.892960 -127.983994 8.982355
vertex -78.942963 -127.983994 12.482355
vertex -80.892960 -127.983994 15.982355
endloop
endfacet
facet normal 0.000000 -1.000000 0.000000
outer loop
vertex -80.892960 -127.983994 15.982355
vertex -78.942963 -127.983994 12.482355
vertex -78.942963 -127.983994 15.981989
endloop
endfacet
facet normal 0.000000 -1.000000 -0.000055
outer loop
vertex -80.892960 -127.983994 15.982355
vertex -78.942963 -127.983994 15.981989
vertex -78.890144 -127.983994 16.383165
endloop
endfacet
facet normal 0.000000 -1.000000 0.000089
outer loop
vertex -78.890144 -127.983994 16.383165
vertex -78.735298 -127.983994 16.756990
vertex -80.892960 -127.983994 15.982355
endloop
endfacet
facet normal 0.000000 -1.000000 -0.000023
outer loop
vertex -80.892960 -127.983994 15.982355
vertex -78.735298 -127.983994 16.756990
vertex -78.488976 -127.983994 17.078005
endloop
endfacet
facet normal 0.000000 -1.000000 0.000000
outer loop
vertex -80.892960 -127.983994 15.982355
vertex -78.488976 -127.983994 17.078005
vertex -77.392960 -127.983994 19.482355
endloop
endfacet
facet normal 0.000000 -1.000000 0.000015
outer loop
vertex -77.392960 -127.983994 19.482355
vertex -78.488976 -127.983994 17.078005
vertex -78.167961 -127.983994 17.324335
endloop
endfacet
facet normal 0.000000 -1.000000 0.000000
outer loop
vertex -77.392960 -127.983994 19.482355
vertex -78.167961 -127.983994 17.324335
vertex -77.794128 -127.983994 17.479174
endloop
endfacet
facet normal 0.000000 -1.000000 0.000000
outer loop
vertex -77.392960 -127.983994 17.531992
vertex -77.392960 -127.983994 17.532351
vertex -77.794128 -127.983994 17.479174
endloop
endfacet
facet normal 0.000000 -1.000000 0.000000
outer loop
vertex -77.794128 -127.983994 17.479174
vertex -77.392960 -127.983994 17.532351
vertex -77.392960 -127.983994 19.482355
endloop
endfacet
facet normal 0.000000 -1.000000 0.000000
outer loop
vertex -77.392960 -127.983994 19.482355
vertex -77.392960 -127.983994 17.532351
vertex -70.392960 -127.983994 19.482355
endloop
endfacet
endsolid ShogiChessCncAndPLA v2.011
