solid ShogiChessCncAndPLA v2.019
facet normal -0.028687 0.000000 0.999588
outer loop
vertex -137.159271 -125.488991 -6.677313
vertex -137.159271 -123.993988 -6.677313
vertex -137.203949 -125.488991 -6.678595
endloop
endfacet
facet normal -0.028659 0.000000 0.999589
outer loop
vertex -137.203949 -125.488991 -6.678595
vertex -137.159271 -123.993988 -6.677313
vertex -137.203949 -123.993988 -6.678595
endloop
endfacet
facet normal 0.000000 0.000000 1.000000
outer loop
vertex -137.203949 -125.488991 -6.678595
vertex -137.203949 -123.993988 -6.678595
vertex -137.248627 -125.488991 -6.678595
endloop
endfacet
facet normal 0.000000 0.000000 1.000000
outer loop
vertex -137.248627 -125.488991 -6.678595
vertex -137.203949 -123.993988 -6.678595
vertex -137.248627 -123.993988 -6.678595
endloop
endfacet
facet normal 0.028668 0.000000 0.999589
outer loop
vertex -137.248627 -125.488991 -6.678595
vertex -137.248627 -123.993988 -6.678595
vertex -137.293289 -125.488991 -6.677313
endloop
endfacet
facet normal 0.028697 0.000000 0.999588
outer loop
vertex -137.293289 -125.488991 -6.677313
vertex -137.248627 -123.993988 -6.678595
vertex -137.293289 -123.993988 -6.677313
endloop
endfacet
facet normal 0.000000 0.000000 1.000000
outer loop
vertex -135.276047 -123.993988 -6.677313
vertex -137.159271 -123.993988 -6.677313
vertex -135.276047 -125.488991 -6.677313
endloop
endfacet
facet normal 0.000000 0.000000 1.000000
outer loop
vertex -135.276047 -125.488991 -6.677313
vertex -137.159271 -123.993988 -6.677313
vertex -137.159271 -125.488991 -6.677313
endloop
endfacet
facet normal 1.000000 0.000000 -0.000047
outer loop
vertex -135.276138 -123.993988 -8.607336
vertex -135.276047 -123.993988 -6.677313
vertex -135.276138 -125.488991 -8.607336
endloop
endfacet
facet normal 1.000000 0.000000 -0.000047
outer loop
vertex -135.276138 -125.488991 -8.607336
vertex -135.276047 -123.993988 -6.677313
vertex -135.276047 -125.488991 -6.677313
endloop
endfacet
facet normal 0.999954 0.000000 0.009646
outer loop
vertex -135.276138 -125.488991 -8.650045
vertex -135.276138 -123.993988 -8.650045
vertex -135.276276 -125.488991 -8.635809
endloop
endfacet
facet normal 0.999954 0.000000 0.009645
outer loop
vertex -135.276276 -125.488991 -8.635809
vertex -135.276138 -123.993988 -8.650045
vertex -135.276276 -123.993988 -8.635809
endloop
endfacet
facet normal 1.000000 0.000000 0.000000
outer loop
vertex -135.276276 -125.488991 -8.635809
vertex -135.276276 -123.993988 -8.635809
vertex -135.276276 -125.488991 -8.621572
endloop
endfacet
facet normal 1.000000 0.000000 0.000000
outer loop
vertex -135.276276 -125.488991 -8.621572
vertex -135.276276 -123.993988 -8.635809
vertex -135.276276 -123.993988 -8.621572
endloop
endfacet
facet normal 0.999954 0.000000 -0.009646
outer loop
vertex -135.276276 -125.488991 -8.621572
vertex -135.276276 -123.993988 -8.621572
vertex -135.276138 -125.488991 -8.607336
endloop
endfacet
facet normal 0.999954 0.000000 -0.009646
outer loop
vertex -135.276138 -125.488991 -8.607336
vertex -135.276276 -123.993988 -8.621572
vertex -135.276138 -123.993988 -8.607336
endloop
endfacet
facet normal 0.042858 0.000000 -0.999081
outer loop
vertex -137.326355 -125.488991 -3.580542
vertex -137.326355 -123.993988 -3.580542
vertex -137.259125 -125.488991 -3.577658
endloop
endfacet
facet normal 0.042858 0.000000 -0.999081
outer loop
vertex -137.259125 -125.488991 -3.577658
vertex -137.326355 -123.993988 -3.580542
vertex -137.259125 -123.993988 -3.577658
endloop
endfacet
facet normal -0.000455 0.000000 -1.000000
outer loop
vertex -137.259125 -125.488991 -3.577658
vertex -137.259125 -123.993988 -3.577658
vertex -137.191818 -125.488991 -3.577688
endloop
endfacet
facet normal -0.000455 0.000000 -1.000000
outer loop
vertex -137.191818 -125.488991 -3.577688
vertex -137.259125 -123.993988 -3.577658
vertex -137.191818 -123.993988 -3.577688
endloop
endfacet
facet normal -0.043984 0.000000 -0.999032
outer loop
vertex -137.191818 -125.488991 -3.577688
vertex -137.191818 -123.993988 -3.577688
vertex -137.124588 -125.488991 -3.580648
endloop
endfacet
facet normal -0.043993 0.000000 -0.999032
outer loop
vertex -137.124588 -125.488991 -3.580648
vertex -137.191818 -123.993988 -3.577688
vertex -137.124588 -123.993988 -3.580648
endloop
endfacet
facet normal -0.000525 0.000000 -1.000000
outer loop
vertex -140.725464 -123.993988 -3.578756
vertex -137.326355 -123.993988 -3.580542
vertex -140.725464 -125.488991 -3.578756
endloop
endfacet
facet normal -0.000525 0.000000 -1.000000
outer loop
vertex -140.725464 -125.488991 -3.578756
vertex -137.326355 -123.993988 -3.580542
vertex -137.326355 -125.488991 -3.580542
endloop
endfacet
facet normal 0.993764 0.000000 -0.111504
outer loop
vertex -142.276276 -125.488991 -5.129568
vertex -142.276276 -123.993988 -5.129568
vertex -142.237549 -125.488991 -4.784414
endloop
endfacet
facet normal 0.993764 0.000000 -0.111500
outer loop
vertex -142.237549 -125.488991 -4.784414
vertex -142.276276 -123.993988 -5.129568
vertex -142.237549 -123.993988 -4.784414
endloop
endfacet
facet normal 0.943989 0.000000 -0.329978
outer loop
vertex -142.237549 -125.488991 -4.784414
vertex -142.237549 -123.993988 -4.784414
vertex -142.122940 -123.993988 -4.456549
endloop
endfacet
facet normal 0.943987 0.000000 -0.329981
outer loop
vertex -142.237549 -125.488991 -4.784414
vertex -142.122940 -123.993988 -4.456549
vertex -142.122940 -125.488991 -4.456549
endloop
endfacet
facet normal 0.846792 0.000000 -0.531924
outer loop
vertex -142.122940 -125.488991 -4.456549
vertex -142.122940 -123.993988 -4.456549
vertex -141.938187 -123.993988 -4.162436
endloop
endfacet
facet normal 0.846786 0.000000 -0.531934
outer loop
vertex -142.122940 -125.488991 -4.456549
vertex -141.938187 -123.993988 -4.162436
vertex -141.938187 -125.488991 -4.162436
endloop
endfacet
facet normal 0.707108 0.000000 -0.707106
outer loop
vertex -141.938187 -125.488991 -4.162436
vertex -141.938187 -123.993988 -4.162436
vertex -141.692596 -123.993988 -3.916845
endloop
endfacet
facet normal 0.707109 0.000000 -0.707105
outer loop
vertex -141.938187 -125.488991 -4.162436
vertex -141.692596 -123.993988 -3.916845
vertex -141.692596 -125.488991 -3.916845
endloop
endfacet
facet normal 0.531893 0.000000 -0.846812
outer loop
vertex -141.692596 -125.488991 -3.916845
vertex -141.692596 -123.993988 -3.916845
vertex -141.398483 -123.993988 -3.732107
endloop
endfacet
facet normal 0.531898 0.000000 -0.846808
outer loop
vertex -141.692596 -125.488991 -3.916845
vertex -141.398483 -123.993988 -3.732107
vertex -141.398483 -125.488991 -3.732107
endloop
endfacet
facet normal 0.330022 0.000000 -0.943973
outer loop
vertex -141.398483 -125.488991 -3.732107
vertex -141.398483 -123.993988 -3.732107
vertex -141.070618 -123.993988 -3.617483
endloop
endfacet
facet normal 0.330016 0.000000 -0.943976
outer loop
vertex -141.398483 -125.488991 -3.732107
vertex -141.070618 -123.993988 -3.617483
vertex -141.070618 -125.488991 -3.617483
endloop
endfacet
facet normal 0.111502 0.000000 -0.993764
outer loop
vertex -141.070618 -125.488991 -3.617483
vertex -141.070618 -123.993988 -3.617483
vertex -140.725464 -125.488991 -3.578756
endloop
endfacet
facet normal 0.111502 0.000000 -0.993764
outer loop
vertex -140.725464 -125.488991 -3.578756
vertex -141.070618 -123.993988 -3.617483
vertex -140.725464 -123.993988 -3.578756
endloop
endfacet
facet normal 1.000000 0.000000 0.000000
outer loop
vertex -142.276276 -123.993988 -12.128759
vertex -142.276276 -123.993988 -5.129568
vertex -142.276276 -125.488991 -12.128759
endloop
endfacet
facet normal 1.000000 0.000000 0.000000
outer loop
vertex -142.276276 -125.488991 -12.128759
vertex -142.276276 -123.993988 -5.129568
vertex -142.276276 -125.488991 -5.129568
endloop
endfacet
facet normal 0.102373 0.000000 0.994746
outer loop
vertex -140.710236 -125.488991 -13.678671
vertex -140.710236 -123.993988 -13.678671
vertex -141.057770 -125.488991 -13.642904
endloop
endfacet
facet normal 0.102374 0.000000 0.994746
outer loop
vertex -141.057770 -125.488991 -13.642904
vertex -140.710236 -123.993988 -13.678671
vertex -141.057770 -123.993988 -13.642904
endloop
endfacet
facet normal 0.322588 0.000000 0.946539
outer loop
vertex -141.057770 -125.488991 -13.642904
vertex -141.057770 -123.993988 -13.642904
vertex -141.388458 -123.993988 -13.530203
endloop
endfacet
facet normal 0.322590 0.000000 0.946539
outer loop
vertex -141.057770 -125.488991 -13.642904
vertex -141.388458 -123.993988 -13.530203
vertex -141.388458 -125.488991 -13.530203
endloop
endfacet
facet normal 0.526389 0.000000 0.850244
outer loop
vertex -141.388458 -125.488991 -13.530203
vertex -141.388458 -123.993988 -13.530203
vertex -141.685501 -123.993988 -13.346304
endloop
endfacet
facet normal 0.526382 0.000000 0.850248
outer loop
vertex -141.388458 -125.488991 -13.530203
vertex -141.685501 -123.993988 -13.346304
vertex -141.685501 -125.488991 -13.346304
endloop
endfacet
facet normal 0.703453 0.000000 0.710742
outer loop
vertex -141.685501 -125.488991 -13.346304
vertex -141.685501 -123.993988 -13.346304
vertex -141.933823 -123.993988 -13.100531
endloop
endfacet
facet normal 0.703446 0.000000 0.710749
outer loop
vertex -141.685501 -125.488991 -13.346304
vertex -141.933823 -123.993988 -13.100531
vertex -141.933823 -125.488991 -13.100531
endloop
endfacet
facet normal 0.844749 0.000000 0.535163
outer loop
vertex -141.933823 -125.488991 -13.100531
vertex -141.933823 -123.993988 -13.100531
vertex -142.120789 -123.993988 -12.805410
endloop
endfacet
facet normal 0.844744 0.000000 0.535170
outer loop
vertex -141.933823 -125.488991 -13.100531
vertex -142.120789 -123.993988 -12.805410
vertex -142.120789 -125.488991 -12.805410
endloop
endfacet
facet normal 0.943152 0.000000 0.332361
outer loop
vertex -142.120789 -125.488991 -12.805410
vertex -142.120789 -123.993988 -12.805410
vertex -142.236908 -123.993988 -12.475897
endloop
endfacet
facet normal 0.943150 0.000000 0.332368
outer loop
vertex -142.120789 -125.488991 -12.805410
vertex -142.236908 -123.993988 -12.475897
vertex -142.236908 -125.488991 -12.475897
endloop
endfacet
facet normal 0.993631 0.000000 0.112684
outer loop
vertex -142.236908 -125.488991 -12.475897
vertex -142.236908 -123.993988 -12.475897
vertex -142.276276 -125.488991 -12.128759
endloop
endfacet
facet normal 0.993631 0.000000 0.112683
outer loop
vertex -142.276276 -125.488991 -12.128759
vertex -142.236908 -123.993988 -12.475897
vertex -142.276276 -123.993988 -12.128759
endloop
endfacet
facet normal 0.000000 0.000000 1.000000
outer loop
vertex -137.242157 -123.993988 -13.678671
vertex -140.710236 -123.993988 -13.678671
vertex -137.242157 -125.488991 -13.678671
endloop
endfacet
facet normal 0.000000 0.000000 1.000000
outer loop
vertex -137.242157 -125.488991 -13.678671
vertex -140.710236 -123.993988 -13.678671
vertex -140.710236 -125.488991 -13.678671
endloop
endfacet
facet normal -0.007229 0.000000 0.999974
outer loop
vertex -137.210403 -125.488991 -13.678671
vertex -137.210403 -123.993988 -13.678671
vertex -137.220993 -125.488991 -13.678747
endloop
endfacet
facet normal -0.007229 0.000000 0.999974
outer loop
vertex -137.220993 -125.488991 -13.678747
vertex -137.210403 -123.993988 -13.678671
vertex -137.220993 -123.993988 -13.678747
endloop
endfacet
facet normal 0.000000 0.000000 1.000000
outer loop
vertex -137.220993 -125.488991 -13.678747
vertex -137.220993 -123.993988 -13.678747
vertex -137.231583 -125.488991 -13.678747
endloop
endfacet
facet normal 0.000000 0.000000 1.000000
outer loop
vertex -137.231583 -125.488991 -13.678747
vertex -137.220993 -123.993988 -13.678747
vertex -137.231583 -123.993988 -13.678747
endloop
endfacet
facet normal 0.007239 0.000000 0.999974
outer loop
vertex -137.231583 -125.488991 -13.678747
vertex -137.231583 -123.993988 -13.678747
vertex -137.242157 -125.488991 -13.678671
endloop
endfacet
facet normal 0.007239 0.000000 0.999974
outer loop
vertex -137.242157 -125.488991 -13.678671
vertex -137.231583 -123.993988 -13.678747
vertex -137.242157 -123.993988 -13.678671
endloop
endfacet
facet normal 1.000000 0.000000 -0.000047
outer loop
vertex -135.276230 -123.993988 -10.578680
vertex -135.276138 -123.993988 -8.650045
vertex -135.276230 -125.488991 -10.578680
endloop
endfacet
facet normal 1.000000 0.000000 -0.000047
outer loop
vertex -135.276230 -125.488991 -10.578680
vertex -135.276138 -123.993988 -8.650045
vertex -135.276138 -125.488991 -8.650045
endloop
endfacet
facet normal 0.000000 0.000000 1.000000
outer loop
vertex -137.293289 -123.993988 -6.677313
vertex -139.176285 -123.993988 -6.677313
vertex -137.293289 -125.488991 -6.677313
endloop
endfacet
facet normal 0.000000 0.000000 1.000000
outer loop
vertex -137.293289 -125.488991 -6.677313
vertex -139.176285 -123.993988 -6.677313
vertex -139.176285 -125.488991 -6.677313
endloop
endfacet
facet normal -1.000000 0.000000 0.000000
outer loop
vertex -139.176285 -123.993988 -6.677313
vertex -139.176285 -123.993988 -10.578680
vertex -139.176285 -125.488991 -6.677313
endloop
endfacet
facet normal -1.000000 0.000000 0.000000
outer loop
vertex -139.176285 -125.488991 -6.677313
vertex -139.176285 -123.993988 -10.578680
vertex -139.176285 -125.488991 -10.578680
endloop
endfacet
facet normal 0.000000 0.000000 -1.000000
outer loop
vertex -139.176285 -123.993988 -10.578680
vertex -135.276230 -123.993988 -10.578680
vertex -139.176285 -125.488991 -10.578680
endloop
endfacet
facet normal 0.000000 0.000000 -1.000000
outer loop
vertex -139.176285 -125.488991 -10.578680
vertex -135.276230 -123.993988 -10.578680
vertex -135.276230 -125.488991 -10.578680
endloop
endfacet
facet normal -0.000528 0.000000 -1.000000
outer loop
vertex -137.124588 -123.993988 -3.580648
vertex -133.832214 -123.993988 -3.582388
vertex -137.124588 -125.488991 -3.580648
endloop
endfacet
facet normal -0.000528 0.000000 -1.000000
outer loop
vertex -137.124588 -125.488991 -3.580648
vertex -133.832214 -123.993988 -3.582388
vertex -133.832214 -125.488991 -3.582388
endloop
endfacet
facet normal -0.061500 0.000000 -0.998107
outer loop
vertex -133.832214 -125.488991 -3.582388
vertex -133.832214 -123.993988 -3.582388
vertex -133.431290 -125.488991 -3.607092
endloop
endfacet
facet normal -0.061502 0.000000 -0.998107
outer loop
vertex -133.431290 -125.488991 -3.607092
vertex -133.832214 -123.993988 -3.582388
vertex -133.431290 -123.993988 -3.607092
endloop
endfacet
facet normal -0.315895 0.000000 -0.948794
outer loop
vertex -133.431290 -125.488991 -3.607092
vertex -133.431290 -123.993988 -3.607092
vertex -133.050171 -125.488991 -3.733984
endloop
endfacet
facet normal -0.315899 0.000000 -0.948793
outer loop
vertex -133.050171 -125.488991 -3.733984
vertex -133.431290 -123.993988 -3.607092
vertex -133.050171 -123.993988 -3.733984
endloop
endfacet
facet normal -0.549148 0.000000 -0.835725
outer loop
vertex -133.050171 -125.488991 -3.733984
vertex -133.050171 -123.993988 -3.733984
vertex -132.714478 -125.488991 -3.954565
endloop
endfacet
facet normal -0.549148 0.000000 -0.835725
outer loop
vertex -132.714478 -125.488991 -3.954565
vertex -133.050171 -123.993988 -3.733984
vertex -132.714478 -123.993988 -3.954565
endloop
endfacet
facet normal -0.745417 0.000000 -0.666599
outer loop
vertex -132.714478 -125.488991 -3.954565
vertex -132.714478 -123.993988 -3.954565
vertex -132.446716 -125.488991 -4.253988
endloop
endfacet
facet normal -0.745423 0.000000 -0.666592
outer loop
vertex -132.446716 -125.488991 -4.253988
vertex -132.714478 -123.993988 -3.954565
vertex -132.446716 -123.993988 -4.253988
endloop
endfacet
facet normal -0.891703 0.000000 -0.452621
outer loop
vertex -132.446716 -125.488991 -4.253988
vertex -132.446716 -123.993988 -4.253988
vertex -132.264908 -125.488991 -4.612173
endloop
endfacet
facet normal -0.891708 0.000000 -0.452611
outer loop
vertex -132.264908 -125.488991 -4.612173
vertex -132.446716 -123.993988 -4.253988
vertex -132.264908 -123.993988 -4.612173
endloop
endfacet
facet normal -0.978060 0.000000 -0.208323
outer loop
vertex -132.264908 -125.488991 -4.612173
vertex -132.264908 -123.993988 -4.612173
vertex -132.181229 -125.488991 -5.005041
endloop
endfacet
facet normal -0.978060 0.000000 -0.208323
outer loop
vertex -132.181229 -125.488991 -5.005041
vertex -132.264908 -123.993988 -4.612173
vertex -132.181229 -123.993988 -5.005041
endloop
endfacet
facet normal -0.997650 0.000000 -0.068519
outer loop
vertex -132.181229 -125.488991 -5.005041
vertex -132.181229 -123.993988 -5.005041
vertex -132.178314 -125.488991 -5.047476
endloop
endfacet
facet normal -0.997650 0.000000 -0.068519
outer loop
vertex -132.178314 -125.488991 -5.047476
vertex -132.181229 -123.993988 -5.005041
vertex -132.178314 -123.993988 -5.047476
endloop
endfacet
facet normal -0.999163 0.000000 -0.040899
outer loop
vertex -132.178314 -125.488991 -5.047476
vertex -132.178314 -123.993988 -5.047476
vertex -132.176575 -125.488991 -5.089972
endloop
endfacet
facet normal -0.999163 0.000000 -0.040899
outer loop
vertex -132.176575 -125.488991 -5.089972
vertex -132.178314 -123.993988 -5.047476
vertex -132.176575 -123.993988 -5.089972
endloop
endfacet
facet normal -0.999902 0.000000 -0.013992
outer loop
vertex -132.176575 -125.488991 -5.089972
vertex -132.176575 -123.993988 -5.089972
vertex -132.175980 -125.488991 -5.132498
endloop
endfacet
facet normal -0.999902 0.000000 -0.013992
outer loop
vertex -132.175980 -125.488991 -5.132498
vertex -132.176575 -123.993988 -5.089972
vertex -132.175980 -123.993988 -5.132498
endloop
endfacet
facet normal -1.000000 0.000000 0.000044
outer loop
vertex -132.175980 -123.993988 -5.132498
vertex -132.176285 -123.993988 -12.128759
vertex -132.175980 -125.488991 -5.132498
endloop
endfacet
facet normal -1.000000 0.000000 0.000044
outer loop
vertex -132.175980 -125.488991 -5.132498
vertex -132.176285 -123.993988 -12.128759
vertex -132.176285 -125.488991 -12.128759
endloop
endfacet
facet normal -0.999438 0.000000 0.033511
outer loop
vertex -132.176285 -125.488991 -12.128759
vertex -132.176285 -123.993988 -12.128759
vertex -132.179749 -125.488991 -12.232061
endloop
endfacet
facet normal -0.999438 0.000000 0.033512
outer loop
vertex -132.179749 -125.488991 -12.232061
vertex -132.176285 -123.993988 -12.128759
vertex -132.179749 -123.993988 -12.232061
endloop
endfacet
facet normal -0.995007 0.000000 0.099809
outer loop
vertex -132.179749 -125.488991 -12.232061
vertex -132.179749 -123.993988 -12.232061
vertex -132.190063 -125.488991 -12.334890
endloop
endfacet
facet normal -0.995007 0.000000 0.099810
outer loop
vertex -132.190063 -125.488991 -12.334890
vertex -132.179749 -123.993988 -12.232061
vertex -132.190063 -123.993988 -12.334890
endloop
endfacet
facet normal -0.986114 0.000000 0.166072
outer loop
vertex -132.190063 -125.488991 -12.334890
vertex -132.190063 -123.993988 -12.334890
vertex -132.207230 -125.488991 -12.436819
endloop
endfacet
facet normal -0.986113 0.000000 0.166076
outer loop
vertex -132.207230 -125.488991 -12.436819
vertex -132.190063 -123.993988 -12.334890
vertex -132.207230 -123.993988 -12.436819
endloop
endfacet
facet normal -0.948598 0.000000 0.316484
outer loop
vertex -132.207230 -125.488991 -12.436819
vertex -132.207230 -123.993988 -12.436819
vertex -132.326553 -125.488991 -12.794470
endloop
endfacet
facet normal -0.948598 0.000000 0.316483
outer loop
vertex -132.326553 -125.488991 -12.794470
vertex -132.207230 -123.993988 -12.436819
vertex -132.326553 -123.993988 -12.794470
endloop
endfacet
facet normal -0.844095 0.000000 0.536194
outer loop
vertex -132.326553 -125.488991 -12.794470
vertex -132.326553 -123.993988 -12.794470
vertex -132.528717 -125.488991 -13.112722
endloop
endfacet
facet normal -0.844095 0.000000 0.536194
outer loop
vertex -132.528717 -125.488991 -13.112722
vertex -132.326553 -123.993988 -12.794470
vertex -132.528717 -123.993988 -13.112722
endloop
endfacet
facet normal -0.689680 0.000000 0.724114
outer loop
vertex -132.528717 -125.488991 -13.112722
vertex -132.528717 -123.993988 -13.112722
vertex -132.801727 -125.488991 -13.372747
endloop
endfacet
facet normal -0.689676 0.000000 0.724118
outer loop
vertex -132.801727 -125.488991 -13.372747
vertex -132.528717 -123.993988 -13.112722
vertex -132.801727 -123.993988 -13.372747
endloop
endfacet
facet normal -0.494446 0.000000 0.869209
outer loop
vertex -132.801727 -125.488991 -13.372747
vertex -132.801727 -123.993988 -13.372747
vertex -133.129440 -125.488991 -13.559164
endloop
endfacet
facet normal -0.494440 0.000000 0.869211
outer loop
vertex -133.129440 -125.488991 -13.559164
vertex -132.801727 -123.993988 -13.372747
vertex -133.129440 -123.993988 -13.559164
endloop
endfacet
facet normal -0.323469 0.000000 0.946239
outer loop
vertex -133.129440 -125.488991 -13.559164
vertex -133.129440 -123.993988 -13.559164
vertex -133.322540 -125.488991 -13.625174
endloop
endfacet
facet normal -0.323469 0.000000 0.946239
outer loop
vertex -133.322540 -125.488991 -13.625174
vertex -133.129440 -123.993988 -13.559164
vertex -133.322540 -123.993988 -13.625174
endloop
endfacet
facet normal -0.196340 0.000000 0.980536
outer loop
vertex -133.322540 -125.488991 -13.625174
vertex -133.322540 -123.993988 -13.625174
vertex -133.522644 -123.993988 -13.665243
endloop
endfacet
facet normal -0.065790 0.000000 0.997833
outer loop
vertex -133.726288 -123.993988 -13.678671
vertex -133.726288 -125.488991 -13.678671
vertex -133.522644 -123.993988 -13.665243
endloop
endfacet
facet normal -0.065789 0.000000 0.997833
outer loop
vertex -133.522644 -123.993988 -13.665243
vertex -133.726288 -125.488991 -13.678671
vertex -133.522644 -125.488991 -13.665243
endloop
endfacet
facet normal -0.196352 0.000000 0.980534
outer loop
vertex -133.522644 -123.993988 -13.665243
vertex -133.522644 -125.488991 -13.665243
vertex -133.322540 -125.488991 -13.625174
endloop
endfacet
facet normal 0.000000 0.000000 1.000000
outer loop
vertex -133.726288 -123.993988 -13.678671
vertex -137.210403 -123.993988 -13.678671
vertex -133.726288 -125.488991 -13.678671
endloop
endfacet
facet normal 0.000000 0.000000 1.000000
outer loop
vertex -133.726288 -125.488991 -13.678671
vertex -137.210403 -123.993988 -13.678671
vertex -137.210403 -125.488991 -13.678671
endloop
endfacet
facet normal 0.000000 1.000000 0.000003
outer loop
vertex -135.276230 -125.488991 -10.578680
vertex -137.210403 -125.488991 -13.678671
vertex -139.176285 -125.488991 -10.578680
endloop
endfacet
facet normal 0.000000 1.000000 0.000126
outer loop
vertex -139.176285 -125.488991 -10.578680
vertex -137.210403 -125.488991 -13.678671
vertex -137.242157 -125.488991 -13.678671
endloop
endfacet
facet normal 0.000000 1.000000 0.000000
outer loop
vertex -139.176285 -125.488991 -10.578680
vertex -137.242157 -125.488991 -13.678671
vertex -140.710236 -125.488991 -13.678671
endloop
endfacet
facet normal 0.000000 1.000000 0.000000
outer loop
vertex -135.276138 -125.488991 -8.650045
vertex -132.176285 -125.488991 -12.128759
vertex -135.276230 -125.488991 -10.578680
endloop
endfacet
facet normal 0.000000 1.000000 0.000000
outer loop
vertex -135.276230 -125.488991 -10.578680
vertex -132.176285 -125.488991 -12.128759
vertex -133.726288 -125.488991 -13.678671
endloop
endfacet
facet normal 0.000000 1.000000 0.000000
outer loop
vertex -135.276230 -125.488991 -10.578680
vertex -133.726288 -125.488991 -13.678671
vertex -137.210403 -125.488991 -13.678671
endloop
endfacet
facet normal 0.000000 1.000000 0.000000
outer loop
vertex -135.276276 -125.488991 -8.635809
vertex -135.276138 -125.488991 -8.607336
vertex -135.276138 -125.488991 -8.650045
endloop
endfacet
facet normal 0.000000 1.000000 0.000000
outer loop
vertex -135.276138 -125.488991 -8.650045
vertex -135.276138 -125.488991 -8.607336
vertex -132.175980 -125.488991 -5.132498
endloop
endfacet
facet normal 0.000000 1.000000 0.000000
outer loop
vertex -135.276138 -125.488991 -8.650045
vertex -132.175980 -125.488991 -5.132498
vertex -132.176285 -125.488991 -12.128759
endloop
endfacet
facet normal 0.000000 1.000000 0.000000
outer loop
vertex -135.276276 -125.488991 -8.635809
vertex -135.276276 -125.488991 -8.621572
vertex -135.276138 -125.488991 -8.607336
endloop
endfacet
facet normal 0.000000 1.000000 -0.000010
outer loop
vertex -135.276138 -125.488991 -8.607336
vertex -135.276047 -125.488991 -6.677313
vertex -132.175980 -125.488991 -5.132498
endloop
endfacet
facet normal 0.000000 1.000000 0.000004
outer loop
vertex -132.175980 -125.488991 -5.132498
vertex -135.276047 -125.488991 -6.677313
vertex -133.832214 -125.488991 -3.582388
endloop
endfacet
facet normal 0.000000 1.000000 -0.000439
outer loop
vertex -132.175980 -125.488991 -5.132498
vertex -133.832214 -125.488991 -3.582388
vertex -132.176575 -125.488991 -5.089972
endloop
endfacet
facet normal 0.000000 1.000000 0.000450
outer loop
vertex -132.176575 -125.488991 -5.089972
vertex -133.832214 -125.488991 -3.582388
vertex -132.178314 -125.488991 -5.047476
endloop
endfacet
facet normal 0.000000 1.000000 -0.000463
outer loop
vertex -132.178314 -125.488991 -5.047476
vertex -133.832214 -125.488991 -3.582388
vertex -132.181229 -125.488991 -5.005041
endloop
endfacet
facet normal 0.000000 1.000000 0.000014
outer loop
vertex -132.181229 -125.488991 -5.005041
vertex -133.832214 -125.488991 -3.582388
vertex -133.431290 -125.488991 -3.607092
endloop
endfacet
facet normal 0.000000 1.000000 0.000000
outer loop
vertex -132.181229 -125.488991 -5.005041
vertex -133.431290 -125.488991 -3.607092
vertex -133.050171 -125.488991 -3.733984
endloop
endfacet
facet normal 0.000000 1.000000 0.000000
outer loop
vertex -133.832214 -125.488991 -3.582388
vertex -135.276047 -125.488991 -6.677313
vertex -137.124588 -125.488991 -3.580648
endloop
endfacet
facet normal 0.000000 1.000000 -0.000005
outer loop
vertex -137.124588 -125.488991 -3.580648
vertex -135.276047 -125.488991 -6.677313
vertex -137.159271 -125.488991 -6.677313
endloop
endfacet
facet normal 0.000000 1.000000 0.000007
outer loop
vertex -137.124588 -125.488991 -3.580648
vertex -137.159271 -125.488991 -6.677313
vertex -137.203949 -125.488991 -6.678595
endloop
endfacet
facet normal 0.000000 1.000000 0.000000
outer loop
vertex -137.203949 -125.488991 -6.678595
vertex -137.248627 -125.488991 -6.678595
vertex -137.124588 -125.488991 -3.580648
endloop
endfacet
facet normal 0.000000 1.000000 -0.000007
outer loop
vertex -137.124588 -125.488991 -3.580648
vertex -137.248627 -125.488991 -6.678595
vertex -137.293289 -125.488991 -6.677313
endloop
endfacet
facet normal 0.000000 1.000000 0.000009
outer loop
vertex -137.124588 -125.488991 -3.580648
vertex -137.293289 -125.488991 -6.677313
vertex -137.191818 -125.488991 -3.577688
endloop
endfacet
facet normal 0.000000 1.000000 -0.000005
outer loop
vertex -137.191818 -125.488991 -3.577688
vertex -137.293289 -125.488991 -6.677313
vertex -137.259125 -125.488991 -3.577658
endloop
endfacet
facet normal 0.000000 1.000000 0.000000
outer loop
vertex -137.259125 -125.488991 -3.577658
vertex -137.293289 -125.488991 -6.677313
vertex -137.326355 -125.488991 -3.580542
endloop
endfacet
facet normal 0.000000 1.000000 0.000005
outer loop
vertex -137.326355 -125.488991 -3.580542
vertex -137.293289 -125.488991 -6.677313
vertex -139.176285 -125.488991 -6.677313
endloop
endfacet
facet normal 0.000000 1.000000 0.000000
outer loop
vertex -137.326355 -125.488991 -3.580542
vertex -139.176285 -125.488991 -6.677313
vertex -140.725464 -125.488991 -3.578756
endloop
endfacet
facet normal 0.000000 1.000000 0.000000
outer loop
vertex -140.725464 -125.488991 -3.578756
vertex -139.176285 -125.488991 -6.677313
vertex -142.276276 -125.488991 -5.129568
endloop
endfacet
facet normal 0.000000 1.000000 0.000000
outer loop
vertex -140.725464 -125.488991 -3.578756
vertex -142.276276 -125.488991 -5.129568
vertex -141.070618 -125.488991 -3.617483
endloop
endfacet
facet normal 0.000000 1.000000 0.000000
outer loop
vertex -141.070618 -125.488991 -3.617483
vertex -142.276276 -125.488991 -5.129568
vertex -141.398483 -125.488991 -3.732107
endloop
endfacet
facet normal 0.000000 1.000000 0.000000
outer loop
vertex -141.398483 -125.488991 -3.732107
vertex -142.276276 -125.488991 -5.129568
vertex -141.692596 -125.488991 -3.916845
endloop
endfacet
facet normal 0.000000 1.000000 -0.000049
outer loop
vertex -141.692596 -125.488991 -3.916845
vertex -142.276276 -125.488991 -5.129568
vertex -141.938187 -125.488991 -4.162436
endloop
endfacet
facet normal 0.000000 1.000000 0.000048
outer loop
vertex -141.938187 -125.488991 -4.162436
vertex -142.276276 -125.488991 -5.129568
vertex -142.122940 -125.488991 -4.456549
endloop
endfacet
facet normal 0.000000 1.000000 0.000000
outer loop
vertex -142.122940 -125.488991 -4.456549
vertex -142.276276 -125.488991 -5.129568
vertex -142.237549 -125.488991 -4.784414
endloop
endfacet
facet normal 0.000000 1.000000 0.000000
outer loop
vertex -139.176285 -125.488991 -6.677313
vertex -139.176285 -125.488991 -10.578680
vertex -142.276276 -125.488991 -5.129568
endloop
endfacet
facet normal 0.000000 1.000000 0.000000
outer loop
vertex -142.276276 -125.488991 -5.129568
vertex -139.176285 -125.488991 -10.578680
vertex -142.276276 -125.488991 -12.128759
endloop
endfacet
facet normal 0.000000 1.000000 -0.000054
outer loop
vertex -142.276276 -125.488991 -12.128759
vertex -139.176285 -125.488991 -10.578680
vertex -142.236908 -125.488991 -12.475897
endloop
endfacet
facet normal 0.000000 1.000000 0.000000
outer loop
vertex -142.236908 -125.488991 -12.475897
vertex -139.176285 -125.488991 -10.578680
vertex -142.120789 -125.488991 -12.805410
endloop
endfacet
facet normal 0.000000 1.000000 0.000000
outer loop
vertex -142.120789 -125.488991 -12.805410
vertex -139.176285 -125.488991 -10.578680
vertex -141.933823 -125.488991 -13.100531
endloop
endfacet
facet normal 0.000000 1.000000 0.000000
outer loop
vertex -141.933823 -125.488991 -13.100531
vertex -139.176285 -125.488991 -10.578680
vertex -141.685501 -125.488991 -13.346304
endloop
endfacet
facet normal 0.000000 1.000000 0.000000
outer loop
vertex -141.685501 -125.488991 -13.346304
vertex -139.176285 -125.488991 -10.578680
vertex -141.388458 -125.488991 -13.530203
endloop
endfacet
facet normal 0.000000 1.000000 0.000000
outer loop
vertex -141.388458 -125.488991 -13.530203
vertex -139.176285 -125.488991 -10.578680
vertex -141.057770 -125.488991 -13.642904
endloop
endfacet
facet normal 0.000000 1.000000 0.000000
outer loop
vertex -141.057770 -125.488991 -13.642904
vertex -139.176285 -125.488991 -10.578680
vertex -140.710236 -125.488991 -13.678671
endloop
endfacet
facet normal 0.000000 1.000000 0.000000
outer loop
vertex -133.050171 -125.488991 -3.733984
vertex -132.714478 -125.488991 -3.954565
vertex -132.181229 -125.488991 -5.005041
endloop
endfacet
facet normal 0.000000 1.000000 -0.000063
outer loop
vertex -132.181229 -125.488991 -5.005041
vertex -132.714478 -125.488991 -3.954565
vertex -132.446716 -125.488991 -4.253988
endloop
endfacet
facet normal 0.000000 1.000000 0.000000
outer loop
vertex -132.181229 -125.488991 -5.005041
vertex -132.446716 -125.488991 -4.253988
vertex -132.264908 -125.488991 -4.612173
endloop
endfacet
facet normal 0.000000 1.000000 0.000000
outer loop
vertex -132.176285 -125.488991 -12.128759
vertex -132.179749 -125.488991 -12.232061
vertex -133.726288 -125.488991 -13.678671
endloop
endfacet
facet normal 0.000000 1.000000 -0.000117
outer loop
vertex -133.726288 -125.488991 -13.678671
vertex -132.179749 -125.488991 -12.232061
vertex -132.190063 -125.488991 -12.334890
endloop
endfacet
facet normal 0.000000 1.000000 0.000204
outer loop
vertex -133.726288 -125.488991 -13.678671
vertex -132.190063 -125.488991 -12.334890
vertex -132.207230 -125.488991 -12.436819
endloop
endfacet
facet normal 0.000000 1.000000 0.000000
outer loop
vertex -132.326553 -125.488991 -12.794470
vertex -132.528717 -125.488991 -13.112722
vertex -132.207230 -125.488991 -12.436819
endloop
endfacet
facet normal 0.000000 1.000000 0.000000
outer loop
vertex -132.207230 -125.488991 -12.436819
vertex -132.528717 -125.488991 -13.112722
vertex -132.801727 -125.488991 -13.372747
endloop
endfacet
facet normal 0.000000 1.000000 0.000000
outer loop
vertex -132.207230 -125.488991 -12.436819
vertex -132.801727 -125.488991 -13.372747
vertex -133.129440 -125.488991 -13.559164
endloop
endfacet
facet normal 0.000000 1.000000 0.000000
outer loop
vertex -133.129440 -125.488991 -13.559164
vertex -133.322540 -125.488991 -13.625174
vertex -132.207230 -125.488991 -12.436819
endloop
endfacet
facet normal 0.000000 1.000000 -0.000099
outer loop
vertex -132.207230 -125.488991 -12.436819
vertex -133.322540 -125.488991 -13.625174
vertex -133.522644 -125.488991 -13.665243
endloop
endfacet
facet normal 0.000000 1.000000 -0.000016
outer loop
vertex -132.207230 -125.488991 -12.436819
vertex -133.522644 -125.488991 -13.665243
vertex -133.726288 -125.488991 -13.678671
endloop
endfacet
facet normal 0.000000 1.000000 0.000000
outer loop
vertex -137.220993 -125.488991 -13.678747
vertex -137.231583 -125.488991 -13.678747
vertex -137.210403 -125.488991 -13.678671
endloop
endfacet
facet normal 0.000000 0.995195 0.097913
outer loop
vertex -137.210403 -125.488991 -13.678671
vertex -137.231583 -125.488991 -13.678747
vertex -137.242157 -125.488991 -13.678671
endloop
endfacet
facet normal 0.000000 1.000000 0.000003
outer loop
vertex -147.655396 -123.993988 -18.178762
vertex -137.220993 -123.993988 -13.678747
vertex -126.797173 -123.993988 -18.178762
endloop
endfacet
facet normal 0.000000 0.999996 -0.002630
outer loop
vertex -126.797173 -123.993988 -18.178762
vertex -137.220993 -123.993988 -13.678747
vertex -137.210403 -123.993988 -13.678671
endloop
endfacet
facet normal 0.000000 1.000000 0.000008
outer loop
vertex -126.797173 -123.993988 -18.178762
vertex -137.210403 -123.993988 -13.678671
vertex -133.726288 -123.993988 -13.678671
endloop
endfacet
facet normal 0.000000 1.000000 0.000000
outer loop
vertex -146.312256 -123.993988 0.457209
vertex -142.276276 -123.993988 -5.129568
vertex -147.655396 -123.993988 -18.178762
endloop
endfacet
facet normal 0.000000 1.000000 0.000000
outer loop
vertex -147.655396 -123.993988 -18.178762
vertex -142.276276 -123.993988 -5.129568
vertex -142.276276 -123.993988 -12.128759
endloop
endfacet
facet normal 0.000000 1.000000 0.000007
outer loop
vertex -147.655396 -123.993988 -18.178762
vertex -142.276276 -123.993988 -12.128759
vertex -142.236908 -123.993988 -12.475897
endloop
endfacet
facet normal 0.000000 1.000000 -0.000003
outer loop
vertex -137.222229 -123.993988 2.633799
vertex -141.070618 -123.993988 -3.617483
vertex -146.312256 -123.993988 0.457209
endloop
endfacet
facet normal 0.000000 1.000000 0.000020
outer loop
vertex -146.312256 -123.993988 0.457209
vertex -141.070618 -123.993988 -3.617483
vertex -141.398483 -123.993988 -3.732107
endloop
endfacet
facet normal 0.000000 1.000000 0.000000
outer loop
vertex -146.312256 -123.993988 0.457209
vertex -141.398483 -123.993988 -3.732107
vertex -141.692596 -123.993988 -3.916845
endloop
endfacet
facet normal 0.000000 1.000000 0.000001
outer loop
vertex -128.140320 -123.993988 0.457209
vertex -133.431290 -123.993988 -3.607092
vertex -137.222229 -123.993988 2.633799
endloop
endfacet
facet normal 0.000000 1.000000 0.000000
outer loop
vertex -137.222229 -123.993988 2.633799
vertex -133.431290 -123.993988 -3.607092
vertex -133.832214 -123.993988 -3.582388
endloop
endfacet
facet normal 0.000000 1.000000 0.000000
outer loop
vertex -137.222229 -123.993988 2.633799
vertex -133.832214 -123.993988 -3.582388
vertex -137.124588 -123.993988 -3.580648
endloop
endfacet
facet normal 0.000000 1.000000 -0.000001
outer loop
vertex -126.797173 -123.993988 -18.178762
vertex -132.175980 -123.993988 -5.132498
vertex -128.140320 -123.993988 0.457209
endloop
endfacet
facet normal 0.000000 1.000000 0.000041
outer loop
vertex -128.140320 -123.993988 0.457209
vertex -132.175980 -123.993988 -5.132498
vertex -132.176575 -123.993988 -5.089972
endloop
endfacet
facet normal 0.000000 1.000000 0.000115
outer loop
vertex -128.140320 -123.993988 0.457209
vertex -132.176575 -123.993988 -5.089972
vertex -132.178314 -123.993988 -5.047476
endloop
endfacet
facet normal 0.000000 1.000000 0.000000
outer loop
vertex -133.726288 -123.993988 -13.678671
vertex -133.522644 -123.993988 -13.665243
vertex -126.797173 -123.993988 -18.178762
endloop
endfacet
facet normal 0.000000 1.000000 0.000029
outer loop
vertex -126.797173 -123.993988 -18.178762
vertex -133.522644 -123.993988 -13.665243
vertex -133.322540 -123.993988 -13.625174
endloop
endfacet
facet normal 0.000000 1.000000 -0.000003
outer loop
vertex -126.797173 -123.993988 -18.178762
vertex -133.322540 -123.993988 -13.625174
vertex -133.129440 -123.993988 -13.559164
endloop
endfacet
facet normal 0.000000 1.000000 0.000000
outer loop
vertex -133.129440 -123.993988 -13.559164
vertex -132.801727 -123.993988 -13.372747
vertex -126.797173 -123.993988 -18.178762
endloop
endfacet
facet normal 0.000000 1.000000 0.000005
outer loop
vertex -126.797173 -123.993988 -18.178762
vertex -132.801727 -123.993988 -13.372747
vertex -132.528717 -123.993988 -13.112722
endloop
endfacet
facet normal 0.000000 1.000000 0.000004
outer loop
vertex -126.797173 -123.993988 -18.178762
vertex -132.528717 -123.993988 -13.112722
vertex -132.326553 -123.993988 -12.794470
endloop
endfacet
facet normal 0.000000 1.000000 0.000000
outer loop
vertex -132.326553 -123.993988 -12.794470
vertex -132.207230 -123.993988 -12.436819
vertex -126.797173 -123.993988 -18.178762
endloop
endfacet
facet normal 0.000000 1.000000 -0.000130
outer loop
vertex -126.797173 -123.993988 -18.178762
vertex -132.207230 -123.993988 -12.436819
vertex -132.190063 -123.993988 -12.334890
endloop
endfacet
facet normal 0.000000 1.000000 -0.000003
outer loop
vertex -126.797173 -123.993988 -18.178762
vertex -132.190063 -123.993988 -12.334890
vertex -132.179749 -123.993988 -12.232061
endloop
endfacet
facet normal 0.000000 1.000000 0.000212
outer loop
vertex -132.179749 -123.993988 -12.232061
vertex -132.176285 -123.993988 -12.128759
vertex -126.797173 -123.993988 -18.178762
endloop
endfacet
facet normal 0.000000 1.000000 -0.000000
outer loop
vertex -126.797173 -123.993988 -18.178762
vertex -132.176285 -123.993988 -12.128759
vertex -132.175980 -123.993988 -5.132498
endloop
endfacet
facet normal 0.000000 1.000000 0.000000
outer loop
vertex -132.178314 -123.993988 -5.047476
vertex -132.181229 -123.993988 -5.005041
vertex -128.140320 -123.993988 0.457209
endloop
endfacet
facet normal 0.000000 1.000000 -0.000015
outer loop
vertex -128.140320 -123.993988 0.457209
vertex -132.181229 -123.993988 -5.005041
vertex -132.264908 -123.993988 -4.612173
endloop
endfacet
facet normal 0.000000 1.000000 0.000021
outer loop
vertex -128.140320 -123.993988 0.457209
vertex -132.264908 -123.993988 -4.612173
vertex -132.446716 -123.993988 -4.253988
endloop
endfacet
facet normal 0.000000 1.000000 -0.000048
outer loop
vertex -132.446716 -123.993988 -4.253988
vertex -132.714478 -123.993988 -3.954565
vertex -128.140320 -123.993988 0.457209
endloop
endfacet
facet normal 0.000000 1.000000 0.000003
outer loop
vertex -128.140320 -123.993988 0.457209
vertex -132.714478 -123.993988 -3.954565
vertex -133.050171 -123.993988 -3.733984
endloop
endfacet
facet normal 0.000000 1.000000 0.000031
outer loop
vertex -128.140320 -123.993988 0.457209
vertex -133.050171 -123.993988 -3.733984
vertex -133.431290 -123.993988 -3.607092
endloop
endfacet
facet normal 0.000000 1.000000 -0.000001
outer loop
vertex -137.124588 -123.993988 -3.580648
vertex -137.191818 -123.993988 -3.577688
vertex -137.222229 -123.993988 2.633799
endloop
endfacet
facet normal 0.000000 1.000000 0.000000
outer loop
vertex -137.222229 -123.993988 2.633799
vertex -137.191818 -123.993988 -3.577688
vertex -137.259125 -123.993988 -3.577658
endloop
endfacet
facet normal 0.000000 1.000000 0.000000
outer loop
vertex -137.222229 -123.993988 2.633799
vertex -137.259125 -123.993988 -3.577658
vertex -137.326355 -123.993988 -3.580542
endloop
endfacet
facet normal 0.000000 1.000000 0.000000
outer loop
vertex -137.326355 -123.993988 -3.580542
vertex -140.725464 -123.993988 -3.578756
vertex -137.222229 -123.993988 2.633799
endloop
endfacet
facet normal 0.000000 1.000000 0.000000
outer loop
vertex -137.222229 -123.993988 2.633799
vertex -140.725464 -123.993988 -3.578756
vertex -141.070618 -123.993988 -3.617483
endloop
endfacet
facet normal 0.000000 1.000000 0.000000
outer loop
vertex -141.692596 -123.993988 -3.916845
vertex -141.938187 -123.993988 -4.162436
vertex -146.312256 -123.993988 0.457209
endloop
endfacet
facet normal 0.000000 1.000000 0.000011
outer loop
vertex -146.312256 -123.993988 0.457209
vertex -141.938187 -123.993988 -4.162436
vertex -142.122940 -123.993988 -4.456549
endloop
endfacet
facet normal 0.000000 1.000000 -0.000014
outer loop
vertex -146.312256 -123.993988 0.457209
vertex -142.122940 -123.993988 -4.456549
vertex -142.237549 -123.993988 -4.784414
endloop
endfacet
facet normal 0.000000 1.000000 0.000000
outer loop
vertex -142.237549 -123.993988 -4.784414
vertex -142.276276 -123.993988 -5.129568
vertex -146.312256 -123.993988 0.457209
endloop
endfacet
facet normal 0.000000 1.000000 0.000000
outer loop
vertex -142.236908 -123.993988 -12.475897
vertex -142.120789 -123.993988 -12.805410
vertex -147.655396 -123.993988 -18.178762
endloop
endfacet
facet normal 0.000000 1.000000 0.000027
outer loop
vertex -147.655396 -123.993988 -18.178762
vertex -142.120789 -123.993988 -12.805410
vertex -141.933823 -123.993988 -13.100531
endloop
endfacet
facet normal 0.000000 1.000000 -0.000021
outer loop
vertex -147.655396 -123.993988 -18.178762
vertex -141.933823 -123.993988 -13.100531
vertex -141.685501 -123.993988 -13.346304
endloop
endfacet
facet normal 0.000000 1.000000 0.000000
outer loop
vertex -141.685501 -123.993988 -13.346304
vertex -141.388458 -123.993988 -13.530203
vertex -147.655396 -123.993988 -18.178762
endloop
endfacet
facet normal 0.000000 1.000000 0.000024
outer loop
vertex -147.655396 -123.993988 -18.178762
vertex -141.388458 -123.993988 -13.530203
vertex -141.057770 -123.993988 -13.642904
endloop
endfacet
facet normal 0.000000 1.000000 -0.000017
outer loop
vertex -147.655396 -123.993988 -18.178762
vertex -141.057770 -123.993988 -13.642904
vertex -140.710236 -123.993988 -13.678671
endloop
endfacet
facet normal 0.000000 1.000000 0.000000
outer loop
vertex -140.710236 -123.993988 -13.678671
vertex -137.242157 -123.993988 -13.678671
vertex -147.655396 -123.993988 -18.178762
endloop
endfacet
facet normal 0.000000 1.000000 -0.000103
outer loop
vertex -147.655396 -123.993988 -18.178762
vertex -137.242157 -123.993988 -13.678671
vertex -137.231583 -123.993988 -13.678747
endloop
endfacet
facet normal 0.000000 0.999996 -0.002674
outer loop
vertex -147.655396 -123.993988 -18.178762
vertex -137.231583 -123.993988 -13.678747
vertex -137.220993 -123.993988 -13.678747
endloop
endfacet
facet normal 0.028697 0.000000 0.999588
outer loop
vertex -137.293289 -126.488991 -6.677313
vertex -137.293289 -127.983994 -6.677313
vertex -137.248627 -126.488991 -6.678595
endloop
endfacet
facet normal 0.028668 0.000000 0.999589
outer loop
vertex -137.248627 -126.488991 -6.678595
vertex -137.293289 -127.983994 -6.677313
vertex -137.248627 -127.983994 -6.678595
endloop
endfacet
facet normal 0.000000 0.000000 1.000000
outer loop
vertex -137.248627 -126.488991 -6.678595
vertex -137.248627 -127.983994 -6.678595
vertex -137.203949 -126.488991 -6.678595
endloop
endfacet
facet normal 0.000000 0.000000 1.000000
outer loop
vertex -137.203949 -126.488991 -6.678595
vertex -137.248627 -127.983994 -6.678595
vertex -137.203949 -127.983994 -6.678595
endloop
endfacet
facet normal -0.028658 0.000000 0.999589
outer loop
vertex -137.203949 -126.488991 -6.678595
vertex -137.203949 -127.983994 -6.678595
vertex -137.159271 -126.488991 -6.677313
endloop
endfacet
facet normal -0.028687 0.000000 0.999588
outer loop
vertex -137.159271 -126.488991 -6.677313
vertex -137.203949 -127.983994 -6.678595
vertex -137.159271 -127.983994 -6.677313
endloop
endfacet
facet normal 0.000000 0.000000 1.000000
outer loop
vertex -139.176285 -127.983994 -6.677313
vertex -137.293289 -127.983994 -6.677313
vertex -139.176285 -126.488991 -6.677313
endloop
endfacet
facet normal 0.000000 0.000000 1.000000
outer loop
vertex -139.176285 -126.488991 -6.677313
vertex -137.293289 -127.983994 -6.677313
vertex -137.293289 -126.488991 -6.677313
endloop
endfacet
facet normal -1.000000 0.000000 0.000000
outer loop
vertex -139.176285 -127.983994 -10.578680
vertex -139.176285 -127.983994 -6.677313
vertex -139.176285 -126.488991 -10.578680
endloop
endfacet
facet normal -1.000000 0.000000 0.000000
outer loop
vertex -139.176285 -126.488991 -10.578680
vertex -139.176285 -127.983994 -6.677313
vertex -139.176285 -126.488991 -6.677313
endloop
endfacet
facet normal 0.000000 0.000000 -1.000000
outer loop
vertex -135.276230 -127.983994 -10.578680
vertex -139.176285 -127.983994 -10.578680
vertex -135.276230 -126.488991 -10.578680
endloop
endfacet
facet normal 0.000000 0.000000 -1.000000
outer loop
vertex -135.276230 -126.488991 -10.578680
vertex -139.176285 -127.983994 -10.578680
vertex -139.176285 -126.488991 -10.578680
endloop
endfacet
facet normal -0.000528 0.000000 -1.000000
outer loop
vertex -133.832214 -127.983994 -3.582388
vertex -137.124588 -127.983994 -3.580648
vertex -133.832214 -126.488991 -3.582388
endloop
endfacet
facet normal -0.000528 0.000000 -1.000000
outer loop
vertex -133.832214 -126.488991 -3.582388
vertex -137.124588 -127.983994 -3.580648
vertex -137.124588 -126.488991 -3.580648
endloop
endfacet
facet normal -0.978060 0.000000 -0.208323
outer loop
vertex -132.181229 -126.488991 -5.005041
vertex -132.181229 -127.983994 -5.005041
vertex -132.264908 -126.488991 -4.612173
endloop
endfacet
facet normal -0.978060 0.000000 -0.208323
outer loop
vertex -132.264908 -126.488991 -4.612173
vertex -132.181229 -127.983994 -5.005041
vertex -132.264908 -127.983994 -4.612173
endloop
endfacet
facet normal -0.891706 0.000000 -0.452616
outer loop
vertex -132.264908 -126.488991 -4.612173
vertex -132.264908 -127.983994 -4.612173
vertex -132.446716 -126.488991 -4.253988
endloop
endfacet
facet normal -0.891708 0.000000 -0.452611
outer loop
vertex -132.446716 -126.488991 -4.253988
vertex -132.264908 -127.983994 -4.612173
vertex -132.446716 -127.983994 -4.253988
endloop
endfacet
facet normal -0.745417 0.000000 -0.666599
outer loop
vertex -132.446716 -126.488991 -4.253988
vertex -132.446716 -127.983994 -4.253988
vertex -132.714478 -126.488991 -3.954565
endloop
endfacet
facet normal -0.745423 0.000000 -0.666592
outer loop
vertex -132.714478 -126.488991 -3.954565
vertex -132.446716 -127.983994 -4.253988
vertex -132.714478 -127.983994 -3.954565
endloop
endfacet
facet normal -0.549142 0.000000 -0.835729
outer loop
vertex -132.714478 -126.488991 -3.954565
vertex -132.714478 -127.983994 -3.954565
vertex -133.050171 -126.488991 -3.733984
endloop
endfacet
facet normal -0.549154 0.000000 -0.835721
outer loop
vertex -133.050171 -126.488991 -3.733984
vertex -132.714478 -127.983994 -3.954565
vertex -133.050171 -127.983994 -3.733984
endloop
endfacet
facet normal -0.315895 0.000000 -0.948794
outer loop
vertex -133.050171 -126.488991 -3.733984
vertex -133.050171 -127.983994 -3.733984
vertex -133.431290 -126.488991 -3.607092
endloop
endfacet
facet normal -0.315899 0.000000 -0.948793
outer loop
vertex -133.431290 -126.488991 -3.607092
vertex -133.050171 -127.983994 -3.733984
vertex -133.431290 -127.983994 -3.607092
endloop
endfacet
facet normal -0.061501 0.000000 -0.998107
outer loop
vertex -133.431290 -126.488991 -3.607092
vertex -133.431290 -127.983994 -3.607092
vertex -133.832214 -126.488991 -3.582388
endloop
endfacet
facet normal -0.061500 0.000000 -0.998107
outer loop
vertex -133.832214 -126.488991 -3.582388
vertex -133.431290 -127.983994 -3.607092
vertex -133.832214 -127.983994 -3.582388
endloop
endfacet
facet normal -0.999902 0.000000 -0.013992
outer loop
vertex -132.175980 -126.488991 -5.132498
vertex -132.175980 -127.983994 -5.132498
vertex -132.176575 -126.488991 -5.089972
endloop
endfacet
facet normal -0.999902 0.000000 -0.013992
outer loop
vertex -132.176575 -126.488991 -5.089972
vertex -132.175980 -127.983994 -5.132498
vertex -132.176575 -127.983994 -5.089972
endloop
endfacet
facet normal -0.999163 0.000000 -0.040900
outer loop
vertex -132.176575 -126.488991 -5.089972
vertex -132.176575 -127.983994 -5.089972
vertex -132.178314 -126.488991 -5.047476
endloop
endfacet
facet normal -0.999163 0.000000 -0.040898
outer loop
vertex -132.178314 -126.488991 -5.047476
vertex -132.176575 -127.983994 -5.089972
vertex -132.178314 -127.983994 -5.047476
endloop
endfacet
facet normal -0.997650 0.000000 -0.068520
outer loop
vertex -132.178314 -126.488991 -5.047476
vertex -132.178314 -127.983994 -5.047476
vertex -132.181229 -126.488991 -5.005041
endloop
endfacet
facet normal -0.997650 0.000000 -0.068519
outer loop
vertex -132.181229 -126.488991 -5.005041
vertex -132.178314 -127.983994 -5.047476
vertex -132.181229 -127.983994 -5.005041
endloop
endfacet
facet normal -1.000000 0.000000 0.000044
outer loop
vertex -132.176285 -127.983994 -12.128759
vertex -132.175980 -127.983994 -5.132498
vertex -132.176285 -126.488991 -12.128759
endloop
endfacet
facet normal -1.000000 0.000000 0.000044
outer loop
vertex -132.176285 -126.488991 -12.128759
vertex -132.175980 -127.983994 -5.132498
vertex -132.175980 -126.488991 -5.132498
endloop
endfacet
facet normal -0.986112 0.000000 0.166079
outer loop
vertex -132.207230 -126.488991 -12.436819
vertex -132.207230 -127.983994 -12.436819
vertex -132.190063 -126.488991 -12.334890
endloop
endfacet
facet normal -0.986114 0.000000 0.166072
outer loop
vertex -132.190063 -126.488991 -12.334890
vertex -132.207230 -127.983994 -12.436819
vertex -132.190063 -127.983994 -12.334890
endloop
endfacet
facet normal -0.995006 0.000000 0.099813
outer loop
vertex -132.190063 -126.488991 -12.334890
vertex -132.190063 -127.983994 -12.334890
vertex -132.179749 -126.488991 -12.232061
endloop
endfacet
facet normal -0.995007 0.000000 0.099808
outer loop
vertex -132.179749 -126.488991 -12.232061
vertex -132.190063 -127.983994 -12.334890
vertex -132.179749 -127.983994 -12.232061
endloop
endfacet
facet normal -0.999438 0.000000 0.033513
outer loop
vertex -132.179749 -126.488991 -12.232061
vertex -132.179749 -127.983994 -12.232061
vertex -132.176285 -126.488991 -12.128759
endloop
endfacet
facet normal -0.999438 0.000000 0.033511
outer loop
vertex -132.176285 -126.488991 -12.128759
vertex -132.179749 -127.983994 -12.232061
vertex -132.176285 -127.983994 -12.128759
endloop
endfacet
facet normal -0.494435 0.000000 0.869215
outer loop
vertex -133.129440 -126.488991 -13.559164
vertex -133.129440 -127.983994 -13.559164
vertex -132.801727 -126.488991 -13.372747
endloop
endfacet
facet normal -0.494446 0.000000 0.869209
outer loop
vertex -132.801727 -126.488991 -13.372747
vertex -133.129440 -127.983994 -13.559164
vertex -132.801727 -127.983994 -13.372747
endloop
endfacet
facet normal -0.689670 0.000000 0.724124
outer loop
vertex -132.801727 -126.488991 -13.372747
vertex -132.801727 -127.983994 -13.372747
vertex -132.528717 -126.488991 -13.112722
endloop
endfacet
facet normal -0.689687 0.000000 0.724108
outer loop
vertex -132.528717 -126.488991 -13.112722
vertex -132.801727 -127.983994 -13.372747
vertex -132.528717 -127.983994 -13.112722
endloop
endfacet
facet normal -0.844092 0.000000 0.536199
outer loop
vertex -132.528717 -126.488991 -13.112722
vertex -132.528717 -127.983994 -13.112722
vertex -132.326553 -126.488991 -12.794470
endloop
endfacet
facet normal -0.844098 0.000000 0.536189
outer loop
vertex -132.326553 -126.488991 -12.794470
vertex -132.528717 -127.983994 -13.112722
vertex -132.326553 -127.983994 -12.794470
endloop
endfacet
facet normal -0.948598 0.000000 0.316483
outer loop
vertex -132.326553 -126.488991 -12.794470
vertex -132.326553 -127.983994 -12.794470
vertex -132.207230 -126.488991 -12.436819
endloop
endfacet
facet normal -0.948599 0.000000 0.316481
outer loop
vertex -132.207230 -126.488991 -12.436819
vertex -132.326553 -127.983994 -12.794470
vertex -132.207230 -127.983994 -12.436819
endloop
endfacet
facet normal -0.065790 0.000000 0.997833
outer loop
vertex -133.726288 -126.488991 -13.678671
vertex -133.726288 -127.983994 -13.678671
vertex -133.522644 -126.488991 -13.665243
endloop
endfacet
facet normal -0.065790 0.000000 0.997833
outer loop
vertex -133.522644 -126.488991 -13.665243
vertex -133.726288 -127.983994 -13.678671
vertex -133.522644 -127.983994 -13.665243
endloop
endfacet
facet normal -0.196352 0.000000 0.980534
outer loop
vertex -133.522644 -126.488991 -13.665243
vertex -133.522644 -127.983994 -13.665243
vertex -133.322540 -127.983994 -13.625174
endloop
endfacet
facet normal -0.323469 0.000000 0.946239
outer loop
vertex -133.129440 -127.983994 -13.559164
vertex -133.129440 -126.488991 -13.559164
vertex -133.322540 -127.983994 -13.625174
endloop
endfacet
facet normal -0.323466 0.000000 0.946240
outer loop
vertex -133.322540 -127.983994 -13.625174
vertex -133.129440 -126.488991 -13.559164
vertex -133.322540 -126.488991 -13.625174
endloop
endfacet
facet normal -0.196340 0.000000 0.980536
outer loop
vertex -133.322540 -127.983994 -13.625174
vertex -133.322540 -126.488991 -13.625174
vertex -133.522644 -126.488991 -13.665243
endloop
endfacet
facet normal 1.000000 0.000000 -0.000047
outer loop
vertex -135.276138 -127.983994 -8.650045
vertex -135.276230 -127.983994 -10.578680
vertex -135.276138 -126.488991 -8.650045
endloop
endfacet
facet normal 1.000000 0.000000 -0.000047
outer loop
vertex -135.276138 -126.488991 -8.650045
vertex -135.276230 -127.983994 -10.578680
vertex -135.276230 -126.488991 -10.578680
endloop
endfacet
facet normal 0.999954 0.000000 -0.009646
outer loop
vertex -135.276138 -126.488991 -8.607336
vertex -135.276138 -127.983994 -8.607336
vertex -135.276276 -126.488991 -8.621572
endloop
endfacet
facet normal 0.999954 0.000000 -0.009646
outer loop
vertex -135.276276 -126.488991 -8.621572
vertex -135.276138 -127.983994 -8.607336
vertex -135.276276 -127.983994 -8.621572
endloop
endfacet
facet normal 1.000000 0.000000 0.000000
outer loop
vertex -135.276276 -126.488991 -8.621572
vertex -135.276276 -127.983994 -8.621572
vertex -135.276276 -126.488991 -8.635809
endloop
endfacet
facet normal 1.000000 0.000000 0.000000
outer loop
vertex -135.276276 -126.488991 -8.635809
vertex -135.276276 -127.983994 -8.621572
vertex -135.276276 -127.983994 -8.635809
endloop
endfacet
facet normal 0.999954 0.000000 0.009646
outer loop
vertex -135.276276 -126.488991 -8.635809
vertex -135.276276 -127.983994 -8.635809
vertex -135.276138 -126.488991 -8.650045
endloop
endfacet
facet normal 0.999954 0.000000 0.009646
outer loop
vertex -135.276138 -126.488991 -8.650045
vertex -135.276276 -127.983994 -8.635809
vertex -135.276138 -127.983994 -8.650045
endloop
endfacet
facet normal 1.000000 0.000000 -0.000047
outer loop
vertex -135.276047 -127.983994 -6.677313
vertex -135.276138 -127.983994 -8.607336
vertex -135.276047 -126.488991 -6.677313
endloop
endfacet
facet normal 1.000000 0.000000 -0.000047
outer loop
vertex -135.276047 -126.488991 -6.677313
vertex -135.276138 -127.983994 -8.607336
vertex -135.276138 -126.488991 -8.607336
endloop
endfacet
facet normal 0.000000 0.000000 1.000000
outer loop
vertex -137.159271 -127.983994 -6.677313
vertex -135.276047 -127.983994 -6.677313
vertex -137.159271 -126.488991 -6.677313
endloop
endfacet
facet normal 0.000000 0.000000 1.000000
outer loop
vertex -137.159271 -126.488991 -6.677313
vertex -135.276047 -127.983994 -6.677313
vertex -135.276047 -126.488991 -6.677313
endloop
endfacet
facet normal -0.000525 0.000000 -1.000000
outer loop
vertex -137.326355 -127.983994 -3.580542
vertex -140.725464 -127.983994 -3.578756
vertex -137.326355 -126.488991 -3.580542
endloop
endfacet
facet normal -0.000525 0.000000 -1.000000
outer loop
vertex -137.326355 -126.488991 -3.580542
vertex -140.725464 -127.983994 -3.578756
vertex -140.725464 -126.488991 -3.578756
endloop
endfacet
facet normal -0.043993 0.000000 -0.999032
outer loop
vertex -137.124588 -126.488991 -3.580648
vertex -137.124588 -127.983994 -3.580648
vertex -137.191818 -126.488991 -3.577688
endloop
endfacet
facet normal -0.043984 0.000000 -0.999032
outer loop
vertex -137.191818 -126.488991 -3.577688
vertex -137.124588 -127.983994 -3.580648
vertex -137.191818 -127.983994 -3.577688
endloop
endfacet
facet normal -0.000455 0.000000 -1.000000
outer loop
vertex -137.191818 -126.488991 -3.577688
vertex -137.191818 -127.983994 -3.577688
vertex -137.259125 -126.488991 -3.577658
endloop
endfacet
facet normal -0.000455 0.000000 -1.000000
outer loop
vertex -137.259125 -126.488991 -3.577658
vertex -137.191818 -127.983994 -3.577688
vertex -137.259125 -127.983994 -3.577658
endloop
endfacet
facet normal 0.042858 0.000000 -0.999081
outer loop
vertex -137.259125 -126.488991 -3.577658
vertex -137.259125 -127.983994 -3.577658
vertex -137.326355 -126.488991 -3.580542
endloop
endfacet
facet normal 0.042858 0.000000 -0.999081
outer loop
vertex -137.326355 -126.488991 -3.580542
vertex -137.259125 -127.983994 -3.577658
vertex -137.326355 -127.983994 -3.580542
endloop
endfacet
facet normal 0.000000 0.000000 1.000000
outer loop
vertex -137.210403 -127.983994 -13.678671
vertex -133.726288 -127.983994 -13.678671
vertex -137.210403 -126.488991 -13.678671
endloop
endfacet
facet normal 0.000000 0.000000 1.000000
outer loop
vertex -137.210403 -126.488991 -13.678671
vertex -133.726288 -127.983994 -13.678671
vertex -133.726288 -126.488991 -13.678671
endloop
endfacet
facet normal 0.007239 0.000000 0.999974
outer loop
vertex -137.242157 -126.488991 -13.678671
vertex -137.242157 -127.983994 -13.678671
vertex -137.231583 -126.488991 -13.678747
endloop
endfacet
facet normal 0.007239 0.000000 0.999974
outer loop
vertex -137.231583 -126.488991 -13.678747
vertex -137.242157 -127.983994 -13.678671
vertex -137.231583 -127.983994 -13.678747
endloop
endfacet
facet normal 0.000000 0.000000 1.000000
outer loop
vertex -137.231583 -126.488991 -13.678747
vertex -137.231583 -127.983994 -13.678747
vertex -137.220993 -126.488991 -13.678747
endloop
endfacet
facet normal 0.000000 0.000000 1.000000
outer loop
vertex -137.220993 -126.488991 -13.678747
vertex -137.231583 -127.983994 -13.678747
vertex -137.220993 -127.983994 -13.678747
endloop
endfacet
facet normal -0.007229 0.000000 0.999974
outer loop
vertex -137.220993 -126.488991 -13.678747
vertex -137.220993 -127.983994 -13.678747
vertex -137.210403 -126.488991 -13.678671
endloop
endfacet
facet normal -0.007229 0.000000 0.999974
outer loop
vertex -137.210403 -126.488991 -13.678671
vertex -137.220993 -127.983994 -13.678747
vertex -137.210403 -127.983994 -13.678671
endloop
endfacet
facet normal 0.000000 0.000000 1.000000
outer loop
vertex -140.710236 -127.983994 -13.678671
vertex -137.242157 -127.983994 -13.678671
vertex -140.710236 -126.488991 -13.678671
endloop
endfacet
facet normal 0.000000 0.000000 1.000000
outer loop
vertex -140.710236 -126.488991 -13.678671
vertex -137.242157 -127.983994 -13.678671
vertex -137.242157 -126.488991 -13.678671
endloop
endfacet
facet normal 0.993631 0.000000 0.112685
outer loop
vertex -142.276276 -126.488991 -12.128759
vertex -142.276276 -127.983994 -12.128759
vertex -142.236908 -126.488991 -12.475897
endloop
endfacet
facet normal 0.993631 0.000000 0.112684
outer loop
vertex -142.236908 -126.488991 -12.475897
vertex -142.276276 -127.983994 -12.128759
vertex -142.236908 -127.983994 -12.475897
endloop
endfacet
facet normal 0.943152 0.000000 0.332361
outer loop
vertex -142.236908 -126.488991 -12.475897
vertex -142.236908 -127.983994 -12.475897
vertex -142.120789 -127.983994 -12.805410
endloop
endfacet
facet normal 0.943151 0.000000 0.332365
outer loop
vertex -142.236908 -126.488991 -12.475897
vertex -142.120789 -127.983994 -12.805410
vertex -142.120789 -126.488991 -12.805410
endloop
endfacet
facet normal 0.844748 0.000000 0.535165
outer loop
vertex -142.120789 -126.488991 -12.805410
vertex -142.120789 -127.983994 -12.805410
vertex -141.933823 -127.983994 -13.100531
endloop
endfacet
facet normal 0.844745 0.000000 0.535168
outer loop
vertex -142.120789 -126.488991 -12.805410
vertex -141.933823 -127.983994 -13.100531
vertex -141.933823 -126.488991 -13.100531
endloop
endfacet
facet normal 0.703453 0.000000 0.710742
outer loop
vertex -141.933823 -126.488991 -13.100531
vertex -141.933823 -127.983994 -13.100531
vertex -141.685501 -127.983994 -13.346304
endloop
endfacet
facet normal 0.703449 0.000000 0.710745
outer loop
vertex -141.933823 -126.488991 -13.100531
vertex -141.685501 -127.983994 -13.346304
vertex -141.685501 -126.488991 -13.346304
endloop
endfacet
facet normal 0.526382 0.000000 0.850248
outer loop
vertex -141.685501 -126.488991 -13.346304
vertex -141.685501 -127.983994 -13.346304
vertex -141.388458 -127.983994 -13.530203
endloop
endfacet
facet normal 0.526389 0.000000 0.850244
outer loop
vertex -141.685501 -126.488991 -13.346304
vertex -141.388458 -127.983994 -13.530203
vertex -141.388458 -126.488991 -13.530203
endloop
endfacet
facet normal 0.322595 0.000000 0.946537
outer loop
vertex -141.388458 -126.488991 -13.530203
vertex -141.388458 -127.983994 -13.530203
vertex -141.057770 -127.983994 -13.642904
endloop
endfacet
facet normal 0.322588 0.000000 0.946539
outer loop
vertex -141.388458 -126.488991 -13.530203
vertex -141.057770 -127.983994 -13.642904
vertex -141.057770 -126.488991 -13.642904
endloop
endfacet
facet normal 0.102373 0.000000 0.994746
outer loop
vertex -141.057770 -126.488991 -13.642904
vertex -141.057770 -127.983994 -13.642904
vertex -140.710236 -126.488991 -13.678671
endloop
endfacet
facet normal 0.102374 0.000000 0.994746
outer loop
vertex -140.710236 -126.488991 -13.678671
vertex -141.057770 -127.983994 -13.642904
vertex -140.710236 -127.983994 -13.678671
endloop
endfacet
facet normal 1.000000 0.000000 0.000000
outer loop
vertex -142.276276 -127.983994 -5.129568
vertex -142.276276 -127.983994 -12.128759
vertex -142.276276 -126.488991 -5.129568
endloop
endfacet
facet normal 1.000000 0.000000 0.000000
outer loop
vertex -142.276276 -126.488991 -5.129568
vertex -142.276276 -127.983994 -12.128759
vertex -142.276276 -126.488991 -12.128759
endloop
endfacet
facet normal 0.111502 0.000000 -0.993764
outer loop
vertex -140.725464 -126.488991 -3.578756
vertex -140.725464 -127.983994 -3.578756
vertex -141.070618 -126.488991 -3.617483
endloop
endfacet
facet normal 0.111502 0.000000 -0.993764
outer loop
vertex -141.070618 -126.488991 -3.617483
vertex -140.725464 -127.983994 -3.578756
vertex -141.070618 -127.983994 -3.617483
endloop
endfacet
facet normal 0.330020 0.000000 -0.943974
outer loop
vertex -141.070618 -126.488991 -3.617483
vertex -141.070618 -127.983994 -3.617483
vertex -141.398483 -127.983994 -3.732107
endloop
endfacet
facet normal 0.330022 0.000000 -0.943973
outer loop
vertex -141.070618 -126.488991 -3.617483
vertex -141.398483 -127.983994 -3.732107
vertex -141.398483 -126.488991 -3.732107
endloop
endfacet
facet normal 0.531898 0.000000 -0.846808
outer loop
vertex -141.398483 -126.488991 -3.732107
vertex -141.398483 -127.983994 -3.732107
vertex -141.692596 -127.983994 -3.916845
endloop
endfacet
facet normal 0.531893 0.000000 -0.846812
outer loop
vertex -141.398483 -126.488991 -3.732107
vertex -141.692596 -127.983994 -3.916845
vertex -141.692596 -126.488991 -3.916845
endloop
endfacet
facet normal 0.707109 0.000000 -0.707105
outer loop
vertex -141.692596 -126.488991 -3.916845
vertex -141.692596 -127.983994 -3.916845
vertex -141.938187 -127.983994 -4.162436
endloop
endfacet
facet normal 0.707104 0.000000 -0.707110
outer loop
vertex -141.692596 -126.488991 -3.916845
vertex -141.938187 -127.983994 -4.162436
vertex -141.938187 -126.488991 -4.162436
endloop
endfacet
facet normal 0.846789 0.000000 -0.531929
outer loop
vertex -141.938187 -126.488991 -4.162436
vertex -141.938187 -127.983994 -4.162436
vertex -142.122940 -127.983994 -4.456549
endloop
endfacet
facet normal 0.846789 0.000000 -0.531929
outer loop
vertex -141.938187 -126.488991 -4.162436
vertex -142.122940 -127.983994 -4.456549
vertex -142.122940 -126.488991 -4.456549
endloop
endfacet
facet normal 0.943989 0.000000 -0.329978
outer loop
vertex -142.122940 -126.488991 -4.456549
vertex -142.122940 -127.983994 -4.456549
vertex -142.237549 -127.983994 -4.784414
endloop
endfacet
facet normal 0.943987 0.000000 -0.329981
outer loop
vertex -142.122940 -126.488991 -4.456549
vertex -142.237549 -127.983994 -4.784414
vertex -142.237549 -126.488991 -4.784414
endloop
endfacet
facet normal 0.993764 0.000000 -0.111502
outer loop
vertex -142.237549 -126.488991 -4.784414
vertex -142.237549 -127.983994 -4.784414
vertex -142.276276 -126.488991 -5.129568
endloop
endfacet
facet normal 0.993764 0.000000 -0.111502
outer loop
vertex -142.276276 -126.488991 -5.129568
vertex -142.237549 -127.983994 -4.784414
vertex -142.276276 -127.983994 -5.129568
endloop
endfacet
facet normal 0.000000 -1.000000 -0.000003
outer loop
vertex -139.176285 -126.488991 -10.578680
vertex -137.210403 -126.488991 -13.678671
vertex -135.276230 -126.488991 -10.578680
endloop
endfacet
facet normal 0.000000 -1.000000 0.000000
outer loop
vertex -135.276230 -126.488991 -10.578680
vertex -137.210403 -126.488991 -13.678671
vertex -133.726288 -126.488991 -13.678671
endloop
endfacet
facet normal 0.000000 -1.000000 0.000000
outer loop
vertex -135.276230 -126.488991 -10.578680
vertex -133.726288 -126.488991 -13.678671
vertex -132.176285 -126.488991 -12.128759
endloop
endfacet
facet normal 0.000000 -1.000000 0.000000
outer loop
vertex -132.176285 -126.488991 -12.128759
vertex -133.726288 -126.488991 -13.678671
vertex -132.179749 -126.488991 -12.232061
endloop
endfacet
facet normal 0.000000 -1.000000 0.000212
outer loop
vertex -132.179749 -126.488991 -12.232061
vertex -133.726288 -126.488991 -13.678671
vertex -132.190063 -126.488991 -12.334890
endloop
endfacet
facet normal 0.000000 -1.000000 -0.000229
outer loop
vertex -132.190063 -126.488991 -12.334890
vertex -133.726288 -126.488991 -13.678671
vertex -132.207230 -126.488991 -12.436819
endloop
endfacet
facet normal 0.000000 -1.000000 0.000016
outer loop
vertex -132.207230 -126.488991 -12.436819
vertex -133.726288 -126.488991 -13.678671
vertex -133.522644 -126.488991 -13.665243
endloop
endfacet
facet normal 0.000000 -1.000000 0.000099
outer loop
vertex -132.207230 -126.488991 -12.436819
vertex -133.522644 -126.488991 -13.665243
vertex -133.322540 -126.488991 -13.625174
endloop
endfacet
facet normal 0.000000 -1.000000 0.000000
outer loop
vertex -139.176285 -126.488991 -6.677313
vertex -142.276276 -126.488991 -5.129568
vertex -139.176285 -126.488991 -10.578680
endloop
endfacet
facet normal 0.000000 -1.000000 0.000000
outer loop
vertex -139.176285 -126.488991 -10.578680
vertex -142.276276 -126.488991 -5.129568
vertex -142.276276 -126.488991 -12.128759
endloop
endfacet
facet normal 0.000000 -1.000000 -0.000011
outer loop
vertex -139.176285 -126.488991 -10.578680
vertex -142.276276 -126.488991 -12.128759
vertex -142.236908 -126.488991 -12.475897
endloop
endfacet
facet normal 0.000000 -1.000000 -0.000005
outer loop
vertex -137.293289 -126.488991 -6.677313
vertex -137.326355 -126.488991 -3.580542
vertex -139.176285 -126.488991 -6.677313
endloop
endfacet
facet normal 0.000000 -1.000000 0.000000
outer loop
vertex -139.176285 -126.488991 -6.677313
vertex -137.326355 -126.488991 -3.580542
vertex -140.725464 -126.488991 -3.578756
endloop
endfacet
facet normal 0.000000 -1.000000 0.000000
outer loop
vertex -139.176285 -126.488991 -6.677313
vertex -140.725464 -126.488991 -3.578756
vertex -142.276276 -126.488991 -5.129568
endloop
endfacet
facet normal 0.000000 -1.000000 0.000000
outer loop
vertex -142.276276 -126.488991 -5.129568
vertex -140.725464 -126.488991 -3.578756
vertex -141.070618 -126.488991 -3.617483
endloop
endfacet
facet normal 0.000000 -1.000000 0.000000
outer loop
vertex -142.276276 -126.488991 -5.129568
vertex -141.070618 -126.488991 -3.617483
vertex -141.398483 -126.488991 -3.732107
endloop
endfacet
facet normal 0.000000 -1.000000 0.000000
outer loop
vertex -137.293289 -126.488991 -6.677313
vertex -137.248627 -126.488991 -6.678595
vertex -137.326355 -126.488991 -3.580542
endloop
endfacet
facet normal 0.000000 -1.000000 0.000000
outer loop
vertex -137.326355 -126.488991 -3.580542
vertex -137.248627 -126.488991 -6.678595
vertex -137.203949 -126.488991 -6.678595
endloop
endfacet
facet normal 0.000000 -1.000000 -0.000014
outer loop
vertex -137.326355 -126.488991 -3.580542
vertex -137.203949 -126.488991 -6.678595
vertex -137.159271 -126.488991 -6.677313
endloop
endfacet
facet normal 0.000000 -1.000000 0.000003
outer loop
vertex -135.276047 -126.488991 -6.677313
vertex -137.124588 -126.488991 -3.580648
vertex -137.159271 -126.488991 -6.677313
endloop
endfacet
facet normal 0.000000 -1.000000 0.000000
outer loop
vertex -137.159271 -126.488991 -6.677313
vertex -137.124588 -126.488991 -3.580648
vertex -137.191818 -126.488991 -3.577688
endloop
endfacet
facet normal 0.000000 -1.000000 -0.000009
outer loop
vertex -137.159271 -126.488991 -6.677313
vertex -137.191818 -126.488991 -3.577688
vertex -137.259125 -126.488991 -3.577658
endloop
endfacet
facet normal 0.000000 -1.000000 0.000010
outer loop
vertex -135.276138 -126.488991 -8.607336
vertex -132.175980 -126.488991 -5.132498
vertex -135.276047 -126.488991 -6.677313
endloop
endfacet
facet normal 0.000000 -1.000000 -0.000004
outer loop
vertex -135.276047 -126.488991 -6.677313
vertex -132.175980 -126.488991 -5.132498
vertex -133.832214 -126.488991 -3.582388
endloop
endfacet
facet normal 0.000000 -1.000000 0.000000
outer loop
vertex -135.276047 -126.488991 -6.677313
vertex -133.832214 -126.488991 -3.582388
vertex -137.124588 -126.488991 -3.580648
endloop
endfacet
facet normal 0.000000 -1.000000 0.000000
outer loop
vertex -135.276276 -126.488991 -8.621572
vertex -135.276276 -126.488991 -8.635809
vertex -135.276138 -126.488991 -8.607336
endloop
endfacet
facet normal 0.000000 -1.000000 0.000000
outer loop
vertex -135.276138 -126.488991 -8.607336
vertex -135.276276 -126.488991 -8.635809
vertex -135.276138 -126.488991 -8.650045
endloop
endfacet
facet normal 0.000000 -1.000000 0.000000
outer loop
vertex -135.276138 -126.488991 -8.607336
vertex -135.276138 -126.488991 -8.650045
vertex -132.175980 -126.488991 -5.132498
endloop
endfacet
facet normal 0.000000 -1.000000 0.000000
outer loop
vertex -132.175980 -126.488991 -5.132498
vertex -135.276138 -126.488991 -8.650045
vertex -132.176285 -126.488991 -12.128759
endloop
endfacet
facet normal 0.000000 -1.000000 -0.000005
outer loop
vertex -132.176285 -126.488991 -12.128759
vertex -135.276138 -126.488991 -8.650045
vertex -135.276230 -126.488991 -10.578680
endloop
endfacet
facet normal 0.000000 -1.000000 0.000000
outer loop
vertex -141.398483 -126.488991 -3.732107
vertex -141.692596 -126.488991 -3.916845
vertex -142.276276 -126.488991 -5.129568
endloop
endfacet
facet normal 0.000000 -1.000000 0.000049
outer loop
vertex -142.276276 -126.488991 -5.129568
vertex -141.692596 -126.488991 -3.916845
vertex -141.938187 -126.488991 -4.162436
endloop
endfacet
facet normal 0.000000 -1.000000 -0.000048
outer loop
vertex -142.276276 -126.488991 -5.129568
vertex -141.938187 -126.488991 -4.162436
vertex -142.122940 -126.488991 -4.456549
endloop
endfacet
facet normal 0.000000 -1.000000 0.000000
outer loop
vertex -142.122940 -126.488991 -4.456549
vertex -142.237549 -126.488991 -4.784414
vertex -142.276276 -126.488991 -5.129568
endloop
endfacet
facet normal 0.000000 -1.000000 0.000050
outer loop
vertex -142.236908 -126.488991 -12.475897
vertex -142.120789 -126.488991 -12.805410
vertex -139.176285 -126.488991 -10.578680
endloop
endfacet
facet normal 0.000000 -1.000000 -0.000009
outer loop
vertex -139.176285 -126.488991 -10.578680
vertex -142.120789 -126.488991 -12.805410
vertex -141.933823 -126.488991 -13.100531
endloop
endfacet
facet normal 0.000000 -1.000000 -0.000003
outer loop
vertex -139.176285 -126.488991 -10.578680
vertex -141.933823 -126.488991 -13.100531
vertex -141.685501 -126.488991 -13.346304
endloop
endfacet
facet normal 0.000000 -1.000000 0.000000
outer loop
vertex -141.685501 -126.488991 -13.346304
vertex -141.388458 -126.488991 -13.530203
vertex -139.176285 -126.488991 -10.578680
endloop
endfacet
facet normal 0.000000 -1.000000 0.000012
outer loop
vertex -139.176285 -126.488991 -10.578680
vertex -141.388458 -126.488991 -13.530203
vertex -141.057770 -126.488991 -13.642904
endloop
endfacet
facet normal 0.000000 -1.000000 0.000007
outer loop
vertex -139.176285 -126.488991 -10.578680
vertex -141.057770 -126.488991 -13.642904
vertex -140.710236 -126.488991 -13.678671
endloop
endfacet
facet normal 0.000000 -1.000000 0.000000
outer loop
vertex -140.710236 -126.488991 -13.678671
vertex -137.242157 -126.488991 -13.678671
vertex -139.176285 -126.488991 -10.578680
endloop
endfacet
facet normal 0.000000 -1.000000 -0.000126
outer loop
vertex -139.176285 -126.488991 -10.578680
vertex -137.242157 -126.488991 -13.678671
vertex -137.210403 -126.488991 -13.678671
endloop
endfacet
facet normal 0.000000 -0.861832 -0.507193
outer loop
vertex -137.231583 -126.488991 -13.678747
vertex -137.220993 -126.488991 -13.678747
vertex -137.242157 -126.488991 -13.678671
endloop
endfacet
facet normal 0.000000 -1.000000 0.000000
outer loop
vertex -137.242157 -126.488991 -13.678671
vertex -137.220993 -126.488991 -13.678747
vertex -137.210403 -126.488991 -13.678671
endloop
endfacet
facet normal 0.000000 -1.000000 -0.000098
outer loop
vertex -133.322540 -126.488991 -13.625174
vertex -133.129440 -126.488991 -13.559164
vertex -132.207230 -126.488991 -12.436819
endloop
endfacet
facet normal 0.000000 -1.000000 0.000000
outer loop
vertex -132.207230 -126.488991 -12.436819
vertex -133.129440 -126.488991 -13.559164
vertex -132.801727 -126.488991 -13.372747
endloop
endfacet
facet normal 0.000000 -1.000000 0.000000
outer loop
vertex -132.207230 -126.488991 -12.436819
vertex -132.801727 -126.488991 -13.372747
vertex -132.528717 -126.488991 -13.112722
endloop
endfacet
facet normal 0.000000 -1.000000 0.000056
outer loop
vertex -132.528717 -126.488991 -13.112722
vertex -132.326553 -126.488991 -12.794470
vertex -132.207230 -126.488991 -12.436819
endloop
endfacet
facet normal 0.000000 -1.000000 0.000439
outer loop
vertex -132.175980 -126.488991 -5.132498
vertex -132.176575 -126.488991 -5.089972
vertex -133.832214 -126.488991 -3.582388
endloop
endfacet
facet normal 0.000000 -1.000000 -0.000336
outer loop
vertex -133.832214 -126.488991 -3.582388
vertex -132.176575 -126.488991 -5.089972
vertex -132.178314 -126.488991 -5.047476
endloop
endfacet
facet normal 0.000000 -1.000000 0.000279
outer loop
vertex -133.832214 -126.488991 -3.582388
vertex -132.178314 -126.488991 -5.047476
vertex -132.181229 -126.488991 -5.005041
endloop
endfacet
facet normal 0.000000 -1.000000 0.000000
outer loop
vertex -132.264908 -126.488991 -4.612173
vertex -132.446716 -126.488991 -4.253988
vertex -132.181229 -126.488991 -5.005041
endloop
endfacet
facet normal 0.000000 -1.000000 0.000063
outer loop
vertex -132.181229 -126.488991 -5.005041
vertex -132.446716 -126.488991 -4.253988
vertex -132.714478 -126.488991 -3.954565
endloop
endfacet
facet normal 0.000000 -1.000000 -0.000032
outer loop
vertex -132.181229 -126.488991 -5.005041
vertex -132.714478 -126.488991 -3.954565
vertex -133.050171 -126.488991 -3.733984
endloop
endfacet
facet normal 0.000000 -1.000000 0.000000
outer loop
vertex -133.050171 -126.488991 -3.733984
vertex -133.431290 -126.488991 -3.607092
vertex -132.181229 -126.488991 -5.005041
endloop
endfacet
facet normal 0.000000 -1.000000 -0.000014
outer loop
vertex -132.181229 -126.488991 -5.005041
vertex -133.431290 -126.488991 -3.607092
vertex -133.832214 -126.488991 -3.582388
endloop
endfacet
facet normal 0.000000 -1.000000 0.000000
outer loop
vertex -137.259125 -126.488991 -3.577658
vertex -137.326355 -126.488991 -3.580542
vertex -137.159271 -126.488991 -6.677313
endloop
endfacet
facet normal 0.000000 -1.000000 -0.000003
outer loop
vertex -126.797173 -127.983994 -18.178762
vertex -137.231583 -127.983994 -13.678747
vertex -147.655396 -127.983994 -18.178762
endloop
endfacet
facet normal 0.000000 -0.999995 -0.003094
outer loop
vertex -147.655396 -127.983994 -18.178762
vertex -137.231583 -127.983994 -13.678747
vertex -137.242157 -127.983994 -13.678671
endloop
endfacet
facet normal 0.000000 -1.000000 0.000004
outer loop
vertex -147.655396 -127.983994 -18.178762
vertex -137.242157 -127.983994 -13.678671
vertex -140.710236 -127.983994 -13.678671
endloop
endfacet
facet normal 0.000000 -1.000000 -0.000001
outer loop
vertex -128.140320 -127.983994 0.457209
vertex -132.175980 -127.983994 -5.132498
vertex -126.797173 -127.983994 -18.178762
endloop
endfacet
facet normal 0.000000 -1.000000 0.000000
outer loop
vertex -126.797173 -127.983994 -18.178762
vertex -132.175980 -127.983994 -5.132498
vertex -132.176285 -127.983994 -12.128759
endloop
endfacet
facet normal 0.000000 -1.000000 -0.000019
outer loop
vertex -126.797173 -127.983994 -18.178762
vertex -132.176285 -127.983994 -12.128759
vertex -132.179749 -127.983994 -12.232061
endloop
endfacet
facet normal 0.000000 -1.000000 0.000000
outer loop
vertex -137.222229 -127.983994 2.633799
vertex -133.431290 -127.983994 -3.607092
vertex -128.140320 -127.983994 0.457209
endloop
endfacet
facet normal 0.000000 -1.000000 0.000003
outer loop
vertex -128.140320 -127.983994 0.457209
vertex -133.431290 -127.983994 -3.607092
vertex -133.050171 -127.983994 -3.733984
endloop
endfacet
facet normal 0.000000 -1.000000 -0.000003
outer loop
vertex -128.140320 -127.983994 0.457209
vertex -133.050171 -127.983994 -3.733984
vertex -132.714478 -127.983994 -3.954565
endloop
endfacet
facet normal 0.000000 -1.000000 0.000000
outer loop
vertex -146.312256 -127.983994 0.457209
vertex -141.070618 -127.983994 -3.617483
vertex -137.222229 -127.983994 2.633799
endloop
endfacet
facet normal 0.000000 -1.000000 0.000000
outer loop
vertex -137.222229 -127.983994 2.633799
vertex -141.070618 -127.983994 -3.617483
vertex -140.725464 -127.983994 -3.578756
endloop
endfacet
facet normal 0.000000 -1.000000 -0.000003
outer loop
vertex -137.222229 -127.983994 2.633799
vertex -140.725464 -127.983994 -3.578756
vertex -137.326355 -127.983994 -3.580542
endloop
endfacet
facet normal 0.000000 -1.000000 -0.000001
outer loop
vertex -147.655396 -127.983994 -18.178762
vertex -142.276276 -127.983994 -5.129568
vertex -146.312256 -127.983994 0.457209
endloop
endfacet
facet normal 0.000000 -1.000000 0.000064
outer loop
vertex -146.312256 -127.983994 0.457209
vertex -142.276276 -127.983994 -5.129568
vertex -142.237549 -127.983994 -4.784414
endloop
endfacet
facet normal 0.000000 -1.000000 -0.000004
outer loop
vertex -146.312256 -127.983994 0.457209
vertex -142.237549 -127.983994 -4.784414
vertex -142.122940 -127.983994 -4.456549
endloop
endfacet
facet normal 0.000000 -1.000000 0.000000
outer loop
vertex -133.522644 -127.983994 -13.665243
vertex -133.726288 -127.983994 -13.678671
vertex -126.797173 -127.983994 -18.178762
endloop
endfacet
facet normal 0.000000 -1.000000 0.000004
outer loop
vertex -126.797173 -127.983994 -18.178762
vertex -133.726288 -127.983994 -13.678671
vertex -137.210403 -127.983994 -13.678671
endloop
endfacet
facet normal 0.000000 -0.999995 -0.003083
outer loop
vertex -126.797173 -127.983994 -18.178762
vertex -137.210403 -127.983994 -13.678671
vertex -137.220993 -127.983994 -13.678747
endloop
endfacet
facet normal 0.000000 -1.000000 0.000000
outer loop
vertex -137.220993 -127.983994 -13.678747
vertex -137.231583 -127.983994 -13.678747
vertex -126.797173 -127.983994 -18.178762
endloop
endfacet
facet normal 0.000000 -1.000000 0.000000
outer loop
vertex -140.710236 -127.983994 -13.678671
vertex -141.057770 -127.983994 -13.642904
vertex -147.655396 -127.983994 -18.178762
endloop
endfacet
facet normal 0.000000 -1.000000 0.000041
outer loop
vertex -147.655396 -127.983994 -18.178762
vertex -141.057770 -127.983994 -13.642904
vertex -141.388458 -127.983994 -13.530203
endloop
endfacet
facet normal 0.000000 -1.000000 -0.000006
outer loop
vertex -147.655396 -127.983994 -18.178762
vertex -141.388458 -127.983994 -13.530203
vertex -141.685501 -127.983994 -13.346304
endloop
endfacet
facet normal 0.000000 -1.000000 -0.000046
outer loop
vertex -141.685501 -127.983994 -13.346304
vertex -141.933823 -127.983994 -13.100531
vertex -147.655396 -127.983994 -18.178762
endloop
endfacet
facet normal 0.000000 -1.000000 0.000001
outer loop
vertex -147.655396 -127.983994 -18.178762
vertex -141.933823 -127.983994 -13.100531
vertex -142.120789 -127.983994 -12.805410
endloop
endfacet
facet normal 0.000000 -1.000000 0.000023
outer loop
vertex -147.655396 -127.983994 -18.178762
vertex -142.120789 -127.983994 -12.805410
vertex -142.236908 -127.983994 -12.475897
endloop
endfacet
facet normal 0.000000 -1.000000 0.000000
outer loop
vertex -142.236908 -127.983994 -12.475897
vertex -142.276276 -127.983994 -12.128759
vertex -147.655396 -127.983994 -18.178762
endloop
endfacet
facet normal 0.000000 -1.000000 0.000000
outer loop
vertex -147.655396 -127.983994 -18.178762
vertex -142.276276 -127.983994 -12.128759
vertex -142.276276 -127.983994 -5.129568
endloop
endfacet
facet normal 0.000000 -1.000000 0.000000
outer loop
vertex -142.122940 -127.983994 -4.456549
vertex -141.938187 -127.983994 -4.162436
vertex -146.312256 -127.983994 0.457209
endloop
endfacet
facet normal 0.000000 -1.000000 0.000033
outer loop
vertex -146.312256 -127.983994 0.457209
vertex -141.938187 -127.983994 -4.162436
vertex -141.692596 -127.983994 -3.916845
endloop
endfacet
facet normal 0.000000 -1.000000 -0.000007
outer loop
vertex -146.312256 -127.983994 0.457209
vertex -141.692596 -127.983994 -3.916845
vertex -141.398483 -127.983994 -3.732107
endloop
endfacet
facet normal 0.000000 -1.000000 0.000000
outer loop
vertex -141.398483 -127.983994 -3.732107
vertex -141.070618 -127.983994 -3.617483
vertex -146.312256 -127.983994 0.457209
endloop
endfacet
facet normal 0.000000 -1.000000 0.000002
outer loop
vertex -137.326355 -127.983994 -3.580542
vertex -137.259125 -127.983994 -3.577658
vertex -137.222229 -127.983994 2.633799
endloop
endfacet
facet normal 0.000000 -1.000000 0.000000
outer loop
vertex -137.222229 -127.983994 2.633799
vertex -137.259125 -127.983994 -3.577658
vertex -137.191818 -127.983994 -3.577688
endloop
endfacet
facet normal 0.000000 -1.000000 0.000000
outer loop
vertex -137.222229 -127.983994 2.633799
vertex -137.191818 -127.983994 -3.577688
vertex -137.124588 -127.983994 -3.580648
endloop
endfacet
facet normal 0.000000 -1.000000 0.000000
outer loop
vertex -137.124588 -127.983994 -3.580648
vertex -133.832214 -127.983994 -3.582388
vertex -137.222229 -127.983994 2.633799
endloop
endfacet
facet normal 0.000000 -1.000000 -0.000006
outer loop
vertex -137.222229 -127.983994 2.633799
vertex -133.832214 -127.983994 -3.582388
vertex -133.431290 -127.983994 -3.607092
endloop
endfacet
facet normal 0.000000 -1.000000 0.000048
outer loop
vertex -132.714478 -127.983994 -3.954565
vertex -132.446716 -127.983994 -4.253988
vertex -128.140320 -127.983994 0.457209
endloop
endfacet
facet normal 0.000000 -1.000000 -0.000035
outer loop
vertex -128.140320 -127.983994 0.457209
vertex -132.446716 -127.983994 -4.253988
vertex -132.264908 -127.983994 -4.612173
endloop
endfacet
facet normal 0.000000 -1.000000 0.000004
outer loop
vertex -128.140320 -127.983994 0.457209
vertex -132.264908 -127.983994 -4.612173
vertex -132.181229 -127.983994 -5.005041
endloop
endfacet
facet normal 0.000000 -1.000000 0.000000
outer loop
vertex -132.181229 -127.983994 -5.005041
vertex -132.178314 -127.983994 -5.047476
vertex -128.140320 -127.983994 0.457209
endloop
endfacet
facet normal 0.000000 -1.000000 -0.000307
outer loop
vertex -128.140320 -127.983994 0.457209
vertex -132.178314 -127.983994 -5.047476
vertex -132.176575 -127.983994 -5.089972
endloop
endfacet
facet normal 0.000000 -1.000000 0.000589
outer loop
vertex -128.140320 -127.983994 0.457209
vertex -132.176575 -127.983994 -5.089972
vertex -132.175980 -127.983994 -5.132498
endloop
endfacet
facet normal 0.000000 -1.000000 0.000199
outer loop
vertex -132.179749 -127.983994 -12.232061
vertex -132.190063 -127.983994 -12.334890
vertex -126.797173 -127.983994 -18.178762
endloop
endfacet
facet normal 0.000000 -1.000000 -0.000094
outer loop
vertex -126.797173 -127.983994 -18.178762
vertex -132.190063 -127.983994 -12.334890
vertex -132.207230 -127.983994 -12.436819
endloop
endfacet
facet normal 0.000000 -1.000000 0.000014
outer loop
vertex -126.797173 -127.983994 -18.178762
vertex -132.207230 -127.983994 -12.436819
vertex -132.326553 -127.983994 -12.794470
endloop
endfacet
facet normal 0.000000 -1.000000 0.000000
outer loop
vertex -132.326553 -127.983994 -12.794470
vertex -132.528717 -127.983994 -13.112722
vertex -126.797173 -127.983994 -18.178762
endloop
endfacet
facet normal 0.000000 -1.000000 -0.000016
outer loop
vertex -126.797173 -127.983994 -18.178762
vertex -132.528717 -127.983994 -13.112722
vertex -132.801727 -127.983994 -13.372747
endloop
endfacet
facet normal 0.000000 -1.000000 -0.000003
outer loop
vertex -126.797173 -127.983994 -18.178762
vertex -132.801727 -127.983994 -13.372747
vertex -133.129440 -127.983994 -13.559164
endloop
endfacet
facet normal 0.000000 -1.000000 0.000093
outer loop
vertex -133.129440 -127.983994 -13.559164
vertex -133.322540 -127.983994 -13.625174
vertex -126.797173 -127.983994 -18.178762
endloop
endfacet
facet normal 0.000000 -1.000000 -0.000055
outer loop
vertex -126.797173 -127.983994 -18.178762
vertex -133.322540 -127.983994 -13.625174
vertex -133.522644 -127.983994 -13.665243
endloop
endfacet
facet normal -0.997413 0.000000 0.071886
outer loop
vertex -146.312256 -123.993988 0.457209
vertex -147.655396 -123.993988 -18.178762
vertex -146.312256 -127.983994 0.457209
endloop
endfacet
facet normal -0.997413 0.000000 0.071886
outer loop
vertex -146.312256 -127.983994 0.457209
vertex -147.655396 -123.993988 -18.178762
vertex -147.655396 -127.983994 -18.178762
endloop
endfacet
facet normal -0.232865 0.000000 0.972509
outer loop
vertex -137.222229 -123.993988 2.633799
vertex -146.312256 -123.993988 0.457209
vertex -137.222229 -127.983994 2.633799
endloop
endfacet
facet normal -0.232865 0.000000 0.972509
outer loop
vertex -137.222229 -127.983994 2.633799
vertex -146.312256 -123.993988 0.457209
vertex -146.312256 -127.983994 0.457209
endloop
endfacet
facet normal 0.233063 0.000000 0.972462
outer loop
vertex -128.140320 -123.993988 0.457209
vertex -137.222229 -123.993988 2.633799
vertex -128.140320 -127.983994 0.457209
endloop
endfacet
facet normal 0.233063 0.000000 0.972462
outer loop
vertex -128.140320 -127.983994 0.457209
vertex -137.222229 -123.993988 2.633799
vertex -137.222229 -127.983994 2.633799
endloop
endfacet
facet normal 0.997413 0.000000 0.071886
outer loop
vertex -126.797173 -123.993988 -18.178762
vertex -128.140320 -123.993988 0.457209
vertex -126.797173 -127.983994 -18.178762
endloop
endfacet
facet normal 0.997413 0.000000 0.071886
outer loop
vertex -126.797173 -127.983994 -18.178762
vertex -128.140320 -123.993988 0.457209
vertex -128.140320 -127.983994 0.457209
endloop
endfacet
facet normal 0.000000 0.000000 -1.000000
outer loop
vertex -147.655396 -123.993988 -18.178762
vertex -126.797173 -123.993988 -18.178762
vertex -147.655396 -127.983994 -18.178762
endloop
endfacet
facet normal 0.000000 0.000000 -1.000000
outer loop
vertex -147.655396 -127.983994 -18.178762
vertex -126.797173 -123.993988 -18.178762
vertex -126.797173 -127.983994 -18.178762
endloop
endfacet
facet normal 0.000000 -1.000000 0.000000
outer loop
vertex -135.276230 -127.983994 -10.578680
vertex -135.276138 -127.983994 -8.650045
vertex -139.176285 -127.983994 -10.578680
endloop
endfacet
facet normal 0.000000 -1.000000 0.000000
outer loop
vertex -139.176285 -127.983994 -10.578680
vertex -135.276138 -127.983994 -8.650045
vertex -137.293289 -127.983994 -6.677313
endloop
endfacet
facet normal 0.000000 -1.000000 0.000000
outer loop
vertex -139.176285 -127.983994 -10.578680
vertex -137.293289 -127.983994 -6.677313
vertex -139.176285 -127.983994 -6.677313
endloop
endfacet
facet normal 0.000000 -1.000000 0.000000
outer loop
vertex -137.293289 -127.983994 -6.677313
vertex -135.276138 -127.983994 -8.650045
vertex -137.248627 -127.983994 -6.678595
endloop
endfacet
facet normal 0.000000 -1.000000 0.000158
outer loop
vertex -137.248627 -127.983994 -6.678595
vertex -135.276138 -127.983994 -8.650045
vertex -135.276276 -127.983994 -8.635809
endloop
endfacet
facet normal 0.000000 -1.000000 0.000000
outer loop
vertex -137.248627 -127.983994 -6.678595
vertex -135.276276 -127.983994 -8.635809
vertex -137.203949 -127.983994 -6.678595
endloop
endfacet
facet normal 0.000000 -1.000000 0.000000
outer loop
vertex -137.203949 -127.983994 -6.678595
vertex -135.276276 -127.983994 -8.635809
vertex -135.276276 -127.983994 -8.621572
endloop
endfacet
facet normal 0.000000 -1.000000 -0.000159
outer loop
vertex -137.203949 -127.983994 -6.678595
vertex -135.276276 -127.983994 -8.621572
vertex -135.276138 -127.983994 -8.607336
endloop
endfacet
facet normal 0.000000 -1.000000 0.000008
outer loop
vertex -135.276047 -127.983994 -6.677313
vertex -137.159271 -127.983994 -6.677313
vertex -135.276138 -127.983994 -8.607336
endloop
endfacet
facet normal 0.000000 -1.000000 -0.000043
outer loop
vertex -135.276138 -127.983994 -8.607336
vertex -137.159271 -127.983994 -6.677313
vertex -137.203949 -127.983994 -6.678595
endloop
endfacet
facet normal 0.000000 1.000000 0.000000
outer loop
vertex -135.276230 -123.993988 -10.578680
vertex -139.176285 -123.993988 -10.578680
vertex -135.276138 -123.993988 -8.650045
endloop
endfacet
facet normal 0.000000 1.000000 -0.000003
outer loop
vertex -135.276138 -123.993988 -8.650045
vertex -139.176285 -123.993988 -10.578680
vertex -137.293289 -123.993988 -6.677313
endloop
endfacet
facet normal 0.000000 1.000000 0.000145
outer loop
vertex -135.276138 -123.993988 -8.650045
vertex -137.293289 -123.993988 -6.677313
vertex -137.248627 -123.993988 -6.678595
endloop
endfacet
facet normal 0.000000 1.000000 0.000000
outer loop
vertex -139.176285 -123.993988 -10.578680
vertex -139.176285 -123.993988 -6.677313
vertex -137.293289 -123.993988 -6.677313
endloop
endfacet
facet normal 0.000000 1.000000 0.000000
outer loop
vertex -135.276138 -123.993988 -8.650045
vertex -137.248627 -123.993988 -6.678595
vertex -135.276276 -123.993988 -8.635809
endloop
endfacet
facet normal 0.000000 1.000000 -0.000207
outer loop
vertex -135.276276 -123.993988 -8.635809
vertex -137.248627 -123.993988 -6.678595
vertex -137.203949 -123.993988 -6.678595
endloop
endfacet
facet normal 0.000000 1.000000 0.000000
outer loop
vertex -135.276276 -123.993988 -8.635809
vertex -137.203949 -123.993988 -6.678595
vertex -135.276276 -123.993988 -8.621572
endloop
endfacet
facet normal 0.000000 1.000000 0.000000
outer loop
vertex -135.276276 -123.993988 -8.621572
vertex -137.203949 -123.993988 -6.678595
vertex -135.276138 -123.993988 -8.607336
endloop
endfacet
facet normal 0.000000 1.000000 0.000140
outer loop
vertex -135.276138 -123.993988 -8.607336
vertex -137.203949 -123.993988 -6.678595
vertex -137.159271 -123.993988 -6.677313
endloop
endfacet
facet normal 0.000000 1.000000 0.000000
outer loop
vertex -135.276138 -123.993988 -8.607336
vertex -137.159271 -123.993988 -6.677313
vertex -135.276047 -123.993988 -6.677313
endloop
endfacet
endsolid ShogiChessCncAndPLA v2.019
