solid ShogiChessCncAndPLA v2.025
facet normal -0.707105 0.000000 -0.707109
outer loop
vertex -266.296936 -123.993988 -4.032736
vertex -263.892944 -123.993988 -6.436728
vertex -266.296936 -125.488991 -4.032736
endloop
endfacet
facet normal -0.707105 0.000000 -0.707109
outer loop
vertex -266.296936 -125.488991 -4.032736
vertex -263.892944 -123.993988 -6.436728
vertex -263.892944 -125.488991 -6.436728
endloop
endfacet
facet normal 0.793334 0.000000 0.608787
outer loop
vertex -268.488953 -125.488991 -6.224768
vertex -268.488953 -123.993988 -6.224768
vertex -268.735291 -125.488991 -5.903753
endloop
endfacet
facet normal 0.793340 0.000000 0.608779
outer loop
vertex -268.735291 -125.488991 -5.903753
vertex -268.488953 -123.993988 -6.224768
vertex -268.735291 -123.993988 -5.903753
endloop
endfacet
facet normal 0.923877 0.000000 0.382689
outer loop
vertex -268.735291 -125.488991 -5.903753
vertex -268.735291 -123.993988 -5.903753
vertex -268.890137 -125.488991 -5.529928
endloop
endfacet
facet normal 0.923878 0.000000 0.382688
outer loop
vertex -268.890137 -125.488991 -5.529928
vertex -268.735291 -123.993988 -5.903753
vertex -268.890137 -123.993988 -5.529928
endloop
endfacet
facet normal 0.991441 0.000000 0.130553
outer loop
vertex -268.890137 -125.488991 -5.529928
vertex -268.890137 -123.993988 -5.529928
vertex -268.942963 -125.488991 -5.128759
endloop
endfacet
facet normal 0.991441 0.000000 0.130553
outer loop
vertex -268.942963 -125.488991 -5.128759
vertex -268.890137 -123.993988 -5.529928
vertex -268.942963 -123.993988 -5.128759
endloop
endfacet
facet normal 0.991441 0.000000 -0.130553
outer loop
vertex -268.942963 -125.488991 -5.128759
vertex -268.942963 -123.993988 -5.128759
vertex -268.890137 -125.488991 -4.727591
endloop
endfacet
facet normal 0.991441 0.000000 -0.130553
outer loop
vertex -268.890137 -125.488991 -4.727591
vertex -268.942963 -123.993988 -5.128759
vertex -268.890137 -123.993988 -4.727591
endloop
endfacet
facet normal 0.923877 0.000000 -0.382689
outer loop
vertex -268.890137 -125.488991 -4.727591
vertex -268.890137 -123.993988 -4.727591
vertex -268.735291 -125.488991 -4.353765
endloop
endfacet
facet normal 0.923877 0.000000 -0.382689
outer loop
vertex -268.735291 -125.488991 -4.353765
vertex -268.890137 -123.993988 -4.727591
vertex -268.735291 -123.993988 -4.353765
endloop
endfacet
facet normal 0.793348 0.000000 -0.608769
outer loop
vertex -268.735291 -125.488991 -4.353765
vertex -268.735291 -123.993988 -4.353765
vertex -268.488953 -125.488991 -4.032736
endloop
endfacet
facet normal 0.793354 0.000000 -0.608761
outer loop
vertex -268.488953 -125.488991 -4.032736
vertex -268.735291 -123.993988 -4.353765
vertex -268.488953 -123.993988 -4.032736
endloop
endfacet
facet normal 0.608753 0.000000 -0.793360
outer loop
vertex -268.488953 -125.488991 -4.032736
vertex -268.488953 -123.993988 -4.032736
vertex -268.167938 -125.488991 -3.786413
endloop
endfacet
facet normal 0.608766 0.000000 -0.793350
outer loop
vertex -268.167938 -125.488991 -3.786413
vertex -268.488953 -123.993988 -4.032736
vertex -268.167938 -123.993988 -3.786413
endloop
endfacet
facet normal 0.382703 0.000000 -0.923872
outer loop
vertex -268.167938 -125.488991 -3.786413
vertex -268.167938 -123.993988 -3.786413
vertex -267.794128 -125.488991 -3.631567
endloop
endfacet
facet normal 0.382704 0.000000 -0.923871
outer loop
vertex -267.794128 -125.488991 -3.631567
vertex -268.167938 -123.993988 -3.786413
vertex -267.794128 -123.993988 -3.631567
endloop
endfacet
facet normal 0.130511 0.000000 -0.991447
outer loop
vertex -267.794128 -125.488991 -3.631567
vertex -267.794128 -123.993988 -3.631567
vertex -267.392944 -125.488991 -3.578756
endloop
endfacet
facet normal 0.130511 0.000000 -0.991447
outer loop
vertex -267.392944 -125.488991 -3.578756
vertex -267.794128 -123.993988 -3.631567
vertex -267.392944 -123.993988 -3.578756
endloop
endfacet
facet normal -0.130521 0.000000 -0.991446
outer loop
vertex -267.392944 -125.488991 -3.578756
vertex -267.392944 -123.993988 -3.578756
vertex -266.991791 -125.488991 -3.631567
endloop
endfacet
facet normal -0.130521 0.000000 -0.991446
outer loop
vertex -266.991791 -125.488991 -3.631567
vertex -267.392944 -123.993988 -3.578756
vertex -266.991791 -123.993988 -3.631567
endloop
endfacet
facet normal -0.382677 0.000000 -0.923882
outer loop
vertex -266.991791 -125.488991 -3.631567
vertex -266.991791 -123.993988 -3.631567
vertex -266.617950 -125.488991 -3.786413
endloop
endfacet
facet normal -0.382676 0.000000 -0.923883
outer loop
vertex -266.617950 -125.488991 -3.786413
vertex -266.991791 -123.993988 -3.631567
vertex -266.617950 -123.993988 -3.786413
endloop
endfacet
facet normal -0.608754 0.000000 -0.793359
outer loop
vertex -266.617950 -125.488991 -3.786413
vertex -266.617950 -123.993988 -3.786413
vertex -266.296936 -125.488991 -4.032736
endloop
endfacet
facet normal -0.608765 0.000000 -0.793351
outer loop
vertex -266.296936 -125.488991 -4.032736
vertex -266.617950 -123.993988 -3.786413
vertex -266.296936 -123.993988 -4.032736
endloop
endfacet
facet normal 0.707104 0.000000 0.707109
outer loop
vertex -264.988953 -123.993988 -9.724768
vertex -268.488953 -123.993988 -6.224768
vertex -264.988953 -125.488991 -9.724768
endloop
endfacet
facet normal 0.707109 0.000000 0.707105
outer loop
vertex -264.988953 -125.488991 -9.724768
vertex -268.488953 -123.993988 -6.224768
vertex -268.488953 -125.488991 -6.224768
endloop
endfacet
facet normal -0.608754 0.000000 0.793359
outer loop
vertex -262.796936 -125.488991 -9.724768
vertex -262.796936 -123.993988 -9.724768
vertex -263.117950 -125.488991 -9.971090
endloop
endfacet
facet normal -0.608764 0.000000 0.793351
outer loop
vertex -263.117950 -125.488991 -9.971090
vertex -262.796936 -123.993988 -9.724768
vertex -263.117950 -123.993988 -9.971090
endloop
endfacet
facet normal -0.382678 0.000000 0.923882
outer loop
vertex -263.117950 -125.488991 -9.971090
vertex -263.117950 -123.993988 -9.971090
vertex -263.491791 -125.488991 -10.125937
endloop
endfacet
facet normal -0.382676 0.000000 0.923883
outer loop
vertex -263.491791 -125.488991 -10.125937
vertex -263.117950 -123.993988 -9.971090
vertex -263.491791 -123.993988 -10.125937
endloop
endfacet
facet normal -0.130560 0.000000 0.991440
outer loop
vertex -263.491791 -125.488991 -10.125937
vertex -263.491791 -123.993988 -10.125937
vertex -263.892944 -125.488991 -10.178762
endloop
endfacet
facet normal -0.130556 0.000000 0.991441
outer loop
vertex -263.892944 -125.488991 -10.178762
vertex -263.491791 -123.993988 -10.125937
vertex -263.892944 -123.993988 -10.178762
endloop
endfacet
facet normal 0.130547 0.000000 0.991442
outer loop
vertex -263.892944 -125.488991 -10.178762
vertex -263.892944 -123.993988 -10.178762
vertex -264.294128 -125.488991 -10.125937
endloop
endfacet
facet normal 0.130550 0.000000 0.991442
outer loop
vertex -264.294128 -125.488991 -10.125937
vertex -263.892944 -123.993988 -10.178762
vertex -264.294128 -123.993988 -10.125937
endloop
endfacet
facet normal 0.382703 0.000000 0.923872
outer loop
vertex -264.294128 -125.488991 -10.125937
vertex -264.294128 -123.993988 -10.125937
vertex -264.667938 -125.488991 -9.971090
endloop
endfacet
facet normal 0.382705 0.000000 0.923871
outer loop
vertex -264.667938 -125.488991 -9.971090
vertex -264.294128 -123.993988 -10.125937
vertex -264.667938 -123.993988 -9.971090
endloop
endfacet
facet normal 0.608752 0.000000 0.793361
outer loop
vertex -264.667938 -125.488991 -9.971090
vertex -264.667938 -123.993988 -9.971090
vertex -264.988953 -125.488991 -9.724768
endloop
endfacet
facet normal 0.608766 0.000000 0.793350
outer loop
vertex -264.988953 -125.488991 -9.724768
vertex -264.667938 -123.993988 -9.971090
vertex -264.988953 -123.993988 -9.724768
endloop
endfacet
facet normal 0.707105 0.000000 -0.707109
outer loop
vertex -263.892944 -123.993988 -6.436728
vertex -261.488953 -123.993988 -4.032736
vertex -263.892944 -125.488991 -6.436728
endloop
endfacet
facet normal 0.707105 0.000000 -0.707109
outer loop
vertex -263.892944 -125.488991 -6.436728
vertex -261.488953 -123.993988 -4.032736
vertex -261.488953 -125.488991 -4.032736
endloop
endfacet
facet normal 0.608753 0.000000 -0.793360
outer loop
vertex -261.488953 -125.488991 -4.032736
vertex -261.488953 -123.993988 -4.032736
vertex -261.167938 -125.488991 -3.786413
endloop
endfacet
facet normal 0.608766 0.000000 -0.793350
outer loop
vertex -261.167938 -125.488991 -3.786413
vertex -261.488953 -123.993988 -4.032736
vertex -261.167938 -123.993988 -3.786413
endloop
endfacet
facet normal 0.382703 0.000000 -0.923872
outer loop
vertex -261.167938 -125.488991 -3.786413
vertex -261.167938 -123.993988 -3.786413
vertex -260.794128 -125.488991 -3.631567
endloop
endfacet
facet normal 0.382704 0.000000 -0.923871
outer loop
vertex -260.794128 -125.488991 -3.631567
vertex -261.167938 -123.993988 -3.786413
vertex -260.794128 -123.993988 -3.631567
endloop
endfacet
facet normal 0.130511 0.000000 -0.991447
outer loop
vertex -260.794128 -125.488991 -3.631567
vertex -260.794128 -123.993988 -3.631567
vertex -260.392944 -125.488991 -3.578756
endloop
endfacet
facet normal 0.130511 0.000000 -0.991447
outer loop
vertex -260.392944 -125.488991 -3.578756
vertex -260.794128 -123.993988 -3.631567
vertex -260.392944 -123.993988 -3.578756
endloop
endfacet
facet normal -0.130521 0.000000 -0.991446
outer loop
vertex -260.392944 -125.488991 -3.578756
vertex -260.392944 -123.993988 -3.578756
vertex -259.991791 -125.488991 -3.631567
endloop
endfacet
facet normal -0.130521 0.000000 -0.991446
outer loop
vertex -259.991791 -125.488991 -3.631567
vertex -260.392944 -123.993988 -3.578756
vertex -259.991791 -123.993988 -3.631567
endloop
endfacet
facet normal -0.382677 0.000000 -0.923882
outer loop
vertex -259.991791 -125.488991 -3.631567
vertex -259.991791 -123.993988 -3.631567
vertex -259.617950 -125.488991 -3.786413
endloop
endfacet
facet normal -0.382676 0.000000 -0.923883
outer loop
vertex -259.617950 -125.488991 -3.786413
vertex -259.991791 -123.993988 -3.631567
vertex -259.617950 -123.993988 -3.786413
endloop
endfacet
facet normal -0.608754 0.000000 -0.793359
outer loop
vertex -259.617950 -125.488991 -3.786413
vertex -259.617950 -123.993988 -3.786413
vertex -259.296936 -125.488991 -4.032736
endloop
endfacet
facet normal -0.608765 0.000000 -0.793351
outer loop
vertex -259.296936 -125.488991 -4.032736
vertex -259.617950 -123.993988 -3.786413
vertex -259.296936 -123.993988 -4.032736
endloop
endfacet
facet normal -0.793348 0.000000 -0.608769
outer loop
vertex -259.296936 -125.488991 -4.032736
vertex -259.296936 -123.993988 -4.032736
vertex -259.050598 -125.488991 -4.353765
endloop
endfacet
facet normal -0.793354 0.000000 -0.608761
outer loop
vertex -259.050598 -125.488991 -4.353765
vertex -259.296936 -123.993988 -4.032736
vertex -259.050598 -123.993988 -4.353765
endloop
endfacet
facet normal -0.923877 0.000000 -0.382689
outer loop
vertex -259.050598 -125.488991 -4.353765
vertex -259.050598 -123.993988 -4.353765
vertex -258.895752 -125.488991 -4.727591
endloop
endfacet
facet normal -0.923877 0.000000 -0.382689
outer loop
vertex -258.895752 -125.488991 -4.727591
vertex -259.050598 -123.993988 -4.353765
vertex -258.895752 -123.993988 -4.727591
endloop
endfacet
facet normal -0.991451 0.000000 -0.130480
outer loop
vertex -258.895752 -125.488991 -4.727591
vertex -258.895752 -123.993988 -4.727591
vertex -258.842957 -125.488991 -5.128759
endloop
endfacet
facet normal -0.991451 0.000000 -0.130478
outer loop
vertex -258.842957 -125.488991 -5.128759
vertex -258.895752 -123.993988 -4.727591
vertex -258.842957 -123.993988 -5.128759
endloop
endfacet
facet normal -0.991451 0.000000 0.130480
outer loop
vertex -258.842957 -125.488991 -5.128759
vertex -258.842957 -123.993988 -5.128759
vertex -258.895752 -125.488991 -5.529928
endloop
endfacet
facet normal -0.991451 0.000000 0.130478
outer loop
vertex -258.895752 -125.488991 -5.529928
vertex -258.842957 -123.993988 -5.128759
vertex -258.895752 -123.993988 -5.529928
endloop
endfacet
facet normal -0.923878 0.000000 0.382688
outer loop
vertex -258.895752 -125.488991 -5.529928
vertex -258.895752 -123.993988 -5.529928
vertex -259.050598 -125.488991 -5.903753
endloop
endfacet
facet normal -0.923877 0.000000 0.382689
outer loop
vertex -259.050598 -125.488991 -5.903753
vertex -258.895752 -123.993988 -5.529928
vertex -259.050598 -123.993988 -5.903753
endloop
endfacet
facet normal -0.793334 0.000000 0.608787
outer loop
vertex -259.050598 -125.488991 -5.903753
vertex -259.050598 -123.993988 -5.903753
vertex -259.296936 -125.488991 -6.224768
endloop
endfacet
facet normal -0.793340 0.000000 0.608779
outer loop
vertex -259.296936 -125.488991 -6.224768
vertex -259.050598 -123.993988 -5.903753
vertex -259.296936 -123.993988 -6.224768
endloop
endfacet
facet normal -0.707104 0.000000 0.707109
outer loop
vertex -259.296936 -123.993988 -6.224768
vertex -262.796936 -123.993988 -9.724768
vertex -259.296936 -125.488991 -6.224768
endloop
endfacet
facet normal -0.707109 0.000000 0.707105
outer loop
vertex -259.296936 -125.488991 -6.224768
vertex -262.796936 -123.993988 -9.724768
vertex -262.796936 -125.488991 -9.724768
endloop
endfacet
facet normal 0.000000 1.000000 0.000000
outer loop
vertex -262.796936 -125.488991 -9.724768
vertex -263.892944 -125.488991 -6.436728
vertex -259.296936 -125.488991 -6.224768
endloop
endfacet
facet normal 0.000000 1.000000 0.000006
outer loop
vertex -259.296936 -125.488991 -6.224768
vertex -263.892944 -125.488991 -6.436728
vertex -261.488953 -125.488991 -4.032736
endloop
endfacet
facet normal 0.000000 1.000000 0.000000
outer loop
vertex -259.296936 -125.488991 -6.224768
vertex -261.488953 -125.488991 -4.032736
vertex -259.050598 -125.488991 -5.903753
endloop
endfacet
facet normal 0.000000 1.000000 0.000051
outer loop
vertex -259.050598 -125.488991 -5.903753
vertex -261.488953 -125.488991 -4.032736
vertex -258.895752 -125.488991 -5.529928
endloop
endfacet
facet normal 0.000000 1.000000 -0.000055
outer loop
vertex -258.895752 -125.488991 -5.529928
vertex -261.488953 -125.488991 -4.032736
vertex -258.842957 -125.488991 -5.128759
endloop
endfacet
facet normal 0.000000 1.000000 0.000061
outer loop
vertex -258.842957 -125.488991 -5.128759
vertex -261.488953 -125.488991 -4.032736
vertex -258.895752 -125.488991 -4.727591
endloop
endfacet
facet normal 0.000000 1.000000 -0.000071
outer loop
vertex -258.895752 -125.488991 -4.727591
vertex -261.488953 -125.488991 -4.032736
vertex -259.050598 -125.488991 -4.353765
endloop
endfacet
facet normal 0.000000 1.000000 0.000000
outer loop
vertex -259.050598 -125.488991 -4.353765
vertex -261.488953 -125.488991 -4.032736
vertex -259.296936 -125.488991 -4.032736
endloop
endfacet
facet normal 0.000000 1.000000 0.000057
outer loop
vertex -259.296936 -125.488991 -4.032736
vertex -261.488953 -125.488991 -4.032736
vertex -259.617950 -125.488991 -3.786413
endloop
endfacet
facet normal 0.000000 1.000000 0.000040
outer loop
vertex -259.617950 -125.488991 -3.786413
vertex -261.488953 -125.488991 -4.032736
vertex -261.167938 -125.488991 -3.786413
endloop
endfacet
facet normal 0.000000 1.000000 -0.000127
outer loop
vertex -259.617950 -125.488991 -3.786413
vertex -261.167938 -125.488991 -3.786413
vertex -259.991791 -125.488991 -3.631567
endloop
endfacet
facet normal 0.000000 1.000000 0.000061
outer loop
vertex -259.991791 -125.488991 -3.631567
vertex -261.167938 -125.488991 -3.786413
vertex -260.794128 -125.488991 -3.631567
endloop
endfacet
facet normal 0.000000 1.000000 0.000000
outer loop
vertex -259.991791 -125.488991 -3.631567
vertex -260.794128 -125.488991 -3.631567
vertex -260.392944 -125.488991 -3.578756
endloop
endfacet
facet normal 0.000000 1.000000 -0.000080
outer loop
vertex -263.117950 -125.488991 -9.971090
vertex -264.667938 -125.488991 -9.971090
vertex -262.796936 -125.488991 -9.724768
endloop
endfacet
facet normal 0.000000 1.000000 -0.000028
outer loop
vertex -262.796936 -125.488991 -9.724768
vertex -264.667938 -125.488991 -9.971090
vertex -264.988953 -125.488991 -9.724768
endloop
endfacet
facet normal 0.000000 1.000000 0.000000
outer loop
vertex -262.796936 -125.488991 -9.724768
vertex -264.988953 -125.488991 -9.724768
vertex -263.892944 -125.488991 -6.436728
endloop
endfacet
facet normal 0.000000 1.000000 -0.000004
outer loop
vertex -263.892944 -125.488991 -6.436728
vertex -264.988953 -125.488991 -9.724768
vertex -268.488953 -125.488991 -6.224768
endloop
endfacet
facet normal 0.000000 1.000000 0.000006
outer loop
vertex -263.892944 -125.488991 -6.436728
vertex -268.488953 -125.488991 -6.224768
vertex -266.296936 -125.488991 -4.032736
endloop
endfacet
facet normal 0.000000 1.000000 -0.000006
outer loop
vertex -266.296936 -125.488991 -4.032736
vertex -268.488953 -125.488991 -6.224768
vertex -268.735291 -125.488991 -5.903753
endloop
endfacet
facet normal 0.000000 1.000000 0.000044
outer loop
vertex -266.296936 -125.488991 -4.032736
vertex -268.735291 -125.488991 -5.903753
vertex -268.890137 -125.488991 -5.529928
endloop
endfacet
facet normal 0.000000 1.000000 0.000127
outer loop
vertex -264.667938 -125.488991 -9.971090
vertex -263.117950 -125.488991 -9.971090
vertex -264.294128 -125.488991 -10.125937
endloop
endfacet
facet normal 0.000000 1.000000 -0.000061
outer loop
vertex -264.294128 -125.488991 -10.125937
vertex -263.117950 -125.488991 -9.971090
vertex -263.491791 -125.488991 -10.125937
endloop
endfacet
facet normal 0.000000 1.000000 0.000000
outer loop
vertex -264.294128 -125.488991 -10.125937
vertex -263.491791 -125.488991 -10.125937
vertex -263.892944 -125.488991 -10.178762
endloop
endfacet
facet normal 0.000000 1.000000 0.000000
outer loop
vertex -268.890137 -125.488991 -5.529928
vertex -268.942963 -125.488991 -5.128759
vertex -266.296936 -125.488991 -4.032736
endloop
endfacet
facet normal 0.000000 1.000000 0.000027
outer loop
vertex -266.296936 -125.488991 -4.032736
vertex -268.942963 -125.488991 -5.128759
vertex -268.890137 -125.488991 -4.727591
endloop
endfacet
facet normal 0.000000 1.000000 -0.000062
outer loop
vertex -266.296936 -125.488991 -4.032736
vertex -268.890137 -125.488991 -4.727591
vertex -268.735291 -125.488991 -4.353765
endloop
endfacet
facet normal 0.000000 1.000000 0.000000
outer loop
vertex -268.735291 -125.488991 -4.353765
vertex -268.488953 -125.488991 -4.032736
vertex -266.296936 -125.488991 -4.032736
endloop
endfacet
facet normal 0.000000 1.000000 0.000057
outer loop
vertex -266.296936 -125.488991 -4.032736
vertex -268.488953 -125.488991 -4.032736
vertex -266.617950 -125.488991 -3.786413
endloop
endfacet
facet normal 0.000000 1.000000 0.000040
outer loop
vertex -266.617950 -125.488991 -3.786413
vertex -268.488953 -125.488991 -4.032736
vertex -268.167938 -125.488991 -3.786413
endloop
endfacet
facet normal 0.000000 1.000000 -0.000127
outer loop
vertex -266.617950 -125.488991 -3.786413
vertex -268.167938 -125.488991 -3.786413
vertex -266.991791 -125.488991 -3.631567
endloop
endfacet
facet normal 0.000000 1.000000 0.000061
outer loop
vertex -266.991791 -125.488991 -3.631567
vertex -268.167938 -125.488991 -3.786413
vertex -267.794128 -125.488991 -3.631567
endloop
endfacet
facet normal 0.000000 1.000000 0.000000
outer loop
vertex -266.991791 -125.488991 -3.631567
vertex -267.794128 -125.488991 -3.631567
vertex -267.392944 -125.488991 -3.578756
endloop
endfacet
facet normal 0.707111 0.000000 -0.707103
outer loop
vertex -261.488953 -127.983994 -4.032736
vertex -263.892944 -127.983994 -6.436728
vertex -261.488953 -126.488991 -4.032736
endloop
endfacet
facet normal 0.707105 0.000000 -0.707109
outer loop
vertex -261.488953 -126.488991 -4.032736
vertex -263.892944 -127.983994 -6.436728
vertex -263.892944 -126.488991 -6.436728
endloop
endfacet
facet normal -0.793334 0.000000 0.608787
outer loop
vertex -259.296936 -126.488991 -6.224768
vertex -259.296936 -127.983994 -6.224768
vertex -259.050598 -126.488991 -5.903753
endloop
endfacet
facet normal -0.793337 0.000000 0.608783
outer loop
vertex -259.050598 -126.488991 -5.903753
vertex -259.296936 -127.983994 -6.224768
vertex -259.050598 -127.983994 -5.903753
endloop
endfacet
facet normal -0.923875 0.000000 0.382694
outer loop
vertex -259.050598 -126.488991 -5.903753
vertex -259.050598 -127.983994 -5.903753
vertex -258.895752 -126.488991 -5.529928
endloop
endfacet
facet normal -0.923878 0.000000 0.382688
outer loop
vertex -258.895752 -126.488991 -5.529928
vertex -259.050598 -127.983994 -5.903753
vertex -258.895752 -127.983994 -5.529928
endloop
endfacet
facet normal -0.991451 0.000000 0.130480
outer loop
vertex -258.895752 -126.488991 -5.529928
vertex -258.895752 -127.983994 -5.529928
vertex -258.842957 -126.488991 -5.128759
endloop
endfacet
facet normal -0.991451 0.000000 0.130479
outer loop
vertex -258.842957 -126.488991 -5.128759
vertex -258.895752 -127.983994 -5.529928
vertex -258.842957 -127.983994 -5.128759
endloop
endfacet
facet normal -0.991451 0.000000 -0.130480
outer loop
vertex -258.842957 -126.488991 -5.128759
vertex -258.842957 -127.983994 -5.128759
vertex -258.895752 -126.488991 -4.727591
endloop
endfacet
facet normal -0.991451 0.000000 -0.130478
outer loop
vertex -258.895752 -126.488991 -4.727591
vertex -258.842957 -127.983994 -5.128759
vertex -258.895752 -127.983994 -4.727591
endloop
endfacet
facet normal -0.923875 0.000000 -0.382694
outer loop
vertex -258.895752 -126.488991 -4.727591
vertex -258.895752 -127.983994 -4.727591
vertex -259.050598 -126.488991 -4.353765
endloop
endfacet
facet normal -0.923877 0.000000 -0.382689
outer loop
vertex -259.050598 -126.488991 -4.353765
vertex -258.895752 -127.983994 -4.727591
vertex -259.050598 -127.983994 -4.353765
endloop
endfacet
facet normal -0.793348 0.000000 -0.608769
outer loop
vertex -259.050598 -126.488991 -4.353765
vertex -259.050598 -127.983994 -4.353765
vertex -259.296936 -126.488991 -4.032736
endloop
endfacet
facet normal -0.793351 0.000000 -0.608765
outer loop
vertex -259.296936 -126.488991 -4.032736
vertex -259.050598 -127.983994 -4.353765
vertex -259.296936 -127.983994 -4.032736
endloop
endfacet
facet normal -0.608759 0.000000 -0.793355
outer loop
vertex -259.296936 -126.488991 -4.032736
vertex -259.296936 -127.983994 -4.032736
vertex -259.617950 -126.488991 -3.786413
endloop
endfacet
facet normal -0.608766 0.000000 -0.793350
outer loop
vertex -259.617950 -126.488991 -3.786413
vertex -259.296936 -127.983994 -4.032736
vertex -259.617950 -127.983994 -3.786413
endloop
endfacet
facet normal -0.382671 0.000000 -0.923885
outer loop
vertex -259.617950 -126.488991 -3.786413
vertex -259.617950 -127.983994 -3.786413
vertex -259.991791 -126.488991 -3.631567
endloop
endfacet
facet normal -0.382682 0.000000 -0.923880
outer loop
vertex -259.991791 -126.488991 -3.631567
vertex -259.617950 -127.983994 -3.786413
vertex -259.991791 -127.983994 -3.631567
endloop
endfacet
facet normal -0.130519 0.000000 -0.991446
outer loop
vertex -259.991791 -126.488991 -3.631567
vertex -259.991791 -127.983994 -3.631567
vertex -260.392944 -126.488991 -3.578756
endloop
endfacet
facet normal -0.130521 0.000000 -0.991446
outer loop
vertex -260.392944 -126.488991 -3.578756
vertex -259.991791 -127.983994 -3.631567
vertex -260.392944 -127.983994 -3.578756
endloop
endfacet
facet normal 0.130509 0.000000 -0.991447
outer loop
vertex -260.392944 -126.488991 -3.578756
vertex -260.392944 -127.983994 -3.578756
vertex -260.794128 -126.488991 -3.631567
endloop
endfacet
facet normal 0.130511 0.000000 -0.991447
outer loop
vertex -260.794128 -126.488991 -3.631567
vertex -260.392944 -127.983994 -3.578756
vertex -260.794128 -127.983994 -3.631567
endloop
endfacet
facet normal 0.382699 0.000000 -0.923873
outer loop
vertex -260.794128 -126.488991 -3.631567
vertex -260.794128 -127.983994 -3.631567
vertex -261.167938 -126.488991 -3.786413
endloop
endfacet
facet normal 0.382707 0.000000 -0.923870
outer loop
vertex -261.167938 -126.488991 -3.786413
vertex -260.794128 -127.983994 -3.631567
vertex -261.167938 -127.983994 -3.786413
endloop
endfacet
facet normal 0.608760 0.000000 -0.793354
outer loop
vertex -261.167938 -126.488991 -3.786413
vertex -261.167938 -127.983994 -3.786413
vertex -261.488953 -126.488991 -4.032736
endloop
endfacet
facet normal 0.608765 0.000000 -0.793351
outer loop
vertex -261.488953 -126.488991 -4.032736
vertex -261.167938 -127.983994 -3.786413
vertex -261.488953 -127.983994 -4.032736
endloop
endfacet
facet normal -0.707109 0.000000 0.707105
outer loop
vertex -262.796936 -127.983994 -9.724768
vertex -259.296936 -127.983994 -6.224768
vertex -262.796936 -126.488991 -9.724768
endloop
endfacet
facet normal -0.707104 0.000000 0.707109
outer loop
vertex -262.796936 -126.488991 -9.724768
vertex -259.296936 -127.983994 -6.224768
vertex -259.296936 -126.488991 -6.224768
endloop
endfacet
facet normal 0.608760 0.000000 0.793354
outer loop
vertex -264.988953 -126.488991 -9.724768
vertex -264.988953 -127.983994 -9.724768
vertex -264.667938 -126.488991 -9.971090
endloop
endfacet
facet normal 0.608764 0.000000 0.793351
outer loop
vertex -264.667938 -126.488991 -9.971090
vertex -264.988953 -127.983994 -9.724768
vertex -264.667938 -127.983994 -9.971090
endloop
endfacet
facet normal 0.382701 0.000000 0.923872
outer loop
vertex -264.667938 -126.488991 -9.971090
vertex -264.667938 -127.983994 -9.971090
vertex -264.294128 -126.488991 -10.125937
endloop
endfacet
facet normal 0.382707 0.000000 0.923870
outer loop
vertex -264.294128 -126.488991 -10.125937
vertex -264.667938 -127.983994 -9.971090
vertex -264.294128 -127.983994 -10.125937
endloop
endfacet
facet normal 0.130548 0.000000 0.991442
outer loop
vertex -264.294128 -126.488991 -10.125937
vertex -264.294128 -127.983994 -10.125937
vertex -263.892944 -126.488991 -10.178762
endloop
endfacet
facet normal 0.130547 0.000000 0.991442
outer loop
vertex -263.892944 -126.488991 -10.178762
vertex -264.294128 -127.983994 -10.125937
vertex -263.892944 -127.983994 -10.178762
endloop
endfacet
facet normal -0.130555 0.000000 0.991441
outer loop
vertex -263.892944 -126.488991 -10.178762
vertex -263.892944 -127.983994 -10.178762
vertex -263.491791 -126.488991 -10.125937
endloop
endfacet
facet normal -0.130560 0.000000 0.991440
outer loop
vertex -263.491791 -126.488991 -10.125937
vertex -263.892944 -127.983994 -10.178762
vertex -263.491791 -127.983994 -10.125937
endloop
endfacet
facet normal -0.382671 0.000000 0.923885
outer loop
vertex -263.491791 -126.488991 -10.125937
vertex -263.491791 -127.983994 -10.125937
vertex -263.117950 -126.488991 -9.971090
endloop
endfacet
facet normal -0.382683 0.000000 0.923880
outer loop
vertex -263.117950 -126.488991 -9.971090
vertex -263.491791 -127.983994 -10.125937
vertex -263.117950 -127.983994 -9.971090
endloop
endfacet
facet normal -0.608758 0.000000 0.793356
outer loop
vertex -263.117950 -126.488991 -9.971090
vertex -263.117950 -127.983994 -9.971090
vertex -262.796936 -126.488991 -9.724768
endloop
endfacet
facet normal -0.608766 0.000000 0.793350
outer loop
vertex -262.796936 -126.488991 -9.724768
vertex -263.117950 -127.983994 -9.971090
vertex -262.796936 -127.983994 -9.724768
endloop
endfacet
facet normal 0.707109 0.000000 0.707105
outer loop
vertex -268.488953 -127.983994 -6.224768
vertex -264.988953 -127.983994 -9.724768
vertex -268.488953 -126.488991 -6.224768
endloop
endfacet
facet normal 0.707104 0.000000 0.707109
outer loop
vertex -268.488953 -126.488991 -6.224768
vertex -264.988953 -127.983994 -9.724768
vertex -264.988953 -126.488991 -9.724768
endloop
endfacet
facet normal -0.608759 0.000000 -0.793355
outer loop
vertex -266.296936 -126.488991 -4.032736
vertex -266.296936 -127.983994 -4.032736
vertex -266.617950 -126.488991 -3.786413
endloop
endfacet
facet normal -0.608766 0.000000 -0.793350
outer loop
vertex -266.617950 -126.488991 -3.786413
vertex -266.296936 -127.983994 -4.032736
vertex -266.617950 -127.983994 -3.786413
endloop
endfacet
facet normal -0.382671 0.000000 -0.923885
outer loop
vertex -266.617950 -126.488991 -3.786413
vertex -266.617950 -127.983994 -3.786413
vertex -266.991791 -126.488991 -3.631567
endloop
endfacet
facet normal -0.382682 0.000000 -0.923880
outer loop
vertex -266.991791 -126.488991 -3.631567
vertex -266.617950 -127.983994 -3.786413
vertex -266.991791 -127.983994 -3.631567
endloop
endfacet
facet normal -0.130519 0.000000 -0.991446
outer loop
vertex -266.991791 -126.488991 -3.631567
vertex -266.991791 -127.983994 -3.631567
vertex -267.392944 -126.488991 -3.578756
endloop
endfacet
facet normal -0.130521 0.000000 -0.991446
outer loop
vertex -267.392944 -126.488991 -3.578756
vertex -266.991791 -127.983994 -3.631567
vertex -267.392944 -127.983994 -3.578756
endloop
endfacet
facet normal 0.130509 0.000000 -0.991447
outer loop
vertex -267.392944 -126.488991 -3.578756
vertex -267.392944 -127.983994 -3.578756
vertex -267.794128 -126.488991 -3.631567
endloop
endfacet
facet normal 0.130511 0.000000 -0.991447
outer loop
vertex -267.794128 -126.488991 -3.631567
vertex -267.392944 -127.983994 -3.578756
vertex -267.794128 -127.983994 -3.631567
endloop
endfacet
facet normal 0.382699 0.000000 -0.923873
outer loop
vertex -267.794128 -126.488991 -3.631567
vertex -267.794128 -127.983994 -3.631567
vertex -268.167938 -126.488991 -3.786413
endloop
endfacet
facet normal 0.382707 0.000000 -0.923870
outer loop
vertex -268.167938 -126.488991 -3.786413
vertex -267.794128 -127.983994 -3.631567
vertex -268.167938 -127.983994 -3.786413
endloop
endfacet
facet normal 0.608760 0.000000 -0.793354
outer loop
vertex -268.167938 -126.488991 -3.786413
vertex -268.167938 -127.983994 -3.786413
vertex -268.488953 -126.488991 -4.032736
endloop
endfacet
facet normal 0.608765 0.000000 -0.793351
outer loop
vertex -268.488953 -126.488991 -4.032736
vertex -268.167938 -127.983994 -3.786413
vertex -268.488953 -127.983994 -4.032736
endloop
endfacet
facet normal 0.793348 0.000000 -0.608769
outer loop
vertex -268.488953 -126.488991 -4.032736
vertex -268.488953 -127.983994 -4.032736
vertex -268.735291 -126.488991 -4.353765
endloop
endfacet
facet normal 0.793351 0.000000 -0.608765
outer loop
vertex -268.735291 -126.488991 -4.353765
vertex -268.488953 -127.983994 -4.032736
vertex -268.735291 -127.983994 -4.353765
endloop
endfacet
facet normal 0.923875 0.000000 -0.382694
outer loop
vertex -268.735291 -126.488991 -4.353765
vertex -268.735291 -127.983994 -4.353765
vertex -268.890137 -126.488991 -4.727591
endloop
endfacet
facet normal 0.923877 0.000000 -0.382689
outer loop
vertex -268.890137 -126.488991 -4.727591
vertex -268.735291 -127.983994 -4.353765
vertex -268.890137 -127.983994 -4.727591
endloop
endfacet
facet normal 0.991441 0.000000 -0.130554
outer loop
vertex -268.890137 -126.488991 -4.727591
vertex -268.890137 -127.983994 -4.727591
vertex -268.942963 -126.488991 -5.128759
endloop
endfacet
facet normal 0.991441 0.000000 -0.130553
outer loop
vertex -268.942963 -126.488991 -5.128759
vertex -268.890137 -127.983994 -4.727591
vertex -268.942963 -127.983994 -5.128759
endloop
endfacet
facet normal 0.991441 0.000000 0.130554
outer loop
vertex -268.942963 -126.488991 -5.128759
vertex -268.942963 -127.983994 -5.128759
vertex -268.890137 -126.488991 -5.529928
endloop
endfacet
facet normal 0.991441 0.000000 0.130553
outer loop
vertex -268.890137 -126.488991 -5.529928
vertex -268.942963 -127.983994 -5.128759
vertex -268.890137 -127.983994 -5.529928
endloop
endfacet
facet normal 0.923875 0.000000 0.382693
outer loop
vertex -268.890137 -126.488991 -5.529928
vertex -268.890137 -127.983994 -5.529928
vertex -268.735291 -126.488991 -5.903753
endloop
endfacet
facet normal 0.923877 0.000000 0.382689
outer loop
vertex -268.735291 -126.488991 -5.903753
vertex -268.890137 -127.983994 -5.529928
vertex -268.735291 -127.983994 -5.903753
endloop
endfacet
facet normal 0.793334 0.000000 0.608787
outer loop
vertex -268.735291 -126.488991 -5.903753
vertex -268.735291 -127.983994 -5.903753
vertex -268.488953 -126.488991 -6.224768
endloop
endfacet
facet normal 0.793337 0.000000 0.608783
outer loop
vertex -268.488953 -126.488991 -6.224768
vertex -268.735291 -127.983994 -5.903753
vertex -268.488953 -127.983994 -6.224768
endloop
endfacet
facet normal -0.707111 0.000000 -0.707103
outer loop
vertex -263.892944 -127.983994 -6.436728
vertex -266.296936 -127.983994 -4.032736
vertex -263.892944 -126.488991 -6.436728
endloop
endfacet
facet normal -0.707105 0.000000 -0.707109
outer loop
vertex -263.892944 -126.488991 -6.436728
vertex -266.296936 -127.983994 -4.032736
vertex -266.296936 -126.488991 -4.032736
endloop
endfacet
facet normal 0.000000 -1.000000 0.000002
outer loop
vertex -259.296936 -126.488991 -6.224768
vertex -263.892944 -126.488991 -6.436728
vertex -262.796936 -126.488991 -9.724768
endloop
endfacet
facet normal 0.000000 -1.000000 0.000000
outer loop
vertex -262.796936 -126.488991 -9.724768
vertex -263.892944 -126.488991 -6.436728
vertex -264.988953 -126.488991 -9.724768
endloop
endfacet
facet normal 0.000000 -1.000000 0.000057
outer loop
vertex -262.796936 -126.488991 -9.724768
vertex -264.988953 -126.488991 -9.724768
vertex -263.117950 -126.488991 -9.971090
endloop
endfacet
facet normal 0.000000 -1.000000 0.000040
outer loop
vertex -263.117950 -126.488991 -9.971090
vertex -264.988953 -126.488991 -9.724768
vertex -264.667938 -126.488991 -9.971090
endloop
endfacet
facet normal 0.000000 -1.000000 -0.000127
outer loop
vertex -263.117950 -126.488991 -9.971090
vertex -264.667938 -126.488991 -9.971090
vertex -263.491791 -126.488991 -10.125937
endloop
endfacet
facet normal 0.000000 -1.000000 0.000061
outer loop
vertex -263.491791 -126.488991 -10.125937
vertex -264.667938 -126.488991 -9.971090
vertex -264.294128 -126.488991 -10.125937
endloop
endfacet
facet normal 0.000000 -1.000000 0.000000
outer loop
vertex -263.491791 -126.488991 -10.125937
vertex -264.294128 -126.488991 -10.125937
vertex -263.892944 -126.488991 -10.178762
endloop
endfacet
facet normal 0.000000 -1.000000 -0.000006
outer loop
vertex -263.892944 -126.488991 -6.436728
vertex -259.296936 -126.488991 -6.224768
vertex -261.488953 -126.488991 -4.032736
endloop
endfacet
facet normal 0.000000 -1.000000 0.000006
outer loop
vertex -261.488953 -126.488991 -4.032736
vertex -259.296936 -126.488991 -6.224768
vertex -259.050598 -126.488991 -5.903753
endloop
endfacet
facet normal 0.000000 -1.000000 -0.000044
outer loop
vertex -261.488953 -126.488991 -4.032736
vertex -259.050598 -126.488991 -5.903753
vertex -258.895752 -126.488991 -5.529928
endloop
endfacet
facet normal 0.000000 -1.000000 0.000055
outer loop
vertex -258.895752 -126.488991 -5.529928
vertex -258.842957 -126.488991 -5.128759
vertex -261.488953 -126.488991 -4.032736
endloop
endfacet
facet normal 0.000000 -1.000000 -0.000058
outer loop
vertex -261.488953 -126.488991 -4.032736
vertex -258.842957 -126.488991 -5.128759
vertex -258.895752 -126.488991 -4.727591
endloop
endfacet
facet normal 0.000000 -1.000000 0.000062
outer loop
vertex -261.488953 -126.488991 -4.032736
vertex -258.895752 -126.488991 -4.727591
vertex -259.050598 -126.488991 -4.353765
endloop
endfacet
facet normal 0.000000 -1.000000 0.000000
outer loop
vertex -259.050598 -126.488991 -4.353765
vertex -259.296936 -126.488991 -4.032736
vertex -261.488953 -126.488991 -4.032736
endloop
endfacet
facet normal 0.000000 -1.000000 -0.000057
outer loop
vertex -261.488953 -126.488991 -4.032736
vertex -259.296936 -126.488991 -4.032736
vertex -261.167938 -126.488991 -3.786413
endloop
endfacet
facet normal 0.000000 -1.000000 -0.000040
outer loop
vertex -261.167938 -126.488991 -3.786413
vertex -259.296936 -126.488991 -4.032736
vertex -259.617950 -126.488991 -3.786413
endloop
endfacet
facet normal 0.000000 -1.000000 0.000127
outer loop
vertex -261.167938 -126.488991 -3.786413
vertex -259.617950 -126.488991 -3.786413
vertex -260.794128 -126.488991 -3.631567
endloop
endfacet
facet normal 0.000000 -1.000000 -0.000061
outer loop
vertex -260.794128 -126.488991 -3.631567
vertex -259.617950 -126.488991 -3.786413
vertex -259.991791 -126.488991 -3.631567
endloop
endfacet
facet normal 0.000000 -1.000000 0.000000
outer loop
vertex -260.794128 -126.488991 -3.631567
vertex -259.991791 -126.488991 -3.631567
vertex -260.392944 -126.488991 -3.578756
endloop
endfacet
facet normal 0.000000 -1.000000 0.000000
outer loop
vertex -264.988953 -126.488991 -9.724768
vertex -263.892944 -126.488991 -6.436728
vertex -268.488953 -126.488991 -6.224768
endloop
endfacet
facet normal 0.000000 -1.000000 -0.000006
outer loop
vertex -268.488953 -126.488991 -6.224768
vertex -263.892944 -126.488991 -6.436728
vertex -266.296936 -126.488991 -4.032736
endloop
endfacet
facet normal 0.000000 -1.000000 0.000000
outer loop
vertex -268.488953 -126.488991 -6.224768
vertex -266.296936 -126.488991 -4.032736
vertex -268.735291 -126.488991 -5.903753
endloop
endfacet
facet normal 0.000000 -1.000000 -0.000051
outer loop
vertex -268.735291 -126.488991 -5.903753
vertex -266.296936 -126.488991 -4.032736
vertex -268.890137 -126.488991 -5.529928
endloop
endfacet
facet normal 0.000000 -1.000000 0.000000
outer loop
vertex -268.890137 -126.488991 -5.529928
vertex -266.296936 -126.488991 -4.032736
vertex -268.942963 -126.488991 -5.128759
endloop
endfacet
facet normal 0.000000 -1.000000 0.000000
outer loop
vertex -268.942963 -126.488991 -5.128759
vertex -266.296936 -126.488991 -4.032736
vertex -268.890137 -126.488991 -4.727591
endloop
endfacet
facet normal 0.000000 -1.000000 0.000071
outer loop
vertex -268.890137 -126.488991 -4.727591
vertex -266.296936 -126.488991 -4.032736
vertex -268.735291 -126.488991 -4.353765
endloop
endfacet
facet normal 0.000000 -1.000000 0.000000
outer loop
vertex -268.735291 -126.488991 -4.353765
vertex -266.296936 -126.488991 -4.032736
vertex -268.488953 -126.488991 -4.032736
endloop
endfacet
facet normal 0.000000 -1.000000 -0.000057
outer loop
vertex -268.488953 -126.488991 -4.032736
vertex -266.296936 -126.488991 -4.032736
vertex -268.167938 -126.488991 -3.786413
endloop
endfacet
facet normal 0.000000 -1.000000 -0.000040
outer loop
vertex -268.167938 -126.488991 -3.786413
vertex -266.296936 -126.488991 -4.032736
vertex -266.617950 -126.488991 -3.786413
endloop
endfacet
facet normal 0.000000 -1.000000 0.000127
outer loop
vertex -268.167938 -126.488991 -3.786413
vertex -266.617950 -126.488991 -3.786413
vertex -267.794128 -126.488991 -3.631567
endloop
endfacet
facet normal 0.000000 -1.000000 -0.000061
outer loop
vertex -267.794128 -126.488991 -3.631567
vertex -266.617950 -126.488991 -3.786413
vertex -266.991791 -126.488991 -3.631567
endloop
endfacet
facet normal 0.000000 -1.000000 0.000000
outer loop
vertex -267.794128 -126.488991 -3.631567
vertex -266.991791 -126.488991 -3.631567
vertex -267.392944 -126.488991 -3.578756
endloop
endfacet
facet normal -0.997413 0.000000 0.071886
outer loop
vertex -272.978912 -123.993988 0.457209
vertex -274.322052 -123.993988 -18.178762
vertex -272.978912 -127.983994 0.457209
endloop
endfacet
facet normal -0.997413 0.000000 0.071886
outer loop
vertex -272.978912 -127.983994 0.457209
vertex -274.322052 -123.993988 -18.178762
vertex -274.322052 -127.983994 -18.178762
endloop
endfacet
facet normal -0.232865 0.000000 0.972509
outer loop
vertex -263.888885 -123.993988 2.633799
vertex -272.978912 -123.993988 0.457209
vertex -263.888885 -127.983994 2.633799
endloop
endfacet
facet normal -0.232865 0.000000 0.972509
outer loop
vertex -263.888885 -127.983994 2.633799
vertex -272.978912 -123.993988 0.457209
vertex -272.978912 -127.983994 0.457209
endloop
endfacet
facet normal 0.233063 0.000000 0.972462
outer loop
vertex -254.806992 -123.993988 0.457209
vertex -263.888885 -123.993988 2.633799
vertex -254.806992 -127.983994 0.457209
endloop
endfacet
facet normal 0.233063 0.000000 0.972462
outer loop
vertex -254.806992 -127.983994 0.457209
vertex -263.888885 -123.993988 2.633799
vertex -263.888885 -127.983994 2.633799
endloop
endfacet
facet normal 0.997413 0.000000 0.071887
outer loop
vertex -253.463837 -123.993988 -18.178762
vertex -254.806992 -123.993988 0.457209
vertex -253.463837 -127.983994 -18.178762
endloop
endfacet
facet normal 0.997413 0.000000 0.071887
outer loop
vertex -253.463837 -127.983994 -18.178762
vertex -254.806992 -123.993988 0.457209
vertex -254.806992 -127.983994 0.457209
endloop
endfacet
facet normal 0.000000 0.000000 -1.000000
outer loop
vertex -274.322052 -123.993988 -18.178762
vertex -253.463837 -123.993988 -18.178762
vertex -274.322052 -127.983994 -18.178762
endloop
endfacet
facet normal 0.000000 0.000000 -1.000000
outer loop
vertex -274.322052 -127.983994 -18.178762
vertex -253.463837 -123.993988 -18.178762
vertex -253.463837 -127.983994 -18.178762
endloop
endfacet
facet normal 0.000000 -1.000000 0.000000
outer loop
vertex -259.296936 -127.983994 -6.224768
vertex -262.796936 -127.983994 -9.724768
vertex -253.463837 -127.983994 -18.178762
endloop
endfacet
facet normal 0.000000 -1.000000 0.000005
outer loop
vertex -253.463837 -127.983994 -18.178762
vertex -262.796936 -127.983994 -9.724768
vertex -263.117950 -127.983994 -9.971090
endloop
endfacet
facet normal 0.000000 -1.000000 0.000002
outer loop
vertex -253.463837 -127.983994 -18.178762
vertex -263.117950 -127.983994 -9.971090
vertex -263.491791 -127.983994 -10.125937
endloop
endfacet
facet normal 0.000000 -1.000000 0.000000
outer loop
vertex -263.491791 -127.983994 -10.125937
vertex -263.892944 -127.983994 -10.178762
vertex -253.463837 -127.983994 -18.178762
endloop
endfacet
facet normal 0.000000 -1.000000 0.000000
outer loop
vertex -253.463837 -127.983994 -18.178762
vertex -263.892944 -127.983994 -10.178762
vertex -274.322052 -127.983994 -18.178762
endloop
endfacet
facet normal 0.000000 -1.000000 -0.000026
outer loop
vertex -274.322052 -127.983994 -18.178762
vertex -263.892944 -127.983994 -10.178762
vertex -264.294128 -127.983994 -10.125937
endloop
endfacet
facet normal 0.000000 -1.000000 0.000002
outer loop
vertex -274.322052 -127.983994 -18.178762
vertex -264.294128 -127.983994 -10.125937
vertex -264.667938 -127.983994 -9.971090
endloop
endfacet
facet normal 0.000000 -1.000000 0.000000
outer loop
vertex -264.667938 -127.983994 -9.971090
vertex -264.988953 -127.983994 -9.724768
vertex -274.322052 -127.983994 -18.178762
endloop
endfacet
facet normal 0.000000 -1.000000 0.000000
outer loop
vertex -274.322052 -127.983994 -18.178762
vertex -264.988953 -127.983994 -9.724768
vertex -268.488953 -127.983994 -6.224768
endloop
endfacet
facet normal 0.000000 -1.000000 -0.000010
outer loop
vertex -274.322052 -127.983994 -18.178762
vertex -268.488953 -127.983994 -6.224768
vertex -268.735291 -127.983994 -5.903753
endloop
endfacet
facet normal 0.000000 -1.000000 0.000031
outer loop
vertex -268.735291 -127.983994 -5.903753
vertex -268.890137 -127.983994 -5.529928
vertex -274.322052 -127.983994 -18.178762
endloop
endfacet
facet normal 0.000000 -1.000000 -0.000001
outer loop
vertex -274.322052 -127.983994 -18.178762
vertex -268.890137 -127.983994 -5.529928
vertex -272.978912 -127.983994 0.457209
endloop
endfacet
facet normal 0.000000 -1.000000 -0.000014
outer loop
vertex -272.978912 -127.983994 0.457209
vertex -268.890137 -127.983994 -5.529928
vertex -268.942963 -127.983994 -5.128759
endloop
endfacet
facet normal 0.000000 -1.000000 0.000009
outer loop
vertex -272.978912 -127.983994 0.457209
vertex -268.942963 -127.983994 -5.128759
vertex -268.890137 -127.983994 -4.727591
endloop
endfacet
facet normal 0.000000 -1.000000 0.000000
outer loop
vertex -268.890137 -127.983994 -4.727591
vertex -268.735291 -127.983994 -4.353765
vertex -272.978912 -127.983994 0.457209
endloop
endfacet
facet normal 0.000000 -1.000000 -0.000028
outer loop
vertex -272.978912 -127.983994 0.457209
vertex -268.735291 -127.983994 -4.353765
vertex -268.488953 -127.983994 -4.032736
endloop
endfacet
facet normal 0.000000 -1.000000 0.000039
outer loop
vertex -272.978912 -127.983994 0.457209
vertex -268.488953 -127.983994 -4.032736
vertex -268.167938 -127.983994 -3.786413
endloop
endfacet
facet normal 0.000000 -1.000000 0.000000
outer loop
vertex -268.167938 -127.983994 -3.786413
vertex -267.794128 -127.983994 -3.631567
vertex -272.978912 -127.983994 0.457209
endloop
endfacet
facet normal 0.000000 -1.000000 0.000000
outer loop
vertex -272.978912 -127.983994 0.457209
vertex -267.794128 -127.983994 -3.631567
vertex -263.888885 -127.983994 2.633799
endloop
endfacet
facet normal 0.000000 -1.000000 -0.000010
outer loop
vertex -263.888885 -127.983994 2.633799
vertex -267.794128 -127.983994 -3.631567
vertex -267.392944 -127.983994 -3.578756
endloop
endfacet
facet normal 0.000000 -1.000000 0.000014
outer loop
vertex -263.888885 -127.983994 2.633799
vertex -267.392944 -127.983994 -3.578756
vertex -266.991791 -127.983994 -3.631567
endloop
endfacet
facet normal 0.000000 -1.000000 0.000000
outer loop
vertex -266.991791 -127.983994 -3.631567
vertex -266.617950 -127.983994 -3.786413
vertex -263.888885 -127.983994 2.633799
endloop
endfacet
facet normal 0.000000 -1.000000 -0.000008
outer loop
vertex -263.888885 -127.983994 2.633799
vertex -266.617950 -127.983994 -3.786413
vertex -266.296936 -127.983994 -4.032736
endloop
endfacet
facet normal 0.000000 -1.000000 0.000000
outer loop
vertex -263.888885 -127.983994 2.633799
vertex -266.296936 -127.983994 -4.032736
vertex -261.488953 -127.983994 -4.032736
endloop
endfacet
facet normal 0.000000 -1.000000 0.000000
outer loop
vertex -261.488953 -127.983994 -4.032736
vertex -266.296936 -127.983994 -4.032736
vertex -263.892944 -127.983994 -6.436728
endloop
endfacet
facet normal 0.000000 -1.000000 0.000000
outer loop
vertex -261.488953 -127.983994 -4.032736
vertex -261.167938 -127.983994 -3.786413
vertex -263.888885 -127.983994 2.633799
endloop
endfacet
facet normal 0.000000 -1.000000 -0.000003
outer loop
vertex -263.888885 -127.983994 2.633799
vertex -261.167938 -127.983994 -3.786413
vertex -260.794128 -127.983994 -3.631567
endloop
endfacet
facet normal 0.000000 -1.000000 0.000014
outer loop
vertex -263.888885 -127.983994 2.633799
vertex -260.794128 -127.983994 -3.631567
vertex -260.392944 -127.983994 -3.578756
endloop
endfacet
facet normal 0.000000 -1.000000 0.000000
outer loop
vertex -260.392944 -127.983994 -3.578756
vertex -259.991791 -127.983994 -3.631567
vertex -263.888885 -127.983994 2.633799
endloop
endfacet
facet normal 0.000000 -1.000000 0.000000
outer loop
vertex -263.888885 -127.983994 2.633799
vertex -259.991791 -127.983994 -3.631567
vertex -254.806992 -127.983994 0.457209
endloop
endfacet
facet normal 0.000000 -1.000000 -0.000003
outer loop
vertex -254.806992 -127.983994 0.457209
vertex -259.991791 -127.983994 -3.631567
vertex -259.617950 -127.983994 -3.786413
endloop
endfacet
facet normal 0.000000 -1.000000 0.000039
outer loop
vertex -254.806992 -127.983994 0.457209
vertex -259.617950 -127.983994 -3.786413
vertex -259.296936 -127.983994 -4.032736
endloop
endfacet
facet normal 0.000000 -1.000000 -0.000048
outer loop
vertex -259.296936 -127.983994 -4.032736
vertex -259.050598 -127.983994 -4.353765
vertex -254.806992 -127.983994 0.457209
endloop
endfacet
facet normal 0.000000 -1.000000 0.000021
outer loop
vertex -254.806992 -127.983994 0.457209
vertex -259.050598 -127.983994 -4.353765
vertex -258.895752 -127.983994 -4.727591
endloop
endfacet
facet normal 0.000000 -1.000000 0.000010
outer loop
vertex -254.806992 -127.983994 0.457209
vertex -258.895752 -127.983994 -4.727591
vertex -258.842957 -127.983994 -5.128759
endloop
endfacet
facet normal 0.000000 -1.000000 0.000000
outer loop
vertex -258.842957 -127.983994 -5.128759
vertex -258.895752 -127.983994 -5.529928
vertex -254.806992 -127.983994 0.457209
endloop
endfacet
facet normal 0.000000 -1.000000 -0.000001
outer loop
vertex -254.806992 -127.983994 0.457209
vertex -258.895752 -127.983994 -5.529928
vertex -253.463837 -127.983994 -18.178762
endloop
endfacet
facet normal 0.000000 -1.000000 0.000018
outer loop
vertex -253.463837 -127.983994 -18.178762
vertex -258.895752 -127.983994 -5.529928
vertex -259.050598 -127.983994 -5.903753
endloop
endfacet
facet normal 0.000000 -1.000000 -0.000010
outer loop
vertex -253.463837 -127.983994 -18.178762
vertex -259.050598 -127.983994 -5.903753
vertex -259.296936 -127.983994 -6.224768
endloop
endfacet
facet normal 0.000000 1.000000 0.000000
outer loop
vertex -268.488953 -123.993988 -6.224768
vertex -264.988953 -123.993988 -9.724768
vertex -274.322052 -123.993988 -18.178762
endloop
endfacet
facet normal 0.000000 1.000000 -0.000040
outer loop
vertex -274.322052 -123.993988 -18.178762
vertex -264.988953 -123.993988 -9.724768
vertex -264.667938 -123.993988 -9.971090
endloop
endfacet
facet normal 0.000000 1.000000 0.000032
outer loop
vertex -274.322052 -123.993988 -18.178762
vertex -264.667938 -123.993988 -9.971090
vertex -264.294128 -123.993988 -10.125937
endloop
endfacet
facet normal 0.000000 1.000000 0.000000
outer loop
vertex -264.294128 -123.993988 -10.125937
vertex -263.892944 -123.993988 -10.178762
vertex -274.322052 -123.993988 -18.178762
endloop
endfacet
facet normal 0.000000 1.000000 0.000000
outer loop
vertex -274.322052 -123.993988 -18.178762
vertex -263.892944 -123.993988 -10.178762
vertex -253.463837 -123.993988 -18.178762
endloop
endfacet
facet normal 0.000000 1.000000 0.000016
outer loop
vertex -253.463837 -123.993988 -18.178762
vertex -263.892944 -123.993988 -10.178762
vertex -263.491791 -123.993988 -10.125937
endloop
endfacet
facet normal 0.000000 1.000000 0.000032
outer loop
vertex -253.463837 -123.993988 -18.178762
vertex -263.491791 -123.993988 -10.125937
vertex -263.117950 -123.993988 -9.971090
endloop
endfacet
facet normal 0.000000 1.000000 -0.000049
outer loop
vertex -263.117950 -123.993988 -9.971090
vertex -262.796936 -123.993988 -9.724768
vertex -253.463837 -123.993988 -18.178762
endloop
endfacet
facet normal 0.000000 1.000000 0.000000
outer loop
vertex -253.463837 -123.993988 -18.178762
vertex -262.796936 -123.993988 -9.724768
vertex -259.296936 -123.993988 -6.224768
endloop
endfacet
facet normal 0.000000 1.000000 0.000019
outer loop
vertex -253.463837 -123.993988 -18.178762
vertex -259.296936 -123.993988 -6.224768
vertex -259.050598 -123.993988 -5.903753
endloop
endfacet
facet normal 0.000000 1.000000 0.000000
outer loop
vertex -259.050598 -123.993988 -5.903753
vertex -258.895752 -123.993988 -5.529928
vertex -253.463837 -123.993988 -18.178762
endloop
endfacet
facet normal 0.000000 1.000000 0.000001
outer loop
vertex -253.463837 -123.993988 -18.178762
vertex -258.895752 -123.993988 -5.529928
vertex -254.806992 -123.993988 0.457209
endloop
endfacet
facet normal 0.000000 1.000000 -0.000019
outer loop
vertex -254.806992 -123.993988 0.457209
vertex -258.895752 -123.993988 -5.529928
vertex -258.842957 -123.993988 -5.128759
endloop
endfacet
facet normal 0.000000 1.000000 0.000013
outer loop
vertex -254.806992 -123.993988 0.457209
vertex -258.842957 -123.993988 -5.128759
vertex -258.895752 -123.993988 -4.727591
endloop
endfacet
facet normal 0.000000 1.000000 0.000000
outer loop
vertex -258.895752 -123.993988 -4.727591
vertex -259.050598 -123.993988 -4.353765
vertex -254.806992 -123.993988 0.457209
endloop
endfacet
facet normal 0.000000 1.000000 0.000012
outer loop
vertex -254.806992 -123.993988 0.457209
vertex -259.050598 -123.993988 -4.353765
vertex -259.296936 -123.993988 -4.032736
endloop
endfacet
facet normal 0.000000 1.000000 -0.000018
outer loop
vertex -254.806992 -123.993988 0.457209
vertex -259.296936 -123.993988 -4.032736
vertex -259.617950 -123.993988 -3.786413
endloop
endfacet
facet normal 0.000000 1.000000 0.000000
outer loop
vertex -259.617950 -123.993988 -3.786413
vertex -259.991791 -123.993988 -3.631567
vertex -254.806992 -123.993988 0.457209
endloop
endfacet
facet normal 0.000000 1.000000 0.000000
outer loop
vertex -254.806992 -123.993988 0.457209
vertex -259.991791 -123.993988 -3.631567
vertex -263.888885 -123.993988 2.633799
endloop
endfacet
facet normal 0.000000 1.000000 0.000000
outer loop
vertex -263.888885 -123.993988 2.633799
vertex -259.991791 -123.993988 -3.631567
vertex -260.392944 -123.993988 -3.578756
endloop
endfacet
facet normal 0.000000 1.000000 0.000000
outer loop
vertex -263.888885 -123.993988 2.633799
vertex -260.392944 -123.993988 -3.578756
vertex -260.794128 -123.993988 -3.631567
endloop
endfacet
facet normal 0.000000 1.000000 0.000000
outer loop
vertex -260.794128 -123.993988 -3.631567
vertex -261.167938 -123.993988 -3.786413
vertex -263.888885 -123.993988 2.633799
endloop
endfacet
facet normal 0.000000 1.000000 0.000006
outer loop
vertex -263.888885 -123.993988 2.633799
vertex -261.167938 -123.993988 -3.786413
vertex -261.488953 -123.993988 -4.032736
endloop
endfacet
facet normal 0.000000 1.000000 0.000000
outer loop
vertex -263.888885 -123.993988 2.633799
vertex -261.488953 -123.993988 -4.032736
vertex -266.296936 -123.993988 -4.032736
endloop
endfacet
facet normal 0.000000 1.000000 0.000000
outer loop
vertex -266.296936 -123.993988 -4.032736
vertex -261.488953 -123.993988 -4.032736
vertex -263.892944 -123.993988 -6.436728
endloop
endfacet
facet normal 0.000000 1.000000 -0.000022
outer loop
vertex -266.296936 -123.993988 -4.032736
vertex -266.617950 -123.993988 -3.786413
vertex -263.888885 -123.993988 2.633799
endloop
endfacet
facet normal 0.000000 1.000000 0.000014
outer loop
vertex -263.888885 -123.993988 2.633799
vertex -266.617950 -123.993988 -3.786413
vertex -266.991791 -123.993988 -3.631567
endloop
endfacet
facet normal 0.000000 1.000000 0.000000
outer loop
vertex -263.888885 -123.993988 2.633799
vertex -266.991791 -123.993988 -3.631567
vertex -267.392944 -123.993988 -3.578756
endloop
endfacet
facet normal 0.000000 1.000000 0.000000
outer loop
vertex -267.392944 -123.993988 -3.578756
vertex -267.794128 -123.993988 -3.631567
vertex -263.888885 -123.993988 2.633799
endloop
endfacet
facet normal 0.000000 1.000000 -0.000003
outer loop
vertex -263.888885 -123.993988 2.633799
vertex -267.794128 -123.993988 -3.631567
vertex -272.978912 -123.993988 0.457209
endloop
endfacet
facet normal 0.000000 1.000000 -0.000010
outer loop
vertex -272.978912 -123.993988 0.457209
vertex -267.794128 -123.993988 -3.631567
vertex -268.167938 -123.993988 -3.786413
endloop
endfacet
facet normal 0.000000 1.000000 -0.000018
outer loop
vertex -272.978912 -123.993988 0.457209
vertex -268.167938 -123.993988 -3.786413
vertex -268.488953 -123.993988 -4.032736
endloop
endfacet
facet normal 0.000000 1.000000 0.000000
outer loop
vertex -268.488953 -123.993988 -4.032736
vertex -268.735291 -123.993988 -4.353765
vertex -272.978912 -123.993988 0.457209
endloop
endfacet
facet normal 0.000000 1.000000 -0.000013
outer loop
vertex -272.978912 -123.993988 0.457209
vertex -268.735291 -123.993988 -4.353765
vertex -268.890137 -123.993988 -4.727591
endloop
endfacet
facet normal 0.000000 1.000000 0.000013
outer loop
vertex -272.978912 -123.993988 0.457209
vertex -268.890137 -123.993988 -4.727591
vertex -268.942963 -123.993988 -5.128759
endloop
endfacet
facet normal 0.000000 1.000000 0.000000
outer loop
vertex -268.942963 -123.993988 -5.128759
vertex -268.890137 -123.993988 -5.529928
vertex -272.978912 -123.993988 0.457209
endloop
endfacet
facet normal 0.000000 1.000000 0.000000
outer loop
vertex -272.978912 -123.993988 0.457209
vertex -268.890137 -123.993988 -5.529928
vertex -274.322052 -123.993988 -18.178762
endloop
endfacet
facet normal 0.000000 1.000000 -0.000008
outer loop
vertex -274.322052 -123.993988 -18.178762
vertex -268.890137 -123.993988 -5.529928
vertex -268.735291 -123.993988 -5.903753
endloop
endfacet
facet normal 0.000000 1.000000 0.000019
outer loop
vertex -274.322052 -123.993988 -18.178762
vertex -268.735291 -123.993988 -5.903753
vertex -268.488953 -123.993988 -6.224768
endloop
endfacet
endsolid ShogiChessCncAndPLA v2.025
