solid ShogiChessCncAndPLA v2.028
facet normal -1.000000 0.000000 0.000000
outer loop
vertex -51.231850 -123.993988 19.482355
vertex -51.231850 -123.993988 12.482500
vertex -51.231850 -125.488991 19.482355
endloop
endfacet
facet normal -1.000000 0.000000 0.000000
outer loop
vertex -51.231850 -125.488991 19.482355
vertex -51.231850 -123.993988 12.482500
vertex -51.231850 -125.488991 12.482500
endloop
endfacet
facet normal 0.000000 1.000000 0.000000
outer loop
vertex -51.231850 -125.488991 19.482355
vertex -52.781811 -125.488991 10.932352
vertex -54.331848 -125.488991 19.482355
endloop
endfacet
facet normal 0.000000 1.000000 0.000000
outer loop
vertex -54.331848 -125.488991 19.482355
vertex -52.781811 -125.488991 10.932352
vertex -53.182999 -125.488991 10.985163
endloop
endfacet
facet normal 0.000000 1.000000 0.000000
outer loop
vertex -54.331848 -125.488991 19.482355
vertex -53.182999 -125.488991 10.985163
vertex -54.331848 -125.488991 12.482424
endloop
endfacet
facet normal 0.000000 1.000000 0.000040
outer loop
vertex -54.331848 -125.488991 12.482424
vertex -53.182999 -125.488991 10.985163
vertex -53.556847 -125.488991 11.140017
endloop
endfacet
facet normal 0.000000 1.000000 -0.000032
outer loop
vertex -54.331848 -125.488991 12.482424
vertex -53.556847 -125.488991 11.140017
vertex -53.877876 -125.488991 11.386347
endloop
endfacet
facet normal 0.000000 1.000000 0.000000
outer loop
vertex -52.781811 -125.488991 10.932352
vertex -51.231850 -125.488991 19.482355
vertex -52.380627 -125.488991 10.985178
endloop
endfacet
facet normal 0.000000 1.000000 0.000000
outer loop
vertex -52.380627 -125.488991 10.985178
vertex -51.231850 -125.488991 19.482355
vertex -51.231850 -125.488991 12.482500
endloop
endfacet
facet normal 0.000000 1.000000 0.000040
outer loop
vertex -52.380627 -125.488991 10.985178
vertex -51.231850 -125.488991 12.482500
vertex -52.006786 -125.488991 11.140047
endloop
endfacet
facet normal 0.000000 1.000000 0.000032
outer loop
vertex -52.006786 -125.488991 11.140047
vertex -51.231850 -125.488991 12.482500
vertex -51.685768 -125.488991 11.386400
endloop
endfacet
facet normal 0.000000 1.000000 0.000000
outer loop
vertex -51.685768 -125.488991 11.386400
vertex -51.231850 -125.488991 12.482500
vertex -51.439453 -125.488991 11.707445
endloop
endfacet
facet normal 0.000000 1.000000 0.000068
outer loop
vertex -51.439453 -125.488991 11.707445
vertex -51.231850 -125.488991 12.482500
vertex -51.284630 -125.488991 12.081308
endloop
endfacet
facet normal 0.000000 1.000000 0.000031
outer loop
vertex -53.877876 -125.488991 11.386347
vertex -54.124207 -125.488991 11.707384
vertex -54.331848 -125.488991 12.482424
endloop
endfacet
facet normal 0.000000 1.000000 0.000000
outer loop
vertex -54.331848 -125.488991 12.482424
vertex -54.124207 -125.488991 11.707384
vertex -54.279045 -125.488991 12.081232
endloop
endfacet
facet normal -0.991457 0.000000 0.130434
outer loop
vertex -51.231850 -125.488991 12.482500
vertex -51.231850 -123.993988 12.482500
vertex -51.284630 -125.488991 12.081308
endloop
endfacet
facet normal -0.991457 0.000000 0.130433
outer loop
vertex -51.284630 -125.488991 12.081308
vertex -51.231850 -123.993988 12.482500
vertex -51.284630 -123.993988 12.081308
endloop
endfacet
facet normal -0.923911 0.000000 0.382607
outer loop
vertex -51.284630 -125.488991 12.081308
vertex -51.284630 -123.993988 12.081308
vertex -51.439453 -125.488991 11.707445
endloop
endfacet
facet normal -0.923911 0.000000 0.382607
outer loop
vertex -51.439453 -125.488991 11.707445
vertex -51.284630 -123.993988 12.081308
vertex -51.439453 -123.993988 11.707445
endloop
endfacet
facet normal -0.793388 0.000000 0.608717
outer loop
vertex -51.439453 -125.488991 11.707445
vertex -51.439453 -123.993988 11.707445
vertex -51.685768 -125.488991 11.386400
endloop
endfacet
facet normal -0.793396 0.000000 0.608706
outer loop
vertex -51.685768 -125.488991 11.386400
vertex -51.439453 -123.993988 11.707445
vertex -51.685768 -123.993988 11.386400
endloop
endfacet
facet normal -0.608800 0.000000 0.793324
outer loop
vertex -51.685768 -125.488991 11.386400
vertex -51.685768 -123.993988 11.386400
vertex -52.006786 -125.488991 11.140047
endloop
endfacet
facet normal -0.608806 0.000000 0.793319
outer loop
vertex -52.006786 -125.488991 11.140047
vertex -51.685768 -123.993988 11.386400
vertex -52.006786 -123.993988 11.140047
endloop
endfacet
facet normal -0.382730 0.000000 0.923860
outer loop
vertex -52.006786 -125.488991 11.140047
vertex -52.006786 -123.993988 11.140047
vertex -52.380627 -125.488991 10.985178
endloop
endfacet
facet normal -0.382724 0.000000 0.923863
outer loop
vertex -52.380627 -125.488991 10.985178
vertex -52.006786 -123.993988 11.140047
vertex -52.380627 -123.993988 10.985178
endloop
endfacet
facet normal -0.130544 0.000000 0.991443
outer loop
vertex -52.380627 -125.488991 10.985178
vertex -52.380627 -123.993988 10.985178
vertex -52.781811 -125.488991 10.932352
endloop
endfacet
facet normal -0.130550 0.000000 0.991442
outer loop
vertex -52.781811 -125.488991 10.932352
vertex -52.380627 -123.993988 10.985178
vertex -52.781811 -123.993988 10.932352
endloop
endfacet
facet normal 0.130509 0.000000 0.991447
outer loop
vertex -52.781811 -125.488991 10.932352
vertex -52.781811 -123.993988 10.932352
vertex -53.182999 -125.488991 10.985163
endloop
endfacet
facet normal 0.130506 0.000000 0.991447
outer loop
vertex -53.182999 -125.488991 10.985163
vertex -52.781811 -123.993988 10.932352
vertex -53.182999 -123.993988 10.985163
endloop
endfacet
facet normal 0.382688 0.000000 0.923878
outer loop
vertex -53.182999 -125.488991 10.985163
vertex -53.182999 -123.993988 10.985163
vertex -53.556847 -125.488991 11.140017
endloop
endfacet
facet normal 0.382687 0.000000 0.923878
outer loop
vertex -53.556847 -125.488991 11.140017
vertex -53.182999 -123.993988 10.985163
vertex -53.556847 -123.993988 11.140017
endloop
endfacet
facet normal 0.608746 0.000000 0.793366
outer loop
vertex -53.556847 -125.488991 11.140017
vertex -53.556847 -123.993988 11.140017
vertex -53.877876 -125.488991 11.386347
endloop
endfacet
facet normal 0.608758 0.000000 0.793356
outer loop
vertex -53.877876 -125.488991 11.386347
vertex -53.556847 -123.993988 11.140017
vertex -53.877876 -123.993988 11.386347
endloop
endfacet
facet normal 0.793365 0.000000 0.608746
outer loop
vertex -53.877876 -125.488991 11.386347
vertex -53.877876 -123.993988 11.386347
vertex -54.124207 -125.488991 11.707384
endloop
endfacet
facet normal 0.793369 0.000000 0.608742
outer loop
vertex -54.124207 -125.488991 11.707384
vertex -53.877876 -123.993988 11.386347
vertex -54.124207 -123.993988 11.707384
endloop
endfacet
facet normal 0.923892 0.000000 0.382653
outer loop
vertex -54.124207 -125.488991 11.707384
vertex -54.124207 -123.993988 11.707384
vertex -54.279045 -125.488991 12.081232
endloop
endfacet
facet normal 0.923893 0.000000 0.382651
outer loop
vertex -54.279045 -125.488991 12.081232
vertex -54.124207 -123.993988 11.707384
vertex -54.279045 -123.993988 12.081232
endloop
endfacet
facet normal 0.991449 0.000000 0.130492
outer loop
vertex -54.279045 -125.488991 12.081232
vertex -54.279045 -123.993988 12.081232
vertex -54.331848 -125.488991 12.482424
endloop
endfacet
facet normal 0.991450 0.000000 0.130489
outer loop
vertex -54.331848 -125.488991 12.482424
vertex -54.279045 -123.993988 12.081232
vertex -54.331848 -123.993988 12.482424
endloop
endfacet
facet normal 1.000000 0.000000 0.000000
outer loop
vertex -54.331848 -123.993988 12.482424
vertex -54.331848 -123.993988 19.482355
vertex -54.331848 -125.488991 12.482424
endloop
endfacet
facet normal 1.000000 0.000000 0.000000
outer loop
vertex -54.331848 -125.488991 12.482424
vertex -54.331848 -123.993988 19.482355
vertex -54.331848 -125.488991 19.482355
endloop
endfacet
facet normal 0.000000 0.000000 1.000000
outer loop
vertex -51.231850 -123.993988 19.482355
vertex -51.231850 -125.488991 19.482355
vertex -49.281849 -123.993988 19.482355
endloop
endfacet
facet normal -0.000001 0.000000 1.000000
outer loop
vertex -49.281849 -123.993988 19.482355
vertex -51.231850 -125.488991 19.482355
vertex -49.281849 -127.983986 19.482355
endloop
endfacet
facet normal 0.000000 0.000000 1.000000
outer loop
vertex -49.281849 -127.983986 19.482355
vertex -51.231850 -125.488991 19.482355
vertex -54.331848 -125.488991 19.482355
endloop
endfacet
facet normal 0.000000 0.000000 1.000000
outer loop
vertex -49.281849 -127.983986 19.482355
vertex -54.331848 -125.488991 19.482355
vertex -56.281849 -127.983986 19.482355
endloop
endfacet
facet normal 0.000001 0.000000 1.000000
outer loop
vertex -56.281849 -127.983986 19.482355
vertex -54.331848 -125.488991 19.482355
vertex -56.281849 -123.993988 19.482355
endloop
endfacet
facet normal 0.000000 0.000000 1.000000
outer loop
vertex -56.281849 -123.993988 19.482355
vertex -54.331848 -125.488991 19.482355
vertex -54.331848 -123.993988 19.482355
endloop
endfacet
facet normal 0.991445 0.000000 0.130526
outer loop
vertex -54.279034 -127.983986 8.581186
vertex -54.279034 -126.488991 8.581186
vertex -54.331848 -127.983986 8.982355
endloop
endfacet
facet normal 0.991445 0.000000 0.130524
outer loop
vertex -54.331848 -127.983986 8.982355
vertex -54.279034 -126.488991 8.581186
vertex -54.331848 -126.488991 8.982355
endloop
endfacet
facet normal 0.991445 0.000000 -0.130526
outer loop
vertex -54.331848 -127.983986 8.982355
vertex -54.331848 -126.488991 8.982355
vertex -54.279034 -127.983986 9.383524
endloop
endfacet
facet normal 0.991445 0.000000 -0.130524
outer loop
vertex -54.279034 -127.983986 9.383524
vertex -54.331848 -126.488991 8.982355
vertex -54.279034 -126.488991 9.383524
endloop
endfacet
facet normal 0.923877 0.000000 -0.382690
outer loop
vertex -54.279034 -127.983986 9.383524
vertex -54.279034 -126.488991 9.383524
vertex -54.124187 -127.983986 9.757349
endloop
endfacet
facet normal 0.923877 0.000000 -0.382690
outer loop
vertex -54.124187 -127.983986 9.757349
vertex -54.279034 -126.488991 9.383524
vertex -54.124187 -126.488991 9.757349
endloop
endfacet
facet normal 0.793361 0.000000 -0.608752
outer loop
vertex -54.124187 -127.983986 9.757349
vertex -54.124187 -126.488991 9.757349
vertex -53.877865 -127.983986 10.078371
endloop
endfacet
facet normal 0.793361 0.000000 -0.608752
outer loop
vertex -53.877865 -127.983986 10.078371
vertex -54.124187 -126.488991 9.757349
vertex -53.877865 -126.488991 10.078371
endloop
endfacet
facet normal 0.608756 0.000000 -0.793358
outer loop
vertex -53.877865 -127.983986 10.078371
vertex -53.877865 -126.488991 10.078371
vertex -53.556847 -127.983986 10.324694
endloop
endfacet
facet normal 0.608758 0.000000 -0.793356
outer loop
vertex -53.556847 -127.983986 10.324694
vertex -53.877865 -126.488991 10.078371
vertex -53.556847 -126.488991 10.324694
endloop
endfacet
facet normal 0.382685 0.000000 -0.923879
outer loop
vertex -53.556847 -127.983986 10.324694
vertex -53.556847 -126.488991 10.324694
vertex -53.183018 -127.983986 10.479540
endloop
endfacet
facet normal 0.382686 0.000000 -0.923878
outer loop
vertex -53.183018 -127.983986 10.479540
vertex -53.556847 -126.488991 10.324694
vertex -53.183018 -126.488991 10.479540
endloop
endfacet
facet normal 0.130517 0.000000 -0.991446
outer loop
vertex -53.183018 -127.983986 10.479540
vertex -53.183018 -126.488991 10.479540
vertex -52.781849 -127.983986 10.532351
endloop
endfacet
facet normal 0.130514 0.000000 -0.991446
outer loop
vertex -52.781849 -127.983986 10.532351
vertex -53.183018 -126.488991 10.479540
vertex -52.781849 -126.488991 10.532351
endloop
endfacet
facet normal -0.130514 0.000000 -0.991446
outer loop
vertex -52.781849 -127.983986 10.532351
vertex -52.781849 -126.488991 10.532351
vertex -52.380680 -127.983986 10.479540
endloop
endfacet
facet normal -0.130517 0.000000 -0.991446
outer loop
vertex -52.380680 -127.983986 10.479540
vertex -52.781849 -126.488991 10.532351
vertex -52.380680 -126.488991 10.479540
endloop
endfacet
facet normal -0.382677 0.000000 -0.923882
outer loop
vertex -52.380680 -127.983986 10.479540
vertex -52.380680 -126.488991 10.479540
vertex -52.006847 -127.983986 10.324694
endloop
endfacet
facet normal -0.382685 0.000000 -0.923879
outer loop
vertex -52.006847 -127.983986 10.324694
vertex -52.380680 -126.488991 10.479540
vertex -52.006847 -126.488991 10.324694
endloop
endfacet
facet normal -0.608764 0.000000 -0.793351
outer loop
vertex -52.006847 -127.983986 10.324694
vertex -52.006847 -126.488991 10.324694
vertex -51.685833 -127.983986 10.078371
endloop
endfacet
facet normal -0.608762 0.000000 -0.793353
outer loop
vertex -51.685833 -127.983986 10.078371
vertex -52.006847 -126.488991 10.324694
vertex -51.685833 -126.488991 10.078371
endloop
endfacet
facet normal -0.793361 0.000000 -0.608752
outer loop
vertex -51.685833 -127.983986 10.078371
vertex -51.685833 -126.488991 10.078371
vertex -51.439510 -127.983986 9.757349
endloop
endfacet
facet normal -0.793361 0.000000 -0.608752
outer loop
vertex -51.439510 -127.983986 9.757349
vertex -51.685833 -126.488991 10.078371
vertex -51.439510 -126.488991 9.757349
endloop
endfacet
facet normal -0.923877 0.000000 -0.382690
outer loop
vertex -51.439510 -127.983986 9.757349
vertex -51.439510 -126.488991 9.757349
vertex -51.284664 -127.983986 9.383524
endloop
endfacet
facet normal -0.923877 0.000000 -0.382690
outer loop
vertex -51.284664 -127.983986 9.383524
vertex -51.439510 -126.488991 9.757349
vertex -51.284664 -126.488991 9.383524
endloop
endfacet
facet normal -0.991445 0.000000 -0.130526
outer loop
vertex -51.284664 -127.983986 9.383524
vertex -51.284664 -126.488991 9.383524
vertex -51.231850 -127.983986 8.982355
endloop
endfacet
facet normal -0.991445 0.000000 -0.130524
outer loop
vertex -51.231850 -127.983986 8.982355
vertex -51.284664 -126.488991 9.383524
vertex -51.231850 -126.488991 8.982355
endloop
endfacet
facet normal -0.991445 0.000000 0.130525
outer loop
vertex -51.231850 -127.983986 8.982355
vertex -51.231850 -126.488991 8.982355
vertex -51.284664 -127.983986 8.581186
endloop
endfacet
facet normal -0.991445 0.000000 0.130524
outer loop
vertex -51.284664 -127.983986 8.581186
vertex -51.231850 -126.488991 8.982355
vertex -51.284664 -126.488991 8.581186
endloop
endfacet
facet normal -0.923879 0.000000 0.382684
outer loop
vertex -51.284664 -127.983986 8.581186
vertex -51.284664 -126.488991 8.581186
vertex -51.439510 -127.983986 8.207354
endloop
endfacet
facet normal -0.923879 0.000000 0.382684
outer loop
vertex -51.439510 -127.983986 8.207354
vertex -51.284664 -126.488991 8.581186
vertex -51.439510 -126.488991 8.207354
endloop
endfacet
facet normal -0.793354 0.000000 0.608761
outer loop
vertex -51.439510 -127.983986 8.207354
vertex -51.439510 -126.488991 8.207354
vertex -51.685833 -127.983986 7.886339
endloop
endfacet
facet normal -0.793354 0.000000 0.608761
outer loop
vertex -51.685833 -127.983986 7.886339
vertex -51.439510 -126.488991 8.207354
vertex -51.685833 -126.488991 7.886339
endloop
endfacet
facet normal -0.608762 0.000000 0.793353
outer loop
vertex -51.685833 -127.983986 7.886339
vertex -51.685833 -126.488991 7.886339
vertex -52.006847 -127.983986 7.640017
endloop
endfacet
facet normal -0.608764 0.000000 0.793351
outer loop
vertex -52.006847 -127.983986 7.640017
vertex -51.685833 -126.488991 7.886339
vertex -52.006847 -126.488991 7.640017
endloop
endfacet
facet normal -0.382677 0.000000 0.923882
outer loop
vertex -52.006847 -127.983986 7.640017
vertex -52.006847 -126.488991 7.640017
vertex -52.380680 -127.983986 7.485170
endloop
endfacet
facet normal -0.382685 0.000000 0.923879
outer loop
vertex -52.380680 -127.983986 7.485170
vertex -52.006847 -126.488991 7.640017
vertex -52.380680 -126.488991 7.485170
endloop
endfacet
facet normal -0.130536 0.000000 0.991444
outer loop
vertex -52.380680 -127.983986 7.485170
vertex -52.380680 -126.488991 7.485170
vertex -52.781849 -127.983986 7.432352
endloop
endfacet
facet normal -0.130533 0.000000 0.991444
outer loop
vertex -52.781849 -127.983986 7.432352
vertex -52.380680 -126.488991 7.485170
vertex -52.781849 -126.488991 7.432352
endloop
endfacet
facet normal 0.130533 0.000000 0.991444
outer loop
vertex -52.781849 -127.983986 7.432352
vertex -52.781849 -126.488991 7.432352
vertex -53.183018 -127.983986 7.485170
endloop
endfacet
facet normal 0.130536 0.000000 0.991444
outer loop
vertex -53.183018 -127.983986 7.485170
vertex -52.781849 -126.488991 7.432352
vertex -53.183018 -126.488991 7.485170
endloop
endfacet
facet normal 0.382685 0.000000 0.923879
outer loop
vertex -53.183018 -127.983986 7.485170
vertex -53.183018 -126.488991 7.485170
vertex -53.556847 -127.983986 7.640017
endloop
endfacet
facet normal 0.382686 0.000000 0.923878
outer loop
vertex -53.556847 -127.983986 7.640017
vertex -53.183018 -126.488991 7.485170
vertex -53.556847 -126.488991 7.640017
endloop
endfacet
facet normal 0.608758 0.000000 0.793356
outer loop
vertex -53.556847 -127.983986 7.640017
vertex -53.556847 -126.488991 7.640017
vertex -53.877865 -127.983986 7.886339
endloop
endfacet
facet normal 0.608756 0.000000 0.793358
outer loop
vertex -53.877865 -127.983986 7.886339
vertex -53.556847 -126.488991 7.640017
vertex -53.877865 -126.488991 7.886339
endloop
endfacet
facet normal 0.793354 0.000000 0.608761
outer loop
vertex -53.877865 -127.983986 7.886339
vertex -53.877865 -126.488991 7.886339
vertex -54.124187 -127.983986 8.207354
endloop
endfacet
facet normal 0.793354 0.000000 0.608761
outer loop
vertex -54.124187 -127.983986 8.207354
vertex -53.877865 -126.488991 7.886339
vertex -54.124187 -126.488991 8.207354
endloop
endfacet
facet normal 0.923879 0.000000 0.382684
outer loop
vertex -54.124187 -127.983986 8.207354
vertex -54.124187 -126.488991 8.207354
vertex -54.279034 -127.983986 8.581186
endloop
endfacet
facet normal 0.923879 0.000000 0.382684
outer loop
vertex -54.279034 -127.983986 8.581186
vertex -54.124187 -126.488991 8.207354
vertex -54.279034 -126.488991 8.581186
endloop
endfacet
facet normal 0.000000 -1.000000 0.000000
outer loop
vertex -54.279034 -126.488991 8.581186
vertex -51.284664 -126.488991 8.581186
vertex -54.331848 -126.488991 8.982355
endloop
endfacet
facet normal 0.000000 -1.000000 0.000001
outer loop
vertex -54.331848 -126.488991 8.982355
vertex -51.284664 -126.488991 8.581186
vertex -51.231850 -126.488991 8.982355
endloop
endfacet
facet normal 0.000000 -1.000000 0.000000
outer loop
vertex -54.331848 -126.488991 8.982355
vertex -51.231850 -126.488991 8.982355
vertex -54.279034 -126.488991 9.383524
endloop
endfacet
facet normal 0.000000 -1.000000 -0.000001
outer loop
vertex -54.279034 -126.488991 9.383524
vertex -51.231850 -126.488991 8.982355
vertex -51.284664 -126.488991 9.383524
endloop
endfacet
facet normal 0.000000 -1.000000 0.000055
outer loop
vertex -54.279034 -126.488991 9.383524
vertex -51.284664 -126.488991 9.383524
vertex -54.124187 -126.488991 9.757349
endloop
endfacet
facet normal 0.000000 -1.000000 -0.000008
outer loop
vertex -54.124187 -126.488991 9.757349
vertex -51.284664 -126.488991 9.383524
vertex -51.439510 -126.488991 9.757349
endloop
endfacet
facet normal 0.000000 -1.000000 0.000000
outer loop
vertex -54.124187 -126.488991 9.757349
vertex -51.439510 -126.488991 9.757349
vertex -53.877865 -126.488991 10.078371
endloop
endfacet
facet normal 0.000000 -1.000000 0.000011
outer loop
vertex -53.877865 -126.488991 10.078371
vertex -51.439510 -126.488991 9.757349
vertex -51.685833 -126.488991 10.078371
endloop
endfacet
facet normal 0.000000 -1.000000 -0.000057
outer loop
vertex -53.877865 -126.488991 10.078371
vertex -51.685833 -126.488991 10.078371
vertex -53.556847 -126.488991 10.324694
endloop
endfacet
facet normal 0.000000 -1.000000 -0.000040
outer loop
vertex -53.556847 -126.488991 10.324694
vertex -51.685833 -126.488991 10.078371
vertex -52.006847 -126.488991 10.324694
endloop
endfacet
facet normal 0.000000 -1.000000 0.000127
outer loop
vertex -53.556847 -126.488991 10.324694
vertex -52.006847 -126.488991 10.324694
vertex -53.183018 -126.488991 10.479540
endloop
endfacet
facet normal 0.000000 -1.000000 0.000000
outer loop
vertex -53.183018 -126.488991 10.479540
vertex -52.006847 -126.488991 10.324694
vertex -52.380680 -126.488991 10.479540
endloop
endfacet
facet normal 0.000000 -1.000000 0.000000
outer loop
vertex -53.183018 -126.488991 10.479540
vertex -52.380680 -126.488991 10.479540
vertex -52.781849 -126.488991 10.532351
endloop
endfacet
facet normal 0.000000 -1.000000 -0.000055
outer loop
vertex -51.284664 -126.488991 8.581186
vertex -54.279034 -126.488991 8.581186
vertex -51.439510 -126.488991 8.207354
endloop
endfacet
facet normal 0.000000 -1.000000 0.000008
outer loop
vertex -51.439510 -126.488991 8.207354
vertex -54.279034 -126.488991 8.581186
vertex -54.124187 -126.488991 8.207354
endloop
endfacet
facet normal 0.000000 -1.000000 0.000000
outer loop
vertex -51.439510 -126.488991 8.207354
vertex -54.124187 -126.488991 8.207354
vertex -51.685833 -126.488991 7.886339
endloop
endfacet
facet normal 0.000000 -1.000000 -0.000011
outer loop
vertex -51.685833 -126.488991 7.886339
vertex -54.124187 -126.488991 8.207354
vertex -53.877865 -126.488991 7.886339
endloop
endfacet
facet normal 0.000000 -1.000000 0.000113
outer loop
vertex -51.685833 -126.488991 7.886339
vertex -53.877865 -126.488991 7.886339
vertex -52.006847 -126.488991 7.640017
endloop
endfacet
facet normal 0.000000 -1.000000 0.000000
outer loop
vertex -52.006847 -126.488991 7.640017
vertex -53.877865 -126.488991 7.886339
vertex -53.556847 -126.488991 7.640017
endloop
endfacet
facet normal 0.000000 -1.000000 0.000000
outer loop
vertex -52.006847 -126.488991 7.640017
vertex -53.556847 -126.488991 7.640017
vertex -52.380680 -126.488991 7.485170
endloop
endfacet
facet normal 0.000000 -1.000000 -0.000123
outer loop
vertex -52.380680 -126.488991 7.485170
vertex -53.556847 -126.488991 7.640017
vertex -53.183018 -126.488991 7.485170
endloop
endfacet
facet normal 0.000000 -1.000000 0.000000
outer loop
vertex -52.380680 -126.488991 7.485170
vertex -53.183018 -126.488991 7.485170
vertex -52.781849 -126.488991 7.432352
endloop
endfacet
facet normal 0.991445 0.000000 0.130524
outer loop
vertex -57.831848 -126.488991 12.482355
vertex -57.831848 -127.983986 12.482355
vertex -57.779034 -126.488991 12.081186
endloop
endfacet
facet normal 0.991445 0.000000 0.130525
outer loop
vertex -57.779034 -126.488991 12.081186
vertex -57.831848 -127.983986 12.482355
vertex -57.779034 -127.983986 12.081186
endloop
endfacet
facet normal 0.923879 0.000000 0.382685
outer loop
vertex -57.779034 -126.488991 12.081186
vertex -57.779034 -127.983986 12.081186
vertex -57.624187 -126.488991 11.707354
endloop
endfacet
facet normal 0.923880 0.000000 0.382682
outer loop
vertex -57.624187 -126.488991 11.707354
vertex -57.779034 -127.983986 12.081186
vertex -57.624187 -127.983986 11.707354
endloop
endfacet
facet normal 0.793351 0.000000 0.608764
outer loop
vertex -57.624187 -126.488991 11.707354
vertex -57.624187 -127.983986 11.707354
vertex -57.377865 -126.488991 11.386339
endloop
endfacet
facet normal 0.793354 0.000000 0.608761
outer loop
vertex -57.377865 -126.488991 11.386339
vertex -57.624187 -127.983986 11.707354
vertex -57.377865 -127.983986 11.386339
endloop
endfacet
facet normal 0.608758 0.000000 0.793356
outer loop
vertex -57.377865 -126.488991 11.386339
vertex -57.377865 -127.983986 11.386339
vertex -57.056847 -126.488991 11.140017
endloop
endfacet
facet normal 0.608758 0.000000 0.793356
outer loop
vertex -57.056847 -126.488991 11.140017
vertex -57.377865 -127.983986 11.386339
vertex -57.056847 -127.983986 11.140017
endloop
endfacet
facet normal 0.382689 0.000000 0.923877
outer loop
vertex -57.056847 -126.488991 11.140017
vertex -57.056847 -127.983986 11.140017
vertex -56.683018 -126.488991 10.985170
endloop
endfacet
facet normal 0.382685 0.000000 0.923879
outer loop
vertex -56.683018 -126.488991 10.985170
vertex -57.056847 -127.983986 11.140017
vertex -56.683018 -127.983986 10.985170
endloop
endfacet
facet normal 0.130530 0.000000 0.991444
outer loop
vertex -56.683018 -126.488991 10.985170
vertex -56.683018 -127.983986 10.985170
vertex -56.281849 -126.488991 10.932352
endloop
endfacet
facet normal 0.130536 0.000000 0.991444
outer loop
vertex -56.281849 -126.488991 10.932352
vertex -56.683018 -127.983986 10.985170
vertex -56.281849 -127.983986 10.932352
endloop
endfacet
facet normal -0.130536 0.000000 0.991444
outer loop
vertex -56.281849 -126.488991 10.932352
vertex -56.281849 -127.983986 10.932352
vertex -55.880680 -126.488991 10.985170
endloop
endfacet
facet normal -0.130530 0.000000 0.991444
outer loop
vertex -55.880680 -126.488991 10.985170
vertex -56.281849 -127.983986 10.932352
vertex -55.880680 -127.983986 10.985170
endloop
endfacet
facet normal -0.382685 0.000000 0.923879
outer loop
vertex -55.880680 -126.488991 10.985170
vertex -55.880680 -127.983986 10.985170
vertex -55.506847 -126.488991 11.140017
endloop
endfacet
facet normal -0.382680 0.000000 0.923881
outer loop
vertex -55.506847 -126.488991 11.140017
vertex -55.880680 -127.983986 10.985170
vertex -55.506847 -127.983986 11.140017
endloop
endfacet
facet normal -0.608764 0.000000 0.793351
outer loop
vertex -55.506847 -126.488991 11.140017
vertex -55.506847 -127.983986 11.140017
vertex -55.185833 -126.488991 11.386339
endloop
endfacet
facet normal -0.608764 0.000000 0.793351
outer loop
vertex -55.185833 -126.488991 11.386339
vertex -55.506847 -127.983986 11.140017
vertex -55.185833 -127.983986 11.386339
endloop
endfacet
facet normal -0.793354 0.000000 0.608761
outer loop
vertex -55.185833 -126.488991 11.386339
vertex -55.185833 -127.983986 11.386339
vertex -54.939510 -126.488991 11.707354
endloop
endfacet
facet normal -0.793351 0.000000 0.608764
outer loop
vertex -54.939510 -126.488991 11.707354
vertex -55.185833 -127.983986 11.386339
vertex -54.939510 -127.983986 11.707354
endloop
endfacet
facet normal -0.923880 0.000000 0.382682
outer loop
vertex -54.939510 -126.488991 11.707354
vertex -54.939510 -127.983986 11.707354
vertex -54.784664 -126.488991 12.081186
endloop
endfacet
facet normal -0.923879 0.000000 0.382685
outer loop
vertex -54.784664 -126.488991 12.081186
vertex -54.939510 -127.983986 11.707354
vertex -54.784664 -127.983986 12.081186
endloop
endfacet
facet normal -0.991445 0.000000 0.130524
outer loop
vertex -54.784664 -126.488991 12.081186
vertex -54.784664 -127.983986 12.081186
vertex -54.731850 -126.488991 12.482355
endloop
endfacet
facet normal -0.991445 0.000000 0.130525
outer loop
vertex -54.731850 -126.488991 12.482355
vertex -54.784664 -127.983986 12.081186
vertex -54.731850 -127.983986 12.482355
endloop
endfacet
facet normal 1.000000 0.000000 0.000000
outer loop
vertex -57.831848 -127.983986 15.981989
vertex -57.831848 -127.983986 12.482355
vertex -57.831848 -126.488991 15.981989
endloop
endfacet
facet normal 1.000000 0.000000 0.000000
outer loop
vertex -57.831848 -126.488991 15.981989
vertex -57.831848 -127.983986 12.482355
vertex -57.831848 -126.488991 12.482355
endloop
endfacet
facet normal 0.130536 0.000000 -0.991444
outer loop
vertex -56.281849 -126.488991 17.531992
vertex -56.281849 -127.983986 17.531992
vertex -56.683018 -126.488991 17.479174
endloop
endfacet
facet normal 0.130536 0.000000 -0.991444
outer loop
vertex -56.683018 -126.488991 17.479174
vertex -56.281849 -127.983986 17.531992
vertex -56.683018 -127.983986 17.479174
endloop
endfacet
facet normal 0.382673 0.000000 -0.923884
outer loop
vertex -56.683018 -126.488991 17.479174
vertex -56.683018 -127.983986 17.479174
vertex -57.056847 -126.488991 17.324335
endloop
endfacet
facet normal 0.382669 0.000000 -0.923886
outer loop
vertex -57.056847 -126.488991 17.324335
vertex -56.683018 -127.983986 17.479174
vertex -57.056847 -127.983986 17.324335
endloop
endfacet
facet normal 0.608766 0.000000 -0.793350
outer loop
vertex -57.056847 -126.488991 17.324335
vertex -57.056847 -127.983986 17.324335
vertex -57.377865 -126.488991 17.078005
endloop
endfacet
facet normal 0.608770 0.000000 -0.793347
outer loop
vertex -57.377865 -126.488991 17.078005
vertex -57.056847 -127.983986 17.324335
vertex -57.377865 -127.983986 17.078005
endloop
endfacet
facet normal 0.793354 0.000000 -0.608761
outer loop
vertex -57.377865 -126.488991 17.078005
vertex -57.377865 -127.983986 17.078005
vertex -57.624187 -126.488991 16.756990
endloop
endfacet
facet normal 0.793354 0.000000 -0.608761
outer loop
vertex -57.624187 -126.488991 16.756990
vertex -57.377865 -127.983986 17.078005
vertex -57.624187 -127.983986 16.756990
endloop
endfacet
facet normal 0.923876 0.000000 -0.382691
outer loop
vertex -57.624187 -126.488991 16.756990
vertex -57.624187 -127.983986 16.756990
vertex -57.779034 -126.488991 16.383165
endloop
endfacet
facet normal 0.923877 0.000000 -0.382689
outer loop
vertex -57.779034 -126.488991 16.383165
vertex -57.624187 -127.983986 16.756990
vertex -57.779034 -127.983986 16.383165
endloop
endfacet
facet normal 0.991446 0.000000 -0.130521
outer loop
vertex -57.779034 -126.488991 16.383165
vertex -57.779034 -127.983986 16.383165
vertex -57.831848 -126.488991 15.981989
endloop
endfacet
facet normal 0.991445 0.000000 -0.130524
outer loop
vertex -57.831848 -126.488991 15.981989
vertex -57.779034 -127.983986 16.383165
vertex -57.831848 -127.983986 15.981989
endloop
endfacet
facet normal 1.000000 0.000000 0.000000
outer loop
vertex -56.281849 -127.983986 17.532351
vertex -56.281849 -127.983986 17.531992
vertex -56.281849 -126.488991 17.532351
endloop
endfacet
facet normal 1.000000 0.000000 0.000000
outer loop
vertex -56.281849 -126.488991 17.532351
vertex -56.281849 -127.983986 17.531992
vertex -56.281849 -126.488991 17.531992
endloop
endfacet
facet normal 0.000000 0.000000 -1.000000
outer loop
vertex -49.281826 -127.983986 17.532351
vertex -56.281849 -127.983986 17.532351
vertex -49.281826 -126.488991 17.532351
endloop
endfacet
facet normal 0.000000 0.000000 -1.000000
outer loop
vertex -49.281826 -126.488991 17.532351
vertex -56.281849 -127.983986 17.532351
vertex -56.281849 -126.488991 17.532351
endloop
endfacet
facet normal -0.991446 0.000000 -0.130519
outer loop
vertex -47.731850 -126.488991 15.982355
vertex -47.731850 -127.983986 15.982355
vertex -47.784660 -126.488991 16.383516
endloop
endfacet
facet normal -0.991446 0.000000 -0.130517
outer loop
vertex -47.784660 -126.488991 16.383516
vertex -47.731850 -127.983986 15.982355
vertex -47.784660 -127.983986 16.383516
endloop
endfacet
facet normal -0.923880 0.000000 -0.382682
outer loop
vertex -47.784660 -126.488991 16.383516
vertex -47.784660 -127.983986 16.383516
vertex -47.939507 -126.488991 16.757349
endloop
endfacet
facet normal -0.923879 0.000000 -0.382685
outer loop
vertex -47.939507 -126.488991 16.757349
vertex -47.784660 -127.983986 16.383516
vertex -47.939507 -127.983986 16.757349
endloop
endfacet
facet normal -0.793357 0.000000 -0.608757
outer loop
vertex -47.939507 -126.488991 16.757349
vertex -47.939507 -127.983986 16.757349
vertex -48.185825 -126.488991 17.078363
endloop
endfacet
facet normal -0.793360 0.000000 -0.608753
outer loop
vertex -48.185825 -126.488991 17.078363
vertex -47.939507 -127.983986 16.757349
vertex -48.185825 -127.983986 17.078363
endloop
endfacet
facet normal -0.608764 0.000000 -0.793351
outer loop
vertex -48.185825 -126.488991 17.078363
vertex -48.185825 -127.983986 17.078363
vertex -48.506836 -126.488991 17.324686
endloop
endfacet
facet normal -0.608770 0.000000 -0.793347
outer loop
vertex -48.506836 -126.488991 17.324686
vertex -48.185825 -127.983986 17.078363
vertex -48.506836 -127.983986 17.324686
endloop
endfacet
facet normal -0.382684 0.000000 -0.923879
outer loop
vertex -48.506836 -126.488991 17.324686
vertex -48.506836 -127.983986 17.324686
vertex -48.880661 -126.488991 17.479532
endloop
endfacet
facet normal -0.382689 0.000000 -0.923877
outer loop
vertex -48.880661 -126.488991 17.479532
vertex -48.506836 -127.983986 17.324686
vertex -48.880661 -127.983986 17.479532
endloop
endfacet
facet normal -0.130538 0.000000 -0.991443
outer loop
vertex -48.880661 -126.488991 17.479532
vertex -48.880661 -127.983986 17.479532
vertex -49.281826 -126.488991 17.532351
endloop
endfacet
facet normal -0.130538 0.000000 -0.991443
outer loop
vertex -49.281826 -126.488991 17.532351
vertex -48.880661 -127.983986 17.479532
vertex -49.281826 -127.983986 17.532351
endloop
endfacet
facet normal -1.000000 0.000000 -0.000004
outer loop
vertex -47.731834 -127.983986 12.482355
vertex -47.731850 -127.983986 15.982355
vertex -47.731834 -126.488991 12.482355
endloop
endfacet
facet normal -1.000000 0.000000 -0.000004
outer loop
vertex -47.731834 -126.488991 12.482355
vertex -47.731850 -127.983986 15.982355
vertex -47.731850 -126.488991 15.982355
endloop
endfacet
facet normal 0.991444 0.000000 0.130533
outer loop
vertex -50.831837 -126.488991 12.482347
vertex -50.831837 -127.983986 12.482347
vertex -50.779018 -126.488991 12.081179
endloop
endfacet
facet normal 0.991444 0.000000 0.130535
outer loop
vertex -50.779018 -126.488991 12.081179
vertex -50.831837 -127.983986 12.482347
vertex -50.779018 -127.983986 12.081179
endloop
endfacet
facet normal 0.923879 0.000000 0.382685
outer loop
vertex -50.779018 -126.488991 12.081179
vertex -50.779018 -127.983986 12.081179
vertex -50.624172 -126.488991 11.707346
endloop
endfacet
facet normal 0.923880 0.000000 0.382682
outer loop
vertex -50.624172 -126.488991 11.707346
vertex -50.779018 -127.983986 12.081179
vertex -50.624172 -127.983986 11.707346
endloop
endfacet
facet normal 0.793351 0.000000 0.608764
outer loop
vertex -50.624172 -126.488991 11.707346
vertex -50.624172 -127.983986 11.707346
vertex -50.377850 -126.488991 11.386332
endloop
endfacet
facet normal 0.793354 0.000000 0.608761
outer loop
vertex -50.377850 -126.488991 11.386332
vertex -50.624172 -127.983986 11.707346
vertex -50.377850 -127.983986 11.386332
endloop
endfacet
facet normal 0.608758 0.000000 0.793356
outer loop
vertex -50.377850 -126.488991 11.386332
vertex -50.377850 -127.983986 11.386332
vertex -50.056831 -126.488991 11.140009
endloop
endfacet
facet normal 0.608758 0.000000 0.793356
outer loop
vertex -50.056831 -126.488991 11.140009
vertex -50.377850 -127.983986 11.386332
vertex -50.056831 -127.983986 11.140009
endloop
endfacet
facet normal 0.382689 0.000000 0.923877
outer loop
vertex -50.056831 -126.488991 11.140009
vertex -50.056831 -127.983986 11.140009
vertex -49.683002 -126.488991 10.985163
endloop
endfacet
facet normal 0.382685 0.000000 0.923879
outer loop
vertex -49.683002 -126.488991 10.985163
vertex -50.056831 -127.983986 11.140009
vertex -49.683002 -127.983986 10.985163
endloop
endfacet
facet normal 0.130511 0.000000 0.991447
outer loop
vertex -49.683002 -126.488991 10.985163
vertex -49.683002 -127.983986 10.985163
vertex -49.281830 -126.488991 10.932352
endloop
endfacet
facet normal 0.130516 0.000000 0.991446
outer loop
vertex -49.281830 -126.488991 10.932352
vertex -49.683002 -127.983986 10.985163
vertex -49.281830 -127.983986 10.932352
endloop
endfacet
facet normal -0.130536 0.000000 0.991444
outer loop
vertex -49.281830 -126.488991 10.932352
vertex -49.281830 -127.983986 10.932352
vertex -48.880661 -126.488991 10.985170
endloop
endfacet
facet normal -0.130530 0.000000 0.991444
outer loop
vertex -48.880661 -126.488991 10.985170
vertex -49.281830 -127.983986 10.932352
vertex -48.880661 -127.983986 10.985170
endloop
endfacet
facet normal -0.382689 0.000000 0.923877
outer loop
vertex -48.880661 -126.488991 10.985170
vertex -48.880661 -127.983986 10.985170
vertex -48.506832 -126.488991 11.140017
endloop
endfacet
facet normal -0.382685 0.000000 0.923879
outer loop
vertex -48.506832 -126.488991 11.140017
vertex -48.880661 -127.983986 10.985170
vertex -48.506832 -127.983986 11.140017
endloop
endfacet
facet normal -0.608764 0.000000 0.793351
outer loop
vertex -48.506832 -126.488991 11.140017
vertex -48.506832 -127.983986 11.140017
vertex -48.185818 -126.488991 11.386339
endloop
endfacet
facet normal -0.608764 0.000000 0.793351
outer loop
vertex -48.185818 -126.488991 11.386339
vertex -48.506832 -127.983986 11.140017
vertex -48.185818 -127.983986 11.386339
endloop
endfacet
facet normal -0.793354 0.000000 0.608761
outer loop
vertex -48.185818 -126.488991 11.386339
vertex -48.185818 -127.983986 11.386339
vertex -47.939495 -126.488991 11.707354
endloop
endfacet
facet normal -0.793351 0.000000 0.608764
outer loop
vertex -47.939495 -126.488991 11.707354
vertex -48.185818 -127.983986 11.386339
vertex -47.939495 -127.983986 11.707354
endloop
endfacet
facet normal -0.923880 0.000000 0.382682
outer loop
vertex -47.939495 -126.488991 11.707354
vertex -47.939495 -127.983986 11.707354
vertex -47.784649 -126.488991 12.081186
endloop
endfacet
facet normal -0.923879 0.000000 0.382685
outer loop
vertex -47.784649 -126.488991 12.081186
vertex -47.939495 -127.983986 11.707354
vertex -47.784649 -127.983986 12.081186
endloop
endfacet
facet normal -0.991445 0.000000 0.130524
outer loop
vertex -47.784649 -126.488991 12.081186
vertex -47.784649 -127.983986 12.081186
vertex -47.731834 -126.488991 12.482355
endloop
endfacet
facet normal -0.991445 0.000000 0.130525
outer loop
vertex -47.731834 -126.488991 12.482355
vertex -47.784649 -127.983986 12.081186
vertex -47.731834 -127.983986 12.482355
endloop
endfacet
facet normal 1.000000 0.000000 0.000004
outer loop
vertex -50.831844 -127.983986 14.432276
vertex -50.831837 -127.983986 12.482347
vertex -50.831844 -126.488991 14.432276
endloop
endfacet
facet normal 1.000000 0.000000 0.000004
outer loop
vertex -50.831844 -126.488991 14.432276
vertex -50.831837 -127.983986 12.482347
vertex -50.831837 -126.488991 12.482347
endloop
endfacet
facet normal -0.000052 0.000000 1.000000
outer loop
vertex -54.731850 -127.983986 14.432070
vertex -50.831844 -127.983986 14.432276
vertex -54.731850 -126.488991 14.432070
endloop
endfacet
facet normal -0.000053 0.000000 1.000000
outer loop
vertex -54.731850 -126.488991 14.432070
vertex -50.831844 -127.983986 14.432276
vertex -50.831844 -126.488991 14.432276
endloop
endfacet
facet normal -1.000000 0.000000 0.000000
outer loop
vertex -54.731850 -127.983986 12.482355
vertex -54.731850 -127.983986 14.432070
vertex -54.731850 -126.488991 12.482355
endloop
endfacet
facet normal -1.000000 0.000000 0.000000
outer loop
vertex -54.731850 -126.488991 12.482355
vertex -54.731850 -127.983986 14.432070
vertex -54.731850 -126.488991 14.432070
endloop
endfacet
facet normal 0.000000 -1.000000 0.000000
outer loop
vertex -56.281849 -126.488991 17.532351
vertex -56.281849 -126.488991 17.531992
vertex -49.281826 -126.488991 17.532351
endloop
endfacet
facet normal 0.000000 -1.000000 0.000000
outer loop
vertex -49.281826 -126.488991 17.532351
vertex -56.281849 -126.488991 17.531992
vertex -50.831844 -126.488991 14.432276
endloop
endfacet
facet normal 0.000000 -1.000000 0.000000
outer loop
vertex -49.281826 -126.488991 17.532351
vertex -50.831844 -126.488991 14.432276
vertex -47.731850 -126.488991 15.982355
endloop
endfacet
facet normal 0.000000 -1.000000 0.000000
outer loop
vertex -47.731850 -126.488991 15.982355
vertex -50.831844 -126.488991 14.432276
vertex -47.731834 -126.488991 12.482355
endloop
endfacet
facet normal 0.000000 -1.000000 -0.000004
outer loop
vertex -47.731834 -126.488991 12.482355
vertex -50.831844 -126.488991 14.432276
vertex -50.831837 -126.488991 12.482347
endloop
endfacet
facet normal 0.000000 -1.000000 0.000000
outer loop
vertex -47.731834 -126.488991 12.482355
vertex -50.831837 -126.488991 12.482347
vertex -47.784649 -126.488991 12.081186
endloop
endfacet
facet normal 0.000000 -1.000000 0.000042
outer loop
vertex -47.784649 -126.488991 12.081186
vertex -50.831837 -126.488991 12.482347
vertex -50.779018 -126.488991 12.081179
endloop
endfacet
facet normal 0.000000 -1.000000 -0.000055
outer loop
vertex -47.784649 -126.488991 12.081186
vertex -50.779018 -126.488991 12.081179
vertex -47.939495 -126.488991 11.707354
endloop
endfacet
facet normal 0.000000 -1.000000 0.000008
outer loop
vertex -47.939495 -126.488991 11.707354
vertex -50.779018 -126.488991 12.081179
vertex -50.624172 -126.488991 11.707346
endloop
endfacet
facet normal 0.000000 -1.000000 0.000000
outer loop
vertex -47.939495 -126.488991 11.707354
vertex -50.624172 -126.488991 11.707346
vertex -48.185818 -126.488991 11.386339
endloop
endfacet
facet normal 0.000000 -1.000000 -0.000011
outer loop
vertex -48.185818 -126.488991 11.386339
vertex -50.624172 -126.488991 11.707346
vertex -50.377850 -126.488991 11.386332
endloop
endfacet
facet normal 0.000000 -1.000000 0.000113
outer loop
vertex -48.185818 -126.488991 11.386339
vertex -50.377850 -126.488991 11.386332
vertex -48.506832 -126.488991 11.140017
endloop
endfacet
facet normal 0.000000 -1.000000 0.000000
outer loop
vertex -48.506832 -126.488991 11.140017
vertex -50.377850 -126.488991 11.386332
vertex -50.056831 -126.488991 11.140009
endloop
endfacet
facet normal 0.000000 -1.000000 -0.000127
outer loop
vertex -48.506832 -126.488991 11.140017
vertex -50.056831 -126.488991 11.140009
vertex -48.880661 -126.488991 10.985170
endloop
endfacet
facet normal 0.000000 -1.000000 0.000000
outer loop
vertex -48.880661 -126.488991 10.985170
vertex -50.056831 -126.488991 11.140009
vertex -49.683002 -126.488991 10.985163
endloop
endfacet
facet normal 0.000000 -1.000000 0.000180
outer loop
vertex -48.880661 -126.488991 10.985170
vertex -49.683002 -126.488991 10.985163
vertex -49.281830 -126.488991 10.932352
endloop
endfacet
facet normal 0.000000 -1.000000 0.000000
outer loop
vertex -56.683018 -126.488991 17.479174
vertex -57.056847 -126.488991 17.324335
vertex -56.281849 -126.488991 17.531992
endloop
endfacet
facet normal 0.000000 -1.000000 -0.000123
outer loop
vertex -56.281849 -126.488991 17.531992
vertex -57.056847 -126.488991 17.324335
vertex -57.377865 -126.488991 17.078005
endloop
endfacet
facet normal 0.000000 -1.000000 0.000032
outer loop
vertex -56.281849 -126.488991 17.531992
vertex -57.377865 -126.488991 17.078005
vertex -57.624187 -126.488991 16.756990
endloop
endfacet
facet normal 0.000000 -1.000000 0.000080
outer loop
vertex -57.624187 -126.488991 16.756990
vertex -57.779034 -126.488991 16.383165
vertex -56.281849 -126.488991 17.531992
endloop
endfacet
facet normal 0.000000 -1.000000 -0.000002
outer loop
vertex -56.281849 -126.488991 17.531992
vertex -57.779034 -126.488991 16.383165
vertex -57.831848 -126.488991 15.981989
endloop
endfacet
facet normal 0.000000 -1.000000 0.000000
outer loop
vertex -56.281849 -126.488991 17.531992
vertex -57.831848 -126.488991 15.981989
vertex -54.731850 -126.488991 14.432070
endloop
endfacet
facet normal 0.000000 -1.000000 0.000000
outer loop
vertex -54.731850 -126.488991 14.432070
vertex -57.831848 -126.488991 15.981989
vertex -57.831848 -126.488991 12.482355
endloop
endfacet
facet normal 0.000000 -1.000000 0.000000
outer loop
vertex -54.731850 -126.488991 14.432070
vertex -57.831848 -126.488991 12.482355
vertex -54.731850 -126.488991 12.482355
endloop
endfacet
facet normal 0.000000 -1.000000 0.000000
outer loop
vertex -54.731850 -126.488991 12.482355
vertex -57.831848 -126.488991 12.482355
vertex -54.784664 -126.488991 12.081186
endloop
endfacet
facet normal 0.000000 -1.000000 0.000001
outer loop
vertex -54.784664 -126.488991 12.081186
vertex -57.831848 -126.488991 12.482355
vertex -57.779034 -126.488991 12.081186
endloop
endfacet
facet normal 0.000000 -1.000000 -0.000055
outer loop
vertex -54.784664 -126.488991 12.081186
vertex -57.779034 -126.488991 12.081186
vertex -54.939510 -126.488991 11.707354
endloop
endfacet
facet normal 0.000000 -1.000000 0.000008
outer loop
vertex -54.939510 -126.488991 11.707354
vertex -57.779034 -126.488991 12.081186
vertex -57.624187 -126.488991 11.707354
endloop
endfacet
facet normal 0.000000 -1.000000 0.000000
outer loop
vertex -54.939510 -126.488991 11.707354
vertex -57.624187 -126.488991 11.707354
vertex -55.185833 -126.488991 11.386339
endloop
endfacet
facet normal 0.000000 -1.000000 -0.000011
outer loop
vertex -55.185833 -126.488991 11.386339
vertex -57.624187 -126.488991 11.707354
vertex -57.377865 -126.488991 11.386339
endloop
endfacet
facet normal 0.000000 -1.000000 0.000113
outer loop
vertex -55.185833 -126.488991 11.386339
vertex -57.377865 -126.488991 11.386339
vertex -55.506847 -126.488991 11.140017
endloop
endfacet
facet normal 0.000000 -1.000000 0.000000
outer loop
vertex -55.506847 -126.488991 11.140017
vertex -57.377865 -126.488991 11.386339
vertex -57.056847 -126.488991 11.140017
endloop
endfacet
facet normal 0.000000 -1.000000 0.000000
outer loop
vertex -55.506847 -126.488991 11.140017
vertex -57.056847 -126.488991 11.140017
vertex -55.880680 -126.488991 10.985170
endloop
endfacet
facet normal 0.000000 -1.000000 -0.000123
outer loop
vertex -55.880680 -126.488991 10.985170
vertex -57.056847 -126.488991 11.140017
vertex -56.683018 -126.488991 10.985170
endloop
endfacet
facet normal 0.000000 -1.000000 0.000000
outer loop
vertex -55.880680 -126.488991 10.985170
vertex -56.683018 -126.488991 10.985170
vertex -56.281849 -126.488991 10.932352
endloop
endfacet
facet normal 0.000000 -1.000000 0.000000
outer loop
vertex -54.731850 -126.488991 14.432070
vertex -50.831844 -126.488991 14.432276
vertex -56.281849 -126.488991 17.531992
endloop
endfacet
facet normal 0.000000 -1.000000 0.000057
outer loop
vertex -47.731850 -126.488991 15.982355
vertex -47.784660 -126.488991 16.383516
vertex -49.281826 -126.488991 17.532351
endloop
endfacet
facet normal 0.000000 -1.000000 -0.000020
outer loop
vertex -49.281826 -126.488991 17.532351
vertex -47.784660 -126.488991 16.383516
vertex -47.939507 -126.488991 16.757349
endloop
endfacet
facet normal 0.000000 -1.000000 -0.000016
outer loop
vertex -49.281826 -126.488991 17.532351
vertex -47.939507 -126.488991 16.757349
vertex -48.185825 -126.488991 17.078363
endloop
endfacet
facet normal 0.000000 -1.000000 0.000000
outer loop
vertex -48.185825 -126.488991 17.078363
vertex -48.506836 -126.488991 17.324686
vertex -49.281826 -126.488991 17.532351
endloop
endfacet
facet normal 0.000000 -1.000000 -0.000180
outer loop
vertex -49.281826 -126.488991 17.532351
vertex -48.506836 -126.488991 17.324686
vertex -48.880661 -126.488991 17.479532
endloop
endfacet
facet normal -0.707107 0.000000 -0.707106
outer loop
vertex -59.781849 -123.993988 8.982355
vertex -56.281849 -123.993988 5.482355
vertex -59.781849 -127.983986 8.982355
endloop
endfacet
facet normal -0.707106 0.000000 -0.707108
outer loop
vertex -59.781849 -127.983986 8.982355
vertex -56.281849 -123.993988 5.482355
vertex -56.281849 -127.983986 5.482355
endloop
endfacet
facet normal -1.000000 0.000000 0.000000
outer loop
vertex -59.781849 -123.993988 15.982355
vertex -59.781849 -123.993988 8.982355
vertex -59.781849 -127.983986 15.982355
endloop
endfacet
facet normal -1.000000 0.000000 0.000000
outer loop
vertex -59.781849 -127.983986 15.982355
vertex -59.781849 -123.993988 8.982355
vertex -59.781849 -127.983986 8.982355
endloop
endfacet
facet normal -0.707108 0.000000 0.707106
outer loop
vertex -56.281849 -123.993988 19.482355
vertex -59.781849 -123.993988 15.982355
vertex -56.281849 -127.983986 19.482355
endloop
endfacet
facet normal -0.707106 0.000000 0.707108
outer loop
vertex -56.281849 -127.983986 19.482355
vertex -59.781849 -123.993988 15.982355
vertex -59.781849 -127.983986 15.982355
endloop
endfacet
facet normal 0.707108 0.000000 0.707106
outer loop
vertex -45.781849 -123.993988 15.982355
vertex -49.281849 -123.993988 19.482355
vertex -45.781849 -127.983986 15.982355
endloop
endfacet
facet normal 0.707106 0.000000 0.707108
outer loop
vertex -45.781849 -127.983986 15.982355
vertex -49.281849 -123.993988 19.482355
vertex -49.281849 -127.983986 19.482355
endloop
endfacet
facet normal 1.000000 0.000000 0.000000
outer loop
vertex -45.781849 -123.993988 8.982355
vertex -45.781849 -123.993988 15.982355
vertex -45.781849 -127.983986 8.982355
endloop
endfacet
facet normal 1.000000 0.000000 0.000000
outer loop
vertex -45.781849 -127.983986 8.982355
vertex -45.781849 -123.993988 15.982355
vertex -45.781849 -127.983986 15.982355
endloop
endfacet
facet normal 0.707107 0.000000 -0.707106
outer loop
vertex -49.281849 -123.993988 5.482355
vertex -45.781849 -123.993988 8.982355
vertex -49.281849 -127.983986 5.482355
endloop
endfacet
facet normal 0.707106 0.000000 -0.707108
outer loop
vertex -49.281849 -127.983986 5.482355
vertex -45.781849 -123.993988 8.982355
vertex -45.781849 -127.983986 8.982355
endloop
endfacet
facet normal 0.000000 0.000000 -1.000000
outer loop
vertex -56.281849 -123.993988 5.482355
vertex -49.281849 -123.993988 5.482355
vertex -56.281849 -127.983986 5.482355
endloop
endfacet
facet normal 0.000000 0.000000 -1.000000
outer loop
vertex -56.281849 -127.983986 5.482355
vertex -49.281849 -123.993988 5.482355
vertex -49.281849 -127.983986 5.482355
endloop
endfacet
facet normal 0.000000 -1.000000 0.000000
outer loop
vertex -54.279034 -127.983986 9.383524
vertex -56.281849 -127.983986 10.932352
vertex -54.331848 -127.983986 8.982355
endloop
endfacet
facet normal 0.000000 -1.000000 0.000000
outer loop
vertex -54.331848 -127.983986 8.982355
vertex -56.281849 -127.983986 10.932352
vertex -56.683018 -127.983986 10.985170
endloop
endfacet
facet normal 0.000000 -1.000000 0.000073
outer loop
vertex -54.331848 -127.983986 8.982355
vertex -56.683018 -127.983986 10.985170
vertex -54.279034 -127.983986 8.581186
endloop
endfacet
facet normal 0.000000 -1.000000 -0.000002
outer loop
vertex -54.279034 -127.983986 8.581186
vertex -56.683018 -127.983986 10.985170
vertex -56.281849 -127.983986 5.482355
endloop
endfacet
facet normal 0.000000 -1.000000 0.000000
outer loop
vertex -54.279034 -127.983986 8.581186
vertex -56.281849 -127.983986 5.482355
vertex -54.124187 -127.983986 8.207354
endloop
endfacet
facet normal 0.000000 -1.000000 0.000000
outer loop
vertex -54.124187 -127.983986 8.207354
vertex -56.281849 -127.983986 5.482355
vertex -53.877865 -127.983986 7.886339
endloop
endfacet
facet normal 0.000000 -1.000000 0.000000
outer loop
vertex -53.877865 -127.983986 7.886339
vertex -56.281849 -127.983986 5.482355
vertex -53.556847 -127.983986 7.640017
endloop
endfacet
facet normal 0.000000 -1.000000 0.000000
outer loop
vertex -53.556847 -127.983986 7.640017
vertex -56.281849 -127.983986 5.482355
vertex -53.183018 -127.983986 7.485170
endloop
endfacet
facet normal 0.000000 -1.000000 -0.000063
outer loop
vertex -53.183018 -127.983986 7.485170
vertex -56.281849 -127.983986 5.482355
vertex -52.781849 -127.983986 7.432352
endloop
endfacet
facet normal 0.000000 -1.000000 0.000000
outer loop
vertex -52.781849 -127.983986 7.432352
vertex -56.281849 -127.983986 5.482355
vertex -49.281849 -127.983986 5.482355
endloop
endfacet
facet normal 0.000000 -1.000000 0.000000
outer loop
vertex -52.781849 -127.983986 7.432352
vertex -49.281849 -127.983986 5.482355
vertex -52.380680 -127.983986 7.485170
endloop
endfacet
facet normal 0.000000 -1.000000 0.000000
outer loop
vertex -52.380680 -127.983986 7.485170
vertex -49.281849 -127.983986 5.482355
vertex -52.006847 -127.983986 7.640017
endloop
endfacet
facet normal 0.000000 -1.000000 -0.000045
outer loop
vertex -52.006847 -127.983986 7.640017
vertex -49.281849 -127.983986 5.482355
vertex -51.685833 -127.983986 7.886339
endloop
endfacet
facet normal 0.000000 -1.000000 0.000000
outer loop
vertex -51.685833 -127.983986 7.886339
vertex -49.281849 -127.983986 5.482355
vertex -51.439510 -127.983986 8.207354
endloop
endfacet
facet normal 0.000000 -1.000000 0.000000
outer loop
vertex -51.439510 -127.983986 8.207354
vertex -49.281849 -127.983986 5.482355
vertex -51.284664 -127.983986 8.581186
endloop
endfacet
facet normal 0.000000 -1.000000 0.000002
outer loop
vertex -51.284664 -127.983986 8.581186
vertex -49.281849 -127.983986 5.482355
vertex -48.880661 -127.983986 10.985170
endloop
endfacet
facet normal 0.000000 -1.000000 -0.000036
outer loop
vertex -51.284664 -127.983986 8.581186
vertex -48.880661 -127.983986 10.985170
vertex -49.281830 -127.983986 10.932352
endloop
endfacet
facet normal 0.000000 -1.000000 0.000000
outer loop
vertex -56.281849 -127.983986 10.932352
vertex -54.279034 -127.983986 9.383524
vertex -55.880680 -127.983986 10.985170
endloop
endfacet
facet normal 0.000000 -1.000000 -0.000018
outer loop
vertex -55.880680 -127.983986 10.985170
vertex -54.279034 -127.983986 9.383524
vertex -54.124187 -127.983986 9.757349
endloop
endfacet
facet normal 0.000000 -1.000000 0.000000
outer loop
vertex -55.880680 -127.983986 10.985170
vertex -54.124187 -127.983986 9.757349
vertex -55.506847 -127.983986 11.140017
endloop
endfacet
facet normal 0.000000 -1.000000 0.000019
outer loop
vertex -55.506847 -127.983986 11.140017
vertex -54.124187 -127.983986 9.757349
vertex -53.877865 -127.983986 10.078371
endloop
endfacet
facet normal 0.000000 -1.000000 0.000000
outer loop
vertex -55.506847 -127.983986 11.140017
vertex -53.877865 -127.983986 10.078371
vertex -55.185833 -127.983986 11.386339
endloop
endfacet
facet normal 0.000000 -1.000000 0.000000
outer loop
vertex -55.185833 -127.983986 11.386339
vertex -53.877865 -127.983986 10.078371
vertex -53.556847 -127.983986 10.324694
endloop
endfacet
facet normal 0.000000 -1.000000 -0.000039
outer loop
vertex -55.185833 -127.983986 11.386339
vertex -53.556847 -127.983986 10.324694
vertex -54.939510 -127.983986 11.707354
endloop
endfacet
facet normal 0.000000 -1.000000 -0.000010
outer loop
vertex -54.939510 -127.983986 11.707354
vertex -53.556847 -127.983986 10.324694
vertex -53.183018 -127.983986 10.479540
endloop
endfacet
facet normal 0.000000 -1.000000 0.000036
outer loop
vertex -54.939510 -127.983986 11.707354
vertex -53.183018 -127.983986 10.479540
vertex -54.784664 -127.983986 12.081186
endloop
endfacet
facet normal 0.000000 -1.000000 0.000000
outer loop
vertex -54.784664 -127.983986 12.081186
vertex -53.183018 -127.983986 10.479540
vertex -52.781849 -127.983986 10.532351
endloop
endfacet
facet normal 0.000000 -1.000000 0.000000
outer loop
vertex -54.784664 -127.983986 12.081186
vertex -52.781849 -127.983986 10.532351
vertex -54.731850 -127.983986 12.482355
endloop
endfacet
facet normal 0.000000 -1.000000 0.000000
outer loop
vertex -54.731850 -127.983986 12.482355
vertex -52.781849 -127.983986 10.532351
vertex -50.831837 -127.983986 12.482347
endloop
endfacet
facet normal 0.000000 -1.000000 0.000000
outer loop
vertex -54.731850 -127.983986 12.482355
vertex -50.831837 -127.983986 12.482347
vertex -54.731850 -127.983986 14.432070
endloop
endfacet
facet normal 0.000000 -1.000000 0.000000
outer loop
vertex -54.731850 -127.983986 14.432070
vertex -50.831837 -127.983986 12.482347
vertex -50.831844 -127.983986 14.432276
endloop
endfacet
facet normal 0.000000 -1.000000 0.000000
outer loop
vertex -52.781849 -127.983986 10.532351
vertex -52.380680 -127.983986 10.479540
vertex -50.831837 -127.983986 12.482347
endloop
endfacet
facet normal 0.000000 -1.000000 0.000000
outer loop
vertex -50.831837 -127.983986 12.482347
vertex -52.380680 -127.983986 10.479540
vertex -50.779018 -127.983986 12.081179
endloop
endfacet
facet normal 0.000000 -1.000000 -0.000009
outer loop
vertex -50.779018 -127.983986 12.081179
vertex -52.380680 -127.983986 10.479540
vertex -52.006847 -127.983986 10.324694
endloop
endfacet
facet normal 0.000000 -1.000000 0.000042
outer loop
vertex -50.779018 -127.983986 12.081179
vertex -52.006847 -127.983986 10.324694
vertex -50.624172 -127.983986 11.707346
endloop
endfacet
facet normal 0.000000 -1.000000 0.000000
outer loop
vertex -50.624172 -127.983986 11.707346
vertex -52.006847 -127.983986 10.324694
vertex -51.685833 -127.983986 10.078371
endloop
endfacet
facet normal 0.000000 -1.000000 -0.000041
outer loop
vertex -50.624172 -127.983986 11.707346
vertex -51.685833 -127.983986 10.078371
vertex -50.377850 -127.983986 11.386332
endloop
endfacet
facet normal 0.000000 -1.000000 0.000021
outer loop
vertex -50.377850 -127.983986 11.386332
vertex -51.685833 -127.983986 10.078371
vertex -51.439510 -127.983986 9.757349
endloop
endfacet
facet normal 0.000000 -1.000000 0.000000
outer loop
vertex -50.377850 -127.983986 11.386332
vertex -51.439510 -127.983986 9.757349
vertex -50.056831 -127.983986 11.140009
endloop
endfacet
facet normal 0.000000 -1.000000 -0.000021
outer loop
vertex -50.056831 -127.983986 11.140009
vertex -51.439510 -127.983986 9.757349
vertex -51.284664 -127.983986 9.383524
endloop
endfacet
facet normal 0.000000 -1.000000 0.000000
outer loop
vertex -50.056831 -127.983986 11.140009
vertex -51.284664 -127.983986 9.383524
vertex -49.683002 -127.983986 10.985163
endloop
endfacet
facet normal 0.000000 -1.000000 -0.000018
outer loop
vertex -49.683002 -127.983986 10.985163
vertex -51.284664 -127.983986 9.383524
vertex -51.231850 -127.983986 8.982355
endloop
endfacet
facet normal 0.000000 -1.000000 0.000000
outer loop
vertex -49.683002 -127.983986 10.985163
vertex -51.231850 -127.983986 8.982355
vertex -49.281830 -127.983986 10.932352
endloop
endfacet
facet normal 0.000000 -1.000000 0.000020
outer loop
vertex -49.281830 -127.983986 10.932352
vertex -51.231850 -127.983986 8.982355
vertex -51.284664 -127.983986 8.581186
endloop
endfacet
facet normal 0.000000 -1.000000 0.000000
outer loop
vertex -56.281849 -127.983986 17.532351
vertex -49.281826 -127.983986 17.532351
vertex -49.281849 -127.983986 19.482355
endloop
endfacet
facet normal 0.000000 -1.000000 0.000000
outer loop
vertex -49.281849 -127.983986 19.482355
vertex -49.281826 -127.983986 17.532351
vertex -48.880661 -127.983986 17.479532
endloop
endfacet
facet normal 0.000000 -1.000000 0.000011
outer loop
vertex -49.281849 -127.983986 19.482355
vertex -48.880661 -127.983986 17.479532
vertex -48.506836 -127.983986 17.324686
endloop
endfacet
facet normal 0.000000 -1.000000 0.000000
outer loop
vertex -48.506836 -127.983986 17.324686
vertex -48.185825 -127.983986 17.078363
vertex -49.281849 -127.983986 19.482355
endloop
endfacet
facet normal 0.000000 -1.000000 0.000013
outer loop
vertex -49.281849 -127.983986 19.482355
vertex -48.185825 -127.983986 17.078363
vertex -45.781849 -127.983986 15.982355
endloop
endfacet
facet normal 0.000000 -1.000000 -0.000030
outer loop
vertex -45.781849 -127.983986 15.982355
vertex -48.185825 -127.983986 17.078363
vertex -47.939507 -127.983986 16.757349
endloop
endfacet
facet normal 0.000000 -1.000000 -0.000022
outer loop
vertex -45.781849 -127.983986 15.982355
vertex -47.939507 -127.983986 16.757349
vertex -47.784660 -127.983986 16.383516
endloop
endfacet
facet normal 0.000000 -1.000000 0.000000
outer loop
vertex -47.784660 -127.983986 16.383516
vertex -47.731850 -127.983986 15.982355
vertex -45.781849 -127.983986 15.982355
endloop
endfacet
facet normal 0.000000 -1.000000 -0.000000
outer loop
vertex -45.781849 -127.983986 15.982355
vertex -47.731850 -127.983986 15.982355
vertex -47.731834 -127.983986 12.482355
endloop
endfacet
facet normal 0.000000 -1.000000 0.000000
outer loop
vertex -45.781849 -127.983986 15.982355
vertex -47.731834 -127.983986 12.482355
vertex -45.781849 -127.983986 8.982355
endloop
endfacet
facet normal 0.000000 -1.000000 0.000014
outer loop
vertex -45.781849 -127.983986 8.982355
vertex -47.731834 -127.983986 12.482355
vertex -47.784649 -127.983986 12.081186
endloop
endfacet
facet normal 0.000000 -1.000000 0.000012
outer loop
vertex -45.781849 -127.983986 8.982355
vertex -47.784649 -127.983986 12.081186
vertex -47.939495 -127.983986 11.707354
endloop
endfacet
facet normal 0.000000 -1.000000 0.000000
outer loop
vertex -47.939495 -127.983986 11.707354
vertex -48.185818 -127.983986 11.386339
vertex -45.781849 -127.983986 8.982355
endloop
endfacet
facet normal 0.000000 -1.000000 -0.000022
outer loop
vertex -45.781849 -127.983986 8.982355
vertex -48.185818 -127.983986 11.386339
vertex -48.506832 -127.983986 11.140017
endloop
endfacet
facet normal 0.000000 -1.000000 0.000006
outer loop
vertex -45.781849 -127.983986 8.982355
vertex -48.506832 -127.983986 11.140017
vertex -48.880661 -127.983986 10.985170
endloop
endfacet
facet normal 0.000000 -1.000000 0.000000
outer loop
vertex -56.281849 -127.983986 5.482355
vertex -56.683018 -127.983986 10.985170
vertex -59.781849 -127.983986 8.982355
endloop
endfacet
facet normal 0.000000 -1.000000 0.000006
outer loop
vertex -59.781849 -127.983986 8.982355
vertex -56.683018 -127.983986 10.985170
vertex -57.056847 -127.983986 11.140017
endloop
endfacet
facet normal 0.000000 -1.000000 -0.000022
outer loop
vertex -59.781849 -127.983986 8.982355
vertex -57.056847 -127.983986 11.140017
vertex -57.377865 -127.983986 11.386339
endloop
endfacet
facet normal 0.000000 -1.000000 0.000000
outer loop
vertex -57.377865 -127.983986 11.386339
vertex -57.624187 -127.983986 11.707354
vertex -59.781849 -127.983986 8.982355
endloop
endfacet
facet normal 0.000000 -1.000000 0.000012
outer loop
vertex -59.781849 -127.983986 8.982355
vertex -57.624187 -127.983986 11.707354
vertex -57.779034 -127.983986 12.081186
endloop
endfacet
facet normal 0.000000 -1.000000 0.000014
outer loop
vertex -59.781849 -127.983986 8.982355
vertex -57.779034 -127.983986 12.081186
vertex -57.831848 -127.983986 12.482355
endloop
endfacet
facet normal 0.000000 -1.000000 0.000000
outer loop
vertex -59.781849 -127.983986 8.982355
vertex -57.831848 -127.983986 12.482355
vertex -59.781849 -127.983986 15.982355
endloop
endfacet
facet normal 0.000000 -1.000000 0.000000
outer loop
vertex -59.781849 -127.983986 15.982355
vertex -57.831848 -127.983986 12.482355
vertex -57.831848 -127.983986 15.981989
endloop
endfacet
facet normal 0.000000 -1.000000 -0.000017
outer loop
vertex -59.781849 -127.983986 15.982355
vertex -57.831848 -127.983986 15.981989
vertex -57.779034 -127.983986 16.383165
endloop
endfacet
facet normal 0.000000 -1.000000 0.000000
outer loop
vertex -57.779034 -127.983986 16.383165
vertex -57.624187 -127.983986 16.756990
vertex -59.781849 -127.983986 15.982355
endloop
endfacet
facet normal 0.000000 -1.000000 -0.000030
outer loop
vertex -59.781849 -127.983986 15.982355
vertex -57.624187 -127.983986 16.756990
vertex -57.377865 -127.983986 17.078005
endloop
endfacet
facet normal 0.000000 -1.000000 0.000013
outer loop
vertex -59.781849 -127.983986 15.982355
vertex -57.377865 -127.983986 17.078005
vertex -56.281849 -127.983986 19.482355
endloop
endfacet
facet normal 0.000000 -1.000000 -0.000030
outer loop
vertex -56.281849 -127.983986 19.482355
vertex -57.377865 -127.983986 17.078005
vertex -57.056847 -127.983986 17.324335
endloop
endfacet
facet normal 0.000000 -1.000000 0.000011
outer loop
vertex -56.281849 -127.983986 19.482355
vertex -57.056847 -127.983986 17.324335
vertex -56.683018 -127.983986 17.479174
endloop
endfacet
facet normal 0.000000 -1.000000 0.000000
outer loop
vertex -56.281849 -127.983986 17.531992
vertex -56.281849 -127.983986 17.532351
vertex -56.683018 -127.983986 17.479174
endloop
endfacet
facet normal 0.000000 -1.000000 0.000000
outer loop
vertex -56.683018 -127.983986 17.479174
vertex -56.281849 -127.983986 17.532351
vertex -56.281849 -127.983986 19.482355
endloop
endfacet
facet normal 0.000000 -1.000000 0.000000
outer loop
vertex -56.281849 -127.983986 19.482355
vertex -56.281849 -127.983986 17.532351
vertex -49.281849 -127.983986 19.482355
endloop
endfacet
facet normal 0.000000 -1.000000 0.000000
outer loop
vertex -49.281849 -127.983986 5.482355
vertex -45.781849 -127.983986 8.982355
vertex -48.880661 -127.983986 10.985170
endloop
endfacet
facet normal 0.000000 1.000000 0.000000
outer loop
vertex -51.231850 -123.993988 19.482355
vertex -49.281849 -123.993988 19.482355
vertex -51.231850 -123.993988 12.482500
endloop
endfacet
facet normal 0.000000 1.000000 0.000000
outer loop
vertex -51.231850 -123.993988 12.482500
vertex -49.281849 -123.993988 19.482355
vertex -45.781849 -123.993988 15.982355
endloop
endfacet
facet normal 0.000000 1.000000 0.000000
outer loop
vertex -51.231850 -123.993988 12.482500
vertex -45.781849 -123.993988 15.982355
vertex -45.781849 -123.993988 8.982355
endloop
endfacet
facet normal 0.000000 1.000000 0.000000
outer loop
vertex -49.281849 -123.993988 5.482355
vertex -51.685768 -123.993988 11.386400
vertex -45.781849 -123.993988 8.982355
endloop
endfacet
facet normal 0.000000 1.000000 0.000012
outer loop
vertex -45.781849 -123.993988 8.982355
vertex -51.685768 -123.993988 11.386400
vertex -51.439453 -123.993988 11.707445
endloop
endfacet
facet normal 0.000000 1.000000 0.000012
outer loop
vertex -45.781849 -123.993988 8.982355
vertex -51.439453 -123.993988 11.707445
vertex -51.284630 -123.993988 12.081308
endloop
endfacet
facet normal 0.000000 1.000000 0.000002
outer loop
vertex -56.281849 -123.993988 5.482355
vertex -52.781811 -123.993988 10.932352
vertex -49.281849 -123.993988 5.482355
endloop
endfacet
facet normal 0.000000 1.000000 0.000000
outer loop
vertex -49.281849 -123.993988 5.482355
vertex -52.781811 -123.993988 10.932352
vertex -52.380627 -123.993988 10.985178
endloop
endfacet
facet normal 0.000000 1.000000 -0.000015
outer loop
vertex -49.281849 -123.993988 5.482355
vertex -52.380627 -123.993988 10.985178
vertex -52.006786 -123.993988 11.140047
endloop
endfacet
facet normal 0.000000 1.000000 0.000002
outer loop
vertex -59.781849 -123.993988 8.982355
vertex -53.877876 -123.993988 11.386347
vertex -56.281849 -123.993988 5.482355
endloop
endfacet
facet normal 0.000000 1.000000 -0.000006
outer loop
vertex -56.281849 -123.993988 5.482355
vertex -53.877876 -123.993988 11.386347
vertex -53.556847 -123.993988 11.140017
endloop
endfacet
facet normal 0.000000 1.000000 0.000009
outer loop
vertex -56.281849 -123.993988 5.482355
vertex -53.556847 -123.993988 11.140017
vertex -53.182999 -123.993988 10.985163
endloop
endfacet
facet normal 0.000000 1.000000 0.000000
outer loop
vertex -59.781849 -123.993988 15.982355
vertex -54.331848 -123.993988 12.482424
vertex -59.781849 -123.993988 8.982355
endloop
endfacet
facet normal 0.000000 1.000000 0.000015
outer loop
vertex -59.781849 -123.993988 8.982355
vertex -54.331848 -123.993988 12.482424
vertex -54.279045 -123.993988 12.081232
endloop
endfacet
facet normal 0.000000 1.000000 0.000012
outer loop
vertex -59.781849 -123.993988 8.982355
vertex -54.279045 -123.993988 12.081232
vertex -54.124207 -123.993988 11.707384
endloop
endfacet
facet normal 0.000000 1.000000 -0.000001
outer loop
vertex -59.781849 -123.993988 15.982355
vertex -56.281849 -123.993988 19.482355
vertex -54.331848 -123.993988 12.482424
endloop
endfacet
facet normal 0.000000 1.000000 0.000000
outer loop
vertex -54.331848 -123.993988 12.482424
vertex -56.281849 -123.993988 19.482355
vertex -54.331848 -123.993988 19.482355
endloop
endfacet
facet normal 0.000000 1.000000 -0.000049
outer loop
vertex -54.124207 -123.993988 11.707384
vertex -53.877876 -123.993988 11.386347
vertex -59.781849 -123.993988 8.982355
endloop
endfacet
facet normal 0.000000 1.000000 0.000026
outer loop
vertex -53.182999 -123.993988 10.985163
vertex -52.781811 -123.993988 10.932352
vertex -56.281849 -123.993988 5.482355
endloop
endfacet
facet normal 0.000000 1.000000 0.000000
outer loop
vertex -52.006786 -123.993988 11.140047
vertex -51.685768 -123.993988 11.386400
vertex -49.281849 -123.993988 5.482355
endloop
endfacet
facet normal 0.000000 1.000000 0.000000
outer loop
vertex -51.284630 -123.993988 12.081308
vertex -51.231850 -123.993988 12.482500
vertex -45.781849 -123.993988 8.982355
endloop
endfacet
endsolid ShogiChessCncAndPLA v2.028
