solid ShogiChessCncAndPLA v2.020
facet normal -0.608752 0.000000 0.793361
outer loop
vertex -164.241379 -125.488991 -16.724768
vertex -164.241379 -123.993988 -16.724768
vertex -164.562393 -125.488991 -16.971090
endloop
endfacet
facet normal -0.608764 0.000000 0.793351
outer loop
vertex -164.562393 -125.488991 -16.971090
vertex -164.241379 -123.993988 -16.724768
vertex -164.562393 -123.993988 -16.971090
endloop
endfacet
facet normal -0.382676 0.000000 0.923883
outer loop
vertex -164.562393 -125.488991 -16.971090
vertex -164.562393 -123.993988 -16.971090
vertex -164.936234 -125.488991 -17.125937
endloop
endfacet
facet normal -0.382681 0.000000 0.923880
outer loop
vertex -164.936234 -125.488991 -17.125937
vertex -164.562393 -123.993988 -16.971090
vertex -164.936234 -123.993988 -17.125937
endloop
endfacet
facet normal -0.130548 0.000000 0.991442
outer loop
vertex -164.936234 -125.488991 -17.125937
vertex -164.936234 -123.993988 -17.125937
vertex -165.337402 -125.488991 -17.178762
endloop
endfacet
facet normal -0.130555 0.000000 0.991441
outer loop
vertex -165.337402 -125.488991 -17.178762
vertex -164.936234 -123.993988 -17.125937
vertex -165.337402 -123.993988 -17.178762
endloop
endfacet
facet normal 0.130555 0.000000 0.991441
outer loop
vertex -165.337402 -125.488991 -17.178762
vertex -165.337402 -123.993988 -17.178762
vertex -165.738571 -125.488991 -17.125937
endloop
endfacet
facet normal 0.130548 0.000000 0.991442
outer loop
vertex -165.738571 -125.488991 -17.125937
vertex -165.337402 -123.993988 -17.178762
vertex -165.738571 -123.993988 -17.125937
endloop
endfacet
facet normal 0.382694 0.000000 0.923875
outer loop
vertex -165.738571 -125.488991 -17.125937
vertex -165.738571 -123.993988 -17.125937
vertex -166.112396 -125.488991 -16.971090
endloop
endfacet
facet normal 0.382689 0.000000 0.923877
outer loop
vertex -166.112396 -125.488991 -16.971090
vertex -165.738571 -123.993988 -17.125937
vertex -166.112396 -123.993988 -16.971090
endloop
endfacet
facet normal 0.608752 0.000000 0.793361
outer loop
vertex -166.112396 -125.488991 -16.971090
vertex -166.112396 -123.993988 -16.971090
vertex -166.433411 -125.488991 -16.724768
endloop
endfacet
facet normal 0.608764 0.000000 0.793351
outer loop
vertex -166.433411 -125.488991 -16.724768
vertex -166.112396 -123.993988 -16.971090
vertex -166.433411 -123.993988 -16.724768
endloop
endfacet
facet normal 0.793353 0.000000 0.608762
outer loop
vertex -166.433411 -125.488991 -16.724768
vertex -166.433411 -123.993988 -16.724768
vertex -166.679733 -125.488991 -16.403753
endloop
endfacet
facet normal 0.793357 0.000000 0.608757
outer loop
vertex -166.679733 -125.488991 -16.403753
vertex -166.433411 -123.993988 -16.724768
vertex -166.679733 -123.993988 -16.403753
endloop
endfacet
facet normal 0.923878 0.000000 0.382687
outer loop
vertex -166.679733 -125.488991 -16.403753
vertex -166.679733 -123.993988 -16.403753
vertex -166.834579 -125.488991 -16.029928
endloop
endfacet
facet normal 0.923877 0.000000 0.382689
outer loop
vertex -166.834579 -125.488991 -16.029928
vertex -166.679733 -123.993988 -16.403753
vertex -166.834579 -123.993988 -16.029928
endloop
endfacet
facet normal 0.991446 0.000000 0.130517
outer loop
vertex -166.834579 -125.488991 -16.029928
vertex -166.834579 -123.993988 -16.029928
vertex -166.887390 -125.488991 -15.628759
endloop
endfacet
facet normal 0.991446 0.000000 0.130515
outer loop
vertex -166.887390 -125.488991 -15.628759
vertex -166.834579 -123.993988 -16.029928
vertex -166.887390 -123.993988 -15.628759
endloop
endfacet
facet normal 0.991446 0.000000 -0.130517
outer loop
vertex -166.887390 -125.488991 -15.628759
vertex -166.887390 -123.993988 -15.628759
vertex -166.834579 -125.488991 -15.227591
endloop
endfacet
facet normal 0.991446 0.000000 -0.130515
outer loop
vertex -166.834579 -125.488991 -15.227591
vertex -166.887390 -123.993988 -15.628759
vertex -166.834579 -123.993988 -15.227591
endloop
endfacet
facet normal 0.923877 0.000000 -0.382689
outer loop
vertex -166.834579 -125.488991 -15.227591
vertex -166.834579 -123.993988 -15.227591
vertex -166.679733 -125.488991 -14.853765
endloop
endfacet
facet normal 0.923877 0.000000 -0.382689
outer loop
vertex -166.679733 -125.488991 -14.853765
vertex -166.834579 -123.993988 -15.227591
vertex -166.679733 -123.993988 -14.853765
endloop
endfacet
facet normal 0.793367 0.000000 -0.608744
outer loop
vertex -166.679733 -125.488991 -14.853765
vertex -166.679733 -123.993988 -14.853765
vertex -166.433411 -125.488991 -14.532736
endloop
endfacet
facet normal 0.793371 0.000000 -0.608739
outer loop
vertex -166.433411 -125.488991 -14.532736
vertex -166.679733 -123.993988 -14.853765
vertex -166.433411 -123.993988 -14.532736
endloop
endfacet
facet normal -0.707109 0.000000 0.707105
outer loop
vertex -158.337402 -123.993988 -10.820791
vertex -164.241379 -123.993988 -16.724768
vertex -158.337402 -125.488991 -10.820791
endloop
endfacet
facet normal -0.707104 0.000000 0.707110
outer loop
vertex -158.337402 -125.488991 -10.820791
vertex -164.241379 -123.993988 -16.724768
vertex -164.241379 -125.488991 -16.724768
endloop
endfacet
facet normal 0.707104 0.000000 0.707110
outer loop
vertex -152.433411 -123.993988 -16.724768
vertex -158.337402 -123.993988 -10.820791
vertex -152.433411 -125.488991 -16.724768
endloop
endfacet
facet normal 0.707104 0.000000 0.707110
outer loop
vertex -152.433411 -125.488991 -16.724768
vertex -158.337402 -123.993988 -10.820791
vertex -158.337402 -125.488991 -10.820791
endloop
endfacet
facet normal -0.793365 0.000000 -0.608747
outer loop
vertex -150.241379 -125.488991 -14.532736
vertex -150.241379 -123.993988 -14.532736
vertex -149.995056 -125.488991 -14.853765
endloop
endfacet
facet normal -0.793373 0.000000 -0.608736
outer loop
vertex -149.995056 -125.488991 -14.853765
vertex -150.241379 -123.993988 -14.532736
vertex -149.995056 -123.993988 -14.853765
endloop
endfacet
facet normal -0.923877 0.000000 -0.382689
outer loop
vertex -149.995056 -125.488991 -14.853765
vertex -149.995056 -123.993988 -14.853765
vertex -149.840210 -125.488991 -15.227591
endloop
endfacet
facet normal -0.923877 0.000000 -0.382689
outer loop
vertex -149.840210 -125.488991 -15.227591
vertex -149.995056 -123.993988 -14.853765
vertex -149.840210 -123.993988 -15.227591
endloop
endfacet
facet normal -0.991446 0.000000 -0.130517
outer loop
vertex -149.840210 -125.488991 -15.227591
vertex -149.840210 -123.993988 -15.227591
vertex -149.787399 -125.488991 -15.628759
endloop
endfacet
facet normal -0.991446 0.000000 -0.130516
outer loop
vertex -149.787399 -125.488991 -15.628759
vertex -149.840210 -123.993988 -15.227591
vertex -149.787399 -123.993988 -15.628759
endloop
endfacet
facet normal -0.991446 0.000000 0.130517
outer loop
vertex -149.787399 -125.488991 -15.628759
vertex -149.787399 -123.993988 -15.628759
vertex -149.840210 -125.488991 -16.029928
endloop
endfacet
facet normal -0.991446 0.000000 0.130516
outer loop
vertex -149.840210 -125.488991 -16.029928
vertex -149.787399 -123.993988 -15.628759
vertex -149.840210 -123.993988 -16.029928
endloop
endfacet
facet normal -0.923877 0.000000 0.382689
outer loop
vertex -149.840210 -125.488991 -16.029928
vertex -149.840210 -123.993988 -16.029928
vertex -149.995056 -125.488991 -16.403753
endloop
endfacet
facet normal -0.923878 0.000000 0.382687
outer loop
vertex -149.995056 -125.488991 -16.403753
vertex -149.840210 -123.993988 -16.029928
vertex -149.995056 -123.993988 -16.403753
endloop
endfacet
facet normal -0.793351 0.000000 0.608765
outer loop
vertex -149.995056 -125.488991 -16.403753
vertex -149.995056 -123.993988 -16.403753
vertex -150.241379 -125.488991 -16.724768
endloop
endfacet
facet normal -0.793359 0.000000 0.608754
outer loop
vertex -150.241379 -125.488991 -16.724768
vertex -149.995056 -123.993988 -16.403753
vertex -150.241379 -123.993988 -16.724768
endloop
endfacet
facet normal -0.608752 0.000000 0.793361
outer loop
vertex -150.241379 -125.488991 -16.724768
vertex -150.241379 -123.993988 -16.724768
vertex -150.562393 -125.488991 -16.971090
endloop
endfacet
facet normal -0.608764 0.000000 0.793351
outer loop
vertex -150.562393 -125.488991 -16.971090
vertex -150.241379 -123.993988 -16.724768
vertex -150.562393 -123.993988 -16.971090
endloop
endfacet
facet normal -0.382676 0.000000 0.923883
outer loop
vertex -150.562393 -125.488991 -16.971090
vertex -150.562393 -123.993988 -16.971090
vertex -150.936234 -125.488991 -17.125937
endloop
endfacet
facet normal -0.382681 0.000000 0.923880
outer loop
vertex -150.936234 -125.488991 -17.125937
vertex -150.562393 -123.993988 -16.971090
vertex -150.936234 -123.993988 -17.125937
endloop
endfacet
facet normal -0.130548 0.000000 0.991442
outer loop
vertex -150.936234 -125.488991 -17.125937
vertex -150.936234 -123.993988 -17.125937
vertex -151.337402 -125.488991 -17.178762
endloop
endfacet
facet normal -0.130555 0.000000 0.991441
outer loop
vertex -151.337402 -125.488991 -17.178762
vertex -150.936234 -123.993988 -17.125937
vertex -151.337402 -123.993988 -17.178762
endloop
endfacet
facet normal 0.130555 0.000000 0.991441
outer loop
vertex -151.337402 -125.488991 -17.178762
vertex -151.337402 -123.993988 -17.178762
vertex -151.738571 -125.488991 -17.125937
endloop
endfacet
facet normal 0.130548 0.000000 0.991442
outer loop
vertex -151.738571 -125.488991 -17.125937
vertex -151.337402 -123.993988 -17.178762
vertex -151.738571 -123.993988 -17.125937
endloop
endfacet
facet normal 0.382694 0.000000 0.923875
outer loop
vertex -151.738571 -125.488991 -17.125937
vertex -151.738571 -123.993988 -17.125937
vertex -152.112396 -125.488991 -16.971090
endloop
endfacet
facet normal 0.382689 0.000000 0.923877
outer loop
vertex -152.112396 -125.488991 -16.971090
vertex -151.738571 -123.993988 -17.125937
vertex -152.112396 -123.993988 -16.971090
endloop
endfacet
facet normal 0.608752 0.000000 0.793361
outer loop
vertex -152.112396 -125.488991 -16.971090
vertex -152.112396 -123.993988 -16.971090
vertex -152.433411 -125.488991 -16.724768
endloop
endfacet
facet normal 0.608764 0.000000 0.793351
outer loop
vertex -152.433411 -125.488991 -16.724768
vertex -152.112396 -123.993988 -16.971090
vertex -152.433411 -123.993988 -16.724768
endloop
endfacet
facet normal -0.707104 0.000000 -0.707110
outer loop
vertex -156.145370 -123.993988 -8.628759
vertex -150.241379 -123.993988 -14.532736
vertex -156.145370 -125.488991 -8.628759
endloop
endfacet
facet normal -0.707104 0.000000 -0.707110
outer loop
vertex -156.145370 -125.488991 -8.628759
vertex -150.241379 -123.993988 -14.532736
vertex -150.241379 -125.488991 -14.532736
endloop
endfacet
facet normal -0.707105 0.000000 0.707109
outer loop
vertex -150.241379 -123.993988 -2.724768
vertex -156.145370 -123.993988 -8.628759
vertex -150.241379 -125.488991 -2.724768
endloop
endfacet
facet normal -0.707105 0.000000 0.707109
outer loop
vertex -150.241379 -125.488991 -2.724768
vertex -156.145370 -123.993988 -8.628759
vertex -156.145370 -125.488991 -8.628759
endloop
endfacet
facet normal 0.608753 0.000000 -0.793360
outer loop
vertex -152.433411 -125.488991 -0.532736
vertex -152.433411 -123.993988 -0.532736
vertex -152.112396 -125.488991 -0.286413
endloop
endfacet
facet normal 0.608765 0.000000 -0.793350
outer loop
vertex -152.112396 -125.488991 -0.286413
vertex -152.433411 -123.993988 -0.532736
vertex -152.112396 -123.993988 -0.286413
endloop
endfacet
facet normal 0.382690 0.000000 -0.923877
outer loop
vertex -152.112396 -125.488991 -0.286413
vertex -152.112396 -123.993988 -0.286413
vertex -151.738571 -125.488991 -0.131567
endloop
endfacet
facet normal 0.382690 0.000000 -0.923877
outer loop
vertex -151.738571 -125.488991 -0.131567
vertex -152.112396 -123.993988 -0.286413
vertex -151.738571 -123.993988 -0.131567
endloop
endfacet
facet normal 0.130516 0.000000 -0.991446
outer loop
vertex -151.738571 -125.488991 -0.131567
vertex -151.738571 -123.993988 -0.131567
vertex -151.337402 -125.488991 -0.078756
endloop
endfacet
facet normal 0.130516 0.000000 -0.991446
outer loop
vertex -151.337402 -125.488991 -0.078756
vertex -151.738571 -123.993988 -0.131567
vertex -151.337402 -123.993988 -0.078756
endloop
endfacet
facet normal -0.130516 0.000000 -0.991446
outer loop
vertex -151.337402 -125.488991 -0.078756
vertex -151.337402 -123.993988 -0.078756
vertex -150.936234 -125.488991 -0.131567
endloop
endfacet
facet normal -0.130516 0.000000 -0.991446
outer loop
vertex -150.936234 -125.488991 -0.131567
vertex -151.337402 -123.993988 -0.078756
vertex -150.936234 -123.993988 -0.131567
endloop
endfacet
facet normal -0.382677 0.000000 -0.923882
outer loop
vertex -150.936234 -125.488991 -0.131567
vertex -150.936234 -123.993988 -0.131567
vertex -150.562393 -125.488991 -0.286413
endloop
endfacet
facet normal -0.382676 0.000000 -0.923882
outer loop
vertex -150.562393 -125.488991 -0.286413
vertex -150.936234 -123.993988 -0.131567
vertex -150.562393 -123.993988 -0.286413
endloop
endfacet
facet normal -0.608753 0.000000 -0.793360
outer loop
vertex -150.562393 -125.488991 -0.286413
vertex -150.562393 -123.993988 -0.286413
vertex -150.241379 -125.488991 -0.532736
endloop
endfacet
facet normal -0.608765 0.000000 -0.793350
outer loop
vertex -150.241379 -125.488991 -0.532736
vertex -150.562393 -123.993988 -0.286413
vertex -150.241379 -123.993988 -0.532736
endloop
endfacet
facet normal -0.793366 0.000000 -0.608745
outer loop
vertex -150.241379 -125.488991 -0.532736
vertex -150.241379 -123.993988 -0.532736
vertex -149.995056 -125.488991 -0.853765
endloop
endfacet
facet normal -0.793372 0.000000 -0.608737
outer loop
vertex -149.995056 -125.488991 -0.853765
vertex -150.241379 -123.993988 -0.532736
vertex -149.995056 -123.993988 -0.853765
endloop
endfacet
facet normal -0.923878 0.000000 -0.382688
outer loop
vertex -149.995056 -125.488991 -0.853765
vertex -149.995056 -123.993988 -0.853765
vertex -149.840210 -125.488991 -1.227591
endloop
endfacet
facet normal -0.923877 0.000000 -0.382689
outer loop
vertex -149.840210 -125.488991 -1.227591
vertex -149.995056 -123.993988 -0.853765
vertex -149.840210 -123.993988 -1.227591
endloop
endfacet
facet normal -0.991446 0.000000 -0.130517
outer loop
vertex -149.840210 -125.488991 -1.227591
vertex -149.840210 -123.993988 -1.227591
vertex -149.787399 -125.488991 -1.628759
endloop
endfacet
facet normal -0.991446 0.000000 -0.130516
outer loop
vertex -149.787399 -125.488991 -1.628759
vertex -149.840210 -123.993988 -1.227591
vertex -149.787399 -123.993988 -1.628759
endloop
endfacet
facet normal -0.991446 0.000000 0.130517
outer loop
vertex -149.787399 -125.488991 -1.628759
vertex -149.787399 -123.993988 -1.628759
vertex -149.840210 -125.488991 -2.029928
endloop
endfacet
facet normal -0.991446 0.000000 0.130516
outer loop
vertex -149.840210 -125.488991 -2.029928
vertex -149.787399 -123.993988 -1.628759
vertex -149.840210 -123.993988 -2.029928
endloop
endfacet
facet normal -0.923877 0.000000 0.382689
outer loop
vertex -149.840210 -125.488991 -2.029928
vertex -149.840210 -123.993988 -2.029928
vertex -149.995056 -125.488991 -2.403753
endloop
endfacet
facet normal -0.923877 0.000000 0.382689
outer loop
vertex -149.995056 -125.488991 -2.403753
vertex -149.840210 -123.993988 -2.029928
vertex -149.995056 -123.993988 -2.403753
endloop
endfacet
facet normal -0.793352 0.000000 0.608764
outer loop
vertex -149.995056 -125.488991 -2.403753
vertex -149.995056 -123.993988 -2.403753
vertex -150.241379 -125.488991 -2.724768
endloop
endfacet
facet normal -0.793358 0.000000 0.608756
outer loop
vertex -150.241379 -125.488991 -2.724768
vertex -149.995056 -123.993988 -2.403753
vertex -150.241379 -123.993988 -2.724768
endloop
endfacet
facet normal 0.707109 0.000000 -0.707105
outer loop
vertex -166.433411 -123.993988 -14.532736
vertex -160.529434 -123.993988 -8.628759
vertex -166.433411 -125.488991 -14.532736
endloop
endfacet
facet normal 0.707104 0.000000 -0.707110
outer loop
vertex -166.433411 -125.488991 -14.532736
vertex -160.529434 -123.993988 -8.628759
vertex -160.529434 -125.488991 -8.628759
endloop
endfacet
facet normal 0.707110 0.000000 0.707104
outer loop
vertex -160.529434 -123.993988 -8.628759
vertex -166.433411 -123.993988 -2.724768
vertex -160.529434 -125.488991 -8.628759
endloop
endfacet
facet normal 0.707105 0.000000 0.707109
outer loop
vertex -160.529434 -125.488991 -8.628759
vertex -166.433411 -123.993988 -2.724768
vertex -166.433411 -125.488991 -2.724768
endloop
endfacet
facet normal 0.793352 0.000000 0.608764
outer loop
vertex -166.433411 -125.488991 -2.724768
vertex -166.433411 -123.993988 -2.724768
vertex -166.679733 -125.488991 -2.403753
endloop
endfacet
facet normal 0.793358 0.000000 0.608756
outer loop
vertex -166.679733 -125.488991 -2.403753
vertex -166.433411 -123.993988 -2.724768
vertex -166.679733 -123.993988 -2.403753
endloop
endfacet
facet normal 0.923877 0.000000 0.382689
outer loop
vertex -166.679733 -125.488991 -2.403753
vertex -166.679733 -123.993988 -2.403753
vertex -166.834579 -125.488991 -2.029928
endloop
endfacet
facet normal 0.923877 0.000000 0.382689
outer loop
vertex -166.834579 -125.488991 -2.029928
vertex -166.679733 -123.993988 -2.403753
vertex -166.834579 -123.993988 -2.029928
endloop
endfacet
facet normal 0.991446 0.000000 0.130517
outer loop
vertex -166.834579 -125.488991 -2.029928
vertex -166.834579 -123.993988 -2.029928
vertex -166.887390 -125.488991 -1.628759
endloop
endfacet
facet normal 0.991446 0.000000 0.130516
outer loop
vertex -166.887390 -125.488991 -1.628759
vertex -166.834579 -123.993988 -2.029928
vertex -166.887390 -123.993988 -1.628759
endloop
endfacet
facet normal 0.991446 0.000000 -0.130517
outer loop
vertex -166.887390 -125.488991 -1.628759
vertex -166.887390 -123.993988 -1.628759
vertex -166.834579 -125.488991 -1.227591
endloop
endfacet
facet normal 0.991446 0.000000 -0.130516
outer loop
vertex -166.834579 -125.488991 -1.227591
vertex -166.887390 -123.993988 -1.628759
vertex -166.834579 -123.993988 -1.227591
endloop
endfacet
facet normal 0.923877 0.000000 -0.382689
outer loop
vertex -166.834579 -125.488991 -1.227591
vertex -166.834579 -123.993988 -1.227591
vertex -166.679733 -125.488991 -0.853765
endloop
endfacet
facet normal 0.923878 0.000000 -0.382688
outer loop
vertex -166.679733 -125.488991 -0.853765
vertex -166.834579 -123.993988 -1.227591
vertex -166.679733 -123.993988 -0.853765
endloop
endfacet
facet normal 0.793366 0.000000 -0.608745
outer loop
vertex -166.679733 -125.488991 -0.853765
vertex -166.679733 -123.993988 -0.853765
vertex -166.433411 -125.488991 -0.532736
endloop
endfacet
facet normal 0.793372 0.000000 -0.608737
outer loop
vertex -166.433411 -125.488991 -0.532736
vertex -166.679733 -123.993988 -0.853765
vertex -166.433411 -123.993988 -0.532736
endloop
endfacet
facet normal 0.608753 0.000000 -0.793360
outer loop
vertex -166.433411 -125.488991 -0.532736
vertex -166.433411 -123.993988 -0.532736
vertex -166.112396 -125.488991 -0.286413
endloop
endfacet
facet normal 0.608765 0.000000 -0.793350
outer loop
vertex -166.112396 -125.488991 -0.286413
vertex -166.433411 -123.993988 -0.532736
vertex -166.112396 -123.993988 -0.286413
endloop
endfacet
facet normal 0.382690 0.000000 -0.923877
outer loop
vertex -166.112396 -125.488991 -0.286413
vertex -166.112396 -123.993988 -0.286413
vertex -165.738571 -125.488991 -0.131567
endloop
endfacet
facet normal 0.382690 0.000000 -0.923877
outer loop
vertex -165.738571 -125.488991 -0.131567
vertex -166.112396 -123.993988 -0.286413
vertex -165.738571 -123.993988 -0.131567
endloop
endfacet
facet normal 0.130516 0.000000 -0.991446
outer loop
vertex -165.738571 -125.488991 -0.131567
vertex -165.738571 -123.993988 -0.131567
vertex -165.337402 -125.488991 -0.078756
endloop
endfacet
facet normal 0.130516 0.000000 -0.991446
outer loop
vertex -165.337402 -125.488991 -0.078756
vertex -165.738571 -123.993988 -0.131567
vertex -165.337402 -123.993988 -0.078756
endloop
endfacet
facet normal -0.130516 0.000000 -0.991446
outer loop
vertex -165.337402 -125.488991 -0.078756
vertex -165.337402 -123.993988 -0.078756
vertex -164.936234 -125.488991 -0.131567
endloop
endfacet
facet normal -0.130516 0.000000 -0.991446
outer loop
vertex -164.936234 -125.488991 -0.131567
vertex -165.337402 -123.993988 -0.078756
vertex -164.936234 -123.993988 -0.131567
endloop
endfacet
facet normal -0.382677 0.000000 -0.923882
outer loop
vertex -164.936234 -125.488991 -0.131567
vertex -164.936234 -123.993988 -0.131567
vertex -164.562393 -125.488991 -0.286413
endloop
endfacet
facet normal -0.382676 0.000000 -0.923882
outer loop
vertex -164.562393 -125.488991 -0.286413
vertex -164.936234 -123.993988 -0.131567
vertex -164.562393 -123.993988 -0.286413
endloop
endfacet
facet normal -0.608753 0.000000 -0.793360
outer loop
vertex -164.562393 -125.488991 -0.286413
vertex -164.562393 -123.993988 -0.286413
vertex -164.241379 -125.488991 -0.532736
endloop
endfacet
facet normal -0.608765 0.000000 -0.793350
outer loop
vertex -164.241379 -125.488991 -0.532736
vertex -164.562393 -123.993988 -0.286413
vertex -164.241379 -123.993988 -0.532736
endloop
endfacet
facet normal -0.707110 0.000000 -0.707104
outer loop
vertex -164.241379 -123.993988 -0.532736
vertex -158.337402 -123.993988 -6.436728
vertex -164.241379 -125.488991 -0.532736
endloop
endfacet
facet normal -0.707105 0.000000 -0.707109
outer loop
vertex -164.241379 -125.488991 -0.532736
vertex -158.337402 -123.993988 -6.436728
vertex -158.337402 -125.488991 -6.436728
endloop
endfacet
facet normal 0.707105 0.000000 -0.707109
outer loop
vertex -158.337402 -123.993988 -6.436728
vertex -152.433411 -123.993988 -0.532736
vertex -158.337402 -125.488991 -6.436728
endloop
endfacet
facet normal 0.707105 0.000000 -0.707109
outer loop
vertex -158.337402 -125.488991 -6.436728
vertex -152.433411 -123.993988 -0.532736
vertex -152.433411 -125.488991 -0.532736
endloop
endfacet
facet normal 0.000000 1.000000 0.000000
outer loop
vertex -152.433411 -125.488991 -0.532736
vertex -150.241379 -125.488991 -2.724768
vertex -158.337402 -125.488991 -6.436728
endloop
endfacet
facet normal 0.000000 1.000000 0.000000
outer loop
vertex -158.337402 -125.488991 -6.436728
vertex -150.241379 -125.488991 -2.724768
vertex -156.145370 -125.488991 -8.628759
endloop
endfacet
facet normal 0.000000 1.000000 0.000000
outer loop
vertex -158.337402 -125.488991 -6.436728
vertex -156.145370 -125.488991 -8.628759
vertex -160.529434 -125.488991 -8.628759
endloop
endfacet
facet normal 0.000000 1.000000 0.000000
outer loop
vertex -160.529434 -125.488991 -8.628759
vertex -156.145370 -125.488991 -8.628759
vertex -158.337402 -125.488991 -10.820791
endloop
endfacet
facet normal 0.000000 1.000000 0.000000
outer loop
vertex -160.529434 -125.488991 -8.628759
vertex -158.337402 -125.488991 -10.820791
vertex -166.433411 -125.488991 -14.532736
endloop
endfacet
facet normal 0.000000 1.000000 0.000000
outer loop
vertex -166.433411 -125.488991 -14.532736
vertex -158.337402 -125.488991 -10.820791
vertex -164.241379 -125.488991 -16.724768
endloop
endfacet
facet normal 0.000000 1.000000 0.000000
outer loop
vertex -166.433411 -125.488991 -14.532736
vertex -164.241379 -125.488991 -16.724768
vertex -166.679733 -125.488991 -14.853765
endloop
endfacet
facet normal 0.000000 1.000000 -0.000051
outer loop
vertex -166.679733 -125.488991 -14.853765
vertex -164.241379 -125.488991 -16.724768
vertex -166.834579 -125.488991 -15.227591
endloop
endfacet
facet normal 0.000000 1.000000 0.000055
outer loop
vertex -166.834579 -125.488991 -15.227591
vertex -164.241379 -125.488991 -16.724768
vertex -166.887390 -125.488991 -15.628759
endloop
endfacet
facet normal 0.000000 1.000000 -0.000061
outer loop
vertex -166.887390 -125.488991 -15.628759
vertex -164.241379 -125.488991 -16.724768
vertex -166.834579 -125.488991 -16.029928
endloop
endfacet
facet normal 0.000000 1.000000 0.000071
outer loop
vertex -166.834579 -125.488991 -16.029928
vertex -164.241379 -125.488991 -16.724768
vertex -166.679733 -125.488991 -16.403753
endloop
endfacet
facet normal 0.000000 1.000000 0.000000
outer loop
vertex -166.679733 -125.488991 -16.403753
vertex -164.241379 -125.488991 -16.724768
vertex -166.433411 -125.488991 -16.724768
endloop
endfacet
facet normal 0.000000 1.000000 -0.000057
outer loop
vertex -166.433411 -125.488991 -16.724768
vertex -164.241379 -125.488991 -16.724768
vertex -166.112396 -125.488991 -16.971090
endloop
endfacet
facet normal 0.000000 1.000000 0.000040
outer loop
vertex -166.112396 -125.488991 -16.971090
vertex -164.241379 -125.488991 -16.724768
vertex -164.562393 -125.488991 -16.971090
endloop
endfacet
facet normal 0.000000 1.000000 0.000000
outer loop
vertex -166.112396 -125.488991 -16.971090
vertex -164.562393 -125.488991 -16.971090
vertex -165.738571 -125.488991 -17.125937
endloop
endfacet
facet normal 0.000000 1.000000 -0.000061
outer loop
vertex -165.738571 -125.488991 -17.125937
vertex -164.562393 -125.488991 -16.971090
vertex -164.936234 -125.488991 -17.125937
endloop
endfacet
facet normal 0.000000 1.000000 0.000000
outer loop
vertex -165.738571 -125.488991 -17.125937
vertex -164.936234 -125.488991 -17.125937
vertex -165.337402 -125.488991 -17.178762
endloop
endfacet
facet normal 0.000000 1.000000 -0.000080
outer loop
vertex -152.112396 -125.488991 -0.286413
vertex -150.562393 -125.488991 -0.286413
vertex -152.433411 -125.488991 -0.532736
endloop
endfacet
facet normal 0.000000 1.000000 0.000028
outer loop
vertex -152.433411 -125.488991 -0.532736
vertex -150.562393 -125.488991 -0.286413
vertex -150.241379 -125.488991 -0.532736
endloop
endfacet
facet normal 0.000000 1.000000 0.000033
outer loop
vertex -152.433411 -125.488991 -0.532736
vertex -150.241379 -125.488991 -0.532736
vertex -149.995056 -125.488991 -0.853765
endloop
endfacet
facet normal 0.000000 1.000000 0.000000
outer loop
vertex -150.562393 -125.488991 -0.286413
vertex -152.112396 -125.488991 -0.286413
vertex -150.936234 -125.488991 -0.131567
endloop
endfacet
facet normal 0.000000 1.000000 -0.000061
outer loop
vertex -150.936234 -125.488991 -0.131567
vertex -152.112396 -125.488991 -0.286413
vertex -151.738571 -125.488991 -0.131567
endloop
endfacet
facet normal 0.000000 1.000000 0.000000
outer loop
vertex -150.936234 -125.488991 -0.131567
vertex -151.738571 -125.488991 -0.131567
vertex -151.337402 -125.488991 -0.078756
endloop
endfacet
facet normal 0.000000 1.000000 -0.000071
outer loop
vertex -149.995056 -125.488991 -0.853765
vertex -149.840210 -125.488991 -1.227591
vertex -152.433411 -125.488991 -0.532736
endloop
endfacet
facet normal 0.000000 1.000000 0.000043
outer loop
vertex -152.433411 -125.488991 -0.532736
vertex -149.840210 -125.488991 -1.227591
vertex -149.787399 -125.488991 -1.628759
endloop
endfacet
facet normal 0.000000 1.000000 -0.000038
outer loop
vertex -152.433411 -125.488991 -0.532736
vertex -149.787399 -125.488991 -1.628759
vertex -149.840210 -125.488991 -2.029928
endloop
endfacet
facet normal 0.000000 1.000000 0.000051
outer loop
vertex -149.840210 -125.488991 -2.029928
vertex -149.995056 -125.488991 -2.403753
vertex -152.433411 -125.488991 -0.532736
endloop
endfacet
facet normal 0.000000 1.000000 -0.000018
outer loop
vertex -152.433411 -125.488991 -0.532736
vertex -149.995056 -125.488991 -2.403753
vertex -150.241379 -125.488991 -2.724768
endloop
endfacet
facet normal 0.000000 1.000000 0.000000
outer loop
vertex -156.145370 -125.488991 -8.628759
vertex -150.241379 -125.488991 -14.532736
vertex -158.337402 -125.488991 -10.820791
endloop
endfacet
facet normal 0.000000 1.000000 0.000000
outer loop
vertex -158.337402 -125.488991 -10.820791
vertex -150.241379 -125.488991 -14.532736
vertex -152.433411 -125.488991 -16.724768
endloop
endfacet
facet normal 0.000000 1.000000 0.000018
outer loop
vertex -152.433411 -125.488991 -16.724768
vertex -150.241379 -125.488991 -14.532736
vertex -149.995056 -125.488991 -14.853765
endloop
endfacet
facet normal 0.000000 1.000000 -0.000044
outer loop
vertex -152.433411 -125.488991 -16.724768
vertex -149.995056 -125.488991 -14.853765
vertex -149.840210 -125.488991 -15.227591
endloop
endfacet
facet normal 0.000000 1.000000 0.000055
outer loop
vertex -149.840210 -125.488991 -15.227591
vertex -149.787399 -125.488991 -15.628759
vertex -152.433411 -125.488991 -16.724768
endloop
endfacet
facet normal 0.000000 1.000000 -0.000043
outer loop
vertex -152.433411 -125.488991 -16.724768
vertex -149.787399 -125.488991 -15.628759
vertex -149.840210 -125.488991 -16.029928
endloop
endfacet
facet normal 0.000000 1.000000 0.000062
outer loop
vertex -152.433411 -125.488991 -16.724768
vertex -149.840210 -125.488991 -16.029928
vertex -149.995056 -125.488991 -16.403753
endloop
endfacet
facet normal 0.000000 1.000000 0.000000
outer loop
vertex -149.995056 -125.488991 -16.403753
vertex -150.241379 -125.488991 -16.724768
vertex -152.433411 -125.488991 -16.724768
endloop
endfacet
facet normal 0.000000 1.000000 -0.000057
outer loop
vertex -152.433411 -125.488991 -16.724768
vertex -150.241379 -125.488991 -16.724768
vertex -152.112396 -125.488991 -16.971090
endloop
endfacet
facet normal 0.000000 1.000000 0.000040
outer loop
vertex -152.112396 -125.488991 -16.971090
vertex -150.241379 -125.488991 -16.724768
vertex -150.562393 -125.488991 -16.971090
endloop
endfacet
facet normal 0.000000 1.000000 0.000000
outer loop
vertex -152.112396 -125.488991 -16.971090
vertex -150.562393 -125.488991 -16.971090
vertex -151.738571 -125.488991 -17.125937
endloop
endfacet
facet normal 0.000000 1.000000 -0.000061
outer loop
vertex -151.738571 -125.488991 -17.125937
vertex -150.562393 -125.488991 -16.971090
vertex -150.936234 -125.488991 -17.125937
endloop
endfacet
facet normal 0.000000 1.000000 0.000000
outer loop
vertex -151.738571 -125.488991 -17.125937
vertex -150.936234 -125.488991 -17.125937
vertex -151.337402 -125.488991 -17.178762
endloop
endfacet
facet normal 0.000000 1.000000 0.000000
outer loop
vertex -160.529434 -125.488991 -8.628759
vertex -166.433411 -125.488991 -2.724768
vertex -158.337402 -125.488991 -6.436728
endloop
endfacet
facet normal 0.000000 1.000000 0.000000
outer loop
vertex -158.337402 -125.488991 -6.436728
vertex -166.433411 -125.488991 -2.724768
vertex -164.241379 -125.488991 -0.532736
endloop
endfacet
facet normal 0.000000 1.000000 -0.000018
outer loop
vertex -164.241379 -125.488991 -0.532736
vertex -166.433411 -125.488991 -2.724768
vertex -166.679733 -125.488991 -2.403753
endloop
endfacet
facet normal 0.000000 1.000000 0.000044
outer loop
vertex -164.241379 -125.488991 -0.532736
vertex -166.679733 -125.488991 -2.403753
vertex -166.834579 -125.488991 -2.029928
endloop
endfacet
facet normal 0.000000 1.000000 -0.000055
outer loop
vertex -166.834579 -125.488991 -2.029928
vertex -166.887390 -125.488991 -1.628759
vertex -164.241379 -125.488991 -0.532736
endloop
endfacet
facet normal 0.000000 1.000000 0.000043
outer loop
vertex -164.241379 -125.488991 -0.532736
vertex -166.887390 -125.488991 -1.628759
vertex -166.834579 -125.488991 -1.227591
endloop
endfacet
facet normal 0.000000 1.000000 -0.000062
outer loop
vertex -164.241379 -125.488991 -0.532736
vertex -166.834579 -125.488991 -1.227591
vertex -166.679733 -125.488991 -0.853765
endloop
endfacet
facet normal 0.000000 1.000000 0.000000
outer loop
vertex -166.679733 -125.488991 -0.853765
vertex -166.433411 -125.488991 -0.532736
vertex -164.241379 -125.488991 -0.532736
endloop
endfacet
facet normal 0.000000 1.000000 0.000057
outer loop
vertex -164.241379 -125.488991 -0.532736
vertex -166.433411 -125.488991 -0.532736
vertex -164.562393 -125.488991 -0.286413
endloop
endfacet
facet normal 0.000000 1.000000 -0.000040
outer loop
vertex -164.562393 -125.488991 -0.286413
vertex -166.433411 -125.488991 -0.532736
vertex -166.112396 -125.488991 -0.286413
endloop
endfacet
facet normal 0.000000 1.000000 0.000000
outer loop
vertex -164.562393 -125.488991 -0.286413
vertex -166.112396 -125.488991 -0.286413
vertex -164.936234 -125.488991 -0.131567
endloop
endfacet
facet normal 0.000000 1.000000 -0.000061
outer loop
vertex -164.936234 -125.488991 -0.131567
vertex -166.112396 -125.488991 -0.286413
vertex -165.738571 -125.488991 -0.131567
endloop
endfacet
facet normal 0.000000 1.000000 0.000000
outer loop
vertex -164.936234 -125.488991 -0.131567
vertex -165.738571 -125.488991 -0.131567
vertex -165.337402 -125.488991 -0.078756
endloop
endfacet
facet normal 0.793365 0.000000 -0.608746
outer loop
vertex -166.433411 -126.488991 -14.532736
vertex -166.433411 -127.983986 -14.532736
vertex -166.679733 -126.488991 -14.853765
endloop
endfacet
facet normal 0.793368 0.000000 -0.608743
outer loop
vertex -166.679733 -126.488991 -14.853765
vertex -166.433411 -127.983986 -14.532736
vertex -166.679733 -127.983986 -14.853765
endloop
endfacet
facet normal 0.923877 0.000000 -0.382689
outer loop
vertex -166.679733 -126.488991 -14.853765
vertex -166.679733 -127.983986 -14.853765
vertex -166.834579 -126.488991 -15.227591
endloop
endfacet
facet normal 0.923876 0.000000 -0.382691
outer loop
vertex -166.834579 -126.488991 -15.227591
vertex -166.679733 -127.983986 -14.853765
vertex -166.834579 -127.983986 -15.227591
endloop
endfacet
facet normal 0.991446 0.000000 -0.130516
outer loop
vertex -166.834579 -126.488991 -15.227591
vertex -166.834579 -127.983986 -15.227591
vertex -166.887390 -126.488991 -15.628759
endloop
endfacet
facet normal 0.991446 0.000000 -0.130514
outer loop
vertex -166.887390 -126.488991 -15.628759
vertex -166.834579 -127.983986 -15.227591
vertex -166.887390 -127.983986 -15.628759
endloop
endfacet
facet normal 0.991446 0.000000 0.130517
outer loop
vertex -166.887390 -126.488991 -15.628759
vertex -166.887390 -127.983986 -15.628759
vertex -166.834579 -126.488991 -16.029928
endloop
endfacet
facet normal 0.991446 0.000000 0.130514
outer loop
vertex -166.834579 -126.488991 -16.029928
vertex -166.887390 -127.983986 -15.628759
vertex -166.834579 -127.983986 -16.029928
endloop
endfacet
facet normal 0.923877 0.000000 0.382689
outer loop
vertex -166.834579 -126.488991 -16.029928
vertex -166.834579 -127.983986 -16.029928
vertex -166.679733 -126.488991 -16.403753
endloop
endfacet
facet normal 0.923876 0.000000 0.382691
outer loop
vertex -166.679733 -126.488991 -16.403753
vertex -166.834579 -127.983986 -16.029928
vertex -166.679733 -127.983986 -16.403753
endloop
endfacet
facet normal 0.793354 0.000000 0.608761
outer loop
vertex -166.679733 -126.488991 -16.403753
vertex -166.679733 -127.983986 -16.403753
vertex -166.433411 -126.488991 -16.724768
endloop
endfacet
facet normal 0.793354 0.000000 0.608761
outer loop
vertex -166.433411 -126.488991 -16.724768
vertex -166.679733 -127.983986 -16.403753
vertex -166.433411 -127.983986 -16.724768
endloop
endfacet
facet normal 0.608764 0.000000 0.793351
outer loop
vertex -166.433411 -126.488991 -16.724768
vertex -166.433411 -127.983986 -16.724768
vertex -166.112396 -126.488991 -16.971090
endloop
endfacet
facet normal 0.608760 0.000000 0.793354
outer loop
vertex -166.112396 -126.488991 -16.971090
vertex -166.433411 -127.983986 -16.724768
vertex -166.112396 -127.983986 -16.971090
endloop
endfacet
facet normal 0.382689 0.000000 0.923877
outer loop
vertex -166.112396 -126.488991 -16.971090
vertex -166.112396 -127.983986 -16.971090
vertex -165.738571 -126.488991 -17.125937
endloop
endfacet
facet normal 0.382689 0.000000 0.923877
outer loop
vertex -165.738571 -126.488991 -17.125937
vertex -166.112396 -127.983986 -16.971090
vertex -165.738571 -127.983986 -17.125937
endloop
endfacet
facet normal 0.130555 0.000000 0.991441
outer loop
vertex -165.738571 -126.488991 -17.125937
vertex -165.738571 -127.983986 -17.125937
vertex -165.337402 -126.488991 -17.178762
endloop
endfacet
facet normal 0.130548 0.000000 0.991442
outer loop
vertex -165.337402 -126.488991 -17.178762
vertex -165.738571 -127.983986 -17.125937
vertex -165.337402 -127.983986 -17.178762
endloop
endfacet
facet normal -0.130548 0.000000 0.991442
outer loop
vertex -165.337402 -126.488991 -17.178762
vertex -165.337402 -127.983986 -17.178762
vertex -164.936234 -126.488991 -17.125937
endloop
endfacet
facet normal -0.130555 0.000000 0.991441
outer loop
vertex -164.936234 -126.488991 -17.125937
vertex -165.337402 -127.983986 -17.178762
vertex -164.936234 -127.983986 -17.125937
endloop
endfacet
facet normal -0.382676 0.000000 0.923883
outer loop
vertex -164.936234 -126.488991 -17.125937
vertex -164.936234 -127.983986 -17.125937
vertex -164.562393 -126.488991 -16.971090
endloop
endfacet
facet normal -0.382676 0.000000 0.923883
outer loop
vertex -164.562393 -126.488991 -16.971090
vertex -164.936234 -127.983986 -17.125937
vertex -164.562393 -127.983986 -16.971090
endloop
endfacet
facet normal -0.608760 0.000000 0.793354
outer loop
vertex -164.562393 -126.488991 -16.971090
vertex -164.562393 -127.983986 -16.971090
vertex -164.241379 -126.488991 -16.724768
endloop
endfacet
facet normal -0.608764 0.000000 0.793351
outer loop
vertex -164.241379 -126.488991 -16.724768
vertex -164.562393 -127.983986 -16.971090
vertex -164.241379 -127.983986 -16.724768
endloop
endfacet
facet normal 0.707104 0.000000 -0.707110
outer loop
vertex -160.529434 -127.983994 -8.628759
vertex -166.433411 -127.983986 -14.532736
vertex -160.529434 -126.488991 -8.628759
endloop
endfacet
facet normal 0.707107 0.000000 -0.707107
outer loop
vertex -160.529434 -126.488991 -8.628759
vertex -166.433411 -127.983986 -14.532736
vertex -166.433411 -126.488991 -14.532736
endloop
endfacet
facet normal 0.707110 0.000000 0.707104
outer loop
vertex -166.433411 -127.983994 -2.724768
vertex -160.529434 -127.983994 -8.628759
vertex -166.433411 -126.488991 -2.724768
endloop
endfacet
facet normal 0.707105 0.000000 0.707109
outer loop
vertex -166.433411 -126.488991 -2.724768
vertex -160.529434 -127.983994 -8.628759
vertex -160.529434 -126.488991 -8.628759
endloop
endfacet
facet normal -0.608759 0.000000 -0.793355
outer loop
vertex -164.241379 -126.488991 -0.532736
vertex -164.241379 -127.983994 -0.532736
vertex -164.562393 -126.488991 -0.286413
endloop
endfacet
facet normal -0.608765 0.000000 -0.793350
outer loop
vertex -164.562393 -126.488991 -0.286413
vertex -164.241379 -127.983994 -0.532736
vertex -164.562393 -127.983994 -0.286413
endloop
endfacet
facet normal -0.382672 0.000000 -0.923884
outer loop
vertex -164.562393 -126.488991 -0.286413
vertex -164.562393 -127.983994 -0.286413
vertex -164.936234 -126.488991 -0.131567
endloop
endfacet
facet normal -0.382681 0.000000 -0.923880
outer loop
vertex -164.936234 -126.488991 -0.131567
vertex -164.562393 -127.983994 -0.286413
vertex -164.936234 -127.983994 -0.131567
endloop
endfacet
facet normal -0.130515 0.000000 -0.991446
outer loop
vertex -164.936234 -126.488991 -0.131567
vertex -164.936234 -127.983994 -0.131567
vertex -165.337402 -126.488991 -0.078756
endloop
endfacet
facet normal -0.130516 0.000000 -0.991446
outer loop
vertex -165.337402 -126.488991 -0.078756
vertex -164.936234 -127.983994 -0.131567
vertex -165.337402 -127.983994 -0.078756
endloop
endfacet
facet normal 0.130515 0.000000 -0.991446
outer loop
vertex -165.337402 -126.488991 -0.078756
vertex -165.337402 -127.983994 -0.078756
vertex -165.738571 -126.488991 -0.131567
endloop
endfacet
facet normal 0.130516 0.000000 -0.991446
outer loop
vertex -165.738571 -126.488991 -0.131567
vertex -165.337402 -127.983994 -0.078756
vertex -165.738571 -127.983994 -0.131567
endloop
endfacet
facet normal 0.382685 0.000000 -0.923879
outer loop
vertex -165.738571 -126.488991 -0.131567
vertex -165.738571 -127.983994 -0.131567
vertex -166.112396 -126.488991 -0.286413
endloop
endfacet
facet normal 0.382694 0.000000 -0.923875
outer loop
vertex -166.112396 -126.488991 -0.286413
vertex -165.738571 -127.983994 -0.131567
vertex -166.112396 -127.983994 -0.286413
endloop
endfacet
facet normal 0.608759 0.000000 -0.793355
outer loop
vertex -166.112396 -126.488991 -0.286413
vertex -166.112396 -127.983994 -0.286413
vertex -166.433411 -126.488991 -0.532736
endloop
endfacet
facet normal 0.608765 0.000000 -0.793350
outer loop
vertex -166.433411 -126.488991 -0.532736
vertex -166.112396 -127.983994 -0.286413
vertex -166.433411 -127.983994 -0.532736
endloop
endfacet
facet normal 0.793366 0.000000 -0.608745
outer loop
vertex -166.433411 -126.488991 -0.532736
vertex -166.433411 -127.983994 -0.532736
vertex -166.679733 -126.488991 -0.853765
endloop
endfacet
facet normal 0.793369 0.000000 -0.608741
outer loop
vertex -166.679733 -126.488991 -0.853765
vertex -166.433411 -127.983994 -0.532736
vertex -166.679733 -127.983994 -0.853765
endloop
endfacet
facet normal 0.923875 0.000000 -0.382694
outer loop
vertex -166.679733 -126.488991 -0.853765
vertex -166.679733 -127.983994 -0.853765
vertex -166.834579 -126.488991 -1.227591
endloop
endfacet
facet normal 0.923877 0.000000 -0.382689
outer loop
vertex -166.834579 -126.488991 -1.227591
vertex -166.679733 -127.983994 -0.853765
vertex -166.834579 -127.983994 -1.227591
endloop
endfacet
facet normal 0.991446 0.000000 -0.130516
outer loop
vertex -166.834579 -126.488991 -1.227591
vertex -166.834579 -127.983994 -1.227591
vertex -166.887390 -126.488991 -1.628759
endloop
endfacet
facet normal 0.991446 0.000000 -0.130516
outer loop
vertex -166.887390 -126.488991 -1.628759
vertex -166.834579 -127.983994 -1.227591
vertex -166.887390 -127.983994 -1.628759
endloop
endfacet
facet normal 0.991446 0.000000 0.130516
outer loop
vertex -166.887390 -126.488991 -1.628759
vertex -166.887390 -127.983994 -1.628759
vertex -166.834579 -126.488991 -2.029928
endloop
endfacet
facet normal 0.991446 0.000000 0.130516
outer loop
vertex -166.834579 -126.488991 -2.029928
vertex -166.887390 -127.983994 -1.628759
vertex -166.834579 -127.983994 -2.029928
endloop
endfacet
facet normal 0.923875 0.000000 0.382694
outer loop
vertex -166.834579 -126.488991 -2.029928
vertex -166.834579 -127.983994 -2.029928
vertex -166.679733 -126.488991 -2.403753
endloop
endfacet
facet normal 0.923877 0.000000 0.382689
outer loop
vertex -166.679733 -126.488991 -2.403753
vertex -166.834579 -127.983994 -2.029928
vertex -166.679733 -127.983994 -2.403753
endloop
endfacet
facet normal 0.793352 0.000000 0.608764
outer loop
vertex -166.679733 -126.488991 -2.403753
vertex -166.679733 -127.983994 -2.403753
vertex -166.433411 -126.488991 -2.724768
endloop
endfacet
facet normal 0.793355 0.000000 0.608760
outer loop
vertex -166.433411 -126.488991 -2.724768
vertex -166.679733 -127.983994 -2.403753
vertex -166.433411 -127.983994 -2.724768
endloop
endfacet
facet normal -0.707110 0.000000 -0.707104
outer loop
vertex -158.337402 -127.983994 -6.436728
vertex -164.241379 -127.983994 -0.532736
vertex -158.337402 -126.488991 -6.436728
endloop
endfacet
facet normal -0.707105 0.000000 -0.707109
outer loop
vertex -158.337402 -126.488991 -6.436728
vertex -164.241379 -127.983994 -0.532736
vertex -164.241379 -126.488991 -0.532736
endloop
endfacet
facet normal 0.707105 0.000000 -0.707109
outer loop
vertex -152.433411 -127.983994 -0.532736
vertex -158.337402 -127.983994 -6.436728
vertex -152.433411 -126.488991 -0.532736
endloop
endfacet
facet normal 0.707110 0.000000 -0.707104
outer loop
vertex -152.433411 -126.488991 -0.532736
vertex -158.337402 -127.983994 -6.436728
vertex -158.337402 -126.488991 -6.436728
endloop
endfacet
facet normal -0.793352 0.000000 0.608764
outer loop
vertex -150.241379 -126.488991 -2.724768
vertex -150.241379 -127.983994 -2.724768
vertex -149.995056 -126.488991 -2.403753
endloop
endfacet
facet normal -0.793355 0.000000 0.608760
outer loop
vertex -149.995056 -126.488991 -2.403753
vertex -150.241379 -127.983994 -2.724768
vertex -149.995056 -127.983994 -2.403753
endloop
endfacet
facet normal -0.923875 0.000000 0.382694
outer loop
vertex -149.995056 -126.488991 -2.403753
vertex -149.995056 -127.983994 -2.403753
vertex -149.840210 -126.488991 -2.029928
endloop
endfacet
facet normal -0.923877 0.000000 0.382689
outer loop
vertex -149.840210 -126.488991 -2.029928
vertex -149.995056 -127.983994 -2.403753
vertex -149.840210 -127.983994 -2.029928
endloop
endfacet
facet normal -0.991446 0.000000 0.130516
outer loop
vertex -149.840210 -126.488991 -2.029928
vertex -149.840210 -127.983994 -2.029928
vertex -149.787399 -126.488991 -1.628759
endloop
endfacet
facet normal -0.991446 0.000000 0.130516
outer loop
vertex -149.787399 -126.488991 -1.628759
vertex -149.840210 -127.983994 -2.029928
vertex -149.787399 -127.983994 -1.628759
endloop
endfacet
facet normal -0.991446 0.000000 -0.130516
outer loop
vertex -149.787399 -126.488991 -1.628759
vertex -149.787399 -127.983994 -1.628759
vertex -149.840210 -126.488991 -1.227591
endloop
endfacet
facet normal -0.991446 0.000000 -0.130516
outer loop
vertex -149.840210 -126.488991 -1.227591
vertex -149.787399 -127.983994 -1.628759
vertex -149.840210 -127.983994 -1.227591
endloop
endfacet
facet normal -0.923875 0.000000 -0.382694
outer loop
vertex -149.840210 -126.488991 -1.227591
vertex -149.840210 -127.983994 -1.227591
vertex -149.995056 -126.488991 -0.853765
endloop
endfacet
facet normal -0.923878 0.000000 -0.382688
outer loop
vertex -149.995056 -126.488991 -0.853765
vertex -149.840210 -127.983994 -1.227591
vertex -149.995056 -127.983994 -0.853765
endloop
endfacet
facet normal -0.793366 0.000000 -0.608745
outer loop
vertex -149.995056 -126.488991 -0.853765
vertex -149.995056 -127.983994 -0.853765
vertex -150.241379 -126.488991 -0.532736
endloop
endfacet
facet normal -0.793369 0.000000 -0.608741
outer loop
vertex -150.241379 -126.488991 -0.532736
vertex -149.995056 -127.983994 -0.853765
vertex -150.241379 -127.983994 -0.532736
endloop
endfacet
facet normal -0.608759 0.000000 -0.793355
outer loop
vertex -150.241379 -126.488991 -0.532736
vertex -150.241379 -127.983994 -0.532736
vertex -150.562393 -126.488991 -0.286413
endloop
endfacet
facet normal -0.608765 0.000000 -0.793350
outer loop
vertex -150.562393 -126.488991 -0.286413
vertex -150.241379 -127.983994 -0.532736
vertex -150.562393 -127.983994 -0.286413
endloop
endfacet
facet normal -0.382672 0.000000 -0.923884
outer loop
vertex -150.562393 -126.488991 -0.286413
vertex -150.562393 -127.983994 -0.286413
vertex -150.936234 -126.488991 -0.131567
endloop
endfacet
facet normal -0.382681 0.000000 -0.923880
outer loop
vertex -150.936234 -126.488991 -0.131567
vertex -150.562393 -127.983994 -0.286413
vertex -150.936234 -127.983994 -0.131567
endloop
endfacet
facet normal -0.130515 0.000000 -0.991446
outer loop
vertex -150.936234 -126.488991 -0.131567
vertex -150.936234 -127.983994 -0.131567
vertex -151.337402 -126.488991 -0.078756
endloop
endfacet
facet normal -0.130516 0.000000 -0.991446
outer loop
vertex -151.337402 -126.488991 -0.078756
vertex -150.936234 -127.983994 -0.131567
vertex -151.337402 -127.983994 -0.078756
endloop
endfacet
facet normal 0.130515 0.000000 -0.991446
outer loop
vertex -151.337402 -126.488991 -0.078756
vertex -151.337402 -127.983994 -0.078756
vertex -151.738571 -126.488991 -0.131567
endloop
endfacet
facet normal 0.130516 0.000000 -0.991446
outer loop
vertex -151.738571 -126.488991 -0.131567
vertex -151.337402 -127.983994 -0.078756
vertex -151.738571 -127.983994 -0.131567
endloop
endfacet
facet normal 0.382685 0.000000 -0.923879
outer loop
vertex -151.738571 -126.488991 -0.131567
vertex -151.738571 -127.983994 -0.131567
vertex -152.112396 -126.488991 -0.286413
endloop
endfacet
facet normal 0.382694 0.000000 -0.923875
outer loop
vertex -152.112396 -126.488991 -0.286413
vertex -151.738571 -127.983994 -0.131567
vertex -152.112396 -127.983994 -0.286413
endloop
endfacet
facet normal 0.608759 0.000000 -0.793355
outer loop
vertex -152.112396 -126.488991 -0.286413
vertex -152.112396 -127.983994 -0.286413
vertex -152.433411 -126.488991 -0.532736
endloop
endfacet
facet normal 0.608765 0.000000 -0.793350
outer loop
vertex -152.433411 -126.488991 -0.532736
vertex -152.112396 -127.983994 -0.286413
vertex -152.433411 -127.983994 -0.532736
endloop
endfacet
facet normal -0.707105 0.000000 0.707109
outer loop
vertex -156.145370 -127.983994 -8.628759
vertex -150.241379 -127.983994 -2.724768
vertex -156.145370 -126.488991 -8.628759
endloop
endfacet
facet normal -0.707110 0.000000 0.707104
outer loop
vertex -156.145370 -126.488991 -8.628759
vertex -150.241379 -127.983994 -2.724768
vertex -150.241379 -126.488991 -2.724768
endloop
endfacet
facet normal -0.707102 0.000000 -0.707112
outer loop
vertex -150.241379 -127.983986 -14.532736
vertex -156.145370 -127.983994 -8.628759
vertex -150.241379 -126.488991 -14.532736
endloop
endfacet
facet normal -0.707109 0.000000 -0.707105
outer loop
vertex -150.241379 -126.488991 -14.532736
vertex -156.145370 -127.983994 -8.628759
vertex -156.145370 -126.488991 -8.628759
endloop
endfacet
facet normal 0.608764 0.000000 0.793351
outer loop
vertex -152.433411 -126.488991 -16.724768
vertex -152.433411 -127.983986 -16.724768
vertex -152.112396 -126.488991 -16.971090
endloop
endfacet
facet normal 0.608760 0.000000 0.793354
outer loop
vertex -152.112396 -126.488991 -16.971090
vertex -152.433411 -127.983986 -16.724768
vertex -152.112396 -127.983986 -16.971090
endloop
endfacet
facet normal 0.382689 0.000000 0.923877
outer loop
vertex -152.112396 -126.488991 -16.971090
vertex -152.112396 -127.983986 -16.971090
vertex -151.738571 -126.488991 -17.125937
endloop
endfacet
facet normal 0.382689 0.000000 0.923877
outer loop
vertex -151.738571 -126.488991 -17.125937
vertex -152.112396 -127.983986 -16.971090
vertex -151.738571 -127.983986 -17.125937
endloop
endfacet
facet normal 0.130555 0.000000 0.991441
outer loop
vertex -151.738571 -126.488991 -17.125937
vertex -151.738571 -127.983986 -17.125937
vertex -151.337402 -126.488991 -17.178762
endloop
endfacet
facet normal 0.130548 0.000000 0.991442
outer loop
vertex -151.337402 -126.488991 -17.178762
vertex -151.738571 -127.983986 -17.125937
vertex -151.337402 -127.983986 -17.178762
endloop
endfacet
facet normal -0.130548 0.000000 0.991442
outer loop
vertex -151.337402 -126.488991 -17.178762
vertex -151.337402 -127.983986 -17.178762
vertex -150.936234 -126.488991 -17.125937
endloop
endfacet
facet normal -0.130555 0.000000 0.991441
outer loop
vertex -150.936234 -126.488991 -17.125937
vertex -151.337402 -127.983986 -17.178762
vertex -150.936234 -127.983986 -17.125937
endloop
endfacet
facet normal -0.382676 0.000000 0.923883
outer loop
vertex -150.936234 -126.488991 -17.125937
vertex -150.936234 -127.983986 -17.125937
vertex -150.562393 -126.488991 -16.971090
endloop
endfacet
facet normal -0.382676 0.000000 0.923883
outer loop
vertex -150.562393 -126.488991 -16.971090
vertex -150.936234 -127.983986 -17.125937
vertex -150.562393 -127.983986 -16.971090
endloop
endfacet
facet normal -0.608760 0.000000 0.793354
outer loop
vertex -150.562393 -126.488991 -16.971090
vertex -150.562393 -127.983986 -16.971090
vertex -150.241379 -126.488991 -16.724768
endloop
endfacet
facet normal -0.608764 0.000000 0.793351
outer loop
vertex -150.241379 -126.488991 -16.724768
vertex -150.562393 -127.983986 -16.971090
vertex -150.241379 -127.983986 -16.724768
endloop
endfacet
facet normal -0.793354 0.000000 0.608761
outer loop
vertex -150.241379 -126.488991 -16.724768
vertex -150.241379 -127.983986 -16.724768
vertex -149.995056 -126.488991 -16.403753
endloop
endfacet
facet normal -0.793354 0.000000 0.608761
outer loop
vertex -149.995056 -126.488991 -16.403753
vertex -150.241379 -127.983986 -16.724768
vertex -149.995056 -127.983986 -16.403753
endloop
endfacet
facet normal -0.923876 0.000000 0.382691
outer loop
vertex -149.995056 -126.488991 -16.403753
vertex -149.995056 -127.983986 -16.403753
vertex -149.840210 -126.488991 -16.029928
endloop
endfacet
facet normal -0.923877 0.000000 0.382689
outer loop
vertex -149.840210 -126.488991 -16.029928
vertex -149.995056 -127.983986 -16.403753
vertex -149.840210 -127.983986 -16.029928
endloop
endfacet
facet normal -0.991446 0.000000 0.130516
outer loop
vertex -149.840210 -126.488991 -16.029928
vertex -149.840210 -127.983986 -16.029928
vertex -149.787399 -126.488991 -15.628759
endloop
endfacet
facet normal -0.991446 0.000000 0.130515
outer loop
vertex -149.787399 -126.488991 -15.628759
vertex -149.840210 -127.983986 -16.029928
vertex -149.787399 -127.983986 -15.628759
endloop
endfacet
facet normal -0.991446 0.000000 -0.130516
outer loop
vertex -149.787399 -126.488991 -15.628759
vertex -149.787399 -127.983986 -15.628759
vertex -149.840210 -126.488991 -15.227591
endloop
endfacet
facet normal -0.991446 0.000000 -0.130514
outer loop
vertex -149.840210 -126.488991 -15.227591
vertex -149.787399 -127.983986 -15.628759
vertex -149.840210 -127.983986 -15.227591
endloop
endfacet
facet normal -0.923876 0.000000 -0.382691
outer loop
vertex -149.840210 -126.488991 -15.227591
vertex -149.840210 -127.983986 -15.227591
vertex -149.995056 -126.488991 -14.853765
endloop
endfacet
facet normal -0.923877 0.000000 -0.382689
outer loop
vertex -149.995056 -126.488991 -14.853765
vertex -149.840210 -127.983986 -15.227591
vertex -149.995056 -127.983986 -14.853765
endloop
endfacet
facet normal -0.793368 0.000000 -0.608743
outer loop
vertex -149.995056 -126.488991 -14.853765
vertex -149.995056 -127.983986 -14.853765
vertex -150.241379 -126.488991 -14.532736
endloop
endfacet
facet normal -0.793365 0.000000 -0.608746
outer loop
vertex -150.241379 -126.488991 -14.532736
vertex -149.995056 -127.983986 -14.853765
vertex -150.241379 -127.983986 -14.532736
endloop
endfacet
facet normal 0.707107 0.000000 0.707107
outer loop
vertex -158.337402 -127.983986 -10.820791
vertex -152.433411 -127.983986 -16.724768
vertex -158.337402 -126.488991 -10.820791
endloop
endfacet
facet normal 0.707107 0.000000 0.707107
outer loop
vertex -158.337402 -126.488991 -10.820791
vertex -152.433411 -127.983986 -16.724768
vertex -152.433411 -126.488991 -16.724768
endloop
endfacet
facet normal -0.707107 0.000000 0.707107
outer loop
vertex -164.241379 -127.983986 -16.724768
vertex -158.337402 -127.983986 -10.820791
vertex -164.241379 -126.488991 -16.724768
endloop
endfacet
facet normal -0.707107 0.000000 0.707107
outer loop
vertex -164.241379 -126.488991 -16.724768
vertex -158.337402 -127.983986 -10.820791
vertex -158.337402 -126.488991 -10.820791
endloop
endfacet
facet normal 0.000000 -1.000000 0.000000
outer loop
vertex -158.337402 -126.488991 -6.436728
vertex -150.241379 -126.488991 -2.724768
vertex -152.433411 -126.488991 -0.532736
endloop
endfacet
facet normal 0.000000 -1.000000 -0.000006
outer loop
vertex -152.433411 -126.488991 -0.532736
vertex -150.241379 -126.488991 -2.724768
vertex -149.995056 -126.488991 -2.403753
endloop
endfacet
facet normal 0.000000 -1.000000 -0.000044
outer loop
vertex -152.433411 -126.488991 -0.532736
vertex -149.995056 -126.488991 -2.403753
vertex -149.840210 -126.488991 -2.029928
endloop
endfacet
facet normal 0.000000 -1.000000 0.000000
outer loop
vertex -164.241379 -126.488991 -0.532736
vertex -166.433411 -126.488991 -2.724768
vertex -158.337402 -126.488991 -6.436728
endloop
endfacet
facet normal 0.000000 -1.000000 0.000000
outer loop
vertex -158.337402 -126.488991 -6.436728
vertex -166.433411 -126.488991 -2.724768
vertex -160.529434 -126.488991 -8.628759
endloop
endfacet
facet normal 0.000000 -1.000000 0.000000
outer loop
vertex -158.337402 -126.488991 -6.436728
vertex -160.529434 -126.488991 -8.628759
vertex -156.145370 -126.488991 -8.628759
endloop
endfacet
facet normal 0.000000 -1.000000 0.000000
outer loop
vertex -156.145370 -126.488991 -8.628759
vertex -160.529434 -126.488991 -8.628759
vertex -158.337402 -126.488991 -10.820791
endloop
endfacet
facet normal 0.000000 -1.000000 0.000000
outer loop
vertex -156.145370 -126.488991 -8.628759
vertex -158.337402 -126.488991 -10.820791
vertex -150.241379 -126.488991 -14.532736
endloop
endfacet
facet normal 0.000000 -1.000000 0.000000
outer loop
vertex -150.241379 -126.488991 -14.532736
vertex -158.337402 -126.488991 -10.820791
vertex -152.433411 -126.488991 -16.724768
endloop
endfacet
facet normal 0.000000 -1.000000 0.000000
outer loop
vertex -150.241379 -126.488991 -14.532736
vertex -152.433411 -126.488991 -16.724768
vertex -149.995056 -126.488991 -14.853765
endloop
endfacet
facet normal 0.000000 -1.000000 0.000051
outer loop
vertex -149.995056 -126.488991 -14.853765
vertex -152.433411 -126.488991 -16.724768
vertex -149.840210 -126.488991 -15.227591
endloop
endfacet
facet normal 0.000000 -1.000000 0.000000
outer loop
vertex -149.840210 -126.488991 -15.227591
vertex -152.433411 -126.488991 -16.724768
vertex -149.787399 -126.488991 -15.628759
endloop
endfacet
facet normal 0.000000 -1.000000 0.000000
outer loop
vertex -149.787399 -126.488991 -15.628759
vertex -152.433411 -126.488991 -16.724768
vertex -149.840210 -126.488991 -16.029928
endloop
endfacet
facet normal 0.000000 -1.000000 -0.000071
outer loop
vertex -149.840210 -126.488991 -16.029928
vertex -152.433411 -126.488991 -16.724768
vertex -149.995056 -126.488991 -16.403753
endloop
endfacet
facet normal 0.000000 -1.000000 0.000000
outer loop
vertex -149.995056 -126.488991 -16.403753
vertex -152.433411 -126.488991 -16.724768
vertex -150.241379 -126.488991 -16.724768
endloop
endfacet
facet normal 0.000000 -1.000000 0.000113
outer loop
vertex -150.241379 -126.488991 -16.724768
vertex -152.433411 -126.488991 -16.724768
vertex -150.562393 -126.488991 -16.971090
endloop
endfacet
facet normal 0.000000 -1.000000 -0.000040
outer loop
vertex -150.562393 -126.488991 -16.971090
vertex -152.433411 -126.488991 -16.724768
vertex -152.112396 -126.488991 -16.971090
endloop
endfacet
facet normal 0.000000 -1.000000 0.000000
outer loop
vertex -150.562393 -126.488991 -16.971090
vertex -152.112396 -126.488991 -16.971090
vertex -150.936234 -126.488991 -17.125937
endloop
endfacet
facet normal 0.000000 -1.000000 -0.000061
outer loop
vertex -150.936234 -126.488991 -17.125937
vertex -152.112396 -126.488991 -16.971090
vertex -151.738571 -126.488991 -17.125937
endloop
endfacet
facet normal 0.000000 -1.000000 0.000000
outer loop
vertex -150.936234 -126.488991 -17.125937
vertex -151.738571 -126.488991 -17.125937
vertex -151.337402 -126.488991 -17.178762
endloop
endfacet
facet normal 0.000000 -1.000000 0.000000
outer loop
vertex -164.562393 -126.488991 -0.286413
vertex -166.112396 -126.488991 -0.286413
vertex -164.241379 -126.488991 -0.532736
endloop
endfacet
facet normal 0.000000 -1.000000 -0.000085
outer loop
vertex -164.241379 -126.488991 -0.532736
vertex -166.112396 -126.488991 -0.286413
vertex -166.433411 -126.488991 -0.532736
endloop
endfacet
facet normal 0.000000 -1.000000 0.000011
outer loop
vertex -164.241379 -126.488991 -0.532736
vertex -166.433411 -126.488991 -0.532736
vertex -166.679733 -126.488991 -0.853765
endloop
endfacet
facet normal 0.000000 -1.000000 0.000000
outer loop
vertex -166.112396 -126.488991 -0.286413
vertex -164.562393 -126.488991 -0.286413
vertex -165.738571 -126.488991 -0.131567
endloop
endfacet
facet normal 0.000000 -1.000000 -0.000061
outer loop
vertex -165.738571 -126.488991 -0.131567
vertex -164.562393 -126.488991 -0.286413
vertex -164.936234 -126.488991 -0.131567
endloop
endfacet
facet normal 0.000000 -1.000000 0.000000
outer loop
vertex -165.738571 -126.488991 -0.131567
vertex -164.936234 -126.488991 -0.131567
vertex -165.337402 -126.488991 -0.078756
endloop
endfacet
facet normal 0.000000 -1.000000 0.000071
outer loop
vertex -166.679733 -126.488991 -0.853765
vertex -166.834579 -126.488991 -1.227591
vertex -164.241379 -126.488991 -0.532736
endloop
endfacet
facet normal 0.000000 -1.000000 -0.000012
outer loop
vertex -164.241379 -126.488991 -0.532736
vertex -166.834579 -126.488991 -1.227591
vertex -166.887390 -126.488991 -1.628759
endloop
endfacet
facet normal 0.000000 -1.000000 0.000011
outer loop
vertex -164.241379 -126.488991 -0.532736
vertex -166.887390 -126.488991 -1.628759
vertex -166.834579 -126.488991 -2.029928
endloop
endfacet
facet normal 0.000000 -1.000000 -0.000051
outer loop
vertex -166.834579 -126.488991 -2.029928
vertex -166.679733 -126.488991 -2.403753
vertex -164.241379 -126.488991 -0.532736
endloop
endfacet
facet normal 0.000000 -1.000000 -0.000006
outer loop
vertex -164.241379 -126.488991 -0.532736
vertex -166.679733 -126.488991 -2.403753
vertex -166.433411 -126.488991 -2.724768
endloop
endfacet
facet normal 0.000000 -1.000000 0.000000
outer loop
vertex -160.529434 -126.488991 -8.628759
vertex -166.433411 -126.488991 -14.532736
vertex -158.337402 -126.488991 -10.820791
endloop
endfacet
facet normal 0.000000 -1.000000 0.000000
outer loop
vertex -158.337402 -126.488991 -10.820791
vertex -166.433411 -126.488991 -14.532736
vertex -164.241379 -126.488991 -16.724768
endloop
endfacet
facet normal 0.000000 -1.000000 0.000006
outer loop
vertex -164.241379 -126.488991 -16.724768
vertex -166.433411 -126.488991 -14.532736
vertex -166.679733 -126.488991 -14.853765
endloop
endfacet
facet normal 0.000000 -1.000000 0.000044
outer loop
vertex -164.241379 -126.488991 -16.724768
vertex -166.679733 -126.488991 -14.853765
vertex -166.834579 -126.488991 -15.227591
endloop
endfacet
facet normal 0.000000 -1.000000 0.000000
outer loop
vertex -166.834579 -126.488991 -15.227591
vertex -166.887390 -126.488991 -15.628759
vertex -164.241379 -126.488991 -16.724768
endloop
endfacet
facet normal 0.000000 -1.000000 0.000012
outer loop
vertex -164.241379 -126.488991 -16.724768
vertex -166.887390 -126.488991 -15.628759
vertex -166.834579 -126.488991 -16.029928
endloop
endfacet
facet normal 0.000000 -1.000000 -0.000062
outer loop
vertex -164.241379 -126.488991 -16.724768
vertex -166.834579 -126.488991 -16.029928
vertex -166.679733 -126.488991 -16.403753
endloop
endfacet
facet normal 0.000000 -1.000000 0.000000
outer loop
vertex -166.679733 -126.488991 -16.403753
vertex -166.433411 -126.488991 -16.724768
vertex -164.241379 -126.488991 -16.724768
endloop
endfacet
facet normal 0.000000 -1.000000 0.000113
outer loop
vertex -164.241379 -126.488991 -16.724768
vertex -166.433411 -126.488991 -16.724768
vertex -164.562393 -126.488991 -16.971090
endloop
endfacet
facet normal 0.000000 -1.000000 -0.000040
outer loop
vertex -164.562393 -126.488991 -16.971090
vertex -166.433411 -126.488991 -16.724768
vertex -166.112396 -126.488991 -16.971090
endloop
endfacet
facet normal 0.000000 -1.000000 0.000000
outer loop
vertex -164.562393 -126.488991 -16.971090
vertex -166.112396 -126.488991 -16.971090
vertex -164.936234 -126.488991 -17.125937
endloop
endfacet
facet normal 0.000000 -1.000000 -0.000061
outer loop
vertex -164.936234 -126.488991 -17.125937
vertex -166.112396 -126.488991 -16.971090
vertex -165.738571 -126.488991 -17.125937
endloop
endfacet
facet normal 0.000000 -1.000000 0.000000
outer loop
vertex -164.936234 -126.488991 -17.125937
vertex -165.738571 -126.488991 -17.125937
vertex -165.337402 -126.488991 -17.178762
endloop
endfacet
facet normal 0.000000 -1.000000 0.000000
outer loop
vertex -156.145370 -126.488991 -8.628759
vertex -150.241379 -126.488991 -2.724768
vertex -158.337402 -126.488991 -6.436728
endloop
endfacet
facet normal 0.000000 -1.000000 0.000000
outer loop
vertex -149.840210 -126.488991 -2.029928
vertex -149.787399 -126.488991 -1.628759
vertex -152.433411 -126.488991 -0.532736
endloop
endfacet
facet normal 0.000000 -1.000000 -0.000012
outer loop
vertex -152.433411 -126.488991 -0.532736
vertex -149.787399 -126.488991 -1.628759
vertex -149.840210 -126.488991 -1.227591
endloop
endfacet
facet normal 0.000000 -1.000000 0.000062
outer loop
vertex -152.433411 -126.488991 -0.532736
vertex -149.840210 -126.488991 -1.227591
vertex -149.995056 -126.488991 -0.853765
endloop
endfacet
facet normal 0.000000 -1.000000 0.000000
outer loop
vertex -149.995056 -126.488991 -0.853765
vertex -150.241379 -126.488991 -0.532736
vertex -152.433411 -126.488991 -0.532736
endloop
endfacet
facet normal 0.000000 -1.000000 -0.000113
outer loop
vertex -152.433411 -126.488991 -0.532736
vertex -150.241379 -126.488991 -0.532736
vertex -152.112396 -126.488991 -0.286413
endloop
endfacet
facet normal 0.000000 -1.000000 0.000040
outer loop
vertex -152.112396 -126.488991 -0.286413
vertex -150.241379 -126.488991 -0.532736
vertex -150.562393 -126.488991 -0.286413
endloop
endfacet
facet normal 0.000000 -1.000000 0.000000
outer loop
vertex -152.112396 -126.488991 -0.286413
vertex -150.562393 -126.488991 -0.286413
vertex -151.738571 -126.488991 -0.131567
endloop
endfacet
facet normal 0.000000 -1.000000 -0.000061
outer loop
vertex -151.738571 -126.488991 -0.131567
vertex -150.562393 -126.488991 -0.286413
vertex -150.936234 -126.488991 -0.131567
endloop
endfacet
facet normal 0.000000 -1.000000 0.000000
outer loop
vertex -151.738571 -126.488991 -0.131567
vertex -150.936234 -126.488991 -0.131567
vertex -151.337402 -126.488991 -0.078756
endloop
endfacet
facet normal -0.997413 0.000000 0.071887
outer loop
vertex -167.423355 -123.993988 0.457209
vertex -168.766510 -123.993988 -18.178762
vertex -167.423355 -127.983994 0.457209
endloop
endfacet
facet normal -0.997413 0.000000 0.071887
outer loop
vertex -167.423355 -127.983994 0.457209
vertex -168.766510 -123.993988 -18.178762
vertex -168.766510 -127.983986 -18.178762
endloop
endfacet
facet normal -0.232865 0.000000 0.972509
outer loop
vertex -158.333328 -123.993988 2.633799
vertex -167.423355 -123.993988 0.457209
vertex -158.333328 -127.983994 2.633799
endloop
endfacet
facet normal -0.232865 0.000000 0.972509
outer loop
vertex -158.333328 -127.983994 2.633799
vertex -167.423355 -123.993988 0.457209
vertex -167.423355 -127.983994 0.457209
endloop
endfacet
facet normal 0.233063 0.000000 0.972462
outer loop
vertex -149.251434 -123.993988 0.457209
vertex -158.333328 -123.993988 2.633799
vertex -149.251434 -127.983994 0.457209
endloop
endfacet
facet normal 0.233063 0.000000 0.972462
outer loop
vertex -149.251434 -127.983994 0.457209
vertex -158.333328 -123.993988 2.633799
vertex -158.333328 -127.983994 2.633799
endloop
endfacet
facet normal 0.997413 0.000000 0.071886
outer loop
vertex -147.908279 -123.993988 -18.178762
vertex -149.251434 -123.993988 0.457209
vertex -147.908279 -127.983986 -18.178762
endloop
endfacet
facet normal 0.997413 0.000000 0.071887
outer loop
vertex -147.908279 -127.983986 -18.178762
vertex -149.251434 -123.993988 0.457209
vertex -149.251434 -127.983994 0.457209
endloop
endfacet
facet normal 0.000000 0.000000 -1.000000
outer loop
vertex -168.766510 -123.993988 -18.178762
vertex -147.908279 -123.993988 -18.178762
vertex -168.766510 -127.983986 -18.178762
endloop
endfacet
facet normal 0.000000 0.000000 -1.000000
outer loop
vertex -168.766510 -127.983986 -18.178762
vertex -147.908279 -123.993988 -18.178762
vertex -147.908279 -127.983986 -18.178762
endloop
endfacet
facet normal 0.000000 -1.000000 0.000000
outer loop
vertex -158.337402 -127.983994 -6.436728
vertex -152.433411 -127.983994 -0.532736
vertex -158.333328 -127.983994 2.633799
endloop
endfacet
facet normal 0.000000 -1.000000 -0.000009
outer loop
vertex -158.333328 -127.983994 2.633799
vertex -152.433411 -127.983994 -0.532736
vertex -152.112396 -127.983994 -0.286413
endloop
endfacet
facet normal 0.000000 -1.000000 -0.000004
outer loop
vertex -158.333328 -127.983994 2.633799
vertex -152.112396 -127.983994 -0.286413
vertex -151.738571 -127.983994 -0.131567
endloop
endfacet
facet normal 0.000000 -1.000000 0.000084
outer loop
vertex -151.738571 -127.983994 -0.131567
vertex -151.337402 -127.983994 -0.078756
vertex -158.333328 -127.983994 2.633799
endloop
endfacet
facet normal 0.000000 -1.000000 0.000000
outer loop
vertex -158.333328 -127.983994 2.633799
vertex -151.337402 -127.983994 -0.078756
vertex -149.251434 -127.983994 0.457209
endloop
endfacet
facet normal 0.000000 -1.000000 0.000023
outer loop
vertex -149.251434 -127.983994 0.457209
vertex -151.337402 -127.983994 -0.078756
vertex -150.936234 -127.983994 -0.131567
endloop
endfacet
facet normal 0.000000 -1.000000 -0.000016
outer loop
vertex -149.251434 -127.983994 0.457209
vertex -150.936234 -127.983994 -0.131567
vertex -150.562393 -127.983994 -0.286413
endloop
endfacet
facet normal 0.000000 -1.000000 -0.000027
outer loop
vertex -150.562393 -127.983994 -0.286413
vertex -150.241379 -127.983994 -0.532736
vertex -149.251434 -127.983994 0.457209
endloop
endfacet
facet normal 0.000000 -1.000000 0.000007
outer loop
vertex -149.251434 -127.983994 0.457209
vertex -150.241379 -127.983994 -0.532736
vertex -149.995056 -127.983994 -0.853765
endloop
endfacet
facet normal 0.000000 -1.000000 0.000008
outer loop
vertex -149.251434 -127.983994 0.457209
vertex -149.995056 -127.983994 -0.853765
vertex -149.840210 -127.983994 -1.227591
endloop
endfacet
facet normal 0.000000 -1.000000 0.000000
outer loop
vertex -149.840210 -127.983994 -1.227591
vertex -149.787399 -127.983994 -1.628759
vertex -149.251434 -127.983994 0.457209
endloop
endfacet
facet normal 0.000000 -1.000000 -0.000027
outer loop
vertex -149.251434 -127.983994 0.457209
vertex -149.787399 -127.983994 -1.628759
vertex -149.840210 -127.983994 -2.029928
endloop
endfacet
facet normal 0.000001 -1.000000 -0.000002
outer loop
vertex -149.251434 -127.983994 0.457209
vertex -149.840210 -127.983994 -2.029928
vertex -147.908279 -127.983986 -18.178762
endloop
endfacet
facet normal 0.000001 -1.000000 -0.000006
outer loop
vertex -147.908279 -127.983986 -18.178762
vertex -149.840210 -127.983994 -2.029928
vertex -149.995056 -127.983994 -2.403753
endloop
endfacet
facet normal -0.000001 -1.000000 0.000000
outer loop
vertex -147.908279 -127.983986 -18.178762
vertex -149.995056 -127.983994 -2.403753
vertex -149.995056 -127.983986 -14.853765
endloop
endfacet
facet normal 0.000001 -1.000000 0.000000
outer loop
vertex -149.995056 -127.983986 -14.853765
vertex -149.995056 -127.983994 -2.403753
vertex -150.241379 -127.983994 -2.724768
endloop
endfacet
facet normal -0.000001 -1.000000 -0.000001
outer loop
vertex -149.995056 -127.983986 -14.853765
vertex -150.241379 -127.983994 -2.724768
vertex -150.241379 -127.983986 -14.532736
endloop
endfacet
facet normal 0.000001 -1.000000 0.000000
outer loop
vertex -150.241379 -127.983986 -14.532736
vertex -150.241379 -127.983994 -2.724768
vertex -156.145370 -127.983994 -8.628759
endloop
endfacet
facet normal 0.000000 -1.000000 0.000000
outer loop
vertex -149.995056 -127.983986 -14.853765
vertex -149.840210 -127.983986 -15.227591
vertex -147.908279 -127.983986 -18.178762
endloop
endfacet
facet normal 0.000000 -1.000000 0.000028
outer loop
vertex -147.908279 -127.983986 -18.178762
vertex -149.840210 -127.983986 -15.227591
vertex -149.787399 -127.983986 -15.628759
endloop
endfacet
facet normal 0.000000 -1.000000 -0.000019
outer loop
vertex -147.908279 -127.983986 -18.178762
vertex -149.787399 -127.983986 -15.628759
vertex -149.840210 -127.983986 -16.029928
endloop
endfacet
facet normal 0.000000 -1.000000 0.000000
outer loop
vertex -149.840210 -127.983986 -16.029928
vertex -149.995056 -127.983986 -16.403753
vertex -147.908279 -127.983986 -18.178762
endloop
endfacet
facet normal 0.000000 -1.000000 0.000014
outer loop
vertex -147.908279 -127.983986 -18.178762
vertex -149.995056 -127.983986 -16.403753
vertex -150.241379 -127.983986 -16.724768
endloop
endfacet
facet normal 0.000000 -1.000000 -0.000029
outer loop
vertex -147.908279 -127.983986 -18.178762
vertex -150.241379 -127.983986 -16.724768
vertex -150.562393 -127.983986 -16.971090
endloop
endfacet
facet normal 0.000000 -1.000000 0.000000
outer loop
vertex -150.562393 -127.983986 -16.971090
vertex -150.936234 -127.983986 -17.125937
vertex -147.908279 -127.983986 -18.178762
endloop
endfacet
facet normal 0.000000 -1.000000 0.000052
outer loop
vertex -147.908279 -127.983986 -18.178762
vertex -150.936234 -127.983986 -17.125937
vertex -151.337402 -127.983986 -17.178762
endloop
endfacet
facet normal 0.000000 -1.000000 -0.000139
outer loop
vertex -147.908279 -127.983986 -18.178762
vertex -151.337402 -127.983986 -17.178762
vertex -151.738571 -127.983986 -17.125937
endloop
endfacet
facet normal 0.000000 -1.000000 0.000000
outer loop
vertex -152.112396 -127.983986 -16.971090
vertex -164.562393 -127.983986 -16.971090
vertex -151.738571 -127.983986 -17.125937
endloop
endfacet
facet normal 0.000000 -1.000000 0.000004
outer loop
vertex -151.738571 -127.983986 -17.125937
vertex -164.562393 -127.983986 -16.971090
vertex -164.936234 -127.983986 -17.125937
endloop
endfacet
facet normal 0.000000 -1.000000 0.000000
outer loop
vertex -151.738571 -127.983986 -17.125937
vertex -164.936234 -127.983986 -17.125937
vertex -147.908279 -127.983986 -18.178762
endloop
endfacet
facet normal 0.000000 -1.000000 0.000006
outer loop
vertex -147.908279 -127.983986 -18.178762
vertex -164.936234 -127.983986 -17.125937
vertex -168.766510 -127.983986 -18.178762
endloop
endfacet
facet normal 0.000000 -1.000000 -0.000139
outer loop
vertex -168.766510 -127.983986 -18.178762
vertex -164.936234 -127.983986 -17.125937
vertex -165.337402 -127.983986 -17.178762
endloop
endfacet
facet normal 0.000000 -1.000000 0.000052
outer loop
vertex -168.766510 -127.983986 -18.178762
vertex -165.337402 -127.983986 -17.178762
vertex -165.738571 -127.983986 -17.125937
endloop
endfacet
facet normal 0.000000 -1.000000 0.000000
outer loop
vertex -164.562393 -127.983986 -16.971090
vertex -152.112396 -127.983986 -16.971090
vertex -164.241379 -127.983986 -16.724768
endloop
endfacet
facet normal 0.000000 -1.000000 0.000010
outer loop
vertex -164.241379 -127.983986 -16.724768
vertex -152.112396 -127.983986 -16.971090
vertex -152.433411 -127.983986 -16.724768
endloop
endfacet
facet normal 0.000000 -1.000000 0.000000
outer loop
vertex -164.241379 -127.983986 -16.724768
vertex -152.433411 -127.983986 -16.724768
vertex -158.337402 -127.983986 -10.820791
endloop
endfacet
facet normal 0.000000 -1.000000 0.000000
outer loop
vertex -165.738571 -127.983986 -17.125937
vertex -166.112396 -127.983986 -16.971090
vertex -168.766510 -127.983986 -18.178762
endloop
endfacet
facet normal 0.000000 -1.000000 -0.000029
outer loop
vertex -168.766510 -127.983986 -18.178762
vertex -166.112396 -127.983986 -16.971090
vertex -166.433411 -127.983986 -16.724768
endloop
endfacet
facet normal 0.000000 -1.000000 0.000014
outer loop
vertex -168.766510 -127.983986 -18.178762
vertex -166.433411 -127.983986 -16.724768
vertex -166.679733 -127.983986 -16.403753
endloop
endfacet
facet normal 0.000000 -1.000000 0.000000
outer loop
vertex -166.679733 -127.983986 -16.403753
vertex -166.834579 -127.983986 -16.029928
vertex -168.766510 -127.983986 -18.178762
endloop
endfacet
facet normal 0.000000 -1.000000 -0.000019
outer loop
vertex -168.766510 -127.983986 -18.178762
vertex -166.834579 -127.983986 -16.029928
vertex -166.887390 -127.983986 -15.628759
endloop
endfacet
facet normal 0.000000 -1.000000 0.000028
outer loop
vertex -168.766510 -127.983986 -18.178762
vertex -166.887390 -127.983986 -15.628759
vertex -166.834579 -127.983986 -15.227591
endloop
endfacet
facet normal 0.000000 -1.000000 0.000000
outer loop
vertex -166.834579 -127.983986 -15.227591
vertex -166.679733 -127.983986 -14.853765
vertex -168.766510 -127.983986 -18.178762
endloop
endfacet
facet normal 0.000001 -1.000000 0.000000
outer loop
vertex -168.766510 -127.983986 -18.178762
vertex -166.679733 -127.983986 -14.853765
vertex -166.679733 -127.983994 -2.403753
endloop
endfacet
facet normal -0.000001 -1.000000 -0.000006
outer loop
vertex -168.766510 -127.983986 -18.178762
vertex -166.679733 -127.983994 -2.403753
vertex -166.834579 -127.983994 -2.029928
endloop
endfacet
facet normal -0.000001 -1.000000 0.000000
outer loop
vertex -166.679733 -127.983994 -2.403753
vertex -166.679733 -127.983986 -14.853765
vertex -166.433411 -127.983994 -2.724768
endloop
endfacet
facet normal 0.000001 -1.000000 -0.000001
outer loop
vertex -166.433411 -127.983994 -2.724768
vertex -166.679733 -127.983986 -14.853765
vertex -166.433411 -127.983986 -14.532736
endloop
endfacet
facet normal -0.000001 -1.000000 0.000000
outer loop
vertex -166.433411 -127.983994 -2.724768
vertex -166.433411 -127.983986 -14.532736
vertex -160.529434 -127.983994 -8.628759
endloop
endfacet
facet normal -0.000001 -1.000000 -0.000001
outer loop
vertex -168.766510 -127.983986 -18.178762
vertex -166.834579 -127.983994 -2.029928
vertex -167.423355 -127.983994 0.457209
endloop
endfacet
facet normal 0.000000 -1.000000 -0.000027
outer loop
vertex -167.423355 -127.983994 0.457209
vertex -166.834579 -127.983994 -2.029928
vertex -166.887390 -127.983994 -1.628759
endloop
endfacet
facet normal 0.000000 -1.000000 0.000009
outer loop
vertex -167.423355 -127.983994 0.457209
vertex -166.887390 -127.983994 -1.628759
vertex -166.834579 -127.983994 -1.227591
endloop
endfacet
facet normal 0.000000 -1.000000 0.000000
outer loop
vertex -166.834579 -127.983994 -1.227591
vertex -166.679733 -127.983994 -0.853765
vertex -167.423355 -127.983994 0.457209
endloop
endfacet
facet normal 0.000000 -1.000000 0.000007
outer loop
vertex -167.423355 -127.983994 0.457209
vertex -166.679733 -127.983994 -0.853765
vertex -166.433411 -127.983994 -0.532736
endloop
endfacet
facet normal 0.000000 -1.000000 -0.000014
outer loop
vertex -167.423355 -127.983994 0.457209
vertex -166.433411 -127.983994 -0.532736
vertex -166.112396 -127.983994 -0.286413
endloop
endfacet
facet normal 0.000000 -1.000000 0.000000
outer loop
vertex -166.112396 -127.983994 -0.286413
vertex -165.738571 -127.983994 -0.131567
vertex -167.423355 -127.983994 0.457209
endloop
endfacet
facet normal 0.000000 -1.000000 0.000023
outer loop
vertex -167.423355 -127.983994 0.457209
vertex -165.738571 -127.983994 -0.131567
vertex -165.337402 -127.983994 -0.078756
endloop
endfacet
facet normal 0.000000 -1.000000 0.000000
outer loop
vertex -167.423355 -127.983994 0.457209
vertex -165.337402 -127.983994 -0.078756
vertex -158.333328 -127.983994 2.633799
endloop
endfacet
facet normal 0.000000 -1.000000 -0.000016
outer loop
vertex -158.333328 -127.983994 2.633799
vertex -165.337402 -127.983994 -0.078756
vertex -164.936234 -127.983994 -0.131567
endloop
endfacet
facet normal 0.000000 -1.000000 -0.000004
outer loop
vertex -158.333328 -127.983994 2.633799
vertex -164.936234 -127.983994 -0.131567
vertex -164.562393 -127.983994 -0.286413
endloop
endfacet
facet normal 0.000000 -1.000000 0.000049
outer loop
vertex -164.562393 -127.983994 -0.286413
vertex -164.241379 -127.983994 -0.532736
vertex -158.333328 -127.983994 2.633799
endloop
endfacet
facet normal 0.000000 -1.000000 0.000000
outer loop
vertex -158.333328 -127.983994 2.633799
vertex -164.241379 -127.983994 -0.532736
vertex -158.337402 -127.983994 -6.436728
endloop
endfacet
facet normal 0.000000 1.000000 0.000000
outer loop
vertex -149.995056 -123.993988 -2.403753
vertex -149.995056 -123.993988 -14.853765
vertex -150.241379 -123.993988 -2.724768
endloop
endfacet
facet normal 0.000000 1.000000 0.000000
outer loop
vertex -150.241379 -123.993988 -2.724768
vertex -149.995056 -123.993988 -14.853765
vertex -150.241379 -123.993988 -14.532736
endloop
endfacet
facet normal 0.000000 1.000000 0.000000
outer loop
vertex -150.241379 -123.993988 -2.724768
vertex -150.241379 -123.993988 -14.532736
vertex -156.145370 -123.993988 -8.628759
endloop
endfacet
facet normal 0.000000 1.000000 0.000000
outer loop
vertex -149.995056 -123.993988 -14.853765
vertex -149.995056 -123.993988 -2.403753
vertex -147.908279 -123.993988 -18.178762
endloop
endfacet
facet normal 0.000000 1.000000 0.000000
outer loop
vertex -147.908279 -123.993988 -18.178762
vertex -149.995056 -123.993988 -2.403753
vertex -149.840210 -123.993988 -2.029928
endloop
endfacet
facet normal 0.000000 1.000000 0.000000
outer loop
vertex -147.908279 -123.993988 -18.178762
vertex -149.840210 -123.993988 -2.029928
vertex -149.251434 -123.993988 0.457209
endloop
endfacet
facet normal 0.000000 1.000000 0.000055
outer loop
vertex -149.251434 -123.993988 0.457209
vertex -149.840210 -123.993988 -2.029928
vertex -149.787399 -123.993988 -1.628759
endloop
endfacet
facet normal 0.000000 1.000000 -0.000018
outer loop
vertex -149.251434 -123.993988 0.457209
vertex -149.787399 -123.993988 -1.628759
vertex -149.840210 -123.993988 -1.227591
endloop
endfacet
facet normal 0.000000 1.000000 0.000000
outer loop
vertex -149.840210 -123.993988 -1.227591
vertex -149.995056 -123.993988 -0.853765
vertex -149.251434 -123.993988 0.457209
endloop
endfacet
facet normal 0.000000 1.000000 0.000000
outer loop
vertex -149.251434 -123.993988 0.457209
vertex -149.995056 -123.993988 -0.853765
vertex -150.241379 -123.993988 -0.532736
endloop
endfacet
facet normal 0.000000 1.000000 -0.000027
outer loop
vertex -149.251434 -123.993988 0.457209
vertex -150.241379 -123.993988 -0.532736
vertex -150.562393 -123.993988 -0.286413
endloop
endfacet
facet normal 0.000000 1.000000 0.000000
outer loop
vertex -150.562393 -123.993988 -0.286413
vertex -150.936234 -123.993988 -0.131567
vertex -149.251434 -123.993988 0.457209
endloop
endfacet
facet normal 0.000000 1.000000 0.000000
outer loop
vertex -149.251434 -123.993988 0.457209
vertex -150.936234 -123.993988 -0.131567
vertex -151.337402 -123.993988 -0.078756
endloop
endfacet
facet normal 0.000000 1.000000 0.000000
outer loop
vertex -149.251434 -123.993988 0.457209
vertex -151.337402 -123.993988 -0.078756
vertex -158.333328 -123.993988 2.633799
endloop
endfacet
facet normal 0.000000 1.000000 0.000042
outer loop
vertex -158.333328 -123.993988 2.633799
vertex -151.337402 -123.993988 -0.078756
vertex -151.738571 -123.993988 -0.131567
endloop
endfacet
facet normal 0.000000 1.000000 -0.000011
outer loop
vertex -158.333328 -123.993988 2.633799
vertex -151.738571 -123.993988 -0.131567
vertex -152.112396 -123.993988 -0.286413
endloop
endfacet
facet normal 0.000000 1.000000 0.000000
outer loop
vertex -152.112396 -123.993988 -0.286413
vertex -152.433411 -123.993988 -0.532736
vertex -158.333328 -123.993988 2.633799
endloop
endfacet
facet normal 0.000000 1.000000 0.000002
outer loop
vertex -158.333328 -123.993988 2.633799
vertex -152.433411 -123.993988 -0.532736
vertex -158.337402 -123.993988 -6.436728
endloop
endfacet
facet normal 0.000000 1.000000 0.000000
outer loop
vertex -158.333328 -123.993988 2.633799
vertex -158.337402 -123.993988 -6.436728
vertex -164.241379 -123.993988 -0.532736
endloop
endfacet
facet normal 0.000000 1.000000 0.000000
outer loop
vertex -164.241379 -123.993988 -0.532736
vertex -164.562393 -123.993988 -0.286413
vertex -158.333328 -123.993988 2.633799
endloop
endfacet
facet normal 0.000000 1.000000 0.000048
outer loop
vertex -158.333328 -123.993988 2.633799
vertex -164.562393 -123.993988 -0.286413
vertex -164.936234 -123.993988 -0.131567
endloop
endfacet
facet normal 0.000000 1.000000 -0.000042
outer loop
vertex -158.333328 -123.993988 2.633799
vertex -164.936234 -123.993988 -0.131567
vertex -165.337402 -123.993988 -0.078756
endloop
endfacet
facet normal 0.000000 1.000000 -0.000006
outer loop
vertex -158.333328 -123.993988 2.633799
vertex -165.337402 -123.993988 -0.078756
vertex -167.423355 -123.993988 0.457209
endloop
endfacet
facet normal 0.000000 1.000000 0.000000
outer loop
vertex -167.423355 -123.993988 0.457209
vertex -165.337402 -123.993988 -0.078756
vertex -165.738571 -123.993988 -0.131567
endloop
endfacet
facet normal 0.000000 1.000000 0.000016
outer loop
vertex -167.423355 -123.993988 0.457209
vertex -165.738571 -123.993988 -0.131567
vertex -166.112396 -123.993988 -0.286413
endloop
endfacet
facet normal 0.000000 1.000000 -0.000027
outer loop
vertex -166.112396 -123.993988 -0.286413
vertex -166.433411 -123.993988 -0.532736
vertex -167.423355 -123.993988 0.457209
endloop
endfacet
facet normal 0.000000 1.000000 0.000000
outer loop
vertex -167.423355 -123.993988 0.457209
vertex -166.433411 -123.993988 -0.532736
vertex -166.679733 -123.993988 -0.853765
endloop
endfacet
facet normal 0.000000 1.000000 0.000000
outer loop
vertex -167.423355 -123.993988 0.457209
vertex -166.679733 -123.993988 -0.853765
vertex -166.834579 -123.993988 -1.227591
endloop
endfacet
facet normal 0.000000 1.000000 0.000000
outer loop
vertex -166.834579 -123.993988 -1.227591
vertex -166.887390 -123.993988 -1.628759
vertex -167.423355 -123.993988 0.457209
endloop
endfacet
facet normal 0.000000 1.000000 0.000055
outer loop
vertex -167.423355 -123.993988 0.457209
vertex -166.887390 -123.993988 -1.628759
vertex -166.834579 -123.993988 -2.029928
endloop
endfacet
facet normal 0.000000 1.000000 0.000000
outer loop
vertex -167.423355 -123.993988 0.457209
vertex -166.834579 -123.993988 -2.029928
vertex -168.766510 -123.993988 -18.178762
endloop
endfacet
facet normal 0.000000 1.000000 0.000000
outer loop
vertex -168.766510 -123.993988 -18.178762
vertex -166.834579 -123.993988 -2.029928
vertex -166.679733 -123.993988 -2.403753
endloop
endfacet
facet normal 0.000000 1.000000 0.000000
outer loop
vertex -168.766510 -123.993988 -18.178762
vertex -166.679733 -123.993988 -2.403753
vertex -166.679733 -123.993988 -14.853765
endloop
endfacet
facet normal 0.000000 1.000000 0.000000
outer loop
vertex -166.679733 -123.993988 -14.853765
vertex -166.679733 -123.993988 -2.403753
vertex -166.433411 -123.993988 -2.724768
endloop
endfacet
facet normal 0.000000 1.000000 0.000000
outer loop
vertex -166.679733 -123.993988 -14.853765
vertex -166.433411 -123.993988 -2.724768
vertex -166.433411 -123.993988 -14.532736
endloop
endfacet
facet normal 0.000000 1.000000 0.000000
outer loop
vertex -166.433411 -123.993988 -14.532736
vertex -166.433411 -123.993988 -2.724768
vertex -160.529434 -123.993988 -8.628759
endloop
endfacet
facet normal 0.000000 1.000000 0.000000
outer loop
vertex -166.679733 -123.993988 -14.853765
vertex -166.834579 -123.993988 -15.227591
vertex -168.766510 -123.993988 -18.178762
endloop
endfacet
facet normal 0.000000 1.000000 -0.000009
outer loop
vertex -168.766510 -123.993988 -18.178762
vertex -166.834579 -123.993988 -15.227591
vertex -166.887390 -123.993988 -15.628759
endloop
endfacet
facet normal 0.000000 1.000000 0.000006
outer loop
vertex -168.766510 -123.993988 -18.178762
vertex -166.887390 -123.993988 -15.628759
vertex -166.834579 -123.993988 -16.029928
endloop
endfacet
facet normal 0.000000 1.000000 0.000000
outer loop
vertex -166.834579 -123.993988 -16.029928
vertex -166.679733 -123.993988 -16.403753
vertex -168.766510 -123.993988 -18.178762
endloop
endfacet
facet normal 0.000000 1.000000 0.000028
outer loop
vertex -168.766510 -123.993988 -18.178762
vertex -166.679733 -123.993988 -16.403753
vertex -166.433411 -123.993988 -16.724768
endloop
endfacet
facet normal 0.000000 1.000000 -0.000015
outer loop
vertex -168.766510 -123.993988 -18.178762
vertex -166.433411 -123.993988 -16.724768
vertex -166.112396 -123.993988 -16.971090
endloop
endfacet
facet normal 0.000000 1.000000 0.000000
outer loop
vertex -166.112396 -123.993988 -16.971090
vertex -165.738571 -123.993988 -17.125937
vertex -168.766510 -123.993988 -18.178762
endloop
endfacet
facet normal 0.000000 1.000000 0.000000
outer loop
vertex -168.766510 -123.993988 -18.178762
vertex -165.738571 -123.993988 -17.125937
vertex -165.337402 -123.993988 -17.178762
endloop
endfacet
facet normal 0.000000 1.000000 0.000000
outer loop
vertex -168.766510 -123.993988 -18.178762
vertex -165.337402 -123.993988 -17.178762
vertex -164.936234 -123.993988 -17.125937
endloop
endfacet
facet normal 0.000000 1.000000 0.000000
outer loop
vertex -164.562393 -123.993988 -16.971090
vertex -152.112396 -123.993988 -16.971090
vertex -164.936234 -123.993988 -17.125937
endloop
endfacet
facet normal 0.000000 1.000000 0.000011
outer loop
vertex -164.936234 -123.993988 -17.125937
vertex -152.112396 -123.993988 -16.971090
vertex -151.738571 -123.993988 -17.125937
endloop
endfacet
facet normal 0.000000 1.000000 0.000000
outer loop
vertex -164.936234 -123.993988 -17.125937
vertex -151.738571 -123.993988 -17.125937
vertex -168.766510 -123.993988 -18.178762
endloop
endfacet
facet normal 0.000000 1.000000 0.000003
outer loop
vertex -168.766510 -123.993988 -18.178762
vertex -151.738571 -123.993988 -17.125937
vertex -147.908279 -123.993988 -18.178762
endloop
endfacet
facet normal 0.000000 1.000000 0.000000
outer loop
vertex -147.908279 -123.993988 -18.178762
vertex -151.738571 -123.993988 -17.125937
vertex -151.337402 -123.993988 -17.178762
endloop
endfacet
facet normal 0.000000 1.000000 0.000000
outer loop
vertex -147.908279 -123.993988 -18.178762
vertex -151.337402 -123.993988 -17.178762
vertex -150.936234 -123.993988 -17.125937
endloop
endfacet
facet normal 0.000000 1.000000 0.000000
outer loop
vertex -152.112396 -123.993988 -16.971090
vertex -164.562393 -123.993988 -16.971090
vertex -152.433411 -123.993988 -16.724768
endloop
endfacet
facet normal 0.000000 1.000000 0.000016
outer loop
vertex -152.433411 -123.993988 -16.724768
vertex -164.562393 -123.993988 -16.971090
vertex -164.241379 -123.993988 -16.724768
endloop
endfacet
facet normal 0.000000 1.000000 -0.000002
outer loop
vertex -152.433411 -123.993988 -16.724768
vertex -164.241379 -123.993988 -16.724768
vertex -158.337402 -123.993988 -10.820791
endloop
endfacet
facet normal 0.000000 1.000000 0.000000
outer loop
vertex -150.936234 -123.993988 -17.125937
vertex -150.562393 -123.993988 -16.971090
vertex -147.908279 -123.993988 -18.178762
endloop
endfacet
facet normal 0.000000 1.000000 -0.000015
outer loop
vertex -147.908279 -123.993988 -18.178762
vertex -150.562393 -123.993988 -16.971090
vertex -150.241379 -123.993988 -16.724768
endloop
endfacet
facet normal 0.000000 1.000000 0.000028
outer loop
vertex -147.908279 -123.993988 -18.178762
vertex -150.241379 -123.993988 -16.724768
vertex -149.995056 -123.993988 -16.403753
endloop
endfacet
facet normal 0.000000 1.000000 0.000000
outer loop
vertex -149.995056 -123.993988 -16.403753
vertex -149.840210 -123.993988 -16.029928
vertex -147.908279 -123.993988 -18.178762
endloop
endfacet
facet normal 0.000000 1.000000 0.000006
outer loop
vertex -147.908279 -123.993988 -18.178762
vertex -149.840210 -123.993988 -16.029928
vertex -149.787399 -123.993988 -15.628759
endloop
endfacet
facet normal 0.000000 1.000000 -0.000009
outer loop
vertex -147.908279 -123.993988 -18.178762
vertex -149.787399 -123.993988 -15.628759
vertex -149.840210 -123.993988 -15.227591
endloop
endfacet
facet normal 0.000000 1.000000 0.000000
outer loop
vertex -149.840210 -123.993988 -15.227591
vertex -149.995056 -123.993988 -14.853765
vertex -147.908279 -123.993988 -18.178762
endloop
endfacet
endsolid ShogiChessCncAndPLA v2.020
